<?xml version="1.0" encoding="UTF-8"?>
<svg width="882px" height="300px" viewBox="0 0 882 300" version="1.1" xmlns="http://www.w3.org/2000/svg" xmlns:xlink="http://www.w3.org/1999/xlink">
    <!-- Generator: Sketch 61 (89581) - https://sketch.com -->
    <title>Group</title>
    <desc>Created with Sketch.</desc>
    <g id="Github-Covers" stroke="none" stroke-width="1" fill="none" fill-rule="evenodd">
        <g id="Pioneer">
            <g id="Group">
                <rect id="Rectangle" fill="#FFFFFF" fill-rule="nonzero" x="0" y="0" width="882" height="300"></rect>
                <rect id="Rectangle" fill="#000000" fill-rule="nonzero" x="0" y="0" width="882" height="210"></rect>
                <rect id="Rectangle" fill="#1F242C" fill-rule="nonzero" x="620" y="105" width="52.5" height="52.5"></rect>
                <polygon id="Path" fill="#1F242C" fill-rule="nonzero" points="625.837 157.5 620 157.5 620 163.337 625.837 163.337"></polygon>
                <polygon id="Path" fill="#1F242C" fill-rule="nonzero" points="631.674 163.337 625.837 163.337 625.837 169.174 631.674 169.174"></polygon>
                <polygon id="Path" fill="#1F242C" fill-rule="nonzero" points="637.494 157.5 631.658 157.5 631.658 163.337 637.494 163.337"></polygon>
                <polygon id="Path" fill="#1F242C" fill-rule="nonzero" points="625.837 169.158 620 169.158 620 174.995 625.837 174.995"></polygon>
                <polygon id="Path" fill="#1F242C" fill-rule="nonzero" points="637.494 169.158 631.658 169.158 631.658 174.995 637.494 174.995"></polygon>
                <polygon id="Path" fill="#1F242C" fill-rule="nonzero" points="643.332 163.337 637.496 163.337 637.496 169.174 643.332 169.174"></polygon>
                <polygon id="Path" fill="#1F242C" fill-rule="nonzero" points="631.674 174.995 625.837 174.995 625.837 180.832 631.674 180.832"></polygon>
                <polygon id="Path" fill="#1F242C" fill-rule="nonzero" points="625.837 180.832 620 180.832 620 186.669 625.837 186.669"></polygon>
                <polygon id="Path" fill="#1F242C" fill-rule="nonzero" points="637.494 180.832 631.658 180.832 631.658 186.669 637.494 186.669"></polygon>
                <polygon id="Path" fill="#1F242C" fill-rule="nonzero" points="643.332 174.995 637.496 174.995 637.496 180.832 643.332 180.832"></polygon>
                <polygon id="Path" fill="#1F242C" fill-rule="nonzero" points="631.674 186.668 625.837 186.668 625.837 192.505 631.674 192.505"></polygon>
                <polygon id="Path" fill="#1F242C" fill-rule="nonzero" points="625.837 192.489 620 192.489 620 198.326 625.837 198.326"></polygon>
                <polygon id="Path" fill="#1F242C" fill-rule="nonzero" points="637.494 192.489 631.658 192.489 631.658 198.326 637.494 198.326"></polygon>
                <polygon id="Path" fill="#1F242C" fill-rule="nonzero" points="643.332 186.668 637.496 186.668 637.496 192.505 643.332 192.505"></polygon>
                <polygon id="Path" fill="#1F242C" fill-rule="nonzero" points="631.674 198.326 625.837 198.326 625.837 204.163 631.674 204.163"></polygon>
                <polygon id="Path" fill="#1F242C" fill-rule="nonzero" points="625.837 204.164 620 204.164 620 210.001 625.837 210.001"></polygon>
                <polygon id="Path" fill="#1F242C" fill-rule="nonzero" points="637.494 204.164 631.658 204.164 631.658 210.001 637.494 210.001"></polygon>
                <polygon id="Path" fill="#1F242C" fill-rule="nonzero" points="643.332 198.326 637.496 198.326 637.496 204.163 643.332 204.163"></polygon>
                <polygon id="Path" fill="#1F242C" fill-rule="nonzero" points="649.168 157.5 643.331 157.5 643.331 163.337 649.168 163.337"></polygon>
                <polygon id="Path" fill="#1F242C" fill-rule="nonzero" points="655.006 163.337 649.169 163.337 649.169 169.174 655.006 169.174"></polygon>
                <polygon id="Path" fill="#1F242C" fill-rule="nonzero" points="660.826 157.5 654.99 157.5 654.99 163.337 660.826 163.337"></polygon>
                <polygon id="Path" fill="#1F242C" fill-rule="nonzero" points="649.168 169.158 643.331 169.158 643.331 174.995 649.168 174.995"></polygon>
                <polygon id="Path" fill="#1F242C" fill-rule="nonzero" points="660.826 169.158 654.99 169.158 654.99 174.995 660.826 174.995"></polygon>
                <polygon id="Path" fill="#1F242C" fill-rule="nonzero" points="666.663 163.337 660.827 163.337 660.827 169.174 666.663 169.174"></polygon>
                <polygon id="Path" fill="#1F242C" fill-rule="nonzero" points="655.006 174.995 649.169 174.995 649.169 180.832 655.006 180.832"></polygon>
                <polygon id="Path" fill="#1F242C" fill-rule="nonzero" points="649.168 180.832 643.331 180.832 643.331 186.669 649.168 186.669"></polygon>
                <polygon id="Path" fill="#1F242C" fill-rule="nonzero" points="660.826 180.832 654.99 180.832 654.99 186.669 660.826 186.669"></polygon>
                <polygon id="Path" fill="#1F242C" fill-rule="nonzero" points="666.663 174.995 660.827 174.995 660.827 180.832 666.663 180.832"></polygon>
                <polygon id="Path" fill="#1F242C" fill-rule="nonzero" points="655.006 186.668 649.169 186.668 649.169 192.505 655.006 192.505"></polygon>
                <polygon id="Path" fill="#1F242C" fill-rule="nonzero" points="649.168 192.489 643.331 192.489 643.331 198.326 649.168 198.326"></polygon>
                <polygon id="Path" fill="#1F242C" fill-rule="nonzero" points="660.826 192.489 654.99 192.489 654.99 198.326 660.826 198.326"></polygon>
                <polygon id="Path" fill="#1F242C" fill-rule="nonzero" points="666.663 186.668 660.827 186.668 660.827 192.505 666.663 192.505"></polygon>
                <polygon id="Path" fill="#1F242C" fill-rule="nonzero" points="655.006 198.326 649.169 198.326 649.169 204.163 655.006 204.163"></polygon>
                <polygon id="Path" fill="#1F242C" fill-rule="nonzero" points="649.168 204.164 643.331 204.164 643.331 210.001 649.168 210.001"></polygon>
                <polygon id="Path" fill="#1F242C" fill-rule="nonzero" points="660.826 204.164 654.99 204.164 654.99 210.001 660.826 210.001"></polygon>
                <polygon id="Path" fill="#1F242C" fill-rule="nonzero" points="672.5 157.5 666.663 157.5 666.663 163.337 672.5 163.337"></polygon>
                <polygon id="Path" fill="#1F242C" fill-rule="nonzero" points="672.5 169.158 666.663 169.158 666.663 174.995 672.5 174.995"></polygon>
                <polygon id="Path" fill="#1F242C" fill-rule="nonzero" points="672.5 180.832 666.663 180.832 666.663 186.669 672.5 186.669"></polygon>
                <polygon id="Path" fill="#1F242C" fill-rule="nonzero" points="672.5 192.489 666.663 192.489 666.663 198.326 672.5 198.326"></polygon>
                <polygon id="Path" fill="#1F242C" fill-rule="nonzero" points="672.5 204.164 666.663 204.164 666.663 210.001 672.5 210.001"></polygon>
                <polygon id="Path" fill="#1F242C" fill-rule="nonzero" points="666.663 198.326 660.827 198.326 660.827 204.163 666.663 204.163"></polygon>
                <rect id="Rectangle" fill="#1F242C" fill-rule="nonzero" x="631.667" y="52.4995" width="5.83333" height="52.5"></rect>
                <rect id="Rectangle" fill="#1F242C" fill-rule="nonzero" x="643.333" y="52.4995" width="5.83333" height="52.5"></rect>
                <rect id="Rectangle" fill="#1F242C" fill-rule="nonzero" x="655" y="52.4995" width="5.83333" height="52.5"></rect>
                <rect id="Rectangle" fill="#1F242C" fill-rule="nonzero" x="666.667" y="52.4995" width="5.83333" height="52.5"></rect>
                <rect id="Rectangle" fill="#1F242C" fill-rule="nonzero" x="620" y="52.4995" width="5.83668" height="52.5"></rect>
                <rect id="Rectangle" fill="#1F242C" fill-rule="nonzero" transform="translate(552.916335, 131.250000) rotate(-180.000000) translate(-552.916335, -131.250000) " x="549.99967" y="105" width="5.83333" height="52.5"></rect>
                <rect id="Rectangle" fill="#1F242C" fill-rule="nonzero" transform="translate(541.250335, 131.250000) rotate(-180.000000) translate(-541.250335, -131.250000) " x="538.33367" y="105" width="5.83333" height="52.5"></rect>
                <rect id="Rectangle" fill="#1F242C" fill-rule="nonzero" transform="translate(529.583335, 131.250000) rotate(-180.000000) translate(-529.583335, -131.250000) " x="526.66667" y="105" width="5.83333" height="52.5"></rect>
                <rect id="Rectangle" fill="#1F242C" fill-rule="nonzero" transform="translate(517.916335, 131.250000) rotate(-180.000000) translate(-517.916335, -131.250000) " x="514.99967" y="105" width="5.83333" height="52.5"></rect>
                <rect id="Rectangle" fill="#1F242C" fill-rule="nonzero" transform="translate(564.581660, 131.250000) rotate(-180.000000) translate(-564.581660, -131.250000) " x="561.66332" y="105" width="5.83668" height="52.5"></rect>
                <rect id="Rectangle" fill="#1F242C" fill-rule="nonzero" transform="translate(867.588335, 27.234900) rotate(-180.000000) translate(-867.588335, -27.234900) " x="864.67167" y="0.9849" width="5.83333" height="52.5"></rect>
                <rect id="Rectangle" fill="#1F242C" fill-rule="nonzero" transform="translate(855.921335, 27.234400) rotate(-180.000000) translate(-855.921335, -27.234400) " x="853.00467" y="0.9844" width="5.83333" height="52.5"></rect>
                <rect id="Rectangle" fill="#1F242C" fill-rule="nonzero" transform="translate(844.255335, 27.234400) rotate(-180.000000) translate(-844.255335, -27.234400) " x="841.33867" y="0.9844" width="5.83333" height="52.5"></rect>
                <rect id="Rectangle" fill="#1F242C" fill-rule="nonzero" transform="translate(832.588335, 27.234400) rotate(-180.000000) translate(-832.588335, -27.234400) " x="829.67167" y="0.9844" width="5.83333" height="52.5"></rect>
                <rect id="Rectangle" fill="#1F242C" fill-rule="nonzero" transform="translate(879.253660, 27.234900) rotate(-180.000000) translate(-879.253660, -27.234900) " x="876.33532" y="0.9849" width="5.83668" height="52.5"></rect>
                <path d="M567.5,163.333 L567.5,157.5 C596.495,157.5 620,181.005 620,210 L614.167,210 C614.167,184.227 593.273,163.333 567.5,163.333 Z M567.5,175 L567.5,169.166 C590.052,169.166 608.333,187.448 608.333,210 L602.5,210 C602.5,190.67 586.83,175 567.5,175 Z M567.5,180.834 L567.5,186.667 C580.387,186.667 590.833,197.114 590.833,210 L596.667,210 C596.667,193.892 583.608,180.834 567.5,180.834 Z M567.5,198.333 L567.5,192.5 C577.165,192.5 585,200.335 585,210 L579.167,210 C579.167,203.557 573.943,198.333 567.5,198.333 Z M567.5,210 L567.5,204.166 C570.722,204.166 573.333,206.778 573.333,210 L567.5,210 Z" id="Shape" fill="#1F242C"></path>
                <path d="M777,110.833 L777,105 C805.995,105 829.5,128.505 829.5,157.5 L823.667,157.5 C823.667,131.727 802.773,110.833 777,110.833 Z M777,122.5 L777,116.667 C799.552,116.667 817.833,134.949 817.833,157.5 L812,157.5 C812,138.17 796.33,122.5 777,122.5 Z M777,128.333 L777,134.167 C789.887,134.167 800.333,144.613 800.333,157.5 L806.167,157.5 C806.167,141.392 793.108,128.333 777,128.333 Z M777,145.833 L777,140 C786.665,140 794.5,147.835 794.5,157.5 L788.667,157.5 C788.667,151.056 783.443,145.833 777,145.833 Z M777,157.5 L777,151.667 C780.222,151.667 782.833,154.279 782.833,157.5 L777,157.5 Z" id="Shape" fill="#1F242C"></path>
                <path d="M729.112,52.5 L725,52.5 L725,48.3875 L773.387,0 L777.5,0 L777.5,4.1125 L729.112,52.5 Z M765.133,0 L756.879,0 L725,31.8791 L725,40.1333 L765.133,0 Z M748.625,0 L740.371,0 L725,15.3708 L725,23.625 L748.625,0 Z M725,0 L725,7.11666 L732.117,0 L725,0 Z M777.5,20.6208 L777.5,12.3667 L737.367,52.5 L745.621,52.5 L777.5,20.6208 Z M777.5,37.1291 L777.5,28.875 L753.875,52.5 L762.129,52.5 L777.5,37.1291 Z M777.5,45.3833 L770.383,52.5 L777.5,52.5 L777.5,45.3833 Z" id="Shape" fill="#1F242C" fill-rule="nonzero"></path>
                <path d="M672.5,105 L725,105 L725,52.5 C696.005,52.5 672.5,76.0051 672.5,105 Z" id="Path" fill="#1F242C" fill-rule="nonzero"></path>
                <path d="M777.5,157.5 L777.5,105 L725,105 C725,133.995 748.505,157.5 777.5,157.5 Z" id="Path" fill="#1F242C" fill-rule="nonzero"></path>
                <path d="M64.4062,101 L64.4062,68.3516 L76.7578,68.3516 C78.7109,68.3516 80.2969,68.5391 81.5156,68.9141 C82.75,69.2734 83.8047,69.9062 84.6797,70.8125 C85.5078,71.6719 86.0938,72.75 86.4375,74.0469 C86.7969,75.3438 86.9766,76.7578 86.9766,78.2891 C86.9766,79.7891 86.7578,81.2109 86.3203,82.5547 C85.8984,83.8828 85.2188,85.0078 84.2812,85.9297 C82.4844,87.6953 79.9922,88.5781 76.8047,88.5781 L68.9766,88.5781 L68.9766,101 L64.4062,101 Z M68.9766,84.4766 L78.5391,84.4766 C79.6328,84.4766 80.5078,84.125 81.1641,83.4219 C81.8359,82.7188 82.1719,81.8281 82.1719,80.75 L82.1719,75.9922 C82.1719,74.8984 81.8516,74.0312 81.2109,73.3906 C80.5703,72.75 79.6797,72.4297 78.5391,72.4297 L68.9766,72.4297 L68.9766,84.4766 Z M92.8125,72.875 L92.8125,68.3516 L97.3125,68.3516 L97.3125,72.875 L92.8125,72.875 Z M92.9062,101 L92.9062,76.5312 L97.2188,76.5312 L97.2188,101 L92.9062,101 Z M103.898,88.7656 C103.898,86.9062 104.117,85.1875 104.555,83.6094 C105.008,82.0156 105.688,80.6641 106.594,79.5547 C107.516,78.4297 108.664,77.5469 110.039,76.9062 C111.414,76.2656 113.031,75.9453 114.891,75.9453 C116.75,75.9453 118.367,76.2656 119.742,76.9062 C121.117,77.5469 122.258,78.4297 123.164,79.5547 C124.07,80.6641 124.75,82.0156 125.203,83.6094 C125.656,85.1875 125.883,86.9062 125.883,88.7656 C125.883,90.6562 125.656,92.3828 125.203,93.9453 C124.75,95.5078 124.07,96.8516 123.164,97.9766 C122.258,99.1016 121.109,99.9844 119.719,100.625 C118.344,101.266 116.734,101.586 114.891,101.586 C113.031,101.586 111.414,101.266 110.039,100.625 C108.664,99.9844 107.516,99.1016 106.594,97.9766 C105.688,96.8516 105.008,95.5078 104.555,93.9453 C104.117,92.3828 103.898,90.6562 103.898,88.7656 Z M108.445,92.5625 C108.445,93.3906 108.617,94.1484 108.961,94.8359 C109.32,95.5234 109.789,96.1094 110.367,96.5938 C110.945,97.0625 111.625,97.4375 112.406,97.7188 C113.188,97.9844 114.016,98.1172 114.891,98.1172 C115.75,98.1172 116.57,97.9844 117.352,97.7188 C118.133,97.4375 118.812,97.0625 119.391,96.5938 C119.969,96.1094 120.43,95.5234 120.773,94.8359 C121.133,94.1484 121.312,93.3906 121.312,92.5625 L121.312,84.9688 C121.312,84.1406 121.133,83.3828 120.773,82.6953 C120.43,82.0078 119.969,81.4219 119.391,80.9375 C118.812,80.4531 118.133,80.0781 117.352,79.8125 C116.57,79.5312 115.75,79.3906 114.891,79.3906 C114.031,79.3906 113.203,79.5312 112.406,79.8125 C111.625,80.0781 110.945,80.4531 110.367,80.9375 C109.789,81.4219 109.32,82.0078 108.961,82.6953 C108.617,83.3828 108.445,84.1406 108.445,84.9688 L108.445,92.5625 Z M132.562,101 L132.562,76.5312 L136.875,76.5312 L136.875,80.5625 C137.547,79.125 138.469,78 139.641,77.1875 C140.812,76.3594 142.328,75.9453 144.188,75.9453 C145.375,75.9453 146.453,76.1094 147.422,76.4375 C148.391,76.75 149.227,77.2578 149.93,77.9609 C150.633,78.6641 151.18,79.5703 151.57,80.6797 C151.961,81.7734 152.156,83.1094 152.156,84.6875 L152.156,101 L147.82,101 L147.82,85.1562 C147.82,83.3594 147.477,81.9531 146.789,80.9375 C146.102,79.9062 144.828,79.3906 142.969,79.3906 C142.078,79.3906 141.266,79.5703 140.531,79.9297 C139.797,80.2734 139.156,80.7734 138.609,81.4297 C138.062,82.0859 137.633,82.8672 137.32,83.7734 C137.023,84.6641 136.875,85.6406 136.875,86.7031 L136.875,101 L132.562,101 Z M158.648,88.7656 C158.648,86.9062 158.875,85.1875 159.328,83.6094 C159.797,82.0156 160.484,80.6641 161.391,79.5547 C162.312,78.4297 163.422,77.5469 164.719,76.9062 C166.016,76.2656 167.508,75.9453 169.195,75.9453 C170.961,75.9453 172.5,76.25 173.812,76.8594 C175.125,77.4688 176.211,78.3047 177.07,79.3672 C177.93,80.4141 178.578,81.6484 179.016,83.0703 C179.453,84.4922 179.672,86.0234 179.672,87.6641 L179.672,89.9609 L163.195,89.9609 L163.195,92.5625 C163.195,93.4531 163.359,94.2422 163.688,94.9297 C164.031,95.6172 164.492,96.2031 165.07,96.6875 C165.648,97.1562 166.297,97.5156 167.016,97.7656 C167.734,98 168.477,98.1172 169.242,98.1172 C170.773,98.1172 172.102,97.7266 173.227,96.9453 C174.352,96.1641 174.992,94.9219 175.148,93.2188 L179.484,93.2188 C179.391,94.5312 179.047,95.7031 178.453,96.7344 C177.859,97.75 177.086,98.6172 176.133,99.3359 C175.195,100.055 174.133,100.609 172.945,101 C171.758,101.391 170.508,101.586 169.195,101.586 C167.43,101.586 165.883,101.266 164.555,100.625 C163.242,99.9844 162.141,99.1016 161.25,97.9766 C160.375,96.8516 159.719,95.5078 159.281,93.9453 C158.859,92.3828 158.648,90.6562 158.648,88.7656 Z M163.195,86.5156 L175.195,86.5156 L175.195,85.1562 C175.195,84.2656 175.031,83.4609 174.703,82.7422 C174.391,82.0234 173.953,81.4141 173.391,80.9141 C172.844,80.4141 172.203,80.0391 171.469,79.7891 C170.75,79.5234 169.992,79.3906 169.195,79.3906 C168.398,79.3906 167.641,79.5234 166.922,79.7891 C166.203,80.0391 165.562,80.4141 165,80.9141 C164.438,81.4141 163.992,82.0234 163.664,82.7422 C163.352,83.4609 163.195,84.2656 163.195,85.1562 L163.195,86.5156 Z M184.945,88.7656 C184.945,86.9062 185.172,85.1875 185.625,83.6094 C186.094,82.0156 186.781,80.6641 187.688,79.5547 C188.609,78.4297 189.719,77.5469 191.016,76.9062 C192.312,76.2656 193.805,75.9453 195.492,75.9453 C197.258,75.9453 198.797,76.25 200.109,76.8594 C201.422,77.4688 202.508,78.3047 203.367,79.3672 C204.227,80.4141 204.875,81.6484 205.312,83.0703 C205.75,84.4922 205.969,86.0234 205.969,87.6641 L205.969,89.9609 L189.492,89.9609 L189.492,92.5625 C189.492,93.4531 189.656,94.2422 189.984,94.9297 C190.328,95.6172 190.789,96.2031 191.367,96.6875 C191.945,97.1562 192.594,97.5156 193.312,97.7656 C194.031,98 194.773,98.1172 195.539,98.1172 C197.07,98.1172 198.398,97.7266 199.523,96.9453 C200.648,96.1641 201.289,94.9219 201.445,93.2188 L205.781,93.2188 C205.688,94.5312 205.344,95.7031 204.75,96.7344 C204.156,97.75 203.383,98.6172 202.43,99.3359 C201.492,100.055 200.43,100.609 199.242,101 C198.055,101.391 196.805,101.586 195.492,101.586 C193.727,101.586 192.18,101.266 190.852,100.625 C189.539,99.9844 188.438,99.1016 187.547,97.9766 C186.672,96.8516 186.016,95.5078 185.578,93.9453 C185.156,92.3828 184.945,90.6562 184.945,88.7656 Z M189.492,86.5156 L201.492,86.5156 L201.492,85.1562 C201.492,84.2656 201.328,83.4609 201,82.7422 C200.688,82.0234 200.25,81.4141 199.688,80.9141 C199.141,80.4141 198.5,80.0391 197.766,79.7891 C197.047,79.5234 196.289,79.3906 195.492,79.3906 C194.695,79.3906 193.938,79.5234 193.219,79.7891 C192.5,80.0391 191.859,80.4141 191.297,80.9141 C190.734,81.4141 190.289,82.0234 189.961,82.7422 C189.648,83.4609 189.492,84.2656 189.492,85.1562 L189.492,86.5156 Z M212.531,101 L212.531,76.5312 L224.297,76.5312 L224.297,80.2578 L216.844,80.2578 L216.844,101 L212.531,101 Z" id="Shape" fill="#FFFFFF" fill-rule="nonzero"></path>
                <path d="M61.8864,145 L63.0568,141.705 L67.7614,141.705 L68.9318,145 L70.4091,145 L66.1364,133.364 L64.6818,133.364 L60.4091,145 L61.8864,145 Z M63.5,140.455 L65.3636,135.205 L65.4545,135.205 L67.3182,140.455 L63.5,140.455 Z M72.0398,148.273 L73.3807,148.273 L73.3807,143.659 L73.4943,143.659 C73.7898,144.136 74.358,145.182 76.0398,145.182 C78.2216,145.182 79.7443,143.432 79.7443,140.659 C79.7443,137.909 78.2216,136.159 76.017,136.159 C74.3125,136.159 73.7898,137.205 73.4943,137.659 L73.3352,137.659 L73.3352,136.273 L72.0398,136.273 L72.0398,148.273 Z M73.358,140.636 C73.358,138.682 74.2216,137.364 75.858,137.364 C77.5625,137.364 78.4034,138.795 78.4034,140.636 C78.4034,142.5 77.5398,143.977 75.858,143.977 C74.2443,143.977 73.358,142.614 73.358,140.636 Z M81.7898,145 L83.1307,145 L83.1307,136.273 L81.7898,136.273 L81.7898,145 Z M82.4716,134.818 C82.9943,134.818 83.4261,134.409 83.4261,133.909 C83.4261,133.409 82.9943,133 82.4716,133 C81.9489,133 81.517,133.409 81.517,133.909 C81.517,134.409 81.9489,134.818 82.4716,134.818 Z M93.6094,148.455 C95.7003,148.455 97.3821,147.5 97.3821,145.25 L97.3821,136.273 L96.0866,136.273 L96.0866,137.659 L95.9503,137.659 C95.6548,137.205 95.1094,136.159 93.4048,136.159 C91.2003,136.159 89.6776,137.909 89.6776,140.591 C89.6776,143.318 91.2685,144.864 93.3821,144.864 C95.0866,144.864 95.6321,143.864 95.9276,143.386 L96.0412,143.386 L96.0412,145.159 C96.0412,146.614 95.0185,147.273 93.6094,147.273 C92.0241,147.273 91.4673,146.438 91.1094,145.955 L90.0412,146.705 C90.5866,147.619 91.6605,148.455 93.6094,148.455 Z M93.5639,143.659 C91.8821,143.659 91.0185,142.386 91.0185,140.568 C91.0185,138.795 91.8594,137.364 93.5639,137.364 C95.2003,137.364 96.0639,138.682 96.0639,140.568 C96.0639,142.5 95.1776,143.659 93.5639,143.659 Z M99.8366,145 L101.178,145 L101.178,136.273 L99.8366,136.273 L99.8366,145 Z M100.518,134.818 C101.041,134.818 101.473,134.409 101.473,133.909 C101.473,133.409 101.041,133 100.518,133 C99.9957,133 99.5639,133.409 99.5639,133.909 C99.5639,134.409 99.9957,134.818 100.518,134.818 Z M110.77,136.273 L109.315,136.273 L106.906,143.227 L106.815,143.227 L104.406,136.273 L102.952,136.273 L106.179,145 L107.543,145 L110.77,136.273 Z M112.54,145 L113.881,145 L113.881,136.273 L112.54,136.273 L112.54,145 Z M113.222,134.818 C113.744,134.818 114.176,134.409 114.176,133.909 C114.176,133.409 113.744,133 113.222,133 C112.699,133 112.267,133.409 112.267,133.909 C112.267,134.409 112.699,134.818 113.222,134.818 Z M117.678,139.75 C117.678,138.227 118.621,137.364 119.905,137.364 C121.149,137.364 121.905,138.176 121.905,139.545 L121.905,145 L123.246,145 L123.246,139.455 C123.246,137.227 122.058,136.159 120.291,136.159 C118.973,136.159 118.155,136.75 117.746,137.636 L117.632,137.636 L117.632,136.273 L116.337,136.273 L116.337,145 L117.678,145 L117.678,139.75 Z M129.219,148.455 C131.31,148.455 132.991,147.5 132.991,145.25 L132.991,136.273 L131.696,136.273 L131.696,137.659 L131.56,137.659 C131.264,137.205 130.719,136.159 129.014,136.159 C126.81,136.159 125.287,137.909 125.287,140.591 C125.287,143.318 126.878,144.864 128.991,144.864 C130.696,144.864 131.241,143.864 131.537,143.386 L131.651,143.386 L131.651,145.159 C131.651,146.614 130.628,147.273 129.219,147.273 C127.634,147.273 127.077,146.438 126.719,145.955 L125.651,146.705 C126.196,147.619 127.27,148.455 129.219,148.455 Z M129.173,143.659 C127.491,143.659 126.628,142.386 126.628,140.568 C126.628,138.795 127.469,137.364 129.173,137.364 C130.81,137.364 131.673,138.682 131.673,140.568 C131.673,142.5 130.787,143.659 129.173,143.659 Z M140.81,148.25 C142.02,148.25 142.878,147.608 143.378,146.273 L147.094,136.295 L145.628,136.273 L143.219,143.227 L143.128,143.227 L140.719,136.273 L139.264,136.273 L142.491,145.045 L142.241,145.727 C141.764,147.034 141.151,147.159 140.173,146.909 L139.832,148.091 C139.969,148.159 140.355,148.25 140.81,148.25 Z M152.101,145.182 C154.464,145.182 156.055,143.386 156.055,140.682 C156.055,137.955 154.464,136.159 152.101,136.159 C149.737,136.159 148.146,137.955 148.146,140.682 C148.146,143.386 149.737,145.182 152.101,145.182 Z M152.101,143.977 C150.305,143.977 149.487,142.432 149.487,140.682 C149.487,138.932 150.305,137.364 152.101,137.364 C153.896,137.364 154.714,138.932 154.714,140.682 C154.714,142.432 153.896,143.977 152.101,143.977 Z M163.602,141.432 C163.602,143.068 162.352,143.818 161.352,143.818 C160.239,143.818 159.443,143 159.443,141.727 L159.443,136.273 L158.102,136.273 L158.102,141.818 C158.102,144.045 159.284,145.114 160.92,145.114 C162.239,145.114 163.102,144.409 163.511,143.523 L163.602,143.523 L163.602,145 L164.943,145 L164.943,136.273 L163.602,136.273 L163.602,141.432 Z M175.195,145.182 C176.876,145.182 177.445,144.136 177.74,143.659 L177.899,143.659 L177.899,145 L179.195,145 L179.195,133.364 L177.854,133.364 L177.854,137.659 L177.74,137.659 C177.445,137.205 176.922,136.159 175.217,136.159 C173.013,136.159 171.49,137.909 171.49,140.659 C171.49,143.432 173.013,145.182 175.195,145.182 Z M175.376,143.977 C173.695,143.977 172.831,142.5 172.831,140.636 C172.831,138.795 173.672,137.364 175.376,137.364 C177.013,137.364 177.876,138.682 177.876,140.636 C177.876,142.614 176.99,143.977 175.376,143.977 Z M185.496,145.182 C187.268,145.182 188.564,144.295 188.973,142.977 L187.678,142.614 C187.337,143.523 186.547,143.977 185.496,143.977 C183.922,143.977 182.837,142.96 182.774,141.091 L189.109,141.091 L189.109,140.523 C189.109,137.273 187.178,136.159 185.359,136.159 C182.996,136.159 181.428,138.023 181.428,140.705 C181.428,143.386 182.973,145.182 185.496,145.182 Z M182.774,139.932 C182.865,138.574 183.825,137.364 185.359,137.364 C186.814,137.364 187.746,138.455 187.746,139.932 L182.774,139.932 Z M194.945,136.273 L193.081,136.273 L193.081,134.182 L191.74,134.182 L191.74,136.273 L190.422,136.273 L190.422,137.409 L191.74,137.409 L191.74,142.864 C191.74,144.386 192.967,145.114 194.104,145.114 C194.604,145.114 194.922,145.023 195.104,144.955 L194.831,143.75 C194.717,143.773 194.536,143.818 194.24,143.818 C193.649,143.818 193.081,143.636 193.081,142.5 L193.081,137.409 L194.945,137.409 L194.945,136.273 Z M199.53,145.205 C201.053,145.205 201.848,144.386 202.121,143.818 L202.189,143.818 L202.189,145 L203.53,145 L203.53,139.25 C203.53,136.477 201.416,136.159 200.303,136.159 C198.984,136.159 197.484,136.614 196.803,138.205 L198.075,138.659 C198.371,138.023 199.07,137.341 200.348,137.341 C201.581,137.341 202.189,137.994 202.189,139.114 L202.189,139.159 C202.189,139.807 201.53,139.75 199.939,139.955 C198.32,140.165 196.553,140.523 196.553,142.523 C196.553,144.227 197.871,145.205 199.53,145.205 Z M199.734,144 C198.666,144 197.893,143.523 197.893,142.591 C197.893,141.568 198.825,141.25 199.871,141.114 C200.439,141.045 201.962,140.886 202.189,140.614 L202.189,141.841 C202.189,142.932 201.325,144 199.734,144 Z M205.977,145 L207.318,145 L207.318,136.273 L205.977,136.273 L205.977,145 Z M206.659,134.818 C207.182,134.818 207.614,134.409 207.614,133.909 C207.614,133.409 207.182,133 206.659,133 C206.136,133 205.705,133.409 205.705,133.909 C205.705,134.409 206.136,134.818 206.659,134.818 Z M211.115,133.364 L209.774,133.364 L209.774,145 L211.115,145 L211.115,133.364 Z M217.23,145.182 C219.003,145.182 220.298,144.295 220.707,142.977 L219.412,142.614 C219.071,143.523 218.281,143.977 217.23,143.977 C215.656,143.977 214.571,142.96 214.509,141.091 L220.844,141.091 L220.844,140.523 C220.844,137.273 218.912,136.159 217.094,136.159 C214.73,136.159 213.162,138.023 213.162,140.705 C213.162,143.386 214.707,145.182 217.23,145.182 Z M214.509,139.932 C214.599,138.574 215.56,137.364 217.094,137.364 C218.548,137.364 219.48,138.455 219.48,139.932 L214.509,139.932 Z M226.179,145.182 C227.861,145.182 228.429,144.136 228.724,143.659 L228.884,143.659 L228.884,145 L230.179,145 L230.179,133.364 L228.838,133.364 L228.838,137.659 L228.724,137.659 C228.429,137.205 227.906,136.159 226.202,136.159 C223.997,136.159 222.474,137.909 222.474,140.659 C222.474,143.432 223.997,145.182 226.179,145.182 Z M226.361,143.977 C224.679,143.977 223.815,142.5 223.815,140.636 C223.815,138.795 224.656,137.364 226.361,137.364 C227.997,137.364 228.861,138.682 228.861,140.636 C228.861,142.614 227.974,143.977 226.361,143.977 Z M240.866,145.182 C242.798,145.182 244.071,144 244.298,142.455 L242.957,142.455 C242.707,143.409 241.912,143.977 240.866,143.977 C239.276,143.977 238.253,142.659 238.253,140.636 C238.253,138.659 239.298,137.364 240.866,137.364 C242.048,137.364 242.753,138.091 242.957,138.886 L244.298,138.886 C244.071,137.25 242.685,136.159 240.844,136.159 C238.48,136.159 236.912,138.023 236.912,140.682 C236.912,143.295 238.412,145.182 240.866,145.182 Z M247.599,139.75 C247.599,138.227 248.571,137.364 249.895,137.364 C251.156,137.364 251.918,138.159 251.918,139.545 L251.918,145 L253.259,145 L253.259,139.455 C253.259,137.21 252.065,136.159 250.281,136.159 C248.906,136.159 248.122,136.733 247.713,137.636 L247.599,137.636 L247.599,133.364 L246.259,133.364 L246.259,145 L247.599,145 L247.599,139.75 Z M258.28,145.205 C259.803,145.205 260.598,144.386 260.871,143.818 L260.939,143.818 L260.939,145 L262.28,145 L262.28,139.25 C262.28,136.477 260.166,136.159 259.053,136.159 C257.734,136.159 256.234,136.614 255.553,138.205 L256.825,138.659 C257.121,138.023 257.82,137.341 259.098,137.341 C260.331,137.341 260.939,137.994 260.939,139.114 L260.939,139.159 C260.939,139.807 260.28,139.75 258.689,139.955 C257.07,140.165 255.303,140.523 255.303,142.523 C255.303,144.227 256.621,145.205 258.28,145.205 Z M258.484,144 C257.416,144 256.643,143.523 256.643,142.591 C256.643,141.568 257.575,141.25 258.621,141.114 C259.189,141.045 260.712,140.886 260.939,140.614 L260.939,141.841 C260.939,142.932 260.075,144 258.484,144 Z M264.727,145 L266.068,145 L266.068,136.273 L264.727,136.273 L264.727,145 Z M265.409,134.818 C265.932,134.818 266.364,134.409 266.364,133.909 C266.364,133.409 265.932,133 265.409,133 C264.886,133 264.455,133.409 264.455,133.909 C264.455,134.409 264.886,134.818 265.409,134.818 Z M269.865,139.75 C269.865,138.227 270.808,137.364 272.092,137.364 C273.337,137.364 274.092,138.176 274.092,139.545 L274.092,145 L275.433,145 L275.433,139.455 C275.433,137.227 274.246,136.159 272.479,136.159 C271.161,136.159 270.342,136.75 269.933,137.636 L269.82,137.636 L269.82,136.273 L268.524,136.273 L268.524,145 L269.865,145 L269.865,139.75 Z M279.884,143.409 L278.429,143.409 L278.361,144.045 C278.196,145.585 277.872,147.119 277.724,147.841 L278.747,147.841 C279.02,147.068 279.599,145.318 279.793,144.023 L279.884,143.409 Z M287.05,145 L288.345,145 L288.345,143.659 L288.504,143.659 C288.8,144.136 289.368,145.182 291.05,145.182 C293.232,145.182 294.754,143.432 294.754,140.659 C294.754,137.909 293.232,136.159 291.027,136.159 C289.322,136.159 288.8,137.205 288.504,137.659 L288.391,137.659 L288.391,133.364 L287.05,133.364 L287.05,145 Z M288.368,140.636 C288.368,138.682 289.232,137.364 290.868,137.364 C292.572,137.364 293.413,138.795 293.413,140.636 C293.413,142.5 292.55,143.977 290.868,143.977 C289.254,143.977 288.368,142.614 288.368,140.636 Z M298.146,133.364 L296.805,133.364 L296.805,145 L298.146,145 L298.146,133.364 Z M304.148,145.182 C306.511,145.182 308.102,143.386 308.102,140.682 C308.102,137.955 306.511,136.159 304.148,136.159 C301.784,136.159 300.193,137.955 300.193,140.682 C300.193,143.386 301.784,145.182 304.148,145.182 Z M304.148,143.977 C302.352,143.977 301.534,142.432 301.534,140.682 C301.534,138.932 302.352,137.364 304.148,137.364 C305.943,137.364 306.761,138.932 306.761,140.682 C306.761,142.432 305.943,143.977 304.148,143.977 Z M313.695,145.182 C315.626,145.182 316.899,144 317.126,142.455 L315.786,142.455 C315.536,143.409 314.74,143.977 313.695,143.977 C312.104,143.977 311.081,142.659 311.081,140.636 C311.081,138.659 312.126,137.364 313.695,137.364 C314.876,137.364 315.581,138.091 315.786,138.886 L317.126,138.886 C316.899,137.25 315.513,136.159 313.672,136.159 C311.308,136.159 309.74,138.023 309.74,140.682 C309.74,143.295 311.24,145.182 313.695,145.182 Z M319.087,145 L320.428,145 L320.428,141.733 L321.365,140.864 L324.632,145 L326.337,145 L322.376,140 L326.064,136.273 L324.405,136.273 L320.587,140.159 L320.428,140.159 L320.428,133.364 L319.087,133.364 L319.087,145 Z M334.858,145.205 C336.381,145.205 337.176,144.386 337.449,143.818 L337.517,143.818 L337.517,145 L338.858,145 L338.858,139.25 C338.858,136.477 336.744,136.159 335.631,136.159 C334.312,136.159 332.812,136.614 332.131,138.205 L333.403,138.659 C333.699,138.023 334.398,137.341 335.676,137.341 C336.909,137.341 337.517,137.994 337.517,139.114 L337.517,139.159 C337.517,139.807 336.858,139.75 335.267,139.955 C333.648,140.165 331.881,140.523 331.881,142.523 C331.881,144.227 333.199,145.205 334.858,145.205 Z M335.062,144 C333.994,144 333.222,143.523 333.222,142.591 C333.222,141.568 334.153,141.25 335.199,141.114 C335.767,141.045 337.29,140.886 337.517,140.614 L337.517,141.841 C337.517,142.932 336.653,144 335.062,144 Z M342.646,139.75 C342.646,138.227 343.589,137.364 344.874,137.364 C346.118,137.364 346.874,138.176 346.874,139.545 L346.874,145 L348.214,145 L348.214,139.455 C348.214,137.227 347.027,136.159 345.26,136.159 C343.942,136.159 343.124,136.75 342.714,137.636 L342.601,137.636 L342.601,136.273 L341.305,136.273 L341.305,145 L342.646,145 L342.646,139.75 Z M353.96,145.182 C355.642,145.182 356.21,144.136 356.506,143.659 L356.665,143.659 L356.665,145 L357.96,145 L357.96,133.364 L356.619,133.364 L356.619,137.659 L356.506,137.659 C356.21,137.205 355.688,136.159 353.983,136.159 C351.778,136.159 350.256,137.909 350.256,140.659 C350.256,143.432 351.778,145.182 353.96,145.182 Z M354.142,143.977 C352.46,143.977 351.597,142.5 351.597,140.636 C351.597,138.795 352.438,137.364 354.142,137.364 C355.778,137.364 356.642,138.682 356.642,140.636 C356.642,142.614 355.756,143.977 354.142,143.977 Z M366.443,139.75 C366.443,138.227 367.386,137.364 368.67,137.364 C369.915,137.364 370.67,138.176 370.67,139.545 L370.67,145 L372.011,145 L372.011,139.455 C372.011,137.227 370.824,136.159 369.057,136.159 C367.739,136.159 366.92,136.75 366.511,137.636 L366.398,137.636 L366.398,136.273 L365.102,136.273 L365.102,145 L366.443,145 L366.443,139.75 Z M378.007,145.182 C380.371,145.182 381.962,143.386 381.962,140.682 C381.962,137.955 380.371,136.159 378.007,136.159 C375.643,136.159 374.053,137.955 374.053,140.682 C374.053,143.386 375.643,145.182 378.007,145.182 Z M378.007,143.977 C376.212,143.977 375.393,142.432 375.393,140.682 C375.393,138.932 376.212,137.364 378.007,137.364 C379.803,137.364 380.621,138.932 380.621,140.682 C380.621,142.432 379.803,143.977 378.007,143.977 Z M387.304,145.182 C388.986,145.182 389.554,144.136 389.849,143.659 L390.009,143.659 L390.009,145 L391.304,145 L391.304,133.364 L389.963,133.364 L389.963,137.659 L389.849,137.659 C389.554,137.205 389.031,136.159 387.327,136.159 C385.122,136.159 383.599,137.909 383.599,140.659 C383.599,143.432 385.122,145.182 387.304,145.182 Z M387.486,143.977 C385.804,143.977 384.94,142.5 384.94,140.636 C384.94,138.795 385.781,137.364 387.486,137.364 C389.122,137.364 389.986,138.682 389.986,140.636 C389.986,142.614 389.099,143.977 387.486,143.977 Z M397.605,145.182 C399.378,145.182 400.673,144.295 401.082,142.977 L399.787,142.614 C399.446,143.523 398.656,143.977 397.605,143.977 C396.031,143.977 394.946,142.96 394.884,141.091 L401.219,141.091 L401.219,140.523 C401.219,137.273 399.287,136.159 397.469,136.159 C395.105,136.159 393.537,138.023 393.537,140.705 C393.537,143.386 395.082,145.182 397.605,145.182 Z M394.884,139.932 C394.974,138.574 395.935,137.364 397.469,137.364 C398.923,137.364 399.855,138.455 399.855,139.932 L394.884,139.932 Z M407.759,145 L409.099,145 L409.099,136.273 L407.759,136.273 L407.759,145 Z M408.44,134.818 C408.963,134.818 409.395,134.409 409.395,133.909 C409.395,133.409 408.963,133 408.44,133 C407.918,133 407.486,133.409 407.486,133.909 C407.486,134.409 407.918,134.818 408.44,134.818 Z M412.896,139.75 C412.896,138.227 413.839,137.364 415.124,137.364 C416.368,137.364 417.124,138.176 417.124,139.545 L417.124,145 L418.464,145 L418.464,139.455 C418.464,137.227 417.277,136.159 415.51,136.159 C414.192,136.159 413.374,136.75 412.964,137.636 L412.851,137.636 L412.851,136.273 L411.555,136.273 L411.555,145 L412.896,145 L412.896,139.75 Z M424.801,136.273 L422.847,136.273 L422.847,135.386 C422.847,134.523 423.21,134.068 424.097,134.068 C424.483,134.068 424.71,134.159 424.847,134.205 L425.233,133.045 C425.028,132.955 424.619,132.818 423.96,132.818 C422.71,132.818 421.506,133.568 421.506,135.068 L421.506,136.273 L420.097,136.273 L420.097,137.409 L421.506,137.409 L421.506,145 L422.847,145 L422.847,137.409 L424.801,137.409 L424.801,136.273 Z M429.866,145.182 C432.23,145.182 433.821,143.386 433.821,140.682 C433.821,137.955 432.23,136.159 429.866,136.159 C427.503,136.159 425.912,137.955 425.912,140.682 C425.912,143.386 427.503,145.182 429.866,145.182 Z M429.866,143.977 C428.071,143.977 427.253,142.432 427.253,140.682 C427.253,138.932 428.071,137.364 429.866,137.364 C431.662,137.364 432.48,138.932 432.48,140.682 C432.48,142.432 431.662,143.977 429.866,143.977 Z" id="Shape" fill="#C4C3C6" fill-rule="nonzero"></path>
                <path d="M589.09,217.3 C587.43,217.81 586.7,217.58 585.82,216.25 C581.3,209.45 576.787,202.646 572.28,195.84 C571.01,193.93 571.18,193.08 573.02,191.65 C578.53,187.36 584.02,183.05 589.53,178.78 C589.778,178.637 589.965,178.41 590.059,178.14 C590.152,177.87 590.146,177.575 590.04,177.31 C589.261,174.646 588.739,171.913 588.48,169.15 C588.41,168.43 587.96,168.3 587.42,168.15 L568.48,162.75 C567.8,162.55 567.1,162.38 566.48,162.14 C565.933,161.985 565.468,161.622 565.185,161.129 C564.903,160.635 564.826,160.05 564.97,159.5 C566.47,152.106 567.977,144.713 569.49,137.32 C569.67,136.43 569.84,135.53 570.02,134.64 C570.06,134.335 570.161,134.042 570.318,133.777 C570.474,133.512 570.682,133.282 570.93,133.1 C571.177,132.918 571.459,132.788 571.758,132.717 C572.057,132.647 572.367,132.637 572.67,132.69 C578.923,133.456 585.167,134.236 591.4,135.03 C591.705,135.03 592.01,135.057 592.31,135.11 C594.54,135.92 595.71,134.89 596.64,132.94 C597.623,131.117 598.807,129.409 600.17,127.85 C600.356,127.681 600.472,127.448 600.494,127.198 C600.516,126.948 600.443,126.699 600.29,126.5 C596.81,120.253 593.34,114 589.88,107.74 C588.97,106.11 589.19,105.14 590.71,104.13 C597.43,99.6798 604.17,95.2498 610.86,90.7498 C612.32,89.7498 613.6,89.5798 614.97,90.7498 C614.9,90.9598 615.07,91.0598 615.17,91.1798 C619.557,96.8198 623.947,102.456 628.34,108.09 C628.447,108.247 628.604,108.365 628.785,108.423 C628.966,108.481 629.162,108.476 629.34,108.41 C630.61,108.06 631.9,107.78 633.19,107.48 C634.76,107.26 636.33,107 637.91,106.82 C638.59,106.75 638.59,106.23 638.71,105.82 C639.71,102.21 640.77,98.5998 641.81,94.9898 C642.73,91.7698 643.65,88.5398 644.59,85.3298 C645.13,83.4998 645.98,83.0298 647.85,83.4098 C655.897,85.0498 663.947,86.6898 672,88.3298 C672.6,88.4598 673.3,88.4198 673.73,88.9998 L673.96,89.3298 C674.241,89.9138 674.339,90.5693 674.24,91.2098 L673.5,96.9998 C672.86,102.2 672.23,107.4 671.58,112.59 C671.513,112.835 671.542,113.097 671.661,113.321 C671.78,113.546 671.98,113.717 672.22,113.8 C674.59,115.111 676.839,116.631 678.94,118.34 C679.63,118.9 680.07,118.91 680.6,118.26 C681.887,117.845 683.105,117.239 684.21,116.46 C689.21,113.7 694.28,110.87 699.31,108.08 C700.62,107.35 701.45,107.53 702.62,108.74 L702.85,109.05 L716.52,129.71 C717.52,131.18 717.34,132.21 715.96,133.3 C710.307,137.726 704.64,142.15 698.96,146.57 C698.737,146.684 698.565,146.878 698.477,147.113 C698.39,147.348 698.395,147.608 698.49,147.84 C699.265,150.54 699.797,153.305 700.08,156.1 C700.07,156.301 700.133,156.5 700.258,156.658 C700.383,156.816 700.562,156.924 700.76,156.96 L705.65,158.3 C707.797,159.08 709.984,159.747 712.2,160.3 C715.36,161.25 718.55,162.11 721.72,163.02 C722.175,163.124 722.6,163.333 722.96,163.63 C723.292,163.924 723.528,164.311 723.635,164.742 C723.742,165.172 723.716,165.625 723.56,166.04 L718.56,190.69 C718.528,191.099 718.37,191.488 718.109,191.805 C717.848,192.122 717.496,192.35 717.1,192.46 C715.1,192.7 713.1,192.17 711.17,191.98 C707.17,191.58 703.17,190.85 699.12,190.63 C697.44,190.4 695.77,190.19 694.12,189.94 C693.92,189.887 693.707,189.909 693.522,190.003 C693.338,190.097 693.195,190.256 693.12,190.45 C691.758,192.914 690.185,195.256 688.42,197.45 C688.242,197.622 688.133,197.855 688.117,198.102 C688.1,198.35 688.176,198.595 688.33,198.79 C690.02,201.79 691.68,204.79 693.33,207.85 C695.15,211.14 696.98,214.42 698.79,217.71 C698.979,217.964 699.112,218.254 699.181,218.563 C699.25,218.872 699.254,219.191 699.191,219.502 C699.129,219.812 699.003,220.105 698.82,220.363 C698.637,220.621 698.402,220.838 698.13,221 C691.11,225.666 684.067,230.333 677,235 C676.742,235.191 676.447,235.326 676.134,235.397 C675.82,235.468 675.496,235.474 675.18,235.414 C674.865,235.354 674.565,235.229 674.3,235.048 C674.035,234.867 673.81,234.632 673.64,234.36 C669.5,229.026 665.367,223.723 661.24,218.45 C661.046,218.131 660.779,217.864 660.46,217.67 C660.17,217.18 659.97,216.67 659.17,216.9 C656.437,217.679 653.644,218.231 650.82,218.55 C650.592,218.553 650.373,218.639 650.204,218.792 C650.035,218.944 649.927,219.153 649.9,219.38 C648.25,225.24 646.59,231.09 644.9,236.93 C644.48,238.34 644.37,239.86 643.47,241.11 C643.19,241.511 642.786,241.809 642.32,241.959 C641.854,242.109 641.352,242.102 640.89,241.94 L620.42,237.76 C619.07,237.48 617.71,237.21 616.35,236.91 C616.03,236.901 615.715,236.819 615.43,236.672 C615.146,236.524 614.898,236.314 614.706,236.058 C614.513,235.801 614.381,235.504 614.32,235.189 C614.258,234.875 614.269,234.55 614.35,234.24 C614.6,231.82 614.92,229.41 615.22,226.99 C615.74,222.83 616.11,218.65 616.83,214.52 C617.19,212.42 616.66,211.22 614.73,210.47 C613.93,210.15 613.33,209.41 612.46,209.16 L611.46,208.42 C610.6,207.77 609.79,206.73 608.85,206.58 C607.91,206.43 606.85,207.46 605.92,207.99 C600.32,211.07 594.71,214.173 589.09,217.3 Z" id="Path" fill="#D3D8E0" fill-rule="nonzero"></path>
                <path d="M646.79,83.2699 C647.146,83.2752 647.501,83.3154 647.85,83.3899 C655.897,85.0299 663.947,86.6699 672,88.3099 C672.6,88.4399 673.3,88.3999 673.73,88.9799 L673.95,89.2999 C674.223,89.8793 674.317,90.5268 674.22,91.1599 L673.5,96.9999 C672.86,102.2 672.23,107.4 671.58,112.59 C671.513,112.835 671.542,113.097 671.661,113.322 C671.779,113.546 671.979,113.717 672.22,113.8 C674.59,115.111 676.839,116.631 678.94,118.34 C679.175,118.572 679.482,118.716 679.81,118.75 C679.97,118.734 680.125,118.681 680.262,118.596 C680.399,118.511 680.514,118.396 680.6,118.26 C681.887,117.846 683.104,117.239 684.21,116.46 C689.21,113.7 694.28,110.87 699.31,108.08 C699.722,107.82 700.194,107.672 700.68,107.65 C701.061,107.688 701.43,107.804 701.764,107.992 C702.098,108.179 702.39,108.434 702.62,108.74 L702.85,109.05 L716.52,129.71 C717.52,131.18 717.34,132.21 715.96,133.3 C710.307,137.727 704.64,142.15 698.96,146.57 C698.737,146.684 698.564,146.878 698.477,147.113 C698.39,147.348 698.395,147.608 698.49,147.84 C699.264,150.54 699.797,153.305 700.08,156.1 C700.069,156.301 700.133,156.5 700.258,156.658 C700.383,156.816 700.562,156.924 700.76,156.96 L705.65,158.3 C707.797,159.08 709.983,159.747 712.2,160.3 C715.36,161.25 718.55,162.11 721.72,163.02 C722.175,163.124 722.6,163.333 722.96,163.63 C723.29,163.925 723.524,164.313 723.631,164.743 C723.738,165.172 723.713,165.624 723.56,166.04 L718.56,190.69 C718.528,191.099 718.37,191.488 718.109,191.805 C717.848,192.122 717.496,192.35 717.1,192.46 C716.741,192.5 716.381,192.52 716.02,192.52 C714.39,192.52 712.79,192.14 711.17,191.98 C707.17,191.58 703.17,190.85 699.12,190.63 C697.44,190.4 695.77,190.19 694.12,189.94 L693.92,189.94 C693.754,189.942 693.592,189.994 693.454,190.088 C693.317,190.182 693.211,190.315 693.15,190.47 C691.787,192.934 690.215,195.276 688.45,197.47 C688.271,197.642 688.163,197.875 688.147,198.123 C688.13,198.37 688.206,198.615 688.36,198.81 C690.05,201.81 691.71,204.81 693.36,207.87 C695.18,211.16 697.01,214.44 698.82,217.73 C699.009,217.984 699.142,218.275 699.211,218.583 C699.28,218.892 699.283,219.212 699.221,219.522 C699.159,219.832 699.033,220.125 698.85,220.383 C698.667,220.641 698.432,220.858 698.16,221.02 C691.12,225.673 684.067,230.333 677,235 C676.55,235.264 676.041,235.411 675.52,235.43 C675.143,235.413 674.776,235.306 674.449,235.119 C674.122,234.931 673.844,234.667 673.64,234.35 C669.5,229.017 665.367,223.713 661.24,218.44 C661.046,218.121 660.779,217.854 660.46,217.66 C660.22,217.26 660.04,216.83 659.53,216.83 C659.408,216.833 659.287,216.854 659.17,216.89 C656.437,217.669 653.644,218.221 650.82,218.54 C650.592,218.543 650.373,218.629 650.204,218.782 C650.035,218.935 649.927,219.144 649.9,219.37 C648.25,225.23 646.59,231.08 644.9,236.92 C644.48,238.33 644.37,239.85 643.47,241.1 C643.283,241.392 643.023,241.63 642.717,241.791 C642.41,241.953 642.066,242.031 641.72,242.021021 C641.441,242.018 641.163,241.988 640.89,241.93 L620.42,237.75 C619.07,237.47 617.71,237.2 616.35,236.9 C616.029,236.891 615.715,236.809 615.43,236.662 C615.145,236.514 614.898,236.304 614.705,236.048 C614.513,235.791 614.381,235.494 614.32,235.179 C614.258,234.865 614.269,234.54 614.35,234.23 C614.6,231.81 614.92,229.4 615.22,226.98 C615.74,222.82 616.11,218.64 616.83,214.51 C617.19,212.41 616.66,211.21 614.73,210.46 C613.93,210.14 613.33,209.4 612.46,209.15 L611.46,208.41 C610.6,207.76 609.79,206.72 608.85,206.57 L608.64,206.57 C607.71,206.57 606.82,207.51 605.92,208 C600.293,211.113 594.67,214.233 589.05,217.36 C588.619,217.512 588.167,217.596 587.71,217.61 C586.91,217.61 586.38,217.22 585.78,216.31 C581.26,209.51 576.747,202.707 572.24,195.9 C570.97,193.99 571.14,193.14 572.98,191.71 C578.49,187.42 583.98,183.11 589.49,178.84 C589.737,178.697 589.925,178.47 590.019,178.2 C590.112,177.93 590.106,177.635 590,177.37 C589.221,174.706 588.699,171.973 588.44,169.21 C588.37,168.49 587.92,168.36 587.38,168.21 L568.44,162.81 C567.76,162.61 567.06,162.44 566.44,162.2 C565.893,162.046 565.428,161.682 565.145,161.189 C564.863,160.695 564.785,160.11 564.93,159.56 C566.43,152.167 567.937,144.773 569.45,137.38 C569.63,136.49 569.8,135.59 569.98,134.7 C570.047,134.142 570.318,133.629 570.741,133.26 C571.164,132.89 571.709,132.691 572.27,132.7 C572.39,132.69 572.51,132.69 572.63,132.7 C578.883,133.467 585.127,134.247 591.36,135.04 C591.665,135.04 591.97,135.067 592.27,135.12 C592.713,135.294 593.184,135.388 593.66,135.4 C595.03,135.4 595.89,134.4 596.6,132.95 C597.583,131.127 598.767,129.419 600.13,127.86 C600.316,127.691 600.431,127.458 600.454,127.208 C600.476,126.958 600.403,126.709 600.25,126.51 C596.77,120.263 593.3,114.01 589.84,107.75 C588.93,106.12 589.15,105.15 590.67,104.14 C597.39,99.6899 604.13,95.2599 610.82,90.7599 C611.448,90.2762 612.208,89.9938 613,89.9499 C613.72,89.9685 614.408,90.2535 614.93,90.7499 C614.86,90.9599 615.03,91.0599 615.13,91.1799 C619.517,96.8199 623.907,102.457 628.3,108.09 C628.37,108.203 628.467,108.297 628.582,108.363 C628.697,108.43 628.827,108.466 628.96,108.47 C629.089,108.467 629.217,108.447 629.34,108.41 C630.61,108.06 631.9,107.78 633.19,107.48 C634.76,107.26 636.33,107 637.91,106.82 C638.59,106.75 638.59,106.23 638.71,105.82 C639.71,102.21 640.77,98.5999 641.81,94.9899 C642.73,91.7699 643.65,88.5399 644.59,85.3299 C645.02,83.8799 645.59,83.3299 646.79,83.3299 L646.79,83.2699 Z M646.79,74.3999 C641.64,74.3999 637.63,77.5399 636.08,82.8099 C635.28,85.5399 634.48,88.3199 633.72,90.9999 L633.28,92.5199 C632.92,93.7699 632.57,95.0199 632.21,96.2599 C632.05,96.8499 631.88,97.4299 631.71,98.0099 L626,90.6299 L624.95,89.2799 L620.66,83.9999 C618.543,82.1313 615.824,81.0876 613,81.0599 C610.444,81.0962 607.958,81.9049 605.87,83.3799 C600.96,86.6799 595.87,90.0099 591.05,93.2299 L585.77,96.7299 C580.36,100.31 578.91,106.32 582.08,112.04 L585.08,117.54 C586.62,120.32 588.163,123.1 589.71,125.88 L586.16,125.43 L573.67,123.87 C573.189,123.81 572.705,123.78 572.22,123.78 C569.614,123.772 567.087,124.677 565.077,126.337 C563.068,127.997 561.703,130.309 561.22,132.87 C561.13,133.3 561.05,133.73 560.96,134.15 L560.69,135.54 L559.28,142.46 C558.24,147.553 557.203,152.643 556.17,157.73 C555.594,160.372 556.012,163.134 557.344,165.488 C558.676,167.842 560.828,169.623 563.39,170.49 C564.19,170.77 564.93,170.98 565.52,171.14 L565.97,171.27 L579.64,175.17 L574.02,179.56 L567.5,184.65 C560.97,189.73 560.76,197.21 567.41,203.88 C571.493,208.111 574.746,213.07 577,218.5 C580,225.5 585.21,226.42 587.75,226.42 C589.108,226.41 590.457,226.194 591.75,225.78 L592.63,225.51 L593.44,225.06 L597.72,222.68 C600.973,220.867 604.227,219.06 607.48,217.26 C607.25,218.98 607.06,220.67 606.87,222.34 C606.74,223.51 606.6,224.68 606.46,225.86 L606.22,227.73 C606,229.53 605.76,231.38 605.56,233.26 C605.189,236.05 605.902,238.877 607.552,241.157 C609.202,243.438 611.664,244.999 614.43,245.52 C615.62,245.79 616.8,246.03 617.95,246.26 L618.65,246.4 L624.84,247.66 L639.1,250.58 C639.962,250.756 640.84,250.847 641.72,250.85034 C643.488,250.864 645.233,250.445 646.802,249.629 C648.371,248.813 649.716,247.625 650.72,246.17 C651.968,244.334 652.826,242.261 653.24,240.08 C653.3,239.82 653.37,239.54 653.41,239.4 C654.62,235.33 655.8,231.18 656.92,227.24 L658.79,229.63 L666.69,239.77 C667.718,241.156 669.055,242.283 670.595,243.062 C672.134,243.842 673.834,244.252 675.56,244.26 C677.548,244.245 679.501,243.733 681.24,242.77 L681.6,242.58 L681.93,242.36 L687.33,238.8 L703.13,228.35 C705.526,226.789 707.23,224.366 707.889,221.583 C708.548,218.8 708.112,215.87 706.67,213.4 C705.48,211.22 704.27,209.06 703.07,206.89 L701.19,203.51 L699.55,200.51 L700.18,199.51 C701.82,199.65 703.52,199.87 705.29,200.11 C707.06,200.35 708.62,200.55 710.37,200.72 C710.74,200.72 711.21,200.82 711.71,200.9 C713.154,201.146 714.615,201.279 716.08,201.3 C716.798,201.301 717.516,201.261 718.23,201.18 L718.89,201.1 L719.54,200.92 C721.509,200.368 723.283,199.273 724.657,197.758 C726.032,196.244 726.951,194.373 727.31,192.36 C728.59,186.093 729.867,179.817 731.14,173.53 L732.32,167.72 C732.802,165.772 732.737,163.73 732.132,161.817 C731.527,159.904 730.405,158.195 728.89,156.88 C727.551,155.709 725.96,154.863 724.24,154.41 C723.05,154.06 721.85,153.73 720.66,153.41 C718.66,152.84 716.74,152.31 714.83,151.73 C713.99,151.48 713.2,151.27 712.44,151.06 C711.326,150.798 710.231,150.464 709.16,150.06 L708.98,149.99 L719.77,141.54 L721.45,140.22 C722.63,139.368 723.631,138.293 724.395,137.054 C725.159,135.815 725.672,134.438 725.903,133.001 C726.134,131.564 726.08,130.096 725.743,128.68 C725.406,127.264 724.794,125.929 723.94,124.75 L713.74,109.34 L710.27,104.09 L708.27,101.89 C707.168,100.638 705.757,99.6974 704.178,99.1605 C702.599,98.6237 700.907,98.5097 699.27,98.8299 L698.18,99.0399 C697.079,99.3157 696.02,99.736 695.03,100.29 L690.03,103.08 C687.1,104.71 684.03,106.39 681.1,108.08 C681.34,106.08 681.59,104.08 681.83,102.08 L682.32,98.0799 L682.63,95.6199 L683.05,92.2299 C683.355,89.8636 682.955,87.46 681.9,85.3199 L681.62,84.7699 L681.27,84.2599 L681.03,83.9099 L680.96,83.8199 L680.89,83.7199 C680.034,82.5745 678.951,81.6175 677.709,80.9087 C676.467,80.1999 675.092,79.7544 673.67,79.5999 C668.303,78.4932 662.93,77.3966 657.55,76.3099 L649.64,74.6999 C648.709,74.5059 647.761,74.4054 646.81,74.3999 L646.79,74.3999 Z" id="Shape" fill="#000000" fill-rule="nonzero"></path>
                <path d="M607.65,172.23 C605.3,160.23 608.53,149.44 616.51,140.23 C623.75,131.85 633.09,127.54 644.11,127 C649.957,126.751 655.781,127.881 661.11,130.3 C661.386,130.451 661.648,130.629 661.89,130.83 C666.53,132.4 670.18,135.45 673.47,138.91 C674.933,140.44 676.271,142.085 677.47,143.83 C675.771,140.539 673.609,137.508 671.05,134.83 C667.75,131.37 664.11,128.31 659.46,126.75 C659.218,126.549 658.956,126.371 658.68,126.22 C653.351,123.8 647.527,122.669 641.68,122.92 C630.68,123.46 621.31,127.77 614.07,136.15 C606.07,145.37 602.86,156.21 605.21,168.15 C606.241,173.827 608.448,179.226 611.69,184 C609.791,180.288 608.431,176.325 607.65,172.23 Z" id="Path" fill="#FFFFFF" fill-rule="nonzero"></path>
                <path d="M645.41,190.67 C646.954,190.857 648.519,190.724 650.01,190.28 C654.942,189.257 659.51,186.933 663.243,183.55 C666.975,180.167 669.734,175.848 671.236,171.04 C672.737,166.232 672.925,161.11 671.782,156.204 C670.638,151.299 668.203,146.788 664.73,143.14 C662.432,140.504 659.519,138.474 656.25,137.23 C656.073,137.082 655.882,136.952 655.68,136.84 C650.174,134.383 644.023,133.763 638.138,135.072 C632.252,136.382 626.945,139.551 623,144.11 C617.16,150.86 614.79,158.79 616.52,167.54 C618.85,179.41 626.14,186.94 637.86,190.07 C640.312,190.768 642.878,190.972 645.41,190.67 Z" id="Path" fill="#000000" fill-rule="nonzero"></path>
                <path d="M674.83,116.66 C674.779,116.906 674.816,117.162 674.935,117.383 C675.054,117.604 675.247,117.777 675.48,117.87 C677.847,119.186 680.095,120.705 682.2,122.41 C682.88,122.97 683.33,122.98 683.85,122.33 C685.14,121.916 686.361,121.309 687.47,120.53 C692.47,117.77 697.54,114.94 702.57,112.15 C702.866,111.935 703.211,111.796 703.574,111.747 C703.938,111.698 704.307,111.741 704.65,111.87 L702.65,108.82 C702.57,108.71 702.49,108.61 702.42,108.5 C701.25,107.29 700.42,107.12 699.11,107.84 C694.11,110.64 689.06,113.46 684.01,116.23 C682.903,117.007 681.686,117.613 680.4,118.03 C679.87,118.67 679.4,118.67 678.74,118.11 C677.526,117.13 676.276,116.217 674.99,115.37 C674.94,115.82 674.88,116.24 674.83,116.66 Z" id="Path" fill="#FFFFFF" fill-rule="nonzero"></path>
                <path d="M663.22,221 L663.57,221.45 C663.484,221.278 663.365,221.125 663.22,221 Z" id="Path" fill="#FFFFFF" fill-rule="nonzero"></path>
                <path d="M705.48,158.07 L703.01,157.39 C703.16,158.3 703.28,159.21 703.36,160.14 C703.351,160.341 703.415,160.538 703.54,160.696 C703.665,160.854 703.842,160.962 704.04,161 L708.94,162.34 C711.084,163.127 713.271,163.795 715.49,164.34 C718.06,165.12 720.65,165.84 723.23,166.57 L723.39,165.82 C723.543,165.404 723.567,164.952 723.46,164.522 C723.353,164.093 723.12,163.705 722.79,163.41 C722.431,163.105 722.001,162.895 721.54,162.8 C718.37,161.88 715.19,161.02 712.03,160.07 C709.812,159.52 707.626,158.852 705.48,158.07 Z" id="Path" fill="#FFFFFF" fill-rule="nonzero"></path>
                <path d="M668.79,183.31 C673.016,177.975 675.172,171.292 674.861,164.494 C674.551,157.695 671.794,151.237 667.1,146.31 L666.85,146.06 C669.054,149.369 670.499,153.126 671.08,157.06 C672.208,164.229 670.537,171.558 666.412,177.529 C662.287,183.5 656.024,187.657 648.92,189.14 C647.429,189.584 645.864,189.716 644.32,189.53 C641.798,189.827 639.242,189.623 636.8,188.93 C631.655,187.692 626.931,185.111 623.11,181.45 C626.83,187.23 632.6,191.16 640.25,193.2 C642.695,193.898 645.255,194.102 647.78,193.8 C649.32,193.99 650.882,193.861 652.37,193.42 C658.883,192.14 664.715,188.55 668.79,183.31 Z" id="Path" fill="#FFFFFF" fill-rule="nonzero"></path>
                <path d="M631.56,112.14 C631.664,112.3 631.821,112.42 632.003,112.478 C632.185,112.536 632.382,112.53 632.56,112.46 C633.84,112.11 635.13,111.83 636.41,111.53 C637.99,111.31 639.56,111.05 641.13,110.87 C641.82,110.8 641.81,110.28 641.93,109.87 C642.93,106.26 644,102.65 645.03,99.0397 C645.96,95.8197 646.87,92.5897 647.82,89.3797 C648.36,87.5497 649.21,87.0797 651.07,87.4597 C658.67,89.0097 666.26,90.5397 673.85,92.0997 C673.85,91.7197 673.94,91.3397 673.99,90.9597 C674.089,90.3224 673.992,89.67 673.71,89.0897 C673.64,88.9897 673.57,88.8797 673.49,88.7797 C673.06,88.1897 672.36,88.2297 671.77,88.1097 C663.77,86.4497 655.67,84.8297 647.62,83.1897 C645.75,82.8097 644.9,83.2697 644.36,85.1097 C643.41,88.3197 642.5,91.5397 641.57,94.7597 C640.57,98.3697 639.52,101.99 638.47,105.59 C638.35,106.01 638.36,106.53 637.68,106.59 C636.1,106.76 634.53,107.02 632.95,107.25 C631.67,107.55 630.38,107.83 629.1,108.17 C628.89,108.242 628.661,108.242 628.45,108.17 C629.51,109.5 630.53,110.82 631.56,112.14 Z" id="Path" fill="#FFFFFF" fill-rule="nonzero"></path>
                <path d="M664.49,222.47 C664.314,222.181 664.079,221.932 663.8,221.74 L673.44,234.1 C673.615,234.336 673.82,234.548 674.05,234.73 C670.87,230.637 667.683,226.55 664.49,222.47 Z" id="Path" fill="#FFFFFF" fill-rule="nonzero"></path>
                <path d="M618.48,231 C618.99,226.84 619.37,222.66 620.08,218.53 C620.45,216.43 619.92,215.23 617.99,214.53 C617.532,214.307 617.099,214.036 616.7,213.72 C616.7,213.91 616.7,214.11 616.62,214.31 C615.91,218.43 615.53,222.62 615.02,226.78 C614.72,229.19 614.4,231.61 614.14,234.03 C613.98,235.6 614.57,236.35 616.14,236.7 L617.77,237.04 C618,235 618.23,233 618.48,231 Z" id="Path" fill="#FFFFFF" fill-rule="nonzero"></path>
                <path d="M568.39,162.57 C569.823,155.503 571.264,148.44 572.71,141.38 C572.89,140.49 573.06,139.59 573.24,138.7 C573.279,138.395 573.379,138.1 573.535,137.835 C573.691,137.57 573.899,137.339 574.147,137.156 C574.395,136.974 574.677,136.844 574.977,136.774 C575.276,136.704 575.587,136.696 575.89,136.75 L594.62,139.09 C594.925,139.086 595.23,139.113 595.53,139.17 C597.75,139.98 598.93,138.95 599.86,137 C600.836,135.172 602.021,133.464 603.39,131.91 C603.575,131.74 603.688,131.506 603.709,131.256 C603.729,131.006 603.655,130.758 603.5,130.56 C600.02,124.313 596.55,118.06 593.09,111.8 C592.19,110.17 592.41,109.2 593.92,108.19 C600.65,103.74 607.39,99.3099 614.08,94.8099 C615.32,93.9699 616.44,93.7099 617.59,94.3799 L614.93,90.9999 C614.83,90.8699 614.66,90.7699 614.73,90.5699 C613.36,89.3999 612.08,89.5699 610.62,90.5699 C603.93,95.0799 597.19,99.4999 590.47,103.96 C588.95,104.96 588.73,105.96 589.63,107.57 C593.103,113.823 596.577,120.073 600.05,126.32 C600.194,126.524 600.26,126.773 600.238,127.022 C600.216,127.271 600.107,127.504 599.93,127.68 C598.563,129.232 597.378,130.937 596.4,132.76 C595.47,134.71 594.29,135.76 592.07,134.94 C591.771,134.878 591.466,134.851 591.16,134.86 L572.43,132.51 C572.127,132.456 571.816,132.464 571.517,132.534 C571.217,132.604 570.935,132.734 570.687,132.916 C570.439,133.099 570.231,133.33 570.075,133.595 C569.919,133.86 569.819,134.155 569.78,134.46 C569.6,135.36 569.43,136.25 569.25,137.15 C567.743,144.537 566.237,151.93 564.73,159.33 C564.585,159.879 564.661,160.462 564.941,160.956 C565.222,161.449 565.685,161.813 566.23,161.97 C566.9,162.21 567.59,162.38 568.23,162.57 L568.39,162.57 Z" id="Path" fill="#FFFFFF" fill-rule="nonzero"></path>
                <path d="M575.53,199.91 C574.27,198 574.44,197.15 576.27,195.72 C581.78,191.43 587.27,187.12 592.79,182.85 C593.034,182.704 593.219,182.477 593.312,182.208 C593.406,181.939 593.401,181.646 593.3,181.38 C592.522,178.715 591.997,175.983 591.73,173.22 C591.67,172.5 591.21,172.37 590.67,172.22 L588.61,171.63 C588.915,173.482 589.326,175.315 589.84,177.12 C589.943,177.384 589.948,177.676 589.854,177.944 C589.761,178.212 589.575,178.437 589.33,178.58 C583.81,182.86 578.33,187.17 572.81,191.46 C570.98,192.88 570.81,193.73 572.07,195.64 L585.61,216.06 C585.915,216.645 586.435,217.089 587.06,217.3 C583.22,211.507 579.377,205.71 575.53,199.91 Z" id="Path" fill="#FFFFFF" fill-rule="nonzero"></path>
                <path d="M682.29,157.06 C684.64,169.06 681.41,179.85 673.43,189.06 C666.19,197.44 656.85,201.74 645.83,202.28 C639.983,202.532 634.16,201.405 628.83,198.99 C628.555,198.835 628.295,198.658 628.05,198.46 C623.41,196.89 619.76,193.83 616.47,190.38 C615.008,188.848 613.671,187.203 612.47,185.46 C614.169,188.751 616.331,191.782 618.89,194.46 C622.19,197.91 625.83,200.97 630.48,202.54 C630.722,202.741 630.983,202.919 631.26,203.07 C636.589,205.49 642.413,206.62 648.26,206.37 C659.26,205.82 668.63,201.52 675.87,193.14 C683.87,183.91 687.08,173.08 684.73,161.14 C683.701,155.469 681.497,150.077 678.26,145.31 C680.156,149.014 681.513,152.971 682.29,157.06 Z" id="Path" fill="#000000" fill-rule="nonzero"></path>
                <path d="M671.58,237.78 C670.25,238.19 669.66,238 668.96,236.94 L658.13,220.61 C657.13,219.08 657.25,218.4 658.72,217.26 C663.13,213.83 667.52,210.38 671.93,206.96 C672.12,206.839 672.264,206.658 672.338,206.446 C672.412,206.234 672.413,206.002 672.34,205.79 C671.719,203.657 671.3,201.471 671.09,199.26 C671.04,198.68 670.67,198.58 670.24,198.45 C665.193,197.023 660.143,195.583 655.09,194.13 C654.55,193.97 653.99,193.84 653.46,193.65 C653.02,193.526 652.647,193.234 652.421,192.837 C652.194,192.441 652.133,191.971 652.25,191.53 C653.45,185.623 654.656,179.71 655.87,173.79 C656.01,173.08 656.15,172.36 656.3,171.64 C656.33,171.396 656.409,171.161 656.533,170.949 C656.657,170.737 656.823,170.553 657.02,170.407 C657.217,170.261 657.442,170.157 657.681,170.1 C657.92,170.044 658.168,170.037 658.41,170.08 L673.41,171.96 C673.652,171.957 673.893,171.981 674.13,172.03 C675.91,172.67 676.85,171.84 677.6,170.28 C678.382,168.823 679.328,167.461 680.42,166.22 C680.562,166.079 680.65,165.891 680.667,165.691 C680.683,165.491 680.627,165.292 680.51,165.13 C677.73,160.136 674.956,155.136 672.19,150.13 C671.46,148.83 671.64,148.05 672.85,147.24 C678.23,143.68 683.62,140.14 688.97,136.54 C690.14,135.75 691.16,135.6 692.26,136.54 C692.2,136.71 692.34,136.79 692.42,136.89 C695.926,141.39 699.437,145.896 702.95,150.41 C703.035,150.545 703.165,150.645 703.317,150.693 C703.469,150.74 703.633,150.732 703.78,150.67 C704.78,150.39 705.83,150.17 706.86,149.92 C708.12,149.74 709.38,149.54 710.64,149.4 C711.19,149.34 711.18,148.92 711.28,148.59 C712.11,145.71 712.93,142.82 713.76,139.93 C714.493,137.35 715.233,134.776 715.98,132.21 C716.42,130.74 717.09,130.37 718.59,130.67 C725.03,131.98 731.47,133.28 737.91,134.61 C738.38,134.71 738.91,134.67 739.29,135.14 L739.47,135.41 C739.696,135.875 739.773,136.399 739.69,136.91 L739.12,141.58 C738.613,145.74 738.1,149.9 737.58,154.06 C737.529,154.261 737.554,154.474 737.65,154.658 C737.746,154.842 737.906,154.985 738.1,155.06 C739.995,156.106 741.792,157.321 743.47,158.69 C744.02,159.13 744.38,159.14 744.8,158.62 C745.831,158.291 746.806,157.805 747.69,157.18 C751.69,154.97 755.74,152.71 759.77,150.48 C760.77,149.89 761.48,150.04 762.41,151 L762.59,151.25 C766.23,156.756 769.877,162.266 773.53,167.78 C773.723,167.984 773.867,168.229 773.95,168.498 C774.033,168.767 774.053,169.051 774.009,169.328 C773.964,169.606 773.856,169.869 773.694,170.099 C773.531,170.328 773.317,170.516 773.07,170.65 L759.52,181.26 C759.35,181.356 759.219,181.509 759.15,181.691 C759.081,181.874 759.077,182.075 759.14,182.26 C759.762,184.417 760.187,186.626 760.41,188.86 C760.4,189.022 760.451,189.183 760.553,189.31 C760.654,189.437 760.799,189.523 760.96,189.55 L764.87,190.63 C766.586,191.255 768.336,191.785 770.11,192.22 C772.64,192.98 775.18,193.67 777.72,194.4 C778.087,194.481 778.43,194.649 778.72,194.89 C778.987,195.124 779.177,195.434 779.264,195.779 C779.351,196.123 779.333,196.486 779.21,196.82 C777.877,203.386 776.543,209.96 775.21,216.54 C775.179,216.865 775.05,217.173 774.842,217.425 C774.633,217.676 774.354,217.859 774.04,217.95 C772.451,217.998 770.861,217.871 769.3,217.57 C766.08,217.25 762.89,216.66 759.65,216.49 C758.32,216.31 756.98,216.13 755.65,215.93 C755.494,215.897 755.331,215.92 755.19,215.995 C755.05,216.07 754.94,216.192 754.88,216.34 C753.786,218.308 752.525,220.178 751.11,221.93 C750.973,222.071 750.892,222.256 750.879,222.452 C750.866,222.648 750.923,222.842 751.04,223 C752.4,225.41 753.73,227.83 755.04,230.25 C756.5,232.88 757.97,235.5 759.42,238.14 C759.57,238.343 759.676,238.575 759.731,238.822 C759.785,239.069 759.788,239.324 759.738,239.572 C759.688,239.82 759.587,240.054 759.441,240.261 C759.295,240.467 759.107,240.64 758.89,240.77 L741.89,251.97 C741.682,252.121 741.446,252.229 741.195,252.285 C740.944,252.341 740.684,252.345 740.432,252.296 C740.179,252.247 739.939,252.147 739.727,252.001 C739.516,251.856 739.336,251.668 739.2,251.45 L729.28,238.72 C729.125,238.463 728.909,238.25 728.65,238.1 C728.42,237.71 728.26,237.29 727.65,237.48 C725.463,238.103 723.229,238.548 720.97,238.81 C720.788,238.811 720.614,238.879 720.479,239.001 C720.345,239.122 720.259,239.289 720.24,239.47 C718.92,244.15 717.59,248.84 716.24,253.47 C716.052,254.641 715.663,255.771 715.09,256.81 C714.868,257.132 714.545,257.372 714.172,257.491 C713.8,257.61 713.398,257.603 713.03,257.47 L696.66,254.13 C695.57,253.91 694.49,253.69 693.4,253.45 C693.147,253.437 692.9,253.368 692.677,253.248 C692.454,253.128 692.261,252.96 692.11,252.756 C691.96,252.553 691.857,252.318 691.809,252.07 C691.76,251.821 691.767,251.565 691.83,251.32 C692.04,249.38 692.29,247.45 692.53,245.52 C692.94,242.19 693.24,238.84 693.81,235.52 C694.1,233.84 693.68,232.88 692.14,232.28 C691.49,232.03 691.02,231.43 690.32,231.28 L689.55,230.68 C688.86,230.16 688.22,229.33 687.46,229.21 C686.7,229.09 685.89,229.91 685.12,230.34 C680.57,232.77 676.08,235.28 671.58,237.78 Z" id="Path" fill="#D3D8E0" fill-rule="nonzero"></path>
                <path d="M717.74,130.56 C718.022,130.568 718.303,130.601 718.58,130.66 C725.02,131.97 731.46,133.27 737.9,134.6 C738.37,134.7 738.9,134.66 739.28,135.13 L739.46,135.39 C739.678,135.85 739.751,136.367 739.67,136.87 L739.1,141.54 C738.593,145.7 738.08,149.86 737.56,154.02 C737.509,154.221 737.534,154.434 737.63,154.618 C737.726,154.803 737.886,154.945 738.08,155.02 C739.975,156.066 741.772,157.281 743.45,158.65 C743.639,158.83 743.881,158.946 744.14,158.98 C744.27,158.966 744.395,158.923 744.506,158.854 C744.617,158.784 744.711,158.691 744.78,158.58 C745.811,158.251 746.786,157.765 747.67,157.14 C751.67,154.93 755.72,152.67 759.75,150.44 C759.954,150.292 760.187,150.188 760.434,150.134 C760.68,150.08 760.935,150.077 761.183,150.126 C761.43,150.175 761.665,150.274 761.873,150.417 C762.081,150.561 762.257,150.745 762.39,150.96 L762.57,151.21 C766.21,156.716 769.857,162.226 773.51,167.74 C773.703,167.944 773.847,168.19 773.93,168.458 C774.013,168.727 774.033,169.011 773.989,169.288 C773.944,169.566 773.836,169.829 773.674,170.059 C773.511,170.288 773.297,170.476 773.05,170.61 L759.5,181.22 C759.33,181.316 759.199,181.469 759.13,181.651 C759.061,181.834 759.057,182.035 759.12,182.22 C759.742,184.377 760.167,186.586 760.39,188.82 C760.38,188.982 760.431,189.143 760.533,189.27 C760.634,189.398 760.779,189.483 760.94,189.51 L764.85,190.59 C766.566,191.215 768.316,191.745 770.09,192.18 C772.62,192.94 775.16,193.63 777.7,194.36 C778.068,194.441 778.41,194.609 778.7,194.85 C778.967,195.084 779.157,195.394 779.244,195.739 C779.332,196.083 779.313,196.446 779.19,196.78 C777.857,203.346 776.523,209.92 775.19,216.5 C775.159,216.825 775.03,217.133 774.822,217.385 C774.613,217.636 774.334,217.819 774.02,217.91 C773.735,217.946 773.447,217.963 773.16,217.96 C771.85,217.96 770.57,217.65 769.28,217.53 C766.06,217.21 762.87,216.62 759.63,216.45 C758.3,216.27 756.96,216.09 755.63,215.89 L755.47,215.89 C755.338,215.892 755.21,215.933 755.102,216.008 C754.993,216.082 754.909,216.188 754.86,216.31 C753.766,218.278 752.505,220.148 751.09,221.9 C750.954,222.041 750.872,222.226 750.859,222.422 C750.846,222.618 750.903,222.812 751.02,222.97 C752.38,225.38 753.71,227.8 755.02,230.22 C756.48,232.85 757.95,235.47 759.4,238.11 C759.55,238.313 759.656,238.546 759.711,238.792 C759.765,239.039 759.768,239.294 759.718,239.542 C759.668,239.79 759.567,240.025 759.421,240.231 C759.275,240.437 759.087,240.61 758.87,240.74 L741.87,251.94 C741.508,252.153 741.099,252.273 740.68,252.29 C740.379,252.273 740.086,252.186 739.825,252.035 C739.565,251.884 739.343,251.673 739.18,251.42 L729.26,238.69 C729.105,238.433 728.889,238.22 728.63,238.07 C728.44,237.75 728.3,237.4 727.89,237.4 C727.794,237.388 727.696,237.388 727.6,237.4 C725.413,238.023 723.179,238.468 720.92,238.73 C720.738,238.731 720.564,238.799 720.429,238.921 C720.295,239.042 720.209,239.209 720.19,239.39 C718.87,244.07 717.54,248.76 716.19,253.39 C716.002,254.561 715.613,255.691 715.04,256.73 C714.893,256.966 714.686,257.159 714.44,257.289 C714.194,257.419 713.918,257.482 713.64,257.47 C713.418,257.467 713.196,257.44 712.98,257.39 L696.61,254.05 C695.52,253.83 694.44,253.61 693.35,253.37 C693.097,253.357 692.85,253.288 692.627,253.168 C692.404,253.048 692.211,252.88 692.06,252.677 C691.91,252.473 691.807,252.238 691.759,251.99 C691.71,251.741 691.717,251.485 691.78,251.24 C691.99,249.3 692.24,247.37 692.48,245.44 C692.89,242.11 693.19,238.76 693.76,235.44 C694.05,233.76 693.63,232.8 692.09,232.2 C691.44,231.95 690.97,231.35 690.27,231.2 L689.5,230.6 C688.81,230.08 688.17,229.25 687.41,229.13 L687.25,229.13 C686.5,229.13 685.79,229.87 685.07,230.27 C680.57,232.75 676.07,235.27 671.58,237.76 C671.235,237.878 670.874,237.946 670.51,237.96 C669.86,237.96 669.44,237.64 668.96,236.96 L658.13,220.63 C657.13,219.1 657.25,218.42 658.72,217.28 C663.13,213.85 667.52,210.4 671.93,206.98 C672.12,206.859 672.264,206.678 672.338,206.466 C672.412,206.254 672.413,206.022 672.34,205.81 C671.719,203.677 671.3,201.491 671.09,199.28 C671.04,198.7 670.67,198.6 670.24,198.47 C665.193,197.043 660.143,195.603 655.09,194.15 C654.55,193.99 653.99,193.86 653.46,193.67 C653.02,193.546 652.647,193.254 652.421,192.857 C652.194,192.461 652.133,191.991 652.25,191.55 C653.45,185.643 654.657,179.73 655.87,173.81 C656.01,173.1 656.15,172.38 656.3,171.66 C656.354,171.219 656.571,170.814 656.907,170.524 C657.244,170.234 657.676,170.079 658.12,170.09 L658.41,170.09 L673.41,171.97 C673.652,171.967 673.893,171.991 674.13,172.04 C674.484,172.176 674.86,172.251 675.24,172.26 C676.34,172.26 677.03,171.49 677.6,170.26 C678.382,168.803 679.328,167.441 680.42,166.2 C680.563,166.059 680.65,165.871 680.667,165.671 C680.683,165.471 680.627,165.272 680.51,165.11 C677.73,160.116 674.957,155.116 672.19,150.11 C671.46,148.81 671.64,148.03 672.85,147.22 C678.23,143.66 683.62,140.12 688.97,136.52 C689.473,136.135 690.078,135.909 690.71,135.87 C691.287,135.887 691.838,136.115 692.26,136.51 C692.2,136.68 692.34,136.76 692.42,136.86 C695.926,141.36 699.437,145.866 702.95,150.38 C703.008,150.469 703.086,150.542 703.178,150.595 C703.27,150.647 703.374,150.676 703.48,150.68 C703.579,150.693 703.68,150.693 703.78,150.68 C704.78,150.4 705.83,150.18 706.86,149.93 C708.12,149.75 709.38,149.55 710.64,149.41 C711.19,149.35 711.18,148.93 711.28,148.6 C712.11,145.72 712.93,142.83 713.76,139.94 C714.493,137.36 715.233,134.786 715.98,132.22 C716.32,131.06 716.82,130.58 717.75,130.58 L717.74,130.56 Z M717.75,123.49 C713.62,123.49 710.42,126 709.18,130.21 C709.06,130.6 706.57,133.85 703.85,133.98 C700.51,134.13 696.85,131.13 696.85,131.13 C695.153,129.643 692.976,128.819 690.72,128.81 C688.676,128.842 686.689,129.49 685.02,130.67 C681.09,133.31 677.02,135.98 673.17,138.55 L664.61,144.22 C660.28,147.08 663.45,149.02 665.99,153.6 L668.43,158 C669.66,160.22 662.63,163.47 659.3,163.06 C657.039,162.779 654.757,163.366 652.912,164.702 C651.067,166.039 649.798,168.025 649.36,170.26 C649.29,170.6 649.22,170.94 649.16,171.26 C649.1,171.58 649.01,172 648.93,172.37 L647.81,177.9 C646.98,181.97 646.14,186.04 645.32,190.11 C644.856,192.223 645.189,194.434 646.253,196.318 C647.318,198.202 649.04,199.627 651.09,200.32 C651.74,200.55 652.33,200.71 652.8,200.84 L653.16,200.94 C656.81,201.99 656.16,210.29 654.38,211.65 C649.16,215.71 649,221.7 654.31,227.03 C657.559,230.419 660.144,234.387 661.93,238.73 C664.35,244.32 668.49,245.06 670.53,245.06 C671.603,245.047 672.668,244.875 673.69,244.55 L674.4,244.33 L675,244 L678.42,242.1 L686.22,237.76 C686.04,239.14 685.89,240.49 685.74,241.82 L685.41,244.64 C685.35,245.14 685.28,245.64 685.22,246.14 C685.04,247.57 684.85,249.06 684.69,250.56 C684.39,252.792 684.958,255.054 686.277,256.879 C687.597,258.705 689.566,259.954 691.78,260.37 L694.6,260.96 L695.16,261.07 L700.11,262.07 L711.52,264.4 C712.207,264.544 712.907,264.618 713.61,264.620364 C715.024,264.633 716.42,264.298 717.676,263.646 C718.931,262.994 720.007,262.044 720.81,260.88 C721.8,259.409 722.48,257.752 722.81,256.01 C722.81,255.8 722.91,255.57 722.94,255.47 C723.94,252.21 724.86,248.89 725.76,245.74 L727.25,247.65 L733.57,255.76 C734.392,256.867 735.461,257.768 736.691,258.391 C737.922,259.014 739.281,259.342 740.66,259.35 C742.252,259.336 743.815,258.928 745.21,258.16 L745.49,258 L745.76,257.83 L750.07,254.98 L762.72,246.62 C764.646,245.368 766.015,243.423 766.542,241.187 C767.069,238.952 766.714,236.6 765.55,234.62 L762.67,229.42 C762.16,228.52 761.67,227.61 761.16,226.71 L759.85,224.34 L760.36,223.56 C761.67,223.67 763.03,223.85 764.44,224.04 C765.85,224.23 767.11,224.39 768.51,224.53 L769.58,224.67 C770.736,224.873 771.906,224.983 773.08,225 C773.651,224.997 774.222,224.964 774.79,224.9 L775.33,224.83 L775.84,224.69 C777.415,224.249 778.833,223.374 779.934,222.164 C781.034,220.955 781.771,219.459 782.06,217.85 L785.12,202.78 L786.12,198.13 C786.504,196.574 786.451,194.942 785.968,193.414 C785.485,191.886 784.589,190.521 783.38,189.47 C782.311,188.524 781.038,187.84 779.66,187.47 L776.79,186.65 C775.18,186.2 773.65,185.77 772.12,185.31 C771.46,185.11 770.82,184.94 770.21,184.77 C769.321,184.558 768.446,184.291 767.59,183.97 L767.45,183.91 L776.08,177.15 L777.42,176.09 C778.363,175.409 779.164,174.549 779.775,173.559 C780.386,172.569 780.796,171.468 780.982,170.319 C781.168,169.17 781.125,167.996 780.857,166.864 C780.589,165.732 780.101,164.663 779.42,163.72 L771.26,151.39 L768.49,147.19 L766.93,145.43 C766.043,144.428 764.908,143.676 763.639,143.249 C762.371,142.823 761.012,142.737 759.7,143 L758.83,143.18 C757.944,143.393 757.092,143.73 756.3,144.18 L752.3,146.41 C749.96,147.72 747.55,149.06 745.16,150.41 C745.36,148.83 745.55,147.24 745.74,145.66 L746.14,142.43 L746.38,140.43 C746.5,139.53 746.61,138.63 746.72,137.72 C746.967,135.826 746.647,133.901 745.8,132.19 L745.58,131.75 L745.3,131.34 L745.11,131.07 L745.05,130.99 L744.99,130.91 C744.305,129.994 743.439,129.229 742.447,128.662 C741.454,128.094 740.356,127.736 739.22,127.61 L726.32,125 L720,123.71 C719.256,123.555 718.499,123.475 717.74,123.47 L717.75,123.49 Z" id="Shape" fill="#000000" fill-rule="nonzero"></path>
                <path d="M686.42,201.72 C684.54,192.16 687.13,183.49 693.51,176.11 C697.82,171.132 703.616,167.673 710.043,166.243 C716.47,164.813 723.187,165.489 729.2,168.17 C729.42,168.289 729.628,168.43 729.82,168.59 C733.398,169.947 736.583,172.17 739.09,175.06 C740.259,176.283 741.329,177.598 742.29,178.99 C740.926,176.368 739.196,173.953 737.15,171.82 C734.64,168.936 731.455,166.717 727.88,165.36 C727.691,165.193 727.483,165.049 727.26,164.93 C722.994,162.992 718.331,162.091 713.65,162.3 C709.433,162.411 705.288,163.409 701.483,165.231 C697.678,167.052 694.301,169.655 691.57,172.87 C685.19,180.26 682.57,188.87 684.48,198.49 C685.301,203.026 687.066,207.339 689.66,211.15 C688.135,208.178 687.044,205.002 686.42,201.72 Z" id="Path" fill="#FFFFFF" fill-rule="nonzero"></path>
                <path d="M716.63,216.47 C717.864,216.621 719.117,216.519 720.31,216.17 C724.255,215.351 727.909,213.491 730.893,210.785 C733.878,208.078 736.085,204.623 737.285,200.777 C738.485,196.931 738.636,192.834 737.721,188.91 C736.806,184.986 734.858,181.379 732.08,178.46 C730.249,176.344 727.919,174.718 725.3,173.73 C725.159,173.612 725.009,173.505 724.85,173.41 C720.448,171.448 715.532,170.955 710.828,172.003 C706.124,173.051 701.883,175.585 698.73,179.23 C696.436,181.722 694.769,184.724 693.867,187.988 C692.964,191.252 692.852,194.684 693.54,198 C695.41,207.5 701.23,213.52 710.61,216 C712.565,216.556 714.612,216.716 716.63,216.47 Z" id="Path" fill="#000000" fill-rule="nonzero"></path>
                <path d="M740.16,157.28 C740.107,157.482 740.131,157.696 740.228,157.88 C740.324,158.065 740.485,158.208 740.68,158.28 C742.573,159.33 744.37,160.545 746.05,161.91 C746.6,162.36 746.96,162.37 747.38,161.85 C748.409,161.515 749.383,161.03 750.27,160.41 C754.27,158.2 758.32,155.94 762.35,153.7 C762.587,153.529 762.863,153.42 763.153,153.381 C763.442,153.343 763.737,153.377 764.01,153.48 L762.4,151 L762.22,150.75 C761.29,149.75 760.62,149.64 759.57,150.22 C755.57,152.46 751.57,154.72 747.49,156.93 C746.608,157.557 745.632,158.043 744.6,158.37 C744.18,158.89 743.83,158.88 743.28,158.44 C742.28,157.66 741.28,156.92 740.28,156.24 C740.25,156.6 740.2,156.94 740.16,157.28 Z" id="Path" fill="#FFFFFF" fill-rule="nonzero"></path>
                <path d="M730.88,240.74 L731.16,241.1 C731.091,240.963 730.996,240.84 730.88,240.74 Z" id="Path" fill="#FFFFFF" fill-rule="nonzero"></path>
                <path d="M764.68,190.4 L762.68,189.85 C762.8,190.58 762.9,191.31 762.96,192.05 C762.957,192.211 763.01,192.368 763.11,192.494 C763.211,192.62 763.352,192.707 763.51,192.74 L767.42,193.81 C769.139,194.431 770.888,194.965 772.66,195.41 C774.72,196.03 776.79,196.6 778.86,197.19 L778.98,196.58 C779.105,196.249 779.125,195.888 779.04,195.545 C778.954,195.202 778.766,194.893 778.5,194.66 C778.213,194.415 777.869,194.247 777.5,194.17 C774.96,193.44 772.41,192.75 769.89,191.99 C768.127,191.55 766.388,191.019 764.68,190.4 Z" id="Path" fill="#FFFFFF" fill-rule="nonzero"></path>
                <path d="M735.33,210.59 C738.712,206.325 740.439,200.983 740.195,195.546 C739.951,190.109 737.751,184.944 734,181 C733.93,180.93 733.87,180.86 733.8,180.8 C735.566,183.457 736.72,186.473 737.18,189.63 C738.08,195.365 736.742,201.226 733.442,206.002 C730.142,210.778 725.133,214.103 719.45,215.29 C718.262,215.647 717.012,215.753 715.78,215.6 C713.768,215.839 711.729,215.676 709.78,215.12 C705.645,214.133 701.848,212.062 698.78,209.12 C701.78,213.75 706.37,216.88 712.49,218.52 C714.44,219.07 716.478,219.233 718.49,219 C719.722,219.153 720.972,219.047 722.16,218.69 C727.386,217.672 732.065,214.794 735.33,210.59 Z" id="Path" fill="#FFFFFF" fill-rule="nonzero"></path>
                <path d="M705.55,153.66 C705.636,153.793 705.767,153.891 705.919,153.937 C706.071,153.983 706.234,153.973 706.38,153.91 C707.38,153.63 708.38,153.41 709.46,153.17 C710.71,152.99 711.97,152.78 713.23,152.64 C713.78,152.58 713.77,152.17 713.87,151.84 C714.71,148.95 715.52,146.06 716.35,143.17 C717.09,140.6 717.82,138.02 718.58,135.45 C719.01,133.98 719.69,133.61 721.18,133.92 C727.26,135.153 733.333,136.39 739.4,137.63 C739.4,137.32 739.47,137.02 739.51,136.71 C739.588,136.202 739.511,135.683 739.29,135.22 L739.12,134.97 C738.77,134.5 738.21,134.53 737.74,134.44 C731.3,133.11 724.86,131.81 718.42,130.5 C716.92,130.19 716.24,130.57 715.81,132.03 C715.05,134.6 714.32,137.18 713.58,139.76 C712.76,142.64 711.94,145.54 711.1,148.42 C711.01,148.75 711.01,149.17 710.47,149.23 C709.2,149.36 707.95,149.57 706.69,149.75 C705.69,149.99 704.63,150.21 703.61,150.49 C703.443,150.556 703.257,150.556 703.09,150.49 L705.55,153.66 Z" id="Path" fill="#FFFFFF" fill-rule="nonzero"></path>
                <path d="M731.89,241.91 C731.747,241.679 731.56,241.479 731.34,241.32 C733.91,244.62 736.47,247.92 739.05,251.22 C739.192,251.406 739.357,251.574 739.54,251.72 L731.89,241.91 Z" id="Path" fill="#FFFFFF" fill-rule="nonzero"></path>
                <path d="M695.08,248.74 C695.5,245.41 695.8,242.07 696.37,238.74 C696.66,237.06 696.24,236.1 694.69,235.49 C694.332,235.318 693.996,235.103 693.69,234.85 C693.679,235.007 693.659,235.164 693.63,235.32 C693.06,238.62 692.76,241.97 692.35,245.32 C692.11,247.26 691.85,249.19 691.65,251.12 C691.588,251.365 691.58,251.622 691.629,251.871 C691.677,252.12 691.78,252.355 691.93,252.56 C692.08,252.764 692.274,252.933 692.497,253.054 C692.72,253.175 692.967,253.245 693.22,253.26 L694.53,253.54 C694.68,251.94 694.89,250.34 695.08,248.74 Z" id="Path" fill="#FFFFFF" fill-rule="nonzero"></path>
                <path d="M655,194 L658.45,177.06 C658.6,176.34 658.73,175.62 658.88,174.91 C658.912,174.666 658.992,174.431 659.117,174.219 C659.242,174.007 659.408,173.822 659.606,173.676 C659.805,173.531 660.03,173.426 660.27,173.37 C660.509,173.314 660.758,173.307 661,173.35 L676,175.22 C676.245,175.218 676.49,175.241 676.73,175.29 C678.51,175.93 679.45,175.11 680.19,173.55 C680.978,172.091 681.927,170.726 683.02,169.48 C683.16,169.339 683.246,169.154 683.263,168.956 C683.279,168.759 683.225,168.561 683.11,168.4 C680.323,163.4 677.547,158.4 674.78,153.4 C674.05,152.09 674.23,151.31 675.44,150.51 C680.82,146.94 686.22,143.4 691.57,139.8 C691.947,139.462 692.419,139.248 692.922,139.187 C693.424,139.127 693.933,139.222 694.38,139.46 L692.25,136.72 C692.17,136.62 692.03,136.54 692.09,136.38 C690.99,135.45 689.97,135.6 688.8,136.38 C683.45,139.99 678.06,143.53 672.68,147.09 C671.46,147.89 671.29,148.67 672.01,149.98 L680.34,164.98 C680.456,165.143 680.51,165.342 680.494,165.541 C680.477,165.741 680.391,165.928 680.25,166.07 C679.155,167.311 678.206,168.673 677.42,170.13 C676.68,171.69 675.74,172.51 673.96,171.87 C673.72,171.824 673.475,171.804 673.23,171.81 L658.23,169.93 C657.988,169.889 657.74,169.897 657.501,169.953 C657.262,170.01 657.037,170.114 656.839,170.26 C656.641,170.406 656.475,170.589 656.35,170.801 C656.224,171.012 656.143,171.246 656.11,171.49 C655.97,172.21 655.83,172.92 655.68,173.64 C654.48,179.553 653.277,185.466 652.07,191.38 C651.953,191.819 652.013,192.286 652.238,192.681 C652.462,193.075 652.833,193.366 653.27,193.49 C653.81,193.68 654.36,193.82 654.91,193.98 L655,194 Z" id="Path" fill="#FFFFFF" fill-rule="nonzero"></path>
                <path d="M660.73,223.86 C659.73,222.33 659.86,221.65 661.33,220.51 C665.73,217.08 670.12,213.63 674.54,210.22 C674.75,210.105 674.912,209.919 674.996,209.695 C675.081,209.472 675.082,209.225 675,209 C674.376,206.871 673.954,204.688 673.74,202.48 C673.69,201.9 673.32,201.79 672.89,201.67 L671.24,201.2 C671.489,202.681 671.823,204.147 672.24,205.59 C672.313,205.803 672.313,206.034 672.238,206.246 C672.164,206.459 672.02,206.64 671.83,206.76 C667.41,210.18 663.02,213.63 658.62,217.05 C657.15,218.2 657.01,218.88 658.03,220.4 L668.86,236.74 C668.978,236.975 669.141,237.184 669.34,237.356 C669.54,237.527 669.77,237.658 670.02,237.74 L660.73,223.86 Z" id="Path" fill="#FFFFFF" fill-rule="nonzero"></path>
                <path d="M746.13,189.59 C748.01,199.15 745.42,207.82 739.04,215.2 C734.73,220.178 728.934,223.638 722.507,225.067 C716.08,226.497 709.363,225.822 703.35,223.14 C703.133,223.016 702.925,222.876 702.73,222.72 C699.155,221.357 695.972,219.135 693.46,216.25 C692.291,215.027 691.221,213.713 690.26,212.32 C691.627,214.94 693.357,217.354 695.4,219.49 C698.04,222.25 700.95,224.7 704.67,225.95 C704.865,226.109 705.072,226.253 705.29,226.38 C711.307,229.06 718.028,229.734 724.458,228.303 C730.888,226.871 736.687,223.41 741,218.43 C747.38,211.05 750,202.38 748.09,192.82 C747.273,188.283 745.508,183.969 742.91,180.16 C744.428,183.134 745.512,186.309 746.13,189.59 Z" id="Path" fill="#000000" fill-rule="nonzero"></path>
            </g>
        </g>
    </g>
</svg>