<?xml version="1.0" standalone="no"?>
<!DOCTYPE svg PUBLIC "-//W3C//DTD SVG 20010904//EN"
 "http://www.w3.org/TR/2001/REC-SVG-20010904/DTD/svg10.dtd">
<svg version="1.0" xmlns="http://www.w3.org/2000/svg"
 width="480.000000pt" height="480.000000pt" viewBox="0 0 480.000000 480.000000"
 preserveAspectRatio="xMidYMid meet">
<metadata>
Created by potrace 1.11, written by Peter Selinger 2001-2013
</metadata>
<g transform="translate(0.000000,480.000000) scale(0.100000,-0.100000)"
fill="#000000" stroke="none">
<path d="M0 2400 l0 -2400 2400 0 2400 0 0 2400 0 2400 -2400 0 -2400 0 0
-2400z m2500 562 c0 -867 -3 -945 -40 -1092 -78 -307 -295 -577 -581 -725
-168 -87 -295 -119 -516 -131 -110 -6 -133 -4 -133 7 0 8 16 65 35 128 19 62
35 115 35 116 0 1 48 5 108 8 59 4 132 13 163 22 335 91 585 353 653 688 14
65 17 209 23 952 l6 875 124 0 123 0 0 -848z m457 181 c-3 -572 -6 -679 -20
-743 -25 -111 -63 -217 -110 -309 -44 -85 -150 -237 -155 -222 -1 4 3 28 9 52
9 32 14 298 19 964 4 506 7 921 8 923 1 1 59 2 128 2 l125 0 -4 -667z m463
320 c-1 -507 -15 -636 -95 -831 -36 -88 -115 -221 -167 -282 l-30 -35 6 35
c21 124 25 251 26 818 l0 632 130 0 130 0 0 -337z m-1384 -1355 c-3 -40 -12
-95 -19 -123 l-13 -50 -253 -3 c-201 -2 -252 0 -248 10 3 7 20 64 38 125 l34
113 234 0 234 0 -7 -72z m-262 -388 l110 0 -35 -36 c-108 -114 -261 -187 -433
-208 l-48 -6 6 30 c3 17 20 76 37 132 l31 101 112 -6 c61 -4 160 -7 220 -7z"/>
</g>
</svg>
