<?xml version="1.0" encoding="utf-8"?>
<!-- Generator: Adobe Illustrator 23.0.2, SVG Export Plug-In . SVG Version: 6.00 Build 0)  -->
<svg version="1.1" xmlns="http://www.w3.org/2000/svg" xmlns:xlink="http://www.w3.org/1999/xlink" x="0px" y="0px"
	 viewBox="0 0 882 300" style="enable-background:new 0 0 882 300;" xml:space="preserve">
<style type="text/css">
	.st0{fill:#C4C3C6;}
	.st1{fill:#FFFFFF;}
	.st2{fill-rule:evenodd;clip-rule:evenodd;}
	.st3{fill-rule:evenodd;clip-rule:evenodd;fill:#C4C3C6;}
	.st4{fill-rule:evenodd;clip-rule:evenodd;fill:#FFFFFF;}
	.st5{fill:#010101;}
	.st6{fill:none;}
	.st7{fill-rule:evenodd;clip-rule:evenodd;fill:#B1B2B7;}
	.st8{fill-rule:evenodd;clip-rule:evenodd;fill:#FDFDFD;}
	.st9{fill-rule:evenodd;clip-rule:evenodd;fill:#F9F9F9;}
</style>
<g id="Layer_4">
	<path d="M876,209H6c-3.3,0-6-2.7-6-6V6c0-3.3,2.7-6,6-6h870c3.3,0,6,2.7,6,6v197C882,206.3,879.3,209,876,209z"/>
</g>
<g id="Layer_2">
</g>
<g id="Layer_3">
</g>
<g id="Layer_1">
	<g id="Storage_1_">
		<g id="Group-33-Copy-2_1_" transform="translate(26.000000, 65.000000)">
			
				<g id="Group-32_1_" transform="translate(174.577175, 116.450048) rotate(-94.000000) translate(-174.577175, -116.450048) translate(70.077175, -51.049952)">
				<g id="Group-34_1_" transform="translate(7.746166, 134.335572)">
					<g id="Group-30-Copy_1_" transform="translate(54.549923, 0.276965)">
						<path id="Path_2_" d="M43.2,454.4c-0.9-3.4-0.9-4.9-4-5.5l-5.4,1.6c-2.2-0.5-5.2-2.8-7.1-1.6c-0.8,0.5-3.2,0.1-4,0
							c-2-3.6-11.8,0.5-13.8-0.8c-1.4-0.9-3.5-0.9-6.2,0c-3.1-0.6-4.9-0.9-5.3-1c-0.6-0.1-1.2-0.1-1.8-0.1c-0.4,0-3.2,2.7-8.3,7.9
							c-0.1,0.7-0.1,1.2-0.1,1.6l0,66.9c0,4.7,3.2,8.7,7.5,9.4l47.8,5.6c4.8,0.8,9.2-2.8,10-8c0.1-0.5,0.1-0.9,0.1-1.4l2-54
							c0-3.1-1.4-6-3.7-7.8l-5-3.8L43.2,454.4z"/>
						<path class="st0" d="M33.7,470.9c0.2,0.8,0.7,1.5,1.3,1.9l5.5,4.2c0.9,0.7,1.4,1.8,1.4,3c0,18.6,0,32.5,0,41.8
							c0,1.9-0.9,4.4-2.8,7.4c0,0.2-6.3,3.3-8.2,3l-35.7-5c-1.7-0.3,1.1-3.6,1.1-5.4c-2.6-7-4-12.6-4-16.6c0-4.9,1.4-5.4,1.4-12.6
							c0-2.6-1.4-10.8-1.4-13.7c0-4,0-10.6,0-19.8c0-0.2,0-0.4,0-0.6c0.3-2,2.1-3.4,3.9-3l5.7,1c0.4,0.1,0.8,0.1,1.1,0l7.3-1.4
							c1.1-0.2,2.1,0.1,2.9,1c2.4,2.5,4.4,3.8,5.9,4c2,0.2,3.9-0.2,5.8-1.4c0.7-0.5,1.6-0.6,2.4-0.5l0.9,0.2
							c1.2,0.3,2.2,1.2,2.6,2.6L33.7,470.9z"/>
						<path class="st2" d="M39.5,487.5c0.5,0.4,1,0.8,1.5,1.3c1.3,1.3,1.2,4.4,1.2,7.6c-0.7-1-1.3-1.8-1.9-2.7
							c0,0.4,0.1,0.7,0.2,0.9c0.6,1.1,1.1,2.5,1.7,3.5l0,0.4c-0.2,0.4-0.2,0.6,0,0.7c0,2.9,0.4,5.9-0.2,8.8
							c-0.1,0.7-0.4,0.7-0.5,0.4c-0.2-0.4-0.3-0.9-0.4-1.5c0-0.3,0-0.6-0.2-0.5c-0.7,0.1-1.9-1.2-1.9-2.2c0-0.8,0.1-1.7-0.4-1.9
							c-0.1,1.1-0.2,2.1-0.4,3.1c-0.5-0.6-0.7-1.5-1.4-1.7c0.2,1.4,1.9,2.5,2.6,2.6c0.8,0.2,1.2,1.1,1.2,2.8c0,0.7,0.2,1.1,0.5,1.2
							c0.4,0.1,0.5,0.7,0.5,1.5c0,1.4,0,4.2,0,7h4.4l0-31.3H39.5z"/>
						<path id="Path-Copy-7_1_" class="st2" d="M-6.9,518.1c0.1-0.6,0.1-1.2,0-1.8c-0.2-0.4-0.2-0.7,0-1c0.2-0.2,0.5-0.4,0.5-0.8
							c-0.6,0-0.6,0.2-1.2,0c-0.2-0.1-0.7,0.7-0.9,0.8c-0.6,0.4-0.7,0.9-1,1.5c-0.2,0.4-2.5,0.8-3.2,0.9c0.9-0.5,3.4-1.9,3.5-3
							c0-0.1,0.1-0.2,0.1-0.2c0.4,0,0.5-1,0.9-1.1c1.4-0.2,1.9-0.1,2.5-1.2c0.3-0.6,0.8-0.5,0.9-1.2c0-0.1,0.6-0.5,0.5-0.7
							c-0.3-0.4,0.3-0.4,0.6-0.5c0.6-0.3,0.3-1.2,0.5-1.9c0.2-0.6,2.9-3.8,3.3-4.2c-0.3,0.6-0.4,1.8-0.7,2.4
							c-0.3,0.6-2.2,3.8-2.7,4.3c0.3-0.2,1.1-0.5,2.5-0.9l2.5-2.7c1.2-1.6,1.9-2.5,2-2.6c0,0.1-0.4,1.3-1.1,3.5L0,510.6l-2.4,0.3
							c-0.3,0.3-0.5,0.5-0.6,0.5c-0.5,0.4-0.1,0.4-0.2,1.1c-0.1,1.2-1.1,0.6-1.5,1.5c-0.1,0.1-0.2,1.1-0.3,1.1
							c-0.9,0.1-1.3,0.7-1.7,1.3C-6.5,517.1-6.4,517.7-6.9,518.1z"/>
						<path id="Path-Copy-8_1_" class="st2" d="M32.7,535c0.1-0.5,0.1-1.1,0-1.7c-0.2-0.5-0.2-0.8,0.1-0.9c0.2-0.2,0.5-0.2,0.6-0.5
							c-0.6-0.3-0.6-0.1-1.3-0.6c-0.2-0.2-0.8,0.3-0.9,0.3c-0.6,0.1-0.7,0.6-1.1,0.9c-0.3,0.3-2.7-0.4-3.4-0.7
							c1-0.1,3.7-0.2,3.8-1.2c0-0.1,0.1-0.1,0.1-0.1c0.4,0.1,0.5-0.8,0.9-0.6c1.5,0.5,2,0.8,2.7,0c0.3-0.4,0.9-0.1,1-0.7
							c0-0.1,0.6-0.2,0.5-0.4c-0.3-0.5,0.4-0.2,0.7-0.2c0.7,0,0.3-1,0.5-1.6c0.2-0.5,3.1-2.3,3.6-2.5c-0.3,0.5-0.5,1.5-0.8,2
							c-0.3,0.5-2.4,2.6-2.9,2.8c0.3-0.1,1.2,0.1,2.7,0.4l2.8-1.4c1.3-1,2.1-1.5,2.2-1.6c0,0.1-0.4,1-1.3,2.9l-3.1,1.3l-2.6-0.9
							c-0.4,0.1-0.6,0.2-0.7,0.2c-0.5,0.2-0.2,0.3-0.2,1c-0.1,1.1-1.1,0-1.6,0.7c-0.1,0.1-0.2,0.9-0.4,0.9c-1-0.4-1.4,0-1.8,0.4
							C33.2,534.2,33.3,534.8,32.7,535z"/>
						<path class="st0" d="M-1.5,454.5l3.7,2.2h8.5c0.7-0.1,2-0.8,3.7-1.9l4.8,6c3.3-1.5,5.6-2.7,6.8-3.5c0.7-0.5,1.6-0.6,2.4-0.5
							l0.9,0.2c1.2,0.3,2.2,1.2,2.6,2.5l2.8,9.9c0.2,0.8,0.7,1.5,1.3,1.9l5.5,4.2c0.9,0.7,1.4,1.8,1.4,3c0.2,11.7,0.6,21.9,1.1,30.6
							c0.6,8.7,1.3,15.4,2.2,20.2c0.9-0.4,1.4-1.9,1.4-4.6c0-0.2,0-0.4,0-0.5l0-47.8c0-1.2-0.5-2.3-1.4-3l-5.5-4.2
							c-0.6-0.5-1.1-1.2-1.3-1.9l-2.8-9.9c-0.4-1.3-1.4-2.3-2.6-2.5l-0.9-0.2c-0.8-0.2-1.7,0-2.4,0.5c-1.8,1.2-3.7,1.7-5.8,1.4
							c-1.5-0.2-3.4-1.5-5.9-4c-0.8-0.8-1.9-1.1-2.9-0.9L9,453.2c-0.4,0.1-0.8,0.1-1.1,0l-5.7-1C0.6,451.9-0.9,452.9-1.5,454.5z"/>
						<path class="st1" d="M28.7,471.2L42,483.3l0-4.3c0-1.2-0.5-2.2-1.4-2.9l-5.5-4.1c-0.6-0.5-1.1-1.1-1.3-1.9l-2.7-9.5
							c-0.4-1.3-1.3-2.2-2.6-2.4l-0.8-0.2c-0.6-0.1-1.9-0.1-3.9,0.2l-4.2,1.7l-6.8-2.1l-1.7-3c-3.9,1.1-5.9,1.7-6.2,1.7
							c-0.4,0.1-2.2,0.1-2.5,0l-5.6-1c-1.6-0.3-3.2,0.7-3.7,2.3l4.6,0.8c0.4,0.1,2.4-0.2,2.8-0.3l6.2,1.7l2.3-1.8l5.8,3.9h6.5
							l3.1-0.4l2.5,1.8L28.7,471.2z"/>
						<path id="Rectangle_1_" class="st2" d="M32.5,478.4l-31.8-3.1c-0.7-0.1-1.3,0.4-1.4,1.2c0,0,0,0,0,0l0,0
							c-0.1,0.7,0.5,1.4,1.2,1.4l31.8,3.1c0.7,0.1,1.3-0.4,1.4-1.2c0,0,0,0,0,0l0,0C33.8,479.2,33.2,478.5,32.5,478.4z"/>
						<path id="Rectangle-Copy-5_1_" class="st2" d="M32.5,494.4l-31.8-3.1c-0.7-0.1-1.3,0.4-1.4,1.2c0,0,0,0,0,0l0,0
							c-0.1,0.7,0.5,1.4,1.2,1.4l31.8,3.1c0.7,0.1,1.3-0.4,1.4-1.2c0,0,0,0,0,0l0,0C33.8,495.1,33.2,494.4,32.5,494.4z"/>
						<path id="Rectangle-Copy-4_1_" class="st2" d="M32.5,486.4l-31.8-3.1c-0.7-0.1-1.3,0.4-1.4,1.2c0,0,0,0,0,0l0,0
							c-0.1,0.7,0.5,1.4,1.2,1.4l31.8,3.1c0.7,0.1,1.3-0.4,1.4-1.2c0,0,0,0,0,0l0,0C33.8,487.1,33.2,486.5,32.5,486.4z"/>
						<path id="Rectangle-Copy-7_1_" class="st2" d="M17,500.7l-16.3-1.6c-0.7-0.1-1.3,0.5-1.4,1.2c0,0,0,0,0,0l0,0
							c-0.1,0.7,0.5,1.4,1.2,1.5l16.3,1.6c0.7,0.1,1.3-0.5,1.4-1.2c0,0,0,0,0,0l0,0C18.2,501.4,17.7,500.8,17,500.7z"/>
					</g>
					<g transform="translate(35.099225, 15.712778)">
						<path d="M51.7,450.4c-1-3.5-0.9-5.1-4.3-5.8l-5.7,1.6c-2.3-0.5-5.5-2.9-7.4-1.6c-0.8,0.5-3.4,0.1-4.2,0
							c-2.1-3.7-12.4,0.6-14.6-0.8c-1.5-0.9-3.7-0.9-6.6,0c-3.3-0.6-5.2-0.9-5.6-1c-0.6-0.1-1.3-0.2-1.9-0.1c-0.4,0-3.3,2.8-8.8,8.3
							c-0.1,0.7-0.1,1.3-0.1,1.6l0,69.8c0,4.9,3.4,9.1,7.9,9.8l50.3,5.9c5,0.8,9.7-2.9,10.5-8.3c0.1-0.5,0.1-1,0.1-1.5l2.1-56.3
							c0-3.2-1.5-6.2-3.9-8.1l-5.2-3.9L51.7,450.4z"/>
						<path class="st0" d="M41.6,467.5c0.2,0.8,0.7,1.5,1.4,2l5.8,4.4c1,0.7,1.5,1.9,1.5,3.1c0,19.4,0,34,0,43.7c0,2-1,4.6-3,7.7
							c0,0.2-6.7,3.5-8.6,3.2l-37.5-5.3c-1.8-0.3,1.1-3.7,1.1-5.6c-2.8-7.3-4.2-13.1-4.2-17.4c0-5.1,1.5-5.7,1.5-13.1
							c0-2.7-1.5-11.2-1.5-14.3c0-4.1,0-11,0-20.7c0-0.2,0-0.4,0-0.6c0.3-2.1,2.2-3.5,4.1-3.2l6,1.1c0.4,0.1,0.8,0.1,1.2,0l7.7-1.5
							c1.1-0.2,2.3,0.2,3.1,1c2.6,2.6,4.6,4,6.2,4.2c2.1,0.3,4.1-0.3,6.1-1.5c0.8-0.5,1.7-0.7,2.6-0.5l0.9,0.2
							c1.3,0.3,2.3,1.3,2.7,2.7L41.6,467.5z"/>
						<path class="st2" d="M47.9,484.9c0.5,0.4,1,0.9,1.5,1.4c1.3,1.4,1.2,4.6,1.2,8c-0.7-1-1.3-1.9-1.9-2.8c0,0.4,0.1,0.7,0.2,0.9
							c0.6,1.2,1.1,2.7,1.8,3.7l0,0.5c-0.2,0.4-0.2,0.6,0,0.7c0,3,0.4,6.1-0.2,9.2c-0.1,0.7-0.4,0.8-0.6,0.5c-0.2-0.4-0.3-1-0.4-1.6
							c0-0.3,0-0.6-0.2-0.6c-0.7,0.1-2-1.2-2-2.3c0-0.8,0.1-1.7-0.4-2c-0.1,1.1-0.2,2.2-0.4,3.3c-0.5-0.6-0.8-1.6-1.4-1.8
							c0.2,1.5,1.9,2.6,2.7,2.7c0.9,0.2,1.3,1.1,1.3,3c0,0.7,0.2,1.1,0.6,1.2c0.4,0.1,0.5,0.8,0.5,1.5c0,1.5,0,4.3,0,7.3h4.5l0-32.7
							H47.9z"/>
						<path class="st2" d="M-1.1,516.8c0.1-0.6,0.1-1.2,0-1.9c-0.2-0.4-0.2-0.7,0-1c0.2-0.3,0.5-0.4,0.6-0.8c-0.6,0-0.6,0.2-1.2,0
							c-0.2-0.1-0.7,0.7-0.9,0.8c-0.6,0.4-0.7,1-1.1,1.6c-0.3,0.4-2.6,0.9-3.3,0.9c0.9-0.6,3.6-2,3.7-3.2c0-0.1,0.1-0.2,0.1-0.2
							c0.4-0.1,0.5-1.1,0.9-1.1c1.5-0.2,2-0.1,2.6-1.3c0.3-0.6,0.9-0.5,1-1.2c0-0.1,0.6-0.5,0.5-0.7c-0.3-0.4,0.3-0.4,0.7-0.6
							c0.7-0.3,0.3-1.3,0.5-1.9c0.2-0.6,3-4,3.5-4.4c-0.3,0.6-0.5,1.9-0.7,2.5c-0.3,0.6-2.3,4-2.8,4.5c0.3-0.2,1.2-0.5,2.7-0.9
							l2.7-2.8c1.3-1.7,2-2.6,2.1-2.7c0,0.1-0.4,1.3-1.2,3.7l-3,2.9l-2.5,0.3c-0.4,0.3-0.6,0.5-0.7,0.6c-0.5,0.4-0.1,0.4-0.2,1.2
							c-0.1,1.2-1.1,0.6-1.6,1.6c-0.1,0.1-0.2,1.1-0.4,1.1c-0.9,0.1-1.4,0.7-1.7,1.3C-0.7,515.7-0.6,516.3-1.1,516.8z"/>
						<path class="st2" d="M40.7,534.4c0.1-0.6,0.1-1.2,0-1.8c-0.2-0.5-0.2-0.8,0.1-1c0.2-0.2,0.5-0.2,0.6-0.5
							c-0.7-0.3-0.6-0.1-1.3-0.6c-0.2-0.2-0.8,0.3-1,0.4c-0.7,0.1-0.8,0.6-1.2,1c-0.3,0.3-2.8-0.5-3.6-0.8c1-0.1,3.9-0.2,4-1.3
							c0-0.1,0.1-0.1,0.1-0.1c0.5,0.2,0.5-0.8,1-0.6c1.6,0.6,2.1,0.8,2.8,0c0.4-0.4,1-0.1,1.1-0.7c0-0.1,0.7-0.2,0.5-0.4
							c-0.3-0.5,0.4-0.2,0.7-0.2c0.7,0,0.3-1.1,0.6-1.6c0.2-0.5,3.3-2.4,3.8-2.6c-0.3,0.5-0.5,1.6-0.8,2.1c-0.3,0.5-2.6,2.7-3.1,3
							c0.3-0.1,1.3,0.1,2.9,0.4l2.9-1.4c1.4-1,2.2-1.5,2.3-1.6c0,0.1-0.5,1.1-1.3,3l-3.3,1.4l-2.7-1c-0.4,0.1-0.6,0.2-0.7,0.2
							c-0.6,0.2-0.2,0.3-0.2,1c-0.1,1.1-1.2,0-1.7,0.8c-0.1,0.1-0.2,1-0.4,0.9c-1-0.4-1.5,0-1.9,0.4
							C41.2,533.5,41.2,534.2,40.7,534.4z"/>
						<path class="st0" d="M4.8,450.6l3.9,2.3l8.9,0c0.7-0.1,2.1-0.8,3.9-1.9l5.1,6.3c3.5-1.6,5.9-2.8,7.2-3.6
							c0.8-0.5,1.7-0.7,2.6-0.5l0.9,0.2c1.3,0.3,2.3,1.3,2.7,2.7l2.9,10.3c0.2,0.8,0.7,1.5,1.4,2l5.8,4.4c1,0.7,1.5,1.9,1.5,3.1
							c0.2,12.2,0.6,22.9,1.2,31.9c0.6,9.1,1.4,16.1,2.4,21.1c1-0.4,1.5-2,1.5-4.8c0-0.2,0-0.4,0-0.6l0-49.9c0-1.2-0.6-2.4-1.5-3.1
							l-5.8-4.4c-0.7-0.5-1.1-1.2-1.4-2l-2.9-10.3c-0.4-1.4-1.4-2.4-2.7-2.7l-0.9-0.2c-0.9-0.2-1.8,0-2.6,0.5
							c-1.9,1.3-3.9,1.8-6.1,1.5c-1.6-0.2-3.6-1.6-6.2-4.2c-0.8-0.8-2-1.2-3.1-1l-7.7,1.5c-0.4,0.1-0.8,0.1-1.2,0l-6-1.1
							C7,447.8,5.4,448.9,4.8,450.6z"/>
						<path class="st1" d="M36.3,467.8l14,12.6v-4.4c0-1.2-0.6-2.3-1.5-3l-5.8-4.2c-0.6-0.5-1.1-1.2-1.4-1.9l-2.9-9.9
							c-0.4-1.3-1.4-2.3-2.7-2.5l-0.9-0.2c-0.6-0.1-2-0.1-4.1,0.2l-4.4,1.7l-7.1-2.2l-1.8-3.1c-4.1,1.1-6.2,1.7-6.5,1.8
							c-0.4,0.1-2.3,0.1-2.7,0l-5.9-1c-1.7-0.3-3.3,0.7-3.9,2.3l4.8,0.8c0.4,0.1,2.6-0.3,3-0.3l6.5,1.7l2.4-1.9l6.1,4h6.8l3.3-0.4
							l2.7,1.8L36.3,467.8z"/>
						<path class="st2" d="M40.5,475.4l-33.6-3.2c-0.7-0.1-1.4,0.5-1.5,1.2c0,0,0,0,0,0l0,0c-0.1,0.8,0.5,1.4,1.3,1.5l33.6,3.2
							c0.7,0.1,1.4-0.5,1.5-1.2c0,0,0,0,0,0l0,0C41.8,476.2,41.2,475.5,40.5,475.4z"/>
						<path class="st2" d="M40.5,492l-33.6-3.2c-0.7-0.1-1.4,0.5-1.5,1.2c0,0,0,0,0,0l0,0c-0.1,0.8,0.5,1.4,1.3,1.5l33.6,3.2
							c0.7,0.1,1.4-0.5,1.5-1.2c0,0,0,0,0,0l0,0C41.8,492.7,41.2,492.1,40.5,492z"/>
						<path class="st2" d="M40.5,483.7l-33.6-3.2c-0.7-0.1-1.4,0.5-1.5,1.2c0,0,0,0,0,0l0,0c-0.1,0.8,0.5,1.4,1.3,1.5l33.6,3.2
							c0.7,0.1,1.4-0.5,1.5-1.2c0,0,0,0,0,0l0,0C41.8,484.5,41.2,483.8,40.5,483.7z"/>
						<path class="st2" d="M24.1,498.6l-17.2-1.7c-0.7-0.1-1.4,0.5-1.5,1.2c0,0,0,0,0,0l0,0c-0.1,0.8,0.5,1.4,1.3,1.5l17.2,1.7
							c0.7,0.1,1.4-0.5,1.5-1.2c0,0,0,0,0,0l0,0C25.4,499.4,24.8,498.7,24.1,498.6z"/>
					</g>
					<g id="Group-30-Copy-3_1_" transform="translate(15.820949, 32.310692)">
						<path d="M59.7,446.2c-1-3.8-0.9-5.4-4.4-6.2l-5.9,1.8c-2.4-0.5-5.7-3.2-7.8-1.8c-0.8,0.6-3.5,0.1-4.4,0
							c-2.2-4-12.9,0.6-15.2-0.9c-1.5-1-3.8-1-6.9,0c-3.5-0.6-5.4-1-5.8-1.1c-0.7-0.1-1.3-0.2-2-0.1c-0.4,0-3.5,3-9.1,8.9
							c-0.1,0.8-0.1,1.4-0.1,1.7l0,74.9c0,5.3,3.5,9.7,8.2,10.5l52.5,6.3c5.3,0.9,10.2-3.1,10.9-9c0.1-0.5,0.1-1,0.1-1.6l2.2-60.4
							c0-3.5-1.5-6.7-4.1-8.7l-5.5-4.2L59.7,446.2z"/>
						<path class="st0" d="M49,464.8c0.2,0.9,0.7,1.6,1.4,2.2l6.1,4.7c1,0.8,1.6,2,1.6,3.4c0,20.8,0,36.3,0,46.7
							c0,2.1-1,4.9-3.1,8.2c0,0.2-7,3.7-9,3.4l-39.1-5.6c-1.8-0.3,1.2-4,1.2-6c-2.9-7.8-4.3-14-4.3-18.6c0-5.4,1.6-6,1.6-14
							c0-2.9-1.6-12-1.6-15.3c0-4.4,0-11.8,0-22.1c0-0.2,0-0.5,0.1-0.7c0.3-2.2,2.3-3.8,4.3-3.4l6.2,1.1c0.4,0.1,0.8,0.1,1.3,0
							l8.1-1.6c1.2-0.2,2.4,0.2,3.2,1.1c2.7,2.8,4.8,4.3,6.5,4.5c2.2,0.3,4.3-0.3,6.3-1.6c0.8-0.5,1.8-0.7,2.7-0.5l0.9,0.2
							c1.4,0.3,2.4,1.4,2.8,2.8L49,464.8z"/>
						<path class="st2" d="M55.9,483c0.6,0.4,1.1,0.9,1.6,1.5c1.4,1.5,1.3,4.9,1.3,8.5c-0.8-1.1-1.4-2-2.1-3c0,0.4,0.1,0.7,0.2,1
							c0.7,1.3,1.2,2.8,1.9,3.9l0,0.5c-0.2,0.4-0.2,0.7,0,0.8c0,3.2,0.5,6.5-0.2,9.8c-0.2,0.8-0.4,0.8-0.6,0.5
							c-0.2-0.4-0.4-1-0.4-1.7c0-0.3,0-0.6-0.2-0.6c-0.8,0.1-2.1-1.3-2.1-2.5c0-0.9,0.1-1.9-0.4-2.2c-0.1,1.2-0.3,2.3-0.4,3.5
							c-0.5-0.6-0.8-1.7-1.5-1.9c0.2,1.6,2.1,2.8,2.9,2.9c0.9,0.2,1.4,1.2,1.4,3.2c0,0.8,0.2,1.2,0.6,1.3c0.4,0.1,0.5,0.8,0.5,1.6
							c0,1.6,0,4.6,0,7.8h4.9l0-34.9H55.9z"/>
						<path class="st2" d="M4.6,517.5c0.1-0.7,0.1-1.3,0-2c-0.2-0.5-0.2-0.8,0-1.1c0.2-0.3,0.5-0.5,0.6-0.9c-0.6,0-0.6,0.2-1.3,0
							c-0.2-0.1-0.8,0.8-0.9,0.9c-0.6,0.5-0.7,1-1.1,1.7c-0.3,0.5-2.7,0.9-3.5,1c1-0.6,3.8-2.2,3.8-3.4c0-0.1,0.1-0.2,0.1-0.2
							c0.4-0.1,0.5-1.1,0.9-1.2c1.5-0.2,2-0.1,2.7-1.4c0.3-0.6,0.9-0.5,1-1.3c0-0.1,0.6-0.5,0.5-0.8c-0.3-0.4,0.4-0.4,0.7-0.6
							c0.7-0.4,0.3-1.4,0.5-2.1c0.2-0.6,3.1-4.3,3.6-4.7c-0.3,0.7-0.5,2-0.8,2.7c-0.3,0.7-2.4,4.3-2.9,4.8c0.3-0.2,1.2-0.6,2.8-1
							l2.8-3c1.3-1.8,2.1-2.8,2.2-2.9c0,0.1-0.4,1.4-1.2,3.9l-3.1,3.2l-2.6,0.3c-0.4,0.3-0.6,0.5-0.7,0.6c-0.5,0.5-0.2,0.5-0.2,1.3
							c-0.1,1.3-1.2,0.6-1.7,1.7c-0.1,0.1-0.2,1.2-0.4,1.2c-1,0.1-1.4,0.7-1.8,1.4C5.1,516.3,5.1,517,4.6,517.5z"/>
						<path class="st2" d="M48.2,536.3c0.1-0.6,0.1-1.2,0-1.9c-0.2-0.6-0.2-0.9,0.1-1.1c0.2-0.2,0.6-0.2,0.7-0.6
							c-0.7-0.3-0.7-0.1-1.4-0.7c-0.3-0.2-0.8,0.3-1,0.4c-0.7,0.1-0.8,0.6-1.2,1.1c-0.3,0.3-2.9-0.5-3.8-0.8
							c1.1-0.1,4.1-0.2,4.2-1.4c0-0.1,0.1-0.1,0.1-0.1c0.5,0.2,0.5-0.9,1-0.7c1.7,0.6,2.2,0.9,3,0c0.4-0.4,1-0.1,1.1-0.7
							c0-0.1,0.7-0.2,0.6-0.5c-0.3-0.6,0.4-0.2,0.7-0.2c0.7,0,0.3-1.2,0.6-1.8c0.2-0.5,3.4-2.6,4-2.8c-0.3,0.5-0.5,1.7-0.9,2.2
							c-0.3,0.5-2.7,2.9-3.2,3.2c0.3-0.1,1.3,0.1,3,0.5l3-1.5c1.5-1.1,2.3-1.7,2.4-1.7c0,0.1-0.5,1.2-1.4,3.2l-3.4,1.5l-2.8-1
							c-0.4,0.1-0.7,0.2-0.7,0.2c-0.6,0.2-0.2,0.4-0.3,1.1c-0.1,1.2-1.3,0-1.8,0.8c-0.1,0.1-0.2,1-0.4,1c-1.1-0.4-1.5,0-2,0.4
							C48.7,535.4,48.8,536.1,48.2,536.3z"/>
						<path class="st0" d="M11,446.4l4.1,2.5h9.3c0.8-0.2,2.1-0.8,4.1-2.1l5.3,6.8c3.7-1.7,6.2-3,7.5-3.9c0.8-0.5,1.8-0.7,2.7-0.5
							l0.9,0.2c1.3,0.3,2.4,1.4,2.8,2.8l3,11c0.2,0.9,0.7,1.6,1.4,2.2l6.1,4.7c1,0.8,1.6,2,1.6,3.4c0.2,13.1,0.6,24.5,1.2,34.3
							s1.4,17.3,2.5,22.6c1-0.4,1.5-2.1,1.5-5.1c0-0.2,0-0.4,0-0.6l0-53.5c0-1.3-0.6-2.6-1.6-3.4l-6.1-4.7c-0.7-0.5-1.2-1.3-1.4-2.2
							l-3-11c-0.4-1.5-1.5-2.5-2.8-2.8l-0.9-0.2c-0.9-0.2-1.9,0-2.7,0.5c-2,1.3-4.1,1.9-6.3,1.6c-1.6-0.2-3.8-1.7-6.5-4.5
							c-0.9-0.9-2-1.3-3.2-1.1l-8,1.6c-0.4,0.1-0.8,0.1-1.3,0l-6.2-1.1C13.3,443.5,11.6,444.6,11,446.4z"/>
						<path class="st1" d="M43.5,465L58,478.5l0-4.8c0-1.3-0.6-2.5-1.6-3.2l-6-4.5c-0.7-0.5-1.2-1.2-1.4-2.1l-3-10.6
							c-0.4-1.4-1.5-2.5-2.8-2.7l-0.9-0.2c-0.6-0.1-2.1-0.1-4.3,0.2l-4.6,1.9l-7.4-2.4l-1.9-3.3c-4.3,1.2-6.5,1.9-6.8,1.9
							c-0.4,0.1-2.4,0.1-2.8,0l-6.2-1.1c-1.8-0.3-3.5,0.8-4.1,2.5l5,0.9c0.4,0.1,2.7-0.3,3.1-0.4l6.8,1.9l2.5-2l6.4,4.3h7.1l3.4-0.4
							l2.8,2L43.5,465z"/>
						<path class="st2" d="M47.9,473.1l-35-3.5c-0.8-0.1-1.5,0.5-1.6,1.3c0,0,0,0,0,0l0,0c-0.1,0.8,0.5,1.5,1.4,1.6l35,3.5
							c0.8,0.1,1.5-0.5,1.6-1.3c0,0,0,0,0,0l0,0C49.3,473.9,48.7,473.2,47.9,473.1z"/>
						<path class="st2" d="M47.9,490.9l-35-3.5c-0.8-0.1-1.5,0.5-1.6,1.3c0,0,0,0,0,0l0,0c-0.1,0.8,0.5,1.5,1.4,1.6l35,3.5
							c0.8,0.1,1.5-0.5,1.6-1.3c0,0,0,0,0,0l0,0C49.3,491.7,48.7,491,47.9,490.9z"/>
						<path class="st2" d="M47.9,482l-35-3.5c-0.8-0.1-1.5,0.5-1.6,1.3c0,0,0,0,0,0l0,0c-0.1,0.8,0.5,1.5,1.4,1.6l35,3.5
							c0.8,0.1,1.5-0.5,1.6-1.3c0,0,0,0,0,0l0,0C49.3,482.8,48.7,482.1,47.9,482z"/>
						<path class="st2" d="M30.8,498l-17.9-1.8c-0.8-0.1-1.5,0.5-1.6,1.3c0,0,0,0,0,0l0,0c-0.1,0.8,0.5,1.5,1.4,1.6l17.9,1.8
							c0.8,0.1,1.5-0.5,1.6-1.3c0,0,0,0,0,0l0,0C32.2,498.8,31.6,498.1,30.8,498z"/>
					</g>
					<g transform="translate(0.235699, 57.601673)">
						<path d="M64.7,439c-1-3.7-1-5.3-4.5-6.1l-6,1.7c-2.4-0.5-5.8-3.1-7.9-1.7c-0.8,0.6-3.6,0.1-4.4,0c-2.2-3.9-13.1,0.6-15.4-0.9
							c-1.5-1-3.9-1-6.9,0c-3.5-0.6-5.5-1-5.9-1.1c-0.7-0.1-1.3-0.2-2-0.1c-0.4,0-3.5,2.9-9.2,8.7c-0.1,0.8-0.1,1.3-0.1,1.7l0,73.7
							c0,5.2,3.5,9.6,8.3,10.3l53.1,6.2c5.3,0.8,10.3-3.1,11.1-8.8c0.1-0.5,0.1-1,0.1-1.5l1.4-58.7c0-3.4-0.7-7.3-3.3-9.2l-5.5-4.2
							L64.7,439z"/>
						<path class="st0" d="M54.1,457.1c0.2,0.9,0.7,1.6,1.4,2.1l6.1,4.6c1,0.8,1.6,2,1.6,3.3c0,20.4,0,35.7,0,45.9
							c0,2.1-1,4.8-3.1,8.1c0,0.2-7,3.7-9.1,3.3L11.5,519c-1.8-0.3,1.2-3.9,1.2-5.9c-2.9-7.7-4.4-13.8-4.4-18.3
							c0-5.3,1.6-5.9,1.6-13.8c0-2.8-1.6-11.8-1.6-15c0-4.4,0-11.6,0-21.7c0-0.2,0-0.4,0.1-0.7c0.3-2.2,2.3-3.7,4.3-3.3l6.3,1.1
							c0.4,0.1,0.9,0.1,1.3,0l8.1-1.5c1.2-0.2,2.4,0.2,3.2,1c2.7,2.7,4.9,4.2,6.5,4.4c2.2,0.3,4.4-0.3,6.4-1.6
							c0.8-0.5,1.8-0.7,2.7-0.5l0.9,0.2c1.4,0.3,2.5,1.4,2.9,2.8L54.1,457.1z"/>
						<path class="st2" d="M60.8,475.3c0.6,0.4,1.1,0.9,1.6,1.5c1.4,1.5,1.3,4.8,1.3,8.4c-0.8-1.1-1.4-2-2.1-2.9
							c0,0.4,0.1,0.7,0.2,0.9c0.7,1.3,1.2,2.8,1.9,3.9l0,0.5c-0.2,0.4-0.2,0.7,0,0.8c0,3.2,0.5,6.4-0.2,9.7
							c-0.2,0.7-0.4,0.8-0.6,0.5c-0.2-0.4-0.4-1-0.4-1.7c0-0.3,0-0.6-0.2-0.6c-0.8,0.1-2.1-1.3-2.1-2.4c0-0.9,0.1-1.8-0.4-2.1
							c-0.1,1.2-0.3,2.3-0.4,3.5c-0.5-0.6-0.8-1.7-1.5-1.9c0.2,1.6,2.1,2.7,2.9,2.9c0.9,0.2,1.4,1.2,1.4,3.1c0,0.8,0.2,1.2,0.6,1.3
							c0.4,0.1,0.5,0.8,0.5,1.6c0,1.5,0,4.6,0,7.6h4.9l0-34.4H60.8z"/>
						<path class="st2" d="M9.1,509.1c0.1-0.7,0.1-1.3,0-2c-0.2-0.5-0.2-0.8,0-1.1c0.2-0.3,0.5-0.5,0.6-0.9c-0.6,0-0.6,0.2-1.3,0
							c-0.2-0.1-0.8,0.7-1,0.9c-0.6,0.5-0.8,1-1.1,1.6c-0.3,0.4-2.8,0.9-3.5,0.9c1-0.6,3.8-2.1,3.9-3.3c0-0.1,0.1-0.2,0.1-0.2
							c0.4-0.1,0.5-1.1,1-1.2c1.6-0.2,2.1-0.1,2.8-1.4c0.3-0.6,0.9-0.5,1.1-1.3c0-0.1,0.6-0.5,0.5-0.7c-0.3-0.4,0.4-0.4,0.7-0.6
							c0.7-0.4,0.3-1.3,0.5-2c0.2-0.6,3.2-4.2,3.7-4.6c-0.3,0.7-0.5,2-0.8,2.7c-0.3,0.7-2.4,4.2-3,4.7c0.3-0.2,1.3-0.6,2.8-1l2.8-3
							c1.3-1.8,2.1-2.7,2.2-2.9c0,0.1-0.4,1.4-1.3,3.9l-3.2,3.1l-2.7,0.3c-0.4,0.3-0.6,0.5-0.7,0.6c-0.5,0.4-0.2,0.4-0.2,1.2
							c-0.1,1.3-1.2,0.6-1.7,1.7c-0.1,0.1-0.2,1.2-0.4,1.2c-1,0.1-1.4,0.7-1.8,1.4C9.5,507.9,9.6,508.6,9.1,509.1z"/>
						<path class="st2" d="M53.1,527.6c0.1-0.6,0.1-1.2,0-1.9c-0.2-0.5-0.2-0.9,0.1-1c0.2-0.2,0.6-0.2,0.7-0.5
							c-0.7-0.3-0.7-0.1-1.4-0.7c-0.3-0.2-0.9,0.3-1,0.4c-0.7,0.1-0.8,0.6-1.2,1c-0.3,0.3-3-0.5-3.8-0.8c1.1-0.1,4.1-0.2,4.2-1.3
							c0-0.1,0.1-0.1,0.1-0.1c0.5,0.2,0.6-0.8,1-0.7c1.7,0.6,2.2,0.9,3,0c0.4-0.4,1-0.1,1.2-0.7c0-0.1,0.7-0.2,0.6-0.5
							c-0.3-0.6,0.4-0.2,0.7-0.2c0.8,0,0.3-1.2,0.6-1.7c0.2-0.5,3.5-2.5,4-2.7c-0.3,0.5-0.5,1.7-0.9,2.2c-0.3,0.5-2.7,2.9-3.2,3.1
							c0.3-0.1,1.4,0.1,3,0.5l3.1-1.5c1.5-1.1,2.3-1.6,2.4-1.7c0,0.1-0.5,1.1-1.4,3.1l-3.4,1.5l-2.9-1c-0.4,0.1-0.7,0.2-0.7,0.2
							c-0.6,0.2-0.2,0.4-0.3,1.1c-0.1,1.2-1.3,0-1.8,0.8c-0.1,0.1-0.2,1-0.4,1c-1.1-0.4-1.5,0-2,0.4
							C53.6,526.7,53.7,527.4,53.1,527.6z"/>
						<path class="st0" d="M15.4,439.2l4.1,2.4H29c0.8-0.1,2.2-0.8,4.2-2l5.3,6.7c3.7-1.7,6.2-3,7.6-3.8c0.8-0.5,1.8-0.7,2.7-0.5
							l0.9,0.2c1.4,0.3,2.5,1.4,2.9,2.8l3.1,10.8c0.2,0.9,0.7,1.6,1.4,2.1l6.1,4.6c1,0.8,1.6,2,1.6,3.3c0.2,12.9,0.6,24.1,1.3,33.7
							c0.6,9.6,1.4,17,2.5,22.2c1-0.4,1.6-2.1,1.6-5.1c0-0.2,0-0.4,0-0.6l0-52.6c0-1.3-0.6-2.6-1.6-3.3l-6.1-4.6
							c-0.7-0.5-1.2-1.3-1.4-2.1l-3.1-10.8c-0.4-1.4-1.5-2.5-2.9-2.8l-0.9-0.2c-0.9-0.2-1.9,0-2.7,0.5c-2,1.3-4.2,1.9-6.4,1.6
							c-1.6-0.2-3.8-1.7-6.5-4.4c-0.9-0.9-2.1-1.3-3.2-1l-8.1,1.5c-0.4,0.1-0.9,0.1-1.3,0l-6.3-1.1C17.7,436.3,16,437.4,15.4,439.2z
							"/>
						<path class="st1" d="M48.5,457.5l14.7,13.3v-4.7c0-1.3-0.6-2.5-1.6-3.2l-6.1-4.5c-0.7-0.5-1.2-1.2-1.4-2.1l-3-10.4
							c-0.4-1.4-1.5-2.4-2.9-2.7l-0.9-0.2c-0.6-0.1-2.1-0.1-4.4,0.2l-4.7,1.8l-7.5-2.4l-1.9-3.3c-4.3,1.2-6.6,1.8-6.9,1.9
							c-0.4,0.1-2.4,0.1-2.8,0l-6.2-1.1c-1.8-0.3-3.5,0.8-4.1,2.5l5.1,0.9c0.4,0.1,2.7-0.3,3.1-0.3l6.9,1.8l2.6-2l6.5,4.2h7.2
							l3.4-0.4l2.8,1.9L48.5,457.5z"/>
						<polygon class="st2" points="54.2,465.6 16.1,462 15.9,464.8 54,468.3 						"/>
						<polygon class="st2" points="36.3,473.1 16.1,470.8 15.9,473.5 36.1,475.8 						"/>
					</g>
				</g>
				<g id="Group-35_1_" transform="translate(0.374035, 68.101372)">
					<path class="st2" d="M69.8,476.1l75.3,6.9c2.3,0.2,3.9,2.1,3.7,4.3c-0.1,0.7-0.3,1.3-0.7,1.9l-60.9,81.6
						c-2.9,3.8-7.7,5.9-12.7,5.5l-64.3-5.9c-3.2-0.3-5.6-3-5.2-6c0.1-1-0.6-13.7,0-14.5c0.1-1.6,0.6-3,1.6-4.4
						C22.1,524.7,40.1,505.7,69.8,476.1z"/>
					<path class="st3" d="M77,465.8l65.1,6.1c2.6,0.2,4.5,2.4,4.3,4.9c-0.1,0.8-0.4,1.6-0.9,2.2l-60.8,77.8
						c-3.3,4.3-8.8,6.6-14.4,6.1L17.7,558c-3.7-0.3-6.4-3.5-6-6.9c0.1-1.1,0.6-2.2,1.3-3.1L77,465.8z"/>
					<path class="st9" d="M138.6,487.1c1,0.8,1.6,2.1,1.5,3.4c-0.1,0.7-0.3,1.3-0.8,1.9l-54.6,72.8c-2.9,3.9-7.8,6-12.9,5.5l-57-5.3
						c-3.3-0.3-5.6-3-5.3-6.1c0.1-0.9,0-2.4,0-3.8c1,1.3,3.5,3.5,5.3,3.6l57,5.3c5,0.5,9.9-1.7,12.9-5.5L138.6,487.1z"/>
				</g>
				<g transform="translate(63.711662, 0.120794)">
					<path d="M42.4,491.9c-0.9-3.1-0.9-4.5-4-5.1l-5.3,1.5c-2.1-0.4-5.1-2.6-7-1.5c-0.8,0.5-3.2,0-3.9,0c-1.9-3.3-11.6,0.5-13.7-0.7
						c-1.4-0.8-3.4-0.8-6.2,0c-3.1-0.5-4.9-0.8-5.3-0.9c-0.6-0.1-1.2-0.1-1.8-0.1c-0.4,0-3.1,2.4-8.2,7.3c-0.1,0.6-0.1,1.1-0.1,1.4
						l0,61.6c0,4.3,3.1,8,7.4,8.6l47.2,5.2c4.7,0.7,9.1-2.6,9.8-7.4c0.1-0.4,0.1-0.9,0.1-1.3l2-49.7c0-2.8-1.4-5.5-3.7-7.2l-4.9-3.5
						L42.4,491.9z"/>
					<path class="st0" d="M33,507.1c0.2,0.7,0.7,1.4,1.3,1.8l5.5,3.9c0.9,0.6,1.4,1.7,1.4,2.8c0,17.1,0,30,0,38.6
						c0,1.8-0.9,4-2.8,6.8c0,0.2-6.3,3.1-8.1,2.8L-5,559c-1.6-0.2,1-3.3,1-5c-2.6-6.5-3.9-11.6-3.9-15.3c0-4.5,1.4-5,1.4-11.6
						c0-2.4-1.4-9.9-1.4-12.6c0-3.7,0-9.7,0-18.2c0-0.2,0-0.4,0-0.6c0.3-1.9,2-3.1,3.9-2.8l5.6,0.9c0.4,0.1,0.8,0.1,1.1,0l7.3-1.3
						c1-0.2,2.1,0.1,2.9,0.9c2.4,2.3,4.4,3.5,5.8,3.7c2,0.2,3.9-0.2,5.7-1.3c0.7-0.4,1.6-0.6,2.4-0.4l0.8,0.2
						c1.2,0.2,2.2,1.1,2.6,2.4L33,507.1z"/>
					<path class="st2" d="M38.8,522.4c0.5,0.4,1,0.8,1.5,1.2c1.3,1.2,1.2,4.1,1.2,7c-0.7-0.9-1.3-1.7-1.9-2.5c0,0.4,0.1,0.6,0.2,0.8
						c0.6,1.1,1.1,2.3,1.7,3.2l0,0.4c-0.2,0.4-0.2,0.6,0,0.7c0,2.7,0.4,5.4-0.2,8.1c-0.1,0.6-0.4,0.7-0.5,0.4
						c-0.2-0.3-0.3-0.9-0.4-1.4c0-0.2,0-0.5-0.2-0.5c-0.7,0-1.9-1.1-1.9-2c0-0.7,0.1-1.5-0.4-1.8c-0.1,1-0.2,1.9-0.4,2.9
						c-0.5-0.5-0.7-1.4-1.4-1.6c0.2,1.3,1.9,2.3,2.6,2.4c0.8,0.2,1.2,1,1.3,2.6c0,0.6,0.2,1,0.5,1.1c0.4,0.1,0.5,0.7,0.5,1.3
						c0,1.3,0,3.8,0,6.4h4.4l0-28.8H38.8z"/>
					<path class="st2" d="M-7.1,550.7c0.1-0.6,0.1-1.1,0-1.6c-0.2-0.4-0.2-0.7,0-0.9c0.2-0.2,0.5-0.4,0.5-0.7c-0.6,0-0.5,0.2-1.2,0
						c-0.2-0.1-0.7,0.6-0.8,0.7c-0.6,0.4-0.7,0.9-1,1.4c-0.2,0.4-2.4,0.8-3.1,0.8c0.9-0.5,3.4-1.8,3.4-2.8c0-0.1,0.1-0.1,0.1-0.1
						c0.4,0,0.4-0.9,0.8-1c1.4-0.1,1.8-0.1,2.5-1.1c0.3-0.5,0.8-0.5,0.9-1.1c0-0.1,0.6-0.4,0.5-0.6c-0.3-0.4,0.3-0.4,0.6-0.5
						c0.6-0.3,0.3-1.1,0.5-1.7c0.2-0.5,2.8-3.5,3.3-3.9c-0.3,0.6-0.4,1.7-0.7,2.2c-0.3,0.6-2.2,3.5-2.6,3.9c0.3-0.2,1.1-0.5,2.5-0.8
						l2.5-2.5c1.2-1.5,1.9-2.3,2-2.4c0,0.1-0.4,1.2-1.1,3.2l-2.8,2.6l-2.4,0.2c-0.3,0.3-0.5,0.4-0.6,0.5c-0.5,0.4-0.1,0.4-0.2,1
						c-0.1,1.1-1,0.5-1.5,1.4c-0.1,0.1-0.2,1-0.3,1c-0.9,0.1-1.3,0.6-1.6,1.2C-6.7,549.7-6.6,550.3-7.1,550.7z"/>
					<path class="st2" d="M32,566.3c0.1-0.5,0.1-1,0-1.6c-0.2-0.5-0.2-0.7,0.1-0.9c0.2-0.1,0.5-0.2,0.6-0.5
						c-0.6-0.3-0.6-0.1-1.2-0.6c-0.2-0.2-0.8,0.3-0.9,0.3c-0.6,0.1-0.7,0.5-1.1,0.9c-0.3,0.3-2.6-0.4-3.4-0.7c1-0.1,3.7-0.2,3.7-1.1
						c0-0.1,0.1-0.1,0.1-0.1c0.4,0.1,0.5-0.7,0.9-0.6c1.5,0.5,2,0.7,2.7,0c0.3-0.4,0.9-0.1,1-0.6c0-0.1,0.6-0.2,0.5-0.4
						c-0.3-0.5,0.4-0.2,0.7-0.2c0.7,0,0.3-1,0.5-1.4c0.2-0.4,3.1-2.1,3.6-2.3c-0.3,0.4-0.5,1.4-0.8,1.9c-0.3,0.4-2.4,2.4-2.9,2.6
						c0.3-0.1,1.2,0.1,2.7,0.4l2.7-1.3c1.3-0.9,2-1.4,2.2-1.4c0,0.1-0.4,1-1.3,2.6l-3.1,1.2l-2.5-0.9c-0.4,0.1-0.6,0.2-0.7,0.2
						c-0.5,0.1-0.2,0.3-0.2,0.9c-0.1,1-1.1,0-1.6,0.7c-0.1,0.1-0.2,0.9-0.4,0.8c-0.9-0.3-1.4,0-1.8,0.4
						C32.5,565.5,32.6,566.1,32,566.3z"/>
					<path class="st0" d="M-1.9,492l3.7,2h8.4c0.7-0.1,1.9-0.7,3.7-1.7l4.8,5.6c3.3-1.4,5.5-2.5,6.7-3.2c0.7-0.4,1.6-0.6,2.4-0.4
						l0.8,0.2c1.2,0.2,2.2,1.1,2.6,2.3l2.7,9.1c0.2,0.7,0.7,1.4,1.3,1.8l5.5,3.9c0.9,0.6,1.4,1.7,1.4,2.8
						c0.2,10.8,0.6,20.2,1.1,28.2c0.5,8,1.3,14.2,2.2,18.6c0.9-0.3,1.4-1.7,1.4-4.2c0-0.2,0-0.3,0-0.5l0-44.1c0-1.1-0.5-2.1-1.4-2.8
						l-5.5-3.9c-0.6-0.4-1.1-1.1-1.3-1.8l-2.7-9.1c-0.4-1.2-1.3-2.1-2.6-2.3l-0.8-0.2c-0.8-0.2-1.7,0-2.4,0.4
						c-1.8,1.1-3.7,1.6-5.7,1.3c-1.5-0.2-3.4-1.4-5.8-3.7c-0.8-0.7-1.8-1.1-2.9-0.9l-7.2,1.3c-0.4,0.1-0.8,0.1-1.1,0l-5.6-0.9
						C0.2,489.6-1.4,490.5-1.9,492z"/>
					<path class="st1" d="M28.2,507.4l13.1,11.2v-3.9c0-1.1-0.5-2.1-1.4-2.7l-5.4-3.8c-0.6-0.4-1.1-1-1.3-1.7l-2.7-8.8
						c-0.4-1.2-1.3-2-2.5-2.3l-0.8-0.2c-0.5-0.1-1.8-0.1-3.9,0.2l-4.2,1.5l-6.7-2l-1.7-2.7c-3.8,1-5.9,1.5-6.1,1.6
						c-0.4,0.1-2.1,0.1-2.5,0l-5.6-0.9c-1.6-0.3-3.1,0.6-3.7,2.1l4.5,0.7c0.4,0.1,2.4-0.2,2.8-0.3l6.1,1.5l2.3-1.7l5.8,3.6h6.4
						l3.1-0.4l2.5,1.6L28.2,507.4z"/>
					<path class="st2" d="M31.9,514.1l-31.6-2.9c-0.7-0.1-1.2,0.4-1.3,1.1c0,0,0,0,0,0l0,0c-0.1,0.7,0.4,1.3,1.1,1.3l31.6,2.9
						c0.7,0.1,1.2-0.4,1.3-1.1c0,0,0,0,0,0l0,0C33.1,514.8,32.6,514.2,31.9,514.1z"/>
					<path class="st2" d="M31.9,528.8l-31.6-2.9c-0.7-0.1-1.2,0.4-1.3,1.1c0,0,0,0,0,0l0,0c-0.1,0.7,0.4,1.3,1.1,1.3l31.6,2.9
						c0.7,0.1,1.2-0.4,1.3-1.1c0,0,0,0,0,0l0,0C33.1,529.4,32.6,528.9,31.9,528.8z"/>
					<path class="st2" d="M31.9,521.5l-31.6-2.9c-0.7-0.1-1.2,0.4-1.3,1.1c0,0,0,0,0,0l0,0c-0.1,0.7,0.4,1.3,1.1,1.3l31.6,2.9
						c0.7,0.1,1.2-0.4,1.3-1.1c0,0,0,0,0,0l0,0C33.1,522.1,32.6,521.5,31.9,521.5z"/>
					<path class="st2" d="M16.5,534.6l-16.3-1.5c-0.7-0.1-1.3,0.4-1.3,1.1c0,0,0,0,0,0l0,0c-0.1,0.7,0.4,1.3,1.1,1.3l16.3,1.5
						c0.7,0.1,1.3-0.4,1.3-1.1c0,0,0,0,0,0l0,0C17.7,535.3,17.2,534.7,16.5,534.6z"/>
				</g>
				<g transform="translate(44.934245, 17.165700)">
					<path d="M54.6,487.7c-1-3.5-1-5-4.5-5.7l-6,1.6c-2.4-0.5-5.8-2.9-7.9-1.6c-0.8,0.5-3.6,0.1-4.4,0c-2.2-3.7-13.1,0.6-15.5-0.8
						c-1.6-0.9-3.9-0.9-7,0c-3.5-0.6-5.5-0.9-5.9-1c-0.7-0.1-1.3-0.2-2-0.1c-0.4,0-3.5,2.8-9.3,8.2c-0.1,0.7-0.1,1.3-0.1,1.6l0,69.4
						c0,4.9,3.6,9,8.3,9.7l53.3,5.8c5.3,0.8,10.3-2.9,11.1-8.3c0.1-0.5,0.1-1,0.1-1.4l2.2-55.9c0-3.2-1.5-6.2-4.2-8.1l-5.5-3.9
						L54.6,487.7z"/>
					<path class="st0" d="M43.9,504.8c0.2,0.8,0.8,1.5,1.4,2l6.2,4.4c1,0.7,1.6,1.9,1.6,3.1c0,19.3,0,33.8,0,43.4
						c0,2-1.1,4.5-3.2,7.7c0,0.2-7.1,3.5-9.1,3.2l-39.7-5.2c-1.9-0.3,1.2-3.7,1.2-5.6c-2.9-7.3-4.4-13-4.4-17.3
						c0-5,1.6-5.6,1.6-13.1c0-2.7-1.6-11.2-1.6-14.2c0-4.1,0-11,0-20.5c0-0.2,0-0.4,0.1-0.6c0.3-2.1,2.3-3.5,4.4-3.1l6.3,1.1
						c0.4,0.1,0.9,0.1,1.3,0l8.2-1.5c1.2-0.2,2.4,0.2,3.3,1c2.7,2.6,4.9,4,6.6,4.2c2.2,0.3,4.4-0.2,6.4-1.5c0.8-0.5,1.8-0.7,2.7-0.5
						l0.9,0.2c1.4,0.3,2.5,1.3,2.9,2.6L43.9,504.8z"/>
					<path class="st2" d="M50.6,522.1c0.6,0.4,1.1,0.9,1.6,1.4c1.4,1.4,1.3,4.6,1.3,7.9c-0.8-1-1.4-1.9-2.1-2.8
						c0,0.4,0.1,0.7,0.2,0.9c0.6,1.2,1.2,2.6,1.9,3.6l0,0.4c-0.2,0.4-0.2,0.6,0,0.7c0,3,0.4,6.1-0.2,9.1c-0.2,0.7-0.4,0.8-0.6,0.5
						c-0.2-0.4-0.4-1-0.4-1.6c0-0.3,0-0.6-0.2-0.6c-0.8,0.1-2.1-1.2-2.1-2.3c0-0.8,0.1-1.7-0.4-2c-0.1,1.1-0.3,2.1-0.4,3.3
						c-0.5-0.6-0.8-1.6-1.5-1.8c0.2,1.5,2,2.6,2.8,2.7c0.9,0.2,1.3,1.1,1.4,2.9c0,0.7,0.2,1.1,0.6,1.2c0.4,0.1,0.5,0.8,0.5,1.5
						c0,1.5,0,4.3,0,7.2h4.8l0-32.5H50.6z"/>
					<path class="st2" d="M-1.3,553.8c0.1-0.6,0.1-1.2,0-1.9c-0.2-0.4-0.2-0.7,0-1c0.2-0.3,0.5-0.4,0.6-0.8c-0.6,0-0.6,0.2-1.3,0
						c-0.2-0.1-0.8,0.7-1,0.8c-0.6,0.4-0.8,1-1.1,1.5c-0.3,0.4-2.8,0.8-3.5,0.9c1-0.6,3.8-2,3.9-3.1c0-0.1,0.1-0.2,0.1-0.2
						c0.4-0.1,0.5-1.1,1-1.1c1.6-0.2,2.1-0.1,2.8-1.3c0.4-0.6,0.9-0.5,1.1-1.2c0-0.1,0.7-0.5,0.5-0.7c-0.3-0.4,0.4-0.4,0.7-0.6
						c0.7-0.3,0.3-1.3,0.5-1.9c0.2-0.6,3.2-4,3.7-4.4c-0.3,0.6-0.5,1.9-0.8,2.5c-0.3,0.6-2.5,3.9-3,4.4c0.3-0.2,1.3-0.5,2.8-0.9
						l2.8-2.8c1.3-1.7,2.1-2.6,2.2-2.7c0,0.1-0.4,1.3-1.3,3.6L6.4,546l-2.7,0.3c-0.4,0.3-0.6,0.5-0.7,0.6c-0.6,0.4-0.2,0.4-0.2,1.2
						c-0.1,1.2-1.2,0.6-1.7,1.6c-0.1,0.1-0.2,1.1-0.4,1.1c-1,0.1-1.4,0.7-1.8,1.3C-0.9,552.7-0.8,553.3-1.3,553.8z"/>
					<path class="st2" d="M42.9,571.3c0.1-0.6,0.1-1.2,0-1.8c-0.2-0.5-0.2-0.8,0.1-1c0.2-0.2,0.6-0.2,0.7-0.5
						c-0.7-0.3-0.7-0.1-1.4-0.6c-0.3-0.2-0.9,0.3-1,0.3c-0.7,0.1-0.8,0.6-1.2,1c-0.3,0.3-3-0.4-3.8-0.8c1.1-0.1,4.1-0.2,4.2-1.3
						c0-0.1,0.1-0.1,0.1-0.1c0.5,0.2,0.6-0.8,1-0.6c1.7,0.6,2.2,0.8,3,0c0.4-0.4,1-0.1,1.2-0.7c0-0.1,0.7-0.2,0.6-0.4
						c-0.3-0.5,0.4-0.2,0.8-0.2c0.8,0,0.3-1.1,0.6-1.6c0.2-0.5,3.5-2.4,4-2.6c-0.3,0.5-0.5,1.6-0.9,2.1c-0.3,0.5-2.7,2.7-3.3,2.9
						c0.3-0.1,1.4,0.1,3,0.4l3.1-1.4c1.5-1,2.3-1.5,2.5-1.6c0,0.1-0.5,1.1-1.4,3l-3.5,1.4l-2.9-1c-0.4,0.1-0.7,0.2-0.8,0.2
						c-0.6,0.2-0.2,0.3-0.3,1c-0.1,1.1-1.3,0-1.8,0.8c-0.1,0.1-0.2,1-0.4,0.9c-1.1-0.4-1.6,0-2,0.4C43.4,570.4,43.5,571,42.9,571.3z
						"/>
					<path class="st0" d="M4.9,488l4.2,2.3h9.5c0.8-0.1,2.2-0.8,4.2-1.9l5.4,6.3c3.7-1.6,6.2-2.8,7.6-3.6c0.8-0.5,1.8-0.7,2.7-0.5
						l0.9,0.2c1.4,0.3,2.5,1.3,2.9,2.6l3.1,10.2c0.2,0.8,0.8,1.5,1.4,2l6.2,4.4c1,0.7,1.6,1.9,1.6,3.1c0.2,12.1,0.6,22.7,1.3,31.8
						c0.6,9,1.4,16,2.5,20.9c1-0.4,1.6-2,1.6-4.8c0-0.2,0-0.4,0-0.6l0-49.6c0-1.2-0.6-2.4-1.6-3.1l-6.2-4.4c-0.7-0.5-1.2-1.2-1.4-2
						l-3.1-10.2c-0.4-1.3-1.5-2.4-2.9-2.6l-0.9-0.2c-0.9-0.2-1.9,0-2.7,0.5c-2,1.2-4.2,1.7-6.4,1.5c-1.7-0.2-3.8-1.6-6.5-4.1
						c-0.9-0.8-2.1-1.2-3.3-1l-8.2,1.5c-0.4,0.1-0.9,0.1-1.3,0l-6.3-1.1C7.3,485.2,5.6,486.3,4.9,488z"/>
					<path class="st1" d="M38.4,505.1l14.8,12.5l0-4.4c0-1.2-0.6-2.3-1.6-3l-6.1-4.2c-0.7-0.5-1.2-1.2-1.4-1.9l-3-9.8
						c-0.4-1.3-1.5-2.3-2.9-2.5l-0.9-0.2c-0.6-0.1-2.1-0.1-4.4,0.2l-4.7,1.7l-7.5-2.2l-1.9-3.1c-4.3,1.1-6.6,1.7-6.9,1.8
						c-0.4,0.1-2.4,0.1-2.8,0l-6.3-1c-1.8-0.3-3.5,0.7-4.1,2.3l5.1,0.8c0.4,0.1,2.7-0.3,3.1-0.3l6.9,1.7l2.6-1.8l6.5,4l7.2,0
						l3.5-0.4l2.8,1.8L38.4,505.1z"/>
					<path class="st2" d="M42.8,512.7L7,509.4c-0.7-0.1-1.4,0.5-1.5,1.2c0,0,0,0,0,0l0,0c-0.1,0.8,0.5,1.4,1.2,1.5l35.7,3.2
						c0.7,0.1,1.4-0.5,1.5-1.2c0,0,0,0,0,0l0,0C44.1,513.4,43.5,512.7,42.8,512.7z"/>
					<path class="st2" d="M42.8,529.1L7,525.9c-0.7-0.1-1.4,0.5-1.5,1.2c0,0,0,0,0,0l0,0c-0.1,0.8,0.5,1.4,1.2,1.5l35.7,3.2
						c0.7,0.1,1.4-0.5,1.5-1.2c0,0,0,0,0,0l0,0C44.1,529.9,43.5,529.2,42.8,529.1z"/>
					<path class="st2" d="M42.8,520.9L7,517.7c-0.7-0.1-1.4,0.5-1.5,1.2c0,0,0,0,0,0l0,0c-0.1,0.8,0.5,1.4,1.2,1.5l35.7,3.2
						c0.7,0.1,1.4-0.5,1.5-1.2c0,0,0,0,0,0l0,0C44.1,521.6,43.5,521,42.8,520.9z"/>
					<path class="st2" d="M25.4,535.7L7,534c-0.8-0.1-1.4,0.5-1.5,1.2c0,0,0,0,0,0l0,0c-0.1,0.8,0.5,1.4,1.3,1.5l18.4,1.7
						c0.8,0.1,1.4-0.5,1.5-1.2c0,0,0,0,0,0l0,0C26.7,536.5,26.2,535.8,25.4,535.7z"/>
				</g>
				<g id="Group-30_1_" transform="translate(46.587930, 43.798288)">
					<path d="M88.8,480.2c-1-3.5-1-5-4.5-5.8l-6,1.6c-2.4-0.5-5.8-2.9-7.9-1.6c-0.8,0.5-3.6,0.1-4.4,0c-2.2-3.7-13.1,0.6-15.5-0.8
						c-1.6-0.9-3.9-0.9-7,0c-3.5-0.6-5.5-0.9-5.9-1c-0.7-0.1-1.3-0.2-2-0.1c-0.3,0-19.4,1.2-22.6,4.4c-1.9,1.9-6.1,2.1-12.7,0.6
						c-4.7-0.3-7.5,3.6-8.5,11.7l34.5,62.6c0,4.9,3.6,9,8.3,9.8l53.3,5.8c5.3,0.8,10.3-2.9,11.1-8.3c0.1-0.5,0.1-1,0.1-1.4l2.2-56
						c0-3.2-1.5-6.2-4.1-8.1l-5.5-3.9L88.8,480.2z"/>
					<path class="st0" d="M78.2,497.3c0.2,0.8,0.8,1.5,1.4,2l6.2,4.4c1,0.7,1.6,1.9,1.6,3.1c0,19.2,0,33.7,0,43.3
						c0,2-1.1,4.5-3.2,7.6c0,0.2-7.1,3.5-9.1,3.2l-39.7-5.2c-1.9-0.3,1.2-3.7,1.2-5.6c-2.9-7.2-4.4-13-4.4-17.2c0-5,1.6-5.6,1.6-13
						c0-2.7-1.6-11.1-1.6-14.1c0-4.1,0-10.9,0-20.5c0-0.2,0-0.4,0.1-0.6c0.3-2.1,2.3-3.5,4.4-3.1l6.3,1.1c0.4,0.1,0.9,0.1,1.3,0
						l8.2-1.5c1.2-0.2,2.4,0.2,3.3,1c2.7,2.6,4.9,4,6.5,4.2c2.2,0.3,4.4-0.2,6.4-1.5c0.8-0.5,1.8-0.7,2.7-0.5l0.9,0.2
						c1.4,0.3,2.5,1.3,2.9,2.6L78.2,497.3z"/>
					<path class="st2" d="M85,514.5c0.6,0.4,1.1,0.9,1.7,1.4c1.4,1.4,1.3,4.6,1.3,7.9c-0.8-1-1.5-1.9-2.1-2.8c0,0.4,0.1,0.7,0.2,0.9
						c0.7,1.2,1.2,2.6,2,3.6l0,0.4c-0.2,0.4-0.2,0.6,0,0.7c0,3,0.5,6.1-0.2,9.1c-0.2,0.7-0.4,0.8-0.6,0.5c-0.2-0.4-0.4-1-0.4-1.6
						c0-0.3,0-0.6-0.2-0.6c-0.8,0.1-2.2-1.2-2.2-2.3c0-0.8,0.1-1.7-0.4-2c-0.1,1.1-0.3,2.1-0.4,3.3c-0.6-0.6-0.8-1.6-1.6-1.8
						c0.2,1.5,2.1,2.6,2.9,2.7c0.9,0.2,1.4,1.1,1.4,2.9c0,0.7,0.2,1.1,0.6,1.2c0.4,0.1,0.5,0.8,0.5,1.5c0,1.5,0,4.3,0,7.2h4.9
						l0-32.4H85z"/>
					<path class="st2" d="M33,546.3c0.1-0.6,0.1-1.2,0-1.9c-0.2-0.4-0.2-0.7,0-1c0.2-0.3,0.5-0.4,0.6-0.8c-0.6,0-0.6,0.2-1.3,0
						c-0.2-0.1-0.8,0.7-1,0.8c-0.6,0.4-0.8,1-1.1,1.5c-0.3,0.4-2.8,0.8-3.5,0.9c1-0.6,3.8-2,3.9-3.1c0-0.1,0.1-0.2,0.1-0.2
						c0.4-0.1,0.5-1.1,1-1.1c1.6-0.2,2.1-0.1,2.8-1.3c0.4-0.6,0.9-0.5,1.1-1.2c0-0.1,0.7-0.5,0.5-0.7c-0.3-0.4,0.4-0.4,0.7-0.6
						c0.7-0.3,0.3-1.3,0.5-1.9c0.2-0.6,3.2-4,3.7-4.4c-0.3,0.6-0.5,1.9-0.8,2.5c-0.3,0.6-2.5,3.9-3,4.4c0.3-0.2,1.3-0.5,2.8-0.9
						l2.8-2.8c1.3-1.7,2.1-2.6,2.2-2.7c0,0.1-0.4,1.3-1.3,3.6l-3.2,2.9l-2.7,0.3c-0.4,0.3-0.6,0.5-0.7,0.6c-0.6,0.4-0.2,0.4-0.2,1.2
						c-0.1,1.2-1.2,0.6-1.7,1.6c-0.1,0.1-0.2,1.1-0.4,1.1c-1,0.1-1.4,0.7-1.8,1.3C33.4,545.2,33.5,545.8,33,546.3z"/>
					<path class="st2" d="M77.2,563.8c0.1-0.6,0.1-1.2,0-1.8c-0.2-0.5-0.2-0.8,0.1-1c0.2-0.2,0.6-0.2,0.7-0.5
						c-0.7-0.3-0.7-0.1-1.4-0.6c-0.3-0.2-0.9,0.3-1,0.3c-0.7,0.1-0.8,0.6-1.2,1c-0.3,0.3-3-0.4-3.8-0.8c1.1-0.1,4.1-0.2,4.2-1.3
						c0-0.1,0.1-0.1,0.1-0.1c0.5,0.2,0.6-0.8,1-0.6c1.7,0.6,2.2,0.8,3,0c0.4-0.4,1-0.1,1.2-0.7c0-0.1,0.7-0.2,0.6-0.4
						c-0.3-0.5,0.4-0.2,0.8-0.2c0.8,0,0.3-1.1,0.6-1.6c0.2-0.5,3.5-2.4,4-2.6c-0.3,0.5-0.5,1.6-0.9,2.1c-0.3,0.5-2.7,2.7-3.3,2.9
						c0.3-0.1,1.4,0.1,3,0.4L88,557c1.5-1,2.3-1.5,2.5-1.6c0,0.1-0.5,1.1-1.4,3l-3.5,1.4l-2.9-1c-0.4,0.1-0.7,0.2-0.8,0.2
						c-0.6,0.2-0.2,0.3-0.3,1c-0.1,1.1-1.3,0-1.8,0.8c-0.1,0.1-0.2,1-0.4,0.9c-1.1-0.4-1.6,0-2,0.4
						C77.7,562.9,77.8,563.5,77.2,563.8z"/>
					<path class="st0" d="M39.4,480.5l4.2,2.3h9.5c0.8-0.1,2.2-0.8,4.2-1.9l5.4,6.3c3.7-1.6,6.2-2.8,7.6-3.6
						c0.8-0.5,1.8-0.7,2.7-0.5l0.9,0.2c1.4,0.3,2.5,1.3,2.9,2.6l3.1,10.2c0.2,0.8,0.8,1.5,1.4,2l6.2,4.4c1,0.7,1.6,1.9,1.6,3.1
						c0.2,12.2,0.6,22.7,1.3,31.8c0.6,9,1.4,16,2.5,21c1-0.4,1.6-2,1.6-4.8c0-0.2,0-0.4,0-0.6l0-49.6c0-1.2-0.6-2.4-1.6-3.1
						l-6.2-4.4c-0.7-0.5-1.2-1.2-1.4-2l-3.1-10.2c-0.4-1.3-1.5-2.4-2.9-2.6l-0.9-0.2c-0.9-0.2-1.9,0-2.7,0.5c-2,1.2-4.2,1.7-6.4,1.5
						c-1.7-0.2-3.8-1.6-6.5-4.2c-0.9-0.8-2.1-1.2-3.3-1l-8.2,1.5c-0.4,0.1-0.9,0.1-1.3,0l-6.3-1.1C41.8,477.7,40.1,478.8,39.4,480.5
						z"/>
					<path class="st1" d="M72.6,497.6l14.8,12.6v-4.4c0-1.2-0.6-2.3-1.6-3l-6.1-4.2c-0.7-0.5-1.2-1.2-1.4-1.9l-3-9.9
						c-0.4-1.3-1.5-2.3-2.9-2.5l-0.9-0.2c-0.6-0.1-2.1-0.1-4.4,0.2l-4.7,1.7l-7.5-2.2l-1.9-3.1c-4.3,1.1-6.6,1.7-6.9,1.8
						c-0.4,0.1-2.4,0.1-2.8,0l-6.3-1c-1.8-0.3-3.5,0.7-4.1,2.3l5.1,0.8c0.4,0.1,2.7-0.3,3.1-0.3l6.9,1.7l2.6-1.9l6.5,4h7.2l3.4-0.4
						l2.8,1.8L72.6,497.6z"/>
					<polygon class="st2" points="78.3,505.3 40.1,501.9 39.8,504.5 78.1,507.9 					"/>
					<polygon class="st2" points="78.3,521.8 40.1,518.4 39.8,521 78.1,524.4 					"/>
					<polygon class="st2" points="78.3,513.5 40.1,510.1 39.8,512.8 78.1,516.2 					"/>
					<polygon class="st2" points="61,528.4 40,526.5 39.7,529.1 60.8,531 					"/>
				</g>
				<g transform="translate(4.749680, 58.105196)">
					<path d="M69.4,476.6c-1.1-3.7-1-5.3-4.8-6.1l-6.3,1.7c-2.5-0.5-6.1-3.1-8.3-1.7c-0.9,0.6-3.8,0.1-4.7,0
						c-2.3-3.9-13.9,0.6-16.3-0.9c-1.6-1-4.1-1-7.4,0c-3.7-0.6-5.8-1-6.3-1.1c-0.7-0.1-1.4-0.2-2.1-0.1c-0.5,0-3.7,2.9-9.8,8.7
						c-0.1,0.8-0.1,1.3-0.1,1.7l0,73.3c0,5.2,3.8,9.5,8.8,10.3l56.3,6.2c5.6,0.8,10.9-3.1,11.7-8.8c0.1-0.5,0.1-1,0.1-1.5l0.3-8.4
						l3.3-50.5c0-3.4-3-6.8-5.7-8.7l-5.8-4.1L69.4,476.6z"/>
					<path class="st0" d="M58.1,494.6c0.3,0.9,0.8,1.6,1.5,2.1l6.5,4.6c1.1,0.8,1.7,2,1.7,3.3c0,20.3,0,35.5,0,45.7
						c0,2.1-1.1,4.8-3.3,8.1c0,0.2-7.4,3.7-9.6,3.3l-41.9-5.5c-2-0.3,1.2-3.9,1.2-5.9c-3.1-7.7-4.7-13.7-4.7-18.2
						c0-5.3,1.7-5.9,1.7-13.7c0-2.8-1.7-11.8-1.7-14.9c0-4.3,0-11.5,0-21.6c0-0.2,0-0.4,0.1-0.7c0.4-2.2,2.4-3.7,4.6-3.3l6.7,1.1
						c0.4,0.1,0.9,0.1,1.4,0l8.6-1.5c1.2-0.2,2.5,0.2,3.4,1c2.9,2.7,5.2,4.2,6.9,4.4c2.4,0.3,4.6-0.3,6.8-1.6
						c0.9-0.5,1.9-0.7,2.9-0.5l1,0.2c1.4,0.3,2.6,1.4,3,2.8L58.1,494.6z"/>
					<path class="st2" d="M65.2,512.8c0.6,0.4,1.2,0.9,1.7,1.5c1.5,1.5,1.4,4.8,1.4,8.3c-0.8-1.1-1.5-2-2.2-2.9
						c0,0.4,0.1,0.7,0.3,0.9c0.7,1.3,1.3,2.8,2.1,3.8l0,0.5c-0.2,0.4-0.2,0.7,0,0.8c0,3.2,0.5,6.4-0.2,9.6c-0.2,0.7-0.4,0.8-0.6,0.5
						c-0.3-0.4-0.4-1-0.4-1.7c0-0.3,0-0.6-0.2-0.6c-0.8,0.1-2.3-1.3-2.3-2.4c0-0.9,0.1-1.8-0.4-2.1c-0.1,1.2-0.3,2.2-0.4,3.4
						c-0.6-0.6-0.9-1.7-1.6-1.8c0.2,1.6,2.2,2.7,3,2.9c1,0.2,1.5,1.2,1.5,3.1c0,0.8,0.2,1.2,0.6,1.3c0.4,0.1,0.6,0.8,0.5,1.6
						c0,1.5,0,4.5,0,7.6h5.2l0-34.2H65.2z"/>
					<path class="st2" d="M10.4,546.3c0.1-0.7,0.1-1.3,0-2c-0.2-0.5-0.2-0.8,0.1-1.1c0.2-0.3,0.6-0.5,0.6-0.9c-0.7,0-0.7,0.2-1.4,0
						c-0.3-0.1-0.8,0.7-1,0.9c-0.7,0.4-0.8,1-1.2,1.6c-0.3,0.4-2.9,0.9-3.7,0.9c1.1-0.6,4-2.1,4.1-3.3c0-0.1,0.1-0.2,0.1-0.2
						c0.5-0.1,0.5-1.1,1-1.2c1.7-0.2,2.2-0.1,2.9-1.4c0.4-0.6,1-0.5,1.1-1.3c0-0.1,0.7-0.5,0.5-0.7c-0.3-0.4,0.4-0.4,0.7-0.6
						c0.7-0.4,0.3-1.3,0.6-2c0.2-0.6,3.4-4.2,3.9-4.6c-0.3,0.7-0.5,2-0.8,2.7c-0.3,0.7-2.6,4.2-3.1,4.7c0.3-0.2,1.3-0.6,3-0.9l3-2.9
						c1.4-1.8,2.2-2.7,2.4-2.9c0,0.1-0.5,1.4-1.3,3.8l-3.4,3.1l-2.8,0.3c-0.4,0.3-0.6,0.5-0.7,0.6c-0.6,0.4-0.2,0.4-0.2,1.2
						c-0.1,1.3-1.3,0.6-1.8,1.7c-0.1,0.1-0.2,1.2-0.4,1.2c-1.1,0.1-1.5,0.7-1.9,1.4C10.9,545.1,11,545.8,10.4,546.3z"/>
					<path class="st2" d="M57.1,564.8c0.1-0.6,0.1-1.2,0-1.9c-0.2-0.5-0.2-0.8,0.1-1c0.2-0.2,0.6-0.2,0.7-0.5
						c-0.7-0.3-0.7-0.1-1.5-0.7c-0.3-0.2-0.9,0.3-1.1,0.4c-0.7,0.1-0.9,0.6-1.3,1c-0.3,0.3-3.2-0.5-4-0.8c1.1-0.1,4.4-0.2,4.5-1.3
						c0-0.1,0.1-0.1,0.2-0.1c0.5,0.2,0.6-0.8,1.1-0.7c1.8,0.6,2.4,0.9,3.2,0c0.4-0.4,1.1-0.1,1.2-0.7c0-0.1,0.7-0.2,0.6-0.5
						c-0.3-0.6,0.4-0.2,0.8-0.2c0.8,0,0.4-1.1,0.6-1.7c0.3-0.5,3.7-2.5,4.3-2.7c-0.3,0.5-0.6,1.7-0.9,2.2c-0.3,0.5-2.9,2.9-3.4,3.1
						c0.4-0.1,1.4,0.1,3.2,0.5l3.3-1.5c1.6-1.1,2.4-1.6,2.6-1.7c0,0.1-0.5,1.1-1.5,3.1l-3.6,1.5l-3-1c-0.4,0.1-0.7,0.2-0.8,0.2
						c-0.6,0.2-0.2,0.4-0.3,1.1c-0.1,1.2-1.4,0-1.9,0.8c-0.1,0.1-0.3,1-0.5,1c-1.1-0.4-1.6,0-2.1,0.4
						C57.6,563.8,57.7,564.5,57.1,564.8z"/>
					<path class="st0" d="M17.1,476.9l4.4,2.4h10c0.8-0.1,2.3-0.8,4.4-2l5.7,6.6c3.9-1.7,6.6-2.9,8-3.8c0.9-0.5,1.9-0.7,2.9-0.5
						l1,0.2c1.4,0.3,2.6,1.4,3,2.8l3.2,10.8c0.3,0.9,0.8,1.6,1.5,2.1l6.5,4.6c1.1,0.8,1.7,2,1.7,3.3c0.2,12.8,0.7,24,1.3,33.5
						c0.6,9.5,1.5,16.9,2.6,22.1c1.1-0.4,1.7-2.1,1.7-5c0-0.2,0-0.4,0-0.6l0-52.3c0-1.3-0.6-2.5-1.7-3.3l-6.5-4.6
						c-0.7-0.5-1.3-1.3-1.5-2.1l-3.2-10.8c-0.4-1.4-1.6-2.5-3-2.8l-1-0.2c-1-0.2-2,0-2.9,0.5c-2.1,1.3-4.4,1.8-6.8,1.6
						c-1.7-0.2-4-1.7-6.9-4.4c-0.9-0.9-2.2-1.3-3.4-1l-8.6,1.5c-0.4,0.1-0.9,0.1-1.4,0l-6.7-1.1C19.6,474,17.7,475.1,17.1,476.9z"/>
					<path class="st1" d="M52.2,495.1l15.6,13.2v-4.6c0-1.3-0.6-2.4-1.7-3.2l-6.5-4.4c-0.7-0.5-1.3-1.2-1.5-2l-3.2-10.4
						c-0.4-1.4-1.6-2.4-3-2.7l-1-0.2c-0.7-0.1-2.2-0.1-4.6,0.2l-5,1.8l-8-2.3l-2-3.2c-4.6,1.2-7,1.8-7.3,1.9c-0.4,0.1-2.5,0.1-3,0
						l-6.6-1.1c-1.9-0.3-3.7,0.8-4.4,2.5l5.4,0.9c0.4,0.1,2.9-0.3,3.3-0.3l7.3,1.8l2.7-2l6.9,4.2h7.6l3.6-0.4l3,1.9L52.2,495.1z"/>
					<polygon class="st2" points="58.3,503.1 17.9,499.5 17.6,502.3 58,505.8 					"/>
					<polygon class="st2" points="58.3,520.5 17.9,516.9 17.6,519.7 58,523.2 					"/>
					<polygon class="st2" points="58.3,511.8 17.9,508.2 17.6,511 58,514.5 					"/>
					<polygon class="st2" points="40,527.4 17.8,525.5 17.5,528.2 39.7,530.2 					"/>
				</g>
			</g>
		</g>
	</g>
	<g>
		<path class="st0" d="M60.2,133.7v-1.2h9v1.2h-3.8v11.2h-1.4v-11.2H60.2z"/>
		<path class="st0" d="M72.1,144.9h-1.4V132h1.4v4.4c1-0.5,1.9-0.7,2.8-0.7c1.2,0,2,0.3,2.4,1s0.6,1.8,0.6,3.5v4.8h-1.4v-4.7
			c0-1.2-0.1-2.1-0.4-2.6c-0.2-0.5-0.8-0.7-1.6-0.7c-0.8,0-1.5,0.1-2.2,0.4l-0.3,0.1V144.9z"/>
		<path class="st0" d="M86.5,143.8l0.5-0.1l0,1.1c-1.4,0.2-2.5,0.3-3.5,0.3c-1.3,0-2.2-0.4-2.8-1.1c-0.5-0.7-0.8-1.9-0.8-3.5
			c0-3.2,1.3-4.7,3.8-4.7c1.2,0,2.1,0.3,2.7,1s0.9,1.7,0.9,3.2l-0.1,1h-5.9c0,1,0.2,1.7,0.5,2.2c0.4,0.5,1,0.7,1.9,0.7
			S85.6,143.9,86.5,143.8z M86.1,139.9c0-1.1-0.2-1.9-0.5-2.3s-0.9-0.7-1.7-0.7s-1.4,0.2-1.8,0.7c-0.4,0.5-0.6,1.2-0.6,2.3H86.1z"/>
		<path class="st0" d="M96.3,137c-1.3,0-2,0.5-2,1.4c0,0.4,0.1,0.7,0.4,0.9s1,0.4,2.1,0.5c1.1,0.2,1.8,0.4,2.3,0.8
			c0.4,0.3,0.7,1,0.7,1.9s-0.3,1.6-0.9,2c-0.6,0.4-1.5,0.6-2.6,0.6c-0.7,0-1.6-0.1-2.6-0.3l-0.5-0.1l0.1-1.2
			c1.4,0.2,2.4,0.3,3.1,0.3c0.7,0,1.2-0.1,1.6-0.3c0.4-0.2,0.5-0.6,0.5-1.1c0-0.5-0.2-0.9-0.5-1.1c-0.3-0.2-1-0.4-2.1-0.5
			c-1.1-0.2-1.8-0.4-2.2-0.7c-0.4-0.3-0.7-0.9-0.7-1.8c0-0.9,0.3-1.5,0.9-1.9s1.4-0.6,2.3-0.6c0.7,0,1.6,0.1,2.8,0.3l0.5,0.1l0,1.2
			C98.1,137,97.1,137,96.3,137z"/>
		<path class="st0" d="M106.5,137.1h-2.9v4.3c0,1,0.1,1.7,0.2,2s0.5,0.5,1.1,0.5l1.6-0.1l0.1,1.1c-0.8,0.1-1.4,0.2-1.8,0.2
			c-0.9,0-1.6-0.2-1.9-0.7c-0.4-0.5-0.5-1.3-0.5-2.6v-4.7H101v-1.2h1.3v-2.8h1.3v2.8h2.9V137.1z"/>
		<path class="st0" d="M107.8,140.4c0-1.6,0.3-2.8,0.9-3.6c0.6-0.7,1.6-1.1,3-1.1c1.4,0,2.4,0.4,3,1.1c0.6,0.7,0.9,1.9,0.9,3.6
			c0,1.6-0.3,2.8-0.8,3.6s-1.6,1.1-3,1.1c-1.5,0-2.5-0.4-3-1.1C108,143.2,107.8,142.1,107.8,140.4z M109.2,140.4
			c0,1.3,0.2,2.2,0.5,2.8c0.3,0.5,1,0.8,2,0.8c1,0,1.7-0.3,2-0.8c0.3-0.5,0.5-1.4,0.5-2.8c0-1.3-0.2-2.2-0.5-2.7s-1-0.7-1.9-0.7
			c-0.9,0-1.6,0.2-1.9,0.7S109.2,139.1,109.2,140.4z"/>
		<path class="st0" d="M117.7,144.9v-9h1.3v1.2c1-0.7,2.1-1.2,3.3-1.4v1.4c-0.5,0.1-1,0.2-1.6,0.5c-0.5,0.2-1,0.4-1.3,0.5l-0.5,0.2
			v6.6H117.7z"/>
		<path class="st0" d="M130.3,138.6v4.6c0,0.4,0.4,0.7,1,0.8l-0.1,1.1c-0.9,0-1.7-0.2-2.1-0.7c-1.1,0.5-2.2,0.7-3.2,0.7
			c-0.8,0-1.5-0.2-1.9-0.7c-0.4-0.5-0.6-1.1-0.6-2s0.2-1.5,0.7-1.9c0.4-0.4,1.1-0.7,2.1-0.8l2.8-0.3v-0.8c0-0.6-0.1-1-0.4-1.3
			c-0.3-0.3-0.6-0.4-1.1-0.4c-1,0-2,0.1-3,0.2l-0.6,0.1l-0.1-1c1.3-0.3,2.5-0.4,3.5-0.4s1.8,0.2,2.2,0.7
			C130,136.9,130.3,137.6,130.3,138.6z M124.7,142.3c0,1.1,0.5,1.7,1.4,1.7c0.8,0,1.6-0.1,2.4-0.4l0.4-0.1v-3l-2.7,0.3
			c-0.5,0-0.9,0.2-1.2,0.5S124.7,141.8,124.7,142.3z"/>
		<path class="st0" d="M136.4,149.2c-1.4,0-2.4-0.2-3-0.6c-0.6-0.4-0.9-1.1-0.9-2.1c0-0.5,0.1-0.9,0.3-1.2c0.2-0.3,0.6-0.7,1.1-1
			c-0.3-0.2-0.5-0.6-0.5-1.2c0-0.2,0.1-0.6,0.5-1.1l0.2-0.3c-0.9-0.4-1.4-1.3-1.4-2.7c0-2.1,1.1-3.1,3.4-3.1c0.6,0,1.1,0.1,1.6,0.2
			l0.3,0.1l2.7-0.1v1.2l-1.7,0c0.4,0.4,0.6,1,0.6,1.8c0,1.1-0.3,1.9-0.8,2.4c-0.6,0.5-1.4,0.7-2.6,0.7c-0.3,0-0.6,0-0.9-0.1
			c-0.2,0.5-0.3,0.9-0.3,1c0,0.4,0.1,0.6,0.3,0.7c0.2,0.1,0.9,0.1,2.1,0.1c1.2,0,2,0.2,2.5,0.5c0.5,0.4,0.8,1.1,0.8,2.1
			C140.4,148.2,139.1,149.2,136.4,149.2z M133.9,146.3c0,0.6,0.2,1.1,0.5,1.3c0.4,0.2,1,0.4,2,0.4s1.6-0.1,2.1-0.4
			c0.4-0.3,0.6-0.7,0.6-1.3s-0.1-1-0.4-1.2c-0.3-0.2-0.9-0.3-1.8-0.3l-1.9-0.1c-0.4,0.3-0.7,0.5-0.8,0.8
			C133.9,145.7,133.9,146,133.9,146.3z M134,138.8c0,0.7,0.2,1.2,0.5,1.5s0.8,0.5,1.6,0.5c0.7,0,1.3-0.2,1.6-0.5
			c0.3-0.3,0.5-0.8,0.5-1.5c0-0.7-0.2-1.2-0.5-1.5c-0.3-0.3-0.8-0.5-1.6-0.5c-0.7,0-1.3,0.2-1.6,0.5S134,138.1,134,138.8z"/>
		<path class="st0" d="M148.3,143.8l0.5-0.1l0,1.1c-1.4,0.2-2.5,0.3-3.5,0.3c-1.3,0-2.2-0.4-2.8-1.1c-0.5-0.7-0.8-1.9-0.8-3.5
			c0-3.2,1.3-4.7,3.8-4.7c1.2,0,2.1,0.3,2.7,1s0.9,1.7,0.9,3.2l-0.1,1h-5.9c0,1,0.2,1.7,0.5,2.2c0.4,0.5,1,0.7,1.9,0.7
			S147.4,143.9,148.3,143.8z M147.8,139.9c0-1.1-0.2-1.9-0.5-2.3s-0.9-0.7-1.7-0.7s-1.4,0.2-1.8,0.7c-0.4,0.5-0.6,1.2-0.6,2.3H147.8
			z"/>
		<path class="st0" d="M156.6,144.9h-1.4v-9h1.3v0.6c1-0.5,1.9-0.8,2.8-0.8c1.2,0,2,0.3,2.4,1s0.6,1.8,0.6,3.5v4.8h-1.3v-4.7
			c0-1.2-0.1-2.1-0.4-2.6s-0.8-0.7-1.6-0.7c-0.4,0-0.8,0.1-1.2,0.2c-0.4,0.1-0.8,0.2-1,0.3l-0.3,0.2V144.9z"/>
		<path class="st0" d="M164.5,140.4c0-1.6,0.3-2.8,0.9-3.6c0.6-0.7,1.6-1.1,3-1.1c1.4,0,2.4,0.4,3,1.1c0.6,0.7,0.9,1.9,0.9,3.6
			c0,1.6-0.3,2.8-0.8,3.6s-1.6,1.1-3,1.1c-1.5,0-2.5-0.4-3-1.1C164.8,143.2,164.5,142.1,164.5,140.4z M165.9,140.4
			c0,1.3,0.2,2.2,0.5,2.8c0.3,0.5,1,0.8,2,0.8c1,0,1.7-0.3,2-0.8c0.3-0.5,0.5-1.4,0.5-2.8c0-1.3-0.2-2.2-0.5-2.7s-1-0.7-1.9-0.7
			c-0.9,0-1.6,0.2-1.9,0.7S165.9,139.1,165.9,140.4z"/>
		<path class="st0" d="M181.3,132v12.9H180v-0.6c-0.9,0.5-1.8,0.8-2.7,0.8c-0.5,0-0.9-0.1-1.3-0.2c-0.4-0.1-0.7-0.3-1-0.6
			c-0.6-0.6-1-1.8-1-3.6s0.3-3,0.9-3.8c0.6-0.8,1.5-1.2,2.9-1.2c0.7,0,1.4,0.1,2.2,0.2v-4H181.3z M176.6,143.8
			c0.2,0.1,0.5,0.1,0.8,0.1c0.3,0,0.7-0.1,1.2-0.2c0.4-0.1,0.8-0.2,1-0.3l0.4-0.2v-6.1c-0.8-0.1-1.5-0.2-2.1-0.2
			c-0.9,0-1.5,0.3-1.9,0.9c-0.4,0.6-0.5,1.5-0.5,2.7c0,1.4,0.2,2.3,0.6,2.8C176.2,143.5,176.4,143.7,176.6,143.8z"/>
		<path class="st0" d="M190,143.8l0.5-0.1l0,1.1c-1.4,0.2-2.5,0.3-3.5,0.3c-1.3,0-2.2-0.4-2.8-1.1c-0.5-0.7-0.8-1.9-0.8-3.5
			c0-3.2,1.3-4.7,3.8-4.7c1.2,0,2.1,0.3,2.7,1s0.9,1.7,0.9,3.2l-0.1,1h-5.9c0,1,0.2,1.7,0.5,2.2c0.4,0.5,1,0.7,1.9,0.7
			S189.1,143.9,190,143.8z M189.5,139.9c0-1.1-0.2-1.9-0.5-2.3s-0.9-0.7-1.7-0.7s-1.4,0.2-1.8,0.7c-0.4,0.5-0.6,1.2-0.6,2.3H189.5z"
			/>
		<path class="st0" d="M198.7,137.1v7.8h-1.4v-7.8h-1.1v-1.2h1.1v-0.8c0-1.3,0.2-2.1,0.5-2.6c0.4-0.5,1-0.7,1.9-0.7l1.8,0.1l0,1.1
			c-0.7,0-1.2,0-1.7,0s-0.8,0.1-0.9,0.4c-0.2,0.3-0.3,0.8-0.3,1.7v0.8h2.6v1.2H198.7z"/>
		<path class="st0" d="M202.4,140.4c0-1.6,0.3-2.8,0.9-3.6c0.6-0.7,1.6-1.1,3-1.1c1.4,0,2.4,0.4,3,1.1c0.6,0.7,0.9,1.9,0.9,3.6
			c0,1.6-0.3,2.8-0.8,3.6s-1.6,1.1-3,1.1c-1.5,0-2.5-0.4-3-1.1C202.6,143.2,202.4,142.1,202.4,140.4z M203.7,140.4
			c0,1.3,0.2,2.2,0.5,2.8c0.3,0.5,1,0.8,2,0.8c1,0,1.7-0.3,2-0.8c0.3-0.5,0.5-1.4,0.5-2.8c0-1.3-0.2-2.2-0.5-2.7s-1-0.7-1.9-0.7
			c-0.9,0-1.6,0.2-1.9,0.7S203.7,139.1,203.7,140.4z"/>
		<path class="st0" d="M212.3,144.9v-9h1.3v1.2c1-0.7,2.1-1.2,3.3-1.4v1.4c-0.5,0.1-1,0.2-1.6,0.5c-0.5,0.2-1,0.4-1.3,0.5l-0.5,0.2
			v6.6H212.3z"/>
		<path class="st0" d="M227.1,137.1h-2.9v4.3c0,1,0.1,1.7,0.2,2s0.5,0.5,1.1,0.5l1.6-0.1l0.1,1.1c-0.8,0.1-1.4,0.2-1.8,0.2
			c-0.9,0-1.6-0.2-1.9-0.7c-0.4-0.5-0.5-1.3-0.5-2.6v-4.7h-1.3v-1.2h1.3v-2.8h1.3v2.8h2.9V137.1z"/>
		<path class="st0" d="M230.1,144.9h-1.4V132h1.4v4.4c1-0.5,1.9-0.7,2.8-0.7c1.2,0,2,0.3,2.4,1s0.6,1.8,0.6,3.5v4.8h-1.4v-4.7
			c0-1.2-0.1-2.1-0.4-2.6c-0.2-0.5-0.8-0.7-1.6-0.7c-0.8,0-1.5,0.1-2.2,0.4l-0.3,0.1V144.9z"/>
		<path class="st0" d="M244.6,143.8l0.5-0.1l0,1.1c-1.4,0.2-2.5,0.3-3.5,0.3c-1.3,0-2.2-0.4-2.8-1.1c-0.5-0.7-0.8-1.9-0.8-3.5
			c0-3.2,1.3-4.7,3.8-4.7c1.2,0,2.1,0.3,2.7,1s0.9,1.7,0.9,3.2l-0.1,1h-5.9c0,1,0.2,1.7,0.5,2.2c0.4,0.5,1,0.7,1.9,0.7
			S243.6,143.9,244.6,143.8z M244.1,139.9c0-1.1-0.2-1.9-0.5-2.3s-0.9-0.7-1.7-0.7s-1.4,0.2-1.8,0.7c-0.4,0.5-0.6,1.2-0.6,2.3H244.1
			z"/>
		<path class="st0" d="M250.5,146.2V145c0.9,0,1.4-0.1,1.7-0.3s0.4-0.8,0.4-1.6v-10.5h1.4l0,10.7c0,1-0.2,1.7-0.5,2.2
			c-0.3,0.4-0.8,0.6-1.6,0.7C251.5,146.2,251,146.2,250.5,146.2z"/>
		<path class="st0" d="M256.2,140.4c0-1.6,0.3-2.8,0.9-3.6c0.6-0.7,1.6-1.1,3-1.1c1.4,0,2.4,0.4,3,1.1c0.6,0.7,0.9,1.9,0.9,3.6
			c0,1.6-0.3,2.8-0.8,3.6s-1.6,1.1-3,1.1c-1.5,0-2.5-0.4-3-1.1C256.5,143.2,256.2,142.1,256.2,140.4z M257.6,140.4
			c0,1.3,0.2,2.2,0.5,2.8c0.3,0.5,1,0.8,2,0.8c1,0,1.7-0.3,2-0.8c0.3-0.5,0.5-1.4,0.5-2.8c0-1.3-0.2-2.2-0.5-2.7s-1-0.7-1.9-0.7
			c-0.9,0-1.6,0.2-1.9,0.7S257.6,139.1,257.6,140.4z"/>
		<path class="st0" d="M265.1,135.9h1.3l2.2,7.8h0.6l2.3-7.8h1.4l-3.7,13h-1.4l1.2-4h-1.3L265.1,135.9z"/>
		<path class="st0" d="M277.3,137c-1.3,0-2,0.5-2,1.4c0,0.4,0.1,0.7,0.4,0.9s1,0.4,2.1,0.5c1.1,0.2,1.8,0.4,2.3,0.8
			c0.4,0.3,0.7,1,0.7,1.9s-0.3,1.6-0.9,2c-0.6,0.4-1.5,0.6-2.6,0.6c-0.7,0-1.6-0.1-2.6-0.3l-0.5-0.1l0.1-1.2
			c1.4,0.2,2.4,0.3,3.1,0.3c0.7,0,1.2-0.1,1.6-0.3c0.4-0.2,0.5-0.6,0.5-1.1c0-0.5-0.2-0.9-0.5-1.1c-0.3-0.2-1-0.4-2.1-0.5
			c-1.1-0.2-1.8-0.4-2.2-0.7c-0.4-0.3-0.7-0.9-0.7-1.8c0-0.9,0.3-1.5,0.9-1.9s1.4-0.6,2.3-0.6c0.7,0,1.6,0.1,2.8,0.3l0.5,0.1l0,1.2
			C279.1,137,278.1,137,277.3,137z"/>
		<path class="st0" d="M287.5,137.1h-2.9v4.3c0,1,0.1,1.7,0.2,2s0.5,0.5,1.1,0.5l1.6-0.1l0.1,1.1c-0.8,0.1-1.4,0.2-1.8,0.2
			c-0.9,0-1.6-0.2-1.9-0.7c-0.4-0.5-0.5-1.3-0.5-2.6v-4.7H282v-1.2h1.3v-2.8h1.3v2.8h2.9V137.1z"/>
		<path class="st0" d="M289.2,144.9v-9h1.3v1.2c1-0.7,2.1-1.2,3.3-1.4v1.4c-0.5,0.1-1,0.2-1.6,0.5c-0.5,0.2-1,0.4-1.3,0.5l-0.5,0.2
			v6.6H289.2z"/>
		<path class="st0" d="M301.3,143.8l0.5-0.1l0,1.1c-1.4,0.2-2.5,0.3-3.5,0.3c-1.3,0-2.2-0.4-2.8-1.1c-0.5-0.7-0.8-1.9-0.8-3.5
			c0-3.2,1.3-4.7,3.8-4.7c1.2,0,2.1,0.3,2.7,1s0.9,1.7,0.9,3.2l-0.1,1h-5.9c0,1,0.2,1.7,0.5,2.2c0.4,0.5,1,0.7,1.9,0.7
			S300.4,143.9,301.3,143.8z M300.9,139.9c0-1.1-0.2-1.9-0.5-2.3s-0.9-0.7-1.7-0.7s-1.4,0.2-1.8,0.7c-0.4,0.5-0.6,1.2-0.6,2.3H300.9
			z"/>
		<path class="st0" d="M310.7,138.6v4.6c0,0.4,0.4,0.7,1,0.8l-0.1,1.1c-0.9,0-1.7-0.2-2.1-0.7c-1.1,0.5-2.2,0.7-3.2,0.7
			c-0.8,0-1.5-0.2-1.9-0.7c-0.4-0.5-0.6-1.1-0.6-2s0.2-1.5,0.7-1.9c0.4-0.4,1.1-0.7,2.1-0.8l2.8-0.3v-0.8c0-0.6-0.1-1-0.4-1.3
			c-0.3-0.3-0.6-0.4-1.1-0.4c-1,0-2,0.1-3,0.2l-0.6,0.1l-0.1-1c1.3-0.3,2.5-0.4,3.5-0.4s1.8,0.2,2.2,0.7
			C310.4,136.9,310.7,137.6,310.7,138.6z M305.1,142.3c0,1.1,0.5,1.7,1.4,1.7c0.8,0,1.6-0.1,2.4-0.4l0.4-0.1v-3l-2.7,0.3
			c-0.5,0-0.9,0.2-1.2,0.5S305.1,141.8,305.1,142.3z"/>
		<path class="st0" d="M314.7,144.9h-1.4v-9h1.3v0.6c0.9-0.5,1.8-0.8,2.6-0.8c1.1,0,1.9,0.3,2.3,0.9c0.4-0.2,0.9-0.5,1.5-0.6
			c0.6-0.2,1.2-0.3,1.7-0.3c1.2,0,2,0.3,2.4,1c0.4,0.6,0.6,1.8,0.6,3.5v4.8h-1.3v-4.7c0-1.2-0.1-2.1-0.4-2.6s-0.8-0.7-1.5-0.7
			c-0.4,0-0.8,0.1-1.2,0.2s-0.7,0.2-1,0.3l-0.3,0.2c0.2,0.4,0.2,1.3,0.2,2.6v4.7H319v-4.6c0-1.3-0.1-2.2-0.4-2.6
			c-0.2-0.5-0.7-0.7-1.5-0.7c-0.4,0-0.8,0.1-1.2,0.2s-0.7,0.2-0.9,0.3l-0.3,0.2V144.9z"/>
		<path class="st0" d="M332.3,148.9v-13h1.3v0.6c0.9-0.6,1.8-0.8,2.7-0.8c1.1,0,2,0.4,2.5,1.1c0.5,0.7,0.8,1.9,0.8,3.6
			s-0.3,2.9-0.9,3.6c-0.6,0.7-1.6,1.1-3,1.1c-0.7,0-1.4-0.1-2-0.2v4H332.3z M336.2,137c-0.4,0-0.7,0.1-1.2,0.2
			c-0.4,0.1-0.7,0.2-1,0.4l-0.3,0.2v6.1c0.9,0.1,1.5,0.2,1.9,0.2c1,0,1.7-0.3,2-0.8c0.4-0.6,0.6-1.5,0.6-2.7s-0.2-2.1-0.5-2.7
			C337.4,137.2,336.9,137,336.2,137z"/>
		<path class="st0" d="M341.8,144.9v-9h1.3v1.2c1-0.7,2.1-1.2,3.3-1.4v1.4c-0.5,0.1-1,0.2-1.6,0.5c-0.5,0.2-1,0.4-1.3,0.5l-0.5,0.2
			v6.6H341.8z"/>
		<path class="st0" d="M347.5,140.4c0-1.6,0.3-2.8,0.9-3.6c0.6-0.7,1.6-1.1,3-1.1c1.4,0,2.4,0.4,3,1.1c0.6,0.7,0.9,1.9,0.9,3.6
			c0,1.6-0.3,2.8-0.8,3.6s-1.6,1.1-3,1.1c-1.5,0-2.5-0.4-3-1.1C347.8,143.2,347.5,142.1,347.5,140.4z M348.9,140.4
			c0,1.3,0.2,2.2,0.5,2.8c0.3,0.5,1,0.8,2,0.8c1,0,1.7-0.3,2-0.8c0.3-0.5,0.5-1.4,0.5-2.8c0-1.3-0.2-2.2-0.5-2.7s-1-0.7-1.9-0.7
			c-0.9,0-1.6,0.2-1.9,0.7S348.9,139.1,348.9,140.4z"/>
		<path class="st0" d="M362,137.1h-2.9v4.3c0,1,0.1,1.7,0.2,2s0.5,0.5,1.1,0.5l1.6-0.1l0.1,1.1c-0.8,0.1-1.4,0.2-1.8,0.2
			c-0.9,0-1.6-0.2-1.9-0.7c-0.4-0.5-0.5-1.3-0.5-2.6v-4.7h-1.3v-1.2h1.3v-2.8h1.3v2.8h2.9V137.1z"/>
		<path class="st0" d="M363.2,140.4c0-1.6,0.3-2.8,0.9-3.6c0.6-0.7,1.6-1.1,3-1.1c1.4,0,2.4,0.4,3,1.1c0.6,0.7,0.9,1.9,0.9,3.6
			c0,1.6-0.3,2.8-0.8,3.6s-1.6,1.1-3,1.1c-1.5,0-2.5-0.4-3-1.1C363.5,143.2,363.2,142.1,363.2,140.4z M364.6,140.4
			c0,1.3,0.2,2.2,0.5,2.8c0.3,0.5,1,0.8,2,0.8c1,0,1.7-0.3,2-0.8c0.3-0.5,0.5-1.4,0.5-2.8c0-1.3-0.2-2.2-0.5-2.7s-1-0.7-1.9-0.7
			c-0.9,0-1.6,0.2-1.9,0.7S364.6,139.1,364.6,140.4z"/>
		<path class="st0" d="M376.5,135.7c0.4,0,1.1,0.1,2,0.2l0.4,0.1l-0.1,1.1c-1-0.1-1.7-0.2-2.1-0.2c-1,0-1.7,0.2-2.1,0.7
			c-0.4,0.5-0.5,1.4-0.5,2.7c0,1.3,0.2,2.2,0.5,2.7c0.3,0.5,1.1,0.8,2.1,0.8l2.1-0.2l0.1,1.1c-1.1,0.2-2,0.3-2.5,0.3
			c-1.4,0-2.4-0.4-2.9-1.1c-0.5-0.7-0.8-1.9-0.8-3.6s0.3-2.9,0.9-3.6C374.2,136.1,375.1,135.7,376.5,135.7z"/>
		<path class="st0" d="M380.5,140.4c0-1.6,0.3-2.8,0.9-3.6c0.6-0.7,1.6-1.1,3-1.1c1.4,0,2.4,0.4,3,1.1c0.6,0.7,0.9,1.9,0.9,3.6
			c0,1.6-0.3,2.8-0.8,3.6s-1.6,1.1-3,1.1c-1.5,0-2.5-0.4-3-1.1C380.7,143.2,380.5,142.1,380.5,140.4z M381.9,140.4
			c0,1.3,0.2,2.2,0.5,2.8c0.3,0.5,1,0.8,2,0.8c1,0,1.7-0.3,2-0.8c0.3-0.5,0.5-1.4,0.5-2.8c0-1.3-0.2-2.2-0.5-2.7s-1-0.7-1.9-0.7
			c-0.9,0-1.6,0.2-1.9,0.7S381.9,139.1,381.9,140.4z"/>
		<path class="st0" d="M390.5,144.9V132h1.3v12.9H390.5z"/>
	</g>
	<g>
		<path class="st1" d="M73.2,70.1c-4.8,0-7.2,1.8-7.2,5.4c0,2,0.6,3.4,1.7,4.2c1.1,0.8,3.3,1.5,6.7,2.3c3.4,0.8,5.8,1.7,7.2,2.9
			s2.1,3.2,2.1,5.9c0,6.8-3.5,10.2-10.6,10.2c-2.3,0-5.3-0.3-8.8-0.8l-1.7-0.2l0.4-3.1c4.4,0.6,7.7,0.9,9.9,0.9
			c4.7,0,7.1-2.2,7.1-6.7c0-1.8-0.5-3.1-1.6-3.9c-1-0.8-3-1.4-5.8-2c-3.7-0.8-6.4-1.8-8-3.1c-1.6-1.3-2.4-3.4-2.4-6.4
			c0-6,3.6-8.9,10.7-8.9c2.3,0,5.1,0.2,8.4,0.7l1.6,0.2l-0.3,3.1C78.3,70.4,75.1,70.1,73.2,70.1z"/>
		<path class="st1" d="M101.5,79.7h-7.6v11.5c0,2.8,0.2,4.6,0.6,5.4c0.4,0.9,1.4,1.3,2.9,1.3l4.3-0.3l0.2,3
			c-2.1,0.4-3.8,0.5-4.9,0.5c-2.5,0-4.2-0.6-5.2-1.8c-1-1.2-1.4-3.5-1.4-7V79.7h-3.4v-3.1h3.4v-7.3h3.6v7.3h7.6V79.7z"/>
		<path class="st1" d="M104.8,88.6c0-4.4,0.8-7.6,2.4-9.5c1.6-2,4.2-2.9,7.9-2.9s6.4,1,7.9,2.9c1.6,2,2.3,5.1,2.3,9.5
			c0,4.4-0.7,7.6-2.2,9.6c-1.5,2-4.2,3-8.1,3c-3.9,0-6.6-1-8.1-3C105.6,96.1,104.8,92.9,104.8,88.6z M108.5,88.5
			c0,3.5,0.4,6,1.3,7.4c0.8,1.4,2.6,2.1,5.3,2.1s4.5-0.7,5.3-2.1c0.8-1.4,1.2-3.8,1.2-7.4s-0.5-5.9-1.4-7.3c-0.9-1.3-2.6-2-5.2-2
			s-4.2,0.7-5.2,2C109,82.6,108.5,85,108.5,88.5z"/>
		<path class="st1" d="M131.2,100.6v-24h3.6v3.3c2.8-1.9,5.7-3.2,8.8-3.8v3.6c-1.3,0.3-2.7,0.7-4.2,1.2s-2.6,1-3.3,1.4l-1.2,0.6
			v17.6H131.2z"/>
		<path class="st1" d="M164.8,83.9v12.3c0.1,1.2,1,1.9,2.8,2.1l-0.1,2.8c-2.5,0-4.4-0.6-5.7-1.9c-2.9,1.3-5.8,1.9-8.6,1.9
			c-2.2,0-3.9-0.6-5-1.9c-1.2-1.2-1.7-3-1.7-5.4s0.6-4.1,1.8-5.2c1.2-1.1,3-1.8,5.6-2l7.5-0.7v-2.1c0-1.6-0.4-2.8-1.1-3.5
			c-0.7-0.7-1.7-1.1-2.9-1.1c-2.6,0-5.2,0.2-8,0.5l-1.5,0.1l-0.1-2.7c3.5-0.7,6.6-1.1,9.4-1.1c2.7,0,4.7,0.6,5.9,1.9
			C164.2,79.2,164.8,81.2,164.8,83.9z M150,93.6c0,2.9,1.2,4.4,3.6,4.4c2.2,0,4.3-0.4,6.4-1.1l1.1-0.4v-7.9l-7.1,0.7
			c-1.4,0.1-2.5,0.5-3.1,1.2C150.3,91.3,150,92.3,150,93.6z"/>
		<path class="st1" d="M181.2,111.9c-3.8,0-6.5-0.5-8-1.6c-1.5-1-2.3-2.9-2.3-5.7c0-1.3,0.3-2.4,0.9-3.2c0.6-0.8,1.6-1.7,2.9-2.8
			c-0.9-0.6-1.3-1.7-1.3-3.3c0-0.5,0.4-1.6,1.2-3l0.4-0.8c-2.5-1.2-3.8-3.6-3.8-7.2c0-5.5,3-8.2,9-8.2c1.5,0,3,0.2,4.3,0.5l0.7,0.1
			l7.1-0.2v3.1l-4.6-0.1c1.1,1.1,1.6,2.7,1.6,4.8c0,3-0.7,5.1-2.2,6.3s-3.8,1.8-7,1.8c-0.9,0-1.6-0.1-2.4-0.2
			c-0.6,1.4-0.9,2.3-0.9,2.7c0,1,0.3,1.6,0.9,1.8c0.6,0.2,2.4,0.4,5.5,0.4c3.1,0,5.3,0.5,6.6,1.4c1.3,1,2,2.8,2,5.6
			C191.8,109.3,188.3,111.9,181.2,111.9z M174.4,104.4c0,1.7,0.5,2.9,1.4,3.5c0.9,0.7,2.7,1,5.2,1s4.4-0.4,5.5-1.1
			c1.1-0.7,1.7-1.9,1.7-3.5c0-1.6-0.4-2.7-1.2-3.2c-0.8-0.5-2.4-0.7-4.7-0.7l-5.2-0.2c-1.1,0.8-1.8,1.4-2.1,2
			C174.6,102.7,174.4,103.5,174.4,104.4z M174.7,84.3c0,1.9,0.4,3.2,1.3,4c0.8,0.8,2.2,1.2,4.2,1.2c2,0,3.3-0.4,4.2-1.2
			c0.8-0.8,1.2-2.2,1.2-4.1c0-1.9-0.4-3.3-1.2-4.1s-2.2-1.2-4.2-1.2c-2,0-3.4,0.4-4.2,1.2C175.1,81.1,174.7,82.4,174.7,84.3z"/>
		<path class="st1" d="M212.9,97.6l1.4-0.1l0.1,2.8c-3.6,0.5-6.8,0.8-9.4,0.8c-3.5,0-5.9-1-7.3-3c-1.4-2-2.2-5.1-2.2-9.3
			c0-8.4,3.3-12.6,10-12.6c3.2,0,5.6,0.9,7.2,2.7c1.6,1.8,2.4,4.6,2.4,8.5l-0.2,2.7h-15.8c0,2.7,0.5,4.6,1.4,5.9
			c1,1.3,2.6,1.9,5,1.9C208,97.9,210.4,97.8,212.9,97.6z M211.6,87.2c0-2.9-0.5-5-1.4-6.2c-0.9-1.2-2.5-1.8-4.6-1.8
			c-2.1,0-3.7,0.6-4.8,1.9c-1.1,1.3-1.6,3.3-1.7,6.1H211.6z"/>
		<path class="st1" d="M232,100.6V67.4h6.9l12.7,30h1v-30h3.6v33.2h-6.8l-12.9-30h-0.9v30H232z"/>
		<path class="st1" d="M262.5,88.6c0-4.4,0.8-7.6,2.4-9.5c1.6-2,4.2-2.9,7.9-2.9c3.7,0,6.4,1,7.9,2.9c1.6,2,2.3,5.1,2.3,9.5
			c0,4.4-0.7,7.6-2.2,9.6c-1.5,2-4.2,3-8.1,3s-6.6-1-8.1-3C263.2,96.1,262.5,92.9,262.5,88.6z M266.2,88.5c0,3.5,0.4,6,1.3,7.4
			c0.8,1.4,2.6,2.1,5.3,2.1s4.5-0.7,5.3-2.1c0.8-1.4,1.2-3.8,1.2-7.4s-0.5-5.9-1.4-7.3c-0.9-1.3-2.6-2-5.2-2c-2.5,0-4.2,0.7-5.2,2
			C266.7,82.6,266.2,85,266.2,88.5z"/>
		<path class="st1" d="M307.3,66.1v34.5h-3.6V99c-2.5,1.4-4.9,2.1-7.3,2.1c-1.3,0-2.4-0.2-3.4-0.5s-1.9-0.9-2.7-1.7
			c-1.7-1.7-2.6-4.9-2.6-9.6c0-4.7,0.8-8,2.3-10.1c1.6-2.1,4.1-3.1,7.7-3.1c1.9,0,3.8,0.2,5.9,0.6V66.1H307.3z M294.9,97.5
			c0.6,0.2,1.3,0.3,2.2,0.3s1.9-0.2,3.1-0.5c1.1-0.3,2-0.6,2.7-0.9l1-0.4V79.8c-2-0.4-4-0.6-5.7-0.6c-2.4,0-4.1,0.8-5.1,2.3
			c-1,1.6-1.4,4-1.4,7.2c0,3.7,0.6,6.2,1.7,7.5C293.7,96.9,294.3,97.3,294.9,97.5z"/>
		<path class="st1" d="M330.6,97.6l1.4-0.1l0.1,2.8c-3.6,0.5-6.8,0.8-9.4,0.8c-3.5,0-5.9-1-7.3-3c-1.4-2-2.2-5.1-2.2-9.3
			c0-8.4,3.3-12.6,10-12.6c3.2,0,5.6,0.9,7.2,2.7c1.6,1.8,2.4,4.6,2.4,8.5l-0.2,2.7h-15.8c0,2.7,0.5,4.6,1.4,5.9
			c1,1.3,2.6,1.9,5,1.9C325.7,97.9,328.2,97.8,330.6,97.6z M329.3,87.2c0-2.9-0.5-5-1.4-6.2c-0.9-1.2-2.5-1.8-4.6-1.8
			c-2.1,0-3.7,0.6-4.8,1.9c-1.1,1.3-1.6,3.3-1.7,6.1H329.3z"/>
	</g>
</g>
</svg>
