<?xml version="1.0" encoding="utf-8"?>
<!-- Generator: Adobe Illustrator 23.0.2, SVG Export Plug-In . SVG Version: 6.00 Build 0)  -->
<svg version="1.1" xmlns="http://www.w3.org/2000/svg" xmlns:xlink="http://www.w3.org/1999/xlink" x="0px" y="0px"
	 viewBox="0 0 882 300" style="enable-background:new 0 0 882 300;" xml:space="preserve">
<style type="text/css">
	.st0{fill:#C4C3C6;}
	.st1{fill:#FFFFFF;}
	.st2{fill-rule:evenodd;clip-rule:evenodd;}
	.st3{fill-rule:evenodd;clip-rule:evenodd;fill:#C4C3C6;}
	.st4{fill-rule:evenodd;clip-rule:evenodd;fill:#FFFFFF;}
	.st5{fill:#010101;}
	.st6{fill:none;}
	.st7{fill-rule:evenodd;clip-rule:evenodd;fill:#B1B2B7;}
	.st8{fill-rule:evenodd;clip-rule:evenodd;fill:#FDFDFD;}
	.st9{fill-rule:evenodd;clip-rule:evenodd;fill:#F9F9F9;}
</style>
<g id="Layer_4">
	<path d="M876,209H6c-3.3,0-6-2.7-6-6V6c0-3.3,2.7-6,6-6h870c3.3,0,6,2.7,6,6v197C882,206.3,879.3,209,876,209z"/>
	<g>
		<path class="st0" d="M60.2,133.7v-1.2h9v1.2h-3.8v11.2h-1.4v-11.2H60.2z"/>
		<path class="st0" d="M72.1,144.9h-1.4V132h1.4v4.4c1-0.5,1.9-0.7,2.8-0.7c1.2,0,2,0.3,2.4,1s0.6,1.8,0.6,3.5v4.8h-1.4v-4.7
			c0-1.2-0.1-2.1-0.4-2.6c-0.2-0.5-0.8-0.7-1.6-0.7c-0.8,0-1.5,0.1-2.2,0.4l-0.3,0.1V144.9z"/>
		<path class="st0" d="M86.5,143.8l0.5-0.1l0,1.1c-1.4,0.2-2.5,0.3-3.5,0.3c-1.3,0-2.2-0.4-2.8-1.1c-0.5-0.7-0.8-1.9-0.8-3.5
			c0-3.2,1.3-4.7,3.8-4.7c1.2,0,2.1,0.3,2.7,1s0.9,1.7,0.9,3.2l-0.1,1h-5.9c0,1,0.2,1.7,0.5,2.2c0.4,0.5,1,0.7,1.9,0.7
			S85.6,143.9,86.5,143.8z M86.1,139.9c0-1.1-0.2-1.9-0.5-2.3s-0.9-0.7-1.7-0.7s-1.4,0.2-1.8,0.7c-0.4,0.5-0.6,1.2-0.6,2.3H86.1z"/>
		<path class="st0" d="M92.6,135.9h1.4l2.1,7.8h0.7l2.2-7.8h1.4l-2.5,9h-2.7L92.6,135.9z"/>
		<path class="st0" d="M108.3,138.6v4.6c0,0.4,0.4,0.7,1,0.8l-0.1,1.1c-0.9,0-1.7-0.2-2.1-0.7c-1.1,0.5-2.2,0.7-3.2,0.7
			c-0.8,0-1.5-0.2-1.9-0.7c-0.4-0.5-0.6-1.1-0.6-2s0.2-1.5,0.7-1.9c0.4-0.4,1.1-0.7,2.1-0.8l2.8-0.3v-0.8c0-0.6-0.1-1-0.4-1.3
			c-0.3-0.3-0.6-0.4-1.1-0.4c-1,0-2,0.1-3,0.2l-0.6,0.1l-0.1-1c1.3-0.3,2.5-0.4,3.5-0.4s1.8,0.2,2.2,0.7
			C108.1,136.9,108.3,137.6,108.3,138.6z M102.8,142.3c0,1.1,0.5,1.7,1.4,1.7c0.8,0,1.6-0.1,2.4-0.4l0.4-0.1v-3l-2.7,0.3
			c-0.5,0-0.9,0.2-1.2,0.5S102.8,141.8,102.8,142.3z"/>
		<path class="st0" d="M111.1,144.9V132h1.4v12.9H111.1z"/>
		<path class="st0" d="M115.2,133.9v-1.6h1.4v1.6H115.2z M115.2,144.9v-9h1.4v9H115.2z"/>
		<path class="st0" d="M126,132v12.9h-1.3v-0.6c-0.9,0.5-1.8,0.8-2.7,0.8c-0.5,0-0.9-0.1-1.3-0.2c-0.4-0.1-0.7-0.3-1-0.6
			c-0.6-0.6-1-1.8-1-3.6s0.3-3,0.9-3.8c0.6-0.8,1.5-1.2,2.9-1.2c0.7,0,1.4,0.1,2.2,0.2v-4H126z M121.3,143.8
			c0.2,0.1,0.5,0.1,0.8,0.1c0.3,0,0.7-0.1,1.2-0.2c0.4-0.1,0.8-0.2,1-0.3l0.4-0.2v-6.1c-0.8-0.1-1.5-0.2-2.1-0.2
			c-0.9,0-1.5,0.3-1.9,0.9c-0.4,0.6-0.5,1.5-0.5,2.7c0,1.4,0.2,2.3,0.6,2.8C120.9,143.5,121.1,143.7,121.3,143.8z"/>
		<path class="st0" d="M135,138.6v4.6c0,0.4,0.4,0.7,1,0.8l-0.1,1.1c-0.9,0-1.7-0.2-2.1-0.7c-1.1,0.5-2.2,0.7-3.2,0.7
			c-0.8,0-1.5-0.2-1.9-0.7c-0.4-0.5-0.6-1.1-0.6-2s0.2-1.5,0.7-1.9c0.4-0.4,1.1-0.7,2.1-0.8l2.8-0.3v-0.8c0-0.6-0.1-1-0.4-1.3
			c-0.3-0.3-0.6-0.4-1.1-0.4c-1,0-2,0.1-3,0.2l-0.6,0.1l-0.1-1c1.3-0.3,2.5-0.4,3.5-0.4s1.8,0.2,2.2,0.7
			C134.8,136.9,135,137.6,135,138.6z M129.4,142.3c0,1.1,0.5,1.7,1.4,1.7c0.8,0,1.6-0.1,2.4-0.4l0.4-0.1v-3l-2.7,0.3
			c-0.5,0-0.9,0.2-1.2,0.5S129.4,141.8,129.4,142.3z"/>
		<path class="st0" d="M142.3,137.1h-2.9v4.3c0,1,0.1,1.7,0.2,2s0.5,0.5,1.1,0.5l1.6-0.1l0.1,1.1c-0.8,0.1-1.4,0.2-1.8,0.2
			c-0.9,0-1.6-0.2-1.9-0.7c-0.4-0.5-0.5-1.3-0.5-2.6v-4.7h-1.3v-1.2h1.3v-2.8h1.3v2.8h2.9V137.1z"/>
		<path class="st0" d="M143.6,140.4c0-1.6,0.3-2.8,0.9-3.6c0.6-0.7,1.6-1.1,3-1.1c1.4,0,2.4,0.4,3,1.1c0.6,0.7,0.9,1.9,0.9,3.6
			c0,1.6-0.3,2.8-0.8,3.6s-1.6,1.1-3,1.1c-1.5,0-2.5-0.4-3-1.1C143.8,143.2,143.6,142.1,143.6,140.4z M145,140.4
			c0,1.3,0.2,2.2,0.5,2.8c0.3,0.5,1,0.8,2,0.8c1,0,1.7-0.3,2-0.8c0.3-0.5,0.5-1.4,0.5-2.8c0-1.3-0.2-2.2-0.5-2.7s-1-0.7-1.9-0.7
			c-0.9,0-1.6,0.2-1.9,0.7S145,139.1,145,140.4z"/>
		<path class="st0" d="M153.5,144.9v-9h1.3v1.2c1-0.7,2.1-1.2,3.3-1.4v1.4c-0.5,0.1-1,0.2-1.6,0.5c-0.5,0.2-1,0.4-1.3,0.5l-0.5,0.2
			v6.6H153.5z"/>
		<path class="st0" d="M165,144.9h-1.4v-9h1.3v0.6c1-0.5,1.9-0.8,2.8-0.8c1.2,0,2,0.3,2.4,1s0.6,1.8,0.6,3.5v4.8h-1.3v-4.7
			c0-1.2-0.1-2.1-0.4-2.6s-0.8-0.7-1.6-0.7c-0.4,0-0.8,0.1-1.2,0.2c-0.4,0.1-0.8,0.2-1,0.3l-0.3,0.2V144.9z"/>
		<path class="st0" d="M172.9,140.4c0-1.6,0.3-2.8,0.9-3.6c0.6-0.7,1.6-1.1,3-1.1c1.4,0,2.4,0.4,3,1.1c0.6,0.7,0.9,1.9,0.9,3.6
			c0,1.6-0.3,2.8-0.8,3.6s-1.6,1.1-3,1.1c-1.5,0-2.5-0.4-3-1.1C173.2,143.2,172.9,142.1,172.9,140.4z M174.3,140.4
			c0,1.3,0.2,2.2,0.5,2.8c0.3,0.5,1,0.8,2,0.8c1,0,1.7-0.3,2-0.8c0.3-0.5,0.5-1.4,0.5-2.8c0-1.3-0.2-2.2-0.5-2.7s-1-0.7-1.9-0.7
			c-0.9,0-1.6,0.2-1.9,0.7S174.3,139.1,174.3,140.4z"/>
		<path class="st0" d="M189.7,132v12.9h-1.3v-0.6c-0.9,0.5-1.8,0.8-2.7,0.8c-0.5,0-0.9-0.1-1.3-0.2c-0.4-0.1-0.7-0.3-1-0.6
			c-0.6-0.6-1-1.8-1-3.6s0.3-3,0.9-3.8c0.6-0.8,1.5-1.2,2.9-1.2c0.7,0,1.4,0.1,2.2,0.2v-4H189.7z M185.1,143.8
			c0.2,0.1,0.5,0.1,0.8,0.1c0.3,0,0.7-0.1,1.2-0.2c0.4-0.1,0.8-0.2,1-0.3l0.4-0.2v-6.1c-0.8-0.1-1.5-0.2-2.1-0.2
			c-0.9,0-1.5,0.3-1.9,0.9c-0.4,0.6-0.5,1.5-0.5,2.7c0,1.4,0.2,2.3,0.6,2.8C184.6,143.5,184.8,143.7,185.1,143.8z"/>
		<path class="st0" d="M198.5,143.8l0.5-0.1l0,1.1c-1.4,0.2-2.5,0.3-3.5,0.3c-1.3,0-2.2-0.4-2.8-1.1c-0.5-0.7-0.8-1.9-0.8-3.5
			c0-3.2,1.3-4.7,3.8-4.7c1.2,0,2.1,0.3,2.7,1s0.9,1.7,0.9,3.2l-0.1,1h-5.9c0,1,0.2,1.7,0.5,2.2c0.4,0.5,1,0.7,1.9,0.7
			S197.5,143.9,198.5,143.8z M198,139.9c0-1.1-0.2-1.9-0.5-2.3s-0.9-0.7-1.7-0.7s-1.4,0.2-1.8,0.7c-0.4,0.5-0.6,1.2-0.6,2.3H198z"/>
		<path class="st0" d="M207.1,137.1v7.8h-1.4v-7.8h-1.1v-1.2h1.1v-0.8c0-1.3,0.2-2.1,0.5-2.6c0.4-0.5,1-0.7,1.9-0.7l1.8,0.1l0,1.1
			c-0.7,0-1.2,0-1.7,0s-0.8,0.1-0.9,0.4c-0.2,0.3-0.3,0.8-0.3,1.7v0.8h2.6v1.2H207.1z"/>
		<path class="st0" d="M210.8,140.4c0-1.6,0.3-2.8,0.9-3.6c0.6-0.7,1.6-1.1,3-1.1c1.4,0,2.4,0.4,3,1.1c0.6,0.7,0.9,1.9,0.9,3.6
			c0,1.6-0.3,2.8-0.8,3.6s-1.6,1.1-3,1.1c-1.5,0-2.5-0.4-3-1.1C211.1,143.2,210.8,142.1,210.8,140.4z M212.2,140.4
			c0,1.3,0.2,2.2,0.5,2.8c0.3,0.5,1,0.8,2,0.8c1,0,1.7-0.3,2-0.8c0.3-0.5,0.5-1.4,0.5-2.8c0-1.3-0.2-2.2-0.5-2.7s-1-0.7-1.9-0.7
			c-0.9,0-1.6,0.2-1.9,0.7S212.2,139.1,212.2,140.4z"/>
		<path class="st0" d="M220.7,144.9v-9h1.3v1.2c1-0.7,2.1-1.2,3.3-1.4v1.4c-0.5,0.1-1,0.2-1.6,0.5c-0.5,0.2-1,0.4-1.3,0.5l-0.5,0.2
			v6.6H220.7z"/>
		<path class="st0" d="M235.6,137.1h-2.9v4.3c0,1,0.1,1.7,0.2,2s0.5,0.5,1.1,0.5l1.6-0.1l0.1,1.1c-0.8,0.1-1.4,0.2-1.8,0.2
			c-0.9,0-1.6-0.2-1.9-0.7c-0.4-0.5-0.5-1.3-0.5-2.6v-4.7h-1.3v-1.2h1.3v-2.8h1.3v2.8h2.9V137.1z"/>
		<path class="st0" d="M238.6,144.9h-1.4V132h1.4v4.4c1-0.5,1.9-0.7,2.8-0.7c1.2,0,2,0.3,2.4,1s0.6,1.8,0.6,3.5v4.8H243v-4.7
			c0-1.2-0.1-2.1-0.4-2.6c-0.2-0.5-0.8-0.7-1.6-0.7c-0.8,0-1.5,0.1-2.2,0.4l-0.3,0.1V144.9z"/>
		<path class="st0" d="M253,143.8l0.5-0.1l0,1.1c-1.4,0.2-2.5,0.3-3.5,0.3c-1.3,0-2.2-0.4-2.8-1.1c-0.5-0.7-0.8-1.9-0.8-3.5
			c0-3.2,1.3-4.7,3.8-4.7c1.2,0,2.1,0.3,2.7,1s0.9,1.7,0.9,3.2l-0.1,1h-5.9c0,1,0.2,1.7,0.5,2.2c0.4,0.5,1,0.7,1.9,0.7
			S252.1,143.9,253,143.8z M252.5,139.9c0-1.1-0.2-1.9-0.5-2.3s-0.9-0.7-1.7-0.7s-1.4,0.2-1.8,0.7c-0.4,0.5-0.6,1.2-0.6,2.3H252.5z"
			/>
		<path class="st0" d="M259,146.2V145c0.9,0,1.4-0.1,1.7-0.3s0.4-0.8,0.4-1.6v-10.5h1.4l0,10.7c0,1-0.2,1.7-0.5,2.2
			c-0.3,0.4-0.8,0.6-1.6,0.7C259.9,146.2,259.5,146.2,259,146.2z"/>
		<path class="st0" d="M264.6,140.4c0-1.6,0.3-2.8,0.9-3.6c0.6-0.7,1.6-1.1,3-1.1c1.4,0,2.4,0.4,3,1.1c0.6,0.7,0.9,1.9,0.9,3.6
			c0,1.6-0.3,2.8-0.8,3.6s-1.6,1.1-3,1.1c-1.5,0-2.5-0.4-3-1.1C264.9,143.2,264.6,142.1,264.6,140.4z M266,140.4
			c0,1.3,0.2,2.2,0.5,2.8c0.3,0.5,1,0.8,2,0.8c1,0,1.7-0.3,2-0.8c0.3-0.5,0.5-1.4,0.5-2.8c0-1.3-0.2-2.2-0.5-2.7s-1-0.7-1.9-0.7
			c-0.9,0-1.6,0.2-1.9,0.7S266,139.1,266,140.4z"/>
		<path class="st0" d="M273.5,135.9h1.3l2.2,7.8h0.6l2.3-7.8h1.4l-3.7,13h-1.4l1.2-4h-1.3L273.5,135.9z"/>
		<path class="st0" d="M285.8,137c-1.3,0-2,0.5-2,1.4c0,0.4,0.1,0.7,0.4,0.9s1,0.4,2.1,0.5c1.1,0.2,1.8,0.4,2.3,0.8
			c0.4,0.3,0.7,1,0.7,1.9s-0.3,1.6-0.9,2c-0.6,0.4-1.5,0.6-2.6,0.6c-0.7,0-1.6-0.1-2.6-0.3l-0.5-0.1l0.1-1.2
			c1.4,0.2,2.4,0.3,3.1,0.3c0.7,0,1.2-0.1,1.6-0.3c0.4-0.2,0.5-0.6,0.5-1.1c0-0.5-0.2-0.9-0.5-1.1c-0.3-0.2-1-0.4-2.1-0.5
			c-1.1-0.2-1.8-0.4-2.2-0.7c-0.4-0.3-0.7-0.9-0.7-1.8c0-0.9,0.3-1.5,0.9-1.9s1.4-0.6,2.3-0.6c0.7,0,1.6,0.1,2.8,0.3l0.5,0.1l0,1.2
			C287.6,137,286.5,137,285.8,137z"/>
		<path class="st0" d="M296,137.1h-2.9v4.3c0,1,0.1,1.7,0.2,2s0.5,0.5,1.1,0.5l1.6-0.1l0.1,1.1c-0.8,0.1-1.4,0.2-1.8,0.2
			c-0.9,0-1.6-0.2-1.9-0.7c-0.4-0.5-0.5-1.3-0.5-2.6v-4.7h-1.3v-1.2h1.3v-2.8h1.3v2.8h2.9V137.1z"/>
		<path class="st0" d="M297.6,144.9v-9h1.3v1.2c1-0.7,2.1-1.2,3.3-1.4v1.4c-0.5,0.1-1,0.2-1.6,0.5c-0.5,0.2-1,0.4-1.3,0.5l-0.5,0.2
			v6.6H297.6z"/>
		<path class="st0" d="M309.8,143.8l0.5-0.1l0,1.1c-1.4,0.2-2.5,0.3-3.5,0.3c-1.3,0-2.2-0.4-2.8-1.1c-0.5-0.7-0.8-1.9-0.8-3.5
			c0-3.2,1.3-4.7,3.8-4.7c1.2,0,2.1,0.3,2.7,1s0.9,1.7,0.9,3.2l-0.1,1h-5.9c0,1,0.2,1.7,0.5,2.2c0.4,0.5,1,0.7,1.9,0.7
			S308.9,143.9,309.8,143.8z M309.3,139.9c0-1.1-0.2-1.9-0.5-2.3s-0.9-0.7-1.7-0.7s-1.4,0.2-1.8,0.7c-0.4,0.5-0.6,1.2-0.6,2.3H309.3
			z"/>
		<path class="st0" d="M319.1,138.6v4.6c0,0.4,0.4,0.7,1,0.8l-0.1,1.1c-0.9,0-1.7-0.2-2.1-0.7c-1.1,0.5-2.2,0.7-3.2,0.7
			c-0.8,0-1.5-0.2-1.9-0.7c-0.4-0.5-0.6-1.1-0.6-2s0.2-1.5,0.7-1.9c0.4-0.4,1.1-0.7,2.1-0.8l2.8-0.3v-0.8c0-0.6-0.1-1-0.4-1.3
			c-0.3-0.3-0.6-0.4-1.1-0.4c-1,0-2,0.1-3,0.2l-0.6,0.1l-0.1-1c1.3-0.3,2.5-0.4,3.5-0.4s1.8,0.2,2.2,0.7
			C318.9,136.9,319.1,137.6,319.1,138.6z M313.6,142.3c0,1.1,0.5,1.7,1.4,1.7c0.8,0,1.6-0.1,2.4-0.4l0.4-0.1v-3l-2.7,0.3
			c-0.5,0-0.9,0.2-1.2,0.5S313.6,141.8,313.6,142.3z"/>
		<path class="st0" d="M323.1,144.9h-1.4v-9h1.3v0.6c0.9-0.5,1.8-0.8,2.6-0.8c1.1,0,1.9,0.3,2.3,0.9c0.4-0.2,0.9-0.5,1.5-0.6
			c0.6-0.2,1.2-0.3,1.7-0.3c1.2,0,2,0.3,2.4,1c0.4,0.6,0.6,1.8,0.6,3.5v4.8H333v-4.7c0-1.2-0.1-2.1-0.4-2.6s-0.8-0.7-1.5-0.7
			c-0.4,0-0.8,0.1-1.2,0.2s-0.7,0.2-1,0.3l-0.3,0.2c0.2,0.4,0.2,1.3,0.2,2.6v4.7h-1.3v-4.6c0-1.3-0.1-2.2-0.4-2.6
			c-0.2-0.5-0.7-0.7-1.5-0.7c-0.4,0-0.8,0.1-1.2,0.2s-0.7,0.2-0.9,0.3l-0.3,0.2V144.9z"/>
		<path class="st0" d="M340.8,148.9v-13h1.3v0.6c0.9-0.6,1.8-0.8,2.7-0.8c1.1,0,2,0.4,2.5,1.1c0.5,0.7,0.8,1.9,0.8,3.6
			s-0.3,2.9-0.9,3.6c-0.6,0.7-1.6,1.1-3,1.1c-0.7,0-1.4-0.1-2-0.2v4H340.8z M344.6,137c-0.4,0-0.7,0.1-1.2,0.2
			c-0.4,0.1-0.7,0.2-1,0.4l-0.3,0.2v6.1c0.9,0.1,1.5,0.2,1.9,0.2c1,0,1.7-0.3,2-0.8c0.4-0.6,0.6-1.5,0.6-2.7s-0.2-2.1-0.5-2.7
			C345.8,137.2,345.3,137,344.6,137z"/>
		<path class="st0" d="M350.3,144.9v-9h1.3v1.2c1-0.7,2.1-1.2,3.3-1.4v1.4c-0.5,0.1-1,0.2-1.6,0.5c-0.5,0.2-1,0.4-1.3,0.5l-0.5,0.2
			v6.6H350.3z"/>
		<path class="st0" d="M355.9,140.4c0-1.6,0.3-2.8,0.9-3.6c0.6-0.7,1.6-1.1,3-1.1c1.4,0,2.4,0.4,3,1.1c0.6,0.7,0.9,1.9,0.9,3.6
			c0,1.6-0.3,2.8-0.8,3.6s-1.6,1.1-3,1.1c-1.5,0-2.5-0.4-3-1.1C356.2,143.2,355.9,142.1,355.9,140.4z M357.3,140.4
			c0,1.3,0.2,2.2,0.5,2.8c0.3,0.5,1,0.8,2,0.8c1,0,1.7-0.3,2-0.8c0.3-0.5,0.5-1.4,0.5-2.8c0-1.3-0.2-2.2-0.5-2.7s-1-0.7-1.9-0.7
			c-0.9,0-1.6,0.2-1.9,0.7S357.3,139.1,357.3,140.4z"/>
		<path class="st0" d="M370.4,137.1h-2.9v4.3c0,1,0.1,1.7,0.2,2s0.5,0.5,1.1,0.5l1.6-0.1l0.1,1.1c-0.8,0.1-1.4,0.2-1.8,0.2
			c-0.9,0-1.6-0.2-1.9-0.7c-0.4-0.5-0.5-1.3-0.5-2.6v-4.7h-1.3v-1.2h1.3v-2.8h1.3v2.8h2.9V137.1z"/>
		<path class="st0" d="M371.7,140.4c0-1.6,0.3-2.8,0.9-3.6c0.6-0.7,1.6-1.1,3-1.1c1.4,0,2.4,0.4,3,1.1c0.6,0.7,0.9,1.9,0.9,3.6
			c0,1.6-0.3,2.8-0.8,3.6s-1.6,1.1-3,1.1c-1.5,0-2.5-0.4-3-1.1C371.9,143.2,371.7,142.1,371.7,140.4z M373.1,140.4
			c0,1.3,0.2,2.2,0.5,2.8c0.3,0.5,1,0.8,2,0.8c1,0,1.7-0.3,2-0.8c0.3-0.5,0.5-1.4,0.5-2.8c0-1.3-0.2-2.2-0.5-2.7s-1-0.7-1.9-0.7
			c-0.9,0-1.6,0.2-1.9,0.7S373.1,139.1,373.1,140.4z"/>
		<path class="st0" d="M384.9,135.7c0.4,0,1.1,0.1,2,0.2l0.4,0.1l-0.1,1.1c-1-0.1-1.7-0.2-2.1-0.2c-1,0-1.7,0.2-2.1,0.7
			s-0.5,1.4-0.5,2.7c0,1.3,0.2,2.2,0.5,2.7c0.3,0.5,1.1,0.8,2.1,0.8l2.1-0.2l0.1,1.1c-1.1,0.2-2,0.3-2.5,0.3c-1.4,0-2.4-0.4-2.9-1.1
			c-0.5-0.7-0.8-1.9-0.8-3.6s0.3-2.9,0.9-3.6C382.6,136.1,383.6,135.7,384.9,135.7z"/>
		<path class="st0" d="M388.9,140.4c0-1.6,0.3-2.8,0.9-3.6c0.6-0.7,1.6-1.1,3-1.1c1.4,0,2.4,0.4,3,1.1c0.6,0.7,0.9,1.9,0.9,3.6
			c0,1.6-0.3,2.8-0.8,3.6c-0.6,0.7-1.6,1.1-3,1.1s-2.5-0.4-3-1.1C389.2,143.2,388.9,142.1,388.9,140.4z M390.3,140.4
			c0,1.3,0.2,2.2,0.5,2.8c0.3,0.5,1,0.8,2,0.8c1,0,1.7-0.3,2-0.8c0.3-0.5,0.5-1.4,0.5-2.8c0-1.3-0.2-2.2-0.5-2.7
			c-0.3-0.5-1-0.7-1.9-0.7s-1.6,0.2-1.9,0.7C390.5,138.2,390.3,139.1,390.3,140.4z"/>
		<path class="st0" d="M398.9,144.9V132h1.3v12.9H398.9z"/>
	</g>
	<g>
		<path class="st1" d="M82.9,67.4h3.8l-8.7,33.2h-8.3l-8.7-33.2H65l7.6,30h2.7L82.9,67.4z"/>
		<path class="st1" d="M107,83.9v12.3c0.1,1.2,1,1.9,2.8,2.1l-0.1,2.8c-2.5,0-4.4-0.6-5.7-1.9c-2.9,1.3-5.8,1.9-8.6,1.9
			c-2.2,0-3.9-0.6-5-1.9c-1.2-1.2-1.7-3-1.7-5.4s0.6-4.1,1.8-5.2c1.2-1.1,3-1.8,5.6-2l7.5-0.7v-2.1c0-1.6-0.4-2.8-1.1-3.5
			c-0.7-0.7-1.7-1.1-2.9-1.1c-2.6,0-5.2,0.2-8,0.5L90,79.9l-0.1-2.7c3.5-0.7,6.6-1.1,9.4-1.1c2.7,0,4.7,0.6,5.9,1.9
			C106.4,79.2,107,81.2,107,83.9z M92.3,93.6c0,2.9,1.2,4.4,3.6,4.4c2.2,0,4.3-0.4,6.4-1.1l1.1-0.4v-7.9l-7.1,0.7
			c-1.4,0.1-2.5,0.5-3.1,1.2C92.6,91.3,92.3,92.3,92.3,93.6z"/>
		<path class="st1" d="M114.4,100.6V66.1h3.6v34.5H114.4z"/>
		<path class="st1" d="M125.2,71.2V67h3.6v4.2H125.2z M125.2,100.6v-24h3.6v24H125.2z"/>
		<path class="st1" d="M154.2,66.1v34.5h-3.6V99c-2.5,1.4-4.9,2.1-7.3,2.1c-1.3,0-2.4-0.2-3.4-0.5s-1.9-0.9-2.7-1.7
			c-1.7-1.7-2.6-4.9-2.6-9.6c0-4.7,0.8-8,2.3-10.1c1.6-2.1,4.1-3.1,7.7-3.1c1.9,0,3.8,0.2,5.9,0.6V66.1H154.2z M141.7,97.5
			c0.6,0.2,1.3,0.3,2.2,0.3s1.9-0.2,3.1-0.5c1.1-0.3,2-0.6,2.7-0.9l1-0.4V79.8c-2-0.4-4-0.6-5.7-0.6c-2.4,0-4.1,0.8-5.1,2.3
			c-1,1.6-1.4,4-1.4,7.2c0,3.7,0.6,6.2,1.7,7.5C140.6,96.9,141.1,97.3,141.7,97.5z"/>
		<path class="st1" d="M178.1,83.9v12.3c0.1,1.2,1,1.9,2.8,2.1l-0.1,2.8c-2.5,0-4.4-0.6-5.7-1.9c-2.9,1.3-5.8,1.9-8.6,1.9
			c-2.2,0-3.9-0.6-5-1.9c-1.2-1.2-1.7-3-1.7-5.4s0.6-4.1,1.8-5.2c1.2-1.1,3-1.8,5.6-2l7.5-0.7v-2.1c0-1.6-0.4-2.8-1.1-3.5
			c-0.7-0.7-1.7-1.1-2.9-1.1c-2.6,0-5.2,0.2-8,0.5l-1.5,0.1l-0.1-2.7c3.5-0.7,6.6-1.1,9.4-1.1c2.7,0,4.7,0.6,5.9,1.9
			C177.5,79.2,178.1,81.2,178.1,83.9z M163.3,93.6c0,2.9,1.2,4.4,3.6,4.4c2.2,0,4.3-0.4,6.4-1.1l1.1-0.4v-7.9l-7.1,0.7
			c-1.4,0.1-2.5,0.5-3.1,1.2C163.6,91.3,163.3,92.3,163.3,93.6z"/>
		<path class="st1" d="M197.6,79.7H190v11.5c0,2.8,0.2,4.6,0.6,5.4c0.4,0.9,1.4,1.3,2.9,1.3l4.3-0.3l0.2,3c-2.1,0.4-3.8,0.5-4.9,0.5
			c-2.5,0-4.2-0.6-5.2-1.8c-1-1.2-1.4-3.5-1.4-7V79.7H183v-3.1h3.4v-7.3h3.6v7.3h7.6V79.7z"/>
		<path class="st1" d="M201,88.6c0-4.4,0.8-7.6,2.4-9.5c1.6-2,4.2-2.9,7.9-2.9s6.4,1,7.9,2.9c1.6,2,2.3,5.1,2.3,9.5
			c0,4.4-0.7,7.6-2.2,9.6c-1.5,2-4.2,3-8.1,3c-3.9,0-6.6-1-8.1-3C201.7,96.1,201,92.9,201,88.6z M204.7,88.5c0,3.5,0.4,6,1.3,7.4
			c0.8,1.4,2.6,2.1,5.3,2.1s4.5-0.7,5.3-2.1c0.8-1.4,1.2-3.8,1.2-7.4s-0.5-5.9-1.4-7.3c-0.9-1.3-2.6-2-5.2-2s-4.2,0.7-5.2,2
			C205.1,82.6,204.7,85,204.7,88.5z"/>
		<path class="st1" d="M227.4,100.6v-24h3.6v3.3c2.8-1.9,5.7-3.2,8.8-3.8v3.6c-1.3,0.3-2.7,0.7-4.2,1.2s-2.6,1-3.3,1.4L231,83v17.6
			H227.4z"/>
		<path class="st1" d="M255.2,100.6V67.4h6.9l12.7,30h1v-30h3.6v33.2h-6.8l-12.9-30h-0.9v30H255.2z"/>
		<path class="st1" d="M285.7,88.6c0-4.4,0.8-7.6,2.4-9.5c1.6-2,4.2-2.9,7.9-2.9c3.7,0,6.4,1,7.9,2.9c1.6,2,2.3,5.1,2.3,9.5
			c0,4.4-0.7,7.6-2.2,9.6c-1.5,2-4.2,3-8.1,3s-6.6-1-8.1-3C286.4,96.1,285.7,92.9,285.7,88.6z M289.4,88.5c0,3.5,0.4,6,1.3,7.4
			c0.8,1.4,2.6,2.1,5.3,2.1s4.5-0.7,5.3-2.1c0.8-1.4,1.2-3.8,1.2-7.4s-0.5-5.9-1.4-7.3c-0.9-1.3-2.6-2-5.2-2c-2.5,0-4.2,0.7-5.2,2
			C289.9,82.6,289.4,85,289.4,88.5z"/>
		<path class="st1" d="M330.5,66.1v34.5H327V99c-2.5,1.4-4.9,2.1-7.3,2.1c-1.3,0-2.4-0.2-3.4-0.5s-1.9-0.9-2.7-1.7
			c-1.7-1.7-2.6-4.9-2.6-9.6c0-4.7,0.8-8,2.3-10.1c1.6-2.1,4.1-3.1,7.7-3.1c1.9,0,3.8,0.2,5.9,0.6V66.1H330.5z M318,97.5
			c0.6,0.2,1.3,0.3,2.2,0.3s1.9-0.2,3.1-0.5c1.1-0.3,2-0.6,2.7-0.9l1-0.4V79.8c-2-0.4-4-0.6-5.7-0.6c-2.4,0-4.1,0.8-5.1,2.3
			c-1,1.6-1.4,4-1.4,7.2c0,3.7,0.6,6.2,1.7,7.5C316.9,96.9,317.5,97.3,318,97.5z"/>
		<path class="st1" d="M353.8,97.6l1.4-0.1l0.1,2.8c-3.6,0.5-6.8,0.8-9.4,0.8c-3.5,0-5.9-1-7.3-3c-1.4-2-2.2-5.1-2.2-9.3
			c0-8.4,3.3-12.6,10-12.6c3.2,0,5.6,0.9,7.2,2.7c1.6,1.8,2.4,4.6,2.4,8.5l-0.2,2.7h-15.8c0,2.7,0.5,4.6,1.4,5.9
			c1,1.3,2.6,1.9,5,1.9C348.9,97.9,351.3,97.8,353.8,97.6z M352.5,87.2c0-2.9-0.5-5-1.4-6.2c-0.9-1.2-2.5-1.8-4.6-1.8
			c-2.1,0-3.7,0.6-4.8,1.9c-1.1,1.3-1.6,3.3-1.7,6.1H352.5z"/>
	</g>
</g>
<g id="Layer_2">
</g>
<g id="Layer_3">
</g>
<g id="Layer_1">
	<g id="Validator_1_">
		<g id="Illustration_1_" transform="translate(0.000000, 32.000000)">
			<g id="Group_3_" transform="translate(8.373134, 0.000000)">
				<path id="Polygon_1_" class="st2" d="M628.5,179.6c-4.8-2.7-13.8-7.9-13.8-13.4l6.4-55.9c0-5.5,3-10.7,7.9-13.4l48.9-28.2
					c4.8-2.8,10.8-2.8,15.6-0.1l48.6,27.7c4.8,2.7,7.8,7.9,7.7,13.4l-0.3,55.9c0,5.5-3,10.7-7.9,13.4l-48.9,28.2
					c-4.8,2.8-10.8,2.8-15.6,0.1L628.5,179.6z"/>
				<path id="Shape_2_" class="st3" d="M665.9,161.8c-1.2-1.3-2.7-1-4.4-0.3c-1.5-0.9-2.9-1.9-3.2-4.4c0-0.4-2.4-0.7-2.7-0.8
					c-2.4-1.1-1-3.8-3.9-3.9c-1.8-0.1-1.8,0.9-2.8-0.4c-0.2-0.2-0.6-0.7-1.4-1.6l-0.8-6.5l-7.2-7.4c-5.6-1.8-8.6-2.7-8.8-2.7
					c0.4,0.3,2.6,2.1,6.6,5.2l6.8,6.6c1,3.8,1.8,6,2.3,6.8c-1.2-1.2-9.3-6.1-10.8-6.8c-1.6-0.7-4.5-1-6.1-1.6
					c1,1.2,9.3,8.1,10.7,8.5c1.6,0.5,3.8-0.6,4.7,1.1c0.4,0.8,0.4,2.4,1.4,1.6c0.5-0.4,1.4,1.1,1.7,1.2c1.7,0.2,1.5,1.7,2.9,2.5
					c2.8,1.6,2.7,2.8,3.2,6.6c0.1,1.1,2.5,1.1,2.7,2.2c0,0.2,0.2,0.3,0.4,0.3c2.7,0.1,6.3,6.8,7.7,9.2c-0.1-1.9-1.3-7.9-2.3-8.6
					c-1.4-0.9-2.7-1.1-3.8-2.6c-0.3-0.4-2.2-1.6-2-2.2c0.5-1.7,0.1-1.6,0-3.2c0.9,0.2,1.4,0.9,2,1.4c0.7,0.5,1.5,0.6,2.5,0
					C662.9,161.7,664.3,161.6,665.9,161.8z M650.5,121.1c0.2,0.1,0.5,0.3,0.7,0.4c0.1,0,0.2-0.1,0.3-0.1c0.1,0.1,0.3,0.1,0.4,0.2
					c-0.1,0.2-0.2,0.4,0,0.5c0.1,0.1,0.3-0.1,0.4-0.3c0.1,0.1,0.3,0.1,0.4,0.2c-0.1,0.3,0,0.3,0.2,0.1c0.3,0.2,0.6,0.3,0.9,0.5
					c0.2,0.5,0.4,1.1,1.2,0.4c0.7,0.1,1.1,0.7,1.8,0.7c-0.1,0.9,0.1,1.1,0.9,0.5c0.3,0.2,0.7,0.4,1,0.5c0,0.2,0.2,0.3,0.4,0
					c0.1-0.1,0.1-0.3,0.2-0.4c0.4,0.2,0.9,0.4,1.1,0.8c-2.4,3.1-4.9,6.2-7.2,9.4c-2.9,4.2-4.5,10.3-4.9,14.8c0,0.4,0,0.8,0,1.1
					c0,0.8,0,1.5,1,0.5c0.2-0.2,0.5-0.4,0.6-0.3c1,0.6,2-0.6,3-1.5c1.6-1.4,3.2-1.9,4.8-2.3c1.9-0.5,3.8-1.2,5.6-1.3
					c1.8-0.1,3.6-2.9,5.3-4.5c1.3-1.3-0.4-2.6,1-3.7c0.1-0.1,0.3-0.1,0.4-0.2c0,0-0.1-0.1-0.1-0.1c0.3,0.2,0.5,0.5,0.9,0.6
					c3.3,1.2,6.5,2.4,9.4,4.3c2.9,1.9,2.6,6.2,2.6,10.8c-1.6-1.4-2.9-2.6-4.3-3.7c0,0.6,0.2,0.9,0.5,1.2c1.3,1.6,2.4,3.6,4,4.9
					l0.1,0.6c-0.4,0.6-0.4,0.9,0,1c0,4.1,0.9,8.3-0.5,12.4c-0.3,1-0.9,1.1-1.2,0.6c-0.5-0.5-0.7-1.3-0.9-2.2c0-0.4-0.1-0.8-0.4-0.8
					c-1.6,0.1-4.4-1.6-4.3-3.1c0-1.1,0.2-2.4-0.8-2.7c-0.3,1.5-0.5,2.9-0.8,4.5c-1.1-0.8-1.7-2.2-3.1-2.4c0.4,2,4.2,3.5,5.9,3.7
					c1.9,0.3,2.8,1.5,2.8,4c0,1,0.4,1.5,1.2,1.6c0.8,0.1,1.1,1,1,2c-0.2,4.1,0.4,16.3-0.6,20.6c-0.2,0.7-0.4,1-1,1.2
					c-2.6,1-5.1,1.6-7.5,1.2c-2.3-0.4-5.6-9.4-7.7-10.3c-1.8-0.8-3.6-1.4-5.2-2.6c-0.3-0.6-0.6-1.3-1.6-0.5c-0.5,0.4-0.6,0-0.9-0.2
					c0.5-1.3,0.1-1.3-0.7-0.8c-0.1-0.1-0.3-0.1-0.4-0.2c-0.4-1.1-2.3-1.5-3.2-0.6c-0.2,0.1-0.4,0.2-0.5,0c0-0.2,0-0.2-0.2,0l-0.1,0
					l0-0.1c-0.2,0.1-0.3-0.2-0.6,0c-3.9,0-4.3-3-8.1-3.5c-5.6-0.7-10.6-2.5-14.6-6.3c-0.2-0.2-0.6-0.2-0.4-0.8
					c0.5-1.3,0.1-2.1-0.1-3c-0.4-2.1-1.1-3.9-1.1-6.2c-0.1-2-0.1-4,1.3-6.3c0.2,0,0.2-0.1,0.1-0.3c0.1-0.2,0.2-0.4,0.3-0.6
					c0.5-0.3,0.7-0.6,0.4-1c0-0.1,0.1-0.2,0.1-0.3l0-0.4c0.6-2.6-2.8-2.2-3-4.5c-0.4-4.3-2.2-7.7-2-12.5c0.1-2.8-0.3-5.5,0.8-8.5
					c1.8-5.1,0.3-7.3,1.1-12.3c0-0.3-0.1-0.8,0.2-0.9c0.4-0.1,0.8-0.6,1.2-0.1c0.9,1.3,2.5,1.5,3.9,2c3.1,1,8.7-0.1,11.7,1.1
					c0.1,0.5,0.2,0.9,0.8,0.2c0.1,0.1,0.3,0.1,0.4,0.2c-0.1,0.4,0.1,0.4,0.3,0.2c0.7,0,1,0.5,1.5,0.8l0.3-0.1
					c0.7,0.4,1.5,0.8,2.2,1.2C649.5,120.8,649.8,121.4,650.5,121.1z"/>
				<path id="Rectangle_3_" class="st4" d="M638.4,108.4c-3.4-1.9-3.7-4.8-0.8-6.5l42.9-24.8c2.9-1.7,8.1-1.5,11.4,0.3l42,23.6
					c3.4,1.9,3.7,4.8,0.8,6.5l-42.9,24.8c-2.9,1.7-8.1,1.5-11.4-0.3L638.4,108.4z"/>
				<path id="Rectangle-Copy-6_1_" class="st3" d="M687.4,192.9l0.5-48.1c0-3.9,2.4-8.4,5.4-10l42.8-24.7c2.9-1.7,5.3,0.1,5.2,3.9
					l-0.5,48.1c0,3.9-2.4,8.4-5.4,10l-42.8,24.7C689.7,198.5,687.4,196.8,687.4,192.9z"/>
				
					<g id="Group-14_1_" transform="translate(182.502926, 81.528037) rotate(-17.000000) translate(-182.502926, -81.528037) translate(126.123821, 13.960280)">
					<path id="Path_5_" class="st2" d="M437.3,205.6c0.9-5.3,5.3-19.8,6.8-22.3c1.5-2.3,5.5-3.9,6.6-4.3c3.8-1.6,8.2-2.3,12.1-3.6
						c3.4-1.1,6.9-1.8,10.5-1.1c-0.6,1,3,4.7,4,6.2c1.8,2.5,2.2,5.1,0.5,7.9c-0.6,1-1.1,2-1.5,3c-0.4,1.2-0.4,1.2,1.2,0.9
						c0.8,1.5,1.7,3,2.4,4.5c1.6,3.5,32.7,44.7,32.5,47.4c-0.1,2.2-2.9,6.8-1.8,8.9c0.6,1.3-1.7,6.7-2.7,8.3c-0.1,0.2,0,0.6,0.2,0.8
						c0.9,1.3,0,1.4-0.9,1.5c-0.4,0.1-0.9,0.1-1.3,0.1c-5.2,0.3-13,1.1-16.9-2.4c-3-2.7-5.7-5.8-8.6-8.7
						c-5.9-5.9-13.5-17.1-18.7-23.5c-2.8-3.5-5.4-7.3-8.7-10.4c-1-0.9-1.6-1.8-1.9-3c-0.2-0.8-0.6-1.6-0.7-2.4
						c-0.1-0.8-0.5-1-1.3-0.8c-1.6,0.4-3.3,0.8-5,1.1c-1.3,0.3-2.9,1.1-3.9,0.7c-1.2-0.5-1.3-2.3-1.9-3.6
						C438.1,210.1,437.2,206.6,437.3,205.6z"/>
					<path id="Fill-15-Copy_1_" class="st3" d="M441,204.7c1.6-5.4,3.6-10.8,5.6-16c1.1-2.9,3.3-4.6,6.2-5.6c3.5-1.1,7.1-2.1,10.7-3
						c1.8-0.4,3.6-1.3,5.6-1.2c-1.3,4.1-2.5,8.4-4.8,12.1c-2.5,4-5.6,7.8-9.8,10C450.3,203.3,445.6,204.1,441,204.7z"/>
					<path id="Fill-77-Copy_1_" class="st3" d="M472.2,179.2c1,1.6,1.8,2.9,2.6,4.2c0.3,0.4,0.5,0.8,0.2,1.4c-2.8,4.9-4.7,10.4-8,15
						c-1.8,2.5-1.7,2.5-3.8,0.3c-1-1-1.1-1.6-0.2-2.8C467.1,192,470.6,186.2,472.2,179.2z"/>
					<path id="Fill-79-Copy_1_" class="st3" d="M440.8,207.8c6.2-2,12.7-2.8,18.4-6.1c0.3-0.2,0.5-0.2,0.8,0.2
						c1.6,2.4,1.4,3.3-1.1,4.8c-0.5,0.3-1.1,0.6-1.6,0.9c-4,2-8.5,2.4-12.7,3.8c-0.4,0.1-0.7,0.1-1-0.3
						C442.7,210,441.7,209,440.8,207.8z"/>
					<path id="Fill-73-Copy_1_" class="st4" d="M456.7,214.1c4.5-2.3,8.7-4.5,12.9-6.8c1.1-0.6,1.5-0.4,1.9,0.7
						c0.2,0.4,0.4,0.8,0.7,1.2c7.4,13,14.6,26.2,23.5,38.2c1.6,2.1,3.2,4.2,4.8,6.3c0.3,0.5,0.6,1,0.5,1.4c-0.2,0.4-0.8,0.2-1.3,0.2
						c-2.8,0-5.5-0.4-8.3-0.8c-0.2,0-0.4-0.1-0.6-0.3c-1.3-1.3-2.8-2.4-3.9-3.8c-4.3-5.3-8.5-10.6-12.8-15.9
						c-2.5-3.1-4.9-6.2-7.4-9.3C463.7,221.5,460.9,217.3,456.7,214.1z"/>
					<path id="Fill-75-Copy_1_" class="st7" d="M502.4,254.8l-5-7.2c-2.7-3.7-5.2-7.2-7.7-10.6c-6.4-8.8-11.7-18.2-17.6-27.3
						c-1.1-1.7-1.5-3.1-0.4-4.9c1.6-2.6,2.8-5.4,4.3-8.3c2.1,3.9,4.2,7.5,6.2,11.2c4.6,8.6,9,17.2,15.9,24.3c0.3,0.3,6.1,9.5,6.1,10
						C503.7,246.7,502.8,249.8,502.4,254.8z"/>
				</g>
				<path id="Fill-107-Copy_1_" class="st4" d="M662.9,172.7c-6-0.7-12-0.7-17.9-0.5c-6.8,0.2-11.4-3.7-16.8-7.1
					C634.6,161.8,656.6,166.5,662.9,172.7z"/>
				<g id="Group-2_2_" transform="translate(0.000000, 52.648091)">
					<path class="st2" d="M579.6,117.6c-1.9,4.3-2.7,8.9-3.8,13.4c-0.2,1,0.3,1.8,0.6,2.7c0.3,0.7,1.2,1.5,0.3,2.3
						c-0.9,0.7-1.8,1.9-3.2,1.5c-0.4-0.1-0.7-0.2-1.1,0c-7.6,3.3-15.3,2-22.9,0c-9.5-2.5-18.7-6-27.5-10.4c-4.9-2.5-8.3-6.2-11-10.8
						c-1.3-2.1-3.3-3.6-4.2-6c0-0.1-0.3-0.3-0.2-0.4c0.4-1.8-0.6-3-1.3-4.5c-1-1.9,0-3.1,1.7-4.4c5.7-4.4,10.2-9.8,13.2-16.4
						c0.5-1.2-0.6-2.8-2-2.9c-2.7-0.3-5.3-0.5-8.2-0.7c1-1.5,0.5-2.7-0.4-4.1c-1.3-2.1-1.9-4.3-1-6.9c1.3-3.6,2.4-7.2,5-10.2
						c1.2-1.4,5.9-1.7,7.1-0.3c3.1,3.6,3.4,3.7,8.1,6c1.2,0.6,1.7,0.4,2.3-0.8c5-9.4,8-19.5,10.2-29.8c0.3-1.3,0.8-1.8,2-2.2
						c1.9-0.6,4.7-0.8,9.4-0.4c5.7,0.5,13.3,1.8,14.9,2.4c5.7,2.1,11.3,4.4,16.1,8.2c7.1,5.5,17.9,16.3,22.6,24.1
						c0.6,1.1-0.8,4.5-3.3,9c0.3-0.1,0.5-0.1,0.9-0.1c-0.7,0.6-1.3,1.1-1.8,1.7c-0.5,0.9-1.1,1.9-1.7,2.9c-1.2,3.1-0.8,6.2-4.9,9.4
						c5.3,1,8.2,5.5,13.2,6.4c2.1,0.4,3.7-0.3,5.7,0.1c4.2,0.8,8.8,2.9,12.8,4.1c1.3,0.4,2.6,0.7,3.5,1.7c0.8,0.9,1.9-0.1,3,0.3
						c5.6,2,11.2,3.9,16.9,5.8c4.3,1.5,8.6,3,12.3,5.8c0.9,0.7-0.5,0.9,0.2,1.9c1.8,2.5,7.8,11.2,1.9,11.5c0.9,6-0.1,9.1-0.2,15.2
						c0,2.5-0.5,3.1-2.5,5c-1.5,1.5-2.4,1.9-2.4,3.7c-1.6,0-2.8-0.8-4.1-1.4c-13.9-5.3-25.9-13.8-37.8-22.3
						c-2.9-2.1-29.2-9.9-38-14.3C580.2,114.9,580.2,116.2,579.6,117.6z"/>
					<path class="st3" d="M588,107.4L588,107.4c0.3-0.9-0.3-0.5-0.7-0.5c-2.3-1-4.5-2.1-7-2.4c0.2-2.5,0.7-4.9,1.5-7.3
						c0.6-1.9,2-2.9,3.9-2.8c6.9,0.2,13.8,1,19.4,5.6c9.4,7.7,20.6,12.7,30.9,19c2.1,1.3,10.5,3.1,13.6,7c2.9,3.6,0.8,9.4,0.9,10.2
						c0.2,1.8,0.5,3.7,0.8,5.8c-4.1-2.7-8.1-5.3-11.9-7.9c-7.3-4.9-15-9.2-22.9-13.1c-1.1-0.5-1.6-1.9-3-1.9
						c-0.2-0.1-0.3-0.2-0.5-0.4l0.1,0.1c-0.5-0.7-1.1-1-2-0.9l0,0c0-0.7-0.5-0.8-1.1-0.9c0,0,0.1,0.1,0.1,0.1
						c-1-0.8-2.1-1.5-3.1-2.2c-1.3-0.8-2.6-1.6-3.9-2.3c-3.3-1.7-6.8-3-10.4-4.1C591.1,108.1,589.9,106.5,588,107.4z"/>
					<path id="Fill-81_1_" class="st3" d="M559.9,43c1.5-2.9,1.5-2.9,4.3-1.6c7.3,3.4,12.4,3.4,18.5,8.8c1.2,1,1.6,1.6,0.1,3
						c-8.8,8.5-15.4,18.7-21.4,29.3c-4.6,8.2-9.4,16.4-14,24.6c-0.7,1.3-1.4,1.7-3,1.1c-7.3-2.4-14.8-3.5-22.4-4.3
						c-1.8-0.2-3.6-0.1-5.4-0.3c-2.2-0.2-1.5-1-0.8-2.1c2.1-3.5,4-7.1,6.3-10.4c8.7-12.9,13.8-22.9,18.3-37.6
						c1.3-4.4,6-9.2,4.5-13.7c-0.5-1.6,0.2-2.9,2.2-2.9c4.4-0.1,6.8,0.8,11,2.1c1.5,0.4,0.5,1.2,0.2,1.8c-3.1,7.1-6.2,14.1-9.3,21.2
						c-0.3,0.7-0.5,1.5-0.8,2.2c-0.5,0.7-1.2,1.4-0.4,2.6c0.4-0.8,0.7-1.5,0.9-2.2C552.5,57.4,556.2,50.2,559.9,43z"/>
					<path id="Fill-81-Copy-2_1_" class="st3" d="M582.8,55.5c1.7,0,3.4-0.3,5.2-0.4c2.2,0,1.6,0.8,1,1.9c-1.6,3.6-3,7.2-4.8,10.7
						c-6.8,13.3-10.5,23.3-13,37.9c-0.8,4.3-4.7,9.4-2.7,13.6c0.7,1.5,0.2,2.7-1.7,3c-4.2,0.6-12.7-7-10.5-14.1
						c0.2-0.7-6.3,0.2-6.2-0.5c0.4-0.8,13.4-12.6,12.5-13.7c-0.2,0.8-0.4,1.5-0.6,2.2C559.2,103.3,575.4,55.7,582.8,55.5z"/>
					<path id="Fill-81-Copy_1_" class="st4" d="M522.1,103.9c-1.8-0.2-3.6-0.1-5.4-0.3c-2.2-0.2-1.5-1-0.8-2.1
						c2.1-3.5,4-7.1,6.3-10.4c8.7-12.9,13.8-22.9,18.3-37.6c1.3-4.4,6-9.2,4.5-13.7c-0.5-1.6,0.2-2.9,2.2-2.9
						C551.5,36.8,529.7,104.6,522.1,103.9z"/>
					<path id="Fill-85_1_" class="st3" d="M516.8,70.5c0-0.1-0.1-0.2-0.1-0.2c-4-3.8-4-4.3,0.2-8.7c0.1,2,1.6,2.4,2.9,3
						c1.1,0.5,2.3,1,3.4,1.6c3.7,1.7,3.7,1.7,2.1,5.5c-3.3,7.8-3.6,7.9-11.8,6.3c-0.7-0.1-1.1-0.3-1.2-1.1c-0.1-0.9-0.4-1.7-0.4-2.6
						c0-4.6,0.7-5,4.6-3.3c0.3,0.1,0.5,0.3,0.7-0.1C517.2,70.9,516.9,70.6,516.8,70.5z"/>
					<path id="Fill-107_1_" class="st4" d="M657.6,119.7c0.1,3.8,0.7,7.4,1.4,11.1c0.7,4.1-1.1,7.4-2.6,11
						C653.8,138.2,654.6,124.2,657.6,119.7z"/>
				</g>
				<path id="Fill-43_1_" class="st8" d="M699.8,125.5c0.8-0.3,1.1,0.4,1.1,1.9C700.4,127.1,700.1,126.3,699.8,125.5z"/>
				<path id="Fill-119_1_" class="st7" d="M631.6,181.8c-0.2-0.1-0.4-0.1-0.6-0.2c0,0,0.1-0.1,0.1-0.1
					C631.3,181.5,631.5,181.5,631.6,181.8C631.6,181.7,631.6,181.8,631.6,181.8z"/>
			</g>
		</g>
	</g>
</g>
</svg>
