<?xml version="1.0" encoding="UTF-8"?>
<svg width="1188px" height="929px" viewBox="0 0 1188 929" version="1.1" xmlns="http://www.w3.org/2000/svg" xmlns:xlink="http://www.w3.org/1999/xlink">
    <!-- Generator: Sketch 53.2 (72643) - https://sketchapp.com -->
    <title>Group 3</title>
    <desc>Created with Sketch.</desc>
    <g id="Page-2" stroke="none" stroke-width="1" fill="none" fill-rule="evenodd">
        <g id="Group-3">
            <g id="OKR" transform="translate(459.000000, 139.000000)">
                <rect id="Rectangle" stroke="#B0B0B0" stroke-width="1" fill="#D8D8D8" x="0.5" y="0.5" width="234" height="67" rx="3"></rect>
                <text id="Personal-OKR" fill="#000000" font-family="HelveticaNeue, Helvetica Neue" font-size="26" font-weight="normal">
                    <tspan x="63.101" y="44">Objective</tspan>
                </text>
            </g>
            <g id="OKR" transform="translate(469.000000, 788.000000)">
                <rect id="Rectangle" stroke="#B0B0B0" stroke-width="1" fill="#D8D8D8" x="0.5" y="0.5" width="234" height="67" rx="3"></rect>
                <text id="Personal-OKR" fill="#000000" font-family="HelveticaNeue, Helvetica Neue" font-size="26" font-weight="normal">
                    <tspan x="63.101" y="44">Objective</tspan>
                </text>
            </g>
            <g id="OKR" transform="translate(744.000000, 728.000000)">
                <rect id="Rectangle" stroke="#B0B0B0" stroke-width="1" fill="#D8D8D8" x="0.5" y="0.5" width="234" height="67" rx="3"></rect>
                <text id="Personal-OKR" fill="#000000" font-family="HelveticaNeue, Helvetica Neue" font-size="26" font-weight="normal">
                    <tspan x="63.101" y="44">Objective</tspan>
                </text>
            </g>
            <g id="Group" transform="translate(704.000000, 383.000000)">
                <rect id="Rectangle" stroke="#000000" x="0.5" y="0.5" width="222" height="43" rx="21.5"></rect>
                <text id="Key-result" font-family="HelveticaNeue, Helvetica Neue" font-size="26" font-weight="normal" fill="#000000">
                    <tspan x="53.449" y="31">Key result</tspan>
                </text>
            </g>
            <g id="Group" transform="translate(240.000000, 383.000000)">
                <rect id="Rectangle" stroke="#000000" x="0.5" y="0.5" width="222" height="43" rx="21.5"></rect>
                <text id="Key-Result" font-family="HelveticaNeue, Helvetica Neue" font-size="26" font-weight="normal" fill="#000000">
                    <tspan x="48.639" y="31">Key Result</tspan>
                </text>
            </g>
            <path id="Line-Copy-3" d="M812.824064,488.802489 L803.641653,492.636419 L802.718859,493.021713 L801.948271,491.176125 L802.871065,490.790831 L815.576249,485.486039 L817.216771,484.801072 L816.95024,486.558757 L814.886065,500.171313 L814.736141,501.16001 L812.758746,500.860163 L812.90867,499.871465 L814.40051,490.033269 L809.424073,496.407343 L581.288223,788.61539 L580.672833,789.403613 L579.096387,788.172833 L579.711777,787.38461 L807.847628,495.176563 L812.824064,488.802489 Z" fill="#000000" fill-rule="nonzero"></path>
            <path id="Line-Copy-3" d="M352.561474,490.04678 L353.930175,499.902862 L354.067724,500.893357 L352.086734,501.168455 L351.949185,500.17796 L350.055391,486.540656 L349.81086,484.779776 L351.442689,485.485204 L364.080545,490.948454 L364.998448,491.345257 L364.204843,493.181065 L363.286939,492.784262 L354.153187,488.835809 L359.04935,495.271377 L581.295856,787.394515 L581.901342,788.190371 L580.309629,789.401342 L579.704144,788.605485 L357.457637,496.482348 L352.561474,490.04678 Z" fill="#000000" fill-rule="nonzero"></path>
            <path id="Line-Copy-3" d="M815.092849,490.200598 L811.926959,499.634199 L811.608801,500.582237 L809.712726,499.945919 L810.030884,498.997882 L814.411348,485.945141 L814.976963,484.259741 L816.123588,485.618323 L825.003731,496.139994 L825.648707,496.904197 L824.120302,498.194149 L823.475326,497.429947 L817.057384,489.825624 L818.576934,497.786745 L862.482267,727.812513 L862.669754,728.79478 L860.70522,729.169754 L860.517733,728.187487 L816.6124,498.161719 L815.092849,490.200598 Z" fill="#000000" fill-rule="nonzero"></path>
            <path id="Line-Copy-3" d="M817.776544,489.286251 L823.279716,497.576655 L823.832761,498.409806 L822.16646,499.515897 L821.613414,498.682746 L813.998987,487.211783 L813.015795,485.730626 L814.792151,485.659537 L828.549308,485.108984 L829.548509,485.068997 L829.628483,487.067397 L828.629283,487.107384 L818.686579,487.505285 L825.918865,491.200825 L1066.45502,614.109517 L1067.3455,614.564534 L1066.43547,616.3455 L1065.54498,615.890483 L825.008831,492.98179 L817.776544,489.286251 Z" fill="#000000" fill-rule="nonzero"></path>
            <g id="Group-2" transform="translate(48.000000, 615.000000)">
                <circle id="Oval" stroke="#000000" cx="72" cy="72" r="72"></circle>
                <text id="Person" font-family="HelveticaNeue, Helvetica Neue" font-size="26" font-weight="normal" fill="#000000">
                    <tspan x="32.076" y="82">Person</tspan>
                </text>
            </g>
            <g id="Group-2" transform="translate(256.000000, 615.000000)">
                <circle id="Oval" stroke="#000000" cx="72" cy="72" r="72"></circle>
                <text id="Person" font-family="HelveticaNeue, Helvetica Neue" font-size="26" font-weight="normal" fill="#000000">
                    <tspan x="32.076" y="82">Person</tspan>
                </text>
            </g>
            <g id="Group-2" transform="translate(1007.000000, 615.000000)">
                <circle id="Oval" stroke="#000000" cx="72" cy="72" r="72"></circle>
                <text id="Person" font-family="HelveticaNeue, Helvetica Neue" font-size="26" font-weight="normal" fill="#000000">
                    <tspan x="32.076" y="82">Person</tspan>
                </text>
            </g>
            <path d="M816,383 L573,296" id="Line-Copy-3" stroke="#000000" stroke-width="2" stroke-linecap="square" stroke-dasharray="6"></path>
            <path d="M340,383 L573,296" id="Line-Copy-3" stroke="#000000" stroke-width="2" stroke-linecap="square" stroke-dasharray="6"></path>
            <path id="Line-Copy-3" d="M349.962522,489.836505 L343.598205,497.485764 L342.958618,498.254482 L341.421181,496.975308 L342.060768,496.206589 L350.866713,485.622742 L352.003757,484.256131 L352.581209,485.937513 L357.053338,498.959132 L357.378155,499.904909 L355.486601,500.554542 L355.161784,499.608765 L351.929644,490.197656 L350.466876,498.165074 L328.983561,615.180576 L328.802985,616.164137 L326.835863,615.802985 L327.016439,614.819424 L348.499754,497.803923 L349.962522,489.836505 Z" fill="#000000" fill-rule="nonzero"></path>
            <path id="Line-Copy-3" d="M348.331637,487.609159 L338.38124,487.536416 L337.381267,487.529105 L337.395887,485.529159 L338.395861,485.536469 L352.163663,485.637119 L353.941393,485.650115 L353.007133,487.162614 L345.771665,498.876303 L345.246144,499.727083 L343.544583,498.676041 L344.070104,497.82526 L349.29939,489.359431 L342.160858,493.306438 L120.483877,615.875136 L119.60874,616.359013 L118.640987,614.60874 L119.516123,614.124864 L341.193105,491.556165 L348.331637,487.609159 Z" fill="#000000" fill-rule="nonzero"></path>
            <g id="Weight" transform="translate(150.000000, 539.000000)">
                <rect id="Rectangle" stroke="#979797" stroke-width="1" fill="#FFFFFF" fill-rule="evenodd" x="0.5" y="0.5" width="120" height="39" rx="4"></rect>
                <text id="w-=-0.25" font-family="HelveticaNeue, Helvetica Neue" font-size="26" font-weight="normal" fill="#000000">
                    <tspan x="10.82" y="28">w =</tspan>
                    <tspan x="53.356" y="28" font-family="HelveticaNeue-Bold, Helvetica Neue" font-weight="bold"> 0.25</tspan>
                </text>
            </g>
            <g id="Weight" transform="translate(290.000000, 568.000000)">
                <rect id="Rectangle" stroke="#979797" stroke-width="1" fill="#FFFFFF" fill-rule="evenodd" x="0.5" y="0.5" width="120" height="39" rx="4"></rect>
                <text id="w-=-0.25" font-family="HelveticaNeue, Helvetica Neue" font-size="26" font-weight="normal" fill="#000000">
                    <tspan x="10.82" y="28">w =</tspan>
                    <tspan x="53.356" y="28" font-family="HelveticaNeue-Bold, Helvetica Neue" font-weight="bold"> 0.25</tspan>
                </text>
            </g>
            <g id="Weight" transform="translate(429.000000, 630.000000)">
                <rect id="Rectangle" stroke="#979797" stroke-width="1" fill="#FFFFFF" fill-rule="evenodd" x="0.5" y="0.5" width="120" height="39" rx="4"></rect>
                <text id="w-=-0.25" font-family="HelveticaNeue, Helvetica Neue" font-size="26" font-weight="normal" fill="#000000">
                    <tspan x="18.048" y="28">w = </tspan>
                    <tspan x="67.812" y="28" font-family="HelveticaNeue-Bold, Helvetica Neue" font-weight="bold">0.5</tspan>
                </text>
            </g>
            <g id="Weight" transform="translate(629.000000, 630.000000)">
                <rect id="Rectangle" stroke="#979797" stroke-width="1" fill="#FFFFFF" fill-rule="evenodd" x="0.5" y="0.5" width="120" height="39" rx="4"></rect>
                <text id="w-=-0.25" font-family="HelveticaNeue, Helvetica Neue" font-size="26" font-weight="normal" fill="#000000">
                    <tspan x="18.048" y="28">w = </tspan>
                    <tspan x="67.812" y="28" font-family="HelveticaNeue-Bold, Helvetica Neue" font-weight="bold">0.1</tspan>
                </text>
            </g>
            <g id="Weight" transform="translate(789.000000, 600.000000)">
                <rect id="Rectangle" stroke="#979797" stroke-width="1" fill="#FFFFFF" fill-rule="evenodd" x="0.5" y="0.5" width="120" height="39" rx="4"></rect>
                <text id="w-=-0.25" font-family="HelveticaNeue, Helvetica Neue" font-size="26" font-weight="normal" fill="#000000">
                    <tspan x="18.048" y="28">w = </tspan>
                    <tspan x="67.812" y="28" font-family="HelveticaNeue-Bold, Helvetica Neue" font-weight="bold">0.6</tspan>
                </text>
            </g>
            <g id="Weight" transform="translate(941.000000, 548.000000)">
                <rect id="Rectangle" stroke="#979797" stroke-width="1" fill="#FFFFFF" fill-rule="evenodd" x="0.5" y="0.5" width="120" height="39" rx="4"></rect>
                <text id="w-=-0.25" font-family="HelveticaNeue, Helvetica Neue" font-size="26" font-weight="normal" fill="#000000">
                    <tspan x="18.048" y="28">w = </tspan>
                    <tspan x="67.812" y="28" font-family="HelveticaNeue-Bold, Helvetica Neue" font-weight="bold">0.3</tspan>
                </text>
            </g>
            <text id="Score-=-0.5" font-family="HelveticaNeue, Helvetica Neue" font-size="18" font-weight="normal" fill="#000000">
                <tspan x="74.587" y="789">Score =</tspan>
                <tspan x="137.389" y="789" font-family="HelveticaNeue-Bold, Helvetica Neue" font-weight="bold"> 0.5</tspan>
            </text>
            <text id="Score-=-0.45-=-0.5*0" font-family="HelveticaNeue, Helvetica Neue" font-size="18" font-weight="normal">
                <tspan x="282.681" y="451" fill="#000000">Score =</tspan>
                <tspan x="345.483" y="451" font-family="HelveticaNeue-Bold, Helvetica Neue" font-weight="bold" fill="#000000"> </tspan>
                <tspan x="350.487" y="451" font-family="HelveticaNeue-Bold, Helvetica Neue" font-weight="bold" fill="#14BA43">0.45</tspan>
                <tspan x="385.515" y="451" font-family="HelveticaNeue-Bold, Helvetica Neue" font-weight="bold" fill="#000000"> </tspan>
                <tspan x="390.519" y="451" fill="#000000">=</tspan>
                <tspan x="260.044" y="473" font-size="14" fill="#000000">0.5*0.25+0.9*0.25+0.2*0.5</tspan>
            </text>
            <text id="Score-=-0.1-=-0.1*0." font-family="HelveticaNeue, Helvetica Neue" font-size="18" font-weight="normal">
                <tspan x="769.685" y="451" fill="#000000">Score =</tspan>
                <tspan x="832.487" y="451" font-family="HelveticaNeue-Bold, Helvetica Neue" font-weight="bold" fill="#000000"> </tspan>
                <tspan x="837.491" y="451" font-family="HelveticaNeue-Bold, Helvetica Neue" font-weight="bold" fill="#14BA43">0.1</tspan>
                <tspan x="862.511" y="451" font-family="HelveticaNeue-Bold, Helvetica Neue" font-weight="bold" fill="#000000"> </tspan>
                <tspan x="867.515" y="451" fill="#000000">= </tspan>
                <tspan x="755.666" y="473" font-size="14" fill="#000000">0.1*0.2+0.6*0.4+0.3*0</tspan>
            </text>
            <text id="Score-=-0.9" font-family="HelveticaNeue, Helvetica Neue" font-size="18" font-weight="normal" fill="#000000">
                <tspan x="280.587" y="796">Score =</tspan>
                <tspan x="343.389" y="796" font-family="HelveticaNeue-Bold, Helvetica Neue" font-weight="bold"> 0.9</tspan>
            </text>
            <text id="Score-=-0.2" font-family="HelveticaNeue, Helvetica Neue" font-size="18" font-weight="normal" fill="#000000">
                <tspan x="533.587" y="884">Score =</tspan>
                <tspan x="596.389" y="884" font-family="HelveticaNeue-Bold, Helvetica Neue" font-weight="bold"> 0.2</tspan>
            </text>
            <text id="Score-=-0.4" font-family="HelveticaNeue, Helvetica Neue" font-size="18" font-weight="normal" fill="#000000">
                <tspan x="823.587" y="834">Score =</tspan>
                <tspan x="886.389" y="834" font-family="HelveticaNeue-Bold, Helvetica Neue" font-weight="bold"> 0.4</tspan>
            </text>
            <text id="Score-=-0" font-family="HelveticaNeue, Helvetica Neue" font-size="18" font-weight="normal" fill="#000000">
                <tspan x="1041.093" y="794">Score =</tspan>
                <tspan x="1103.895" y="794" font-family="HelveticaNeue-Bold, Helvetica Neue" font-weight="bold"> 0</tspan>
            </text>
            <text id="Score-=-0.275-=-0.5*" font-family="HelveticaNeue, Helvetica Neue" font-size="32" font-weight="normal">
                <tspan x="465.148" y="239" fill="#000000">Score =</tspan>
                <tspan x="576.796" y="239" font-family="HelveticaNeue-Bold, Helvetica Neue" font-weight="bold" fill="#000000"> </tspan>
                <tspan x="585.692" y="239" font-family="HelveticaNeue-Bold, Helvetica Neue" font-weight="bold" fill="#14BA43">0.275</tspan>
                <tspan x="665.756" y="239" font-family="HelveticaNeue-Bold, Helvetica Neue" font-weight="bold" fill="#000000"> </tspan>
                <tspan x="674.652" y="239" fill="#000000">=</tspan>
                <tspan x="483.04" y="277" font-size="26" fill="#000000">0.5*0.45+0.5*0.1</tspan>
            </text>
            <rect id="Rectangle" stroke="#979797" x="0.5" y="0.5" width="1187" height="928" rx="4"></rect>
            <text id="OKR-Tracking" font-family="HelveticaNeue-Light, Helvetica Neue" font-size="52" font-weight="300" fill="#000000">
                <tspan x="432.346" y="72">OKR Tracking</tspan>
            </text>
        </g>
    </g>
</svg>