<?xml version="1.0" encoding="utf-8"?>
<!-- Generator: Adobe Illustrator 23.0.2, SVG Export Plug-In . SVG Version: 6.00 Build 0)  -->
<svg version="1.1" xmlns="http://www.w3.org/2000/svg" xmlns:xlink="http://www.w3.org/1999/xlink" x="0px" y="0px"
	 viewBox="0 0 882 300" style="enable-background:new 0 0 882 300;" xml:space="preserve">
<style type="text/css">
	.st0{fill:#C4C3C6;}
	.st1{fill:#FFFFFF;}
	.st2{fill-rule:evenodd;clip-rule:evenodd;}
	.st3{fill-rule:evenodd;clip-rule:evenodd;fill:#C4C3C6;}
	.st4{fill-rule:evenodd;clip-rule:evenodd;fill:#FFFFFF;}
	.st5{fill:#010101;}
	.st6{fill:none;}
	.st7{fill-rule:evenodd;clip-rule:evenodd;fill:#B1B2B7;}
	.st8{fill-rule:evenodd;clip-rule:evenodd;fill:#FDFDFD;}
	.st9{fill-rule:evenodd;clip-rule:evenodd;fill:#F9F9F9;}
</style>
<g id="Layer_4">
	<path d="M876,209H6c-3.3,0-6-2.7-6-6V6c0-3.3,2.7-6,6-6h870c3.3,0,6,2.7,6,6v197C882,206.3,879.3,209,876,209z"/>
	<g>
		<path class="st0" d="M65,133.5c-1.8,0-2.7,0.7-2.7,2c0,0.8,0.2,1.3,0.6,1.6s1.3,0.6,2.5,0.8c1.3,0.3,2.2,0.6,2.7,1.1
			c0.5,0.5,0.8,1.2,0.8,2.2c0,2.6-1.3,3.8-4,3.8c-0.9,0-2-0.1-3.3-0.3l-0.6-0.1l0.1-1.2c1.6,0.2,2.9,0.3,3.7,0.3
			c1.8,0,2.7-0.8,2.7-2.5c0-0.7-0.2-1.2-0.6-1.4c-0.4-0.3-1.1-0.5-2.2-0.7c-1.4-0.3-2.4-0.7-3-1.2c-0.6-0.5-0.9-1.3-0.9-2.4
			c0-2.2,1.3-3.3,4-3.3c0.9,0,1.9,0.1,3.1,0.3l0.6,0.1l-0.1,1.2C66.8,133.6,65.7,133.5,65,133.5z"/>
		<path class="st0" d="M75.6,137.1h-2.9v4.3c0,1,0.1,1.7,0.2,2c0.1,0.3,0.5,0.5,1.1,0.5l1.6-0.1l0.1,1.1c-0.8,0.1-1.4,0.2-1.8,0.2
			c-0.9,0-1.6-0.2-1.9-0.7c-0.4-0.5-0.5-1.3-0.5-2.6v-4.7h-1.3v-1.2h1.3v-2.8h1.3v2.8h2.9V137.1z"/>
		<path class="st0" d="M83.6,138.6v4.6c0,0.4,0.4,0.7,1,0.8l-0.1,1.1c-0.9,0-1.7-0.2-2.1-0.7c-1.1,0.5-2.2,0.7-3.2,0.7
			c-0.8,0-1.5-0.2-1.9-0.7c-0.4-0.5-0.6-1.1-0.6-2c0-0.9,0.2-1.5,0.7-1.9c0.4-0.4,1.1-0.7,2.1-0.8l2.8-0.3v-0.8c0-0.6-0.1-1-0.4-1.3
			c-0.3-0.3-0.6-0.4-1.1-0.4c-1,0-2,0.1-3,0.2l-0.6,0.1l-0.1-1c1.3-0.3,2.5-0.4,3.5-0.4s1.8,0.2,2.2,0.7
			C83.3,136.9,83.6,137.6,83.6,138.6z M78,142.3c0,1.1,0.5,1.7,1.4,1.7c0.8,0,1.6-0.1,2.4-0.4l0.4-0.1v-3l-2.7,0.3
			c-0.5,0-0.9,0.2-1.2,0.5C78.1,141.4,78,141.8,78,142.3z"/>
		<path class="st0" d="M86.2,144.9v-9h1.3v1.2c1-0.7,2.1-1.2,3.3-1.4v1.4c-0.5,0.1-1,0.2-1.6,0.5c-0.5,0.2-1,0.4-1.3,0.5l-0.5,0.2
			v6.6H86.2z"/>
		<path class="st0" d="M97.1,137.1h-2.9v4.3c0,1,0.1,1.7,0.2,2c0.1,0.3,0.5,0.5,1.1,0.5l1.6-0.1l0.1,1.1c-0.8,0.1-1.4,0.2-1.8,0.2
			c-0.9,0-1.6-0.2-1.9-0.7c-0.4-0.5-0.5-1.3-0.5-2.6v-4.7h-1.3v-1.2h1.3v-2.8h1.3v2.8h2.9V137.1z"/>
		<path class="st0" d="M104.1,144.9h-1.4V132h1.4v4.4c1-0.5,1.9-0.7,2.8-0.7c1.2,0,2,0.3,2.4,1s0.6,1.8,0.6,3.5v4.8h-1.4v-4.7
			c0-1.2-0.1-2.1-0.4-2.6c-0.2-0.5-0.8-0.7-1.6-0.7c-0.8,0-1.5,0.1-2.2,0.4l-0.3,0.1V144.9z"/>
		<path class="st0" d="M118.5,143.8l0.5-0.1l0,1.1c-1.4,0.2-2.5,0.3-3.5,0.3c-1.3,0-2.2-0.4-2.8-1.1s-0.8-1.9-0.8-3.5
			c0-3.2,1.3-4.7,3.8-4.7c1.2,0,2.1,0.3,2.7,1c0.6,0.7,0.9,1.7,0.9,3.2l-0.1,1h-5.9c0,1,0.2,1.7,0.5,2.2s1,0.7,1.9,0.7
			S117.6,143.9,118.5,143.8z M118,139.9c0-1.1-0.2-1.9-0.5-2.3s-0.9-0.7-1.7-0.7s-1.4,0.2-1.8,0.7c-0.4,0.5-0.6,1.2-0.6,2.3H118z"/>
		<path class="st0" d="M121.5,144.9v-9h1.3v1.2c1-0.7,2.1-1.2,3.3-1.4v1.4c-0.5,0.1-1,0.2-1.6,0.5c-0.5,0.2-1,0.4-1.3,0.5l-0.5,0.2
			v6.6H121.5z"/>
		<path class="st0" d="M133.7,143.8l0.5-0.1l0,1.1c-1.4,0.2-2.5,0.3-3.5,0.3c-1.3,0-2.2-0.4-2.8-1.1s-0.8-1.9-0.8-3.5
			c0-3.2,1.3-4.7,3.8-4.7c1.2,0,2.1,0.3,2.7,1c0.6,0.7,0.9,1.7,0.9,3.2l-0.1,1h-5.9c0,1,0.2,1.7,0.5,2.2s1,0.7,1.9,0.7
			S132.7,143.9,133.7,143.8z M133.2,139.9c0-1.1-0.2-1.9-0.5-2.3s-0.9-0.7-1.7-0.7s-1.4,0.2-1.8,0.7c-0.4,0.5-0.6,1.2-0.6,2.3H133.2
			z"/>
		<path class="st0" d="M145.2,137.1h-2.9v4.3c0,1,0.1,1.7,0.2,2c0.1,0.3,0.5,0.5,1.1,0.5l1.6-0.1l0.1,1.1c-0.8,0.1-1.4,0.2-1.8,0.2
			c-0.9,0-1.6-0.2-1.9-0.7c-0.4-0.5-0.5-1.3-0.5-2.6v-4.7h-1.3v-1.2h1.3v-2.8h1.3v2.8h2.9V137.1z"/>
		<path class="st0" d="M146.5,140.4c0-1.6,0.3-2.8,0.9-3.6c0.6-0.7,1.6-1.1,3-1.1c1.4,0,2.4,0.4,3,1.1s0.9,1.9,0.9,3.6
			s-0.3,2.8-0.8,3.6c-0.6,0.7-1.6,1.1-3,1.1c-1.5,0-2.5-0.4-3-1.1C146.8,143.2,146.5,142,146.5,140.4z M147.9,140.4
			c0,1.3,0.2,2.2,0.5,2.8c0.3,0.5,1,0.8,2,0.8c1,0,1.7-0.3,2-0.8s0.5-1.4,0.5-2.8c0-1.3-0.2-2.2-0.5-2.7c-0.3-0.5-1-0.7-1.9-0.7
			c-0.9,0-1.6,0.2-1.9,0.7C148.1,138.2,147.9,139.1,147.9,140.4z"/>
		<path class="st0" d="M160.5,144.9V132h1.4v12.9H160.5z"/>
		<path class="st0" d="M170.6,143.8l0.5-0.1l0,1.1c-1.4,0.2-2.5,0.3-3.5,0.3c-1.3,0-2.2-0.4-2.8-1.1s-0.8-1.9-0.8-3.5
			c0-3.2,1.3-4.7,3.8-4.7c1.2,0,2.1,0.3,2.7,1c0.6,0.7,0.9,1.7,0.9,3.2l-0.1,1h-5.9c0,1,0.2,1.7,0.5,2.2s1,0.7,1.9,0.7
			S169.7,143.9,170.6,143.8z M170.2,139.9c0-1.1-0.2-1.9-0.5-2.3s-0.9-0.7-1.7-0.7s-1.4,0.2-1.8,0.7c-0.4,0.5-0.6,1.2-0.6,2.3H170.2
			z"/>
		<path class="st0" d="M180,138.6v4.6c0,0.4,0.4,0.7,1,0.8l-0.1,1.1c-0.9,0-1.7-0.2-2.1-0.7c-1.1,0.5-2.2,0.7-3.2,0.7
			c-0.8,0-1.5-0.2-1.9-0.7c-0.4-0.5-0.6-1.1-0.6-2c0-0.9,0.2-1.5,0.7-1.9c0.4-0.4,1.1-0.7,2.1-0.8l2.8-0.3v-0.8c0-0.6-0.1-1-0.4-1.3
			c-0.3-0.3-0.6-0.4-1.1-0.4c-1,0-2,0.1-3,0.2l-0.6,0.1l-0.1-1c1.3-0.3,2.5-0.4,3.5-0.4s1.8,0.2,2.2,0.7
			C179.7,136.9,180,137.6,180,138.6z M174.4,142.3c0,1.1,0.5,1.7,1.4,1.7c0.8,0,1.6-0.1,2.4-0.4l0.4-0.1v-3l-2.7,0.3
			c-0.5,0-0.9,0.2-1.2,0.5C174.5,141.4,174.4,141.8,174.4,142.3z"/>
		<path class="st0" d="M182.6,144.9v-9h1.3v1.2c1-0.7,2.1-1.2,3.3-1.4v1.4c-0.5,0.1-1,0.2-1.6,0.5c-0.5,0.2-1,0.4-1.3,0.5l-0.5,0.2
			v6.6H182.6z"/>
		<path class="st0" d="M190.2,144.9h-1.4v-9h1.3v0.6c1-0.5,1.9-0.8,2.8-0.8c1.2,0,2,0.3,2.4,1s0.6,1.8,0.6,3.5v4.8h-1.3v-4.7
			c0-1.2-0.1-2.1-0.4-2.6s-0.8-0.7-1.6-0.7c-0.4,0-0.8,0.1-1.2,0.2c-0.4,0.1-0.8,0.2-1,0.3l-0.3,0.2V144.9z"/>
		<path class="st0" d="M208.8,138.6v4.6c0,0.4,0.4,0.7,1,0.8l-0.1,1.1c-0.9,0-1.7-0.2-2.1-0.7c-1.1,0.5-2.2,0.7-3.2,0.7
			c-0.8,0-1.5-0.2-1.9-0.7c-0.4-0.5-0.6-1.1-0.6-2c0-0.9,0.2-1.5,0.7-1.9c0.4-0.4,1.1-0.7,2.1-0.8l2.8-0.3v-0.8c0-0.6-0.1-1-0.4-1.3
			c-0.3-0.3-0.6-0.4-1.1-0.4c-1,0-2,0.1-3,0.2l-0.6,0.1l-0.1-1c1.3-0.3,2.5-0.4,3.5-0.4s1.8,0.2,2.2,0.7
			C208.6,136.9,208.8,137.6,208.8,138.6z M203.3,142.3c0,1.1,0.5,1.7,1.4,1.7c0.8,0,1.6-0.1,2.4-0.4l0.4-0.1v-3l-2.7,0.3
			c-0.5,0-0.9,0.2-1.2,0.5C203.4,141.4,203.3,141.8,203.3,142.3z"/>
		<path class="st0" d="M215.5,135.7c1.2,0,2.1,0.3,2.5,1c0.5,0.7,0.7,1.9,0.7,3.6s-0.3,2.9-0.9,3.6c-0.6,0.7-1.7,1.1-3.3,1.1
			c-0.5,0-1.3,0-2.5-0.1l-0.5-0.1V132h1.3v4.4C213.7,136,214.6,135.7,215.5,135.7z M214.5,143.9c1.2,0,2-0.3,2.3-0.8
			c0.4-0.5,0.6-1.4,0.6-2.7c0-1.3-0.2-2.2-0.5-2.7c-0.3-0.5-0.8-0.8-1.6-0.8c-0.7,0-1.4,0.1-2.1,0.4l-0.4,0.1v6.3
			C213.6,143.9,214.2,143.9,214.5,143.9z"/>
		<path class="st0" d="M220.6,140.4c0-1.6,0.3-2.8,0.9-3.6c0.6-0.7,1.6-1.1,3-1.1c1.4,0,2.4,0.4,3,1.1s0.9,1.9,0.9,3.6
			s-0.3,2.8-0.8,3.6c-0.6,0.7-1.6,1.1-3,1.1c-1.5,0-2.5-0.4-3-1.1C220.9,143.2,220.6,142,220.6,140.4z M222,140.4
			c0,1.3,0.2,2.2,0.5,2.8c0.3,0.5,1,0.8,2,0.8c1,0,1.7-0.3,2-0.8s0.5-1.4,0.5-2.8c0-1.3-0.2-2.2-0.5-2.7c-0.3-0.5-1-0.7-1.9-0.7
			c-0.9,0-1.6,0.2-1.9,0.7C222.1,138.2,222,139.1,222,140.4z"/>
		<path class="st0" d="M236.1,135.9h1.4v9h-1.4v-0.6c-0.9,0.5-1.8,0.8-2.7,0.8c-1.2,0-2-0.3-2.4-1c-0.4-0.6-0.6-1.8-0.6-3.5v-4.7
			h1.4v4.7c0,1.3,0.1,2.2,0.3,2.6s0.7,0.7,1.5,0.7c0.4,0,0.8-0.1,1.2-0.2c0.4-0.1,0.7-0.2,0.9-0.3l0.3-0.2V135.9z"/>
		<path class="st0" d="M244.7,137.1h-2.9v4.3c0,1,0.1,1.7,0.2,2c0.1,0.3,0.5,0.5,1.1,0.5l1.6-0.1l0.1,1.1c-0.8,0.1-1.4,0.2-1.8,0.2
			c-0.9,0-1.6-0.2-1.9-0.7c-0.4-0.5-0.5-1.3-0.5-2.6v-4.7h-1.3v-1.2h1.3v-2.8h1.3v2.8h2.9V137.1z"/>
		<path class="st0" d="M255,137.1h-2.9v4.3c0,1,0.1,1.7,0.2,2c0.1,0.3,0.5,0.5,1.1,0.5l1.6-0.1l0.1,1.1c-0.8,0.1-1.4,0.2-1.8,0.2
			c-0.9,0-1.6-0.2-1.9-0.7c-0.4-0.5-0.5-1.3-0.5-2.6v-4.7h-1.3v-1.2h1.3v-2.8h1.3v2.8h2.9V137.1z"/>
		<path class="st0" d="M258,144.9h-1.4V132h1.4v4.4c1-0.5,1.9-0.7,2.8-0.7c1.2,0,2,0.3,2.4,1s0.6,1.8,0.6,3.5v4.8h-1.4v-4.7
			c0-1.2-0.1-2.1-0.4-2.6c-0.2-0.5-0.8-0.7-1.6-0.7c-0.8,0-1.5,0.1-2.2,0.4l-0.3,0.1V144.9z"/>
		<path class="st0" d="M272.4,143.8l0.5-0.1l0,1.1c-1.4,0.2-2.5,0.3-3.5,0.3c-1.3,0-2.2-0.4-2.8-1.1s-0.8-1.9-0.8-3.5
			c0-3.2,1.3-4.7,3.8-4.7c1.2,0,2.1,0.3,2.7,1c0.6,0.7,0.9,1.7,0.9,3.2l-0.1,1h-5.9c0,1,0.2,1.7,0.5,2.2s1,0.7,1.9,0.7
			S271.5,143.9,272.4,143.8z M271.9,139.9c0-1.1-0.2-1.9-0.5-2.3s-0.9-0.7-1.7-0.7s-1.4,0.2-1.8,0.7c-0.4,0.5-0.6,1.2-0.6,2.3H271.9
			z"/>
		<path class="st0" d="M278.4,146.2V145c0.9,0,1.4-0.1,1.7-0.3c0.2-0.2,0.4-0.8,0.4-1.6v-10.5h1.4l0,10.7c0,1-0.2,1.7-0.5,2.2
			c-0.3,0.4-0.8,0.6-1.6,0.7C279.3,146.2,278.9,146.2,278.4,146.2z"/>
		<path class="st0" d="M284.1,140.4c0-1.6,0.3-2.8,0.9-3.6c0.6-0.7,1.6-1.1,3-1.1c1.4,0,2.4,0.4,3,1.1s0.9,1.9,0.9,3.6
			s-0.3,2.8-0.8,3.6c-0.6,0.7-1.6,1.1-3,1.1c-1.5,0-2.5-0.4-3-1.1C284.3,143.2,284.1,142,284.1,140.4z M285.4,140.4
			c0,1.3,0.2,2.2,0.5,2.8c0.3,0.5,1,0.8,2,0.8c1,0,1.7-0.3,2-0.8s0.5-1.4,0.5-2.8c0-1.3-0.2-2.2-0.5-2.7c-0.3-0.5-1-0.7-1.9-0.7
			c-0.9,0-1.6,0.2-1.9,0.7C285.6,138.2,285.4,139.1,285.4,140.4z"/>
		<path class="st0" d="M292.9,135.9h1.3l2.2,7.8h0.6l2.3-7.8h1.4l-3.7,13h-1.4l1.2-4h-1.3L292.9,135.9z"/>
		<path class="st0" d="M305.2,136.9c-1.3,0-2,0.5-2,1.4c0,0.4,0.1,0.7,0.4,0.9s1,0.4,2.1,0.5c1.1,0.2,1.8,0.4,2.3,0.8
			c0.4,0.3,0.7,1,0.7,1.9c0,0.9-0.3,1.6-0.9,2c-0.6,0.4-1.5,0.6-2.6,0.6c-0.7,0-1.6-0.1-2.6-0.3l-0.5-0.1l0.1-1.2
			c1.4,0.2,2.4,0.3,3.1,0.3c0.7,0,1.2-0.1,1.6-0.3c0.4-0.2,0.5-0.6,0.5-1.1s-0.2-0.9-0.5-1.1c-0.3-0.2-1-0.4-2.1-0.5
			c-1.1-0.2-1.8-0.4-2.2-0.7c-0.4-0.3-0.7-0.9-0.7-1.8s0.3-1.5,0.9-1.9s1.4-0.6,2.3-0.6c0.7,0,1.6,0.1,2.8,0.3l0.5,0.1l0,1.2
			C307,137,305.9,136.9,305.2,136.9z"/>
		<path class="st0" d="M315.4,137.1h-2.9v4.3c0,1,0.1,1.7,0.2,2c0.1,0.3,0.5,0.5,1.1,0.5l1.6-0.1l0.1,1.1c-0.8,0.1-1.4,0.2-1.8,0.2
			c-0.9,0-1.6-0.2-1.9-0.7c-0.4-0.5-0.5-1.3-0.5-2.6v-4.7h-1.3v-1.2h1.3v-2.8h1.3v2.8h2.9V137.1z"/>
		<path class="st0" d="M317,144.9v-9h1.3v1.2c1-0.7,2.1-1.2,3.3-1.4v1.4c-0.5,0.1-1,0.2-1.6,0.5c-0.5,0.2-1,0.4-1.3,0.5l-0.5,0.2
			v6.6H317z"/>
		<path class="st0" d="M329.2,143.8l0.5-0.1l0,1.1c-1.4,0.2-2.5,0.3-3.5,0.3c-1.3,0-2.2-0.4-2.8-1.1s-0.8-1.9-0.8-3.5
			c0-3.2,1.3-4.7,3.8-4.7c1.2,0,2.1,0.3,2.7,1c0.6,0.7,0.9,1.7,0.9,3.2l-0.1,1h-5.9c0,1,0.2,1.7,0.5,2.2s1,0.7,1.9,0.7
			S328.3,143.9,329.2,143.8z M328.7,139.9c0-1.1-0.2-1.9-0.5-2.3s-0.9-0.7-1.7-0.7s-1.4,0.2-1.8,0.7c-0.4,0.5-0.6,1.2-0.6,2.3H328.7
			z"/>
		<path class="st0" d="M338.5,138.6v4.6c0,0.4,0.4,0.7,1,0.8l-0.1,1.1c-0.9,0-1.7-0.2-2.1-0.7c-1.1,0.5-2.2,0.7-3.2,0.7
			c-0.8,0-1.5-0.2-1.9-0.7c-0.4-0.5-0.6-1.1-0.6-2c0-0.9,0.2-1.5,0.7-1.9c0.4-0.4,1.1-0.7,2.1-0.8l2.8-0.3v-0.8c0-0.6-0.1-1-0.4-1.3
			c-0.3-0.3-0.6-0.4-1.1-0.4c-1,0-2,0.1-3,0.2l-0.6,0.1l-0.1-1c1.3-0.3,2.5-0.4,3.5-0.4s1.8,0.2,2.2,0.7
			C338.3,136.9,338.5,137.6,338.5,138.6z M333,142.3c0,1.1,0.5,1.7,1.4,1.7c0.8,0,1.6-0.1,2.4-0.4l0.4-0.1v-3l-2.7,0.3
			c-0.5,0-0.9,0.2-1.2,0.5C333.1,141.4,333,141.8,333,142.3z"/>
		<path class="st0" d="M342.5,144.9h-1.4v-9h1.3v0.6c0.9-0.5,1.8-0.8,2.6-0.8c1.1,0,1.9,0.3,2.3,0.9c0.4-0.2,0.9-0.5,1.5-0.6
			c0.6-0.2,1.2-0.3,1.7-0.3c1.2,0,2,0.3,2.4,1c0.4,0.6,0.6,1.8,0.6,3.5v4.8h-1.3v-4.7c0-1.2-0.1-2.1-0.4-2.6s-0.8-0.7-1.5-0.7
			c-0.4,0-0.8,0.1-1.2,0.2c-0.4,0.1-0.7,0.2-1,0.3l-0.3,0.2c0.2,0.4,0.2,1.3,0.2,2.6v4.7h-1.3v-4.6c0-1.3-0.1-2.2-0.4-2.6
			c-0.2-0.5-0.7-0.7-1.5-0.7c-0.4,0-0.8,0.1-1.2,0.2c-0.4,0.1-0.7,0.2-0.9,0.3l-0.3,0.2V144.9z"/>
		<path class="st0" d="M360.2,148.9v-13h1.3v0.6c0.9-0.6,1.8-0.8,2.7-0.8c1.1,0,2,0.4,2.5,1.1c0.5,0.7,0.8,1.9,0.8,3.6
			s-0.3,2.9-0.9,3.6c-0.6,0.7-1.6,1.1-3,1.1c-0.7,0-1.4-0.1-2-0.2v4H360.2z M364,136.9c-0.4,0-0.7,0.1-1.2,0.2
			c-0.4,0.1-0.7,0.2-1,0.4l-0.3,0.2v6.1c0.9,0.1,1.5,0.2,1.9,0.2c1,0,1.7-0.3,2-0.8s0.6-1.5,0.6-2.7s-0.2-2.1-0.5-2.7
			C365.2,137.2,364.7,136.9,364,136.9z"/>
		<path class="st0" d="M369.7,144.9v-9h1.3v1.2c1-0.7,2.1-1.2,3.3-1.4v1.4c-0.5,0.1-1,0.2-1.6,0.5c-0.5,0.2-1,0.4-1.3,0.5l-0.5,0.2
			v6.6H369.7z"/>
		<path class="st0" d="M375.3,140.4c0-1.6,0.3-2.8,0.9-3.6c0.6-0.7,1.6-1.1,3-1.1c1.4,0,2.4,0.4,3,1.1s0.9,1.9,0.9,3.6
			s-0.3,2.8-0.8,3.6c-0.6,0.7-1.6,1.1-3,1.1c-1.5,0-2.5-0.4-3-1.1C375.6,143.2,375.3,142,375.3,140.4z M376.7,140.4
			c0,1.3,0.2,2.2,0.5,2.8c0.3,0.5,1,0.8,2,0.8c1,0,1.7-0.3,2-0.8s0.5-1.4,0.5-2.8c0-1.3-0.2-2.2-0.5-2.7c-0.3-0.5-1-0.7-1.9-0.7
			c-0.9,0-1.6,0.2-1.9,0.7C376.9,138.2,376.7,139.1,376.7,140.4z"/>
		<path class="st0" d="M385.3,144.7v-8.8h1.3v8.8c0,1.1-0.2,1.9-0.6,2.5c-0.4,0.6-1.2,1.1-2.4,1.7l-0.5-1c0.9-0.5,1.5-1,1.8-1.4
			C385.1,146.1,385.3,145.5,385.3,144.7z M385.3,133.9v-1.6h1.3v1.6H385.3z"/>
		<path class="st0" d="M395.3,143.8l0.5-0.1l0,1.1c-1.4,0.2-2.5,0.3-3.5,0.3c-1.3,0-2.2-0.4-2.8-1.1s-0.8-1.9-0.8-3.5
			c0-3.2,1.3-4.7,3.8-4.7c1.2,0,2.1,0.3,2.7,1c0.6,0.7,0.9,1.7,0.9,3.2l-0.1,1h-5.9c0,1,0.2,1.7,0.5,2.2s1,0.7,1.9,0.7
			S394.4,143.9,395.3,143.8z M394.8,139.9c0-1.1-0.2-1.9-0.5-2.3s-0.9-0.7-1.7-0.7s-1.4,0.2-1.8,0.7c-0.4,0.5-0.6,1.2-0.6,2.3H394.8
			z"/>
		<path class="st0" d="M401.6,135.7c0.4,0,1.1,0.1,2,0.2l0.4,0.1l-0.1,1.1c-1-0.1-1.7-0.2-2.1-0.2c-1,0-1.7,0.2-2.1,0.7
			c-0.4,0.5-0.5,1.4-0.5,2.7s0.2,2.2,0.5,2.7c0.3,0.5,1.1,0.8,2.1,0.8l2.1-0.2l0.1,1.1c-1.1,0.2-2,0.3-2.5,0.3
			c-1.4,0-2.4-0.4-2.9-1.1c-0.5-0.7-0.8-1.9-0.8-3.6s0.3-2.9,0.9-3.6C399.3,136.1,400.3,135.7,401.6,135.7z"/>
		<path class="st0" d="M410.8,137.1h-2.9v4.3c0,1,0.1,1.7,0.2,2c0.1,0.3,0.5,0.5,1.1,0.5l1.6-0.1l0.1,1.1c-0.8,0.1-1.4,0.2-1.8,0.2
			c-0.9,0-1.6-0.2-1.9-0.7c-0.4-0.5-0.5-1.3-0.5-2.6v-4.7h-1.3v-1.2h1.3v-2.8h1.3v2.8h2.9V137.1z"/>
		<path class="st0" d="M416,140.4c0-1.6,0.3-2.8,0.9-3.6c0.6-0.7,1.6-1.1,3-1.1c1.4,0,2.4,0.4,3,1.1s0.9,1.9,0.9,3.6
			s-0.3,2.8-0.8,3.6c-0.6,0.7-1.6,1.1-3,1.1c-1.5,0-2.5-0.4-3-1.1C416.3,143.2,416,142,416,140.4z M417.4,140.4
			c0,1.3,0.2,2.2,0.5,2.8c0.3,0.5,1,0.8,2,0.8c1,0,1.7-0.3,2-0.8s0.5-1.4,0.5-2.8c0-1.3-0.2-2.2-0.5-2.7c-0.3-0.5-1-0.7-1.9-0.7
			c-0.9,0-1.6,0.2-1.9,0.7C417.6,138.2,417.4,139.1,417.4,140.4z"/>
		<path class="st0" d="M427.2,144.9h-1.4v-9h1.3v0.6c1-0.5,1.9-0.8,2.8-0.8c1.2,0,2,0.3,2.4,1s0.6,1.8,0.6,3.5v4.8h-1.3v-4.7
			c0-1.2-0.1-2.1-0.4-2.6s-0.8-0.7-1.6-0.7c-0.4,0-0.8,0.1-1.2,0.2c-0.4,0.1-0.8,0.2-1,0.3l-0.3,0.2V144.9z"/>
		<path class="st0" d="M444.7,139.8v-1.2h3.4v6.1c-1.5,0.3-2.9,0.4-4,0.4c-1.8,0-3.1-0.5-3.8-1.6c-0.7-1-1.1-2.7-1.1-4.8
			c0-2.2,0.4-3.8,1.1-4.8c0.7-1,1.9-1.6,3.7-1.6c1.1,0,2.3,0.1,3.5,0.4l0.6,0.1l-0.1,1.2c-1.5-0.3-2.8-0.4-3.9-0.4
			c-1.4,0-2.3,0.4-2.8,1.2c-0.5,0.8-0.7,2.1-0.7,4s0.2,3.2,0.7,4c0.5,0.8,1.4,1.2,2.8,1.2c0.8,0,1.7-0.1,2.6-0.3v-3.8H444.7z"/>
		<path class="st0" d="M450.6,133.9v-1.6h1.3v1.6H450.6z M450.6,144.9v-9h1.3v9H450.6z"/>
		<path class="st0" d="M459.2,137.1h-2.9v4.3c0,1,0.1,1.7,0.2,2c0.1,0.3,0.5,0.5,1.1,0.5l1.6-0.1l0.1,1.1c-0.8,0.1-1.4,0.2-1.8,0.2
			c-0.9,0-1.6-0.2-1.9-0.7c-0.4-0.5-0.5-1.3-0.5-2.6v-4.7h-1.3v-1.2h1.3v-2.8h1.3v2.8h2.9V137.1z"/>
		<path class="st0" d="M462.2,144.9h-1.3V132h1.3v4.4c1-0.5,1.9-0.7,2.8-0.7c1.2,0,2,0.3,2.4,1s0.6,1.8,0.6,3.5v4.8h-1.4v-4.7
			c0-1.2-0.1-2.1-0.4-2.6c-0.2-0.5-0.8-0.7-1.6-0.7c-0.8,0-1.5,0.1-2.2,0.4l-0.3,0.1V144.9z"/>
		<path class="st0" d="M476.2,135.9h1.3v9h-1.3v-0.6c-0.9,0.5-1.8,0.8-2.7,0.8c-1.2,0-2-0.3-2.4-1c-0.4-0.6-0.6-1.8-0.6-3.5v-4.7
			h1.3v4.7c0,1.3,0.1,2.2,0.3,2.6c0.2,0.4,0.7,0.7,1.5,0.7c0.4,0,0.8-0.1,1.2-0.2c0.4-0.1,0.7-0.2,0.9-0.3l0.3-0.2V135.9z"/>
		<path class="st0" d="M484.1,135.7c1.2,0,2.1,0.3,2.5,1c0.5,0.7,0.7,1.9,0.7,3.6s-0.3,2.9-0.9,3.6c-0.6,0.7-1.7,1.1-3.3,1.1
			c-0.5,0-1.3,0-2.5-0.1l-0.5-0.1V132h1.3v4.4C482.3,136,483.2,135.7,484.1,135.7z M483.1,143.9c1.2,0,2-0.3,2.3-0.8
			c0.4-0.5,0.6-1.4,0.6-2.7c0-1.3-0.2-2.2-0.5-2.7c-0.3-0.5-0.8-0.8-1.6-0.8c-0.7,0-1.4,0.1-2.1,0.4l-0.4,0.1v6.3
			C482.2,143.9,482.8,143.9,483.1,143.9z"/>
	</g>
	<g>
		<path class="st1" d="M82.4,100.6H64.1V67.4h3.7v29.9h14.6V100.6z"/>
		<path class="st1" d="M103.4,83.9v12.3c0.1,1.2,1,1.9,2.8,2.1l-0.1,2.8c-2.5,0-4.4-0.6-5.7-1.9c-2.9,1.3-5.8,1.9-8.6,1.9
			c-2.2,0-3.9-0.6-5-1.9c-1.2-1.2-1.7-3-1.7-5.4s0.6-4.1,1.8-5.2c1.2-1.1,3-1.8,5.6-2l7.5-0.7v-2.1c0-1.6-0.4-2.8-1.1-3.5
			c-0.7-0.7-1.7-1.1-2.9-1.1c-2.6,0-5.2,0.2-8,0.5l-1.5,0.1l-0.1-2.7c3.5-0.7,6.6-1.1,9.4-1.1c2.7,0,4.7,0.6,5.9,1.9
			C102.8,79.2,103.4,81.2,103.4,83.9z M88.6,93.6c0,2.9,1.2,4.4,3.6,4.4c2.2,0,4.3-0.4,6.4-1.1l1.1-0.4v-7.9l-7.1,0.7
			c-1.4,0.1-2.5,0.5-3.1,1.2C88.9,91.3,88.6,92.3,88.6,93.6z"/>
		<path class="st1" d="M114.1,100.6h-3.6v-24h3.6v1.7c2.6-1.4,5.1-2.2,7.4-2.2c3.2,0,5.4,0.9,6.5,2.6c1.1,1.7,1.7,4.8,1.7,9.2v12.7
			H126V88c0-3.3-0.3-5.6-1-6.8c-0.7-1.2-2.1-1.8-4.2-1.8c-1,0-2.1,0.2-3.2,0.5c-1.1,0.3-2,0.6-2.6,0.9l-0.9,0.4V100.6z"/>
		<path class="st1" d="M154.7,66.1v34.5h-3.6V99c-2.5,1.4-4.9,2.1-7.3,2.1c-1.3,0-2.4-0.2-3.4-0.5s-1.9-0.9-2.7-1.7
			c-1.7-1.7-2.6-4.9-2.6-9.6c0-4.7,0.8-8,2.3-10.1c1.6-2.1,4.1-3.1,7.7-3.1c1.9,0,3.8,0.2,5.9,0.6V66.1H154.7z M142.2,97.5
			c0.6,0.2,1.3,0.3,2.2,0.3s1.9-0.2,3.1-0.5c1.1-0.3,2-0.6,2.7-0.9l1-0.4V79.8c-2-0.4-4-0.6-5.7-0.6c-2.4,0-4.1,0.8-5.1,2.3
			c-1,1.6-1.4,4-1.4,7.2c0,3.7,0.6,6.2,1.7,7.5C141.1,96.9,141.6,97.3,142.2,97.5z"/>
		<path class="st1" d="M161.7,71.2V67h3.6v4.2H161.7z M161.7,100.6v-24h3.6v24H161.7z"/>
		<path class="st1" d="M175.8,100.6h-3.6v-24h3.6v1.7c2.6-1.4,5.1-2.2,7.4-2.2c3.2,0,5.4,0.9,6.5,2.6c1.1,1.7,1.7,4.8,1.7,9.2v12.7
			h-3.6V88c0-3.3-0.3-5.6-1-6.8c-0.7-1.2-2.1-1.8-4.2-1.8c-1,0-2.1,0.2-3.2,0.5c-1.1,0.3-2,0.6-2.6,0.9l-0.9,0.4V100.6z"/>
		<path class="st1" d="M207.2,111.9c-3.8,0-6.5-0.5-8-1.6c-1.5-1-2.3-2.9-2.3-5.7c0-1.3,0.3-2.4,0.9-3.2c0.6-0.8,1.6-1.7,2.9-2.8
			c-0.9-0.6-1.3-1.7-1.3-3.3c0-0.5,0.4-1.6,1.2-3l0.4-0.8c-2.5-1.2-3.8-3.6-3.8-7.2c0-5.5,3-8.2,9-8.2c1.5,0,3,0.2,4.3,0.5l0.7,0.1
			l7.1-0.2v3.1l-4.6-0.1c1.1,1.1,1.6,2.7,1.6,4.8c0,3-0.7,5.1-2.2,6.3s-3.8,1.8-7,1.8c-0.9,0-1.6-0.1-2.4-0.2
			c-0.6,1.4-0.9,2.3-0.9,2.7c0,1,0.3,1.6,0.9,1.8c0.6,0.2,2.4,0.4,5.5,0.4c3.1,0,5.3,0.5,6.6,1.4c1.3,1,2,2.8,2,5.6
			C217.9,109.3,214.3,111.9,207.2,111.9z M200.4,104.4c0,1.7,0.5,2.9,1.4,3.5c0.9,0.7,2.7,1,5.2,1s4.4-0.4,5.5-1.1
			c1.1-0.7,1.7-1.9,1.7-3.5c0-1.6-0.4-2.7-1.2-3.2c-0.8-0.5-2.4-0.7-4.7-0.7l-5.2-0.2c-1.1,0.8-1.8,1.4-2.1,2
			C200.6,102.7,200.4,103.5,200.4,104.4z M200.8,84.3c0,1.9,0.4,3.2,1.3,4c0.8,0.8,2.2,1.2,4.2,1.2c2,0,3.3-0.4,4.2-1.2
			c0.8-0.8,1.2-2.2,1.2-4.1c0-1.9-0.4-3.3-1.2-4.1s-2.2-1.2-4.2-1.2c-2,0-3.4,0.4-4.2,1.2C201.2,81.1,200.8,82.4,200.8,84.3z"/>
		<path class="st1" d="M237.5,87.9v12.7h-3.7V67.4h12.3c3.5,0,6.2,0.8,7.9,2.4c1.8,1.6,2.7,4.2,2.7,7.6c0,5.1-2,8.3-6.1,9.6
			l6.4,13.5h-4.1l-6-12.7H237.5z M246.1,84.6c4.5,0,6.8-2.3,6.8-7s-2.3-7-6.8-7h-8.6v14H246.1z"/>
		<path class="st1" d="M278.6,97.6l1.4-0.1l0.1,2.8c-3.6,0.5-6.8,0.8-9.4,0.8c-3.5,0-5.9-1-7.3-3c-1.4-2-2.2-5.1-2.2-9.3
			c0-8.4,3.3-12.6,10-12.6c3.2,0,5.6,0.9,7.2,2.7c1.6,1.8,2.4,4.6,2.4,8.5l-0.2,2.7h-15.8c0,2.7,0.5,4.6,1.4,5.9
			c1,1.3,2.6,1.9,5,1.9C273.7,97.9,276.2,97.8,278.6,97.6z M277.3,87.2c0-2.9-0.5-5-1.4-6.2c-0.9-1.2-2.5-1.8-4.6-1.8
			c-2.1,0-3.7,0.6-4.8,1.9c-1.1,1.3-1.6,3.3-1.7,6.1H277.3z"/>
		<path class="st1" d="M286.6,111.3V76.6h3.6v1.7c2.4-1.5,4.8-2.2,7.2-2.2c3,0,5.2,1,6.6,2.9c1.4,1.9,2.1,5.1,2.1,9.6
			c0,4.4-0.8,7.6-2.4,9.6c-1.6,1.9-4.3,2.9-8,2.9c-2,0-3.7-0.2-5.4-0.5v10.7H286.6z M296.8,79.3c-1,0-2,0.2-3.1,0.5
			c-1.1,0.3-2,0.6-2.6,1l-0.9,0.5v16.2c2.3,0.4,4,0.5,5.2,0.5c2.6,0,4.4-0.7,5.4-2.2s1.6-3.9,1.6-7.2s-0.5-5.7-1.4-7.1
			C300,80,298.6,79.3,296.8,79.3z"/>
		<path class="st1" d="M310.8,88.6c0-4.4,0.8-7.6,2.4-9.5c1.6-2,4.2-2.9,7.9-2.9s6.4,1,7.9,2.9c1.6,2,2.3,5.1,2.3,9.5
			c0,4.4-0.7,7.6-2.2,9.6c-1.5,2-4.2,3-8.1,3c-3.9,0-6.6-1-8.1-3C311.5,96.1,310.8,92.9,310.8,88.6z M314.5,88.5
			c0,3.5,0.4,6,1.3,7.4c0.8,1.4,2.6,2.1,5.3,2.1s4.5-0.7,5.3-2.1c0.8-1.4,1.2-3.8,1.2-7.4s-0.5-5.9-1.4-7.3c-0.9-1.3-2.6-2-5.2-2
			s-4.2,0.7-5.2,2C315,82.6,314.5,85,314.5,88.5z"/>
		<path class="st1" d="M344.7,79.3c-3.5,0-5.2,1.2-5.2,3.6c0,1.1,0.4,1.9,1.2,2.4c0.8,0.5,2.6,0.9,5.5,1.4c2.8,0.5,4.9,1.2,6,2.1
			c1.2,0.9,1.8,2.6,1.8,5c0,2.5-0.8,4.3-2.4,5.4s-3.9,1.7-6.9,1.7c-2,0-4.3-0.2-7-0.7l-1.4-0.2l0.2-3.1c3.6,0.5,6.4,0.8,8.3,0.8
			s3.3-0.3,4.2-0.9c1-0.6,1.5-1.6,1.5-3c0-1.4-0.4-2.3-1.2-2.8c-0.8-0.5-2.7-1-5.5-1.4c-2.8-0.4-4.8-1.1-6-2
			c-1.2-0.9-1.8-2.5-1.8-4.8c0-2.3,0.8-4.1,2.5-5.2c1.6-1.1,3.7-1.7,6.2-1.7c2,0,4.4,0.2,7.3,0.7l1.3,0.2l-0.1,3.1
			C349.6,79.6,346.8,79.3,344.7,79.3z"/>
		<path class="st1" d="M359.5,71.2V67h3.6v4.2H359.5z M359.5,100.6v-24h3.6v24H359.5z"/>
		<path class="st1" d="M382.5,79.7h-7.6v11.5c0,2.8,0.2,4.6,0.6,5.4c0.4,0.9,1.4,1.3,2.9,1.3l4.3-0.3l0.2,3
			c-2.1,0.4-3.8,0.5-4.9,0.5c-2.5,0-4.2-0.6-5.2-1.8c-1-1.2-1.4-3.5-1.4-7V79.7h-3.4v-3.1h3.4v-7.3h3.6v7.3h7.6V79.7z"/>
		<path class="st1" d="M385.8,88.6c0-4.4,0.8-7.6,2.4-9.5c1.6-2,4.2-2.9,7.9-2.9s6.4,1,7.9,2.9c1.6,2,2.3,5.1,2.3,9.5
			c0,4.4-0.7,7.6-2.2,9.6c-1.5,2-4.2,3-8.1,3c-3.9,0-6.6-1-8.1-3C386.6,96.1,385.8,92.9,385.8,88.6z M389.5,88.5
			c0,3.5,0.4,6,1.3,7.4c0.8,1.4,2.6,2.1,5.3,2.1s4.5-0.7,5.3-2.1c0.8-1.4,1.2-3.8,1.2-7.4s-0.5-5.9-1.4-7.3c-0.9-1.3-2.6-2-5.2-2
			s-4.2,0.7-5.2,2C390,82.6,389.5,85,389.5,88.5z"/>
		<path class="st1" d="M412.2,100.6v-24h3.6v3.3c2.8-1.9,5.7-3.2,8.8-3.8v3.6c-1.3,0.3-2.7,0.7-4.2,1.2s-2.6,1-3.3,1.4l-1.2,0.6
			v17.6H412.2z"/>
		<path class="st1" d="M426.6,76.6h3.6l6,20.9h1.6l6-20.9h3.6l-10,34.7h-3.6l3.1-10.7h-3.6L426.6,76.6z"/>
	</g>
</g>
<g id="Layer_2">
</g>
<g id="Layer_3">
</g>
<g id="Layer_1">
	<g>
		
			<g id="Scroll_4_" transform="translate(76.483186, 92.413601) rotate(13.000000) translate(-76.483186, -92.413601) translate(6.483186, 59.913601)">
			<path class="st2" d="M728.9,7.3c-0.3-3.1-0.6-5.8-0.7-8c6.2,2.3,18.8,4.4,21.1,4.5c13.2,0.5,18.4-12,18.9-26.9
				c0.5-14.9-6.6-27.8-19.8-28.3c-10.2-0.4-74.8-6.9-101.9-7.8c-8.2-0.3-15.7,18-16.2,33.3c-0.1,3.1,4.2,9.9,11.9,18.2L728.9,7.3z"
				/>
			<path class="st3" d="M656.8-13.3c13.6,3.7,34.6,7.5,62.9,11.5c0.2-9.2,1-18.6,2.6-25.3c2-8.3,6.6-14.6,13.9-18.9l-86.7-6
				c-4.6,3.2-8.2,7.9-10,19.4C638.7-28.5,648.2-15.6,656.8-13.3z"/>
			<path class="st4" d="M716.6-27.4c7.8-9.5,14.1-15.7,19-18.7l-86.7-6.1c-4.2,3.1-7.2,9.7-9.1,19.9
				C685.8-22.7,711.4-21.1,716.6-27.4z"/>
			<g id="Group-3_4_" transform="translate(12.744498, 19.020401)">
				<path class="st4" d="M724.2-56.3c-1.8,1.6-8.7,5.6-9.1,16c-0.2,5.2,0.8,12.3,1.7,17c12.2,2.8,21.5,5.2,22.6,3.5
					c-4-1.2-7-3.6-8.8-7.4c-1.5-3-3.5-9.2-2.8-15.8c0.8-8.5,5.9-10.7,7-11.7L724.2-56.3z"/>
				<path class="st3" d="M716.7-23.4c12.2,2.7,21.5,5.1,22.6,3.5c-4-1.2-7-3.6-8.8-7.3c-0.8-1.6-2.5-5.8-6.9-8.9
					c-2.9-2-5.8-2.7-8.6-1.9C715.1-33.2,715.9-27.4,716.7-23.4z"/>
				<path class="st3" d="M737.6-50.4c-2.3,2.3-3.5,5.5-3.6,9.4c0,0.9,0,1.9,0,2.7l9.2,1.6c0.1-0.4,0.3-2.7,0.2-4.5
					c-0.1-1.5-0.8-4.7-2.4-6.8C739.6-49.7,737.8-50.4,737.6-50.4z"/>
			</g>
			<path id="Combined-Shape-Copy_5_" class="st2" d="M641.9-54.3l-1.8,11.3c2.4,0.7,4.2,1.1,5.4,1.1c2.4,0,4.8,0.9,3.6-0.1
				c-0.6-0.5-3.3-2.2-5-3.1c-0.5-0.3-0.9-0.5-1.3-0.7c2.9,0.5,6,0.8,9.6,1c9.4,0.5,8.9,0,0.9-2.3c-1.6-0.5-3.7-0.9-6.2-1.4
				c1-0.2,1.9-0.4,3-0.7c2.1-0.6,5.5-1.9,6.1-2.3c1.3-0.8-2.2-0.7-6-1.8C648.3-54,645.6-54.3,641.9-54.3z"/>
		</g>
		
			<g id="Scroll_1_" transform="translate(76.483186, 92.413601) rotate(13.000000) translate(-76.483186, -92.413601) translate(6.483186, 59.913601)">
			<path class="st2" d="M709.1,29c-0.3-3.1-0.6-5.8-0.7-8c6.2,2.3,18.8,4.4,21.1,4.5c13.2,0.5,18.4-12,18.9-26.9
				c0.5-14.9-6.6-27.8-19.8-28.3c-10.2-0.4-74.8-6.9-101.9-7.8c-8.2-0.3-15.7,18-16.2,33.3c-0.1,3.1,4.2,9.9,11.9,18.2L709.1,29z"/>
			<path class="st3" d="M637,8.4c13.6,3.7,34.6,7.5,62.9,11.5c0.2-9.2,1-18.6,2.6-25.3c2-8.3,6.6-14.6,13.9-18.9l-86.7-6
				c-4.6,3.2-8.2,7.9-10,19.4C618.9-6.8,628.4,6.1,637,8.4z"/>
			<path class="st4" d="M696.8-5.7c7.8-9.5,14.1-15.7,19-18.7l-86.7-6.1c-4.2,3.1-7.2,9.7-9.1,19.9C666-1,691.6,0.6,696.8-5.7z"/>
			<g id="Group-3_1_" transform="translate(12.744498, 19.020401)">
				<path class="st4" d="M704.4-34.6c-1.8,1.6-8.7,5.6-9.1,16c-0.2,5.2,0.8,12.3,1.7,17c12.2,2.8,21.5,5.2,22.6,3.5
					c-4-1.2-7-3.6-8.8-7.4c-1.5-3-3.5-9.2-2.8-15.8c0.8-8.5,5.9-10.7,7-11.7L704.4-34.6z"/>
				<path class="st3" d="M696.9-1.7c12.2,2.7,21.5,5.1,22.6,3.5c-4-1.2-7-3.6-8.8-7.3c-0.8-1.6-2.5-5.8-6.9-8.9
					c-2.9-2-5.8-2.7-8.6-1.9C695.3-11.5,696.1-5.7,696.9-1.7z"/>
				<path class="st3" d="M717.8-28.7c-2.3,2.3-3.5,5.5-3.6,9.4c0,0.9,0,1.9,0,2.7l9.2,1.6c0.1-0.4,0.3-2.7,0.2-4.5
					c-0.1-1.5-0.8-4.7-2.4-6.8C719.8-28,718-28.7,717.8-28.7z"/>
			</g>
			<path id="Combined-Shape-Copy_1_" class="st2" d="M622.1-32.7l-1.8,11.3c2.4,0.7,4.2,1.1,5.4,1.1c2.4,0,4.8,0.9,3.6-0.1
				c-0.6-0.5-3.3-2.2-5-3.1c-0.5-0.3-0.9-0.5-1.3-0.7c2.9,0.5,6,0.8,9.6,1c9.4,0.5,8.9,0,0.9-2.3c-1.6-0.5-3.7-0.9-6.2-1.4
				c1-0.2,1.9-0.4,3-0.7c2.1-0.6,5.5-1.9,6.1-2.3c1.3-0.8-2.2-0.7-6-1.8C628.5-32.3,625.8-32.6,622.1-32.7z"/>
		</g>
		
			<g id="Scroll" transform="translate(76.483186, 92.413601) rotate(13.000000) translate(-76.483186, -92.413601) translate(6.483186, 59.913601)">
			<path class="st2" d="M647.2,61.2c-0.3-3.1-0.6-5.8-0.7-8c6.2,2.3,18.8,4.4,21.1,4.5c13.2,0.5,18.4-12,18.9-26.9
				c0.5-14.9-6.6-27.8-19.8-28.3c-10.2-0.4-74.8-6.9-101.9-7.8c-8.2-0.3-15.7,18-16.2,33.3c-0.1,3.1,4.2,9.9,11.9,18.2L647.2,61.2z"
				/>
			<path class="st3" d="M575.1,40.7c13.6,3.7,34.6,7.5,62.9,11.5c0.2-9.2,1-18.6,2.6-25.3c2-8.3,6.6-14.6,13.9-18.9l-86.7-6
				c-4.6,3.2-8.2,7.9-10,19.4C557,25.5,566.5,38.4,575.1,40.7z"/>
			<path class="st4" d="M634.9,26.6c7.8-9.5,14.1-15.7,19-18.7l-86.7-6.1c-4.2,3.1-7.2,9.7-9.1,19.9
				C604.1,31.3,629.7,32.9,634.9,26.6z"/>
			<g id="Group-3" transform="translate(12.744498, 19.020401)">
				<path class="st4" d="M642.5-2.4c-1.8,1.6-8.7,5.6-9.1,16c-0.2,5.2,0.8,12.3,1.7,17c12.2,2.8,21.5,5.2,22.6,3.5
					c-4-1.2-7-3.6-8.8-7.4c-1.5-3-3.5-9.2-2.8-15.8c0.8-8.5,5.9-10.7,7-11.7L642.5-2.4z"/>
				<path class="st3" d="M635,30.6c12.2,2.7,21.5,5.1,22.6,3.5c-4-1.2-7-3.6-8.8-7.3c-0.8-1.6-2.5-5.8-6.9-8.9
					c-2.9-2-5.8-2.7-8.6-1.9C633.4,20.8,634.2,26.6,635,30.6z"/>
				<path class="st3" d="M655.9,3.5c-2.3,2.3-3.5,5.5-3.6,9.4c0,0.9,0,1.9,0,2.7l9.2,1.6c0.1-0.4,0.3-2.7,0.2-4.5
					c-0.1-1.5-0.8-4.7-2.4-6.8C657.9,4.3,656.1,3.5,655.9,3.5z"/>
			</g>
			<path id="Combined-Shape-Copy" class="st2" d="M560.3-0.4l-1.8,11.3c2.4,0.7,4.2,1.1,5.4,1.1c2.4,0,4.8,0.9,3.6-0.1
				c-0.6-0.5-3.3-2.2-5-3.1c-0.5-0.3-0.9-0.5-1.3-0.7c2.9,0.5,6,0.8,9.6,1c9.4,0.5,8.9,0,0.9-2.3c-1.6-0.5-3.7-0.9-6.2-1.4
				c1-0.2,1.9-0.4,3-0.7c2.1-0.6,5.5-1.9,6.1-2.3c1.3-0.8-2.2-0.7-6-1.8C566.6,0,563.9-0.3,560.3-0.4z"/>
		</g>
		
			<g id="Scroll_2_" transform="translate(76.483186, 92.413601) rotate(13.000000) translate(-76.483186, -92.413601) translate(6.483186, 59.913601)">
			<path class="st2" d="M656.3,15.5c-0.3-3.1-0.6-5.8-0.7-8c6.2,2.3,18.8,4.4,21.1,4.5c13.2,0.5,18.4-12,18.9-26.9
				s-6.6-27.8-19.8-28.3C665.7-43.5,601-50,574-51c-8.2-0.3-15.7,18-16.2,33.3c-0.1,3.1,4.2,9.9,11.9,18.2L656.3,15.5z"/>
			<path class="st3" d="M584.2-5.1c13.6,3.7,34.6,7.5,62.9,11.5c0.2-9.2,1-18.6,2.6-25.3c2-8.3,6.6-14.6,13.9-18.9l-86.7-6
				c-4.6,3.2-8.2,7.9-10,19.4C566.2-20.3,575.6-7.4,584.2-5.1z"/>
			<path class="st4" d="M644-19.2c7.8-9.5,14.1-15.7,19-18.7L576.4-44c-4.2,3.1-7.2,9.7-9.1,19.9C613.2-14.5,638.8-12.9,644-19.2z"
				/>
			<g id="Group-3_2_" transform="translate(12.744498, 19.020401)">
				<path class="st4" d="M651.6-48.1c-1.8,1.6-8.7,5.6-9.1,16c-0.2,5.2,0.8,12.3,1.7,17c12.2,2.8,21.5,5.2,22.6,3.5
					c-4-1.2-7-3.6-8.8-7.4c-1.5-3-3.5-9.2-2.8-15.8c0.8-8.5,5.9-10.7,7-11.7L651.6-48.1z"/>
				<path class="st3" d="M644.1-15.2c12.2,2.7,21.5,5.1,22.6,3.5c-4-1.2-7-3.6-8.8-7.3c-0.8-1.6-2.5-5.8-6.9-8.9
					c-2.9-2-5.8-2.7-8.6-1.9C642.5-25,643.3-19.2,644.1-15.2z"/>
				<path class="st3" d="M665.1-42.2c-2.3,2.3-3.5,5.5-3.6,9.4c0,0.9,0,1.9,0,2.7l9.2,1.6c0.1-0.4,0.3-2.7,0.2-4.5
					c-0.1-1.5-0.8-4.7-2.4-6.8C667-41.5,665.3-42.2,665.1-42.2z"/>
			</g>
			<path id="Combined-Shape-Copy_3_" class="st2" d="M569.4-46.2l-1.8,11.3c2.4,0.7,4.2,1.1,5.4,1.1c2.4,0,4.8,0.9,3.6-0.1
				c-0.6-0.5-3.3-2.2-5-3.1c-0.5-0.3-0.9-0.5-1.3-0.7c2.9,0.5,6,0.8,9.6,1c9.4,0.5,8.9,0,0.9-2.3c-1.6-0.5-3.7-0.9-6.2-1.4
				c1-0.2,1.9-0.4,3-0.7c2.1-0.6,5.5-1.9,6.1-2.3c1.3-0.8-2.2-0.7-6-1.8C575.8-45.8,573-46.1,569.4-46.2z"/>
		</g>
		
			<g id="Scroll_3_" transform="translate(76.483186, 92.413601) rotate(13.000000) translate(-76.483186, -92.413601) translate(6.483186, 59.913601)">
			<path class="st2" d="M682.6-26.5c-0.3-3.1-0.6-5.8-0.7-8c6.2,2.3,18.8,4.4,21.1,4.5c13.2,0.5,18.4-12,18.9-26.9
				s-6.6-27.8-19.8-28.3c-10.2-0.4-74.8-6.9-101.9-7.8c-8.2-0.3-15.7,18-16.2,33.3c-0.1,3.1,4.2,9.9,11.9,18.2L682.6-26.5z"/>
			<path class="st3" d="M610.5-47.1c13.6,3.7,34.6,7.5,62.9,11.5c0.2-9.2,1-18.6,2.6-25.3c2-8.3,6.6-14.6,13.9-18.9l-86.7-6
				c-4.6,3.2-8.2,7.9-10,19.4C592.4-62.3,601.9-49.4,610.5-47.1z"/>
			<path class="st4" d="M670.2-61.2c7.8-9.5,14.1-15.7,19-18.7L602.6-86c-4.2,3.1-7.2,9.7-9.1,19.9C639.5-56.5,665-54.9,670.2-61.2z
				"/>
			<g id="Group-3_3_" transform="translate(12.744498, 19.020401)">
				<path class="st4" d="M677.9-90.1c-1.8,1.6-8.7,5.6-9.1,16c-0.2,5.2,0.8,12.3,1.7,17c12.2,2.8,21.5,5.2,22.6,3.5
					c-4-1.2-7-3.6-8.8-7.4c-1.5-3-3.5-9.2-2.8-15.8c0.8-8.5,5.9-10.7,7-11.7L677.9-90.1z"/>
				<path class="st3" d="M670.4-57.2c12.2,2.7,21.5,5.1,22.6,3.5c-4-1.2-7-3.6-8.8-7.3c-0.8-1.6-2.5-5.8-6.9-8.9
					c-2.9-2-5.8-2.7-8.6-1.9C668.8-67,669.6-61.2,670.4-57.2z"/>
				<path class="st3" d="M691.3-84.2c-2.3,2.3-3.5,5.5-3.6,9.4c0,0.9,0,1.9,0,2.7l9.2,1.6c0.1-0.4,0.3-2.7,0.2-4.5
					c-0.1-1.5-0.8-4.7-2.4-6.8C693.3-83.5,691.5-84.2,691.3-84.2z"/>
			</g>
			<path id="Combined-Shape-Copy_4_" class="st2" d="M595.6-88.2l-1.8,11.3c2.4,0.7,4.2,1.1,5.4,1.1c2.4,0,4.8,0.9,3.6-0.1
				c-0.6-0.5-3.3-2.2-5-3.1c-0.5-0.3-0.9-0.5-1.3-0.7c2.9,0.5,6,0.8,9.6,1c9.4,0.5,8.9,0,0.9-2.3c-1.6-0.5-3.7-0.9-6.2-1.4
				c1-0.2,1.9-0.4,3-0.7c2.1-0.6,5.5-1.9,6.1-2.3c1.3-0.8-2.2-0.7-6-1.8C602-87.8,599.2-88.1,595.6-88.2z"/>
		</g>
	</g>
</g>
</svg>
