<svg xmlns="http://www.w3.org/2000/svg" viewBox="0 0 882 300"><defs><style>.cls-1{fill:#c4c3c6;}.cls-2{fill:#fff;}</style></defs><title>illustrations</title><g id="Layer_5" data-name="Layer 5"><rect class="cls-1" width="882" height="209" rx="6"/><path d="M619.73,91.16c10.34.71,21.78.72,31.94,2.77,3,.62,5.37,4.31,8.05,5.87,4.21,2.46,7.38,6.32,10.63,10,17.07,19.07,38.4,33.7,58.69,49.31,8.26,6.36,16.81,13.53,19.83,23.5S746.39,205.7,736,206.67a15.6,15.6,0,0,1-22,19.9c4.19,5.94-1.49,14.74-8.58,16.36s-14.31-1.48-20.93-4.51c.45,6.8-7.26,11.83-14,11.25s-12.6-4.92-18-9.09L625.93,220c-16.73-12.95-34-26.56-43.32-45.56-1.86-3.81-3.41-7.84-6.12-11.1a36,36,0,0,0-8.55-6.9A272.66,272.66,0,0,0,536.29,139q7.44-15.36,15.53-30.41c3.84-7.14,17.28-30.36,17.28-30.36,8.6,2,15.44,7.29,22.81,9.45C601.13,90.43,610,90.5,619.73,91.16Z"/><path class="cls-1" d="M700.75,236c-3.44,1.57-8.07-1.35-14.3-4.7-4.15-2.24-35.22-21.61-35.22-21.61,1.33,2.59,27.37,20.58,26.12,23-1.49,2.82-5.49,6.16-6.59,6.31-2,.29-8.26-4.29-8.26-4.29-21.18-14.84-33.16-24.76-49.3-45-8.71-10.92-16.72-21.27-26.48-31.26a116.66,116.66,0,0,0-33.25-23.78c5.52-10,16.59-28.66,21.41-39.31.91-2,30.17,7.42,46.72,7.65,5.49.07,16.2.91,21.39,2.69,3.25,1.11,5.38,6,8,8.26,23.37,20,49.55,38,72.92,58,0,0,9.58,7.92,11.23,10.09,2.69,3.52,7.29,7,4.65,11.86-2.16,4-3.47,8.65-8.24,8.25-1-.09-49.12-27.63-52.79-29.32,0,0,47.33,31.08,48.46,33.23s2.12,4.87,1.2,6.43c-1.81,3.07-2.62,6.25-6.08,8.42s-12.19-1.08-15.23-3.11-44-26.1-44-26.1,42.4,30.94,43,33.6S703.9,234.58,700.75,236Z"/><path class="cls-2" d="M667.72,186.05c-9.76,8.51-10.25-8.17-3.07-13.4,2.94-2.14,8.63-2.79,9.89,2C675.47,178.14,670.05,184,667.72,186.05Z"/><path class="cls-2" d="M683.75,166.3c-12.21,10.06-12.82-9.68-3.84-15.86,3.68-2.53,10.79-3.31,12.37,2.33C693.44,156.94,686.66,163.9,683.75,166.3Z"/><path class="cls-2" d="M658.9,193.5c.67,2.05-.63,4.17-1.86,5.94-1.42,2-2.92,4.14-5.08,5.36s-5.21,1.25-6.87-.6a2.82,2.82,0,0,1-.72-2.66,4.17,4.17,0,0,1,.64-1.1C647.06,197.65,656,184.57,658.9,193.5Z"/><path d="M702.84,216.2s7.52-6.6,8.8-9l-6.78,10,5.87-5s-2,4.26-3.49,6.77C707.24,219,702.48,219.5,702.84,216.2Z"/><path d="M684.35,232.58s6.41-6.05,8.06-8.52c0,0-5.17,9-6,10Z"/><path d="M660.17,239.05s6.42-6.05,8.07-8.52c0,0-5.17,9-6,10Z"/><path d="M718.57,196s7.39-6.88,9.29-9.69c0,0-6,10.19-6.89,11.4Z"/><path class="cls-2" d="M713.5,167.88c4.17,3.09,8.71,5.74,12.42,9.37,4.55,4.46,9.41,10.32,14.29,14.4.72-1.84-.24-2.39-.73-4.12s-2.6-4.2-3.85-5.5a129,129,0,0,0-14.85-13.68l-9.87-7.69c-1.19-.92-7.94-7.3-9.11-6.71C697.67,156,713.5,166.92,713.5,167.88Z"/><path class="cls-2" d="M571.11,103s49.33,15.2,57.9,14.26L642.5,99s-8.59,7.41-40.12,1.55c0,0-20.53-5.29-27.5-5.21C574.88,95.35,572.06,101.19,571.11,103Z"/><path d="M588.42,164.48c4.38-3.58,18.92-4,21.21,3.66,1.23,4.15,1.51,10.12,0,14.18,5.5-1.47,11.4.27,15.86,3.8s4.08,11.06.76,15.68c8.88-3.11,19.52,5.6,18.22,14.92,4.35-3.13,11-1.67,14.3,2.55s3.32,10.45.81,15.17-7.22,8-12.3,9.71c-1.51.49-7.88-1.19-9.77-2.93-2.4-2.21-4-4.78-2.27-10a12.76,12.76,0,0,1-21.61-13.31c-5.11,2.67-10.85,5.73-15.62,3a46.07,46.07,0,0,1-6.8-6.52c-2.44-3.55-.15-9.34.93-13.53-1.25,2.58-6.48,4.43-9.37,3.12-13.64-6.13-12-13.72-5.87-24.63C580.54,172.89,584.42,167.74,588.42,164.48Z"/><path class="cls-1" d="M604.33,175.55a4.48,4.48,0,0,1,.11,2.12,6.07,6.07,0,0,1-1.27,2.23Q597.89,186.7,592,193a9.16,9.16,0,0,1-4.16,3c-1,.25-1.61-.3-2.64-.39-2.62-.21-4.06-1.77-5.52-4-1.71-2.57.38-7.37,2-10C585.34,175.88,600,159,604.33,175.55Z"/><path class="cls-1" d="M613.2,189.7a7.64,7.64,0,0,1,6.26,1.59,5.57,5.57,0,0,1,2,5.65c-.84,3.69-5.16,7.72-8,10.27-2,1.79-4.43,5-7.09,5.21a8,8,0,0,1-6.95-2.68,18.2,18.2,0,0,1-1.65-2.52c-.9-2,2.5-7.49,3.94-9.18C604.58,194.7,608.66,190.5,613.2,189.7Z"/><path class="cls-1" d="M630.39,209.94a6.4,6.4,0,0,1,5.56,1,6.1,6.1,0,0,1,2.29,5.42c-.44,3.47-2.85,5.62-5.07,8.17-1.56,1.79-3.84,4-6.11,4.41a6.07,6.07,0,0,1-5.88-2,17.64,17.64,0,0,1-1.09-2.59c-.93-1.82.09-4,1.2-5.69C623.48,215.4,626.53,211,630.39,209.94Z"/><path class="cls-1" d="M648.42,223.68a5.26,5.26,0,0,1,4.5,1.21,5,5,0,0,1,1.52,4.61c-.59,2.82-1.19,2.57-3.19,4.51-1.4,1.37-2.66,3.28-4.55,3.45s-3.47-1.52-4.7-3.09a5.16,5.16,0,0,1-.72-1.13c-.64-1.56.34-3.3,1.37-4.6C644.67,226.08,645.18,224.29,648.42,223.68Z"/><path class="cls-2" d="M602.75,170.46c1.47.88,1.81,4.25,1.72,4.6a2.86,2.86,0,0,1-.73,1.12c-2,2.26-3.35,4.29-5.62,6.38a8.93,8.93,0,0,1-3.25,1.65,6.16,6.16,0,0,1-1.77,0c-1.52-.1-3.25-.31-4.09-1.41-1-1.28-.64-5.17.32-6.47C591.43,173.49,595.32,166.07,602.75,170.46Z"/><path class="cls-2" d="M637,209.43a5.67,5.67,0,0,1,1.84,3.27,6,6,0,0,1-.37,1.66,63.46,63.46,0,0,1-4.26,5c-.51.5-2.44.71-3.18.88a4.29,4.29,0,0,1-1.34,0c-1.14-.08-2.45-.25-3.09-1.11-.75-1-.48-4.07.24-5.09C628.4,211.82,631.34,206,637,209.43Z"/><path class="cls-2" d="M620.12,191.3c1.38.84,1.77,3.63,1.68,3.93a2.45,2.45,0,0,1-.71,1c-2,1.93-2.5,3-4.71,4.81a14.77,14.77,0,0,1-3.92,2,7.06,7.06,0,0,1-1.72,0A5.52,5.52,0,0,1,607.2,201c-1-1.1-.46-4.29.47-5.4C609.72,193.13,611.91,186.32,620.12,191.3Z"/><path d="M588.42,180.15s4.11,4.61,8.34,1.57l7.76-7.49.23.89-6.63,7.44s-3.48,3-7.41,1.33A3.3,3.3,0,0,1,588.42,180.15Z"/><path d="M606.8,198.88s4.1,4.61,8.33,1.58l7.76-7.49.24.88-6.64,7.45s-3.47,2.95-7.41,1.32A3.3,3.3,0,0,1,606.8,198.88Z"/><path d="M626.18,216.63s4.1,4.61,8.33,1.57l7.76-7.49.23.89L635.87,219s-3.47,3-7.41,1.33A3.29,3.29,0,0,1,626.18,216.63Z"/><path d="M619.82,147.44a4.35,4.35,0,0,0,.78,2.8,4.29,4.29,0,0,0,2.14,1.06c4.31,1.19,13.17,1.11,16.08-2.27,1.12-1.3,1.52-3.28,2.26-4.83a92.57,92.57,0,0,0,6.63-18.06c.67-2.36,1.77-1.93,3.2-3.92s3.91-5,5.53-6.8c2.17-2.46,1.91-3.43,3.69-6a2.59,2.59,0,0,1,2.07-.9,4.09,4.09,0,0,1,2.68,1.45c6.51,6.14,13.19,12.08,19.87,18l7,6.22,46.54,41.44a2.85,2.85,0,0,0,2.2,1,2.76,2.76,0,0,0,1.64-1.44c4.43-6.94,7.32-15.36,14.13-20,2.63-1.79,5.67-2.87,8.59-4.13a70.1,70.1,0,0,0,13.8-7.94,5.75,5.75,0,0,0,1.56-1.51,4.83,4.83,0,0,0,.55-2.86c-.47-8.22-6.59-12.88-10.17-20.3-2.08-4.3-4.78-10.06-7.54-14-1.38-2-2-4.35-3.32-6.35-1.61-2.45-2.75-4.92-4.33-7.39-3.89-6.13-7.93-12.49-11.26-18.89l-25.6,10.87c-3.08,1.31-6.25,2.64-9.59,2.78-3.16.13-6.26-.8-9.3-1.66C687,80.35,674,78,661.06,75.7a16.46,16.46,0,0,0-6.51-.28c-2.47.57-4.51,2.24-6.46,3.85-8.42,7-19,13-27.42,20-5.25,4.36-2.27,14.8-2,21Z"/><path class="cls-1" d="M637.39,135.93c1-5.17,2.05-10.33,4.49-15.24,2.52-5.07,3.5-6,5.93-11.52,1.79.79,4.27-1.48,5.76-.87,6.26,2.56,9.58,6.88,16.91,10.62,6.88,3.52,13.75,7.23,19.7,12.16,3.79,3.15,7.18,6.76,11.09,9.75,5,3.79,10.67,6.5,15.58,10.35,6.18,4.86,9.22,9.21,15.18,14.64,1.56-6.33,6-8.9,11.67-12.18,2.71-1.58,8.9-5.89,11.67-7.35a49.67,49.67,0,0,0,7.17-4.78c1.1-.82,7.13-1.94,7.13-3.32,0-2.93-4.06-7.06-6.64-10.9-8.4-12.51-15.49-25.61-23.28-38.74a3.43,3.43,0,0,0-5.18-1.88c-5.39,2.1-14,4.9-19.39,7a18.35,18.35,0,0,1-6.65,1.66A19,19,0,0,1,702.67,94a219.13,219.13,0,0,0-42-9.9,10.48,10.48,0,0,0-8.91,1.79,226.59,226.59,0,0,0-22.77,16,9.2,9.2,0,0,0-3.2,3.71,9.71,9.71,0,0,0,0,4.82c1.45,9.24-.51,17,.17,26.17.39,5.28.13,6.85,2.77,6.48C632.06,142.57,636.93,138.39,637.39,135.93Z"/><path d="M672.61,122.75s16.78,3.39,31.54,1.11c0,0-11.28,5.28-27.21,2.48Z"/><path class="cls-2" d="M645.18,229.42s2.63,3.15,4.93,3c0,0,5.2-2.68,4.91-4.78s-3.91-5.5-7.78-3.69C647.24,224,645.06,226.8,645.18,229.42Z"/><path d="M645,229.08s4.09,4.1,7.28,1.81l5.85-5.64.17.67-5,5.6a6.5,6.5,0,0,1-6.59.37C644.7,230.73,645,229.08,645,229.08Z"/><path class="cls-2" d="M626,124.64c0-.78.87-1.07,1.24-.43a26,26,0,0,1,1.75,7.44s.25,8.91-1.4,11.16c-.22.31-.69.11-.89-.23-.49-.85-1.31-3.16-1.2-9.17Z"/><path class="cls-2" d="M743.58,94.26c-1-1.53-3.12-4.34-3.83-5.71-1.06-2-1.45-2.46-3.66-2.46-8.24,2.08-16.38,6.42-24.45,8.8,1.08.46,5.83,1.41,6.69,2.11,4.49,3.28,2.24,1.49,6.73,4.77,6.15-1.61,14-2.09,19.92-4.12.26-.09.41,0,.54-.2Z"/><path d="M646.89,111.88a65.8,65.8,0,0,0,.77-9.12s1.41,5.39,1.25,6.51c0,0,2.47-1.66,2.32-3.69v6.3Z"/><path class="cls-2" d="M636.34,102.37a15.52,15.52,0,0,0,4-2l12.43-7.79a23.74,23.74,0,0,1,7.17-3.45c3.72-.85,7.58.11,11.31.91,6.13,1.32,12.35,2.21,18.56,3.09,3.64.52,7.38,1,11,.24-13.15-4.07-26.45-8.16-40.18-9.21a14.47,14.47,0,0,0-5,.24,15.63,15.63,0,0,0-3.76,1.79Q645.53,90,639.42,94c-3.84,2.54-8.51,5-11.76,8.27C628.39,103.58,634.76,102.81,636.34,102.37Z"/><path d="M626,124.64s1.56-1,2.21,2.52a46.29,46.29,0,0,1,.76,7.92s1.45-7.21-.87-12.33c0,0-2.87-2.91-5,0Z"/><path d="M64.08,100.61V67.39h6.67l9.41,28.08,9.41-28.08h6.67v33.22h-3.7V71.33h-.67L82.22,99.41H78.1L68.45,71.33h-.67v29.28Z"/><path d="M119.86,97.63l1.39-.14.09,2.83a69.07,69.07,0,0,1-9.36.77q-5.17,0-7.34-3t-2.16-9.34q0-12.61,10-12.62,4.84,0,7.25,2.71t2.4,8.52L122,90.1H106.13q0,4,1.44,5.9t5,1.92C115,97.92,117.39,97.82,119.86,97.63Zm-1.3-10.41q0-4.43-1.42-6.24c-.94-1.22-2.48-1.83-4.6-1.83a5.9,5.9,0,0,0-4.8,1.92q-1.62,1.92-1.66,6.15Z"/><path d="M144.1,97.63l1.39-.14.09,2.83a69.07,69.07,0,0,1-9.36.77q-5.17,0-7.34-3t-2.16-9.34q0-12.61,10-12.62,4.84,0,7.25,2.71t2.4,8.52l-.19,2.74H130.37q0,4,1.44,5.9t5,1.92C139.21,97.92,141.63,97.82,144.1,97.63Zm-1.3-10.41q0-4.43-1.42-6.24c-.94-1.22-2.48-1.83-4.6-1.83a5.9,5.9,0,0,0-4.8,1.92q-1.62,1.92-1.66,6.15Z"/><path d="M164.3,79.73h-7.63V91.2q0,4.13.6,5.42c.4.87,1.35,1.3,2.86,1.3l4.27-.29.24,3a33.16,33.16,0,0,1-4.9.53q-3.74,0-5.18-1.83t-1.44-7V79.73h-3.41V76.61h3.41V69.26h3.55v7.35h7.63Z"/><path d="M168.72,71.18V67h3.6v4.17Zm0,29.43v-24h3.6v24Z"/><path d="M182.83,100.61h-3.6v-24h3.55v1.68a15.36,15.36,0,0,1,7.44-2.16c3.2,0,5.36.86,6.46,2.59s1.65,4.8,1.65,9.22v12.67h-3.55V88c0-3.33-.32-5.61-1-6.84s-2.06-1.85-4.2-1.85a12.72,12.72,0,0,0-3.24.46,15.59,15.59,0,0,0-2.62.89l-.91.43Z"/><path d="M214.27,111.89q-5.76,0-8-1.56T204,104.64a5.45,5.45,0,0,1,.86-3.19,13.47,13.47,0,0,1,2.93-2.76,3.73,3.73,0,0,1-1.34-3.31,8.22,8.22,0,0,1,1.2-3l.43-.77c-2.53-1.15-3.79-3.56-3.79-7.25q0-8.2,9-8.2a18.1,18.1,0,0,1,4.28.48l.72.14,7.1-.19v3.07l-4.56-.09a6.48,6.48,0,0,1,1.58,4.79q0,4.52-2.23,6.32t-7,1.8a14,14,0,0,1-2.35-.19,10,10,0,0,0-.87,2.73c0,1,.31,1.61.92,1.85a22.71,22.71,0,0,0,5.52.36q4.61,0,6.62,1.44c1.34,1,2,2.83,2,5.62Q224.93,111.88,214.27,111.89Zm-6.77-7.54c0,1.7.47,2.87,1.42,3.53s2.69,1,5.23,1,4.37-.35,5.47-1a3.86,3.86,0,0,0,1.66-3.53c0-1.65-.4-2.71-1.2-3.19s-2.37-.72-4.7-.72l-5.19-.24a8.63,8.63,0,0,0-2.14,2A4.14,4.14,0,0,0,207.5,104.35Zm.34-20c0,1.89.42,3.24,1.27,4a6,6,0,0,0,4.2,1.2,6,6,0,0,0,4.18-1.2c.83-.8,1.24-2.15,1.24-4.06s-.41-3.25-1.24-4a6,6,0,0,0-4.18-1.2c-1.95,0-3.35.4-4.2,1.22A5.45,5.45,0,0,0,207.84,84.33Z"/><path d="M237.21,79.34c-3.48,0-5.23,1.22-5.23,3.65a2.53,2.53,0,0,0,1.2,2.38,20.76,20.76,0,0,0,5.47,1.44,14.41,14.41,0,0,1,6,2.09q1.78,1.34,1.78,5t-2.38,5.42q-2.37,1.73-6.93,1.73a44.3,44.3,0,0,1-7-.67l-1.44-.24.19-3.12a61.63,61.63,0,0,0,8.26.81,8.16,8.16,0,0,0,4.24-.89,3.19,3.19,0,0,0,1.47-3,3,3,0,0,0-1.25-2.83,18.37,18.37,0,0,0-5.47-1.42,14.36,14.36,0,0,1-6-2q-1.78-1.29-1.78-4.8a5.85,5.85,0,0,1,2.47-5.18A10.75,10.75,0,0,1,237,76.13a50.31,50.31,0,0,1,7.35.67l1.34.24-.1,3.07A62.81,62.81,0,0,0,237.21,79.34Z"/><path d="M68.39,148.92H61.53V136.46h1.39v11.22h5.47Z"/><path d="M76,147.8l.52-.05,0,1.06a26.26,26.26,0,0,1-3.51.29A3.17,3.17,0,0,1,70.24,148a6,6,0,0,1-.81-3.5c0-3.15,1.26-4.73,3.76-4.73a3.43,3.43,0,0,1,2.72,1,4.71,4.71,0,0,1,.9,3.19l-.07,1H70.8a3.69,3.69,0,0,0,.54,2.21,2.21,2.21,0,0,0,1.88.72C74.12,147.91,75,147.88,76,147.8Zm-.49-3.9a3.84,3.84,0,0,0-.53-2.34,2,2,0,0,0-1.73-.69,2.22,2.22,0,0,0-1.8.72,3.65,3.65,0,0,0-.62,2.31Z"/><path d="M85.27,142.64v4.61c0,.44.39.7,1,.79l-.06,1.06a2.9,2.9,0,0,1-2.14-.72,7.92,7.92,0,0,1-3.24.72,2.43,2.43,0,0,1-1.89-.7,2.88,2.88,0,0,1-.65-2,2.5,2.5,0,0,1,.67-1.93,3.51,3.51,0,0,1,2.09-.77l2.82-.27v-.77a1.86,1.86,0,0,0-.39-1.32,1.49,1.49,0,0,0-1.08-.39,25.89,25.89,0,0,0-3,.18l-.56,0-.05-1a17.71,17.71,0,0,1,3.51-.4,3,3,0,0,1,2.22.7A3,3,0,0,1,85.27,142.64Zm-5.54,3.67c0,1.1.45,1.66,1.37,1.66a7.19,7.19,0,0,0,2.41-.42l.41-.14v-3l-2.66.25a1.72,1.72,0,0,0-1.17.47A1.65,1.65,0,0,0,79.73,146.31Z"/><path d="M87.94,148.92v-9h1.33v1.22a8.76,8.76,0,0,1,3.29-1.42v1.37a10.45,10.45,0,0,0-1.57.45,8.61,8.61,0,0,0-1.25.54l-.45.23v6.61Z"/><path d="M95.51,148.92H94.16v-9H95.5v.63a5.74,5.74,0,0,1,2.79-.81,2.66,2.66,0,0,1,2.42,1,6.92,6.92,0,0,1,.62,3.46v4.75H100V144.2a6.17,6.17,0,0,0-.37-2.56,1.63,1.63,0,0,0-1.58-.69,4.41,4.41,0,0,0-1.21.17,5.22,5.22,0,0,0-1,.33l-.35.16Z"/><path d="M109.14,148.92h-1.35V136h1.35v4.42a6.52,6.52,0,0,1,2.77-.68,2.65,2.65,0,0,1,2.42,1,6.81,6.81,0,0,1,.62,3.46v4.75H113.6V144.2a6,6,0,0,0-.37-2.56,1.59,1.59,0,0,0-1.55-.69,5.92,5.92,0,0,0-2.2.41l-.34.13Z"/><path d="M117.06,144.4a5.69,5.69,0,0,1,.88-3.56,4.57,4.57,0,0,1,6,0,5.76,5.76,0,0,1,.87,3.56,6.08,6.08,0,0,1-.82,3.58,4.65,4.65,0,0,1-6,0A6,6,0,0,1,117.06,144.4Zm1.39,0a5.73,5.73,0,0,0,.47,2.76,2.93,2.93,0,0,0,4,0,5.87,5.87,0,0,0,.47-2.77,5.1,5.1,0,0,0-.52-2.72,2.88,2.88,0,0,0-3.88,0A4.9,4.9,0,0,0,118.45,144.38Z"/><path d="M126.13,139.92h1.35l1.82,7.83h.29l2.14-7.65h1.4l2.15,7.65h.3l1.8-7.83h1.35l-2.14,9h-2.25l-1.91-7-1.91,7h-2.25Z"/><path d="M143.81,139.92h1.35l1.81,7.83h.29l2.15-7.65h1.4l2.14,7.65h.31l1.8-7.83h1.35l-2.15,9H152l-1.9-7-1.91,7H146Z"/><path d="M164.29,147.8l.52-.05,0,1.06a26.26,26.26,0,0,1-3.51.29,3.17,3.17,0,0,1-2.76-1.13,6,6,0,0,1-.8-3.5q0-4.72,3.76-4.73a3.41,3.41,0,0,1,2.71,1,4.71,4.71,0,0,1,.91,3.19l-.08,1h-5.94a3.69,3.69,0,0,0,.54,2.21,2.21,2.21,0,0,0,1.88.72C162.46,147.91,163.37,147.88,164.29,147.8Zm-.49-3.9a3.84,3.84,0,0,0-.53-2.34,2,2,0,0,0-1.72-.69,2.21,2.21,0,0,0-1.8.72,3.64,3.64,0,0,0-.63,2.31Z"/><path d="M174.59,139.74a14.78,14.78,0,0,1,2,.22l.43,0-.05,1.1a20.44,20.44,0,0,0-2.12-.16,2.48,2.48,0,0,0-2.08.72,4.74,4.74,0,0,0-.55,2.71,5.3,5.3,0,0,0,.51,2.74,2.39,2.39,0,0,0,2.13.77l2.13-.16.05,1.12a18,18,0,0,1-2.5.25,3.43,3.43,0,0,1-2.91-1.08,6.32,6.32,0,0,1-.8-3.64,5.71,5.71,0,0,1,.87-3.61A3.54,3.54,0,0,1,174.59,139.74Z"/><path d="M178.56,144.4a5.69,5.69,0,0,1,.89-3.56,4.57,4.57,0,0,1,6,0,5.76,5.76,0,0,1,.87,3.56,6.07,6.07,0,0,1-.83,3.58,4.65,4.65,0,0,1-6.05,0A6.07,6.07,0,0,1,178.56,144.4Zm1.39,0a5.71,5.71,0,0,0,.48,2.76,2.14,2.14,0,0,0,2,.79c1,0,1.68-.26,2-.78a5.75,5.75,0,0,0,.47-2.77,5,5,0,0,0-.52-2.72,2.88,2.88,0,0,0-3.88,0A5,5,0,0,0,180,144.38Z"/><path d="M189.81,148.92h-1.35v-9h1.34v.63a5.74,5.74,0,0,1,2.79-.81,2.66,2.66,0,0,1,2.42,1,6.92,6.92,0,0,1,.62,3.46v4.75H194.3V144.2a6.17,6.17,0,0,0-.37-2.56,1.63,1.63,0,0,0-1.58-.69,4.41,4.41,0,0,0-1.21.17,5.22,5.22,0,0,0-1,.33l-.35.16Z"/><path d="M205,136v12.92h-1.33v-.61a5.47,5.47,0,0,1-2.74.79,4,4,0,0,1-1.26-.18,2.57,2.57,0,0,1-1-.65c-.65-.65-1-1.84-1-3.59a6.3,6.3,0,0,1,.88-3.78,3.39,3.39,0,0,1,2.89-1.16,11.78,11.78,0,0,1,2.21.23v-4Zm-4.68,11.77a2.49,2.49,0,0,0,.84.12,4.27,4.27,0,0,0,1.15-.17,6.12,6.12,0,0,0,1-.33l.36-.16v-6.1a11.19,11.19,0,0,0-2.14-.22,2.07,2.07,0,0,0-1.91.87,5.32,5.32,0,0,0-.54,2.71,4.47,4.47,0,0,0,.63,2.81A1.62,1.62,0,0,0,200.36,147.77Z"/><path d="M213.27,139.92h1.35v9h-1.35v-.63a5.16,5.16,0,0,1-2.67.81,2.71,2.71,0,0,1-2.44-.95,7.25,7.25,0,0,1-.6-3.53v-4.7h1.35v4.68a6.82,6.82,0,0,0,.34,2.63c.23.44.75.66,1.55.66a4.26,4.26,0,0,0,1.21-.17,4.77,4.77,0,0,0,.93-.33l.33-.16Z"/><path d="M220.58,139.74a14.78,14.78,0,0,1,2,.22l.43,0-.05,1.1a20.44,20.44,0,0,0-2.12-.16,2.48,2.48,0,0,0-2.08.72,4.74,4.74,0,0,0-.55,2.71,5.3,5.3,0,0,0,.51,2.74,2.39,2.39,0,0,0,2.13.77l2.13-.16,0,1.12a18,18,0,0,1-2.5.25,3.43,3.43,0,0,1-2.91-1.08,6.32,6.32,0,0,1-.8-3.64,5.71,5.71,0,0,1,.87-3.61A3.54,3.54,0,0,1,220.58,139.74Z"/><path d="M229.72,141.09h-2.86v4.3a5.92,5.92,0,0,0,.22,2c.15.32.51.48,1.07.48l1.61-.11.09,1.12a12.78,12.78,0,0,1-1.84.2,2.33,2.33,0,0,1-1.94-.69,4.44,4.44,0,0,1-.54-2.61v-4.73h-1.28v-1.17h1.28v-2.75h1.33v2.75h2.86Z"/><path d="M236.69,148.92h-1.36v-9h1.34v.63a5.08,5.08,0,0,1,2.62-.81,2.7,2.7,0,0,1,2.34.92,6.87,6.87,0,0,1,1.54-.64,5.87,5.87,0,0,1,1.67-.28,2.67,2.67,0,0,1,2.42,1,6.92,6.92,0,0,1,.62,3.47v4.75h-1.35V144.2a6.21,6.21,0,0,0-.36-2.56,1.56,1.56,0,0,0-1.53-.69,4.43,4.43,0,0,0-1.22.17,5.34,5.34,0,0,0-1,.33l-.35.16a8.81,8.81,0,0,1,.24,2.63v4.68H241v-4.64a6.7,6.7,0,0,0-.35-2.64,1.57,1.57,0,0,0-1.54-.69,4.06,4.06,0,0,0-1.18.17,5.31,5.31,0,0,0-.93.33l-.3.16Z"/><path d="M256.5,147.8l.53-.05,0,1.06a26.26,26.26,0,0,1-3.51.29A3.15,3.15,0,0,1,250.8,148a6,6,0,0,1-.81-3.5q0-4.72,3.76-4.73a3.44,3.44,0,0,1,2.72,1,4.71,4.71,0,0,1,.9,3.19l-.08,1h-5.94a3.76,3.76,0,0,0,.54,2.21,2.22,2.22,0,0,0,1.89.72C254.67,147.91,255.58,147.88,256.5,147.8Zm-.48-3.9a3.91,3.91,0,0,0-.53-2.34,2.05,2.05,0,0,0-1.73-.69,2.21,2.21,0,0,0-1.8.72,3.65,3.65,0,0,0-.62,2.31Z"/><path d="M265.59,147.8l.53-.05,0,1.06a26.26,26.26,0,0,1-3.51.29,3.15,3.15,0,0,1-2.75-1.13,6,6,0,0,1-.81-3.5q0-4.72,3.76-4.73a3.44,3.44,0,0,1,2.72,1,4.71,4.71,0,0,1,.9,3.19l-.08,1h-5.94a3.69,3.69,0,0,0,.54,2.21,2.22,2.22,0,0,0,1.89.72C263.76,147.91,264.67,147.88,265.59,147.8Zm-.48-3.9a3.91,3.91,0,0,0-.53-2.34,2.05,2.05,0,0,0-1.73-.69,2.21,2.21,0,0,0-1.8.72,3.65,3.65,0,0,0-.62,2.31Z"/><path d="M273.17,141.09h-2.86v4.3a5.92,5.92,0,0,0,.22,2c.15.32.51.48,1.07.48l1.61-.11.09,1.12a12.78,12.78,0,0,1-1.84.2,2.33,2.33,0,0,1-1.94-.69,4.44,4.44,0,0,1-.54-2.61v-4.73H267.7v-1.17H269v-2.75h1.33v2.75h2.86Z"/><path d="M274.83,137.89v-1.57h1.35v1.57Zm0,11v-9h1.35v9Z"/><path d="M280.12,148.92h-1.35v-9h1.33v.63a5.74,5.74,0,0,1,2.79-.81,2.65,2.65,0,0,1,2.42,1,6.81,6.81,0,0,1,.62,3.46v4.75H284.6V144.2a6,6,0,0,0-.37-2.56,1.61,1.61,0,0,0-1.57-.69,4.48,4.48,0,0,0-1.22.17,5.79,5.79,0,0,0-1,.33l-.34.16Z"/><path d="M291.91,153.15a5.55,5.55,0,0,1-3-.59,2.4,2.4,0,0,1-.85-2.13,2,2,0,0,1,.32-1.19,4.87,4.87,0,0,1,1.1-1A1.38,1.38,0,0,1,289,147a3.12,3.12,0,0,1,.45-1.14l.16-.28a2.68,2.68,0,0,1-1.42-2.72q0-3.07,3.36-3.08a6.7,6.7,0,0,1,1.6.18l.27.05,2.67-.07v1.15l-1.71,0a2.45,2.45,0,0,1,.59,1.8,2.89,2.89,0,0,1-.83,2.36,4.2,4.2,0,0,1-2.64.68,4.69,4.69,0,0,1-.88-.07,3.8,3.8,0,0,0-.33,1c0,.38.12.61.34.7a8.75,8.75,0,0,0,2.08.13,4.38,4.38,0,0,1,2.48.54,2.46,2.46,0,0,1,.75,2.11Q295.9,153.15,291.91,153.15Zm-2.54-2.83a1.52,1.52,0,0,0,.53,1.33,3.76,3.76,0,0,0,2,.37,4,4,0,0,0,2.06-.4,1.44,1.44,0,0,0,.62-1.32q0-.93-.45-1.2a3.87,3.87,0,0,0-1.77-.27l-1.94-.09a3.11,3.11,0,0,0-.8.76A1.47,1.47,0,0,0,289.37,150.32Zm.13-7.5a2,2,0,0,0,.47,1.51,2.28,2.28,0,0,0,1.58.45,2.2,2.2,0,0,0,1.56-.45,2.69,2.69,0,0,0,0-3,2.2,2.2,0,0,0-1.56-.45,2.23,2.23,0,0,0-1.58.46A2.06,2.06,0,0,0,289.5,142.82Z"/><path d="M300.51,141c-1.31,0-2,.45-2,1.36a1,1,0,0,0,.45.9,7.92,7.92,0,0,0,2.05.54,5.31,5.31,0,0,1,2.27.78,2.25,2.25,0,0,1,.67,1.89,2.35,2.35,0,0,1-.89,2,4.45,4.45,0,0,1-2.61.65,16,16,0,0,1-2.62-.25l-.54-.09.07-1.17a23.44,23.44,0,0,0,3.09.3,3.16,3.16,0,0,0,1.6-.33,1.21,1.21,0,0,0,.55-1.12,1.14,1.14,0,0,0-.47-1.06,7.22,7.22,0,0,0-2.05-.53,5.32,5.32,0,0,1-2.25-.74,2.07,2.07,0,0,1-.67-1.8,2.18,2.18,0,0,1,.93-1.94,4,4,0,0,1,2.31-.63,18.54,18.54,0,0,1,2.75.25l.51.09,0,1.15A23.45,23.45,0,0,0,300.51,141Z"/></g></svg>