<?xml version="1.0" encoding="utf-8"?>
<!-- Generator: Adobe Illustrator 23.0.2, SVG Export Plug-In . SVG Version: 6.00 Build 0)  -->
<svg version="1.1" xmlns="http://www.w3.org/2000/svg" xmlns:xlink="http://www.w3.org/1999/xlink" x="0px" y="0px"
	 viewBox="0 0 882 300" style="enable-background:new 0 0 882 300;" xml:space="preserve">
<style type="text/css">
	.st0{fill:#C4C3C6;}
	.st1{fill:#FFFFFF;}
	.st2{fill-rule:evenodd;clip-rule:evenodd;}
	.st3{fill-rule:evenodd;clip-rule:evenodd;fill:#C4C3C6;}
	.st4{fill-rule:evenodd;clip-rule:evenodd;fill:#FFFFFF;}
	.st5{fill:#010101;}
	.st6{fill:none;}
	.st7{fill-rule:evenodd;clip-rule:evenodd;fill:#B1B2B7;}
	.st8{fill-rule:evenodd;clip-rule:evenodd;fill:#FDFDFD;}
	.st9{fill-rule:evenodd;clip-rule:evenodd;fill:#F9F9F9;}
</style>
<g id="Layer_4">
	<path class="st0" d="M876,209H6c-3.3,0-6-2.7-6-6V6c0-3.3,2.7-6,6-6h870c3.3,0,6,2.7,6,6v197C882,206.3,879.3,209,876,209z"/>
	<g>
		<path d="M68.4,144.9h-6.9v-12.5h1.4v11.2h5.5V144.9z"/>
		<path d="M75.9,143.8l0.5-0.1l0,1.1c-1.4,0.2-2.5,0.3-3.5,0.3c-1.3,0-2.2-0.4-2.8-1.1s-0.8-1.9-0.8-3.5c0-3.2,1.3-4.7,3.8-4.7
			c1.2,0,2.1,0.3,2.7,1c0.6,0.7,0.9,1.7,0.9,3.2l-0.1,1h-5.9c0,1,0.2,1.7,0.5,2.2s1,0.7,1.9,0.7S75,143.9,75.9,143.8z M75.5,139.9
			c0-1.1-0.2-1.9-0.5-2.3s-0.9-0.7-1.7-0.7s-1.4,0.2-1.8,0.7c-0.4,0.5-0.6,1.2-0.6,2.3H75.5z"/>
		<path d="M85.3,138.6v4.6c0,0.4,0.4,0.7,1,0.8l-0.1,1.1c-0.9,0-1.7-0.2-2.1-0.7c-1.1,0.5-2.2,0.7-3.2,0.7c-0.8,0-1.5-0.2-1.9-0.7
			c-0.4-0.5-0.6-1.1-0.6-2c0-0.9,0.2-1.5,0.7-1.9c0.4-0.4,1.1-0.7,2.1-0.8l2.8-0.3v-0.8c0-0.6-0.1-1-0.4-1.3
			c-0.3-0.3-0.6-0.4-1.1-0.4c-1,0-2,0.1-3,0.2l-0.6,0.1l-0.1-1c1.3-0.3,2.5-0.4,3.5-0.4s1.8,0.2,2.2,0.7
			C85,136.9,85.3,137.6,85.3,138.6z M79.7,142.3c0,1.1,0.5,1.7,1.4,1.7c0.8,0,1.6-0.1,2.4-0.4l0.4-0.1v-3l-2.7,0.3
			c-0.5,0-0.9,0.2-1.2,0.5C79.8,141.4,79.7,141.8,79.7,142.3z"/>
		<path d="M87.9,144.9v-9h1.3v1.2c1-0.7,2.1-1.2,3.3-1.4v1.4c-0.5,0.1-1,0.2-1.6,0.5c-0.5,0.2-1,0.4-1.3,0.5l-0.5,0.2v6.6H87.9z"/>
		<path d="M95.5,144.9h-1.4v-9h1.3v0.6c1-0.5,1.9-0.8,2.8-0.8c1.2,0,2,0.3,2.4,1s0.6,1.8,0.6,3.5v4.8H100v-4.7
			c0-1.2-0.1-2.1-0.4-2.6s-0.8-0.7-1.6-0.7c-0.4,0-0.8,0.1-1.2,0.2c-0.4,0.1-0.8,0.2-1,0.3l-0.3,0.2V144.9z"/>
		<path d="M109.1,144.9h-1.4V132h1.4v4.4c1-0.5,1.9-0.7,2.8-0.7c1.2,0,2,0.3,2.4,1s0.6,1.8,0.6,3.5v4.8h-1.4v-4.7
			c0-1.2-0.1-2.1-0.4-2.6c-0.2-0.5-0.8-0.7-1.6-0.7c-0.8,0-1.5,0.1-2.2,0.4l-0.3,0.1V144.9z"/>
		<path d="M117.1,140.4c0-1.6,0.3-2.8,0.9-3.6c0.6-0.7,1.6-1.1,3-1.1c1.4,0,2.4,0.4,3,1.1s0.9,1.9,0.9,3.6s-0.3,2.8-0.8,3.6
			c-0.6,0.7-1.6,1.1-3,1.1c-1.5,0-2.5-0.4-3-1.1C117.3,143.2,117.1,142,117.1,140.4z M118.4,140.4c0,1.3,0.2,2.2,0.5,2.8
			c0.3,0.5,1,0.8,2,0.8c1,0,1.7-0.3,2-0.8s0.5-1.4,0.5-2.8c0-1.3-0.2-2.2-0.5-2.7c-0.3-0.5-1-0.7-1.9-0.7c-0.9,0-1.6,0.2-1.9,0.7
			C118.6,138.2,118.4,139.1,118.4,140.4z"/>
		<path d="M126.1,135.9h1.4l1.8,7.8h0.3l2.1-7.6h1.4l2.1,7.6h0.3l1.8-7.8h1.4l-2.1,9h-2.2l-1.9-7l-1.9,7h-2.2L126.1,135.9z"/>
		<path d="M143.8,135.9h1.4l1.8,7.8h0.3l2.1-7.6h1.4l2.1,7.6h0.3l1.8-7.8h1.4l-2.1,9H152l-1.9-7l-1.9,7h-2.2L143.8,135.9z"/>
		<path d="M164.3,143.8l0.5-0.1l0,1.1c-1.4,0.2-2.5,0.3-3.5,0.3c-1.3,0-2.2-0.4-2.8-1.1s-0.8-1.9-0.8-3.5c0-3.2,1.3-4.7,3.8-4.7
			c1.2,0,2.1,0.3,2.7,1c0.6,0.7,0.9,1.7,0.9,3.2l-0.1,1h-5.9c0,1,0.2,1.7,0.5,2.2s1,0.7,1.9,0.7S163.4,143.9,164.3,143.8z
			 M163.8,139.9c0-1.1-0.2-1.9-0.5-2.3s-0.9-0.7-1.7-0.7s-1.4,0.2-1.8,0.7c-0.4,0.5-0.6,1.2-0.6,2.3H163.8z"/>
		<path d="M176.8,135.9h1.4v9h-1.4v-0.6c-0.9,0.5-1.8,0.8-2.7,0.8c-1.2,0-2-0.3-2.4-1c-0.4-0.6-0.6-1.8-0.6-3.5v-4.7h1.4v4.7
			c0,1.3,0.1,2.2,0.3,2.6s0.7,0.7,1.5,0.7c0.4,0,0.8-0.1,1.2-0.2c0.4-0.1,0.7-0.2,0.9-0.3l0.3-0.2V135.9z"/>
		<path d="M183.6,136.9c-1.3,0-2,0.5-2,1.4c0,0.4,0.1,0.7,0.4,0.9s1,0.4,2.1,0.5c1.1,0.2,1.8,0.4,2.3,0.8c0.4,0.3,0.7,1,0.7,1.9
			c0,0.9-0.3,1.6-0.9,2c-0.6,0.4-1.5,0.6-2.6,0.6c-0.7,0-1.6-0.1-2.6-0.3l-0.5-0.1l0.1-1.2c1.4,0.2,2.4,0.3,3.1,0.3
			c0.7,0,1.2-0.1,1.6-0.3c0.4-0.2,0.5-0.6,0.5-1.1s-0.2-0.9-0.5-1.1c-0.3-0.2-1-0.4-2.1-0.5c-1.1-0.2-1.8-0.4-2.2-0.7
			c-0.4-0.3-0.7-0.9-0.7-1.8s0.3-1.5,0.9-1.9s1.4-0.6,2.3-0.6c0.7,0,1.6,0.1,2.8,0.3l0.5,0.1l0,1.2
			C185.4,137,184.4,136.9,183.6,136.9z"/>
		<path d="M195.3,143.8l0.5-0.1l0,1.1c-1.4,0.2-2.5,0.3-3.5,0.3c-1.3,0-2.2-0.4-2.8-1.1s-0.8-1.9-0.8-3.5c0-3.2,1.3-4.7,3.8-4.7
			c1.2,0,2.1,0.3,2.7,1c0.6,0.7,0.9,1.7,0.9,3.2l-0.1,1h-5.9c0,1,0.2,1.7,0.5,2.2s1,0.7,1.9,0.7S194.3,143.9,195.3,143.8z
			 M194.8,139.9c0-1.1-0.2-1.9-0.5-2.3s-0.9-0.7-1.7-0.7s-1.4,0.2-1.8,0.7c-0.4,0.5-0.6,1.2-0.6,2.3H194.8z"/>
		<path d="M211.8,138.8c0,2.2-0.4,3.8-1.1,4.8s-2,1.5-3.9,1.5c-1.9,0-3.2-0.5-3.9-1.5c-0.7-1-1.1-2.6-1.1-4.8s0.4-3.8,1.1-4.9
			c0.7-1.1,2-1.6,3.8-1.6s3.1,0.5,3.8,1.6C211.4,134.9,211.8,136.6,211.8,138.8z M203.4,138.8c0,1.8,0.2,3.1,0.7,3.9
			c0.5,0.8,1.4,1.2,2.8,1.2c1.4,0,2.3-0.4,2.8-1.2c0.5-0.8,0.7-2.1,0.7-3.9c0-1.8-0.2-3.2-0.7-4s-1.4-1.3-2.8-1.3
			c-1.4,0-2.3,0.4-2.8,1.3C203.6,135.6,203.4,136.9,203.4,138.8z"/>
		<path d="M218.1,135.7c1.2,0,2.1,0.3,2.5,1c0.5,0.7,0.7,1.9,0.7,3.6s-0.3,2.9-0.9,3.6c-0.6,0.7-1.7,1.1-3.3,1.1
			c-0.5,0-1.3,0-2.5-0.1l-0.5-0.1V132h1.3v4.4C216.3,136,217.2,135.7,218.1,135.7z M217.1,143.9c1.2,0,2-0.3,2.3-0.8
			c0.4-0.5,0.6-1.4,0.6-2.7c0-1.3-0.2-2.2-0.5-2.7c-0.3-0.5-0.8-0.8-1.6-0.8c-0.7,0-1.4,0.1-2.1,0.4l-0.4,0.1v6.3
			C216.2,143.9,216.7,143.9,217.1,143.9z"/>
		<path d="M223.6,144.7v-8.8h1.3v8.8c0,1.1-0.2,1.9-0.6,2.5c-0.4,0.6-1.2,1.1-2.4,1.7l-0.5-1c0.9-0.5,1.5-1,1.8-1.4
			C223.4,146.1,223.6,145.5,223.6,144.7z M223.6,133.9v-1.6h1.3v1.6H223.6z"/>
		<path d="M233.6,143.8l0.5-0.1l0,1.1c-1.4,0.2-2.5,0.3-3.5,0.3c-1.3,0-2.2-0.4-2.8-1.1s-0.8-1.9-0.8-3.5c0-3.2,1.3-4.7,3.8-4.7
			c1.2,0,2.1,0.3,2.7,1c0.6,0.7,0.9,1.7,0.9,3.2l-0.1,1h-5.9c0,1,0.2,1.7,0.5,2.2s1,0.7,1.9,0.7S232.7,143.9,233.6,143.8z
			 M233.1,139.9c0-1.1-0.2-1.9-0.5-2.3s-0.9-0.7-1.7-0.7s-1.4,0.2-1.8,0.7c-0.4,0.5-0.6,1.2-0.6,2.3H233.1z"/>
		<path d="M239.9,135.7c0.4,0,1.1,0.1,2,0.2l0.4,0.1l-0.1,1.1c-1-0.1-1.7-0.2-2.1-0.2c-1,0-1.7,0.2-2.1,0.7
			c-0.4,0.5-0.5,1.4-0.5,2.7s0.2,2.2,0.5,2.7c0.3,0.5,1.1,0.8,2.1,0.8l2.1-0.2l0.1,1.1c-1.1,0.2-2,0.3-2.5,0.3
			c-1.4,0-2.4-0.4-2.9-1.1c-0.5-0.7-0.8-1.9-0.8-3.6s0.3-2.9,0.9-3.6C237.6,136.1,238.6,135.7,239.9,135.7z"/>
		<path d="M249.1,137.1h-2.9v4.3c0,1,0.1,1.7,0.2,2c0.1,0.3,0.5,0.5,1.1,0.5l1.6-0.1l0.1,1.1c-0.8,0.1-1.4,0.2-1.8,0.2
			c-0.9,0-1.6-0.2-1.9-0.7c-0.4-0.5-0.5-1.3-0.5-2.6v-4.7h-1.3v-1.2h1.3v-2.8h1.3v2.8h2.9V137.1z"/>
		<path d="M250.7,133.9v-1.6h1.4v1.6H250.7z M250.7,144.9v-9h1.4v9H250.7z"/>
		<path d="M253.8,135.9h1.4l2.1,7.8h0.7l2.2-7.8h1.4l-2.5,9h-2.7L253.8,135.9z"/>
		<path d="M269.3,143.8l0.5-0.1l0,1.1c-1.4,0.2-2.5,0.3-3.5,0.3c-1.3,0-2.2-0.4-2.8-1.1s-0.8-1.9-0.8-3.5c0-3.2,1.3-4.7,3.8-4.7
			c1.2,0,2.1,0.3,2.7,1c0.6,0.7,0.9,1.7,0.9,3.2l-0.1,1h-5.9c0,1,0.2,1.7,0.5,2.2s1,0.7,1.9,0.7S268.4,143.9,269.3,143.8z
			 M268.8,139.9c0-1.1-0.2-1.9-0.5-2.3s-0.9-0.7-1.7-0.7s-1.4,0.2-1.8,0.7c-0.4,0.5-0.6,1.2-0.6,2.3H268.8z"/>
		<path d="M275.1,136.9c-1.3,0-2,0.5-2,1.4c0,0.4,0.1,0.7,0.4,0.9s1,0.4,2.1,0.5c1.1,0.2,1.8,0.4,2.3,0.8c0.4,0.3,0.7,1,0.7,1.9
			c0,0.9-0.3,1.6-0.9,2c-0.6,0.4-1.5,0.6-2.6,0.6c-0.7,0-1.6-0.1-2.6-0.3l-0.5-0.1l0.1-1.2c1.4,0.2,2.4,0.3,3.1,0.3
			c0.7,0,1.2-0.1,1.6-0.3c0.4-0.2,0.5-0.6,0.5-1.1s-0.2-0.9-0.5-1.1c-0.3-0.2-1-0.4-2.1-0.5c-1.1-0.2-1.8-0.4-2.2-0.7
			c-0.4-0.3-0.7-0.9-0.7-1.8s0.3-1.5,0.9-1.9s1.4-0.6,2.3-0.6c0.7,0,1.6,0.1,2.8,0.3l0.5,0.1l0,1.2
			C276.9,137,275.9,136.9,275.1,136.9z"/>
		<path d="M291,138.6v4.6c0,0.4,0.4,0.7,1,0.8l-0.1,1.1c-0.9,0-1.7-0.2-2.1-0.7c-1.1,0.5-2.2,0.7-3.2,0.7c-0.8,0-1.5-0.2-1.9-0.7
			c-0.4-0.5-0.6-1.1-0.6-2c0-0.9,0.2-1.5,0.7-1.9c0.4-0.4,1.1-0.7,2.1-0.8l2.8-0.3v-0.8c0-0.6-0.1-1-0.4-1.3
			c-0.3-0.3-0.6-0.4-1.1-0.4c-1,0-2,0.1-3,0.2l-0.6,0.1l-0.1-1c1.3-0.3,2.5-0.4,3.5-0.4s1.8,0.2,2.2,0.7
			C290.7,136.9,291,137.6,291,138.6z M285.4,142.3c0,1.1,0.5,1.7,1.4,1.7c0.8,0,1.6-0.1,2.4-0.4l0.4-0.1v-3l-2.7,0.3
			c-0.5,0-0.9,0.2-1.2,0.5C285.5,141.4,285.4,141.8,285.4,142.3z"/>
		<path d="M295,144.9h-1.4v-9h1.3v0.6c1-0.5,1.9-0.8,2.8-0.8c1.2,0,2,0.3,2.4,1s0.6,1.8,0.6,3.5v4.8h-1.3v-4.7
			c0-1.2-0.1-2.1-0.4-2.6s-0.8-0.7-1.6-0.7c-0.4,0-0.8,0.1-1.2,0.2c-0.4,0.1-0.8,0.2-1,0.3l-0.3,0.2V144.9z"/>
		<path d="M310.2,132v12.9h-1.3v-0.6c-0.9,0.5-1.8,0.8-2.7,0.8c-0.5,0-0.9-0.1-1.3-0.2c-0.4-0.1-0.7-0.3-1-0.6c-0.6-0.6-1-1.8-1-3.6
			c0-1.7,0.3-3,0.9-3.8s1.5-1.2,2.9-1.2c0.7,0,1.4,0.1,2.2,0.2v-4H310.2z M305.5,143.8c0.2,0.1,0.5,0.1,0.8,0.1
			c0.3,0,0.7-0.1,1.2-0.2c0.4-0.1,0.8-0.2,1-0.3l0.4-0.2v-6.1c-0.8-0.1-1.5-0.2-2.1-0.2c-0.9,0-1.5,0.3-1.9,0.9
			c-0.4,0.6-0.5,1.5-0.5,2.7c0,1.4,0.2,2.3,0.6,2.8C305.1,143.5,305.3,143.7,305.5,143.8z"/>
		<path d="M318.4,144.9H317v-12.5h1.4v5.8l2.1-0.1l3.2-5.7h1.6l-3.6,6.3l3.8,6.2h-1.6l-3.3-5.5l-2.1,0.1V144.9z"/>
		<path d="M332.9,143.8l0.5-0.1l0,1.1c-1.4,0.2-2.5,0.3-3.5,0.3c-1.3,0-2.2-0.4-2.8-1.1s-0.8-1.9-0.8-3.5c0-3.2,1.3-4.7,3.8-4.7
			c1.2,0,2.1,0.3,2.7,1c0.6,0.7,0.9,1.7,0.9,3.2l-0.1,1h-5.9c0,1,0.2,1.7,0.5,2.2s1,0.7,1.9,0.7S331.9,143.9,332.9,143.8z
			 M332.4,139.9c0-1.1-0.2-1.9-0.5-2.3s-0.9-0.7-1.7-0.7s-1.4,0.2-1.8,0.7c-0.4,0.5-0.6,1.2-0.6,2.3H332.4z"/>
		<path d="M334.8,135.9h1.3l2.2,7.8h0.6l2.3-7.8h1.4l-3.7,13h-1.4l1.2-4h-1.3L334.8,135.9z"/>
		<path d="M349.9,140.2v4.8h-1.4v-12.5h4.6c1.3,0,2.3,0.3,3,0.9c0.7,0.6,1,1.6,1,2.9c0,1.9-0.8,3.1-2.3,3.6l2.4,5.1h-1.5l-2.2-4.8
			H349.9z M353.2,138.9c1.7,0,2.5-0.9,2.5-2.6c0-1.7-0.9-2.6-2.6-2.6h-3.2v5.2H353.2z"/>
		<path d="M365.4,143.8l0.5-0.1l0,1.1c-1.4,0.2-2.5,0.3-3.5,0.3c-1.3,0-2.2-0.4-2.8-1.1s-0.8-1.9-0.8-3.5c0-3.2,1.3-4.7,3.8-4.7
			c1.2,0,2.1,0.3,2.7,1c0.6,0.7,0.9,1.7,0.9,3.2l-0.1,1h-5.9c0,1,0.2,1.7,0.5,2.2s1,0.7,1.9,0.7S364.4,143.9,365.4,143.8z
			 M364.9,139.9c0-1.1-0.2-1.9-0.5-2.3s-0.9-0.7-1.7-0.7s-1.4,0.2-1.8,0.7c-0.4,0.5-0.6,1.2-0.6,2.3H364.9z"/>
		<path d="M371.2,136.9c-1.3,0-2,0.5-2,1.4c0,0.4,0.1,0.7,0.4,0.9s1,0.4,2.1,0.5c1.1,0.2,1.8,0.4,2.3,0.8c0.4,0.3,0.7,1,0.7,1.9
			c0,0.9-0.3,1.6-0.9,2c-0.6,0.4-1.5,0.6-2.6,0.6c-0.7,0-1.6-0.1-2.6-0.3l-0.5-0.1l0.1-1.2c1.4,0.2,2.4,0.3,3.1,0.3
			c0.7,0,1.2-0.1,1.6-0.3c0.4-0.2,0.5-0.6,0.5-1.1s-0.2-0.9-0.5-1.1c-0.3-0.2-1-0.4-2.1-0.5c-1.1-0.2-1.8-0.4-2.2-0.7
			c-0.4-0.3-0.7-0.9-0.7-1.8s0.3-1.5,0.9-1.9s1.4-0.6,2.3-0.6c0.7,0,1.6,0.1,2.8,0.3l0.5,0.1l0,1.2C373,137,371.9,136.9,371.2,136.9
			z"/>
		<path d="M382.3,135.9h1.4v9h-1.4v-0.6c-0.9,0.5-1.8,0.8-2.7,0.8c-1.2,0-2-0.3-2.4-1c-0.4-0.6-0.6-1.8-0.6-3.5v-4.7h1.4v4.7
			c0,1.3,0.1,2.2,0.3,2.6s0.7,0.7,1.5,0.7c0.4,0,0.8-0.1,1.2-0.2c0.4-0.1,0.7-0.2,0.9-0.3l0.3-0.2V135.9z"/>
		<path d="M386.4,144.9V132h1.4v12.9H386.4z"/>
		<path d="M395.1,137.1h-2.9v4.3c0,1,0.1,1.7,0.2,2c0.1,0.3,0.5,0.5,1.1,0.5l1.6-0.1l0.1,1.1c-0.8,0.1-1.4,0.2-1.8,0.2
			c-0.9,0-1.6-0.2-1.9-0.7c-0.4-0.5-0.5-1.3-0.5-2.6v-4.7h-1.3v-1.2h1.3v-2.8h1.3v2.8h2.9V137.1z"/>
		<path d="M399.6,136.9c-1.3,0-2,0.5-2,1.4c0,0.4,0.1,0.7,0.4,0.9s1,0.4,2.1,0.5c1.1,0.2,1.8,0.4,2.3,0.8c0.4,0.3,0.7,1,0.7,1.9
			c0,0.9-0.3,1.6-0.9,2c-0.6,0.4-1.5,0.6-2.6,0.6c-0.7,0-1.6-0.1-2.6-0.3l-0.5-0.1l0.1-1.2c1.4,0.2,2.4,0.3,3.1,0.3
			c0.7,0,1.2-0.1,1.6-0.3c0.4-0.2,0.5-0.6,0.5-1.1s-0.2-0.9-0.5-1.1c-0.3-0.2-1-0.4-2.1-0.5c-1.1-0.2-1.8-0.4-2.2-0.7
			c-0.4-0.3-0.7-0.9-0.7-1.8s0.3-1.5,0.9-1.9s1.4-0.6,2.3-0.6c0.7,0,1.6,0.1,2.8,0.3l0.5,0.1l0,1.2
			C401.4,137,400.3,136.9,399.6,136.9z"/>
	</g>
	<g>
		<path d="M89,84.2c0,5.9-0.9,10.2-2.8,12.9c-1.9,2.7-5.3,4-10.3,4s-8.4-1.4-10.3-4.1s-2.8-7-2.8-12.8c0-5.8,1-10.2,2.9-13
			c1.9-2.8,5.3-4.2,10.2-4.2c4.9,0,8.3,1.4,10.2,4.2C88,74,89,78.3,89,84.2z M66.5,84.1c0,4.9,0.6,8.4,1.9,10.5
			c1.3,2.1,3.8,3.2,7.4,3.2s6.1-1,7.4-3.1c1.3-2.1,1.9-5.6,1.9-10.5c0-4.9-0.7-8.5-2-10.7c-1.3-2.2-3.8-3.4-7.4-3.4
			c-3.6,0-6,1.1-7.3,3.3C67.2,75.7,66.5,79.3,66.5,84.1z"/>
		<path d="M99.5,100.6h-3.7V67.4h3.7v15.5l5.5-0.2l8.5-15.3h4.2l-9.5,16.7l10,16.5h-4.4L105,85.9l-5.5,0.2V100.6z"/>
		<path d="M126.8,87.9v12.7h-3.7V67.4h12.3c3.5,0,6.2,0.8,7.9,2.4c1.8,1.6,2.7,4.2,2.7,7.6c0,5.1-2,8.3-6.1,9.6l6.4,13.5h-4.1
			l-6-12.7H126.8z M135.4,84.6c4.5,0,6.8-2.3,6.8-7s-2.3-7-6.8-7h-8.6v14H135.4z"/>
		<path d="M170.1,79.3c-3.5,0-5.2,1.2-5.2,3.6c0,1.1,0.4,1.9,1.2,2.4c0.8,0.5,2.6,0.9,5.5,1.4c2.8,0.5,4.9,1.2,6,2.1
			c1.2,0.9,1.8,2.6,1.8,5c0,2.5-0.8,4.3-2.4,5.4s-3.9,1.7-6.9,1.7c-2,0-4.3-0.2-7-0.7l-1.4-0.2l0.2-3.1c3.6,0.5,6.4,0.8,8.3,0.8
			s3.3-0.3,4.2-0.9c1-0.6,1.5-1.6,1.5-3c0-1.4-0.4-2.3-1.2-2.8c-0.8-0.5-2.7-1-5.5-1.4c-2.8-0.4-4.8-1.1-6-2
			c-1.2-0.9-1.8-2.5-1.8-4.8c0-2.3,0.8-4.1,2.5-5.2c1.6-1.1,3.7-1.7,6.2-1.7c2,0,4.4,0.2,7.3,0.7l1.3,0.2l-0.1,3.1
			C175,79.6,172.2,79.3,170.1,79.3z"/>
		<path d="M182.3,76.6h3.6l6,20.9h1.6l6-20.9h3.6l-10,34.7h-3.6l3.1-10.7h-3.6L182.3,76.6z"/>
		<path d="M214.9,79.3c-3.5,0-5.2,1.2-5.2,3.6c0,1.1,0.4,1.9,1.2,2.4c0.8,0.5,2.6,0.9,5.5,1.4c2.8,0.5,4.9,1.2,6,2.1
			c1.2,0.9,1.8,2.6,1.8,5c0,2.5-0.8,4.3-2.4,5.4s-3.9,1.7-6.9,1.7c-2,0-4.3-0.2-7-0.7l-1.4-0.2l0.2-3.1c3.6,0.5,6.4,0.8,8.3,0.8
			c1.9,0,3.3-0.3,4.2-0.9c1-0.6,1.5-1.6,1.5-3c0-1.4-0.4-2.3-1.2-2.8s-2.7-1-5.5-1.4c-2.8-0.4-4.8-1.1-6-2c-1.2-0.9-1.8-2.5-1.8-4.8
			c0-2.3,0.8-4.1,2.5-5.2s3.7-1.7,6.2-1.7c2,0,4.4,0.2,7.3,0.7l1.3,0.2l-0.1,3.1C219.7,79.6,216.9,79.3,214.9,79.3z"/>
		<path d="M242.1,79.7h-7.6v11.5c0,2.8,0.2,4.6,0.6,5.4c0.4,0.9,1.4,1.3,2.9,1.3l4.3-0.3l0.2,3c-2.1,0.4-3.8,0.5-4.9,0.5
			c-2.5,0-4.2-0.6-5.2-1.8c-1-1.2-1.4-3.5-1.4-7V79.7h-3.4v-3.1h3.4v-7.3h3.6v7.3h7.6V79.7z"/>
		<path d="M262.8,97.6l1.4-0.1l0.1,2.8c-3.6,0.5-6.8,0.8-9.4,0.8c-3.5,0-5.9-1-7.3-3c-1.4-2-2.2-5.1-2.2-9.3c0-8.4,3.3-12.6,10-12.6
			c3.2,0,5.6,0.9,7.2,2.7c1.6,1.8,2.4,4.6,2.4,8.5l-0.2,2.7h-15.8c0,2.7,0.5,4.6,1.4,5.9c1,1.3,2.6,1.9,5,1.9
			C258,97.9,260.4,97.8,262.8,97.6z M261.5,87.2c0-2.9-0.5-5-1.4-6.2c-0.9-1.2-2.5-1.8-4.6-1.8c-2.1,0-3.7,0.6-4.8,1.9
			c-1.1,1.3-1.6,3.3-1.7,6.1H261.5z"/>
		<path d="M274.4,100.6h-3.6v-24h3.6v1.7c2.4-1.4,4.7-2.2,7-2.2c3,0,5.1,0.8,6.2,2.4c1.1-0.6,2.4-1.2,4.1-1.7
			c1.7-0.5,3.2-0.7,4.4-0.7c3.2,0,5.4,0.9,6.5,2.6c1.1,1.7,1.7,4.8,1.7,9.2v12.7h-3.6V88c0-3.3-0.3-5.6-1-6.8
			c-0.6-1.2-2-1.8-4.1-1.8c-1.1,0-2.1,0.2-3.3,0.5s-2,0.6-2.6,0.9l-0.9,0.4c0.4,1.1,0.6,3.4,0.6,7v12.5h-3.6V88.2
			c0-3.5-0.3-5.8-0.9-7c-0.6-1.2-2-1.8-4.1-1.8c-1,0-2.1,0.2-3.1,0.5c-1.1,0.3-1.9,0.6-2.5,0.9l-0.8,0.4V100.6z"/>
	</g>
</g>
<g id="Layer_2">
</g>
<g id="Layer_3">
</g>
<g id="Layer_1">
	<g>
		<g id="Group-9_1_" transform="translate(115.000000, 1547.000000)">
			<g id="Group-7_1_" transform="translate(343.000000, 192.000000)">
				<path id="Oval_1_" class="st2" d="M223.4-1601.3c1.6,0,10.5-1.2,14.8-2.6c-1.5,15.2-12.5,70.7-7.8,83.3
					c3,8.4,9.5,11.5,16.3,10.8c10.1-1.1,27.2-1.7,41.8-3.5c7.1-0.9,14.2-0.9,18.6-3.5c7.3-4.4,4.6-16.8,0-25.1c-1.7-3-2.9-2.3-7-2.3
					c0-8.2,2.7-20.3,4.1-32.3c1.9-16.3,2.9-36.4,2.9-42.6c0-10.7-4.7-23.7-10.5-23.7c-18.9,0-64.1,2.9-71.2,2.9
					c-9.2,0-14.5,8.9-14.5,19.3S214.1-1601.3,223.4-1601.3z"/>
				<path class="st3" d="M234.1-1635.9l60.7-2c4.6,3.5,6.9,13.5,6.9,29.8c0,16.3-2.3,37.5-6.9,63.6c-31.4,1.6-48.5,2.6-51.5,3.1
					s-5.5,2.6-7.8,6.4c2.8-21.5,5.4-39.6,7.8-54.3c1.4-8.5,1.8-24.1,0-32.9C242.2-1628.2,239.1-1632.7,234.1-1635.9z"/>
				<path id="Path_1_" class="st4" d="M247-1622.5c-5.2-6.7-9.5-11.2-12.8-13.3l60.7-2.1c2.8,2.2,4.8,6.8,5.9,13.9
					C268.3-1618.5,250.4-1618.1,247-1622.5z"/>
				<g id="Group-3_6_" transform="translate(14.000000, 24.000000)">
					<path class="st4" d="M218.2-1653.8c1.2,1.1,5.9,4.1,5.9,11.4c0,3.6-0.9,8.5-1.6,11.8c-8.6,1.6-15.1,3.1-15.8,1.9
						c2.8-0.7,4.9-2.4,6.3-4.9c1.1-2,2.6-6.3,2.4-10.9c-0.3-5.9-3.8-7.6-4.5-8.3L218.2-1653.8z"/>
					<path class="st3" d="M222.6-1630.6c-8.6,1.6-15.1,3-15.8,1.9c2.8-0.7,4.9-2.3,6.3-4.9c0.6-1.1,1.9-4,5-6c2.1-1.4,4.1-1.7,6-1.1
						C224-1637.4,223.3-1633.4,222.6-1630.6z"/>
					<path class="st3" d="M208.7-1650c1.5,1.7,2.3,3.9,2.3,6.7c0,0.7,0,1.3-0.1,1.9l-6.4,0.9c-0.1-0.3-0.2-1.9,0-3.1
						c0.1-1.1,0.6-3.3,1.8-4.7C207.4-1649.5,208.6-1650,208.7-1650z"/>
					
						<g id="Group-4_1_" transform="translate(99.916861, 186.391426) rotate(-356.000000) translate(-99.916861, -186.391426) translate(37.916861, 160.891426)">
						<path id="Path-Copy-6_1_" class="st4" d="M126-1734.3c1-0.1,2.8,2,4.3,5.6c2.3,5.7-0.6,8.7-4,10.6c-8.6,1.6-35.9,6.2-36.6,5
							c-10.9,3.7-15.6,4.3-14.2,1.7c1.1-2,0.7-3.1,0.4-7.8c-0.3-5.9-3.8-7.6-4.5-8.3L126-1734.3z"/>
						<path id="Path-Copy-5_1_" class="st3" d="M132.3-1718c-1.3,5.8-31.5,7.1-39.5,8.5s-20.7,3.9-19.3,1.4c0.6-1.1,1.9-4,5-6
							c2-1.3,20.2-8.3,34.6-10.7c9.6-1.6,14.8-3.9,15.5-6.8C133.6-1726.3,132.1-1719.7,132.3-1718z"/>
						<path id="Path-Copy-2_1_" class="st3" d="M68.7-1723.4c1.2,1.5,1.8,3.5,1.8,6c0,0.6,0,1.2-0.1,1.7l-5,0.8
							c-0.1-0.3-0.1-1.7,0-2.8c0.1-1,0.5-2.9,1.4-4.2C67.6-1723,68.6-1723.4,68.7-1723.4z"/>
					</g>
				</g>
				<path id="Combined-Shape_1_" class="st2" d="M234.9-1554.6l0.6,7c1.6,0.1,2.8,0,3.5-0.2c1.4-0.3,3.1-0.2,2.2-0.6
					c-0.4-0.2-2.3-0.8-3.5-1.1c-0.3-0.1-0.6-0.2-0.9-0.2c1.8-0.2,3.7-0.4,6-0.9c5.8-1.1,5.4-1.3,0.2-1.5c-1,0-2.4,0-4,0.1
					c0.6-0.2,1.1-0.5,1.7-0.9c1.2-0.7,3-1.9,3.4-2.3c0.7-0.7-1.4-0.1-3.9-0.2C238.9-1555.4,237.1-1555.1,234.9-1554.6z"/>
				<path id="Combined-Shape-Copy_6_" class="st2" d="M299.6-1639.1l1,7.9c-1.7,0.4-3,0.6-3.8,0.6c-1.6,0-3.4,0.5-2.5-0.1
					c0.4-0.3,2.4-1.4,3.6-2c0.3-0.2,0.7-0.3,1-0.5c-2,0.2-4.2,0.4-6.7,0.4c-6.6,0.1-6.2-0.2-0.6-1.6c1.1-0.3,2.6-0.6,4.4-0.8
					c-0.7-0.1-1.4-0.3-2.1-0.5c-1.5-0.5-3.8-1.4-4.2-1.7c-0.9-0.6,1.5-0.5,4.2-1.1C295.1-1639,297.1-1639.2,299.6-1639.1z"/>
			</g>
		</g>
		<g>
			<path d="M708.6,156.6c-0.3,2,0.5,4.3,1.3,6.2c0.4,1.1,1.7,1,2.1,0c0.9-2.1,2.1-4,3.7-5.7c1.2-1.3,3.2-2.2,3.8-3.8
				c0.2-0.6-0.3-1.1-0.8-1.1c-2-0.1-4.1,2.5-5.3,3.9c-1.5,1.8-2.7,3.9-3.5,6.1c0.7,0,1.4,0,2.1,0c-0.7-1.8-1.2-4.1-2.3-5.7
				C709.4,156.1,708.7,156,708.6,156.6L708.6,156.6z"/>
		</g>
		<g>
			<path d="M708.9,143.7c-1.8,1,0,4.7,0.8,5.9c0.3,0.5,1,0.6,1.4,0.2c1.5-1.3,3-2.6,4.5-3.9c1.3-1.1,3.1-2.2,3.9-3.8
				c0.3-0.6-0.2-1.4-0.9-1.2c-1.7,0.6-2.9,2.1-4.1,3.2c-1.6,1.4-3.1,2.9-4.6,4.3c0.5,0.1,1,0.1,1.4,0.2c-0.8-1.1-1.2-2.3-1.5-3.6
				c-0.1-0.7-0.1-0.9-0.7-1.3C709.1,143.6,709,143.6,708.9,143.7L708.9,143.7z"/>
		</g>
		<g>
			<path d="M709.3,133c-0.3,2.1,1.1,6.2,3.7,4c1.3-1.1,2.1-3,3.2-4.4c1.2-1.7,2.8-3.2,3.9-5c0.8-1.2-0.9-2.3-1.9-1.5
				c-1.8,1.5-3.2,3.8-4.4,5.8c-0.5,0.8-1.1,2.5-1.9,3.1c-0.1,0.1-0.2,0.3-0.2,0.4c-0.2-0.5-0.4-0.9-0.6-1.4
				c-0.2-0.5-0.3-0.8-0.6-1.2C710.1,132.2,709.4,132.5,709.3,133L709.3,133z"/>
		</g>
		<g>
			<g>
				<path d="M725.1,131C725.1,131,725.1,131,725.1,131C725.1,131,725.1,131,725.1,131L725.1,131z"/>
			</g>
		</g>
		<g>
			<path d="M725,130.8c4.2,1,9.2,0.2,13.5,0.1c2.3,0,4.6-0.1,6.9-0.1c2.3,0,4.6,0.3,6.8-0.2c1.1-0.2,1.1-2,0-2.3
				c-2.1-0.5-4.3-0.3-6.4-0.3c-2.5,0-4.9,0.1-7.4,0.2c-4.3,0.2-9.5,0.1-13.5,1.8C724.7,130.3,724.6,130.7,725,130.8L725,130.8z"/>
		</g>
		<g>
			<path d="M723.6,144.2c4.8-0.1,9.5-0.2,14.3-0.3c2.3-0.1,4.6-0.1,6.9-0.1c2.1,0,4.8,0.6,6.8-0.2c0.7-0.3,1.1-1.4,0.2-1.8
				c-1.9-0.9-4.1-0.6-6.1-0.7c-2.6,0-5.2,0-7.8,0.1c-4.9,0.1-9.7,0.7-14.5,1.6C722.7,142.9,722.8,144.2,723.6,144.2L723.6,144.2z"/>
		</g>
		<g>
			<path d="M723.1,158.2c2.1,0.5,4.4,0.4,6.5,0.4c2.2,0,4.5,0.2,6.6-0.3c1-0.2,1-1.9,0-2.1c-2.1-0.4-4.4-0.1-6.6-0.1
				c-2.1,0.1-4.4,0.1-6.5,0.6C722.4,156.9,722.4,158,723.1,158.2L723.1,158.2z"/>
		</g>
	</g>
	
		<g id="Group_1_" transform="translate(260.366293, 119.699418) rotate(-3.000000) translate(-260.366293, -119.699418) translate(198.866293, 3.699418)">
		<path id="Fill-1-Copy_1_" d="M578.3,149.5c-1,0.2-2.1,0.4-3.1,0.6c-0.1,0-0.2,0.1-0.4,0.1c-0.1,0-0.2-0.1-0.2-0.1
			c0-0.1,0.1-0.1,0.1-0.1c0.1,0,0.2-0.1,0.3-0.1c1.8-0.8,3.6-1.6,5.4-2.5c1.3-0.6,2.8-1,4-1.9c1.8-1.3,3.5-2.7,5.2-4
			c1.8-1.4-0.4,0.4,1.5-1.1c-2-0.3-3.9-0.1-5.8-0.2c2.4-0.5,4.7-1,7.2-0.9c0.2,0,0.3-0.1,0.4-0.2c2.7-2.1,2.6-2.7,5.5-4.6
			c1.1-0.7,2.1-1.5,3.4-2.3c-1.7-0.2-3.2,0-4.7,0.1c-0.1,0.1-0.3,0.1-0.5,0c-0.1,0-0.2,0.1-0.4,0.1l-0.2,0c-0.1,0-0.2,0-0.2-0.1
			c0-0.1,0.1-0.1,0.2-0.1c0-0.1,0.1-0.1,0.2-0.1c0.1-0.1,0.2-0.1,0.3-0.1c0.2,0,0.3-0.1,0.5-0.1c1.2-0.5,2.5-0.7,3.8-0.7
			c1.4,0,2.9-0.2,4-1.2c1.2-1.1,2.3-2.1,3.6-3.2c-0.2-0.2-0.4-0.2-0.6-0.2c-1.6,0.2-3.3,0.3-4.9,0.5c-0.4,0-0.4,0-0.8-0.2
			c2.5-0.7,5.1-1.5,7.7-1.8c0.3,0,1.2-0.7,1.4-0.9c1-1.1,1.1-1.4,2-2.6c1.5-1.9,2.9-3.9,3.4-6.3c0.3-1.5-0.3-2.5-1.8-3
			c-0.7-0.2-1.5-0.3-2.3-0.3c-2.9,0-5.8,0.6-8.6,1.2c-1.9,0.4-3.7,1-5,2.6c-0.2,0.2-0.5,0.6-1,0.6c0.6-0.7,1.3-1.2,1.8-2
			c-0.2,0-0.4,0.1-0.5,0.1c-4.9,1.3-3,0.9-7.4,3.6c-1.7,1.1-4.1,3.1-5,4.9c-0.6,1.2-2.5,3.1-3.3,4.3c0,0-6.3,6.3-6.3,6.2l7.2-11.4
			c-1,0.7-2,1.3-2.9,2c-5.2,3.7-6,4.4-10.8,8.5c-3.2,2.8-2.4,1.2-4.6,4.9c-0.9,1.4-1.9,2.8-3.1,4.2c0.5-1.3,1-2.5,1.5-3.7
			c-3,1.8-3.8,5.1-5.5,7.7c0.3-1,0.6-2,0.8-3c-1.6,1.4-2.9,2.9-4.1,4.5c-1.9,2.4-3.4,5.1-4.1,8.1c0,0.1,0,0.2-0.1,0.2
			c-0.1,0-0.1-0.1-0.1-0.1c-1.4-1.5-1.5-3.3-0.8-5.1c-1,1.8-1.2,3.5-0.2,5.3c0.5,0.8,0.8,1.7,1,2.6c0.2,0.9,0,1.7-0.7,2.5
			c-1.6,1.7-3.2,3.4-4.7,5.1c-2.2,2.5-4.5,5-6.5,7.8c-0.8,1-1.4,2.2-1.1,3.6c0.1-0.1,0.2-0.2,0.3-0.2c3.8-4.9,7.7-9.7,11.9-14.2
			c3.1-3.4,5.5-6.6,8.7-10.3c1.6-1.9,5.2-6,12.3-11.7c9.7-7.8,19.4-13.1,20.9-13.7c0.4-0.2,2.4-0.3,2.4-0.3
			c-0.9,0.6-1.9,1.2-2.8,1.9c-2.3,1.6-25.8,19.3-32.8,26.5c-1.9,1.9-3.7,3.9-5.5,5.9c1.5,0.4,2,2,3.3,2.5c-0.4-0.8-1.1-1.4-1.4-2.3
			c2,1.3,12-0.1,11.3-0.4s-8.6,1.1-10.2-0.2c4.6-1.1,8.5-3.4,12.5-5.9c-1-0.3-1.9-0.1-2.9-0.6c1.4-0.1,2.6-0.2,3.8-0.3
			c0.5,0,0.9-0.2,1.2-0.4c3.8-2.5,3.2-1,6.8-3.6c0.1-0.1,0.4-0.2,0.3-0.4C578.7,149.3,578.5,149.4,578.3,149.5z M582.6,153.7
			c-0.3,0.3-0.5,0.5-0.8,0.6c-0.1,0-0.1,0.1-0.2,0.1c-1.8,1.3-3,2-4.5,2.5c-0.1,0-0.1,0-0.2,0.1c-0.4,0.1-0.6,0.2-0.9,0.3l-3.5,2.2
			c0.1,0.4,0.2,0.9,0.2,1.4c0,1.4-0.4,2.5-1.1,3.5c-0.4,0.5-0.8,0.9-1.2,1.2c-0.7,0.5-1.2,0.7-1.8,0.8c-0.5,0.1-1,0.2-1.6,0.4
			c-0.6,0.1-1.3,0.2-2.1,0.3l3.3,7l-13-5.4c-0.6-0.2-1.1-0.5-1.5-0.8c-3.5,3.9-6.9,8-10.4,12.6c-0.1,0.1-0.1,0.1-0.2,0.3
			c-0.4,0.5-1.3,1.2-0.9,0.8l-7,5.9l-1.8-9c-0.3-1.7-0.2-3.4,0.4-5c0.4-1.1,0.9-2,1.7-3c1.6-2.2,2.9-3.7,6-7.2
			c0.1-0.1,0.1-0.1,0.2-0.2c0.3-0.3,0.5-0.6,0.7-0.8c1.2-1.4,2.5-2.7,3.7-4c-1.9-3.5-1.7-7.2,0.3-10.6l2.4,1.1
			c0.8-1.6,1.8-3.1,3.1-4.7c1.5-1.9,3.1-3.7,4.8-5.2l1.1-1c0.1-0.2,0.3-0.4,0.4-0.6c1.1-1.5,2.4-2.8,4-3.7l1-0.6
			c0.1-0.1,0.1-0.2,0.2-0.2c0.6-0.8,1.1-1.4,1.7-2c0.2-0.2,1.8-1.4,2.6-2.1c5.1-4.4,6.1-5.1,11.2-8.8c0.1-0.1,0.2-0.1,0.3-0.2
			c0.6-0.4,2.8-1.9,2.6-1.8l22.2-15.5l-4.3,6.7c1-0.4,2.1-0.7,3.3-1c0.2,0,0.3-0.1,0.5-0.1c0.1,0,0.1,0,0.1,0
			c4.3-0.9,6.4-1.2,9.2-1.2c1.3,0,2.6,0.2,3.8,0.6c4.2,1.3,6.4,4.9,5.6,9.2c-0.6,3.2-2,5.7-4.5,8.8c-0.2,0.3-0.3,0.4-0.7,0.9
			l0.7,0.5l-2.1,1.6l1.2,0.1l-8.2,5.7c0,0,0,0,0,0c-0.8,0.7-1.6,1.3-2.4,1.7l-1.2,0.9c-0.1,0-0.3,0.2-0.5,0.4l-6.2,4.8
			c-0.6,0.5-1.1,0.9-1.9,1.6c0,0,0,0,0,0c-0.1,0.1-0.2,0.2-0.3,0.3c-0.2,0.1-0.4,0.2-0.6,0.4l-0.9,0.7c-0.6,0.4-0.8,0.7-1.1,0.8
			c-0.1,0.1-0.1,0.1-0.3,0.2c-0.1,0-0.1,0.1-0.1,0.1c0,0,0,0,0,0c-0.4,0.3-0.8,0.6-1.6,1.2l0,0c-1.8,1.5-2.7,2.1-3.8,2.9
			c-1.1,0.8-2,1.2-3.7,1.9C583.6,152.6,583.1,153.2,582.6,153.7z M555.5,151.6c-1-0.9-2.3-1.4-3.6-1.4l3.4,1.6
			C555.3,151.8,555.4,151.7,555.5,151.6z M595.5,132.3C595.5,132.3,595.5,132.3,595.5,132.3C595.5,132.3,595.5,132.3,595.5,132.3
			C595.5,132.3,595.5,132.3,595.5,132.3z M582.3,120.7C582.3,120.7,582.3,120.7,582.3,120.7C582.3,120.7,582.3,120.6,582.3,120.7
			L582.3,120.7z"/>
		<path id="Fill-1_1_" class="st3" d="M578.3,149.5c0.2,0,0.4-0.2,0.5,0.1c0.1,0.3-0.2,0.3-0.3,0.4c-3.6,2.7-3.1,1.2-6.8,3.6
			c-0.4,0.2-0.8,0.4-1.2,0.4c-1.2,0.1-2.4,0.2-3.8,0.3c0.9,0.5,1.9,0.3,2.9,0.6c-4,2.5-7.9,4.8-12.5,5.9c1.6,1.3,9.5-0.1,10.2,0.2
			s-9.3,1.6-11.3,0.4c0.3,0.9,1,1.5,1.4,2.3c-1.3-0.5-1.8-2.1-3.3-2.5c1.8-2,3.6-4,5.5-5.9c7-7.2,30.5-24.9,32.8-26.5
			c0.9-0.6,1.9-1.3,2.8-1.9c0,0-2,0.2-2.4,0.3c-1.5,0.7-11.2,6-20.9,13.7c-7.1,5.6-10.7,9.8-12.3,11.7c-3.2,3.6-5.6,6.9-8.7,10.3
			c-4.2,4.6-8.1,9.3-11.9,14.2c0,0.1-0.1,0.1-0.3,0.2c-0.3-1.5,0.4-2.6,1.1-3.6c2-2.7,4.3-5.2,6.5-7.8c1.5-1.7,3.1-3.5,4.7-5.1
			c0.7-0.7,0.8-1.5,0.7-2.5c-0.2-0.9-0.5-1.8-1-2.6c-1.1-1.8-0.8-3.6,0.2-5.3c-0.6,1.9-0.6,3.6,0.8,5.1c0,0.1,0,0.2,0.1,0.1
			c0,0,0-0.1,0.1-0.2c0.6-3.1,2.2-5.7,4.1-8.1c1.2-1.6,2.6-3.1,4.1-4.5c-0.3,1-0.6,2-0.8,3c1.8-2.6,2.6-5.9,5.5-7.7
			c-0.5,1.2-1,2.4-1.5,3.7c1.2-1.4,2.2-2.8,3.1-4.2c2.3-3.7,1.4-2.2,4.6-4.9c4.8-4.1,5.7-4.8,10.8-8.5c0.9-0.7,1.8-1.3,2.9-2
			l-7.2,11.4c0,0,6.3-6.3,6.3-6.2c0.7-1.2,2.6-3.1,3.3-4.3c0.9-1.8,3.3-3.9,5-4.9c4.3-2.7,2.4-2.2,7.4-3.6c0.1,0,0.3-0.1,0.5-0.1
			c-0.5,0.8-1.2,1.3-1.8,2c0.5,0,0.8-0.3,1-0.6c1.3-1.6,3-2.2,5-2.6c2.9-0.6,5.7-1.3,8.6-1.2c0.8,0,1.5,0.1,2.3,0.3
			c1.5,0.5,2.1,1.4,1.8,3c-0.5,2.5-1.9,4.4-3.4,6.3c-0.9,1.1-1,1.5-2,2.6c-0.2,0.2-1.1,0.9-1.4,0.9c-2.6,0.3-5.2,1.1-7.7,1.8
			c0.4,0.2,0.4,0.2,0.8,0.2c1.6-0.2,3.3-0.3,4.9-0.5c0.1,0,0.3,0.1,0.6,0.2c-1.3,1-2.4,2-3.6,3.2c-1.1,1-2.5,1.2-4,1.2
			c-1.3,0-2.6,0.2-3.8,0.7c-0.2,0-0.3,0.1-0.5,0.1c-0.1,0-0.2,0-0.3,0.1c-0.1,0-0.2,0-0.2,0.1c-0.1,0-0.2-0.1-0.2,0.1
			c0,0,0.1,0,0.2,0.1l0.2,0c0.1,0,0.2-0.1,0.4-0.1c0.2,0.1,0.3,0,0.5,0c1.5-0.2,3-0.3,4.7-0.1c-1.2,0.8-2.3,1.6-3.4,2.3
			c-2.9,1.9-2.8,2.5-5.5,4.6c-0.1,0.1-0.3,0.2-0.4,0.2c-2.4-0.1-4.8,0.4-7.2,0.9c1.9,0.2,3.8,0,5.8,0.2c-1.9,1.5,0.3-0.3-1.5,1.1
			c-1.7,1.3-3.4,2.7-5.2,4c-1.2,0.9-2.6,1.3-4,1.9c-1.8,0.8-3.6,1.7-5.4,2.5c-0.1,0-0.2,0.1-0.3,0.1c-0.1,0-0.2,0-0.1,0.1
			c0,0,0.1,0.1,0.2,0.1c0.1,0,0.2-0.1,0.4-0.1C576.3,149.9,577.3,149.7,578.3,149.5z"/>
		<path class="st4" d="M554.2,161.3c0.9-1.1,1.8-2.2,2.8-3.3c0.8-0.9,1.7-1.8,2.6-2.7c2.7-2.8,7.8-7.1,13.2-11.4
			C572.5,145,554.7,161.4,554.2,161.3z M575.7,138l4.2-6.7c1.8-1.8,4-4,4-4c0.7-1.2,2.6-3.1,3.3-4.3c0.9-1.8,3.3-3.9,5-4.9
			c4.3-2.7,2.4-2.2,7.4-3.6c0.1,0,0.3-0.1,0.5-0.1c-0.5,0.8-1.2,1.3-1.8,2c0.5,0,0.8-0.3,1-0.6c1.3-1.6,3-2.2,5-2.6
			c2.9-0.6,5.7-1.3,8.6-1.2c0.8,0,1.5,0.1,2.3,0.3c1.5,0.5,2.1,1.4,1.8,3c-0.3,1.9-1.2,3.5-2.3,4.9c0.3-1.5-0.3-2.4-1.8-2.9
			c-0.7-0.2-1.5-0.3-2.3-0.3c-2.9,0-5.8,0.6-8.6,1.2c-1.9,0.4-3.7,1-5,2.6c-0.2,0.2-0.5,0.6-1,0.6c0.6-0.7,1.3-1.2,1.8-2
			c-0.2,0-0.4,0.1-0.5,0.1c-4.9,1.3-3,0.9-7.4,3.6c-1.7,1.1-4.1,3.1-5,4.9c-0.6,1.2-2.5,3.1-3.3,4.3c0,0-3,3-4.9,4.9
			C576.4,137.6,576,137.8,575.7,138z M549.3,164.6c-1.1,1.2-9.6,11.4-10.6,12.7c-0.2-1.4,7.9-11.5,8.6-12.5
			C549.4,162.1,551.8,161.5,549.3,164.6z M550.8,155.8c-1.1-1.8-0.8-3.6,0.2-5.3c-0.6,1.8-0.6,3.5,0.7,5c-0.2,0.3-0.4,0.6-0.5,1
			C551.1,156.2,551,156,550.8,155.8z M556.1,147.4c1.2-1.6,2.6-3.1,4.1-4.5c-0.3,1-0.6,2-0.8,3c1.8-2.6,2.6-5.9,5.5-7.7
			c-0.5,1.2-1,2.4-1.5,3.7c1.2-1.4,2.2-2.8,3.1-4.2c2.3-3.7,1.4-2.2,4.6-5c4.8-4.1,5.7-4.8,10.8-8.5c0.9-0.7,1.8-1.3,2.9-2l-3.9,6.1
			c-0.5,0.3-0.9,0.6-1.3,1c-5.2,3.7-6,4.4-10.8,8.5c-3.2,2.8-2.4,1.2-4.6,5c-0.9,1.4-1.9,2.8-3.1,4.2c0.5-1.3,1-2.5,1.5-3.7
			c-3,1.8-3.8,5.1-5.5,7.7c0.3-1,0.6-2,0.8-3c-1.6,1.4-2.9,2.9-4.1,4.5c-0.5,0.7-1,1.4-1.5,2.1C553,151.9,554.4,149.6,556.1,147.4z"
			/>
	</g>
	<path d="M591.1,239.3c-0.6-3.4-4.9-4.5-8.3-4.8c-3.2-0.2-29.1-1.9-23.6,6.6C561.7,245,591,239.1,591.1,239.3z"/>
	<path d="M616.3,224.9c-6.2,0.9-12.1,3.6-16.8,7.7c3.9,4.1,10.4,3.7,15.9,2.5c4.2-0.9,8.3-2.2,12.3-3.8c1.4-0.6,2.8-1.2,3.6-2.4
		c0.8-1.2,0.8-3.2-0.5-3.9c-0.5-0.3-1.1-0.4-1.7-0.4c-6.5-0.6-13.2,0-19.6,1.5"/>
	<path d="M662.5,191.3c2.4,1.6,5.5,3.2,7.9,1.7c1.5-0.9,2.1-2.9,2-4.6c-0.3-4.5-4.5-7.6-8.4-10c-13.4-8.4-27.3-15.9-41.7-22.4
		c-1-0.4-2-0.9-3.1-0.8c-1.1,0.1-2.1,0.9-2.7,1.9C608.9,168.3,655.4,186.7,662.5,191.3z"/>
	<path d="M659.7,156.2c0,2.1-1.5,3.8-2.9,5.4c-9.1,9.8-18.1,19.6-27.2,29.4c-1.6,1.7-3.5,3.6-5.8,3.7c-1.7,0.1-3.3-0.8-4.8-1.6
		c-0.9-0.5-1.9-1.2-1.9-2.3c0-0.6,0.4-1.1,0.7-1.6c4.5-6.3,8.9-12.6,13.4-19c1.8-2.5,3.5-5,5.6-7.3
		C639.3,160.1,659.6,141.6,659.7,156.2z"/>
	<path d="M618.3,142.4c-1.7-1-3.4-2.7-3.1-4.6c3.5-1.6,7.6-1.2,11.1,0.4c2.8,1.3,12.7,7.1,7.7,10.1
		C630.7,150.3,621.3,144.2,618.3,142.4z"/>
	<path d="M600.7,139.5c-5.8-0.5-11.9-1.1-16.8-4.3c-1.6-1.1-3.2-2.8-2.6-4.7c0.4-1.5,2.2-2.3,3.8-2.3c1.6,0.1,3.1,0.7,4.6,1.3
		c2.4,0.8,5,1.2,7.5,1.1c1.6-0.1,3.4-0.3,4.7,0.6c2.2,1.6,1.4,5.4-1,6.9s-5.3,1.3-8,1.1"/>
	<path d="M551.7,119c-0.9-1.4-1.1-3.4,0-4.7c0.9-1.1,2.4-1.5,3.9-1.5c3,0,5.9,1.2,8.7,2.5c3.6,1.7,12.2,7.5,5.3,10.5
		C564.7,127.8,554.2,123.1,551.7,119z"/>
	<path d="M558,87.5c2.1-1.3,5.1-1.8,6.9-0.1c4.8,4.4-3,16.2-8.7,15.6C547.5,102,553.7,90.1,558,87.5z"/>
	<path d="M630,211.8c-0.6,1-1.2,2.1-1,3.2c0.2,1.6,1.7,2.6,3.1,3.5c1,0.6,2.1,1.1,3.1,0.9c0.8-0.2,1.4-0.8,1.8-1.5
		c2.6-3.4,3.7-7.8,4.5-12c0.3-1.7,0.6-3.4,0.3-5.2c-0.7-4.1-3.7-5.5-6.1-2.5C633.3,201.2,632.2,208,630,211.8z"/>
	<path d="M529.8,243.4c7.3,5.3,13.6,12,21.1,16.9c1.3,0.9,2.8,1.7,4.4,1.7s3.2-1.3,3.1-2.9c-0.2-2.1-2.8-2.8-4.6-3.8
		c-2.5-1.4-4.1-4-6-6.2c-5.2-5.8-13.2-8.2-19.2-13.2c-1.6-1.3-3.1-2.8-4.9-3.6c-3.4-1.4-8.3,1.3-5.1,5c0.8,0.9,3.2,0.9,4.3,1.4
		C525.2,240,527.6,241.8,529.8,243.4z"/>
	<path d="M547,236.3c-0.1,2.1-1.5,4-2.8,5.7c-3.8,4.8-7.6,9.6-11.4,14.4c-2.2,2.8-4.6,5.7-7.9,7.2c-1.9,0.9-4.8,0.8-5.4-1.2
		c-0.4-1.4,0.7-2.8,1.7-3.9c2.6-2.9,4.9-5.9,7-9.1c3.1-4.8,5.3-12.8,9.4-16.7C541,229.6,547,231,547,236.3z"/>
	<path class="st0" d="M652.8,159.9c-8.6,9.3-17.2,18.5-25.8,27.8c-1.5,1.7-3.4,3.5-5.7,3.3c-0.3-2.2,0.9-4.3,2-6.2
		c5-8.1,11.1-15.6,18.2-22c2.2-2,4.5-3.7,7-5.3c1.4-0.9,4.2-3.9,5.7-2.5C655.8,156.4,653.8,158.8,652.8,159.9z"/>
	<path class="st0" d="M621.3,159.1c-0.3,1.2-0.1,2.6,0.6,3.7c0.7,1.1,1.8,1.9,2.9,2.6c12.3,8.1,25.1,15.5,38.3,22
		c1.3,0.6,3,1.2,4,0.2c0.8-0.7,0.7-2.1,0.1-3c-0.6-0.9-1.5-1.5-2.5-2c-8-4.7-16.1-9.4-24.1-14.1
		C638.7,167.4,621.4,158.4,621.3,159.1z"/>
	<path d="M579.3,78.2c2.7,2.7,5.8,5.6,9.6,5.4c0.4,0,0.9-0.1,1.2-0.4c0.7-0.6,0.6-1.7,0.3-2.6c-1.8-6.4-5.8-12-10.4-16.8
		c-2.8-3-6-5.7-9.7-7.4c-1.7-0.7-3.4-1.2-4.9-2.2c-1.6-1-2.8-2.6-4.4-3.4c-2.5-1.2-5.1,0-4.8,2.8c0.2,2.3,4.5,4.8,6,6.3
		C568,65.9,573.5,72.3,579.3,78.2z"/>
	<path d="M588.6,49.5c0.5,0.6,0.9,1.3,0.8,2.1c-0.1,1-0.8,1.7-1.4,2.4c-6.4,6.8-13,13.4-19.7,19.9c-1.5,1.4-3,2.9-4.8,3.8
		c-1.8,0.9-4.1,1.2-5.9,0.4c-1.9-0.9-3.1-3.2-2.3-5.1c0.3-0.9,1-1.6,1.7-2.2C561.2,66.6,581.8,41.8,588.6,49.5z"/>
</g>
</svg>
