<?xml version="1.0" encoding="utf-8"?>
<!-- Generator: Adobe Illustrator 23.0.2, SVG Export Plug-In . SVG Version: 6.00 Build 0)  -->
<svg version="1.1" xmlns="http://www.w3.org/2000/svg" xmlns:xlink="http://www.w3.org/1999/xlink" x="0px" y="0px"
	 viewBox="0 0 882 300" style="enable-background:new 0 0 882 300;" xml:space="preserve">
<style type="text/css">
	.st0{fill:#C4C3C6;}
	.st1{fill:#FFFFFF;}
	.st2{fill-rule:evenodd;clip-rule:evenodd;}
	.st3{fill-rule:evenodd;clip-rule:evenodd;fill:#C4C3C6;}
	.st4{fill-rule:evenodd;clip-rule:evenodd;fill:#FFFFFF;}
	.st5{fill:#010101;}
	.st6{fill:none;}
	.st7{fill-rule:evenodd;clip-rule:evenodd;fill:#B1B2B7;}
	.st8{fill-rule:evenodd;clip-rule:evenodd;fill:#FDFDFD;}
	.st9{fill-rule:evenodd;clip-rule:evenodd;fill:#F9F9F9;}
</style>
<g id="Layer_4">
	<path class="st0" d="M876,209H6c-3.3,0-6-2.7-6-6V6c0-3.3,2.7-6,6-6h870c3.3,0,6,2.7,6,6v197C882,206.3,879.3,209,876,209z"/>
	<g>
		<path d="M76.2,89.4h-8.4v11.2h-3.7V67.4h12.1c3.6,0,6.3,0.9,8,2.6c1.7,1.8,2.6,4.4,2.6,8.1C86.8,85.6,83.3,89.4,76.2,89.4z
			 M67.8,86.2h8.4c4.6,0,6.9-2.7,6.9-8.1c0-2.6-0.5-4.4-1.6-5.6c-1.1-1.2-2.8-1.8-5.2-1.8h-8.4V86.2z"/>
		<path d="M91.9,100.6v-24h3.6v3.3c2.8-1.9,5.7-3.2,8.8-3.8v3.6c-1.3,0.3-2.7,0.7-4.2,1.2s-2.6,1-3.3,1.4L95.5,83v17.6H91.9z"/>
		<path d="M107,88.6c0-4.4,0.8-7.6,2.4-9.5c1.6-2,4.2-2.9,7.9-2.9s6.4,1,7.9,2.9c1.6,2,2.3,5.1,2.3,9.5c0,4.4-0.7,7.6-2.2,9.6
			c-1.5,2-4.2,3-8.1,3c-3.9,0-6.6-1-8.1-3C107.7,96.1,107,92.9,107,88.6z M110.7,88.5c0,3.5,0.4,6,1.3,7.4c0.8,1.4,2.6,2.1,5.3,2.1
			s4.5-0.7,5.3-2.1c0.8-1.4,1.2-3.8,1.2-7.4s-0.5-5.9-1.4-7.3c-0.9-1.3-2.6-2-5.2-2s-4.2,0.7-5.2,2C111.2,82.6,110.7,85,110.7,88.5z
			"/>
		<path d="M133.4,100V76.6h3.6V100c0,2.9-0.5,5.2-1.6,6.6s-3.2,3-6.4,4.7l-1.4-2.8c2.5-1.4,4.1-2.7,4.8-3.7
			C133.1,103.8,133.4,102.2,133.4,100z M133.4,71.2V67h3.6v4.2H133.4z"/>
		<path d="M160.2,97.6l1.4-0.1l0.1,2.8c-3.6,0.5-6.8,0.8-9.4,0.8c-3.5,0-5.9-1-7.3-3c-1.4-2-2.2-5.1-2.2-9.3c0-8.4,3.3-12.6,10-12.6
			c3.2,0,5.6,0.9,7.2,2.7c1.6,1.8,2.4,4.6,2.4,8.5l-0.2,2.7h-15.8c0,2.7,0.5,4.6,1.4,5.9c1,1.3,2.6,1.9,5,1.9
			C155.3,97.9,157.8,97.8,160.2,97.6z M158.9,87.2c0-2.9-0.5-5-1.4-6.2c-0.9-1.2-2.5-1.8-4.6-1.8c-2.1,0-3.7,0.6-4.8,1.9
			c-1.1,1.3-1.6,3.3-1.7,6.1H158.9z"/>
		<path d="M177.1,76.1c1.1,0,2.8,0.2,5.4,0.6l1.2,0.1l-0.1,2.9c-2.6-0.3-4.4-0.4-5.7-0.4c-2.7,0-4.6,0.6-5.5,1.9s-1.5,3.7-1.5,7.2
			s0.5,5.9,1.4,7.3s2.8,2.1,5.7,2.1l5.7-0.4l0.1,3c-3,0.4-5.2,0.7-6.7,0.7c-3.7,0-6.3-1-7.8-2.9c-1.4-1.9-2.1-5.2-2.1-9.7
			c0-4.6,0.8-7.8,2.3-9.6S173.5,76.1,177.1,76.1z"/>
		<path d="M201.5,79.7h-7.6v11.5c0,2.8,0.2,4.6,0.6,5.4c0.4,0.9,1.4,1.3,2.9,1.3l4.3-0.3l0.2,3c-2.1,0.4-3.8,0.5-4.9,0.5
			c-2.5,0-4.2-0.6-5.2-1.8c-1-1.2-1.4-3.5-1.4-7V79.7h-3.4v-3.1h3.4v-7.3h3.6v7.3h7.6V79.7z"/>
		<path d="M217.1,100.6V67.4h6.7l9.4,28.1l9.4-28.1h6.7v33.2h-3.7V71.3h-0.7l-9.6,28.1h-4.1l-9.6-28.1h-0.7v29.3H217.1z"/>
		<path d="M273.7,83.9v12.3c0.1,1.2,1,1.9,2.8,2.1l-0.1,2.8c-2.5,0-4.4-0.6-5.7-1.9c-2.9,1.3-5.8,1.9-8.6,1.9c-2.2,0-3.9-0.6-5-1.9
			c-1.2-1.2-1.7-3-1.7-5.4s0.6-4.1,1.8-5.2c1.2-1.1,3-1.8,5.6-2l7.5-0.7v-2.1c0-1.6-0.4-2.8-1.1-3.5c-0.7-0.7-1.7-1.1-2.9-1.1
			c-2.6,0-5.2,0.2-8,0.5l-1.5,0.1l-0.1-2.7c3.5-0.7,6.6-1.1,9.4-1.1c2.7,0,4.7,0.6,5.9,1.9C273.1,79.2,273.7,81.2,273.7,83.9z
			 M259,93.6c0,2.9,1.2,4.4,3.6,4.4c2.2,0,4.3-0.4,6.4-1.1l1.1-0.4v-7.9l-7.1,0.7c-1.4,0.1-2.5,0.5-3.1,1.2
			C259.3,91.3,259,92.3,259,93.6z"/>
		<path d="M284.4,100.6h-3.6v-24h3.6v1.7c2.6-1.4,5.1-2.2,7.4-2.2c3.2,0,5.4,0.9,6.5,2.6c1.1,1.7,1.7,4.8,1.7,9.2v12.7h-3.6V88
			c0-3.3-0.3-5.6-1-6.8c-0.7-1.2-2.1-1.8-4.2-1.8c-1,0-2.1,0.2-3.2,0.5c-1.1,0.3-2,0.6-2.6,0.9l-0.9,0.4V100.6z"/>
		<path d="M323.6,83.9v12.3c0.1,1.2,1,1.9,2.8,2.1l-0.1,2.8c-2.5,0-4.4-0.6-5.7-1.9c-2.9,1.3-5.8,1.9-8.6,1.9c-2.2,0-3.9-0.6-5-1.9
			c-1.2-1.2-1.7-3-1.7-5.4s0.6-4.1,1.8-5.2c1.2-1.1,3-1.8,5.6-2l7.5-0.7v-2.1c0-1.6-0.4-2.8-1.1-3.5c-0.7-0.7-1.7-1.1-2.9-1.1
			c-2.6,0-5.2,0.2-8,0.5l-1.5,0.1l-0.1-2.7c3.5-0.7,6.6-1.1,9.4-1.1c2.7,0,4.7,0.6,5.9,1.9C322.9,79.2,323.6,81.2,323.6,83.9z
			 M308.8,93.6c0,2.9,1.2,4.4,3.6,4.4c2.2,0,4.3-0.4,6.4-1.1l1.1-0.4v-7.9l-7.1,0.7c-1.4,0.1-2.5,0.5-3.1,1.2
			C309.1,91.3,308.8,92.3,308.8,93.6z"/>
		<path d="M339.9,111.9c-3.8,0-6.5-0.5-8-1.6c-1.5-1-2.3-2.9-2.3-5.7c0-1.3,0.3-2.4,0.9-3.2c0.6-0.8,1.6-1.7,2.9-2.8
			c-0.9-0.6-1.3-1.7-1.3-3.3c0-0.5,0.4-1.6,1.2-3l0.4-0.8c-2.5-1.2-3.8-3.6-3.8-7.2c0-5.5,3-8.2,9-8.2c1.5,0,3,0.2,4.3,0.5l0.7,0.1
			l7.1-0.2v3.1l-4.6-0.1c1.1,1.1,1.6,2.7,1.6,4.8c0,3-0.7,5.1-2.2,6.3s-3.8,1.8-7,1.8c-0.9,0-1.6-0.1-2.4-0.2
			c-0.6,1.4-0.9,2.3-0.9,2.7c0,1,0.3,1.6,0.9,1.8c0.6,0.2,2.4,0.4,5.5,0.4c3.1,0,5.3,0.5,6.6,1.4c1.3,1,2,2.8,2,5.6
			C350.6,109.3,347,111.9,339.9,111.9z M333.2,104.4c0,1.7,0.5,2.9,1.4,3.5c0.9,0.7,2.7,1,5.2,1s4.4-0.4,5.5-1.1
			c1.1-0.7,1.7-1.9,1.7-3.5c0-1.6-0.4-2.7-1.2-3.2c-0.8-0.5-2.4-0.7-4.7-0.7l-5.2-0.2c-1.1,0.8-1.8,1.4-2.1,2
			C333.3,102.7,333.2,103.5,333.2,104.4z M333.5,84.3c0,1.9,0.4,3.2,1.3,4c0.8,0.8,2.2,1.2,4.2,1.2c2,0,3.3-0.4,4.2-1.2
			c0.8-0.8,1.2-2.2,1.2-4.1c0-1.9-0.4-3.3-1.2-4.1s-2.2-1.2-4.2-1.2c-2,0-3.4,0.4-4.2,1.2C333.9,81.1,333.5,82.4,333.5,84.3z"/>
		<path d="M371.7,97.6l1.4-0.1l0.1,2.8c-3.6,0.5-6.8,0.8-9.4,0.8c-3.5,0-5.9-1-7.3-3c-1.4-2-2.2-5.1-2.2-9.3c0-8.4,3.3-12.6,10-12.6
			c3.2,0,5.6,0.9,7.2,2.7c1.6,1.8,2.4,4.6,2.4,8.5l-0.2,2.7h-15.8c0,2.7,0.5,4.6,1.4,5.9c1,1.3,2.6,1.9,5,1.9
			C366.8,97.9,369.2,97.8,371.7,97.6z M370.4,87.2c0-2.9-0.5-5-1.4-6.2c-0.9-1.2-2.5-1.8-4.6-1.8c-2.1,0-3.7,0.6-4.8,1.9
			c-1.1,1.3-1.6,3.3-1.7,6.1H370.4z"/>
		<path d="M383.2,100.6h-3.6v-24h3.6v1.7c2.4-1.4,4.7-2.2,7-2.2c3,0,5.1,0.8,6.2,2.4c1.1-0.6,2.4-1.2,4.1-1.7
			c1.7-0.5,3.2-0.7,4.4-0.7c3.2,0,5.4,0.9,6.5,2.6c1.1,1.7,1.7,4.8,1.7,9.2v12.7h-3.6V88c0-3.3-0.3-5.6-1-6.8
			c-0.6-1.2-2-1.8-4.1-1.8c-1.1,0-2.1,0.2-3.3,0.5s-2,0.6-2.6,0.9l-0.9,0.4c0.4,1.1,0.6,3.4,0.6,7v12.5h-3.6V88.2
			c0-3.5-0.3-5.8-0.9-7c-0.6-1.2-2-1.8-4.1-1.8c-1,0-2.1,0.2-3.1,0.5c-1.1,0.3-1.9,0.6-2.5,0.9l-0.8,0.4V100.6z"/>
		<path d="M436,97.6l1.4-0.1l0.1,2.8c-3.6,0.5-6.8,0.8-9.4,0.8c-3.5,0-5.9-1-7.3-3c-1.4-2-2.2-5.1-2.2-9.3c0-8.4,3.3-12.6,10-12.6
			c3.2,0,5.6,0.9,7.2,2.7c1.6,1.8,2.4,4.6,2.4,8.5l-0.2,2.7h-15.8c0,2.7,0.5,4.6,1.4,5.9c1,1.3,2.6,1.9,5,1.9
			C431.1,97.9,433.6,97.8,436,97.6z M434.7,87.2c0-2.9-0.5-5-1.4-6.2c-0.9-1.2-2.5-1.8-4.6-1.8c-2.1,0-3.7,0.6-4.8,1.9
			c-1.1,1.3-1.6,3.3-1.7,6.1H434.7z"/>
		<path d="M447.5,100.6h-3.6v-24h3.6v1.7c2.6-1.4,5.1-2.2,7.4-2.2c3.2,0,5.4,0.9,6.5,2.6c1.1,1.7,1.7,4.8,1.7,9.2v12.7h-3.6V88
			c0-3.3-0.3-5.6-1-6.8c-0.7-1.2-2.1-1.8-4.2-1.8c-1,0-2.1,0.2-3.2,0.5c-1.1,0.3-2,0.6-2.6,0.9l-0.9,0.4V100.6z"/>
		<path d="M482,79.7h-7.6v11.5c0,2.8,0.2,4.6,0.6,5.4c0.4,0.9,1.4,1.3,2.9,1.3l4.3-0.3l0.2,3c-2.1,0.4-3.8,0.5-4.9,0.5
			c-2.5,0-4.2-0.6-5.2-1.8c-1-1.2-1.4-3.5-1.4-7V79.7h-3.4v-3.1h3.4v-7.3h3.6v7.3h7.6V79.7z"/>
	</g>
	<g>
		<path d="M68.4,144.9h-6.9v-12.5h1.4v11.2h5.5V144.9z"/>
		<path d="M75.9,143.8l0.5-0.1l0,1.1c-1.4,0.2-2.5,0.3-3.5,0.3c-1.3,0-2.2-0.4-2.8-1.1c-0.5-0.7-0.8-1.9-0.8-3.5
			c0-3.2,1.3-4.7,3.8-4.7c1.2,0,2.1,0.3,2.7,1s0.9,1.7,0.9,3.2l-0.1,1h-5.9c0,1,0.2,1.7,0.5,2.2c0.4,0.5,1,0.7,1.9,0.7
			S75,143.9,75.9,143.8z M75.5,139.9c0-1.1-0.2-1.9-0.5-2.3s-0.9-0.7-1.7-0.7s-1.4,0.2-1.8,0.7c-0.4,0.5-0.6,1.2-0.6,2.3H75.5z"/>
		<path d="M85.3,138.6v4.6c0,0.4,0.4,0.7,1,0.8l-0.1,1.1c-0.9,0-1.7-0.2-2.1-0.7c-1.1,0.5-2.2,0.7-3.2,0.7c-0.8,0-1.5-0.2-1.9-0.7
			c-0.4-0.5-0.6-1.1-0.6-2s0.2-1.5,0.7-1.9c0.4-0.4,1.1-0.7,2.1-0.8l2.8-0.3v-0.8c0-0.6-0.1-1-0.4-1.3c-0.3-0.3-0.6-0.4-1.1-0.4
			c-1,0-2,0.1-3,0.2l-0.6,0.1l-0.1-1c1.3-0.3,2.5-0.4,3.5-0.4s1.8,0.2,2.2,0.7C85,136.9,85.3,137.6,85.3,138.6z M79.7,142.3
			c0,1.1,0.5,1.7,1.4,1.7c0.8,0,1.6-0.1,2.4-0.4l0.4-0.1v-3l-2.7,0.3c-0.5,0-0.9,0.2-1.2,0.5S79.7,141.8,79.7,142.3z"/>
		<path d="M87.9,144.9v-9h1.3v1.2c1-0.7,2.1-1.2,3.3-1.4v1.4c-0.5,0.1-1,0.2-1.6,0.5c-0.5,0.2-1,0.4-1.3,0.5l-0.5,0.2v6.6H87.9z"/>
		<path d="M95.5,144.9h-1.4v-9h1.3v0.6c1-0.5,1.9-0.8,2.8-0.8c1.2,0,2,0.3,2.4,1s0.6,1.8,0.6,3.5v4.8H100v-4.7
			c0-1.2-0.1-2.1-0.4-2.6s-0.8-0.7-1.6-0.7c-0.4,0-0.8,0.1-1.2,0.2c-0.4,0.1-0.8,0.2-1,0.3l-0.3,0.2V144.9z"/>
		<path d="M109.1,144.9h-1.4V132h1.4v4.4c1-0.5,1.9-0.7,2.8-0.7c1.2,0,2,0.3,2.4,1s0.6,1.8,0.6,3.5v4.8h-1.4v-4.7
			c0-1.2-0.1-2.1-0.4-2.6c-0.2-0.5-0.8-0.7-1.6-0.7c-0.8,0-1.5,0.1-2.2,0.4l-0.3,0.1V144.9z"/>
		<path d="M117.1,140.4c0-1.6,0.3-2.8,0.9-3.6c0.6-0.7,1.6-1.1,3-1.1c1.4,0,2.4,0.4,3,1.1c0.6,0.7,0.9,1.9,0.9,3.6
			c0,1.6-0.3,2.8-0.8,3.6s-1.6,1.1-3,1.1c-1.5,0-2.5-0.4-3-1.1C117.3,143.2,117.1,142,117.1,140.4z M118.4,140.4
			c0,1.3,0.2,2.2,0.5,2.8c0.3,0.5,1,0.8,2,0.8c1,0,1.7-0.3,2-0.8c0.3-0.5,0.5-1.4,0.5-2.8c0-1.3-0.2-2.2-0.5-2.7s-1-0.7-1.9-0.7
			c-0.9,0-1.6,0.2-1.9,0.7S118.4,139.1,118.4,140.4z"/>
		<path d="M126.1,135.9h1.4l1.8,7.8h0.3l2.1-7.7h1.4l2.1,7.7h0.3l1.8-7.8h1.4l-2.1,9h-2.2l-1.9-7l-1.9,7h-2.2L126.1,135.9z"/>
		<path d="M143.8,135.9h1.4l1.8,7.8h0.3l2.1-7.7h1.4l2.1,7.7h0.3l1.8-7.8h1.4l-2.1,9H152l-1.9-7l-1.9,7h-2.2L143.8,135.9z"/>
		<path d="M164.3,143.8l0.5-0.1l0,1.1c-1.4,0.2-2.5,0.3-3.5,0.3c-1.3,0-2.2-0.4-2.8-1.1c-0.5-0.7-0.8-1.9-0.8-3.5
			c0-3.2,1.3-4.7,3.8-4.7c1.2,0,2.1,0.3,2.7,1s0.9,1.7,0.9,3.2l-0.1,1h-5.9c0,1,0.2,1.7,0.5,2.2c0.4,0.5,1,0.7,1.9,0.7
			S163.4,143.9,164.3,143.8z M163.8,139.9c0-1.1-0.2-1.9-0.5-2.3s-0.9-0.7-1.7-0.7s-1.4,0.2-1.8,0.7c-0.4,0.5-0.6,1.2-0.6,2.3H163.8
			z"/>
		<path d="M172.6,144.9h-1.4v-9h1.3v0.6c0.9-0.5,1.8-0.8,2.6-0.8c1.1,0,1.9,0.3,2.3,0.9c0.4-0.2,0.9-0.5,1.5-0.6
			c0.6-0.2,1.2-0.3,1.7-0.3c1.2,0,2,0.3,2.4,1c0.4,0.6,0.6,1.8,0.6,3.5v4.8h-1.3v-4.7c0-1.2-0.1-2.1-0.4-2.6s-0.8-0.7-1.5-0.7
			c-0.4,0-0.8,0.1-1.2,0.2s-0.7,0.2-1,0.3l-0.3,0.2c0.2,0.4,0.2,1.3,0.2,2.6v4.7h-1.3v-4.6c0-1.3-0.1-2.2-0.4-2.6
			c-0.2-0.5-0.7-0.7-1.5-0.7c-0.4,0-0.8,0.1-1.2,0.2s-0.7,0.2-0.9,0.3l-0.3,0.2V144.9z"/>
		<path d="M192.6,138.6v4.6c0,0.4,0.4,0.7,1,0.8l-0.1,1.1c-0.9,0-1.7-0.2-2.1-0.7c-1.1,0.5-2.2,0.7-3.2,0.7c-0.8,0-1.5-0.2-1.9-0.7
			c-0.4-0.5-0.6-1.1-0.6-2s0.2-1.5,0.7-1.9c0.4-0.4,1.1-0.7,2.1-0.8l2.8-0.3v-0.8c0-0.6-0.1-1-0.4-1.3c-0.3-0.3-0.6-0.4-1.1-0.4
			c-1,0-2,0.1-3,0.2l-0.6,0.1l-0.1-1c1.3-0.3,2.5-0.4,3.5-0.4s1.8,0.2,2.2,0.7C192.4,136.9,192.6,137.6,192.6,138.6z M187.1,142.3
			c0,1.1,0.5,1.7,1.4,1.7c0.8,0,1.6-0.1,2.4-0.4l0.4-0.1v-3l-2.7,0.3c-0.5,0-0.9,0.2-1.2,0.5S187.1,141.8,187.1,142.3z"/>
		<path d="M196.6,144.9h-1.4V132h1.4v7.6l1.4-0.1l2.6-3.6h1.5l-2.9,4.1l3.1,4.9h-1.5l-2.7-4.2l-1.4,0.1V144.9z"/>
		<path d="M209.8,143.8l0.5-0.1l0,1.1c-1.4,0.2-2.5,0.3-3.5,0.3c-1.3,0-2.2-0.4-2.8-1.1c-0.5-0.7-0.8-1.9-0.8-3.5
			c0-3.2,1.3-4.7,3.8-4.7c1.2,0,2.1,0.3,2.7,1s0.9,1.7,0.9,3.2l-0.1,1h-5.9c0,1,0.2,1.7,0.5,2.2c0.4,0.5,1,0.7,1.9,0.7
			S208.9,143.9,209.8,143.8z M209.3,139.9c0-1.1-0.2-1.9-0.5-2.3s-0.9-0.7-1.7-0.7s-1.4,0.2-1.8,0.7c-0.4,0.5-0.6,1.2-0.6,2.3H209.3
			z"/>
		<path d="M216.7,148.9v-13h1.3v0.6c0.9-0.6,1.8-0.8,2.7-0.8c1.1,0,2,0.4,2.5,1.1c0.5,0.7,0.8,1.9,0.8,3.6s-0.3,2.9-0.9,3.6
			c-0.6,0.7-1.6,1.1-3,1.1c-0.7,0-1.4-0.1-2-0.2v4H216.7z M220.6,137c-0.4,0-0.7,0.1-1.2,0.2c-0.4,0.1-0.7,0.2-1,0.4l-0.3,0.2v6.1
			c0.9,0.1,1.5,0.2,1.9,0.2c1,0,1.7-0.3,2-0.8c0.4-0.6,0.6-1.5,0.6-2.7s-0.2-2.1-0.5-2.7C221.8,137.2,221.2,137,220.6,137z"/>
		<path d="M226.2,144.9v-9h1.3v1.2c1-0.7,2.1-1.2,3.3-1.4v1.4c-0.5,0.1-1,0.2-1.6,0.5c-0.5,0.2-1,0.4-1.3,0.5l-0.5,0.2v6.6H226.2z"
			/>
		<path d="M231.9,140.4c0-1.6,0.3-2.8,0.9-3.6c0.6-0.7,1.6-1.1,3-1.1c1.4,0,2.4,0.4,3,1.1c0.6,0.7,0.9,1.9,0.9,3.6
			c0,1.6-0.3,2.8-0.8,3.6s-1.6,1.1-3,1.1c-1.5,0-2.5-0.4-3-1.1C232.1,143.2,231.9,142,231.9,140.4z M233.2,140.4
			c0,1.3,0.2,2.2,0.5,2.8c0.3,0.5,1,0.8,2,0.8c1,0,1.7-0.3,2-0.8c0.3-0.5,0.5-1.4,0.5-2.8c0-1.3-0.2-2.2-0.5-2.7s-1-0.7-1.9-0.7
			c-0.9,0-1.6,0.2-1.9,0.7S233.2,139.1,233.2,140.4z"/>
		<path d="M245.2,149.2c-1.4,0-2.4-0.2-3-0.6c-0.6-0.4-0.9-1.1-0.9-2.1c0-0.5,0.1-0.9,0.3-1.2c0.2-0.3,0.6-0.7,1.1-1
			c-0.3-0.2-0.5-0.6-0.5-1.2c0-0.2,0.1-0.6,0.5-1.1l0.2-0.3c-0.9-0.4-1.4-1.3-1.4-2.7c0-2.1,1.1-3.1,3.4-3.1c0.6,0,1.1,0.1,1.6,0.2
			l0.3,0.1l2.7-0.1v1.2l-1.7,0c0.4,0.4,0.6,1,0.6,1.8c0,1.1-0.3,1.9-0.8,2.4c-0.6,0.5-1.4,0.7-2.6,0.7c-0.3,0-0.6,0-0.9-0.1
			c-0.2,0.5-0.3,0.9-0.3,1c0,0.4,0.1,0.6,0.3,0.7c0.2,0.1,0.9,0.1,2.1,0.1c1.2,0,2,0.2,2.5,0.5c0.5,0.4,0.8,1.1,0.8,2.1
			C249.2,148.2,247.9,149.2,245.2,149.2z M242.7,146.3c0,0.6,0.2,1.1,0.5,1.3c0.4,0.2,1,0.4,2,0.4s1.6-0.1,2.1-0.4
			c0.4-0.3,0.6-0.7,0.6-1.3s-0.1-1-0.4-1.2c-0.3-0.2-0.9-0.3-1.8-0.3l-1.9-0.1c-0.4,0.3-0.7,0.5-0.8,0.8
			C242.8,145.7,242.7,146,242.7,146.3z M242.8,138.8c0,0.7,0.2,1.2,0.5,1.5s0.8,0.5,1.6,0.5c0.7,0,1.3-0.2,1.6-0.5
			c0.3-0.3,0.5-0.8,0.5-1.5c0-0.7-0.2-1.2-0.5-1.5c-0.3-0.3-0.8-0.5-1.6-0.5c-0.7,0-1.3,0.2-1.6,0.5S242.8,138.1,242.8,138.8z"/>
		<path d="M251,144.9v-9h1.3v1.2c1-0.7,2.1-1.2,3.3-1.4v1.4c-0.5,0.1-1,0.2-1.6,0.5c-0.5,0.2-1,0.4-1.3,0.5l-0.5,0.2v6.6H251z"/>
		<path d="M263.2,143.8l0.5-0.1l0,1.1c-1.4,0.2-2.5,0.3-3.5,0.3c-1.3,0-2.2-0.4-2.8-1.1c-0.5-0.7-0.8-1.9-0.8-3.5
			c0-3.2,1.3-4.7,3.8-4.7c1.2,0,2.1,0.3,2.7,1s0.9,1.7,0.9,3.2l-0.1,1H258c0,1,0.2,1.7,0.5,2.2c0.4,0.5,1,0.7,1.9,0.7
			S262.3,143.9,263.2,143.8z M262.7,139.9c0-1.1-0.2-1.9-0.5-2.3s-0.9-0.7-1.7-0.7s-1.4,0.2-1.8,0.7c-0.4,0.5-0.6,1.2-0.6,2.3H262.7
			z"/>
		<path d="M269,137c-1.3,0-2,0.5-2,1.4c0,0.4,0.1,0.7,0.4,0.9s1,0.4,2.1,0.5c1.1,0.2,1.8,0.4,2.3,0.8c0.4,0.3,0.7,1,0.7,1.9
			s-0.3,1.6-0.9,2c-0.6,0.4-1.5,0.6-2.6,0.6c-0.7,0-1.6-0.1-2.6-0.3l-0.5-0.1l0.1-1.2c1.4,0.2,2.4,0.3,3.1,0.3
			c0.7,0,1.2-0.1,1.6-0.3c0.4-0.2,0.5-0.6,0.5-1.1c0-0.5-0.2-0.9-0.5-1.1c-0.3-0.2-1-0.4-2.1-0.5c-1.1-0.2-1.8-0.4-2.2-0.7
			c-0.4-0.3-0.7-0.9-0.7-1.8c0-0.9,0.3-1.5,0.9-1.9s1.4-0.6,2.3-0.6c0.7,0,1.6,0.1,2.8,0.3l0.5,0.1l0,1.2
			C270.8,137,269.7,137,269,137z"/>
		<path d="M277.3,137c-1.3,0-2,0.5-2,1.4c0,0.4,0.1,0.7,0.4,0.9s1,0.4,2.1,0.5c1.1,0.2,1.8,0.4,2.3,0.8c0.4,0.3,0.7,1,0.7,1.9
			s-0.3,1.6-0.9,2c-0.6,0.4-1.5,0.6-2.6,0.6c-0.7,0-1.6-0.1-2.6-0.3l-0.5-0.1l0.1-1.2c1.4,0.2,2.4,0.3,3.1,0.3
			c0.7,0,1.2-0.1,1.6-0.3c0.4-0.2,0.5-0.6,0.5-1.1c0-0.5-0.2-0.9-0.5-1.1c-0.3-0.2-1-0.4-2.1-0.5c-1.1-0.2-1.8-0.4-2.2-0.7
			c-0.4-0.3-0.7-0.9-0.7-1.8c0-0.9,0.3-1.5,0.9-1.9s1.4-0.6,2.3-0.6c0.7,0,1.6,0.1,2.8,0.3l0.5,0.1l0,1.2
			C279.2,137,278.1,137,277.3,137z"/>
	</g>
</g>
<g id="Layer_2">
</g>
<g id="Layer_3">
</g>
<g id="Layer_1">
	
		<g id="Scroll_7_" transform="translate(76.483186, 92.413601) rotate(13.000000) translate(-76.483186, -92.413601) translate(6.483186, 59.913601)">
		<path class="st2" d="M771.8,15.1c-0.2-2.1-0.4-4-0.5-5.4c4.2,1.6,12.8,3,14.4,3.1c9,0.3,12.5-8.2,12.9-18.3
			c0.4-10.1-4.5-19-13.5-19.3c-6.9-0.2-51-4.7-69.4-5.3c-5.6-0.2-10.7,12.3-11,22.7c-0.1,2.1,2.9,6.7,8.1,12.4L771.8,15.1z"/>
		<path class="st3" d="M722.7,1.1c9.3,2.5,23.6,5.1,42.8,7.9c0.1-6.3,0.7-12.7,1.8-17.2c1.3-5.7,4.5-10,9.5-12.9l-59.1-4.1
			c-3.1,2.2-5.6,5.4-6.8,13.2C710.4-9.2,716.8-0.5,722.7,1.1z"/>
		<path class="st4" d="M763.4-8.5c5.3-6.5,9.6-10.7,13-12.7l-59-4.2c-2.8,2.1-4.9,6.6-6.2,13.6C742.4-5.3,759.8-4.2,763.4-8.5z"/>
		<g id="Group-3_9_" transform="translate(12.744498, 19.020401)">
			<path class="st4" d="M764.5-34.3c-1.2,1.1-5.9,3.8-6.2,10.9c-0.1,3.5,0.5,8.4,1.1,11.6c8.3,1.9,14.6,3.5,15.4,2.4
				c-2.7-0.8-4.7-2.5-6-5c-1-2-2.4-6.2-1.9-10.7c0.5-5.8,4-7.3,4.7-8L764.5-34.3z"/>
			<path class="st3" d="M759.4-11.8c8.3,1.9,14.7,3.5,15.4,2.4c-2.7-0.8-4.8-2.4-6-5c-0.6-1.1-1.7-4-4.7-6.1c-2-1.4-4-1.8-5.9-1.3
				C758.3-18.5,758.9-14.6,759.4-11.8z"/>
			<path class="st3" d="M773.7-30.3c-1.6,1.6-2.4,3.7-2.5,6.4c0,0.6,0,1.3,0,1.9l6.2,1.1c0.1-0.3,0.2-1.8,0.1-3.1
				c-0.1-1-0.5-3.2-1.6-4.6C775-29.7,773.8-30.3,773.7-30.3z"/>
		</g>
		<path id="Combined-Shape-Copy_9_" class="st2" d="M712.5-26.9l-1.2,7.7c1.7,0.5,2.9,0.7,3.7,0.7c1.6,0,3.3,0.6,2.5,0
			c-0.4-0.3-2.3-1.5-3.4-2.1c-0.3-0.2-0.6-0.3-0.9-0.5c2,0.3,4.1,0.5,6.5,0.7c6.4,0.3,6.1,0,0.6-1.5c-1.1-0.3-2.5-0.6-4.2-1
			c0.6-0.1,1.3-0.3,2.1-0.5c1.4-0.4,3.7-1.3,4.2-1.6c0.9-0.6-1.5-0.5-4.1-1.2C716.9-26.6,715-26.8,712.5-26.9z"/>
	</g>
	
		<g id="Scroll_6_" transform="translate(76.483186, 92.413601) rotate(13.000000) translate(-76.483186, -92.413601) translate(6.483186, 59.913601)">
		<path class="st2" d="M729.6,37.1c-0.2-2.1-0.4-4-0.5-5.4c4.2,1.6,12.8,3,14.4,3.1c9,0.3,12.5-8.2,12.9-18.3
			c0.4-10.1-4.5-19-13.5-19.3c-6.9-0.2-51-4.7-69.4-5.3c-5.6-0.2-10.7,12.3-11,22.7c-0.1,2.1,2.9,6.7,8.1,12.4L729.6,37.1z"/>
		<path class="st3" d="M680.5,23.1c9.3,2.5,23.6,5.1,42.8,7.9c0.1-6.3,0.7-12.7,1.8-17.2c1.3-5.7,4.5-10,9.5-12.9l-59.1-4.1
			c-3.1,2.2-5.6,5.4-6.8,13.2C668.2,12.7,674.6,21.5,680.5,23.1z"/>
		<path class="st4" d="M721.2,13.5c5.3-6.5,9.6-10.7,13-12.7l-59-4.2c-2.8,2.1-4.9,6.6-6.2,13.6C700.2,16.7,717.7,17.8,721.2,13.5z"
			/>
		<g id="Group-3_8_" transform="translate(12.744498, 19.020401)">
			<path class="st4" d="M722.3-12.3c-1.2,1.1-5.9,3.8-6.2,10.9c-0.1,3.5,0.5,8.4,1.1,11.6c8.3,1.9,14.6,3.5,15.4,2.4
				c-2.7-0.8-4.7-2.5-6-5c-1-2-2.4-6.2-1.9-10.7c0.5-5.8,4-7.3,4.7-8L722.3-12.3z"/>
			<path class="st3" d="M717.2,10.2c8.3,1.9,14.7,3.5,15.4,2.4c-2.7-0.8-4.8-2.4-6-5c-0.6-1.1-1.7-4-4.7-6.1c-2-1.4-4-1.8-5.9-1.3
				C716.1,3.5,716.7,7.4,717.2,10.2z"/>
			<path class="st3" d="M731.5-8.3c-1.6,1.6-2.4,3.7-2.5,6.4c0,0.6,0,1.3,0,1.9l6.2,1.1c0.1-0.3,0.2-1.8,0.1-3.1
				c-0.1-1-0.5-3.2-1.6-4.6C732.8-7.8,731.6-8.3,731.5-8.3z"/>
		</g>
		<path id="Combined-Shape-Copy_8_" class="st2" d="M670.4-4.9l-1.2,7.7c1.7,0.5,2.9,0.7,3.7,0.7c1.6,0,3.3,0.6,2.5,0
			c-0.4-0.3-2.3-1.5-3.4-2.1c-0.3-0.2-0.6-0.3-0.9-0.5c2,0.3,4.1,0.5,6.5,0.7c6.4,0.3,6.1,0,0.6-1.5c-1.1-0.3-2.5-0.6-4.2-1
			c0.6-0.1,1.3-0.3,2.1-0.5c1.4-0.4,3.7-1.3,4.2-1.6c0.9-0.6-1.5-0.5-4.1-1.2C674.7-4.6,672.8-4.8,670.4-4.9z"/>
	</g>
	
		<g id="Scroll_5_" transform="translate(76.483186, 92.413601) rotate(13.000000) translate(-76.483186, -92.413601) translate(6.483186, 59.913601)">
		<path class="st2" d="M748,3.1c-0.2-2.1-0.4-4-0.5-5.4c4.2,1.6,12.8,3,14.4,3.1c9,0.3,12.5-8.2,12.9-18.3
			c0.4-10.1-4.5-19-13.5-19.3c-6.9-0.2-51-4.7-69.4-5.3c-5.6-0.2-10.7,12.3-11,22.7c-0.1,2.1,2.9,6.7,8.1,12.4L748,3.1z"/>
		<path class="st3" d="M698.8-10.9c9.3,2.5,23.6,5.1,42.8,7.9c0.1-6.3,0.7-12.7,1.8-17.2c1.3-5.7,4.5-10,9.5-12.9l-59.1-4.1
			c-3.1,2.2-5.6,5.4-6.8,13.2C686.5-21.2,693-12.5,698.8-10.9z"/>
		<path class="st4" d="M739.6-20.5c5.3-6.5,9.6-10.7,13-12.7l-59-4.2c-2.8,2.1-4.9,6.6-6.2,13.6C718.6-17.3,736-16.2,739.6-20.5z"/>
		<g id="Group-3_7_" transform="translate(12.744498, 19.020401)">
			<path class="st4" d="M740.7-46.3c-1.2,1.1-5.9,3.8-6.2,10.9c-0.1,3.5,0.5,8.4,1.1,11.6c8.3,1.9,14.6,3.5,15.4,2.4
				c-2.7-0.8-4.7-2.5-6-5c-1-2-2.4-6.2-1.9-10.7c0.5-5.8,4-7.3,4.7-8L740.7-46.3z"/>
			<path class="st3" d="M735.6-23.8c8.3,1.9,14.7,3.5,15.4,2.4c-2.7-0.8-4.8-2.4-6-5c-0.6-1.1-1.7-4-4.7-6.1c-2-1.4-4-1.8-5.9-1.3
				C734.5-30.5,735.1-26.5,735.6-23.8z"/>
			<path class="st3" d="M749.9-42.3c-1.6,1.6-2.4,3.7-2.5,6.4c0,0.6,0,1.3,0,1.9l6.2,1.1c0.1-0.3,0.2-1.8,0.1-3.1
				c-0.1-1-0.5-3.2-1.6-4.6C751.2-41.7,750-42.3,749.9-42.3z"/>
		</g>
		<path id="Combined-Shape-Copy_7_" class="st2" d="M688.7-38.9l-1.2,7.7c1.7,0.5,2.9,0.7,3.7,0.7c1.6,0,3.3,0.6,2.5,0
			c-0.4-0.3-2.3-1.5-3.4-2.1c-0.3-0.2-0.6-0.3-0.9-0.5c2,0.3,4.1,0.5,6.5,0.7c6.4,0.3,6.1,0,0.6-1.5c-1.1-0.3-2.5-0.6-4.2-1
			c0.6-0.1,1.3-0.3,2.1-0.5c1.4-0.4,3.7-1.3,4.2-1.6c0.9-0.6-1.5-0.5-4.1-1.2C693.1-38.6,691.2-38.8,688.7-38.9z"/>
	</g>
	<g>
		<g id="Group-9_2_" transform="translate(115.000000, 1547.000000)">
			<g id="Group-7_2_" transform="translate(343.000000, 192.000000)">
				<path id="Oval_4_" class="st2" d="M120.4-1601.8c2,0,13.2-1.5,18.7-3.3c-1.8,19.2-15.8,89.2-9.9,105.1
					c3.8,10.6,11.9,14.5,20.5,13.6c12.8-1.3,34.3-2.1,52.8-4.4c8.9-1.1,18-1.1,23.4-4.4c9.2-5.5,5.8-21.2,0-31.7
					c-2.1-3.8-3.6-3-8.8-3c0-10.3,3.4-25.6,5.2-40.7c2.4-20.6,3.6-45.9,3.6-53.7c0-13.5-5.9-29.9-13.2-29.9
					c-23.8,0-80.8,3.7-89.8,3.7c-11.6,0-18.3,11.2-18.3,24.3S108.8-1601.8,120.4-1601.8z"/>
				<path class="st3" d="M134-1645.4l76.6-2.6c5.8,4.5,8.8,17,8.8,37.5s-2.9,47.3-8.8,80.2c-39.6,2-61.2,3.3-64.9,3.9
					s-7,3.3-9.9,8.1c3.6-27.1,6.9-49.9,9.9-68.4c1.7-10.8,2.2-30.4,0-41.6C144.2-1635.7,140.3-1641.4,134-1645.4z"/>
				<path id="Path_4_" class="st4" d="M150.2-1628.6c-6.6-8.5-12-14.1-16.2-16.8l76.5-2.6c3.6,2.8,6,8.6,7.4,17.5
					C177.2-1623.6,154.6-1622.9,150.2-1628.6z"/>
				<g id="Group-3_5_" transform="translate(14.000000, 24.000000)">
					<path class="st4" d="M117.6-1661.7c1.6,1.4,7.5,5.2,7.5,14.3c0,4.6-1.1,10.8-2,14.9c-10.8,2-19,3.9-19.9,2.4
						c3.6-0.9,6.2-3,8-6.2c1.4-2.6,3.3-8,3-13.8c-0.4-7.5-4.8-9.6-5.7-10.5L117.6-1661.7z"/>
					<path class="st3" d="M123.2-1632.5c-10.8,2-19.1,3.8-20,2.3c3.6-0.9,6.2-2.9,8-6.1c0.8-1.4,2.4-5.1,6.3-7.6
						c2.6-1.7,5.2-2.2,7.6-1.4C124.9-1641.1,124-1636,123.2-1632.5z"/>
					<path class="st3" d="M105.6-1657c1.9,2.1,2.9,4.9,2.9,8.4c0,0.8,0,1.6-0.1,2.4l-8.1,1.1c-0.1-0.4-0.2-2.4,0-4
						c0.2-1.3,0.8-4.1,2.3-5.9C103.9-1656.4,105.5-1657,105.6-1657z"/>
					
						<g id="Group-4_2_" transform="translate(99.916861, 186.391426) rotate(-356.000000) translate(-99.916861, -186.391426) translate(37.916861, 160.891426)">
						<path id="Path-Copy-6_2_" class="st4" d="M44.5-1713.2c1.3-0.1,3.5,2.6,5.4,7.1c2.9,7.2-0.8,10.9-5.1,13.3
							c-10.8,2-45.2,7.8-46.1,6.3c-13.7,4.7-19.7,5.4-17.9,2.2c1.4-2.6,0.8-4,0.5-9.8c-0.4-7.5-4.8-9.6-5.7-10.5L44.5-1713.2z"/>
						<path id="Path-Copy-5_2_" class="st3" d="M52.4-1692.6c-1.6,7.3-39.7,9-49.8,10.7s-26.1,4.9-24.3,1.7c0.8-1.4,2.4-5.1,6.3-7.6
							c2.5-1.6,25.5-10.4,43.7-13.5c12.1-2,18.7-4.9,19.6-8.5C54-1703.2,52.2-1694.8,52.4-1692.6z"/>
						<path id="Path-Copy-2_2_" class="st3" d="M-27.8-1699.5c1.5,1.9,2.3,4.4,2.3,7.6c0,0.7,0,1.5-0.1,2.2l-6.4,1
							c-0.1-0.3-0.2-2.1,0-3.6c0.1-1.2,0.6-3.7,1.8-5.3C-29.1-1698.9-27.9-1699.5-27.8-1699.5z"/>
					</g>
				</g>
				<path id="Combined-Shape_2_" class="st2" d="M135-1542.9l0.8,8.8c2,0.1,3.5,0,4.4-0.2c1.8-0.4,3.8-0.3,2.8-0.7
					c-0.5-0.2-3-1-4.4-1.4c-0.4-0.1-0.8-0.2-1.2-0.3c2.3-0.2,4.7-0.5,7.5-1.1c7.3-1.4,6.8-1.7,0.2-1.9c-1.3,0-3,0-5,0.1
					c0.7-0.3,1.4-0.7,2.2-1.1c1.5-0.8,3.8-2.4,4.2-2.9c0.8-0.9-1.8-0.1-4.9-0.2C140-1543.9,137.8-1543.6,135-1542.9z"/>
				<path id="Combined-Shape-Copy_2_" class="st2" d="M216.6-1649.5l1.2,9.9c-2.2,0.6-3.8,0.8-4.8,0.8c-2.1-0.1-4.3,0.6-3.2-0.2
					c0.5-0.4,3-1.8,4.5-2.6c0.4-0.2,0.8-0.4,1.2-0.6c-2.6,0.3-5.3,0.5-8.5,0.6c-8.3,0.1-7.8-0.3-0.7-2c1.4-0.3,3.3-0.7,5.5-1.1
					c-0.8-0.2-1.7-0.4-2.6-0.7c-1.8-0.6-4.7-1.8-5.3-2.2c-1.1-0.8,1.9-0.6,5.3-1.4C211-1649.4,213.4-1649.6,216.6-1649.5z"/>
			</g>
		</g>
		<g>
			<path d="M612.7,161c-0.4,2.6,0.7,5.4,1.6,7.8c0.5,1.3,2.1,1.3,2.7,0c1.1-2.7,2.7-5.1,4.6-7.2c1.5-1.6,4-2.8,4.8-4.8
				c0.3-0.7-0.4-1.4-1.1-1.4c-2.6-0.1-5.1,3.2-6.6,5c-1.9,2.3-3.4,4.9-4.5,7.7c0.9,0,1.8,0,2.7,0c-0.9-2.3-1.5-5.2-2.9-7.2
				C613.8,160.4,612.8,160.3,612.7,161L612.7,161z"/>
		</g>
		<g>
			<path d="M613.2,144.7c-2.3,1.3,0,5.9,1,7.4c0.4,0.7,1.2,0.7,1.8,0.2c1.9-1.6,3.8-3.2,5.7-4.9c1.6-1.4,3.9-2.8,4.9-4.8
				c0.4-0.7-0.2-1.8-1.2-1.5c-2.1,0.7-3.6,2.6-5.2,4.1c-2,1.8-3.9,3.6-5.8,5.4c0.6,0.1,1.2,0.2,1.8,0.2c-1-1.4-1.5-2.9-1.9-4.6
				c-0.2-0.9-0.1-1.1-0.8-1.6C613.4,144.7,613.3,144.7,613.2,144.7L613.2,144.7z"/>
		</g>
		<g>
			<path d="M613.6,131.3c-0.3,2.6,1.4,7.9,4.7,5c1.6-1.4,2.7-3.8,4-5.6c1.5-2.1,3.5-4,4.9-6.2c1-1.6-1.1-2.9-2.4-1.9
				c-2.2,1.9-4,4.8-5.6,7.3c-0.7,1-1.4,3.2-2.4,3.9c-0.1,0.2-0.2,0.3-0.3,0.5c-0.3-0.6-0.6-1.2-0.8-1.8c-0.2-0.6-0.4-1-0.8-1.6
				C614.6,130.3,613.7,130.6,613.6,131.3L613.6,131.3z"/>
		</g>
		<g>
			<g>
				<path d="M633.6,128.7C633.6,128.7,633.6,128.7,633.6,128.7C633.6,128.7,633.6,128.7,633.6,128.7L633.6,128.7z"/>
			</g>
		</g>
		<g>
			<path d="M633.5,128.5c5.4,1.2,11.6,0.2,17.1,0.1c2.9,0,5.8-0.1,8.8-0.1c2.8,0,5.8,0.3,8.6-0.2c1.4-0.3,1.4-2.5,0-2.9
				c-2.6-0.6-5.4-0.4-8.1-0.4c-3.1,0-6.2,0.1-9.3,0.3c-5.4,0.3-12,0.1-17.1,2.3C633.1,127.8,633,128.4,633.5,128.5L633.5,128.5z"/>
		</g>
		<g>
			<path d="M631.7,145.4c6-0.1,12-0.2,18-0.4c2.9-0.1,5.8-0.1,8.8-0.1c2.7,0,6,0.7,8.6-0.3c0.9-0.4,1.4-1.8,0.3-2.3
				c-2.3-1.1-5.2-0.8-7.8-0.9c-3.3,0-6.6,0-9.9,0.1c-6.2,0.2-12.2,0.9-18.3,2C630.5,143.8,630.7,145.4,631.7,145.4L631.7,145.4z"/>
		</g>
		<g>
			<path d="M631.1,163c2.6,0.6,5.5,0.5,8.2,0.5c2.7,0,5.6,0.3,8.3-0.4c1.3-0.3,1.3-2.3,0-2.6c-2.7-0.6-5.6-0.2-8.3-0.1
				c-2.7,0.1-5.6,0.1-8.2,0.8C630.2,161.4,630.2,162.8,631.1,163L631.1,163z"/>
		</g>
	</g>
	
		<g id="Group_2_" transform="translate(260.366293, 119.699418) rotate(-3.000000) translate(-260.366293, -119.699418) translate(198.866293, 3.699418)">
		<path id="Fill-1-Copy_2_" d="M501,141.9c-1.3,0.3-2.6,0.5-3.9,0.8c-0.2,0-0.3,0.1-0.5,0.1c-0.1,0-0.2-0.1-0.2-0.1
			c0-0.1,0.1-0.1,0.2-0.1c0.1-0.1,0.2-0.1,0.4-0.2c2.3-1,4.5-2.1,6.8-3.1c1.7-0.8,3.5-1.3,5-2.4c2.2-1.6,4.4-3.4,6.6-5.1
			c2.3-1.8-0.5,0.5,1.9-1.3c-2.5-0.4-4.9-0.1-7.3-0.3c3-0.6,6-1.2,9-1.1c0.2,0,0.4-0.1,0.6-0.2c3.4-2.7,3.3-3.4,6.9-5.8
			c1.4-0.9,2.7-1.9,4.2-2.9c-2.2-0.2-4,0-5.9,0.2c-0.2,0.1-0.4,0.1-0.6,0c-0.2,0-0.3,0.1-0.5,0.1l-0.3,0.1c-0.1,0-0.2,0-0.3-0.1
			c0-0.2,0.1-0.1,0.2-0.1c0.1-0.1,0.1-0.2,0.3-0.1c0.1-0.2,0.3-0.2,0.4-0.1c0.2,0,0.4-0.1,0.6-0.1c1.6-0.6,3.2-0.8,4.8-0.9
			c1.8,0,3.6-0.3,5-1.6c1.5-1.4,3-2.7,4.6-4c-0.3-0.2-0.5-0.3-0.7-0.3c-2.1,0.2-4.1,0.4-6.2,0.6c-0.5,0-0.5,0.1-1-0.2
			c3.1-0.9,6.5-1.9,9.7-2.2c0.4,0,1.5-0.9,1.7-1.1c1.2-1.3,1.4-1.8,2.5-3.2c1.9-2.4,3.7-4.9,4.3-8c0.4-2-0.4-3.2-2.3-3.8
			c-0.9-0.3-1.9-0.4-2.9-0.4c-3.7,0-7.3,0.8-10.9,1.5c-2.4,0.5-4.6,1.3-6.3,3.3c-0.3,0.3-0.6,0.7-1.2,0.7c0.7-0.9,1.6-1.5,2.3-2.5
			c-0.3,0.1-0.5,0.1-0.6,0.1c-6.2,1.7-3.8,1.1-9.3,4.5c-2.2,1.3-5.1,3.9-6.3,6.2c-0.8,1.5-3.2,3.9-4.1,5.4c0,0-7.9,7.9-7.9,7.9
			l9.1-14.4c-1.3,0.9-2.5,1.7-3.6,2.5c-6.5,4.7-7.6,5.6-13.7,10.8c-4.1,3.5-3,1.6-5.9,6.2c-1.1,1.8-2.3,3.5-3.9,5.3
			c0.7-1.7,1.3-3.2,1.9-4.7c-3.8,2.3-4.7,6.4-7,9.7c0.3-1.2,0.7-2.5,1-3.7c-2,1.8-3.7,3.6-5.2,5.7c-2.4,3.1-4.3,6.4-5.1,10.3
			c0,0.1,0,0.2-0.1,0.2c-0.1,0-0.1-0.1-0.1-0.2c-1.8-1.9-1.8-4.1-1-6.5c-1.3,2.2-1.6,4.4-0.2,6.7c0.6,1,1,2.1,1.2,3.2
			c0.2,1.2,0,2.2-0.8,3.1c-2,2.1-4,4.3-5.9,6.5c-2.8,3.2-5.7,6.4-8.3,9.8c-1,1.3-1.8,2.7-1.4,4.6c0.2-0.1,0.3-0.2,0.3-0.3
			c4.8-6.2,9.7-12.2,15-18c3.9-4.2,7-8.4,11-12.9c2.1-2.3,6.6-7.6,15.5-14.7c12.3-9.8,24.4-16.5,26.4-17.3c0.5-0.2,3-0.4,3-0.4
			c-1.2,0.8-2.4,1.6-3.5,2.4c-2.9,2-32.6,24.3-41.4,33.4c-2.4,2.4-4.7,4.9-7,7.4c1.9,0.5,2.5,2.5,4.1,3.2c-0.5-1-1.4-1.7-1.7-2.9
			c2.6,1.6,15.1-0.1,14.3-0.5c-0.8-0.4-10.8,1.4-12.8-0.2c5.8-1.4,10.8-4.3,15.8-7.4c-1.2-0.4-2.4-0.2-3.6-0.8
			c1.7-0.1,3.2-0.3,4.8-0.4c0.6,0,1.1-0.2,1.6-0.5c4.8-3.1,4.1-1.2,8.6-4.6c0.2-0.1,0.5-0.2,0.4-0.5
			C501.5,141.7,501.2,141.8,501,141.9z M506.3,147.3c-0.3,0.3-0.7,0.6-1,0.8c-0.1,0.1-0.2,0.1-0.2,0.1c-2.3,1.6-3.8,2.5-5.7,3.1
			c-0.1,0-0.2,0.1-0.2,0.1c-0.5,0.2-0.8,0.3-1.1,0.4l-4.4,2.7c0.2,0.5,0.2,1.1,0.3,1.7c0,1.7-0.5,3.2-1.4,4.4
			c-0.5,0.6-1,1.1-1.6,1.5c-0.8,0.6-1.5,0.8-2.3,1.1c-0.6,0.2-1.2,0.3-2,0.4c-0.8,0.1-1.7,0.3-2.6,0.4l4.1,8.9l-16.3-6.8
			c-0.7-0.3-1.4-0.6-1.9-1c-4.4,4.9-8.7,10.1-13.1,15.8c-0.1,0.2-0.1,0.2-0.3,0.3c-0.5,0.6-1.6,1.5-1.1,1l-8.9,7.4l-2.3-11.4
			c-0.4-2.2-0.2-4.3,0.5-6.3c0.5-1.4,1.2-2.5,2.1-3.7c2-2.7,3.7-4.7,7.5-9c0.1-0.1,0.1-0.1,0.2-0.3c0.4-0.4,0.6-0.7,0.9-1
			c1.6-1.8,3.1-3.5,4.6-5.1c-2.4-4.4-2.1-9.1,0.4-13.4l3,1.4c1-2,2.3-4,3.9-6c1.9-2.5,3.9-4.6,6.1-6.6l1.4-1.3
			c0.2-0.2,0.3-0.5,0.5-0.7c1.4-1.9,3-3.5,5-4.7l1.2-0.7c0.1-0.1,0.1-0.2,0.2-0.3c0.7-1,1.3-1.8,2.2-2.5c0.2-0.2,2.3-1.7,3.3-2.6
			c6.4-5.5,7.7-6.5,14.1-11.1c0.1-0.1,0.3-0.2,0.4-0.3c0.7-0.5,3.5-2.4,3.3-2.3l28-19.5l-5.4,8.5c1.3-0.5,2.7-0.9,4.2-1.3
			c0.2,0,0.4-0.1,0.7-0.1c0.1,0,0.1,0,0.2,0c5.4-1.1,8-1.5,11.5-1.5c1.7,0,3.3,0.3,4.8,0.7c5.2,1.6,8,6.2,7,11.6
			c-0.8,4.1-2.5,7.2-5.7,11.1c-0.3,0.4-0.4,0.5-0.8,1.1l0.9,0.6l-2.6,2l1.5,0.2l-10.4,7.2c0,0,0,0,0,0c-1,0.9-2,1.6-3.1,2.1
			l-1.6,1.1c-0.1,0-0.3,0.2-0.7,0.5l-7.8,6.1c-0.7,0.7-1.4,1.2-2.4,2c0,0,0,0,0,0c-0.1,0.1-0.3,0.2-0.4,0.3
			c-0.2,0.2-0.5,0.3-0.7,0.5l-1.1,0.9c-0.7,0.6-1.1,0.8-1.4,1c-0.1,0.1-0.1,0.1-0.3,0.2c-0.1,0-0.1,0.1-0.2,0.1c0,0,0,0,0,0
			c-0.5,0.4-1,0.8-2,1.5l0,0c-2.3,1.8-3.4,2.7-4.8,3.7c-1.4,1-2.5,1.5-4.7,2.4C507.6,145.8,507,146.6,506.3,147.3z M472.1,144.6
			c-1.3-1.1-2.9-1.7-4.5-1.7l4.3,2C472,144.8,472.1,144.7,472.1,144.6z M522.7,120.2C522.7,120.2,522.7,120.2,522.7,120.2
			C522.7,120.2,522.7,120.2,522.7,120.2C522.6,120.2,522.7,120.2,522.7,120.2z M506,105.5C506,105.5,506,105.5,506,105.5
			C506,105.5,506,105.5,506,105.5L506,105.5z"/>
		<path id="Fill-1_2_" class="st3" d="M501,141.9c0.2,0,0.5-0.2,0.7,0.1c0.1,0.3-0.2,0.4-0.4,0.5c-4.6,3.4-3.9,1.5-8.6,4.6
			c-0.5,0.3-1,0.5-1.6,0.5c-1.5,0.1-3.1,0.2-4.8,0.4c1.2,0.6,2.4,0.4,3.6,0.8c-5,3.1-10,6-15.8,7.4c2,1.7,12-0.2,12.8,0.2
			c0.8,0.4-11.7,2.1-14.3,0.5c0.3,1.1,1.3,1.8,1.7,2.9c-1.6-0.7-2.3-2.7-4.1-3.2c2.2-2.6,4.6-5,7-7.4c8.9-9.1,38.5-31.4,41.4-33.4
			c1.2-0.8,2.4-1.6,3.5-2.4c0,0-2.6,0.2-3,0.4c-1.9,0.9-14.1,7.6-26.4,17.3c-8.9,7.1-13.4,12.4-15.5,14.7c-4,4.6-7.1,8.7-11,12.9
			c-5.3,5.8-10.2,11.8-15,18c-0.1,0.1-0.2,0.1-0.3,0.3c-0.4-1.9,0.5-3.3,1.4-4.6c2.5-3.4,5.4-6.6,8.3-9.8c1.9-2.2,3.9-4.4,5.9-6.5
			c0.9-0.9,1.1-1.9,0.8-3.1c-0.2-1.2-0.6-2.2-1.2-3.2c-1.3-2.3-1.1-4.5,0.2-6.7c-0.8,2.4-0.8,4.6,1,6.5c0,0.1,0,0.2,0.1,0.2
			c0,0,0.1-0.2,0.1-0.2c0.8-3.9,2.8-7.2,5.1-10.3c1.6-2,3.3-3.9,5.2-5.7c-0.3,1.2-0.7,2.5-1,3.7c2.2-3.3,3.2-7.4,7-9.7
			c-0.6,1.5-1.2,3-1.9,4.7c1.5-1.7,2.8-3.5,3.9-5.3c2.9-4.7,1.8-2.8,5.9-6.2c6.1-5.2,7.2-6.1,13.7-10.8c1.2-0.8,2.3-1.6,3.6-2.5
			l-9.1,14.4c0,0,7.9-7.9,7.9-7.9c0.9-1.5,3.3-3.9,4.1-5.4c1.1-2.3,4.1-4.9,6.3-6.2c5.5-3.4,3.1-2.8,9.3-4.5c0.2,0,0.3-0.1,0.6-0.1
			c-0.6,1-1.5,1.6-2.3,2.5c0.6,0,1-0.4,1.2-0.7c1.6-2,3.8-2.8,6.3-3.3c3.6-0.8,7.2-1.6,10.9-1.5c1,0,2,0.1,2.9,0.4
			c1.9,0.6,2.7,1.8,2.3,3.8c-0.6,3.1-2.4,5.6-4.3,8c-1.1,1.4-1.3,1.9-2.5,3.2c-0.2,0.2-1.4,1.1-1.7,1.1c-3.3,0.3-6.6,1.3-9.7,2.2
			c0.5,0.3,0.5,0.2,1,0.2c2.1-0.2,4.1-0.4,6.2-0.6c0.2,0,0.4,0.1,0.7,0.3c-1.6,1.3-3.1,2.6-4.6,4c-1.4,1.3-3.2,1.6-5,1.6
			c-1.6,0-3.3,0.3-4.8,0.9c-0.2,0-0.4,0.1-0.6,0.1c-0.2,0-0.3,0-0.4,0.1c-0.1,0-0.2,0-0.3,0.1c-0.1,0-0.2-0.1-0.2,0.1
			c0,0,0.2,0,0.3,0.1l0.3-0.1c0.2,0,0.3-0.1,0.5-0.1c0.2,0.1,0.4,0,0.6,0c1.9-0.2,3.7-0.4,5.9-0.2c-1.5,1.1-2.9,2-4.2,2.9
			c-3.6,2.4-3.5,3.1-6.9,5.8c-0.2,0.1-0.3,0.3-0.6,0.2c-3.1-0.1-6,0.5-9,1.1c2.4,0.2,4.7-0.1,7.3,0.3c-2.4,1.9,0.4-0.4-1.9,1.3
			c-2.2,1.7-4.3,3.5-6.6,5.1c-1.5,1.1-3.3,1.6-5,2.4c-2.2,1.1-4.5,2.1-6.8,3.1c-0.1,0.1-0.2,0.1-0.4,0.2c-0.1,0-0.2-0.1-0.2,0.1
			c0,0,0.1,0.1,0.2,0.1c0.2,0,0.3-0.1,0.5-0.1C498.4,142.4,499.7,142.1,501,141.9z"/>
		<path class="st4" d="M470.6,156.8c1.1-1.4,2.3-2.7,3.5-4.1c1.1-1.1,2.2-2.2,3.2-3.4c3.4-3.5,9.8-8.9,16.6-14.4
			C493.6,136.2,471.3,157,470.6,156.8z M497.7,127.5l5.3-8.4c2.3-2.3,5-5,5-5c0.9-1.5,3.3-3.9,4.1-5.4c1.2-2.3,4.1-4.9,6.3-6.2
			c5.5-3.4,3.1-2.8,9.3-4.5c0.2,0,0.3-0.1,0.6-0.1c-0.6,1-1.5,1.6-2.3,2.5c0.6,0,1-0.4,1.2-0.7c1.6-2,3.8-2.8,6.2-3.3
			c3.6-0.8,7.2-1.6,10.9-1.5c1,0,2,0.1,2.9,0.4c1.9,0.6,2.7,1.8,2.3,3.8c-0.4,2.4-1.6,4.4-2.9,6.2c0.3-1.9-0.4-3.1-2.3-3.7
			c-0.9-0.3-1.9-0.4-2.9-0.4c-3.7,0-7.3,0.8-10.9,1.5c-2.4,0.5-4.6,1.3-6.2,3.3c-0.3,0.3-0.6,0.7-1.2,0.7c0.7-0.9,1.6-1.5,2.3-2.5
			c-0.3,0.1-0.5,0.1-0.6,0.1c-6.2,1.7-3.8,1.1-9.3,4.5c-2.2,1.3-5.1,3.9-6.3,6.2c-0.8,1.5-3.2,3.9-4.1,5.4c0,0-3.8,3.8-6.2,6.2
			C498.5,126.9,498.1,127.2,497.7,127.5z M464.4,160.9c-1.4,1.5-12.1,14.4-13.4,16c-0.3-1.8,10-14.5,10.9-15.7
			C464.5,157.8,467.5,157,464.4,160.9z M466.3,149.9c-1.3-2.3-1.1-4.5,0.2-6.7c-0.8,2.3-0.8,4.4,0.8,6.3c-0.2,0.4-0.4,0.8-0.7,1.2
			C466.6,150.4,466.5,150.1,466.3,149.9z M472.9,139.3c1.6-2,3.3-3.9,5.2-5.7c-0.3,1.3-0.7,2.5-1,3.8c2.2-3.3,3.2-7.4,7-9.7
			c-0.6,1.5-1.2,3-1.9,4.7c1.5-1.7,2.8-3.5,3.9-5.3c2.9-4.7,1.8-2.8,5.9-6.2c6.1-5.2,7.2-6.1,13.7-10.8c1.2-0.8,2.3-1.6,3.6-2.5
			l-4.9,7.7c-0.6,0.4-1.1,0.8-1.7,1.2c-6.5,4.7-7.6,5.6-13.7,10.8c-4.1,3.5-3,1.6-5.9,6.2c-1.1,1.8-2.3,3.5-3.9,5.3
			c0.7-1.7,1.3-3.2,1.9-4.7c-3.8,2.3-4.7,6.4-7,9.7c0.3-1.3,0.7-2.5,1-3.8c-2,1.8-3.7,3.7-5.2,5.7c-0.7,0.9-1.3,1.7-1.9,2.7
			C469,145,470.8,142.1,472.9,139.3z"/>
	</g>
</g>
</svg>
