<?xml version="1.0" encoding="UTF-8"?>
<svg width="882px" height="300px" viewBox="0 0 882 300" version="1.1" xmlns="http://www.w3.org/2000/svg" xmlns:xlink="http://www.w3.org/1999/xlink">
    <!-- Generator: Sketch 61 (89581) - https://sketch.com -->
    <title>Validator node</title>
    <desc>Created with Sketch.</desc>
    <g id="Validator-node" stroke="none" stroke-width="1" fill="none" fill-rule="evenodd">
        <g id="Group">
            <rect id="Rectangle" fill="#FFFFFF" fill-rule="nonzero" x="0" y="0" width="882" height="300"></rect>
            <rect id="Rectangle" fill="#000000" fill-rule="nonzero" x="0" y="0" width="882" height="210"></rect>
            <rect id="Rectangle" fill="#1F242C" fill-rule="nonzero" x="620" y="105" width="52.5" height="52.5"></rect>
            <polygon id="Path" fill="#1F242C" fill-rule="nonzero" points="625.837 157.5 620 157.5 620 163.337 625.837 163.337"></polygon>
            <polygon id="Path" fill="#1F242C" fill-rule="nonzero" points="631.673 163.337 625.837 163.337 625.837 169.174 631.673 169.174"></polygon>
            <polygon id="Path" fill="#1F242C" fill-rule="nonzero" points="637.494 157.5 631.658 157.5 631.658 163.337 637.494 163.337"></polygon>
            <polygon id="Path" fill="#1F242C" fill-rule="nonzero" points="625.837 169.158 620 169.158 620 174.995 625.837 174.995"></polygon>
            <polygon id="Path" fill="#1F242C" fill-rule="nonzero" points="637.494 169.158 631.658 169.158 631.658 174.995 637.494 174.995"></polygon>
            <polygon id="Path" fill="#1F242C" fill-rule="nonzero" points="643.332 163.337 637.495 163.337 637.495 169.174 643.332 169.174"></polygon>
            <polygon id="Path" fill="#1F242C" fill-rule="nonzero" points="631.673 174.995 625.837 174.995 625.837 180.832 631.673 180.832"></polygon>
            <polygon id="Path" fill="#1F242C" fill-rule="nonzero" points="625.837 180.832 620 180.832 620 186.669 625.837 186.669"></polygon>
            <polygon id="Path" fill="#1F242C" fill-rule="nonzero" points="637.494 180.832 631.658 180.832 631.658 186.669 637.494 186.669"></polygon>
            <polygon id="Path" fill="#1F242C" fill-rule="nonzero" points="643.332 174.995 637.495 174.995 637.495 180.832 643.332 180.832"></polygon>
            <polygon id="Path" fill="#1F242C" fill-rule="nonzero" points="631.673 186.668 625.837 186.668 625.837 192.505 631.673 192.505"></polygon>
            <polygon id="Path" fill="#1F242C" fill-rule="nonzero" points="625.837 192.489 620 192.489 620 198.326 625.837 198.326"></polygon>
            <polygon id="Path" fill="#1F242C" fill-rule="nonzero" points="637.494 192.489 631.658 192.489 631.658 198.326 637.494 198.326"></polygon>
            <polygon id="Path" fill="#1F242C" fill-rule="nonzero" points="643.332 186.668 637.495 186.668 637.495 192.505 643.332 192.505"></polygon>
            <polygon id="Path" fill="#1F242C" fill-rule="nonzero" points="631.673 198.326 625.837 198.326 625.837 204.163 631.673 204.163"></polygon>
            <polygon id="Path" fill="#1F242C" fill-rule="nonzero" points="625.837 204.164 620 204.164 620 210.001 625.837 210.001"></polygon>
            <polygon id="Path" fill="#1F242C" fill-rule="nonzero" points="637.494 204.164 631.658 204.164 631.658 210.001 637.494 210.001"></polygon>
            <polygon id="Path" fill="#1F242C" fill-rule="nonzero" points="643.332 198.326 637.495 198.326 637.495 204.163 643.332 204.163"></polygon>
            <polygon id="Path" fill="#1F242C" fill-rule="nonzero" points="649.168 157.5 643.331 157.5 643.331 163.337 649.168 163.337"></polygon>
            <polygon id="Path" fill="#1F242C" fill-rule="nonzero" points="655.006 163.337 649.169 163.337 649.169 169.174 655.006 169.174"></polygon>
            <polygon id="Path" fill="#1F242C" fill-rule="nonzero" points="660.826 157.5 654.99 157.5 654.99 163.337 660.826 163.337"></polygon>
            <polygon id="Path" fill="#1F242C" fill-rule="nonzero" points="649.168 169.158 643.331 169.158 643.331 174.995 649.168 174.995"></polygon>
            <polygon id="Path" fill="#1F242C" fill-rule="nonzero" points="660.826 169.158 654.99 169.158 654.99 174.995 660.826 174.995"></polygon>
            <polygon id="Path" fill="#1F242C" fill-rule="nonzero" points="666.663 163.337 660.826 163.337 660.826 169.174 666.663 169.174"></polygon>
            <polygon id="Path" fill="#1F242C" fill-rule="nonzero" points="655.006 174.995 649.169 174.995 649.169 180.832 655.006 180.832"></polygon>
            <polygon id="Path" fill="#1F242C" fill-rule="nonzero" points="649.168 180.832 643.331 180.832 643.331 186.669 649.168 186.669"></polygon>
            <polygon id="Path" fill="#1F242C" fill-rule="nonzero" points="660.826 180.832 654.99 180.832 654.99 186.669 660.826 186.669"></polygon>
            <polygon id="Path" fill="#1F242C" fill-rule="nonzero" points="666.663 174.995 660.826 174.995 660.826 180.832 666.663 180.832"></polygon>
            <polygon id="Path" fill="#1F242C" fill-rule="nonzero" points="655.006 186.668 649.169 186.668 649.169 192.505 655.006 192.505"></polygon>
            <polygon id="Path" fill="#1F242C" fill-rule="nonzero" points="649.168 192.489 643.331 192.489 643.331 198.326 649.168 198.326"></polygon>
            <polygon id="Path" fill="#1F242C" fill-rule="nonzero" points="660.826 192.489 654.99 192.489 654.99 198.326 660.826 198.326"></polygon>
            <polygon id="Path" fill="#1F242C" fill-rule="nonzero" points="666.663 186.668 660.826 186.668 660.826 192.505 666.663 192.505"></polygon>
            <polygon id="Path" fill="#1F242C" fill-rule="nonzero" points="655.006 198.326 649.169 198.326 649.169 204.163 655.006 204.163"></polygon>
            <polygon id="Path" fill="#1F242C" fill-rule="nonzero" points="649.168 204.164 643.331 204.164 643.331 210.001 649.168 210.001"></polygon>
            <polygon id="Path" fill="#1F242C" fill-rule="nonzero" points="660.826 204.164 654.99 204.164 654.99 210.001 660.826 210.001"></polygon>
            <polygon id="Path" fill="#1F242C" fill-rule="nonzero" points="672.5 157.5 666.663 157.5 666.663 163.337 672.5 163.337"></polygon>
            <polygon id="Path" fill="#1F242C" fill-rule="nonzero" points="672.5 169.158 666.663 169.158 666.663 174.995 672.5 174.995"></polygon>
            <polygon id="Path" fill="#1F242C" fill-rule="nonzero" points="672.5 180.832 666.663 180.832 666.663 186.669 672.5 186.669"></polygon>
            <polygon id="Path" fill="#1F242C" fill-rule="nonzero" points="672.5 192.489 666.663 192.489 666.663 198.326 672.5 198.326"></polygon>
            <polygon id="Path" fill="#1F242C" fill-rule="nonzero" points="672.5 204.164 666.663 204.164 666.663 210.001 672.5 210.001"></polygon>
            <polygon id="Path" fill="#1F242C" fill-rule="nonzero" points="666.663 198.326 660.826 198.326 660.826 204.163 666.663 204.163"></polygon>
            <rect id="Rectangle" fill="#1F242C" fill-rule="nonzero" x="631.667" y="52.5" width="5.83333" height="52.5"></rect>
            <rect id="Rectangle" fill="#1F242C" fill-rule="nonzero" x="643.333" y="52.5" width="5.83333" height="52.5"></rect>
            <rect id="Rectangle" fill="#1F242C" fill-rule="nonzero" x="655" y="52.5" width="5.83333" height="52.5"></rect>
            <rect id="Rectangle" fill="#1F242C" fill-rule="nonzero" x="666.667" y="52.5" width="5.83333" height="52.5"></rect>
            <rect id="Rectangle" fill="#1F242C" fill-rule="nonzero" x="620" y="52.5" width="5.83668" height="52.5"></rect>
            <rect id="Rectangle" fill="#1F242C" fill-rule="nonzero" transform="translate(552.916335, 131.250000) rotate(-180.000000) translate(-552.916335, -131.250000) " x="549.99967" y="105" width="5.83333" height="52.5"></rect>
            <rect id="Rectangle" fill="#1F242C" fill-rule="nonzero" transform="translate(541.250335, 131.250000) rotate(-180.000000) translate(-541.250335, -131.250000) " x="538.33367" y="105" width="5.83333" height="52.5"></rect>
            <rect id="Rectangle" fill="#1F242C" fill-rule="nonzero" transform="translate(529.583335, 131.250000) rotate(-180.000000) translate(-529.583335, -131.250000) " x="526.66667" y="105" width="5.83333" height="52.5"></rect>
            <rect id="Rectangle" fill="#1F242C" fill-rule="nonzero" transform="translate(517.916335, 131.250000) rotate(-180.000000) translate(-517.916335, -131.250000) " x="514.99967" y="105" width="5.83333" height="52.5"></rect>
            <rect id="Rectangle" fill="#1F242C" fill-rule="nonzero" transform="translate(564.581660, 131.250000) rotate(-180.000000) translate(-564.581660, -131.250000) " x="561.66332" y="105" width="5.83668" height="52.5"></rect>
            <rect id="Rectangle" fill="#1F242C" fill-rule="nonzero" transform="translate(867.588335, 27.234400) rotate(-180.000000) translate(-867.588335, -27.234400) " x="864.67167" y="0.9844" width="5.83333" height="52.5"></rect>
            <rect id="Rectangle" fill="#1F242C" fill-rule="nonzero" transform="translate(855.921335, 27.234400) rotate(-180.000000) translate(-855.921335, -27.234400) " x="853.00467" y="0.9844" width="5.83333" height="52.5"></rect>
            <rect id="Rectangle" fill="#1F242C" fill-rule="nonzero" transform="translate(844.255335, 27.234400) rotate(-180.000000) translate(-844.255335, -27.234400) " x="841.33867" y="0.9844" width="5.83333" height="52.5"></rect>
            <rect id="Rectangle" fill="#1F242C" fill-rule="nonzero" transform="translate(832.588335, 27.234400) rotate(-180.000000) translate(-832.588335, -27.234400) " x="829.67167" y="0.9844" width="5.83333" height="52.5"></rect>
            <rect id="Rectangle" fill="#1F242C" fill-rule="nonzero" transform="translate(879.253660, 27.234400) rotate(-180.000000) translate(-879.253660, -27.234400) " x="876.33532" y="0.9844" width="5.83668" height="52.5"></rect>
            <path d="M567.5,163.333 L567.5,157.5 C596.495,157.5 620,181.005 620,210 L614.167,210 C614.167,184.227 593.273,163.333 567.5,163.333 Z M567.5,175 L567.5,169.166 C590.052,169.166 608.333,187.448 608.333,210 L602.5,210 C602.5,190.67 586.83,175 567.5,175 Z M567.5,180.834 L567.5,186.667 C580.387,186.667 590.833,197.114 590.833,210 L596.667,210 C596.667,193.892 583.608,180.834 567.5,180.834 Z M567.5,198.333 L567.5,192.5 C577.165,192.5 585,200.335 585,210 L579.167,210 C579.167,203.557 573.943,198.333 567.5,198.333 Z M567.5,210 L567.5,204.166 C570.722,204.166 573.333,206.778 573.333,210 L567.5,210 Z" id="Shape" fill="#1F242C"></path>
            <path d="M777,110.833 L777,105 C805.995,105 829.5,128.505 829.5,157.5 L823.667,157.5 C823.667,131.727 802.773,110.833 777,110.833 Z M777,122.5 L777,116.667 C799.552,116.667 817.833,134.949 817.833,157.5 L812,157.5 C812,138.17 796.33,122.5 777,122.5 Z M777,128.333 L777,134.167 C789.887,134.167 800.333,144.613 800.333,157.5 L806.167,157.5 C806.167,141.392 793.108,128.333 777,128.333 Z M777,145.833 L777,140 C786.665,140 794.5,147.835 794.5,157.5 L788.667,157.5 C788.667,151.056 783.443,145.833 777,145.833 Z M777,157.5 L777,151.667 C780.222,151.667 782.833,154.279 782.833,157.5 L777,157.5 Z" id="Shape" fill="#1F242C"></path>
            <path d="M729.112,52.5 L725,52.5 L725,48.3875 L773.387,0 L777.5,0 L777.5,4.1125 L729.112,52.5 Z M765.133,0 L756.879,0 L725,31.8791 L725,40.1333 L765.133,0 Z M748.625,0 L740.371,0 L725,15.3708 L725,23.625 L748.625,0 Z M725,0 L725,7.11666 L732.117,0 L725,0 Z M777.5,20.6208 L777.5,12.3667 L737.367,52.5 L745.621,52.5 L777.5,20.6208 Z M777.5,37.1291 L777.5,28.875 L753.875,52.5 L762.129,52.5 L777.5,37.1291 Z M777.5,45.3833 L770.383,52.5 L777.5,52.5 L777.5,45.3833 Z" id="Shape" fill="#1F242C" fill-rule="nonzero"></path>
            <path d="M672.5,105 L725,105 L725,52.5 C696.005,52.5 672.5,76.0051 672.5,105 Z" id="Path" fill="#1F242C" fill-rule="nonzero"></path>
            <path d="M777.5,157.5 L777.5,105 L725,105 C725,133.995 748.505,157.5 777.5,157.5 Z" id="Path" fill="#1F242C" fill-rule="nonzero"></path>
            <path d="M61.6875,68.3516 L66.5859,68.3516 L74.6953,95.6328 L74.8828,95.6328 L82.9922,68.3516 L87.8906,68.3516 L77.3203,101 L72.2344,101 L61.6875,68.3516 Z M92.0156,94.2734 C92.0156,92.3516 92.625,90.7031 93.8438,89.3281 C95.0625,87.9531 96.8906,87.1562 99.3281,86.9375 L107.297,86.2109 L107.297,84.2422 C107.297,83.2891 107.172,82.5 106.922,81.875 C106.688,81.25 106.344,80.7578 105.891,80.3984 C105.453,80.0234 104.922,79.7656 104.297,79.625 C103.672,79.4688 102.977,79.3906 102.211,79.3906 C100.68,79.3906 99.4531,79.7344 98.5312,80.4219 C97.625,81.1094 97.1719,82.2422 97.1719,83.8203 L92.8359,83.8203 C92.8359,82.6641 93.0859,81.6094 93.5859,80.6562 C94.0859,79.6875 94.7578,78.8516 95.6016,78.1484 C96.4453,77.4453 97.4375,76.9062 98.5781,76.5312 C99.7188,76.1406 100.945,75.9453 102.258,75.9453 C103.57,75.9453 104.789,76.1172 105.914,76.4609 C107.055,76.7891 108.039,77.2891 108.867,77.9609 C109.711,78.6328 110.359,79.5 110.812,80.5625 C111.281,81.6094 111.516,82.8516 111.516,84.2891 L111.516,97.2969 L115.172,97.2969 L115.172,101 L107.859,101 L107.766,96.4766 L107.578,96.4766 C106.906,98.2109 105.914,99.5 104.602,100.344 C103.289,101.172 101.719,101.586 99.8906,101.586 C98.6719,101.586 97.5703,101.398 96.5859,101.023 C95.6016,100.648 94.75,100.094 94.0312,99.3594 C93.3906,98.7188 92.8906,97.9531 92.5312,97.0625 C92.1875,96.1719 92.0156,95.2422 92.0156,94.2734 Z M96.5859,94.8594 C96.5859,95.9844 96.9766,96.8125 97.7578,97.3438 C98.5391,97.8594 99.6172,98.1172 100.992,98.1172 C102.945,98.1172 104.484,97.4219 105.609,96.0312 C106.734,94.6406 107.297,92.8438 107.297,90.6406 L107.297,89.5391 L98.6016,90.3359 C97.7109,90.3984 97.1484,90.6328 96.9141,91.0391 C96.6953,91.4453 96.5859,92 96.5859,92.7031 L96.5859,94.8594 Z M120.094,101 L120.094,68.3516 L124.406,68.3516 L124.406,101 L120.094,101 Z M132.375,72.875 L132.375,68.3516 L136.875,68.3516 L136.875,72.875 L132.375,72.875 Z M132.469,101 L132.469,76.5312 L136.781,76.5312 L136.781,101 L132.469,101 Z M143.508,88.7656 C143.508,87 143.703,85.3359 144.094,83.7734 C144.5,82.1953 145.102,80.8359 145.898,79.6953 C146.695,78.5391 147.703,77.625 148.922,76.9531 C150.141,76.2812 151.562,75.9453 153.188,75.9453 C155.016,75.9453 156.586,76.3359 157.898,77.1172 C159.211,77.8984 160.25,79.0312 161.016,80.5156 L161.016,68.3516 L165.352,68.3516 L165.352,101 L161.016,101 L161.016,97.0156 C160.25,98.4844 159.227,99.6172 157.945,100.414 C156.664,101.195 155.117,101.586 153.305,101.586 C151.648,101.586 150.203,101.25 148.969,100.578 C147.75,99.9062 146.734,98.9922 145.922,97.8359 C145.109,96.6797 144.5,95.3281 144.094,93.7812 C143.703,92.2188 143.508,90.5469 143.508,88.7656 Z M148.055,92.5625 C148.055,93.3906 148.211,94.1484 148.523,94.8359 C148.852,95.5234 149.297,96.1094 149.859,96.5938 C150.422,97.0625 151.078,97.4375 151.828,97.7188 C152.578,97.9844 153.406,98.1172 154.312,98.1172 C156.484,98.1172 158.141,97.4297 159.281,96.0547 C160.438,94.6797 161.016,92.9375 161.016,90.8281 L161.016,86.7031 C161.016,84.5938 160.438,82.8516 159.281,81.4766 C158.141,80.0859 156.484,79.3906 154.312,79.3906 C153.422,79.3906 152.594,79.5312 151.828,79.8125 C151.078,80.0781 150.422,80.4531 149.859,80.9375 C149.297,81.4219 148.852,82.0078 148.523,82.6953 C148.211,83.3828 148.055,84.1406 148.055,84.9688 L148.055,92.5625 Z M171.75,94.2734 C171.75,92.3516 172.359,90.7031 173.578,89.3281 C174.797,87.9531 176.625,87.1562 179.062,86.9375 L187.031,86.2109 L187.031,84.2422 C187.031,83.2891 186.906,82.5 186.656,81.875 C186.422,81.25 186.078,80.7578 185.625,80.3984 C185.188,80.0234 184.656,79.7656 184.031,79.625 C183.406,79.4688 182.711,79.3906 181.945,79.3906 C180.414,79.3906 179.188,79.7344 178.266,80.4219 C177.359,81.1094 176.906,82.2422 176.906,83.8203 L172.57,83.8203 C172.57,82.6641 172.82,81.6094 173.32,80.6562 C173.82,79.6875 174.492,78.8516 175.336,78.1484 C176.18,77.4453 177.172,76.9062 178.312,76.5312 C179.453,76.1406 180.68,75.9453 181.992,75.9453 C183.305,75.9453 184.523,76.1172 185.648,76.4609 C186.789,76.7891 187.773,77.2891 188.602,77.9609 C189.445,78.6328 190.094,79.5 190.547,80.5625 C191.016,81.6094 191.25,82.8516 191.25,84.2891 L191.25,97.2969 L194.906,97.2969 L194.906,101 L187.594,101 L187.5,96.4766 L187.312,96.4766 C186.641,98.2109 185.648,99.5 184.336,100.344 C183.023,101.172 181.453,101.586 179.625,101.586 C178.406,101.586 177.305,101.398 176.32,101.023 C175.336,100.648 174.484,100.094 173.766,99.3594 C173.125,98.7188 172.625,97.9531 172.266,97.0625 C171.922,96.1719 171.75,95.2422 171.75,94.2734 Z M176.32,94.8594 C176.32,95.9844 176.711,96.8125 177.492,97.3438 C178.273,97.8594 179.352,98.1172 180.727,98.1172 C182.68,98.1172 184.219,97.4219 185.344,96.0312 C186.469,94.6406 187.031,92.8438 187.031,90.6406 L187.031,89.5391 L178.336,90.3359 C177.445,90.3984 176.883,90.6328 176.648,91.0391 C176.43,91.4453 176.32,92 176.32,92.7031 L176.32,94.8594 Z M197.391,80.2109 L197.391,76.5312 L201.516,76.5312 L201.516,68.3516 L205.781,68.3516 L205.781,76.5312 L211.406,76.5312 L211.406,80.2109 L205.781,80.2109 L205.781,97.2969 L211.406,97.2969 L211.406,101 L201.516,101 L201.516,80.2109 L197.391,80.2109 Z M216.117,88.7656 C216.117,86.9062 216.336,85.1875 216.773,83.6094 C217.227,82.0156 217.906,80.6641 218.812,79.5547 C219.734,78.4297 220.883,77.5469 222.258,76.9062 C223.633,76.2656 225.25,75.9453 227.109,75.9453 C228.969,75.9453 230.586,76.2656 231.961,76.9062 C233.336,77.5469 234.477,78.4297 235.383,79.5547 C236.289,80.6641 236.969,82.0156 237.422,83.6094 C237.875,85.1875 238.102,86.9062 238.102,88.7656 C238.102,90.6562 237.875,92.3828 237.422,93.9453 C236.969,95.5078 236.289,96.8516 235.383,97.9766 C234.477,99.1016 233.328,99.9844 231.938,100.625 C230.562,101.266 228.953,101.586 227.109,101.586 C225.25,101.586 223.633,101.266 222.258,100.625 C220.883,99.9844 219.734,99.1016 218.812,97.9766 C217.906,96.8516 217.227,95.5078 216.773,93.9453 C216.336,92.3828 216.117,90.6562 216.117,88.7656 Z M220.664,92.5625 C220.664,93.3906 220.836,94.1484 221.18,94.8359 C221.539,95.5234 222.008,96.1094 222.586,96.5938 C223.164,97.0625 223.844,97.4375 224.625,97.7188 C225.406,97.9844 226.234,98.1172 227.109,98.1172 C227.969,98.1172 228.789,97.9844 229.57,97.7188 C230.352,97.4375 231.031,97.0625 231.609,96.5938 C232.188,96.1094 232.648,95.5234 232.992,94.8359 C233.352,94.1484 233.531,93.3906 233.531,92.5625 L233.531,84.9688 C233.531,84.1406 233.352,83.3828 232.992,82.6953 C232.648,82.0078 232.188,81.4219 231.609,80.9375 C231.031,80.4531 230.352,80.0781 229.57,79.8125 C228.789,79.5312 227.969,79.3906 227.109,79.3906 C226.25,79.3906 225.422,79.5312 224.625,79.8125 C223.844,80.0781 223.164,80.4531 222.586,80.9375 C222.008,81.4219 221.539,82.0078 221.18,82.6953 C220.836,83.3828 220.664,84.1406 220.664,84.9688 L220.664,92.5625 Z M244.781,101 L244.781,76.5312 L256.547,76.5312 L256.547,80.2578 L249.094,80.2578 L249.094,101 L244.781,101 Z M274.547,101 L274.547,68.3516 L280.992,68.3516 L294.469,95.4688 L294.68,95.4688 L294.68,68.3516 L299.086,68.3516 L299.086,101 L292.664,101 L279.164,73.7422 L278.977,73.7422 L278.977,101 L274.547,101 Z M306.211,88.7656 C306.211,86.9062 306.43,85.1875 306.867,83.6094 C307.32,82.0156 308,80.6641 308.906,79.5547 C309.828,78.4297 310.977,77.5469 312.352,76.9062 C313.727,76.2656 315.344,75.9453 317.203,75.9453 C319.062,75.9453 320.68,76.2656 322.055,76.9062 C323.43,77.5469 324.57,78.4297 325.477,79.5547 C326.383,80.6641 327.062,82.0156 327.516,83.6094 C327.969,85.1875 328.195,86.9062 328.195,88.7656 C328.195,90.6562 327.969,92.3828 327.516,93.9453 C327.062,95.5078 326.383,96.8516 325.477,97.9766 C324.57,99.1016 323.422,99.9844 322.031,100.625 C320.656,101.266 319.047,101.586 317.203,101.586 C315.344,101.586 313.727,101.266 312.352,100.625 C310.977,99.9844 309.828,99.1016 308.906,97.9766 C308,96.8516 307.32,95.5078 306.867,93.9453 C306.43,92.3828 306.211,90.6562 306.211,88.7656 Z M310.758,92.5625 C310.758,93.3906 310.93,94.1484 311.273,94.8359 C311.633,95.5234 312.102,96.1094 312.68,96.5938 C313.258,97.0625 313.938,97.4375 314.719,97.7188 C315.5,97.9844 316.328,98.1172 317.203,98.1172 C318.062,98.1172 318.883,97.9844 319.664,97.7188 C320.445,97.4375 321.125,97.0625 321.703,96.5938 C322.281,96.1094 322.742,95.5234 323.086,94.8359 C323.445,94.1484 323.625,93.3906 323.625,92.5625 L323.625,84.9688 C323.625,84.1406 323.445,83.3828 323.086,82.6953 C322.742,82.0078 322.281,81.4219 321.703,80.9375 C321.125,80.4531 320.445,80.0781 319.664,79.8125 C318.883,79.5312 318.062,79.3906 317.203,79.3906 C316.344,79.3906 315.516,79.5312 314.719,79.8125 C313.938,80.0781 313.258,80.4531 312.68,80.9375 C312.102,81.4219 311.633,82.0078 311.273,82.6953 C310.93,83.3828 310.758,84.1406 310.758,84.9688 L310.758,92.5625 Z M333.633,88.7656 C333.633,87 333.828,85.3359 334.219,83.7734 C334.625,82.1953 335.227,80.8359 336.023,79.6953 C336.82,78.5391 337.828,77.625 339.047,76.9531 C340.266,76.2812 341.688,75.9453 343.312,75.9453 C345.141,75.9453 346.711,76.3359 348.023,77.1172 C349.336,77.8984 350.375,79.0312 351.141,80.5156 L351.141,68.3516 L355.477,68.3516 L355.477,101 L351.141,101 L351.141,97.0156 C350.375,98.4844 349.352,99.6172 348.07,100.414 C346.789,101.195 345.242,101.586 343.43,101.586 C341.773,101.586 340.328,101.25 339.094,100.578 C337.875,99.9062 336.859,98.9922 336.047,97.8359 C335.234,96.6797 334.625,95.3281 334.219,93.7812 C333.828,92.2188 333.633,90.5469 333.633,88.7656 Z M338.18,92.5625 C338.18,93.3906 338.336,94.1484 338.648,94.8359 C338.977,95.5234 339.422,96.1094 339.984,96.5938 C340.547,97.0625 341.203,97.4375 341.953,97.7188 C342.703,97.9844 343.531,98.1172 344.438,98.1172 C346.609,98.1172 348.266,97.4297 349.406,96.0547 C350.562,94.6797 351.141,92.9375 351.141,90.8281 L351.141,86.7031 C351.141,84.5938 350.562,82.8516 349.406,81.4766 C348.266,80.0859 346.609,79.3906 344.438,79.3906 C343.547,79.3906 342.719,79.5312 341.953,79.8125 C341.203,80.0781 340.547,80.4531 339.984,80.9375 C339.422,81.4219 338.977,82.0078 338.648,82.6953 C338.336,83.3828 338.18,84.1406 338.18,84.9688 L338.18,92.5625 Z M362.133,88.7656 C362.133,86.9062 362.359,85.1875 362.812,83.6094 C363.281,82.0156 363.969,80.6641 364.875,79.5547 C365.797,78.4297 366.906,77.5469 368.203,76.9062 C369.5,76.2656 370.992,75.9453 372.68,75.9453 C374.445,75.9453 375.984,76.25 377.297,76.8594 C378.609,77.4688 379.695,78.3047 380.555,79.3672 C381.414,80.4141 382.062,81.6484 382.5,83.0703 C382.938,84.4922 383.156,86.0234 383.156,87.6641 L383.156,89.9609 L366.68,89.9609 L366.68,92.5625 C366.68,93.4531 366.844,94.2422 367.172,94.9297 C367.516,95.6172 367.977,96.2031 368.555,96.6875 C369.133,97.1562 369.781,97.5156 370.5,97.7656 C371.219,98 371.961,98.1172 372.727,98.1172 C374.258,98.1172 375.586,97.7266 376.711,96.9453 C377.836,96.1641 378.477,94.9219 378.633,93.2188 L382.969,93.2188 C382.875,94.5312 382.531,95.7031 381.938,96.7344 C381.344,97.75 380.57,98.6172 379.617,99.3359 C378.68,100.055 377.617,100.609 376.43,101 C375.242,101.391 373.992,101.586 372.68,101.586 C370.914,101.586 369.367,101.266 368.039,100.625 C366.727,99.9844 365.625,99.1016 364.734,97.9766 C363.859,96.8516 363.203,95.5078 362.766,93.9453 C362.344,92.3828 362.133,90.6562 362.133,88.7656 Z M366.68,86.5156 L378.68,86.5156 L378.68,85.1562 C378.68,84.2656 378.516,83.4609 378.188,82.7422 C377.875,82.0234 377.438,81.4141 376.875,80.9141 C376.328,80.4141 375.688,80.0391 374.953,79.7891 C374.234,79.5234 373.477,79.3906 372.68,79.3906 C371.883,79.3906 371.125,79.5234 370.406,79.7891 C369.688,80.0391 369.047,80.4141 368.484,80.9141 C367.922,81.4141 367.477,82.0234 367.148,82.7422 C366.836,83.4609 366.68,84.2656 366.68,85.1562 L366.68,86.5156 Z" id="Shape" fill="#FFFFFF" fill-rule="nonzero"></path>
            <path d="M60.7727,134.614 L64.4318,134.614 L64.4318,145 L65.8409,145 L65.8409,134.614 L69.5,134.614 L69.5,133.364 L60.7727,133.364 L60.7727,134.614 Z M72.8338,139.75 C72.8338,138.227 73.8054,137.364 75.1293,137.364 C76.3906,137.364 77.152,138.159 77.152,139.545 L77.152,145 L78.4929,145 L78.4929,139.455 C78.4929,137.21 77.2997,136.159 75.5156,136.159 C74.1406,136.159 73.3565,136.733 72.9474,137.636 L72.8338,137.636 L72.8338,133.364 L71.4929,133.364 L71.4929,145 L72.8338,145 L72.8338,139.75 Z M84.6051,145.182 C86.3778,145.182 87.6733,144.295 88.0824,142.977 L86.7869,142.614 C86.446,143.523 85.6562,143.977 84.6051,143.977 C83.0312,143.977 81.946,142.96 81.8835,141.091 L88.2188,141.091 L88.2188,140.523 C88.2188,137.273 86.2869,136.159 84.4688,136.159 C82.1051,136.159 80.5369,138.023 80.5369,140.705 C80.5369,143.386 82.0824,145.182 84.6051,145.182 Z M81.8835,139.932 C81.9744,138.574 82.9347,137.364 84.4688,137.364 C85.9233,137.364 86.8551,138.455 86.8551,139.932 L81.8835,139.932 Z M101.895,136.273 L100.44,136.273 L98.0312,143.227 L97.9403,143.227 L95.5312,136.273 L94.0767,136.273 L97.304,145 L98.6676,145 L101.895,136.273 Z M105.967,145.205 C107.49,145.205 108.286,144.386 108.558,143.818 L108.626,143.818 L108.626,145 L109.967,145 L109.967,139.25 C109.967,136.477 107.854,136.159 106.74,136.159 C105.422,136.159 103.922,136.614 103.24,138.205 L104.513,138.659 C104.808,138.023 105.507,137.341 106.786,137.341 C108.018,137.341 108.626,137.994 108.626,139.114 L108.626,139.159 C108.626,139.807 107.967,139.75 106.376,139.955 C104.757,140.165 102.99,140.523 102.99,142.523 C102.99,144.227 104.308,145.205 105.967,145.205 Z M106.172,144 C105.104,144 104.331,143.523 104.331,142.591 C104.331,141.568 105.263,141.25 106.308,141.114 C106.876,141.045 108.399,140.886 108.626,140.614 L108.626,141.841 C108.626,142.932 107.763,144 106.172,144 Z M113.756,133.364 L112.415,133.364 L112.415,145 L113.756,145 L113.756,133.364 Z M116.212,145 L117.553,145 L117.553,136.273 L116.212,136.273 L116.212,145 Z M116.893,134.818 C117.416,134.818 117.848,134.409 117.848,133.909 C117.848,133.409 117.416,133 116.893,133 C116.371,133 115.939,133.409 115.939,133.909 C115.939,134.409 116.371,134.818 116.893,134.818 Z M123.304,145.182 C124.986,145.182 125.554,144.136 125.849,143.659 L126.009,143.659 L126.009,145 L127.304,145 L127.304,133.364 L125.963,133.364 L125.963,137.659 L125.849,137.659 C125.554,137.205 125.031,136.159 123.327,136.159 C121.122,136.159 119.599,137.909 119.599,140.659 C119.599,143.432 121.122,145.182 123.304,145.182 Z M123.486,143.977 C121.804,143.977 120.94,142.5 120.94,140.636 C120.94,138.795 121.781,137.364 123.486,137.364 C125.122,137.364 125.986,138.682 125.986,140.636 C125.986,142.614 125.099,143.977 123.486,143.977 Z M132.514,145.205 C134.037,145.205 134.832,144.386 135.105,143.818 L135.173,143.818 L135.173,145 L136.514,145 L136.514,139.25 C136.514,136.477 134.401,136.159 133.287,136.159 C131.969,136.159 130.469,136.614 129.787,138.205 L131.06,138.659 C131.355,138.023 132.054,137.341 133.332,137.341 C134.565,137.341 135.173,137.994 135.173,139.114 L135.173,139.159 C135.173,139.807 134.514,139.75 132.923,139.955 C131.304,140.165 129.537,140.523 129.537,142.523 C129.537,144.227 130.855,145.205 132.514,145.205 Z M132.719,144 C131.651,144 130.878,143.523 130.878,142.591 C130.878,141.568 131.81,141.25 132.855,141.114 C133.423,141.045 134.946,140.886 135.173,140.614 L135.173,141.841 C135.173,142.932 134.31,144 132.719,144 Z M142.757,136.273 L140.893,136.273 L140.893,134.182 L139.553,134.182 L139.553,136.273 L138.234,136.273 L138.234,137.409 L139.553,137.409 L139.553,142.864 C139.553,144.386 140.78,145.114 141.916,145.114 C142.416,145.114 142.734,145.023 142.916,144.955 L142.643,143.75 C142.53,143.773 142.348,143.818 142.053,143.818 C141.462,143.818 140.893,143.636 140.893,142.5 L140.893,137.409 L142.757,137.409 L142.757,136.273 Z M148.226,145.182 C150.589,145.182 152.18,143.386 152.18,140.682 C152.18,137.955 150.589,136.159 148.226,136.159 C145.862,136.159 144.271,137.955 144.271,140.682 C144.271,143.386 145.862,145.182 148.226,145.182 Z M148.226,143.977 C146.43,143.977 145.612,142.432 145.612,140.682 C145.612,138.932 146.43,137.364 148.226,137.364 C150.021,137.364 150.839,138.932 150.839,140.682 C150.839,142.432 150.021,143.977 148.226,143.977 Z M154.227,145 L155.568,145 L155.568,139.477 C155.568,138.295 156.5,137.432 157.773,137.432 C158.131,137.432 158.5,137.5 158.591,137.523 L158.591,136.159 C158.438,136.148 158.085,136.136 157.886,136.136 C156.841,136.136 155.932,136.727 155.614,137.591 L155.523,137.591 L155.523,136.273 L154.227,136.273 L154.227,145 Z M166.021,139.75 C166.021,138.227 166.964,137.364 168.249,137.364 C169.493,137.364 170.249,138.176 170.249,139.545 L170.249,145 L171.589,145 L171.589,139.455 C171.589,137.227 170.402,136.159 168.635,136.159 C167.317,136.159 166.499,136.75 166.089,137.636 L165.976,137.636 L165.976,136.273 L164.68,136.273 L164.68,145 L166.021,145 L166.021,139.75 Z M177.585,145.182 C179.949,145.182 181.54,143.386 181.54,140.682 C181.54,137.955 179.949,136.159 177.585,136.159 C175.222,136.159 173.631,137.955 173.631,140.682 C173.631,143.386 175.222,145.182 177.585,145.182 Z M177.585,143.977 C175.79,143.977 174.972,142.432 174.972,140.682 C174.972,138.932 175.79,137.364 177.585,137.364 C179.381,137.364 180.199,138.932 180.199,140.682 C180.199,142.432 179.381,143.977 177.585,143.977 Z M186.882,145.182 C188.564,145.182 189.132,144.136 189.428,143.659 L189.587,143.659 L189.587,145 L190.882,145 L190.882,133.364 L189.541,133.364 L189.541,137.659 L189.428,137.659 C189.132,137.205 188.609,136.159 186.905,136.159 C184.7,136.159 183.178,137.909 183.178,140.659 C183.178,143.432 184.7,145.182 186.882,145.182 Z M187.064,143.977 C185.382,143.977 184.518,142.5 184.518,140.636 C184.518,138.795 185.359,137.364 187.064,137.364 C188.7,137.364 189.564,138.682 189.564,140.636 C189.564,142.614 188.678,143.977 187.064,143.977 Z M197.183,145.182 C198.956,145.182 200.251,144.295 200.661,142.977 L199.365,142.614 C199.024,143.523 198.234,143.977 197.183,143.977 C195.609,143.977 194.524,142.96 194.462,141.091 L200.797,141.091 L200.797,140.523 C200.797,137.273 198.865,136.159 197.047,136.159 C194.683,136.159 193.115,138.023 193.115,140.705 C193.115,143.386 194.661,145.182 197.183,145.182 Z M194.462,139.932 C194.553,138.574 195.513,137.364 197.047,137.364 C198.501,137.364 199.433,138.455 199.433,139.932 L194.462,139.932 Z M211.223,136.273 L209.268,136.273 L209.268,135.386 C209.268,134.523 209.632,134.068 210.518,134.068 C210.905,134.068 211.132,134.159 211.268,134.205 L211.655,133.045 C211.45,132.955 211.041,132.818 210.382,132.818 C209.132,132.818 207.928,133.568 207.928,135.068 L207.928,136.273 L206.518,136.273 L206.518,137.409 L207.928,137.409 L207.928,145 L209.268,145 L209.268,137.409 L211.223,137.409 L211.223,136.273 Z M216.288,145.182 C218.652,145.182 220.243,143.386 220.243,140.682 C220.243,137.955 218.652,136.159 216.288,136.159 C213.925,136.159 212.334,137.955 212.334,140.682 C212.334,143.386 213.925,145.182 216.288,145.182 Z M216.288,143.977 C214.493,143.977 213.675,142.432 213.675,140.682 C213.675,138.932 214.493,137.364 216.288,137.364 C218.084,137.364 218.902,138.932 218.902,140.682 C218.902,142.432 218.084,143.977 216.288,143.977 Z M222.29,145 L223.631,145 L223.631,139.477 C223.631,138.295 224.562,137.432 225.835,137.432 C226.193,137.432 226.562,137.5 226.653,137.523 L226.653,136.159 C226.5,136.148 226.148,136.136 225.949,136.136 C224.903,136.136 223.994,136.727 223.676,137.591 L223.585,137.591 L223.585,136.273 L222.29,136.273 L222.29,145 Z M236.538,136.273 L234.675,136.273 L234.675,134.182 L233.334,134.182 L233.334,136.273 L232.016,136.273 L232.016,137.409 L233.334,137.409 L233.334,142.864 C233.334,144.386 234.561,145.114 235.697,145.114 C236.197,145.114 236.516,145.023 236.697,144.955 L236.425,143.75 C236.311,143.773 236.129,143.818 235.834,143.818 C235.243,143.818 234.675,143.636 234.675,142.5 L234.675,137.409 L236.538,137.409 L236.538,136.273 Z M240.084,139.75 C240.084,138.227 241.055,137.364 242.379,137.364 C243.641,137.364 244.402,138.159 244.402,139.545 L244.402,145 L245.743,145 L245.743,139.455 C245.743,137.21 244.55,136.159 242.766,136.159 C241.391,136.159 240.607,136.733 240.197,137.636 L240.084,137.636 L240.084,133.364 L238.743,133.364 L238.743,145 L240.084,145 L240.084,139.75 Z M251.855,145.182 C253.628,145.182 254.923,144.295 255.332,142.977 L254.037,142.614 C253.696,143.523 252.906,143.977 251.855,143.977 C250.281,143.977 249.196,142.96 249.134,141.091 L255.469,141.091 L255.469,140.523 C255.469,137.273 253.537,136.159 251.719,136.159 C249.355,136.159 247.787,138.023 247.787,140.705 C247.787,143.386 249.332,145.182 251.855,145.182 Z M249.134,139.932 C249.224,138.574 250.185,137.364 251.719,137.364 C253.173,137.364 254.105,138.455 254.105,139.932 L249.134,139.932 Z M266.645,133.364 L266.645,141.682 C266.645,143.131 265.952,143.909 264.736,143.909 C263.628,143.909 262.827,143.261 262.827,142.273 L261.44,142.273 C261.44,144.062 262.827,145.159 264.736,145.159 C266.759,145.159 268.054,143.915 268.054,141.682 L268.054,133.364 L266.645,133.364 Z M274.241,145.182 C276.605,145.182 278.196,143.386 278.196,140.682 C278.196,137.955 276.605,136.159 274.241,136.159 C271.878,136.159 270.287,137.955 270.287,140.682 C270.287,143.386 271.878,145.182 274.241,145.182 Z M274.241,143.977 C272.446,143.977 271.628,142.432 271.628,140.682 C271.628,138.932 272.446,137.364 274.241,137.364 C276.037,137.364 276.855,138.932 276.855,140.682 C276.855,142.432 276.037,143.977 274.241,143.977 Z M280.794,148.25 C282.004,148.25 282.862,147.608 283.362,146.273 L287.078,136.295 L285.612,136.273 L283.203,143.227 L283.112,143.227 L280.703,136.273 L279.249,136.273 L282.476,145.045 L282.226,145.727 C281.749,147.034 281.135,147.159 280.158,146.909 L279.817,148.091 C279.953,148.159 280.339,148.25 280.794,148.25 Z M295.034,138.227 C294.614,136.989 293.67,136.159 291.943,136.159 C290.102,136.159 288.739,137.205 288.739,138.682 C288.739,139.886 289.455,140.693 291.057,141.068 L292.511,141.409 C293.392,141.614 293.807,142.034 293.807,142.636 C293.807,143.386 293.011,144 291.761,144 C290.665,144 289.977,143.528 289.739,142.591 L288.466,142.909 C288.778,144.392 290,145.182 291.784,145.182 C293.812,145.182 295.193,144.074 295.193,142.568 C295.193,141.352 294.432,140.585 292.875,140.205 L291.58,139.886 C290.545,139.631 290.08,139.284 290.08,138.614 C290.08,137.864 290.875,137.318 291.943,137.318 C293.114,137.318 293.597,137.966 293.83,138.568 L295.034,138.227 Z M301.007,136.273 L299.143,136.273 L299.143,134.182 L297.803,134.182 L297.803,136.273 L296.484,136.273 L296.484,137.409 L297.803,137.409 L297.803,142.864 C297.803,144.386 299.03,145.114 300.166,145.114 C300.666,145.114 300.984,145.023 301.166,144.955 L300.893,143.75 C300.78,143.773 300.598,143.818 300.303,143.818 C299.712,143.818 299.143,143.636 299.143,142.5 L299.143,137.409 L301.007,137.409 L301.007,136.273 Z M303.024,145 L304.365,145 L304.365,139.477 C304.365,138.295 305.297,137.432 306.57,137.432 C306.928,137.432 307.297,137.5 307.388,137.523 L307.388,136.159 C307.234,136.148 306.882,136.136 306.683,136.136 C305.638,136.136 304.729,136.727 304.411,137.591 L304.32,137.591 L304.32,136.273 L303.024,136.273 L303.024,145 Z M312.371,145.182 C314.143,145.182 315.439,144.295 315.848,142.977 L314.553,142.614 C314.212,143.523 313.422,143.977 312.371,143.977 C310.797,143.977 309.712,142.96 309.649,141.091 L315.984,141.091 L315.984,140.523 C315.984,137.273 314.053,136.159 312.234,136.159 C309.871,136.159 308.303,138.023 308.303,140.705 C308.303,143.386 309.848,145.182 312.371,145.182 Z M309.649,139.932 C309.74,138.574 310.7,137.364 312.234,137.364 C313.689,137.364 314.621,138.455 314.621,139.932 L309.649,139.932 Z M320.592,145.205 C322.115,145.205 322.911,144.386 323.183,143.818 L323.251,143.818 L323.251,145 L324.592,145 L324.592,139.25 C324.592,136.477 322.479,136.159 321.365,136.159 C320.047,136.159 318.547,136.614 317.865,138.205 L319.138,138.659 C319.433,138.023 320.132,137.341 321.411,137.341 C322.643,137.341 323.251,137.994 323.251,139.114 L323.251,139.159 C323.251,139.807 322.592,139.75 321.001,139.955 C319.382,140.165 317.615,140.523 317.615,142.523 C317.615,144.227 318.933,145.205 320.592,145.205 Z M320.797,144 C319.729,144 318.956,143.523 318.956,142.591 C318.956,141.568 319.888,141.25 320.933,141.114 C321.501,141.045 323.024,140.886 323.251,140.614 L323.251,141.841 C323.251,142.932 322.388,144 320.797,144 Z M327.04,145 L328.381,145 L328.381,139.545 C328.381,138.267 329.312,137.364 330.358,137.364 C331.375,137.364 332.085,138.028 332.085,139.023 L332.085,145 L333.449,145 L333.449,139.318 C333.449,138.193 334.153,137.364 335.381,137.364 C336.335,137.364 337.153,137.869 337.153,139.159 L337.153,145 L338.494,145 L338.494,139.159 C338.494,137.108 337.392,136.159 335.835,136.159 C334.585,136.159 333.67,136.733 333.222,137.636 L333.131,137.636 C332.699,136.705 331.938,136.159 330.79,136.159 C329.653,136.159 328.812,136.705 328.449,137.636 L328.335,137.636 L328.335,136.273 L327.04,136.273 L327.04,145 Z M345.446,148.273 L346.787,148.273 L346.787,143.659 L346.901,143.659 C347.196,144.136 347.764,145.182 349.446,145.182 C351.628,145.182 353.151,143.432 353.151,140.659 C353.151,137.909 351.628,136.159 349.423,136.159 C347.719,136.159 347.196,137.205 346.901,137.659 L346.741,137.659 L346.741,136.273 L345.446,136.273 L345.446,148.273 Z M346.764,140.636 C346.764,138.682 347.628,137.364 349.264,137.364 C350.969,137.364 351.81,138.795 351.81,140.636 C351.81,142.5 350.946,143.977 349.264,143.977 C347.651,143.977 346.764,142.614 346.764,140.636 Z M355.196,145 L356.537,145 L356.537,139.477 C356.537,138.295 357.469,137.432 358.741,137.432 C359.099,137.432 359.469,137.5 359.56,137.523 L359.56,136.159 C359.406,136.148 359.054,136.136 358.855,136.136 C357.81,136.136 356.901,136.727 356.582,137.591 L356.491,137.591 L356.491,136.273 L355.196,136.273 L355.196,145 Z M364.429,145.182 C366.793,145.182 368.384,143.386 368.384,140.682 C368.384,137.955 366.793,136.159 364.429,136.159 C362.065,136.159 360.474,137.955 360.474,140.682 C360.474,143.386 362.065,145.182 364.429,145.182 Z M364.429,143.977 C362.634,143.977 361.815,142.432 361.815,140.682 C361.815,138.932 362.634,137.364 364.429,137.364 C366.224,137.364 367.043,138.932 367.043,140.682 C367.043,142.432 366.224,143.977 364.429,143.977 Z M374.226,136.273 L372.362,136.273 L372.362,134.182 L371.021,134.182 L371.021,136.273 L369.703,136.273 L369.703,137.409 L371.021,137.409 L371.021,142.864 C371.021,144.386 372.249,145.114 373.385,145.114 C373.885,145.114 374.203,145.023 374.385,144.955 L374.112,143.75 C373.999,143.773 373.817,143.818 373.521,143.818 C372.93,143.818 372.362,143.636 372.362,142.5 L372.362,137.409 L374.226,137.409 L374.226,136.273 Z M379.695,145.182 C382.058,145.182 383.649,143.386 383.649,140.682 C383.649,137.955 382.058,136.159 379.695,136.159 C377.331,136.159 375.74,137.955 375.74,140.682 C375.74,143.386 377.331,145.182 379.695,145.182 Z M379.695,143.977 C377.899,143.977 377.081,142.432 377.081,140.682 C377.081,138.932 377.899,137.364 379.695,137.364 C381.49,137.364 382.308,138.932 382.308,140.682 C382.308,142.432 381.49,143.977 379.695,143.977 Z M389.241,145.182 C391.173,145.182 392.446,144 392.673,142.455 L391.332,142.455 C391.082,143.409 390.287,143.977 389.241,143.977 C387.651,143.977 386.628,142.659 386.628,140.636 C386.628,138.659 387.673,137.364 389.241,137.364 C390.423,137.364 391.128,138.091 391.332,138.886 L392.673,138.886 C392.446,137.25 391.06,136.159 389.219,136.159 C386.855,136.159 385.287,138.023 385.287,140.682 C385.287,143.295 386.787,145.182 389.241,145.182 Z M398.179,145.182 C400.543,145.182 402.134,143.386 402.134,140.682 C402.134,137.955 400.543,136.159 398.179,136.159 C395.815,136.159 394.224,137.955 394.224,140.682 C394.224,143.386 395.815,145.182 398.179,145.182 Z M398.179,143.977 C396.384,143.977 395.565,142.432 395.565,140.682 C395.565,138.932 396.384,137.364 398.179,137.364 C399.974,137.364 400.793,138.932 400.793,140.682 C400.793,142.432 399.974,143.977 398.179,143.977 Z M405.521,133.364 L404.18,133.364 L404.18,145 L405.521,145 L405.521,133.364 Z" id="Shape" fill="#C4C3C6" fill-rule="nonzero"></path>
            <path d="M636.873,237.6 C632.073,234.9 623.073,229.7 623.073,224.2 L629.473,168.3 C629.473,162.8 632.473,157.6 637.373,154.9 L686.273,126.7 C691.073,123.9 697.073,123.9 701.873,126.6 L750.473,154.3 C755.273,157 758.273,162.2 758.173,167.7 L757.873,223.6 C757.873,229.1 754.873,234.3 749.973,237 L701.073,265.2 C696.273,268 690.273,268 685.473,265.3 L636.873,237.6 Z" id="Path" fill="#000000"></path>
            <path d="M674.273,219.8 C673.073,218.5 671.573,218.8 669.873,219.5 C668.373,218.6 666.973,217.6 666.673,215.1 C666.673,214.7 664.273,214.4 663.973,214.3 C661.573,213.2 662.973,210.5 660.073,210.4 C658.273,210.3 658.273,211.3 657.273,210 C657.073,209.8 656.673,209.3 655.873,208.4 L655.073,201.9 L647.873,194.5 C642.273,192.7 639.273,191.8 639.073,191.8 C639.473,192.1 641.673,193.9 645.673,197 L652.473,203.6 C653.473,207.4 654.273,209.6 654.773,210.4 C653.573,209.2 645.473,204.3 643.973,203.6 C642.373,202.9 639.473,202.6 637.873,202 C638.873,203.2 647.173,210.1 648.573,210.5 C650.173,211 652.373,209.9 653.273,211.6 C653.673,212.4 653.673,214 654.673,213.2 C655.173,212.8 656.073,214.3 656.373,214.4 C658.073,214.6 657.873,216.1 659.273,216.9 C662.073,218.5 661.973,219.7 662.473,223.5 C662.573,224.6 664.973,224.6 665.173,225.7 C665.173,225.9 665.373,226 665.573,226 C668.273,226.1 671.873,232.8 673.273,235.2 C673.173,233.3 671.973,227.3 670.973,226.6 C669.573,225.7 668.273,225.5 667.173,224 C666.873,223.6 664.973,222.4 665.173,221.8 C665.673,220.1 665.273,220.2 665.173,218.6 C666.073,218.8 666.573,219.5 667.173,220 C667.873,220.5 668.673,220.6 669.673,220 C671.273,219.7 672.673,219.6 674.273,219.8 Z M658.873,179.1 C659.073,179.2 659.373,179.4 659.573,179.5 C659.673,179.5 659.773,179.4 659.873,179.4 C659.973,179.5 660.173,179.5 660.273,179.6 C660.173,179.8 660.073,180 660.273,180.1 C660.373,180.2 660.573,180 660.673,179.8 C660.773,179.9 660.973,179.9 661.073,180 C660.973,180.3 661.073,180.3 661.273,180.1 C661.573,180.3 661.873,180.4 662.173,180.6 C662.373,181.1 662.573,181.7 663.373,181 C664.073,181.1 664.473,181.7 665.173,181.7 C665.073,182.6 665.273,182.8 666.073,182.2 C666.373,182.4 666.773,182.6 667.073,182.7 C667.073,182.9 667.273,183 667.473,182.7 C667.573,182.6 667.573,182.4 667.673,182.3 C668.073,182.5 668.573,182.7 668.773,183.1 C666.373,186.2 663.873,189.3 661.573,192.5 C658.673,196.7 657.073,202.8 656.673,207.3 C656.673,207.7 656.673,208.1 656.673,208.4 C656.673,209.2 656.673,209.9 657.673,208.9 C657.873,208.7 658.173,208.5 658.273,208.6 C659.273,209.2 660.273,208 661.273,207.1 C662.873,205.7 664.473,205.2 666.073,204.8 C667.973,204.3 669.873,203.6 671.673,203.5 C673.473,203.4 675.273,200.6 676.973,199 C678.273,197.7 676.573,196.4 677.973,195.3 C678.073,195.2 678.273,195.2 678.373,195.1 L678.273,195 C678.573,195.2 678.773,195.5 679.173,195.6 C682.473,196.8 685.673,198 688.573,199.9 C691.473,201.8 691.173,206.1 691.173,210.7 C689.573,209.3 688.273,208.1 686.873,207 C686.873,207.6 687.073,207.9 687.373,208.2 C688.673,209.8 689.773,211.8 691.373,213.1 L691.473,213.7 C691.073,214.3 691.073,214.6 691.473,214.7 C691.473,218.8 692.373,223 690.973,227.1 C690.673,228.1 690.073,228.2 689.773,227.7 C689.273,227.2 689.073,226.4 688.873,225.5 C688.873,225.1 688.773,224.7 688.473,224.7 C686.873,224.8 684.073,223.1 684.173,221.6 C684.173,220.5 684.373,219.2 683.373,218.9 C683.073,220.4 682.873,221.8 682.573,223.4 C681.473,222.6 680.873,221.2 679.473,221 C679.873,223 683.673,224.5 685.373,224.7 C687.273,225 688.173,226.2 688.173,228.7 C688.173,229.7 688.573,230.2 689.373,230.3 C690.173,230.4 690.473,231.3 690.373,232.3 C690.173,236.4 690.773,248.6 689.773,252.9 C689.573,253.6 689.373,253.9 688.773,254.1 C686.173,255.1 683.673,255.7 681.273,255.3 C678.973,254.9 675.673,245.9 673.573,245 C671.773,244.2 669.973,243.6 668.373,242.4 C668.073,241.8 667.773,241.1 666.773,241.9 C666.273,242.3 666.173,241.9 665.873,241.7 C666.373,240.4 665.973,240.4 665.173,240.9 C665.073,240.8 664.873,240.8 664.773,240.7 C664.373,239.6 662.473,239.2 661.573,240.1 C661.373,240.2 661.173,240.3 661.073,240.1 C661.073,239.9 661.073,239.9 660.873,240.1 L660.773,240.1 L660.773,240 C660.573,240.1 660.473,239.8 660.173,240 C656.273,240 655.873,237 652.073,236.5 C646.473,235.8 641.473,234 637.473,230.2 C637.273,230 636.873,230 637.073,229.4 C637.573,228.1 637.173,227.3 636.973,226.4 C636.573,224.3 635.873,222.5 635.873,220.2 C635.773,218.2 635.773,216.2 637.173,213.9 C637.373,213.9 637.373,213.8 637.273,213.6 C637.373,213.4 637.473,213.2 637.573,213 C638.073,212.7 638.273,212.4 637.973,212 C637.973,211.9 638.073,211.8 638.073,211.7 L638.073,211.3 C638.673,208.7 635.273,209.1 635.073,206.8 C634.673,202.5 632.873,199.1 633.073,194.3 C633.173,191.5 632.773,188.8 633.873,185.8 C635.673,180.7 634.173,178.5 634.973,173.5 C634.973,173.2 634.873,172.7 635.173,172.6 C635.573,172.5 635.973,172 636.373,172.5 C637.273,173.8 638.873,174 640.273,174.5 C643.373,175.5 648.973,174.4 651.973,175.6 C652.073,176.1 652.173,176.5 652.773,175.8 C652.873,175.9 653.073,175.9 653.173,176 C653.073,176.4 653.273,176.4 653.473,176.2 C654.173,176.2 654.473,176.7 654.973,177 L655.273,176.9 C655.973,177.3 656.773,177.7 657.473,178.1 C657.873,178.8 658.173,179.4 658.873,179.1 Z" id="Shape" fill="#D3D8E0"></path>
            <path d="M646.773,166.4 C643.373,164.5 643.073,161.6 645.973,159.9 L688.873,135.1 C691.773,133.4 696.973,133.6 700.273,135.4 L742.273,159 C745.673,160.9 745.973,163.8 743.073,165.5 L700.173,190.3 C697.273,192 692.073,191.8 688.773,190 L646.773,166.4 Z" id="Path" fill="#FFFFFF"></path>
            <path d="M695.773,250.9 L696.273,202.8 C696.273,198.9 698.673,194.4 701.673,192.8 L744.473,168.1 C747.373,166.4 749.773,168.2 749.673,172 L749.173,220.1 C749.173,224 746.773,228.5 743.773,230.1 L700.973,254.8 C698.073,256.5 695.773,254.8 695.773,250.9 Z" id="Path" fill="#D3D8E0"></path>
            <path d="M595.509,160.158 C594.82,154.827 594.789,139.674 595.492,136.845 C596.254,134.207 599.612,131.507 600.547,130.803 C603.713,128.162 607.716,126.206 611.065,123.823 C613.995,121.777 617.138,120.084 620.785,119.701 C620.504,120.832 625.028,123.318 626.423,124.46 C628.875,126.325 630.018,128.694 629.211,131.869 C628.929,133.001 628.744,134.103 628.653,135.176 C628.622,136.441 628.622,136.441 630.064,135.686 C631.268,136.887 632.567,138.058 633.675,139.288 C636.228,142.167 678.015,172.474 678.613,175.115 C679.161,177.248 677.828,182.465 679.494,184.152 C680.448,185.22 679.827,191.056 679.339,192.879 C679.302,193.099 679.514,193.453 679.764,193.585 C681.005,194.565 680.173,194.924 679.342,195.283 C678.988,195.496 678.51,195.642 678.128,195.759 C673.243,197.566 666.017,200.611 661.265,198.405 C657.606,196.7 654.118,194.525 650.497,192.599 C643.129,188.682 632.587,180.193 625.743,175.593 C622.042,173.065 618.445,170.191 614.383,168.191 C613.163,167.623 612.326,166.938 611.688,165.878 C611.263,165.171 610.647,164.523 610.317,163.788 C609.988,163.052 609.547,162.977 608.84,163.403 C607.427,164.253 605.918,165.132 604.38,165.916 C603.225,166.583 601.929,167.816 600.855,167.726 C599.562,167.599 598.94,165.907 597.986,164.839 C597.59,164.228 595.706,161.144 595.509,160.158 Z" id="Path" fill="#000000"></path>
            <path d="M598.784,158.216 C598.736,152.584 599.07,146.836 599.462,141.278 C599.666,138.183 601.273,135.914 603.754,134.11 C606.779,132.035 609.929,130.026 613.109,128.113 C614.713,127.204 616.172,125.817 618.113,125.328 C618.069,129.629 618.179,134.092 617.061,138.303 C615.84,142.859 613.986,147.399 610.613,150.731 C607.269,154.158 603.008,156.297 598.784,158.216 Z" id="Path" fill="#FFFFFF"></path>
            <path d="M621.166,124.708 C622.59,125.946 623.735,126.955 624.88,127.964 C625.284,128.259 625.592,128.583 625.481,129.245 C624.236,134.749 624.027,140.564 622.216,145.928 C621.225,148.845 621.321,148.816 618.67,147.326 C617.421,146.662 617.15,146.118 617.66,144.707 C620.031,138.44 621.682,131.87 621.166,124.708 Z" id="Path" fill="#D3D8E0"></path>
            <path d="M599.499,161.239 C604.844,157.514 610.826,154.849 615.312,150.026 C615.54,149.747 615.732,149.689 616.136,149.984 C618.367,151.811 618.439,152.73 616.487,154.895 C616.097,155.329 615.61,155.791 615.22,156.224 C611.98,159.306 607.793,161.004 604.186,163.571 C603.833,163.784 603.546,163.871 603.142,163.577 C601.96,162.788 600.711,162.124 599.499,161.239 Z" id="Path" fill="#D3D8E0"></path>
            <path d="M616.547,162.615 C620.178,159.1 623.551,155.768 626.895,152.34 C627.771,151.445 628.212,151.519 628.917,152.454 C629.225,152.778 629.533,153.102 629.937,153.397 C640.814,163.665 651.559,174.184 663.579,183.057 C665.723,184.598 667.867,186.138 670.011,187.678 C670.444,188.069 670.877,188.459 670.898,188.871 C670.824,189.312 670.192,189.296 669.714,189.442 C667.036,190.261 664.337,190.668 661.542,191.104 C661.351,191.163 661.131,191.125 660.881,190.993 C659.258,190.13 657.501,189.516 656.04,188.499 C650.379,184.688 644.812,180.847 639.151,177.036 C635.854,174.802 632.652,172.54 629.355,170.306 C625.404,167.645 621.499,164.447 616.547,162.615 Z" id="Path" fill="#FFFFFF"></path>
            <path d="M672.149,188.175 L665.263,182.752 C661.599,180.003 658.185,177.386 654.8,174.866 C646.107,168.322 638.29,160.882 629.987,153.905 C628.438,152.6 627.647,151.379 628.172,149.336 C628.942,146.381 629.271,143.353 629.858,140.141 C633.006,143.257 636.067,146.085 639.061,149.039 C645.975,155.918 652.697,162.856 661.371,167.629 C661.746,167.828 669.982,174.93 670.128,175.408 C671.024,180.049 671.07,183.277 672.149,188.175 Z" id="Path" fill="#D3D8E0"></path>
            <path d="M671.273,230.699 C665.273,229.999 659.273,229.999 653.373,230.199 C646.573,230.399 641.973,226.499 636.573,223.099 C642.973,219.799 664.973,224.499 671.273,230.699 Z" id="Path" fill="#FFFFFF"></path>
            <path d="M587.973,228.247 C586.073,232.547 585.273,237.147 584.173,241.647 C583.973,242.647 584.473,243.447 584.773,244.347 C585.073,245.047 585.973,245.847 585.073,246.647 C584.173,247.347 583.273,248.547 581.873,248.147 C581.473,248.047 581.173,247.947 580.773,248.147 C573.173,251.447 565.473,250.147 557.873,248.147 C548.373,245.647 539.173,242.147 530.373,237.747 C525.473,235.247 522.073,231.547 519.373,226.947 C518.073,224.847 516.073,223.347 515.173,220.947 C515.173,220.847 514.873,220.647 514.973,220.547 C515.373,218.747 514.373,217.547 513.673,216.047 C512.673,214.147 513.673,212.947 515.373,211.647 C521.073,207.247 525.573,201.847 528.573,195.247 C529.073,194.047 527.973,192.447 526.573,192.347 C523.873,192.047 521.273,191.847 518.373,191.647 C519.373,190.147 518.873,188.947 517.973,187.547 C516.673,185.447 516.073,183.247 516.973,180.647 C518.273,177.047 519.373,173.447 521.973,170.447 C523.173,169.047 527.873,168.747 529.073,170.147 C532.173,173.747 532.473,173.847 537.173,176.147 C538.373,176.747 538.873,176.547 539.473,175.347 C544.473,165.947 547.473,155.847 549.673,145.547 C549.973,144.247 550.473,143.747 551.673,143.347 C553.573,142.747 556.373,142.547 561.073,142.947 C566.773,143.447 574.373,144.747 575.973,145.347 C581.673,147.447 587.273,149.747 592.073,153.547 C599.173,159.047 609.973,169.847 614.673,177.647 C615.273,178.747 613.873,182.147 611.373,186.647 C611.673,186.547 611.873,186.547 612.273,186.547 C611.573,187.147 610.973,187.647 610.473,188.247 C609.973,189.147 609.373,190.147 608.773,191.147 C607.573,194.247 607.973,197.347 603.873,200.547 C609.173,201.547 612.073,206.047 617.073,206.947 C619.173,207.347 620.773,206.647 622.773,207.047 C626.973,207.847 631.573,209.947 635.573,211.147 C636.873,211.547 638.173,211.847 639.073,212.847 C639.873,213.747 640.973,212.747 642.073,213.147 C647.673,215.147 653.273,217.047 658.973,218.947 C663.273,220.447 667.573,221.947 671.273,224.747 C672.173,225.447 670.773,225.647 671.473,226.647 C673.273,229.147 679.273,237.847 673.373,238.147 C674.273,244.147 673.273,247.247 673.173,253.347 C673.173,255.847 672.673,256.447 670.673,258.347 C669.173,259.847 668.273,260.247 668.273,262.047 C666.673,262.047 665.473,261.247 664.173,260.647 C650.273,255.347 638.273,246.847 626.373,238.347 C623.473,236.247 597.173,228.447 588.373,224.047 C588.573,225.547 588.573,226.847 587.973,228.247 Z" id="Path" fill="#000000"></path>
            <path d="M596.373,218.048 C596.673,217.148 596.073,217.548 595.673,217.548 C593.373,216.548 591.173,215.448 588.673,215.148 C588.873,212.648 589.373,210.248 590.173,207.848 C590.773,205.948 592.173,204.948 594.073,205.048 C600.973,205.248 607.873,206.048 613.473,210.648 C622.873,218.348 634.073,223.348 644.373,229.648 C646.473,230.948 654.873,232.748 657.973,236.648 C660.873,240.248 658.773,246.048 658.873,246.848 C659.073,248.648 659.373,250.548 659.673,252.648 C655.573,249.948 651.573,247.348 647.773,244.748 C640.473,239.848 632.773,235.548 624.873,231.648 C623.773,231.148 623.273,229.748 621.873,229.748 C621.673,229.648 621.573,229.548 621.373,229.348 L621.473,229.448 C620.973,228.748 620.373,228.448 619.473,228.548 C619.473,227.848 618.973,227.748 618.373,227.648 L618.473,227.748 C617.473,226.948 616.373,226.248 615.373,225.548 C614.073,224.748 612.773,223.948 611.473,223.248 C608.173,221.548 604.673,220.248 601.073,219.148 C599.473,218.748 598.273,217.148 596.373,218.048 Z" id="Path" fill="#D3D8E0"></path>
            <path d="M568.273,153.648 C569.773,150.748 569.773,150.748 572.573,152.048 C579.873,155.448 584.973,155.448 591.073,160.848 C592.273,161.848 592.673,162.448 591.173,163.848 C582.373,172.348 575.773,182.548 569.773,193.148 C565.173,201.348 560.373,209.548 555.773,217.748 C555.073,219.048 554.373,219.448 552.773,218.848 C545.473,216.448 537.973,215.348 530.373,214.548 C528.573,214.348 526.773,214.448 524.973,214.248 C522.773,214.048 523.473,213.248 524.173,212.148 C526.273,208.648 528.173,205.048 530.473,201.748 C539.173,188.848 544.273,178.848 548.773,164.148 C550.073,159.748 554.773,154.948 553.273,150.448 C552.773,148.848 553.473,147.548 555.473,147.548 C559.873,147.448 562.273,148.348 566.473,149.648 C567.973,150.048 566.973,150.848 566.673,151.448 C563.573,158.548 560.473,165.548 557.373,172.648 C557.073,173.348 556.873,174.148 556.573,174.848 C556.073,175.548 555.373,176.248 556.173,177.448 C556.573,176.648 556.873,175.948 557.073,175.248 C560.873,168.048 564.573,160.848 568.273,153.648 Z" id="Path" fill="#D3D8E0"></path>
            <path d="M591.173,166.147 C592.873,166.147 594.573,165.847 596.373,165.747 C598.573,165.747 597.973,166.547 597.373,167.647 C595.773,171.247 594.373,174.847 592.573,178.347 C585.773,191.647 582.073,201.647 579.573,216.247 C578.773,220.547 574.873,225.647 576.873,229.847 C577.573,231.347 577.073,232.547 575.173,232.847 C570.973,233.447 562.473,225.847 564.673,218.747 C564.873,218.047 558.373,218.947 558.473,218.247 C558.873,217.447 571.873,205.647 570.973,204.547 C570.773,205.347 570.573,206.047 570.373,206.747 C567.573,213.947 583.773,166.347 591.173,166.147 Z" id="Path" fill="#D3D8E0"></path>
            <path d="M530.473,214.547 C528.673,214.347 526.873,214.447 525.073,214.247 C522.873,214.047 523.573,213.247 524.273,212.147 C526.373,208.647 528.273,205.047 530.573,201.747 C539.273,188.847 544.373,178.847 548.873,164.147 C550.173,159.747 554.873,154.947 553.373,150.447 C552.873,148.847 553.573,147.546889 555.573,147.546889 C559.873,147.447 538.073,215.247 530.473,214.547 Z" id="Path" fill="#FFFFFF"></path>
            <path d="M525.173,181.147 C525.173,181.047 525.073,180.947 525.073,180.947 C521.073,177.147 521.073,176.647 525.273,172.247 C525.373,174.247 526.873,174.647 528.173,175.247 C529.273,175.747 530.473,176.247 531.573,176.847 C535.273,178.547 535.273,178.547 533.673,182.347 C530.373,190.147 530.073,190.247 521.873,188.647 C521.173,188.547 520.773,188.347 520.673,187.547 C520.573,186.647 520.273,185.847 520.273,184.947 C520.273,180.347 520.973,179.947 524.873,181.647 C525.173,181.747 525.373,181.947 525.573,181.547 C525.573,181.547 525.273,181.247 525.173,181.147 Z" id="Path" fill="#D3D8E0"></path>
            <path d="M665.973,230.348 C666.073,234.148 666.673,237.748 667.373,241.448 C668.073,245.548 666.273,248.848 664.773,252.448 C662.173,248.848 662.973,234.848 665.973,230.348 Z" id="Path" fill="#D3D8E0"></path>
            <path d="M708.173,183.5 C708.973,183.2 709.273,183.9 709.273,185.4 C708.773,185.1 708.473,184.3 708.173,183.5 Z" id="Path" fill="#FDFDFD"></path>
            <path d="M639.973,239.8 C639.773,239.7 639.573,239.7 639.373,239.6 L639.473,239.5 C639.673,239.5 639.873,239.5 639.973,239.8 C639.973,239.7 639.973,239.8 639.973,239.8 Z" id="Path" fill="#B1B2B7"></path>
        </g>
    </g>
</svg>