<?xml version="1.0" encoding="UTF-8"?>
<svg width="882px" height="300px" viewBox="0 0 882 300" version="1.1" xmlns="http://www.w3.org/2000/svg" xmlns:xlink="http://www.w3.org/1999/xlink">
    <!-- Generator: Sketch 61 (89581) - https://sketch.com -->
    <title>Group</title>
    <desc>Created with Sketch.</desc>
    <g id="Github-Covers" stroke="none" stroke-width="1" fill="none" fill-rule="evenodd">
        <g id="Athens">
            <g id="Group">
                <rect id="Rectangle" fill="#FFFFFF" fill-rule="nonzero" x="0" y="0" width="882" height="300"></rect>
                <rect id="Rectangle" fill="#000000" fill-rule="nonzero" x="0" y="0" width="882" height="210"></rect>
                <rect id="Rectangle" fill="#1F242C" fill-rule="nonzero" transform="translate(750.922000, 131.250000) scale(-1, 1) translate(-750.922000, -131.250000) " x="724.672" y="105" width="52.5" height="52.5"></rect>
                <polygon id="Path" fill="#1F242C" fill-rule="nonzero" points="771.335 157.5 777.172 157.5 777.172 163.337 771.335 163.337"></polygon>
                <polygon id="Path" fill="#1F242C" fill-rule="nonzero" points="765.498 163.337 771.335 163.337 771.335 169.174 765.498 169.174"></polygon>
                <polygon id="Path" fill="#1F242C" fill-rule="nonzero" points="759.677 157.5 765.514 157.5 765.514 163.337 759.677 163.337"></polygon>
                <polygon id="Path" fill="#1F242C" fill-rule="nonzero" points="771.335 169.158 777.172 169.158 777.172 174.995 771.335 174.995"></polygon>
                <polygon id="Path" fill="#1F242C" fill-rule="nonzero" points="759.677 169.158 765.514 169.158 765.514 174.995 759.677 174.995"></polygon>
                <polygon id="Path" fill="#1F242C" fill-rule="nonzero" points="753.84 163.337 759.676 163.337 759.676 169.174 753.84 169.174"></polygon>
                <polygon id="Path" fill="#1F242C" fill-rule="nonzero" points="765.498 174.995 771.335 174.995 771.335 180.832 765.498 180.832"></polygon>
                <polygon id="Path" fill="#1F242C" fill-rule="nonzero" points="771.335 180.832 777.172 180.832 777.172 186.669 771.335 186.669"></polygon>
                <polygon id="Path" fill="#1F242C" fill-rule="nonzero" points="759.677 180.832 765.514 180.832 765.514 186.669 759.677 186.669"></polygon>
                <polygon id="Path" fill="#1F242C" fill-rule="nonzero" points="753.84 174.995 759.676 174.995 759.676 180.832 753.84 180.832"></polygon>
                <polygon id="Path" fill="#1F242C" fill-rule="nonzero" points="765.498 186.668 771.335 186.668 771.335 192.505 765.498 192.505"></polygon>
                <polygon id="Path" fill="#1F242C" fill-rule="nonzero" points="771.335 192.489 777.172 192.489 777.172 198.326 771.335 198.326"></polygon>
                <polygon id="Path" fill="#1F242C" fill-rule="nonzero" points="759.677 192.489 765.514 192.489 765.514 198.326 759.677 198.326"></polygon>
                <polygon id="Path" fill="#1F242C" fill-rule="nonzero" points="753.84 186.668 759.676 186.668 759.676 192.505 753.84 192.505"></polygon>
                <polygon id="Path" fill="#1F242C" fill-rule="nonzero" points="765.498 198.326 771.335 198.326 771.335 204.163 765.498 204.163"></polygon>
                <polygon id="Path" fill="#1F242C" fill-rule="nonzero" points="771.335 204.164 777.172 204.164 777.172 210.001 771.335 210.001"></polygon>
                <polygon id="Path" fill="#1F242C" fill-rule="nonzero" points="759.677 204.164 765.514 204.164 765.514 210.001 759.677 210.001"></polygon>
                <polygon id="Path" fill="#1F242C" fill-rule="nonzero" points="753.84 198.326 759.676 198.326 759.676 204.163 753.84 204.163"></polygon>
                <polygon id="Path" fill="#1F242C" fill-rule="nonzero" points="748.004 157.5 753.841 157.5 753.841 163.337 748.004 163.337"></polygon>
                <polygon id="Path" fill="#1F242C" fill-rule="nonzero" points="742.166 163.337 748.003 163.337 748.003 169.174 742.166 169.174"></polygon>
                <polygon id="Path" fill="#1F242C" fill-rule="nonzero" points="736.345 157.5 742.182 157.5 742.182 163.337 736.345 163.337"></polygon>
                <polygon id="Path" fill="#1F242C" fill-rule="nonzero" points="748.004 169.158 753.841 169.158 753.841 174.995 748.004 174.995"></polygon>
                <polygon id="Path" fill="#1F242C" fill-rule="nonzero" points="736.345 169.158 742.182 169.158 742.182 174.995 736.345 174.995"></polygon>
                <polygon id="Path" fill="#1F242C" fill-rule="nonzero" points="730.509 163.337 736.345 163.337 736.345 169.174 730.509 169.174"></polygon>
                <polygon id="Path" fill="#1F242C" fill-rule="nonzero" points="742.166 174.995 748.003 174.995 748.003 180.832 742.166 180.832"></polygon>
                <polygon id="Path" fill="#1F242C" fill-rule="nonzero" points="748.004 180.832 753.841 180.832 753.841 186.669 748.004 186.669"></polygon>
                <polygon id="Path" fill="#1F242C" fill-rule="nonzero" points="736.345 180.832 742.182 180.832 742.182 186.669 736.345 186.669"></polygon>
                <polygon id="Path" fill="#1F242C" fill-rule="nonzero" points="730.509 174.995 736.345 174.995 736.345 180.832 730.509 180.832"></polygon>
                <polygon id="Path" fill="#1F242C" fill-rule="nonzero" points="742.166 186.668 748.003 186.668 748.003 192.505 742.166 192.505"></polygon>
                <polygon id="Path" fill="#1F242C" fill-rule="nonzero" points="748.004 192.489 753.841 192.489 753.841 198.326 748.004 198.326"></polygon>
                <polygon id="Path" fill="#1F242C" fill-rule="nonzero" points="736.345 192.489 742.182 192.489 742.182 198.326 736.345 198.326"></polygon>
                <polygon id="Path" fill="#1F242C" fill-rule="nonzero" points="730.509 186.668 736.345 186.668 736.345 192.505 730.509 192.505"></polygon>
                <polygon id="Path" fill="#1F242C" fill-rule="nonzero" points="742.166 198.326 748.003 198.326 748.003 204.163 742.166 204.163"></polygon>
                <polygon id="Path" fill="#1F242C" fill-rule="nonzero" points="748.004 204.164 753.841 204.164 753.841 210.001 748.004 210.001"></polygon>
                <polygon id="Path" fill="#1F242C" fill-rule="nonzero" points="736.345 204.164 742.182 204.164 742.182 210.001 736.345 210.001"></polygon>
                <polygon id="Path" fill="#1F242C" fill-rule="nonzero" points="724.672 157.5 730.508 157.5 730.508 163.337 724.672 163.337"></polygon>
                <polygon id="Path" fill="#1F242C" fill-rule="nonzero" points="724.672 169.158 730.508 169.158 730.508 174.995 724.672 174.995"></polygon>
                <polygon id="Path" fill="#1F242C" fill-rule="nonzero" points="724.672 180.832 730.508 180.832 730.508 186.669 724.672 186.669"></polygon>
                <polygon id="Path" fill="#1F242C" fill-rule="nonzero" points="724.672 192.489 730.508 192.489 730.508 198.326 724.672 198.326"></polygon>
                <polygon id="Path" fill="#1F242C" fill-rule="nonzero" points="724.672 204.164 730.508 204.164 730.508 210.001 724.672 210.001"></polygon>
                <polygon id="Path" fill="#1F242C" fill-rule="nonzero" points="730.509 198.326 736.345 198.326 736.345 204.163 730.509 204.163"></polygon>
                <rect id="Rectangle" fill="#1F242C" fill-rule="nonzero" transform="translate(762.588335, 78.750000) scale(-1, 1) translate(-762.588335, -78.750000) " x="759.67167" y="52.5" width="5.83333" height="52.5"></rect>
                <rect id="Rectangle" fill="#1F242C" fill-rule="nonzero" transform="translate(750.921335, 78.750000) scale(-1, 1) translate(-750.921335, -78.750000) " x="748.00467" y="52.5" width="5.83333" height="52.5"></rect>
                <rect id="Rectangle" fill="#1F242C" fill-rule="nonzero" transform="translate(739.255335, 78.750000) scale(-1, 1) translate(-739.255335, -78.750000) " x="736.33867" y="52.5" width="5.83333" height="52.5"></rect>
                <rect id="Rectangle" fill="#1F242C" fill-rule="nonzero" transform="translate(727.588335, 78.750000) scale(-1, 1) translate(-727.588335, -78.750000) " x="724.67167" y="52.5" width="5.83333" height="52.5"></rect>
                <rect id="Rectangle" fill="#1F242C" fill-rule="nonzero" transform="translate(774.253660, 78.750000) scale(-1, 1) translate(-774.253660, -78.750000) " x="771.33532" y="52.5" width="5.83668" height="52.5"></rect>
                <rect id="Rectangle" fill="#1F242C" fill-rule="nonzero" transform="translate(844.254664, 131.249999) scale(-1, 1) rotate(-179.999998) translate(-844.254664, -131.249999) " x="841.337999" y="104.999999" width="5.83333" height="52.5"></rect>
                <rect id="Rectangle" fill="#1F242C" fill-rule="nonzero" transform="translate(855.921664, 131.249999) scale(-1, 1) rotate(-179.999998) translate(-855.921664, -131.249999) " x="853.004999" y="104.999999" width="5.83333" height="52.5"></rect>
                <rect id="Rectangle" fill="#1F242C" fill-rule="nonzero" transform="translate(867.588664, 131.249999) scale(-1, 1) rotate(-179.999998) translate(-867.588664, -131.249999) " x="864.671999" y="104.999999" width="5.83333" height="52.5"></rect>
                <rect id="Rectangle" fill="#1F242C" fill-rule="nonzero" transform="translate(879.254664, 131.249999) scale(-1, 1) rotate(-179.999998) translate(-879.254664, -131.249999) " x="876.337999" y="104.999999" width="5.83333" height="52.5"></rect>
                <rect id="Rectangle" fill="#1F242C" fill-rule="nonzero" transform="translate(832.590339, 131.249999) scale(-1, 1) rotate(-179.999998) translate(-832.590339, -131.249999) " x="829.671999" y="104.999999" width="5.83668" height="52.5"></rect>
                <rect id="Rectangle" fill="#1F242C" fill-rule="nonzero" transform="translate(529.583664, 27.234399) scale(-1, 1) rotate(-179.999998) translate(-529.583664, -27.234399) " x="526.666999" y="0.98439928" width="5.83333" height="52.5"></rect>
                <rect id="Rectangle" fill="#1F242C" fill-rule="nonzero" transform="translate(541.249664, 27.234399) scale(-1, 1) rotate(-179.999998) translate(-541.249664, -27.234399) " x="538.332999" y="0.98439928" width="5.83333" height="52.5"></rect>
                <rect id="Rectangle" fill="#1F242C" fill-rule="nonzero" transform="translate(552.916664, 27.234399) scale(-1, 1) rotate(-179.999998) translate(-552.916664, -27.234399) " x="549.999999" y="0.98439928" width="5.83333" height="52.5"></rect>
                <rect id="Rectangle" fill="#1F242C" fill-rule="nonzero" transform="translate(564.583664, 27.234399) scale(-1, 1) rotate(-179.999998) translate(-564.583664, -27.234399) " x="561.666999" y="0.98439928" width="5.83333" height="52.5"></rect>
                <rect id="Rectangle" fill="#1F242C" fill-rule="nonzero" transform="translate(517.918339, 27.234399) scale(-1, 1) rotate(-179.999998) translate(-517.918339, -27.234399) " x="514.999999" y="0.984399279" width="5.83668" height="52.5"></rect>
                <path d="M829.672,163.333 L829.672,157.5 C800.677,157.5 777.172,181.005 777.172,210 L783.005,210 C783.005,184.227 803.898,163.333 829.672,163.333 Z M829.672,175 L829.672,169.166 C807.12,169.166 788.838,187.448 788.838,210 L794.672,210 C794.672,190.67 810.342,175 829.672,175 Z M829.672,180.834 L829.672,186.667 C816.785,186.667 806.338,197.114 806.338,210 L800.505,210 C800.505,193.892 813.563,180.834 829.672,180.834 Z M829.672,198.333 L829.672,192.5 C820.007,192.5 812.172,200.335 812.172,210 L818.005,210 C818.005,203.557 823.228,198.333 829.672,198.333 Z M829.672,210 L829.672,204.166 C826.45,204.166 823.838,206.778 823.838,210 L829.672,210 Z" id="Shape" fill="#1F242C"></path>
                <path d="M620.172,110.833 L620.172,105 C591.177,105 567.672,128.505 567.672,157.5 L573.505,157.5 C573.505,131.727 594.398,110.833 620.172,110.833 Z M620.172,122.5 L620.172,116.667 C597.62,116.667 579.338,134.949 579.338,157.5 L585.172,157.5 C585.172,138.17 600.842,122.5 620.172,122.5 Z M620.172,128.333 L620.172,134.167 C607.285,134.167 596.838,144.613 596.838,157.5 L591.005,157.5 C591.005,141.392 604.063,128.333 620.172,128.333 Z M620.172,145.833 L620.172,140 C610.507,140 602.672,147.835 602.672,157.5 L608.505,157.5 C608.505,151.056 613.728,145.833 620.172,145.833 Z M620.172,157.5 L620.172,151.667 C616.95,151.667 614.338,154.279 614.338,157.5 L620.172,157.5 Z" id="Shape" fill="#1F242C"></path>
                <path d="M668.059,52.5 L672.172,52.5 L672.172,48.3875 L623.784,0 L619.672,0 L619.672,4.1125 L668.059,52.5 Z M632.039,0 L640.293,0 L672.172,31.8791 L672.172,40.1333 L632.039,0 Z M648.547,0 L656.801,0 L672.172,15.3708 L672.172,23.625 L648.547,0 Z M672.172,0 L672.172,7.11666 L665.055,0 L672.172,0 Z M619.672,20.6208 L619.672,12.3667 L659.805,52.5 L651.551,52.5 L619.672,20.6208 Z M619.672,37.1291 L619.672,28.875 L643.297,52.5 L635.043,52.5 L619.672,37.1291 Z M619.672,45.3833 L626.789,52.5 L619.672,52.5 L619.672,45.3833 Z" id="Shape" fill="#1F242C" fill-rule="nonzero"></path>
                <path d="M724.672,105 L672.172,105 L672.172,52.5 C701.167,52.5 724.672,76.0051 724.672,105 Z" id="Path" fill="#1F242C" fill-rule="nonzero"></path>
                <path d="M619.672,157.5 L619.672,105 L672.172,105 C672.172,133.995 648.667,157.5 619.672,157.5 Z" id="Path" fill="#1F242C" fill-rule="nonzero"></path>
                <path d="M61.2891,101 L72.5859,68.3516 L77.6719,68.3516 L88.9922,101 L84.1875,101 L81.5156,92.9375 L68.6953,92.9375 L66,101 L61.2891,101 Z M69.8906,89.1875 L80.2969,89.1875 L75.2109,73.4375 L75.0234,73.4375 L69.8906,89.1875 Z M91.9219,80.2109 L91.9219,76.5312 L96.0469,76.5312 L96.0469,68.3516 L100.312,68.3516 L100.312,76.5312 L105.938,76.5312 L105.938,80.2109 L100.312,80.2109 L100.312,97.2969 L105.938,97.2969 L105.938,101 L96.0469,101 L96.0469,80.2109 L91.9219,80.2109 Z M111.938,101 L111.938,68.3516 L116.25,68.3516 L116.25,80.5625 C116.922,79.125 117.844,78 119.016,77.1875 C120.188,76.3594 121.703,75.9453 123.562,75.9453 C124.75,75.9453 125.828,76.1094 126.797,76.4375 C127.766,76.75 128.602,77.2578 129.305,77.9609 C130.008,78.6641 130.555,79.5703 130.945,80.6797 C131.336,81.7734 131.531,83.1094 131.531,84.6875 L131.531,101 L127.195,101 L127.195,85.1562 C127.195,83.3594 126.852,81.9531 126.164,80.9375 C125.477,79.9062 124.203,79.3906 122.344,79.3906 C121.453,79.3906 120.641,79.5703 119.906,79.9297 C119.172,80.2734 118.531,80.7734 117.984,81.4297 C117.438,82.0859 117.008,82.8672 116.695,83.7734 C116.398,84.6641 116.25,85.6406 116.25,86.7031 L116.25,101 L111.938,101 Z M138.023,88.7656 C138.023,86.9062 138.25,85.1875 138.703,83.6094 C139.172,82.0156 139.859,80.6641 140.766,79.5547 C141.688,78.4297 142.797,77.5469 144.094,76.9062 C145.391,76.2656 146.883,75.9453 148.57,75.9453 C150.336,75.9453 151.875,76.25 153.188,76.8594 C154.5,77.4688 155.586,78.3047 156.445,79.3672 C157.305,80.4141 157.953,81.6484 158.391,83.0703 C158.828,84.4922 159.047,86.0234 159.047,87.6641 L159.047,89.9609 L142.57,89.9609 L142.57,92.5625 C142.57,93.4531 142.734,94.2422 143.062,94.9297 C143.406,95.6172 143.867,96.2031 144.445,96.6875 C145.023,97.1562 145.672,97.5156 146.391,97.7656 C147.109,98 147.852,98.1172 148.617,98.1172 C150.148,98.1172 151.477,97.7266 152.602,96.9453 C153.727,96.1641 154.367,94.9219 154.523,93.2188 L158.859,93.2188 C158.766,94.5312 158.422,95.7031 157.828,96.7344 C157.234,97.75 156.461,98.6172 155.508,99.3359 C154.57,100.055 153.508,100.609 152.32,101 C151.133,101.391 149.883,101.586 148.57,101.586 C146.805,101.586 145.258,101.266 143.93,100.625 C142.617,99.9844 141.516,99.1016 140.625,97.9766 C139.75,96.8516 139.094,95.5078 138.656,93.9453 C138.234,92.3828 138.023,90.6562 138.023,88.7656 Z M142.57,86.5156 L154.57,86.5156 L154.57,85.1562 C154.57,84.2656 154.406,83.4609 154.078,82.7422 C153.766,82.0234 153.328,81.4141 152.766,80.9141 C152.219,80.4141 151.578,80.0391 150.844,79.7891 C150.125,79.5234 149.367,79.3906 148.57,79.3906 C147.773,79.3906 147.016,79.5234 146.297,79.7891 C145.578,80.0391 144.938,80.4141 144.375,80.9141 C143.812,81.4141 143.367,82.0234 143.039,82.7422 C142.727,83.4609 142.57,84.2656 142.57,85.1562 L142.57,86.5156 Z M165.609,101 L165.609,76.5312 L169.922,76.5312 L169.922,80.5625 C170.594,79.125 171.516,78 172.688,77.1875 C173.859,76.3594 175.375,75.9453 177.234,75.9453 C178.422,75.9453 179.5,76.1094 180.469,76.4375 C181.438,76.75 182.273,77.2578 182.977,77.9609 C183.68,78.6641 184.227,79.5703 184.617,80.6797 C185.008,81.7734 185.203,83.1094 185.203,84.6875 L185.203,101 L180.867,101 L180.867,85.1562 C180.867,83.3594 180.523,81.9531 179.836,80.9375 C179.148,79.9062 177.875,79.3906 176.016,79.3906 C175.125,79.3906 174.312,79.5703 173.578,79.9297 C172.844,80.2734 172.203,80.7734 171.656,81.4297 C171.109,82.0859 170.68,82.8672 170.367,83.7734 C170.07,84.6641 169.922,85.6406 169.922,86.7031 L169.922,101 L165.609,101 Z M191.391,93.2656 L195.727,93.2656 C195.789,94.8906 196.367,96.1094 197.461,96.9219 C198.57,97.7188 199.875,98.1172 201.375,98.1172 C202.812,98.1172 204.062,97.7969 205.125,97.1562 C206.188,96.5156 206.719,95.5859 206.719,94.3672 C206.719,93.3828 206.398,92.5938 205.758,92 C205.117,91.4062 203.977,90.9531 202.336,90.6406 L198.305,89.8203 C196.289,89.3984 194.734,88.625 193.641,87.5 C192.562,86.3594 192.023,84.8281 192.023,82.9062 C192.023,81.9531 192.234,81.0547 192.656,80.2109 C193.094,79.3516 193.711,78.6094 194.508,77.9844 C195.32,77.3594 196.266,76.8672 197.344,76.5078 C198.438,76.1328 199.656,75.9453 201,75.9453 C202.156,75.9453 203.281,76.1016 204.375,76.4141 C205.484,76.7109 206.469,77.1797 207.328,77.8203 C208.203,78.4609 208.898,79.2812 209.414,80.2812 C209.945,81.2656 210.227,82.4453 210.258,83.8203 L205.945,83.8203 C205.883,82.1953 205.375,81.0547 204.422,80.3984 C203.484,79.7266 202.359,79.3906 201.047,79.3906 C199.703,79.3906 198.562,79.7109 197.625,80.3516 C196.703,80.9922 196.242,81.8281 196.242,82.8594 C196.242,83.8125 196.516,84.5547 197.062,85.0859 C197.609,85.6172 198.492,86.0078 199.711,86.2578 L203.836,87.125 C206.273,87.6406 208.078,88.4766 209.25,89.6328 C210.438,90.7734 211.031,92.3359 211.031,94.3203 C211.031,95.3516 210.797,96.3125 210.328,97.2031 C209.875,98.0781 209.211,98.8359 208.336,99.4766 C207.477,100.102 206.453,100.609 205.266,101 C204.078,101.391 202.766,101.586 201.328,101.586 C199.953,101.586 198.664,101.406 197.461,101.047 C196.273,100.703 195.227,100.188 194.32,99.5 C193.43,98.7969 192.727,97.9297 192.211,96.8984 C191.695,95.8516 191.422,94.6406 191.391,93.2656 Z" id="Shape" fill="#FFFFFF" fill-rule="nonzero"></path>
                <path d="M672.4,244.1 C672.4,244.1 667.5,243.9 665.1,245.8 C665.1,245.8 659.4,242.2 648.4,244.8 L644.2,228.1 C644.2,228.1 640.2,210.2 645.7,202.1 C649.4,196.6 657.1,189.4 666.1,179 C670.1,174.3 675.3,170.7 679.7,166.9 C685.5,161.9 686.5,153.1 686.3,145.8 C686,135.6 679.7,126.1 679.7,126.1 C679.7,126.1 620,119.2 610.9,124.7 C610.9,124.7 577.4,147.4 545.8,187.7 C545.8,187.7 546.1,187.7 547.9,188.7 C547.9,188.7 539.1,200.4 539.2,209 C539.2,209 538.7,211.3 539.6,213.8 C539.6,213.8 540.5,218.7 540.4,219.7 C540.3,220.7 540.6,225.1 540.6,225.1 C540.6,225.1 539.4,230.5 539.2,231.4 C538.9,232.3 539.2,238 539.2,238 C539.2,238 565.8,225.5 569.6,223.3 C569.6,223.3 585.4,224.6 591.2,223.6 C591.2,223.6 596.5,230.3 597,231.6 L599.5,245.4 C599.5,245.4 594.3,246.3 592.5,248.2 C591.7,248.2 583.1,247 580.2,250.3 C580.2,250.3 578.7,256.4 579.4,257.4 C580.1,258.4 583.4,258.1 584.4,257.1 C584.4,257.1 589.7,262.9 595.1,262.3 C600.5,261.7 607.9,258.2 613.7,259.5 C619.5,260.8 628.3,263.4 633.6,261.9 C639,260.4 644.7,257.1 644.7,257.1 L646.3,258.4 C646.3,258.4 646.9,257.8 646.7,257.4 C646.7,257.4 663.2,259 667.7,261.3 C674,264.5 681.1,256.5 681.1,256.5 C681.1,256.5 681.7,256.7 683.1,256.9 C682.8,256.8 685.7,243.7 672.4,244.1 Z M630,244.3 C627.2,244.4 626.4,245.3 626.4,245.3 L618.8,244.4 C618.2,243.2 615.2,229.4 615.2,229.4 C615.1,227.4 617.2,222 617.2,222 C619.8,221.8 620.7,221.3 620.7,221.3 C622.1,223 629.1,231.3 629.1,231.3 C630.2,234.6 630,244.3 630,244.3 Z" id="Shape" fill="#010101" fill-rule="nonzero"></path>
                <path d="M634.5,244.8 C634.5,244.8 640.1,245.3 642.8,247.9 L643.6,247.6 L640.1,231.2 C640.1,231.2 636,232.3 634,234 L634.5,244.8 Z" id="Path" fill="#C4C3C6" fill-rule="nonzero"></path>
                <path d="M646.5,250.5 C646.5,250.5 653.7,246.1 664.1,249.1 L664.9,252.1 C664.9,252.1 679.3,251.6 678.2,254.5 C677,257.4 671.2,258.4 668.3,257.6 C665.4,256.8 657.4,253 648.3,254.2 C648.2,254.1 647.3,251.8 646.5,250.5 Z" id="Path" fill="#C4C3C6" fill-rule="nonzero"></path>
                <path d="M604.2,234.6 L603.7,249.5 C603.7,249.5 599,249.2 594.8,250.9 C594.8,250.9 595.6,253.5 594.3,253.8 C593,254.1 587.9,254.9 587.9,254.9 L588.3,255.4 C588.3,255.4 594.4,258.7 597.7,257.1 C600.4,255.8 604,254.1 611.7,254.2 C619.4,254.3 623.5,258.4 628.4,258.1 C633.3,257.7 639.5,256.2 640.8,254.6 C640.8,254.6 639.4,252.4 633.8,252.1 C628.3,251.8 627.2,251.8 626.4,248.5 C626.4,248.5 619.4,248.3 615.5,249.5 C615.5,249.5 611.5,231.5 611.1,231.5 C610.7,231.5 605.5,232.5 604.2,234.6 Z" id="Path" fill="#C4C3C6" fill-rule="nonzero"></path>
                <path d="M573.3,218 C575.5,217.2 600,198.7 600,198.7 C598.6,200.8 583.2,212.7 583.2,212.7 C583.2,212.7 584,212.9 586.2,212 C588.5,211 602.8,202.2 603.1,201.8 L597.7,207.7 L604.9,202.9 C606.7,203.5 610,203.4 610,203.4 C608.7,204.5 605.8,208.3 605.8,208.3 C608.8,206 612.7,203.1 612.7,203.1 L615.6,203.1 C615,204.6 612.7,207.5 612.7,207.5 L618.5,205.6 L616.9,207.8 C619.5,205.9 625,204 625,204 C623.9,204.7 617.7,210.8 617.7,210.8 C619.2,209.2 632.8,201.1 632.8,201.1 L634.1,200.9 C633.3,201.8 630.2,206.2 630.2,206.2 L635.5,201 C635.5,201 637.3,200.1 639.8,199.8 C639.8,199.8 637.7,206.8 636.8,211.8 C635.9,217 638.4,225.3 638.4,225.3 C635.5,227 632.9,227.5 632.9,227.5 C630.7,224.1 623.8,217.3 623.8,217.3 L626.5,211.3 C621.7,216.1 615.4,217.7 615.4,217.7 C614.8,217.7 614.2,212.7 614.2,212.7 C612.2,214.7 609.4,226.8 609.4,226.8 C609,227.8 605.9,228.4 604.6,228.3 C603.3,228.2 602.1,226.2 602.1,226.2 L605,225 L600.8,224.1 C599.5,223.6 595.7,218.4 595.7,218.4 C595.9,217.8 606.2,211.6 606.2,211.6 L594.6,217 L573.3,218 Z" id="Path" fill="#C4C3C6" fill-rule="nonzero"></path>
                <path d="M667.6,248.5 L668.4,249.8 C668.4,249.8 674.5,248.6 680.3,252 C680.3,252 678.9,247.8 673.6,247.5 C667.3,247.2 667.6,248.5 667.6,248.5 Z" id="Path" fill="#FFFFFF" fill-rule="nonzero"></path>
                <path d="M618.9,163.5 C608,173.2 577.7,191.3 577.7,191.3 C577.7,191.3 586.5,195.8 601.8,188.1 C617.1,180.4 631.5,165.8 633,163.7 L625.3,168.5 L630.4,163.4 C630.4,163.4 628.3,163.7 627,163.7 L613.7,171.7 C617.3,169.8 624.6,163.7 624.6,163.7 L618.9,163.5 Z" id="Path" fill="#FFFFFF" fill-rule="nonzero"></path>
                <path d="M600,182.2 C600,182.2 615.3,174 618,172 C618,172 610,179.9 603.1,182.7 C596.2,185.5 591.6,185.9 591.6,185.9 L600,182.2 Z" id="Path" fill="#010101" fill-rule="nonzero"></path>
                <path d="M543.1,230.5 C543.1,230.5 544.8,226.3 545.7,223.7 C545.9,223 564.4,203.4 573.5,198.7 L574.8,198.7 C565.4,206.8 566.6,206 564.2,208.3 C564.2,208.3 580.4,196.7 582.5,195.9 C582.5,195.9 577.7,201.2 576.5,202.3 C576.5,202.3 588.3,196.9 589.9,196 C589.9,196 588.4,198.2 587.2,199.2 C587.2,199.2 603.4,191.5 604.8,191 C604.8,191 551.4,230 543.1,230.5 Z" id="Path" fill="#C4C3C6" fill-rule="nonzero"></path>
                <path d="M558.8,214.6 C558.8,214.6 564.4,211.1 565.9,209.6 C567.3,208.2 569.2,208.6 565.9,211.5 C562.6,214.4 561.7,215.3 558.8,215.5 C555.9,215.7 558.8,214.6 558.8,214.6 Z" id="Path" fill="#010101" fill-rule="nonzero"></path>
                <path d="M630.4,248.1 C630.4,248.1 630.3,249.4 631.2,249.5 C632.6,249.8 637.3,248.9 643.3,252.5 C643.3,252.5 643.9,251.6 641.3,249.4 C638.6,247.3 632.3,247.3 630.4,248.1 Z" id="Path" fill="#FFFFFF" fill-rule="nonzero"></path>
                <path d="M582,255.1 C582,255.1 582.5,252.1 583.4,251.6 C584.3,251.1 590.2,250.8 591.2,251 C591.2,251 592,251.9 591.7,252.2 C591.4,252.5 585.8,253 584.9,253.9 C584,254.8 582.8,255.3 582,255.1 Z" id="Path" fill="#FFFFFF" fill-rule="nonzero"></path>
                <path d="M603.7,249.5 C603.7,249.5 606.8,249.6 608.6,250.2 C608.6,250.2 604.8,247.2 602.9,247.4 L603.7,249.5 Z" id="Path" fill="#010101" fill-rule="nonzero"></path>
                <path d="M571.1,195.5 C571.1,195.5 569.3,195 569.4,193.5 L564.5,196.6 L570.1,191.6 L569.1,191.1 C568.2,191.6 559.5,198.3 559.5,198.3 L566.9,191 C566.5,191.1 564.9,191 564.9,191 C563.1,192.2 547.8,206.6 545.4,210.8 C543,215 544.7,220.8 544.7,220.8 C544.7,220.8 558.5,205.6 571.1,195.5 Z" id="Path" fill="#C4C3C6" fill-rule="nonzero"></path>
                <path d="M562.6,190.3 C562.6,190.3 549.6,200.5 544.7,208.9 C544.7,208.9 543.3,207.6 544.2,204.3 C545.1,201 553.7,191.9 555.4,190.8 L553.3,195.1 L558.4,190.5 C558.3,190.3 561.2,190.7 562.6,190.3 Z" id="Path" fill="#C4C3C6" fill-rule="nonzero"></path>
                <path d="M603.4,84.6 C603.4,84.6 598.8,77.2 598.5,74.8 C598.5,74.8 604.2,72.2 611.6,72.5 C611.6,72.5 610.7,64.3 612.7,62.1 C612.7,62.1 621.9,65.5 624.7,67.5 C624.7,67.5 624.2,58.2 627.7,56.7 C627.7,56.7 635.7,61.1 636.2,64.4 C636.2,64.4 637.6,57 641.3,55.8 C641.3,55.8 644.6,59.5 646.7,62.6 C646.7,62.6 650.2,53.6 653.2,52.5 C653.2,52.5 658.9,58.4 659.4,61.1 C659.4,61.1 659.7,58 665.5,55.8 C665.5,55.8 671.5,61.7 671.2,65.1 C671.2,65.1 674.2,58.5 678.1,57.7 C678.1,57.7 683.2,59.2 683.3,65.7 C683.3,65.7 687.7,62.1 690.8,60.9 C690.8,60.9 695.7,66.2 694.9,69.3 C694.9,69.3 699.8,67.1 703,67.8 C703,67.8 705.6,71.8 703.3,78.1 C703.3,78.1 711.8,77.3 713.5,79.2 C713.5,79.2 711.1,87.2 709.8,87.7 C709.8,87.7 716.5,90.3 717.7,92.2 C717.7,92.2 712.2,98.3 710.9,99 L716.5,106.3 C716.5,106.3 713.2,110.9 710.4,110.9 C710.4,110.9 712,117.1 711.9,121.2 C711.9,121.2 705.5,121.7 703.3,120 C703.3,120 704.2,124.9 703.8,127.8 C703.8,127.8 696.9,127.2 695.8,125.3 C695.8,125.3 693.9,132.7 692,134.2 C692,134.2 686.6,130.7 686.2,128.8 C686.2,128.8 685.3,133.3 683,134.5 C683,134.5 676.5,129.6 676.8,128 C676.8,128 675.4,133.8 672.7,134.1 C672.7,134.1 668.6,130.2 668.6,128.1 C668.6,128.1 667.3,131.9 665.3,132 C665.3,132 661.8,128.9 661,127 C661,127 657.1,133.5 655.3,134.1 C655.3,134.1 648.7,126.9 647.9,125 C647.9,125 646.6,129.6 644.9,130.8 C644.9,130.8 643,129.6 642.1,127.7 C642.1,127.7 639.6,133.1 638,133.4 C638,133.4 634.9,132.4 633.9,130.8 C633.9,130.8 632.5,132.7 629,134.1 C629,134.1 626.8,132.2 625.4,129.7 C625.4,129.7 621.6,133.3 618.9,133.3 C618.9,133.3 616.1,128.9 616.5,126.7 C616.5,126.7 610.4,130.3 606.5,130.2 C606.5,130.2 604.7,125.3 605.4,123.3 C605.4,123.3 600.6,123 599.2,122.2 C599.2,122.2 597.3,116.1 600.3,112.6 C600.3,112.6 592.2,107.4 591.2,105.2 C591.2,105.2 595.4,101.2 600.8,98.1 L591.8,90.3 C591.8,89.9 596.8,85.7 603.4,84.6 Z" id="Path" fill="#010101" fill-rule="nonzero"></path>
                <path d="M646.8,117.4 C646.8,117.4 653.3,130.9 655.1,132.2 C655.1,132.2 660.6,120.6 661.6,116.5 C661.6,116.5 657,110.2 655,107.3 C654.9,107.2 649.8,115 646.8,117.4 Z" id="Path" fill="#C4C3C6" fill-rule="nonzero"></path>
                <path d="M678.7,116.5 C678.7,116.5 695.2,115.2 699.2,99.5999 C703.2,83.9999 685.8,75.3999 678.7,75.4999 C671.6,75.5999 656.9,83.0999 657.8,96.6999 C658.7,110.3 669.8,116 678.7,116.5 Z" id="Path" fill="#FFFFFF" fill-rule="nonzero"></path>
                <path d="M678.7,114.099 C678.7,114.099 693.2,112.899 696.8,99.1994 C700.3,85.3994 685,77.8994 678.7,77.8994 C672.4,77.8994 659.4,84.5994 660.2,96.5994 C661,108.599 670.8,113.699 678.7,114.099 Z" id="Path" fill="#C4C3C6" fill-rule="nonzero"></path>
                <path d="M678.7,111.6 C678.7,111.6 691.3,110.6 694.4,98.6999 C697.5,86.7999 684.2,80.1999 678.7,80.2999 C673.3,80.2999 662,86.0999 662.7,96.4999 C663.4,106.9 671.9,111.3 678.7,111.6 Z" id="Path" fill="#FFFFFF" fill-rule="nonzero"></path>
                <path d="M677.2,108.5 C677.2,108.5 684.4,107.7 686,105.9 C686,105.9 694.2,98.8998 691.5,93.2998 C691.5,93.2998 687.3,85.2998 683.3,84.3998 C679.4,83.4998 670.9,83.8998 668.9,90.1998 C666.9,96.3998 665,104.3 677.2,108.5 Z" id="Path" fill="#010101" fill-rule="nonzero"></path>
                <path d="M688.3,103.6 C688.3,103.6 681.8,106.4 677,104.2 C672.2,102 671,97.6 670.7,97 C670.7,97 669.6,102.8 674.8,105 C680,107.2 685.9,107.1 687.5,105 C688.9,103.2 688.3,103.6 688.3,103.6 Z" id="Path" fill="#FFFFFF" fill-rule="nonzero"></path>
                <path d="M630.4,117.2 C630.4,117.2 647,115.9 651.1,100.1 C655.2,84.2997 637.6,75.6997 630.4,75.7997 C623.2,75.8997 608.4,83.4997 609.3,97.1997 C610.1,110.9 621.4,116.7 630.4,117.2 Z" id="Path" fill="#FFFFFF" fill-rule="nonzero"></path>
                <path d="M630.4,114.7 C630.4,114.7 645.1,113.5 648.7,99.5996 C652.3,85.6996 636.8,78.0996 630.4,78.0996 C624.1,78.0996 611,84.8996 611.7,96.9996 C612.4,109.1 622.4,114.3 630.4,114.7 Z" id="Path" fill="#C4C3C6" fill-rule="nonzero"></path>
                <path d="M630.4,112.4 C630.4,112.4 643.2,111.4 646.3,99.2001 C649.4,87.1001 635.9,80.4001 630.4,80.5001 C624.9,80.5001 613.4,86.4001 614.1,97.0001 C614.8,107.6 623.5,112.1 630.4,112.4 Z" id="Path" fill="#FFFFFF" fill-rule="nonzero"></path>
                <path d="M628.9,109.1 C628.9,109.1 636.2,108.3 637.8,106.5 C637.8,106.5 646,99.4998 643.3,93.7998 C643.3,93.7998 639,85.6998 635.1,84.7998 C631.2,83.8998 622.6,84.2998 620.5,90.6998 C618.4,96.8998 616.5,104.9 628.9,109.1 Z" id="Path" fill="#010101" fill-rule="nonzero"></path>
                <path d="M640.1,104.099 C640.1,104.099 633.5,106.999 628.7,104.699 C623.8,102.399 622.6,97.9994 622.3,97.3994 C622.3,97.3994 621.2,103.299 626.5,105.499 C631.7,107.699 637.7,107.599 639.3,105.499 C640.7,103.799 640.1,104.099 640.1,104.099 Z" id="Path" fill="#FFFFFF" fill-rule="nonzero"></path>
                <path d="M655.7,77.2002 C655.7,77.2002 650.1,77.4002 650.5,81.2002 C650.9,85.0002 654.4,85.4002 655.7,85.0002 C655.7,85.0002 658.3,84.8002 658.7,81.2002 C659.1,77.6002 655.7,77.2002 655.7,77.2002 Z" id="Path" fill="#C4C3C6" fill-rule="nonzero"></path>
                <path d="M615.7,160.4 C615.7,160.4 576.1,185.3 574.7,185.5 C570.7,186.2 565.4,185.2 565.4,185.2 C568.7,183.5 589.8,164.5 589.8,164.5 L592,164.2 C591.6,165 583.1,173.1 583.1,173.1 C584.5,171.9 594.5,164.2 594.5,164.2 L596.6,163.6 C595.8,164.6 590.2,169.4 590.2,169.4 L597.3,164.3 L598.8,163.2 C599.6,162.9 601.4,162.9 601.4,162.9 L596.4,167.2 L602.8,163 L615.7,160.4 Z" id="Path" fill="#FFFFFF" fill-rule="nonzero"></path>
                <path d="M617.4,130.8 C618,131.6 617,132.6 617,132.6 C618.3,131.5 619.4,130.8 619.4,130.8 C619.5,131.9 621,137.5 622.1,137.1 C623.2,136.7 626.1,133.3 626.1,133.3 L626,136.9 L627.5,132.7 L628.4,132.2 C628.4,132.2 630.1,138 631.2,138 C632.4,138 635.5,134.5 635.5,134.5 L635.8,138.3 C636.1,137.2 637.5,133.5 637.5,133.5 C637.8,134.8 641.1,136.5 641.1,136.5 C641.1,136.5 641.6,141.5 642,140.3 C642.3,139.4 644.1,136.1 644.1,136.1 C647.9,142.6 641,152.6 641,152.6 C636.6,152.6 637.7,144.2 637.7,144.2 C637.6,144.9 631.6,149.1 628.8,149.5 C626.9,149.8 627.7,141.7 627.7,141.7 C627,143.2 618.1,146.3 615.3,146 C612.5,145.7 616.8,138.8 616.8,138.8 C616.8,138.8 598.2,143.2 604.3,136.8 C607.8,132.5 616.7,129.9 617.4,130.8 Z" id="Path" fill="#FFFFFF" fill-rule="nonzero"></path>
                <path d="M578.5,162.6 C578.8,162.4 571.7,170.9 571.7,170.9 L579.9,162.7 L580.7,164.2 C581.6,165.1 582.9,165.6 582.9,165.6 C581.1,167.9 556.2,186 556.2,186 C557,186.6 559.2,187.8 559.2,187.8 C558.6,188.3 558.6,188.3 558.6,188.3 C555.8,188 553.7,186.4 553.7,186.4 C553.7,186.4 564.9,172.1 578.5,162.6 Z" id="Path" fill="#FFFFFF" fill-rule="nonzero"></path>
                <path d="M609.4,153.4 C609.4,153.4 606.9,156.3 604.7,157.6 C604.7,157.6 607.6,152.8 606.9,153.3 C606.9,153.3 605,153.9 603.3,154 C603.3,154 599.5,158.1 595.5,158.9 C595.5,158.9 595.8,158.6 594.3,160.6 C594.3,160.6 604.5,160.9 609.1,157.7 C609.2,157.7 609,155 609.4,153.4 Z" id="Path" fill="#FFFFFF" fill-rule="nonzero"></path>
                <path d="M630.1,175.1 L632.2,172.3 C632.2,172.3 630.2,172.4 628.9,172.3 C628.9,172.3 626.3,176.6 628.9,177.8 C628.9,177.8 632.6,178.2 634.4,176.6 C634.4,176.6 632.9,174.5 632.8,173.1 C632.8,173.1 631.1,175 630.7,175.5 L630.1,175.1 Z" id="Path" fill="#C4C3C6" fill-rule="nonzero"></path>
                <path d="M608.9,196.1 L611,192.2 C611,192.2 608.5,192.7 606.8,192.9 C606.8,192.9 604.3,198.8 607.9,199.8 C607.9,199.8 613.7,199.2 615.6,196.8 C615.6,196.8 612.2,194.8 611.8,193.2 C611.8,193.2 610,196 609.6,196.7 L608.9,196.1 Z" id="Path" fill="#C4C3C6" fill-rule="nonzero"></path>
                <path d="M621.8,194.8 C621.8,194.8 620.8,199.6 624.2,200.5 C624.2,200.5 628.6,200.3 630.5,198 C630.5,198 628.3,194.8 627.9,193.2 L621.8,194.8 Z" id="Path" fill="#C4C3C6" fill-rule="nonzero"></path>
                <path d="M613.8,150.8 C613.8,150.8 613.7,157.8 617,158 C620.3,158.2 623.7,154.6 623.7,154.6 C623.7,154.6 622.5,151.5 622.1,149.1 C622.1,149.1 614.8,150.8 613.8,150.8 Z" id="Path" fill="#FFFFFF" fill-rule="nonzero"></path>
                <path d="M682.7,121.4 C684.4,125 681.3,128.5 681.3,128.5 C678.6,128 676.5,122.3 676.5,122.3 L682.7,121.4 Z" id="Path" fill="#C4C3C6" fill-rule="nonzero"></path>
                <path d="M664.2,119.7 L665.5,120.5 C665.7,122.4 664.8,124 664.8,124 C663.7,123.7 663.4,122.1 663.4,122.1 L664.2,119.7 Z" id="Path" fill="#C4C3C6" fill-rule="nonzero"></path>
                <path d="M685.8,120.9 C685.8,120.9 688.1,125.6 690.6,125.9 C690.6,125.9 692.7,121.3 691,119.1 C691,119.1 687.8,120.7 685.8,120.9 Z" id="Path" fill="#C4C3C6" fill-rule="nonzero"></path>
                <path d="M663.6,251 C663.6,251.5 658.3,250.7 655.1,251.9 C651.8,253.1 652.3,249.1 655.5,249.1 C658.7,249.1 663.7,249 663.6,251 Z" id="Path" fill="#FFFFFF" fill-rule="nonzero"></path>
                <path d="M626.3,250.9 C626.4,251.5 620.7,250.3 617.7,252.4 C614.7,254.5 614.9,250.7 618,250.1 C621.1,249.5 626.1,248.4 626.3,250.9 Z" id="Path" fill="#FFFFFF" fill-rule="nonzero"></path>
                <path d="M648.5,150.8 C648.3,150.8 649.8,146.7 649.8,146.1 C649.8,145.5 651.5,146.6 653.1,147.1 C653.5,147.2 651.5,151.2 648.5,150.8 Z" id="Path" fill="#C4C3C6" fill-rule="nonzero"></path>
                <path d="M641.4,187 L633.7,189.5 C633.7,189.5 634.6,194.9 636.2,197 C636.2,197 639.7,196.9 645.1,191.2 C645.1,191.2 641.5,188 641.4,187 Z" id="Path" fill="#C4C3C6" fill-rule="nonzero"></path>
                <path d="M623.1,178.2 L617.1,182.6 C617.1,182.6 617.5,183.9 621.5,182.6 C625.5,181.3 623.6,180.6 623.1,178.2 Z" id="Path" fill="#C4C3C6" fill-rule="nonzero"></path>
                <path d="M646.3,154.6 L644.1,157.9 C644.1,157.9 644.9,158.4 646.5,157.2 C648.1,156 646.9,155.7 646.3,154.6 Z" id="Path" fill="#C4C3C6" fill-rule="nonzero"></path>
                <path d="M635.4,222.7 C635.4,222.7 632,224.3 631.1,217.5 C630.2,210.7 632.1,208.5 634.2,205.4 C636.3,202.2 638.7,202.7 636.6,206.7 C634.6,210.7 633.2,216.3 635.4,222.7 Z" id="Path" fill="#FFFFFF" fill-rule="nonzero"></path>
                <path d="M608.8,225.4 C608.8,225.4 605.5,225.6 606.2,220.6 C606.9,215.6 607.9,213.8 610.4,212.1 C612.9,210.5 613.4,210.8 612.1,213.9 C610.7,217.2 609.4,219.9 608.8,225.4 Z" id="Path" fill="#FFFFFF" fill-rule="nonzero"></path>
                <path d="M605.3,88.5002 C604.1,88.3002 600.3,91.5002 600.3,91.5002 C601,92.9002 604,95.5002 604,95.5002 L605.3,88.5002 Z" id="Path" fill="#C4C3C6" fill-rule="nonzero"></path>
                <path d="M652.1,72.2004 C652.1,72.2004 652.1,69.2004 650.7,66.5004 C650.7,66.5004 652.1,62.7004 653.8,62.4004 C653.8,62.4004 656.3,65.6004 657.1,68.6004 C657.1,68.6004 656.9,70.1004 657,71.5004 C657.1,71.4004 654.4,71.1004 652.1,72.2004 Z" id="Path" fill="#C4C3C6" fill-rule="nonzero"></path>
                <path d="M655,122.6 C655,122.6 657.7,116.5 659.2,113.4 L654.8,107.2 L655,122.6 Z" id="Path" fill="#FFFFFF" fill-rule="nonzero"></path>
                <path d="M668.9,168.9 C669.9,168.5 674.5,163.9 674.5,163.9 C672.6,164.4 670.8,162.1 670.8,162.1 C670,163 667.9,169.4 668.9,168.9 Z" id="Path" fill="#C4C3C6" fill-rule="nonzero"></path>
                <path d="M659.4,176.8 C660,176.6 664,172.8 664,172.8 C662.3,173.2 660.1,172.8 660.1,172.8 C659.6,173.3 658.8,177.1 659.4,176.8 Z" id="Path" fill="#C4C3C6" fill-rule="nonzero"></path>
                <path d="M649.9,186.6 C650.7,186.9 654.8,180.7 654.8,180.7 C651.9,183 648.4,184.2 648.4,184.2 C648.5,185.4 648.8,186.1 649.9,186.6 Z" id="Path" fill="#C4C3C6" fill-rule="nonzero"></path>
                <path d="M655.7,81.4005 C655.7,81.4005 655.6,83.0005 656.4,83.2005 C657.2,83.4005 657.6,81.1005 657.5,80.4005 C657.4,79.4005 656.5,77.6005 654,78.5005 C651.5,79.4005 651.4,79.7005 651.9,80.4005 C652.6,81.1005 654.9,78.6005 655.7,81.4005 Z" id="Path" fill="#FFFFFF" fill-rule="nonzero"></path>
                <path d="M597.2,194.6 L604.4,191.3 C604.4,191.3 551,230.4 543.4,230.4 L597.2,194.6 Z" id="Path" fill="#FFFFFF" fill-rule="nonzero"></path>
                <path d="M558,215.1 C559.9,214.7 561.5,213.4 563,212.3 C564.4,211.2 566.5,210.1 567.4,208.5 C567.5,208.3 567.3,208 567.1,208.1 C565.4,208.5 563.8,210.2 562.4,211.3 C560.9,212.4 559.3,213.5 557.7,214.5 C557.4,214.7 557.6,215.2 558,215.1 Z" id="Path" fill="#FFFFFF" fill-rule="nonzero"></path>
                <path d="M544.7,220.7 C544.7,220.7 568.6,196.4 570.8,195.7 C570.8,195.7 570.1,195.4 569.7,195 C569.7,195 556.5,205.9 544.3,218.2 L544.7,220.7 Z" id="Path" fill="#FFFFFF" fill-rule="nonzero"></path>
                <path d="M683.4,87.5 C683.4,87.5 679.7,87.7 680,90.1 C680.3,92.6 682.6,92.8 683.4,92.6 C683.4,92.6 685.1,92.5 685.3,90.1 C685.6,87.8 683.4,87.5 683.4,87.5 Z" id="Path" fill="#FFFFFF" fill-rule="nonzero"></path>
                <path d="M635,88.4004 C635,88.4004 631.5,88.5004 631.8,90.9004 C632.1,93.2004 634.2,93.5004 635,93.2004 C635,93.2004 636.6,93.1004 636.8,90.9004 C637,88.6004 635,88.4004 635,88.4004 Z" id="Path" fill="#FFFFFF" fill-rule="nonzero"></path>
                <path d="M678.1,92.7998 C678.1,92.7998 676.1,92.8998 676.2,94.1998 C676.3,95.4998 677.6,95.6998 678.1,95.4998 C678.1,95.4998 679,95.3998 679.2,94.1998 C679.3,92.9998 678.1,92.7998 678.1,92.7998 Z" id="Path" fill="#FFFFFF" fill-rule="nonzero"></path>
                <path d="M629.8,93.2998 C629.8,93.2998 627.8,93.3998 627.9,94.6998 C628,95.9998 629.3,96.1998 629.8,95.9998 C629.8,95.9998 630.7,95.8998 630.9,94.6998 C631,93.4998 629.8,93.2998 629.8,93.2998 Z" id="Path" fill="#FFFFFF" fill-rule="nonzero"></path>
                <path d="M689.3,72.2002 C689.3,72.2002 686.5,71.0002 684.9,71.0002 C684.9,71.0002 687.2,67.9002 688.6,67.2002 C688.6,67.2002 689.5,71.1002 689.3,72.2002 Z" id="Path" fill="#C4C3C6" fill-rule="nonzero"></path>
                <path d="M641.8,121.6 C641.8,121.6 642,125.4 643.8,127.3 C643.8,127.3 646,124.4 645.7,123 L644.5,120.3 C644.5,120.3 642.3,121.4 641.8,121.6 Z" id="Path" fill="#C4C3C6" fill-rule="nonzero"></path>
                <path d="M588.3,152.5 C588.2,154.8 591.7,157.7 591.7,157.7 C592.3,160.2 587.2,162.2 585.3,161.5 C583.4,160.8 584.1,156.2 584.1,156.2 L588.3,152.5 Z" id="Path" fill="#FFFFFF" fill-rule="nonzero"></path>
                <path d="M592.3,149.8 C592.3,149.8 593.3,152.8 594.8,152.9 C596.3,153 599,150.3 599,149.8 C599,149.8 597.6,147.3 597.8,145 C597.9,145 593.8,147.1 592.3,149.8 Z" id="Path" fill="#FFFFFF" fill-rule="nonzero"></path>
                <path d="M675.9,137.1 C675.9,137.1 678.3,135.9 678.3,134.2 C678.3,134.2 684.1,138.4 681.1,140.2 C678.7,141.6 676.9,139.6 675.9,137.1 Z" id="Path" fill="#C4C3C6" fill-rule="nonzero"></path>
                <path d="M635.3,180.7 C635.3,180.7 635.6,184.6 636.4,185.5 C636.4,185.5 643.9,183.4 646.5,181.9 C646.5,181.9 644,177.7 644.2,176 C644.1,176 636.4,180.9 635.3,180.7 Z" id="Path" fill="#C4C3C6" fill-rule="nonzero"></path>
                <path d="M618.9,183.2 C618.9,183.2 618.1,188.6 619.7,190.4 C619.7,190.4 628.7,189 631.1,187.5 C631.1,187.5 629.5,184.6 629.2,181.8 C629.2,181.8 621.6,182 618.9,183.2 Z" id="Path" fill="#C4C3C6" fill-rule="nonzero"></path>
                <path d="M647.6,173 C647.6,173 649.1,177.4 650.1,179.2 C650.1,179.2 653,178 656,174.6 C656,174.6 653.7,169.4 653.7,168 C653.7,168.1 648.7,172.7 647.6,173 Z" id="Path" fill="#C4C3C6" fill-rule="nonzero"></path>
                <path d="M613.4,118.2 C613.4,118.2 616.4,120.4 617.4,120.8 C617.4,120.8 615.3,123.8 612.7,124 C612.6,124.1 611.6,120.7 613.4,118.2 Z" id="Path" fill="#C4C3C6" fill-rule="nonzero"></path>
                <path d="M602.8,143.8 C602.8,143.8 602.7,149.5 604.4,150.2 C604.4,150.2 607,150.1 609.2,149 C609.2,149 607.9,145.9 609.2,143.5 C609.2,143.4 603.6,144.5 602.8,143.8 Z" id="Path" fill="#FFFFFF" fill-rule="nonzero"></path>
                <path d="M628.4,155.1 C628.4,155.1 632.7,153.6 633.9,152.8 C633.9,152.8 635.7,157.4 636.4,158 C636.4,158 629.4,160.2 625.6,159.5 C625.5,159.6 628.3,156.6 628.4,155.1 Z" id="Path" fill="#FFFFFF" fill-rule="nonzero"></path>
                <path d="M656.8,164.1 C656.8,164.1 658,169.8 661.1,170 C664.2,170.2 665.6,164.1 665.6,164.1 C665.6,164.1 661.8,161.7 661.7,160.2 C661.6,160.2 658.3,164.2 656.8,164.1 Z" id="Path" fill="#C4C3C6" fill-rule="nonzero"></path>
                <path d="M667.4,150.2 C667.4,150.2 665,153.1 663.4,153.6 C663.4,153.6 664.7,158.6 667.3,159.4 C669.9,160.2 671.5,152.5 671.5,152.5 C671.5,152.5 668.6,151.7 667.4,150.2 Z" id="Path" fill="#C4C3C6" fill-rule="nonzero"></path>
                <path d="M661.5,142.9 C661.5,142.9 663.6,145.9 665.5,146.3 C665.5,146.3 662.8,150.5 660.1,150.2 C660.1,150.2 657.2,148.4 657.2,145.6 C657.2,145.6 660.4,144.2 661.5,142.9 Z" id="Path" fill="#C4C3C6" fill-rule="nonzero"></path>
                <path d="M648,160 C648,160 650.6,163.4 652.6,163.3 C652.6,163.3 649.6,166.9 646.8,166.5 C646.8,166.5 643.2,165.4 644.2,161.7 C644.1,161.7 647.3,160.6 648,160 Z" id="Path" fill="#C4C3C6" fill-rule="nonzero"></path>
                <path d="M640.8,165.6 C640.8,165.6 644.1,169.5 645.2,170 C645.2,170 641.3,174.6 637.6,173.7 C637.6,173.7 635.2,169.5 637,166.3 C637,166.4 640,166 640.8,165.6 Z" id="Path" fill="#C4C3C6" fill-rule="nonzero"></path>
                <path d="M654.9,151.6 C654.9,151.5 658.1,153.9 659.2,154 C659.2,154 657.7,160.3 654.1,159.4 C654.1,159.4 650.8,158.9 650.8,153.9 C650.9,153.9 653.4,153.6 654.9,151.6 Z" id="Path" fill="#C4C3C6" fill-rule="nonzero"></path>
                <path d="M676,142.9 C676,142.9 679,146.8 681.8,146.6 C681.8,146.6 679.9,150.9 676.5,150.3 C676.5,150.3 672.7,150.1 672,146.9 C672,146.8 675.6,144.1 676,142.9 Z" id="Path" fill="#C4C3C6" fill-rule="nonzero"></path>
                <path d="M667.9,134.1 C667.9,134.1 671.1,137.6 673.3,138 C673.3,138 670.8,144.1 668,143.4 C665.2,142.7 664.5,139 664.5,139 C664.5,139 666.9,136.8 667.9,134.1 Z" id="Path" fill="#C4C3C6" fill-rule="nonzero"></path>
                <path d="M655.2,136.7 C655.2,136.7 658.9,137.8 660.2,138.1 C660.2,138.1 656.9,142.6 654.1,142.1 C651.4,141.6 651.3,138.1 651.3,138.1 C651.3,138.1 654.1,137.5 655.2,136.7 Z" id="Path" fill="#C4C3C6" fill-rule="nonzero"></path>
                <path d="M630.7,123.5 C630.7,123.5 636.3,123 637.8,122.2 C637.8,122.2 637.3,128.7 634.3,130.3 C634.3,130.3 630.7,128.3 630.7,123.5 Z" id="Path" fill="#C4C3C6" fill-rule="nonzero"></path>
                <path d="M668.5,120.9 L673.8,122.2 C673.8,122.2 674.9,126.8 672,129.4 C672,129.4 668.6,126.6 668.5,120.9 Z" id="Path" fill="#C4C3C6" fill-rule="nonzero"></path>
                <path d="M621.2,121.8 C621.2,121.8 624.6,123.6 627.2,123.4 C627.2,123.4 627,127 624,128.9 C624,128.9 621.7,126.1 621.2,121.8 Z" id="Path" fill="#C4C3C6" fill-rule="nonzero"></path>
                <path d="M673.9,158.5 C673.9,158.5 676.4,160.2 677.7,160.2 C677.7,160.2 681.1,156 681.3,154.6 C681.3,154.6 676.8,155.6 675.8,154.8 C675.9,154.8 675.4,157.6 673.9,158.5 Z" id="Path" fill="#C4C3C6" fill-rule="nonzero"></path>
                <path d="M693.5,118.2 C693.5,118.2 696.5,116.7 698,115.2 C698,115.2 700.7,118.4 699.7,121.4 C699.7,121.4 696.2,121.7 693.5,118.2 Z" id="Path" fill="#C4C3C6" fill-rule="nonzero"></path>
                <path d="M610.7,115.5 C610.7,115.5 607.9,112.5 607.3,110.8 C607.3,110.8 605.5,113.3 605.3,116.9 C605.3,116.9 609.5,116.5 610.7,115.5 Z" id="Path" fill="#C4C3C6" fill-rule="nonzero"></path>
                <path d="M587.9,220.8 C587.9,220.8 638.4,172 644.5,156.1 C644.5,156.1 592.3,209.1 569.4,218.6 L587.9,220.8 Z" id="Path" fill="#010101" fill-rule="nonzero"></path>
                <path d="M628.7,70.6996 C628.7,70.6996 632.8,70.8996 634.3,71.3996 C634.3,71.3996 632.4,66.2996 630.4,65.0996 C630.4,65.0996 628.4,68.0996 628.7,70.6996 Z" id="Path" fill="#C4C3C6" fill-rule="nonzero"></path>
                <path d="M607.5,83.2 C607.5,83.2 610.8,77.7 612.6,77 C612.6,77 607.1,77.4 606.2,77.5 C606.2,77.5 606.5,82.7 607.5,83.2 Z" id="Path" fill="#C4C3C6" fill-rule="nonzero"></path>
                <path d="M616.9,74.4998 C616.9,74.4998 618.2,72.8998 623.1,71.3998 C623.1,71.3998 619.6,69.1998 617.9,68.2998 C617.9,68.3998 616.8,72.3998 616.9,74.4998 Z" id="Path" fill="#C4C3C6" fill-rule="nonzero"></path>
                <path d="M694.1,74.6002 C694.1,74.6002 698.7,77.4002 699.3,78.8002 C699.3,78.8002 700,73.5002 699.9,72.2002 C699.9,72.2002 696.7,72.5002 694.1,74.6002 Z" id="Path" fill="#C4C3C6" fill-rule="nonzero"></path>
                <path d="M702.7,108.3 C702.7,108.3 700.9,112.1 699.7,112.6 C699.7,112.6 701.5,116.1 705.6,114 C705.6,114.1 706.2,110.4 702.7,108.3 Z" id="Path" fill="#C4C3C6" fill-rule="nonzero"></path>
                <path d="M703.9,105.3 C703.9,105.3 707.3,105.2 709.7,104.5 C709.7,104.5 707.8,100.5 705.8,99.2002 C705.8,99.2002 704.9,103.1 703.9,105.3 Z" id="Path" fill="#C4C3C6" fill-rule="nonzero"></path>
                <path d="M704.6,90.0996 C704.6,90.0996 706.1,94.0996 705.6,96.4996 C705.6,96.4996 709.4,94.9996 710.9,92.8996 C710.9,92.7996 707.8,90.1996 704.6,90.0996 Z" id="Path" fill="#C4C3C6" fill-rule="nonzero"></path>
                <path d="M701.6,82 C701.6,82 703.5,84.7 704.2,86.6 C704.2,86.6 706.8,83.6 707.7,81.9 C707.7,82 704.1,81.4 701.6,82 Z" id="Path" fill="#C4C3C6" fill-rule="nonzero"></path>
                <path d="M662.4,75.7002 C662.4,75.7002 666.5,72.8002 669.3,71.2002 C669.3,71.2002 668,67.3002 664.4,64.7002 C664.5,64.7002 661.1,68.0002 662.4,75.7002 Z" id="Path" fill="#C4C3C6" fill-rule="nonzero"></path>
                <path d="M673.3,70.3 C673.3,70.3 676.2,70.1 679.4,70.3 C679.4,70.3 679.8,66.6 677.3,64 C677.4,64 674.7,66 673.3,70.3 Z" id="Path" fill="#C4C3C6" fill-rule="nonzero"></path>
                <path d="M605.8,106.6 C605.8,106.6 604,101.5 604.2,100.1 C604.2,100.1 601.1,103.2 599.9,105.1 C599.9,105.1 603.3,107 605.8,106.6 Z" id="Path" fill="#C4C3C6" fill-rule="nonzero"></path>
                <path d="M639.5,72.5002 C639.5,72.5002 644.9,73.8002 647.3,74.8002 C647.3,74.8002 645.1,67.7002 642.2,64.7002 C642.2,64.7002 639.1,69.0002 639.5,72.5002 Z" id="Path" fill="#C4C3C6" fill-rule="nonzero"></path>
            </g>
        </g>
    </g>
</svg>