<?xml version="1.0" encoding="utf-8"?>
<!-- Generator: Adobe Illustrator 23.0.2, SVG Export Plug-In . SVG Version: 6.00 Build 0)  -->
<svg version="1.1" xmlns="http://www.w3.org/2000/svg" xmlns:xlink="http://www.w3.org/1999/xlink" x="0px" y="0px"
	 viewBox="0 0 882 300" style="enable-background:new 0 0 882 300;" xml:space="preserve">
<style type="text/css">
	.st0{fill:#C4C3C6;}
	.st1{fill:#FFFFFF;}
	.st2{fill-rule:evenodd;clip-rule:evenodd;}
	.st3{fill-rule:evenodd;clip-rule:evenodd;fill:#C4C3C6;}
	.st4{fill-rule:evenodd;clip-rule:evenodd;fill:#FFFFFF;}
	.st5{fill:#010101;}
	.st6{fill:none;}
	.st7{fill-rule:evenodd;clip-rule:evenodd;fill:#B1B2B7;}
	.st8{fill-rule:evenodd;clip-rule:evenodd;fill:#FDFDFD;}
	.st9{fill-rule:evenodd;clip-rule:evenodd;fill:#F9F9F9;}
</style>
<g id="Layer_4">
	<path d="M876,209H6c-3.3,0-6-2.7-6-6V6c0-3.3,2.7-6,6-6h870c3.3,0,6,2.7,6,6v197C882,206.3,879.3,209,876,209z"/>
	<g>
		<path class="st1" d="M61.2,100.6l9.1-33.2h8.1l9.1,33.2h-3.6l-2.4-8.5H67.2l-2.4,8.5H61.2z M73.1,70.6l-5,18.2h12.6l-5-18.2H73.1z
			"/>
		<path class="st1" d="M103.8,79.7h-7.6v11.5c0,2.8,0.2,4.6,0.6,5.4c0.4,0.9,1.4,1.3,2.9,1.3l4.3-0.3l0.2,3
			c-2.1,0.4-3.8,0.5-4.9,0.5c-2.5,0-4.2-0.6-5.2-1.8c-1-1.2-1.4-3.5-1.4-7V79.7h-3.4v-3.1h3.4v-7.3h3.6v7.3h7.6V79.7z"/>
		<path class="st1" d="M111.8,100.6h-3.6V66.1h3.6V78c2.6-1.2,5-1.8,7.4-1.8c3.2,0,5.4,0.9,6.5,2.6c1.1,1.7,1.7,4.8,1.7,9.2v12.7
			h-3.6V88c0-3.3-0.3-5.6-1-6.8c-0.7-1.2-2-1.8-4.2-1.8c-2,0-4,0.4-5.9,1.1l-0.9,0.3V100.6z"/>
		<path class="st1" d="M150.3,97.6l1.4-0.1l0.1,2.8c-3.6,0.5-6.8,0.8-9.4,0.8c-3.5,0-5.9-1-7.3-3c-1.4-2-2.2-5.1-2.2-9.3
			c0-8.4,3.3-12.6,10-12.6c3.2,0,5.6,0.9,7.2,2.7c1.6,1.8,2.4,4.6,2.4,8.5l-0.2,2.7h-15.8c0,2.7,0.5,4.6,1.4,5.9
			c1,1.3,2.6,1.9,5,1.9C145.4,97.9,147.8,97.8,150.3,97.6z M149,87.2c0-2.9-0.5-5-1.4-6.2c-0.9-1.2-2.5-1.8-4.6-1.8
			c-2.1,0-3.7,0.6-4.8,1.9c-1.1,1.3-1.6,3.3-1.7,6.1H149z"/>
		<path class="st1" d="M161.8,100.6h-3.6v-24h3.6v1.7c2.6-1.4,5.1-2.2,7.4-2.2c3.2,0,5.4,0.9,6.5,2.6c1.1,1.7,1.7,4.8,1.7,9.2v12.7
			h-3.6V88c0-3.3-0.3-5.6-1-6.8c-0.7-1.2-2.1-1.8-4.2-1.8c-1,0-2.1,0.2-3.2,0.5c-1.1,0.3-2,0.6-2.6,0.9l-0.9,0.4V100.6z"/>
		<path class="st1" d="M191.5,79.3c-3.5,0-5.2,1.2-5.2,3.6c0,1.1,0.4,1.9,1.2,2.4c0.8,0.5,2.6,0.9,5.5,1.4c2.8,0.5,4.9,1.2,6,2.1
			c1.2,0.9,1.8,2.6,1.8,5c0,2.5-0.8,4.3-2.4,5.4s-3.9,1.7-6.9,1.7c-2,0-4.3-0.2-7-0.7l-1.4-0.2l0.2-3.1c3.6,0.5,6.4,0.8,8.3,0.8
			s3.3-0.3,4.2-0.9c1-0.6,1.5-1.6,1.5-3c0-1.4-0.4-2.3-1.2-2.8c-0.8-0.5-2.7-1-5.5-1.4c-2.8-0.4-4.8-1.1-6-2
			c-1.2-0.9-1.8-2.5-1.8-4.8c0-2.3,0.8-4.1,2.5-5.2c1.6-1.1,3.7-1.7,6.2-1.7c2,0,4.4,0.2,7.3,0.7L200,77l-0.1,3.1
			C196.4,79.6,193.6,79.3,191.5,79.3z"/>
	</g>
</g>
<g id="Layer_2">
</g>
<g id="Layer_3">
</g>
<g id="Layer_1">
	<g>
		<g>
			<path class="st5" d="M672.4,244.1c0,0-4.9-0.2-7.3,1.7c0,0-5.7-3.6-16.7-1l-4.2-16.7c0,0-4-17.9,1.5-26
				c3.7-5.5,11.4-12.7,20.4-23.1c4-4.7,9.2-8.3,13.6-12.1c5.8-5,6.8-13.8,6.6-21.1c-0.3-10.2-6.6-19.7-6.6-19.7s-59.7-6.9-68.8-1.4
				c0,0-33.5,22.7-65.1,63c0,0,0.3,0,2.1,1c0,0-8.8,11.7-8.7,20.3c0,0-0.5,2.3,0.4,4.8c0,0,0.9,4.9,0.8,5.9c-0.1,1,0.2,5.4,0.2,5.4
				s-1.2,5.4-1.4,6.3c-0.3,0.9,0,6.6,0,6.6s26.6-12.5,30.4-14.7c0,0,15.8,1.3,21.6,0.3c0,0,5.3,6.7,5.8,8l2.5,13.8
				c0,0-5.2,0.9-7,2.8c-0.8,0-9.4-1.2-12.3,2.1c0,0-1.5,6.1-0.8,7.1s4,0.7,5-0.3c0,0,5.3,5.8,10.7,5.2c5.4-0.6,12.8-4.1,18.6-2.8
				c5.8,1.3,14.6,3.9,19.9,2.4c5.4-1.5,11.1-4.8,11.1-4.8l1.6,1.3c0,0,0.6-0.6,0.4-1c0,0,16.5,1.6,21,3.9c6.3,3.2,13.4-4.8,13.4-4.8
				s0.6,0.2,2,0.4C682.8,256.8,685.7,243.7,672.4,244.1z M630,244.3c-2.8,0.1-3.6,1-3.6,1l-7.6-0.9c-0.6-1.2-3.6-15-3.6-15
				c-0.1-2,2-7.4,2-7.4c2.6-0.2,3.5-0.7,3.5-0.7c1.4,1.7,8.4,10,8.4,10C630.2,234.6,630,244.3,630,244.3z"/>
			<path class="st0" d="M634.5,244.8c0,0,5.6,0.5,8.3,3.1l0.8-0.3l-3.5-16.4c0,0-4.1,1.1-6.1,2.8L634.5,244.8z"/>
			<path class="st0" d="M646.5,250.5c0,0,7.2-4.4,17.6-1.4l0.8,3c0,0,14.4-0.5,13.3,2.4c-1.2,2.9-7,3.9-9.9,3.1s-10.9-4.6-20-3.4
				C648.2,254.1,647.3,251.8,646.5,250.5z"/>
			<path class="st0" d="M604.2,234.6l-0.5,14.9c0,0-4.7-0.3-8.9,1.4c0,0,0.8,2.6-0.5,2.9c-1.3,0.3-6.4,1.1-6.4,1.1l0.4,0.5
				c0,0,6.1,3.3,9.4,1.7c2.7-1.3,6.3-3,14-2.9s11.8,4.2,16.7,3.9c4.9-0.4,11.1-1.9,12.4-3.5c0,0-1.4-2.2-7-2.5
				c-5.5-0.3-6.6-0.3-7.4-3.6c0,0-7-0.2-10.9,1c0,0-4-18-4.4-18S605.5,232.5,604.2,234.6z"/>
			<path class="st0" d="M573.3,218c2.2-0.8,26.7-19.3,26.7-19.3c-1.4,2.1-16.8,14-16.8,14s0.8,0.2,3-0.7c2.3-1,16.6-9.8,16.9-10.2
				l-5.4,5.9l7.2-4.8c1.8,0.6,5.1,0.5,5.1,0.5c-1.3,1.1-4.2,4.9-4.2,4.9c3-2.3,6.9-5.2,6.9-5.2l2.9,0c-0.6,1.5-2.9,4.4-2.9,4.4
				l5.8-1.9l-1.6,2.2c2.6-1.9,8.1-3.8,8.1-3.8c-1.1,0.7-7.3,6.8-7.3,6.8c1.5-1.6,15.1-9.7,15.1-9.7l1.3-0.2
				c-0.8,0.9-3.9,5.3-3.9,5.3l5.3-5.2c0,0,1.8-0.9,4.3-1.2c0,0-2.1,7-3,12c-0.9,5.2,1.6,13.5,1.6,13.5c-2.9,1.7-5.5,2.2-5.5,2.2
				c-2.2-3.4-9.1-10.2-9.1-10.2l2.7-6c-4.8,4.8-11.1,6.4-11.1,6.4c-0.6,0-1.2-5-1.2-5c-2,2-4.8,14.1-4.8,14.1
				c-0.4,1-3.5,1.6-4.8,1.5c-1.3-0.1-2.5-2.1-2.5-2.1l2.9-1.2l-4.2-0.9c-1.3-0.5-5.1-5.7-5.1-5.7c0.2-0.6,10.5-6.8,10.5-6.8
				l-11.6,5.4L573.3,218z"/>
			<path class="st1" d="M667.6,248.5l0.8,1.3c0,0,6.1-1.2,11.9,2.2c0,0-1.4-4.2-6.7-4.5C667.3,247.2,667.6,248.5,667.6,248.5z"/>
			<path class="st1" d="M618.9,163.5c-10.9,9.7-41.2,27.8-41.2,27.8s8.8,4.5,24.1-3.2s29.7-22.3,31.2-24.4l-7.7,4.8l5.1-5.1
				c0,0-2.1,0.3-3.4,0.3l-13.3,8c3.6-1.9,10.9-8,10.9-8L618.9,163.5z"/>
			<path class="st5" d="M600,182.2c0,0,15.3-8.2,18-10.2c0,0-8,7.9-14.9,10.7s-11.5,3.2-11.5,3.2L600,182.2z"/>
			<path class="st0" d="M543.1,230.5c0,0,1.7-4.2,2.6-6.8c0.2-0.7,18.7-20.3,27.8-25h1.3c-9.4,8.1-8.2,7.3-10.6,9.6
				c0,0,16.2-11.6,18.3-12.4c0,0-4.8,5.3-6,6.4c0,0,11.8-5.4,13.4-6.3c0,0-1.5,2.2-2.7,3.2c0,0,16.2-7.7,17.6-8.2
				C604.8,191,551.4,230,543.1,230.5z"/>
			<path class="st5" d="M558.8,214.6c0,0,5.6-3.5,7.1-5c1.4-1.4,3.3-1,0,1.9c-3.3,2.9-4.2,3.8-7.1,4
				C555.9,215.7,558.8,214.6,558.8,214.6z"/>
			<path class="st1" d="M630.4,248.1c0,0-0.1,1.3,0.8,1.4c1.4,0.3,6.1-0.6,12.1,3c0,0,0.6-0.9-2-3.1
				C638.6,247.3,632.3,247.3,630.4,248.1z"/>
			<path class="st1" d="M582,255.1c0,0,0.5-3,1.4-3.5c0.9-0.5,6.8-0.8,7.8-0.6c0,0,0.8,0.9,0.5,1.2c-0.3,0.3-5.9,0.8-6.8,1.7
				C584,254.8,582.8,255.3,582,255.1z"/>
			<path class="st5" d="M603.7,249.5c0,0,3.1,0.1,4.9,0.7c0,0-3.8-3-5.7-2.8L603.7,249.5z"/>
			<path class="st0" d="M571.1,195.5c0,0-1.8-0.5-1.7-2l-4.9,3.1l5.6-5l-1-0.5c-0.9,0.5-9.6,7.2-9.6,7.2l7.4-7.3c-0.4,0.1-2,0-2,0
				c-1.8,1.2-17.1,15.6-19.5,19.8s-0.7,10-0.7,10S558.5,205.6,571.1,195.5z"/>
			<path class="st0" d="M562.6,190.3c0,0-13,10.2-17.9,18.6c0,0-1.4-1.3-0.5-4.6s9.5-12.4,11.2-13.5l-2.1,4.3l5.1-4.6
				C558.3,190.3,561.2,190.7,562.6,190.3z"/>
			<path class="st5" d="M603.4,84.6c0,0-4.6-7.4-4.9-9.8c0,0,5.7-2.6,13.1-2.3c0,0-0.9-8.2,1.1-10.4c0,0,9.2,3.4,12,5.4
				c0,0-0.5-9.3,3-10.8c0,0,8,4.4,8.5,7.7c0,0,1.4-7.4,5.1-8.6c0,0,3.3,3.7,5.4,6.8c0,0,3.5-9,6.5-10.1c0,0,5.7,5.9,6.2,8.6
				c0,0,0.3-3.1,6.1-5.3c0,0,6,5.9,5.7,9.3c0,0,3-6.6,6.9-7.4c0,0,5.1,1.5,5.2,8c0,0,4.4-3.6,7.5-4.8c0,0,4.9,5.3,4.1,8.4
				c0,0,4.9-2.2,8.1-1.5c0,0,2.6,4,0.3,10.3c0,0,8.5-0.8,10.2,1.1c0,0-2.4,8-3.7,8.5c0,0,6.7,2.6,7.9,4.5c0,0-5.5,6.1-6.8,6.8
				l5.6,7.3c0,0-3.3,4.6-6.1,4.6c0,0,1.6,6.2,1.5,10.3c0,0-6.4,0.5-8.6-1.2c0,0,0.9,4.9,0.5,7.8c0,0-6.9-0.6-8-2.5
				c0,0-1.9,7.4-3.8,8.9c0,0-5.4-3.5-5.8-5.4c0,0-0.9,4.5-3.2,5.7c0,0-6.5-4.9-6.2-6.5c0,0-1.4,5.8-4.1,6.1c0,0-4.1-3.9-4.1-6
				c0,0-1.3,3.8-3.3,3.9c0,0-3.5-3.1-4.3-5c0,0-3.9,6.5-5.7,7.1c0,0-6.6-7.2-7.4-9.1c0,0-1.3,4.6-3,5.8c0,0-1.9-1.2-2.8-3.1
				c0,0-2.5,5.4-4.1,5.7c0,0-3.1-1-4.1-2.6c0,0-1.4,1.9-4.9,3.3c0,0-2.2-1.9-3.6-4.4c0,0-3.8,3.6-6.5,3.6c0,0-2.8-4.4-2.4-6.6
				c0,0-6.1,3.6-10,3.5c0,0-1.8-4.9-1.1-6.9c0,0-4.8-0.3-6.2-1.1c0,0-1.9-6.1,1.1-9.6c0,0-8.1-5.2-9.1-7.4c0,0,4.2-4,9.6-7.1l-9-7.8
				C591.8,89.9,596.8,85.7,603.4,84.6z"/>
			<g>
				<path class="st0" d="M646.8,117.4c0,0,6.5,13.5,8.3,14.8c0,0,5.5-11.6,6.5-15.7c0,0-4.6-6.3-6.6-9.2
					C654.9,107.2,649.8,115,646.8,117.4z"/>
			</g>
			<g>
				<path class="st1" d="M678.7,116.5c0,0,16.5-1.3,20.5-16.9s-13.4-24.2-20.5-24.1s-21.8,7.6-20.9,21.2S669.8,116,678.7,116.5z"/>
				<path class="st0" d="M678.7,114.1c0,0,14.5-1.2,18.1-14.9c3.5-13.8-11.8-21.3-18.1-21.3c-6.3,0-19.3,6.7-18.5,18.7
					C661,108.6,670.8,113.7,678.7,114.1z"/>
				<path class="st1" d="M678.7,111.6c0,0,12.6-1,15.7-12.9s-10.2-18.5-15.7-18.4c-5.4,0-16.7,5.8-16,16.2
					C663.4,106.9,671.9,111.3,678.7,111.6z"/>
				<path class="st5" d="M677.2,108.5c0,0,7.2-0.8,8.8-2.6c0,0,8.2-7,5.5-12.6c0,0-4.2-8-8.2-8.9c-3.9-0.9-12.4-0.5-14.4,5.8
					C666.9,96.4,665,104.3,677.2,108.5z"/>
				<path class="st1" d="M688.3,103.6c0,0-6.5,2.8-11.3,0.6c-4.8-2.2-6-6.6-6.3-7.2c0,0-1.1,5.8,4.1,8c5.2,2.2,11.1,2.1,12.7,0
					C688.9,103.2,688.3,103.6,688.3,103.6z"/>
			</g>
			<g>
				<path class="st1" d="M630.4,117.2c0,0,16.6-1.3,20.7-17.1s-13.5-24.4-20.7-24.3s-22,7.7-21.1,21.4
					C610.1,110.9,621.4,116.7,630.4,117.2z"/>
				<path class="st0" d="M630.4,114.7c0,0,14.7-1.2,18.3-15.1c3.6-13.9-11.9-21.5-18.3-21.5c-6.3,0-19.4,6.8-18.7,18.9
					S622.4,114.3,630.4,114.7z"/>
				<path class="st1" d="M630.4,112.4c0,0,12.8-1,15.9-13.2c3.1-12.1-10.4-18.8-15.9-18.7c-5.5,0-17,5.9-16.3,16.5
					S623.5,112.1,630.4,112.4z"/>
				<path class="st5" d="M628.9,109.1c0,0,7.3-0.8,8.9-2.6c0,0,8.2-7,5.5-12.7c0,0-4.3-8.1-8.2-9s-12.5-0.5-14.6,5.9
					C618.4,96.9,616.5,104.9,628.9,109.1z"/>
				<path class="st1" d="M640.1,104.1c0,0-6.6,2.9-11.4,0.6c-4.9-2.3-6.1-6.7-6.4-7.3c0,0-1.1,5.9,4.2,8.1c5.2,2.2,11.2,2.1,12.8,0
					C640.7,103.8,640.1,104.1,640.1,104.1z"/>
			</g>
			<path class="st0" d="M655.7,77.2c0,0-5.6,0.2-5.2,4c0.4,3.8,3.9,4.2,5.2,3.8c0,0,2.6-0.2,3-3.8C659.1,77.6,655.7,77.2,655.7,77.2
				z"/>
			<path class="st1" d="M615.7,160.4c0,0-39.6,24.9-41,25.1c-4,0.7-9.3-0.3-9.3-0.3c3.3-1.7,24.4-20.7,24.4-20.7l2.2-0.3
				c-0.4,0.8-8.9,8.9-8.9,8.9c1.4-1.2,11.4-8.9,11.4-8.9l2.1-0.6c-0.8,1-6.4,5.8-6.4,5.8l7.1-5.1l1.5-1.1c0.8-0.3,2.6-0.3,2.6-0.3
				l-5,4.3l6.4-4.2L615.7,160.4z"/>
			<path class="st1" d="M617.4,130.8c0.6,0.8-0.4,1.8-0.4,1.8c1.3-1.1,2.4-1.8,2.4-1.8c0.1,1.1,1.6,6.7,2.7,6.3s4-3.8,4-3.8
				l-0.1,3.6l1.5-4.2l0.9-0.5c0,0,1.7,5.8,2.8,5.8c1.2,0,4.3-3.5,4.3-3.5l0.3,3.8c0.3-1.1,1.7-4.8,1.7-4.8c0.3,1.3,3.6,3,3.6,3
				s0.5,5,0.9,3.8c0.3-0.9,2.1-4.2,2.1-4.2c3.8,6.5-3.1,16.5-3.1,16.5c-4.4,0-3.3-8.4-3.3-8.4c-0.1,0.7-6.1,4.9-8.9,5.3
				c-1.9,0.3-1.1-7.8-1.1-7.8c-0.7,1.5-9.6,4.6-12.4,4.3c-2.8-0.3,1.5-7.2,1.5-7.2s-18.6,4.4-12.5-2
				C607.8,132.5,616.7,129.9,617.4,130.8z"/>
			<path class="st1" d="M578.5,162.6c0.3-0.2-6.8,8.3-6.8,8.3l8.2-8.2l0.8,1.5c0.9,0.9,2.2,1.4,2.2,1.4
				c-1.8,2.3-26.7,20.4-26.7,20.4c0.8,0.6,3,1.8,3,1.8c-0.6,0.5-0.6,0.5-0.6,0.5c-2.8-0.3-4.9-1.9-4.9-1.9S564.9,172.1,578.5,162.6z
				"/>
			<path class="st1" d="M609.4,153.4c0,0-2.5,2.9-4.7,4.2c0,0,2.9-4.8,2.2-4.3c0,0-1.9,0.6-3.6,0.7c0,0-3.8,4.1-7.8,4.9
				c0,0,0.3-0.3-1.2,1.7c0,0,10.2,0.3,14.8-2.9C609.2,157.7,609,155,609.4,153.4z"/>
			<path class="st0" d="M630.1,175.1l2.1-2.8c0,0-2,0.1-3.3,0c0,0-2.6,4.3,0,5.5c0,0,3.7,0.4,5.5-1.2c0,0-1.5-2.1-1.6-3.5
				c0,0-1.7,1.9-2.1,2.4L630.1,175.1z"/>
			<path class="st0" d="M608.9,196.1l2.1-3.9c0,0-2.5,0.5-4.2,0.7c0,0-2.5,5.9,1.1,6.9c0,0,5.8-0.6,7.7-3c0,0-3.4-2-3.8-3.6
				c0,0-1.8,2.8-2.2,3.5L608.9,196.1z"/>
			<path class="st0" d="M621.8,194.8c0,0-1,4.8,2.4,5.7c0,0,4.4-0.2,6.3-2.5c0,0-2.2-3.2-2.6-4.8L621.8,194.8z"/>
			<path class="st1" d="M613.8,150.8c0,0-0.1,7,3.2,7.2c3.3,0.2,6.7-3.4,6.7-3.4s-1.2-3.1-1.6-5.5
				C622.1,149.1,614.8,150.8,613.8,150.8z"/>
			<path class="st0" d="M682.7,121.4c1.7,3.6-1.4,7.1-1.4,7.1c-2.7-0.5-4.8-6.2-4.8-6.2L682.7,121.4z"/>
			<path class="st0" d="M664.2,119.7l1.3,0.8c0.2,1.9-0.7,3.5-0.7,3.5c-1.1-0.3-1.4-1.9-1.4-1.9L664.2,119.7z"/>
			<path class="st0" d="M685.8,120.9c0,0,2.3,4.7,4.8,5c0,0,2.1-4.6,0.4-6.8C691,119.1,687.8,120.7,685.8,120.9z"/>
			<path class="st1" d="M663.6,251c0,0.5-5.3-0.3-8.5,0.9c-3.3,1.2-2.8-2.8,0.4-2.8S663.7,249,663.6,251z"/>
			<path class="st1" d="M626.3,250.9c0.1,0.6-5.6-0.6-8.6,1.5s-2.8-1.7,0.3-2.3S626.1,248.4,626.3,250.9z"/>
			<path class="st0" d="M648.5,150.8c-0.2,0,1.3-4.1,1.3-4.7c0-0.6,1.7,0.5,3.3,1C653.5,147.2,651.5,151.2,648.5,150.8z"/>
			<path class="st0" d="M641.4,187l-7.7,2.5c0,0,0.9,5.4,2.5,7.5c0,0,3.5-0.1,8.9-5.8C645.1,191.2,641.5,188,641.4,187"/>
			<path class="st0" d="M623.1,178.2l-6,4.4c0,0,0.4,1.3,4.4,0S623.6,180.6,623.1,178.2z"/>
			<path class="st0" d="M646.3,154.6l-2.2,3.3c0,0,0.8,0.5,2.4-0.7S646.9,155.7,646.3,154.6z"/>
			<path class="st1" d="M635.4,222.7c0,0-3.4,1.6-4.3-5.2c-0.9-6.8,1-9,3.1-12.1c2.1-3.2,4.5-2.7,2.4,1.3
				C634.6,210.7,633.2,216.3,635.4,222.7z"/>
			<path class="st1" d="M608.8,225.4c0,0-3.3,0.2-2.6-4.8s1.7-6.8,4.2-8.5c2.5-1.6,3-1.3,1.7,1.8
				C610.7,217.2,609.4,219.9,608.8,225.4z"/>
			<path class="st0" d="M605.3,88.5c-1.2-0.2-5,3-5,3c0.7,1.4,3.7,4,3.7,4L605.3,88.5z"/>
			<path class="st0" d="M652.1,72.2c0,0,0-3-1.4-5.7c0,0,1.4-3.8,3.1-4.1c0,0,2.5,3.2,3.3,6.2c0,0-0.2,1.5-0.1,2.9
				C657.1,71.4,654.4,71.1,652.1,72.2z"/>
			<path class="st1" d="M655,122.6c0,0,2.7-6.1,4.2-9.2l-4.4-6.2L655,122.6z"/>
			<path class="st0" d="M668.9,168.9c1-0.4,5.6-5,5.6-5c-1.9,0.5-3.7-1.8-3.7-1.8C670,163,667.9,169.4,668.9,168.9z"/>
			<path class="st0" d="M659.4,176.8c0.6-0.2,4.6-4,4.6-4c-1.7,0.4-3.9,0-3.9,0C659.6,173.3,658.8,177.1,659.4,176.8z"/>
			<path class="st0" d="M649.9,186.6c0.8,0.3,4.9-5.9,4.9-5.9c-2.9,2.3-6.4,3.5-6.4,3.5C648.5,185.4,648.8,186.1,649.9,186.6z"/>
			<path class="st1" d="M655.7,81.4c0,0-0.1,1.6,0.7,1.8c0.8,0.2,1.2-2.1,1.1-2.8c-0.1-1-1-2.8-3.5-1.9s-2.6,1.2-2.1,1.9
				C652.6,81.1,654.9,78.6,655.7,81.4z"/>
			<path class="st1" d="M597.2,194.6l7.2-3.3c0,0-53.4,39.1-61,39.1L597.2,194.6z"/>
			<g>
				<g>
					<path class="st1" d="M558,215.1c1.9-0.4,3.5-1.7,5-2.8c1.4-1.1,3.5-2.2,4.4-3.8c0.1-0.2-0.1-0.5-0.3-0.4
						c-1.7,0.4-3.3,2.1-4.7,3.2c-1.5,1.1-3.1,2.2-4.7,3.2C557.4,214.7,557.6,215.2,558,215.1L558,215.1z"/>
				</g>
			</g>
			<path class="st1" d="M544.7,220.7c0,0,23.9-24.3,26.1-25c0,0-0.7-0.3-1.1-0.7c0,0-13.2,10.9-25.4,23.2L544.7,220.7z"/>
			<path class="st1" d="M683.4,87.5c0,0-3.7,0.2-3.4,2.6c0.3,2.5,2.6,2.7,3.4,2.5c0,0,1.7-0.1,1.9-2.5
				C685.6,87.8,683.4,87.5,683.4,87.5z"/>
			<path class="st1" d="M635,88.4c0,0-3.5,0.1-3.2,2.5c0.3,2.3,2.4,2.6,3.2,2.3c0,0,1.6-0.1,1.8-2.3C637,88.6,635,88.4,635,88.4z"/>
			<path class="st1" d="M678.1,92.8c0,0-2,0.1-1.9,1.4s1.4,1.5,1.9,1.3c0,0,0.9-0.1,1.1-1.3C679.3,93,678.1,92.8,678.1,92.8z"/>
			<path class="st1" d="M629.8,93.3c0,0-2,0.1-1.9,1.4s1.4,1.5,1.9,1.3c0,0,0.9-0.1,1.1-1.3C631,93.5,629.8,93.3,629.8,93.3z"/>
			<path class="st0" d="M689.3,72.2c0,0-2.8-1.2-4.4-1.2c0,0,2.3-3.1,3.7-3.8C688.6,67.2,689.5,71.1,689.3,72.2z"/>
			<path class="st0" d="M641.8,121.6c0,0,0.2,3.8,2,5.7c0,0,2.2-2.9,1.9-4.3l-1.2-2.7C644.5,120.3,642.3,121.4,641.8,121.6z"/>
			<path class="st1" d="M588.3,152.5c-0.1,2.3,3.4,5.2,3.4,5.2c0.6,2.5-4.5,4.5-6.4,3.8c-1.9-0.7-1.2-5.3-1.2-5.3L588.3,152.5z"/>
			<path class="st1" d="M592.3,149.8c0,0,1,3,2.5,3.1c1.5,0.1,4.2-2.6,4.2-3.1c0,0-1.4-2.5-1.2-4.8
				C597.9,145,593.8,147.1,592.3,149.8z"/>
			<path class="st0" d="M675.9,137.1c0,0,2.4-1.2,2.4-2.9c0,0,5.8,4.2,2.8,6C678.7,141.6,676.9,139.6,675.9,137.1z"/>
			<path class="st0" d="M635.3,180.7c0,0,0.3,3.9,1.1,4.8c0,0,7.5-2.1,10.1-3.6c0,0-2.5-4.2-2.3-5.9
				C644.1,176,636.4,180.9,635.3,180.7z"/>
			<path class="st0" d="M618.9,183.2c0,0-0.8,5.4,0.8,7.2c0,0,9-1.4,11.4-2.9c0,0-1.6-2.9-1.9-5.7
				C629.2,181.8,621.6,182,618.9,183.2z"/>
			<path class="st0" d="M647.6,173c0,0,1.5,4.4,2.5,6.2c0,0,2.9-1.2,5.9-4.6c0,0-2.3-5.2-2.3-6.6C653.7,168.1,648.7,172.7,647.6,173
				z"/>
			<path class="st0" d="M613.4,118.2c0,0,3,2.2,4,2.6c0,0-2.1,3-4.7,3.2C612.6,124.1,611.6,120.7,613.4,118.2z"/>
			<path class="st1" d="M602.8,143.8c0,0-0.1,5.7,1.6,6.4c0,0,2.6-0.1,4.8-1.2c0,0-1.3-3.1,0-5.5
				C609.2,143.4,603.6,144.5,602.8,143.8z"/>
			<path class="st1" d="M628.4,155.1c0,0,4.3-1.5,5.5-2.3c0,0,1.8,4.6,2.5,5.2c0,0-7,2.2-10.8,1.5
				C625.5,159.6,628.3,156.6,628.4,155.1z"/>
			<path class="st0" d="M656.8,164.1c0,0,1.2,5.7,4.3,5.9c3.1,0.2,4.5-5.9,4.5-5.9s-3.8-2.4-3.9-3.9
				C661.6,160.2,658.3,164.2,656.8,164.1"/>
			<path class="st0" d="M667.4,150.2c0,0-2.4,2.9-4,3.4c0,0,1.3,5,3.9,5.8c2.6,0.8,4.2-6.9,4.2-6.9S668.6,151.7,667.4,150.2z"/>
			<path class="st0" d="M661.5,142.9c0,0,2.1,3,4,3.4c0,0-2.7,4.2-5.4,3.9c0,0-2.9-1.8-2.9-4.6C657.2,145.6,660.4,144.2,661.5,142.9
				z"/>
			<path class="st0" d="M648,160c0,0,2.6,3.4,4.6,3.3c0,0-3,3.6-5.8,3.2c0,0-3.6-1.1-2.6-4.8C644.1,161.7,647.3,160.6,648,160z"/>
			<path class="st0" d="M640.8,165.6c0,0,3.3,3.9,4.4,4.4c0,0-3.9,4.6-7.6,3.7c0,0-2.4-4.2-0.6-7.4C637,166.4,640,166,640.8,165.6z"
				/>
			<path class="st0" d="M654.9,151.6c0-0.1,3.2,2.3,4.3,2.4c0,0-1.5,6.3-5.1,5.4c0,0-3.3-0.5-3.3-5.5
				C650.9,153.9,653.4,153.6,654.9,151.6z"/>
			<path class="st0" d="M676,142.9c0,0,3,3.9,5.8,3.7c0,0-1.9,4.3-5.3,3.7c0,0-3.8-0.2-4.5-3.4C672,146.8,675.6,144.1,676,142.9z"/>
			<path class="st0" d="M667.9,134.1c0,0,3.2,3.5,5.4,3.9c0,0-2.5,6.1-5.3,5.4s-3.5-4.4-3.5-4.4S666.9,136.8,667.9,134.1z"/>
			<path class="st0" d="M655.2,136.7c0,0,3.7,1.1,5,1.4c0,0-3.3,4.5-6.1,4c-2.7-0.5-2.8-4-2.8-4S654.1,137.5,655.2,136.7z"/>
			<path class="st0" d="M630.7,123.5c0,0,5.6-0.5,7.1-1.3c0,0-0.5,6.5-3.5,8.1C634.3,130.3,630.7,128.3,630.7,123.5z"/>
			<path class="st0" d="M668.5,120.9l5.3,1.3c0,0,1.1,4.6-1.8,7.2C672,129.4,668.6,126.6,668.5,120.9z"/>
			<path class="st0" d="M621.2,121.8c0,0,3.4,1.8,6,1.6c0,0-0.2,3.6-3.2,5.5C624,128.9,621.7,126.1,621.2,121.8z"/>
			<path class="st0" d="M673.9,158.5c0,0,2.5,1.7,3.8,1.7c0,0,3.4-4.2,3.6-5.6c0,0-4.5,1-5.5,0.2
				C675.9,154.8,675.4,157.6,673.9,158.5z"/>
			<path class="st0" d="M693.5,118.2c0,0,3-1.5,4.5-3c0,0,2.7,3.2,1.7,6.2C699.7,121.4,696.2,121.7,693.5,118.2z"/>
			<path class="st0" d="M610.7,115.5c0,0-2.8-3-3.4-4.7c0,0-1.8,2.5-2,6.1C605.3,116.9,609.5,116.5,610.7,115.5z"/>
			<path class="st5" d="M587.9,220.8c0,0,50.5-48.8,56.6-64.7c0,0-52.2,53-75.1,62.5L587.9,220.8z"/>
		</g>
		<path class="st0" d="M628.7,70.7c0,0,4.1,0.2,5.6,0.7c0,0-1.9-5.1-3.9-6.3C630.4,65.1,628.4,68.1,628.7,70.7z"/>
		<path class="st0" d="M607.5,83.2c0,0,3.3-5.5,5.1-6.2c0,0-5.5,0.4-6.4,0.5C606.2,77.5,606.5,82.7,607.5,83.2z"/>
		<path class="st0" d="M616.9,74.5c0,0,1.3-1.6,6.2-3.1c0,0-3.5-2.2-5.2-3.1C617.9,68.4,616.8,72.4,616.9,74.5z"/>
		<path class="st0" d="M694.1,74.6c0,0,4.6,2.8,5.2,4.2c0,0,0.7-5.3,0.6-6.6C699.9,72.2,696.7,72.5,694.1,74.6z"/>
		<path class="st0" d="M702.7,108.3c0,0-1.8,3.8-3,4.3c0,0,1.8,3.5,5.9,1.4C705.6,114.1,706.2,110.4,702.7,108.3z"/>
		<path class="st0" d="M703.9,105.3c0,0,3.4-0.1,5.8-0.8c0,0-1.9-4-3.9-5.3C705.8,99.2,704.9,103.1,703.9,105.3z"/>
		<path class="st0" d="M704.6,90.1c0,0,1.5,4,1,6.4c0,0,3.8-1.5,5.3-3.6C710.9,92.8,707.8,90.2,704.6,90.1z"/>
		<path class="st0" d="M701.6,82c0,0,1.9,2.7,2.6,4.6c0,0,2.6-3,3.5-4.7C707.7,82,704.1,81.4,701.6,82z"/>
		<path class="st0" d="M662.4,75.7c0,0,4.1-2.9,6.9-4.5c0,0-1.3-3.9-4.9-6.5C664.5,64.7,661.1,68,662.4,75.7z"/>
		<path class="st0" d="M673.3,70.3c0,0,2.9-0.2,6.1,0c0,0,0.4-3.7-2.1-6.3C677.4,64,674.7,66,673.3,70.3z"/>
		<path class="st0" d="M605.8,106.6c0,0-1.8-5.1-1.6-6.5c0,0-3.1,3.1-4.3,5C599.9,105.1,603.3,107,605.8,106.6"/>
		<path class="st0" d="M639.5,72.5c0,0,5.4,1.3,7.8,2.3c0,0-2.2-7.1-5.1-10.1C642.2,64.7,639.1,69,639.5,72.5z"/>
	</g>
</g>
</svg>
