<?xml version="1.0" encoding="UTF-8"?>
<svg width="380px" height="506px" viewBox="0 0 380 506" version="1.1" xmlns="http://www.w3.org/2000/svg" xmlns:xlink="http://www.w3.org/1999/xlink">
    <title>C40B564F-C95A-4A60-8CD7-E9436D7C16A4</title>
    <g id="Joystream-Testnet-Token-Information-Page" stroke="none" stroke-width="1" fill="none" fill-rule="evenodd">
        <g id="Main-Page" transform="translate(-120.000000, -2346.000000)" fill="#181C20">
            <g id="Group-27" transform="translate(120.000000, 2346.000000)">
                <g id="Group-6-Copy-2">
                    <g id="Group-Copy-11" transform="translate(190.000000, 253.000000) scale(1, -1) rotate(-180.000000) translate(-190.000000, -253.000000) ">
                        <path d="M244.627816,477.21272 L239.95335,477.21272 L239.95335,481.887152 L244.627816,481.887152 L244.627816,486.5732 L239.95335,486.5732 L239.95335,491.259249 L244.627816,491.259249 L244.627816,495.933681 L249.313908,495.933681 L249.313908,500.619729 L244.627816,500.619729 L244.627816,495.945297 L239.95335,495.945297 L239.95335,500.619729 L244.627816,500.619729 L244.627816,505.3084 L239.941724,505.3084 L239.941724,500.622352 L235.267258,500.622352 L235.267258,495.94792 L230.581167,495.94792 L230.581167,500.622352 L225.895075,500.622352 L225.895075,495.94792 L221.220609,495.94792 L221.220609,500.622352 L225.895075,500.622352 L225.895075,505.3084 L221.208608,505.3084 L221.208608,500.622352 L216.534517,500.622352 L216.534517,505.3084 L211.8458,505.3084 L211.8458,500.622352 L216.531892,500.622352 L216.531892,495.94792 L211.8458,495.94792 L211.8458,491.261497 L216.531892,491.261497 L216.531892,486.575449 L211.8458,486.575449 L211.8458,481.8894 L216.531892,481.8894 L216.531892,477.214968 L216.531892,477.203352 L221.206357,477.203352 L221.206357,472.52892 L225.892449,472.52892 L225.892449,477.203352 L230.578541,477.203352 L230.578541,472.52892 L235.265008,472.52892 L235.265008,477.203352 L239.939474,477.203352 L239.939474,472.52892 L244.625566,472.52892 L244.625566,477.203352 L249.311658,477.203352 L249.311658,481.8894 L244.625566,481.8894 L244.625566,477.21272 L244.627816,477.21272 Z M216.531892,477.201104 L216.531892,472.526297 L211.8458,472.526297 L211.8458,477.21272 L216.531892,477.21272 L216.531892,477.201104 Z M230.578541,500.622352 L230.578541,505.3084 L235.265008,505.3084 L235.265008,500.622352 L230.578541,500.622352 Z M244.627816,491.261497 L244.627816,486.575449 L249.313908,486.575449 L249.313908,491.261497 L244.627816,491.261497 Z M221.206357,495.936304 L216.531892,495.936304 L216.531892,491.261497 L221.206357,491.261497 L221.206357,495.936304 Z M221.217984,472.526297 L221.217984,467.840248 L225.892449,467.840248 L225.892449,472.526297 L230.578541,472.526297 L230.578541,467.840248 L235.265008,467.840248 L235.265008,472.526297 L239.9511,472.526297 L239.9511,467.840248 L244.625566,467.840248 L244.625566,472.526297 L249.311658,472.526297 L249.311658,467.840248 L244.625566,467.840248 L244.625566,463.1542 L239.939474,463.1542 L239.939474,467.840248 L235.265008,467.840248 L235.265008,463.1542 L230.578541,463.1542 L230.578541,467.840248 L225.892449,467.840248 L225.892449,463.1542 L221.206357,463.1542 L221.206357,467.840248 L216.531892,467.840248 L216.531892,463.1542 L211.8458,463.1542 L211.8458,467.840248 L216.531892,467.840248 L216.531892,472.526297 L221.217984,472.526297 Z M239.939474,481.887152 L239.939474,486.5732 L235.265008,486.5732 L235.265008,481.887152 L239.939474,481.887152 Z M230.578541,481.887152 L230.578541,477.21272 L235.265008,477.21272 L235.265008,481.887152 L230.578541,481.887152 Z M225.892449,481.887152 L230.578541,481.887152 L230.578541,486.5732 L225.892449,486.5732 L225.892449,481.887152 Z M225.892449,481.887152 L221.217984,481.887152 L221.217984,477.21272 L225.892449,477.21272 L225.892449,481.887152 Z M225.892449,491.261497 L221.217984,491.261497 L221.217984,486.575449 L225.892449,486.575449 L225.892449,491.261497 Z M230.578541,491.261497 L230.578541,495.936304 L225.892449,495.936304 L225.892449,491.261497 L230.578541,491.261497 Z M235.267258,491.261497 L230.581167,491.261497 L230.581167,486.575449 L235.267258,486.575449 L235.267258,491.261497 Z M235.267258,491.261497 L239.941724,491.261497 L239.941724,495.936304 L235.267258,495.936304 L235.267258,491.261497 Z M221.206357,486.575449 L221.206357,481.8894 L216.531892,481.8894 L216.531892,486.575449 L221.206357,486.575449 Z M254,500.622352 L249.313908,500.622352 L249.313908,505.3084 L254,505.3084 L254,500.622352 Z M249.313908,491.261497 L254,491.261497 L254,495.94792 L249.313908,495.94792 L249.313908,491.261497 Z M254,481.887152 L249.313908,481.887152 L249.313908,486.5732 L254,486.5732 L254,481.887152 Z M249.313908,472.526297 L254,472.526297 L254,477.21272 L249.313908,477.21272 L249.313908,472.526297 Z M249.313908,463.1542 L254,463.1542 L254,467.840248 L249.313908,467.840248 L249.313908,463.1542 Z" id="Shape-Copy-10" transform="translate(232.922900, 484.231300) scale(-1, 1) translate(-232.922900, -484.231300) "></path>
                        <path d="M33.3942143,14.0585195 L28.7197486,14.0585195 L28.7197486,18.7329519 L33.3942143,18.7329519 L33.3942143,23.4190001 L28.7197486,23.4190001 L28.7197486,28.1050484 L33.3942143,28.1050484 L33.3942143,32.7794808 L38.0803062,32.7794808 L38.0803062,37.4655291 L33.3942143,37.4655291 L33.3942143,32.7910966 L28.7197486,32.7910966 L28.7197486,37.4655291 L33.3942143,37.4655291 L33.3942143,42.1542002 L28.7081224,42.1542002 L28.7081224,37.468152 L24.0336566,37.468152 L24.0336566,32.7937196 L19.3475647,32.7937196 L19.3475647,37.468152 L14.6614728,37.468152 L14.6614728,32.7937196 L9.98700703,32.7937196 L9.98700703,37.468152 L14.6614728,37.468152 L14.6614728,42.1542002 L9.97500584,42.1542002 L9.97500584,37.468152 L5.30091511,37.468152 L5.30091511,42.1542002 L0.612197929,42.1542002 L0.612197929,37.468152 L5.29828985,37.468152 L5.29828985,32.7937196 L0.612197929,32.7937196 L0.612197929,28.1072966 L5.29828985,28.1072966 L5.29828985,23.4212484 L0.612197929,23.4212484 L0.612197929,18.7352001 L5.29828985,18.7352001 L5.29828985,14.0607677 L5.29828985,14.0491519 L9.97275561,14.0491519 L9.97275561,9.37471943 L14.6588475,9.37471943 L14.6588475,14.0491519 L19.3449395,14.0491519 L19.3449395,9.37471943 L24.0314064,9.37471943 L24.0314064,14.0491519 L28.7058722,14.0491519 L28.7058722,9.37471943 L33.3919641,9.37471943 L33.3919641,14.0491519 L38.078056,14.0491519 L38.078056,18.7352001 L33.3919641,18.7352001 L33.3919641,14.0585195 L33.3942143,14.0585195 Z M5.29828985,14.0469036 L5.29828985,9.3720965 L0.612197929,9.3720965 L0.612197929,14.0585195 L5.29828985,14.0585195 L5.29828985,14.0469036 Z M19.3449395,37.468152 L19.3449395,42.1542002 L24.0314064,42.1542002 L24.0314064,37.468152 L19.3449395,37.468152 Z M33.3942143,28.1072966 L33.3942143,23.4212484 L38.0803062,23.4212484 L38.0803062,28.1072966 L33.3942143,28.1072966 Z M9.97275561,32.7821037 L5.29828985,32.7821037 L5.29828985,28.1072966 L9.97275561,28.1072966 L9.97275561,32.7821037 Z M9.98438177,9.3720965 L9.98438177,4.68604825 L14.6588475,4.68604825 L14.6588475,9.3720965 L19.3449395,9.3720965 L19.3449395,4.68604825 L24.0314064,4.68604825 L24.0314064,9.3720965 L28.7174983,9.3720965 L28.7174983,4.68604825 L33.3919641,4.68604825 L33.3919641,9.3720965 L38.078056,9.3720965 L38.078056,4.68604825 L33.3919641,4.68604825 L33.3919641,0 L28.7058722,0 L28.7058722,4.68604825 L24.0314064,4.68604825 L24.0314064,0 L19.3449395,0 L19.3449395,4.68604825 L14.6588475,4.68604825 L14.6588475,0 L9.97275561,0 L9.97275561,4.68604825 L5.29828985,4.68604825 L5.29828985,0 L0.612197929,0 L0.612197929,4.68604825 L5.29828985,4.68604825 L5.29828985,9.3720965 L9.98438177,9.3720965 Z M28.7058722,18.7329519 L28.7058722,23.4190001 L24.0314064,23.4190001 L24.0314064,18.7329519 L28.7058722,18.7329519 Z M19.3449395,18.7329519 L19.3449395,14.0585195 L24.0314064,14.0585195 L24.0314064,18.7329519 L19.3449395,18.7329519 Z M14.6588475,18.7329519 L19.3449395,18.7329519 L19.3449395,23.4190001 L14.6588475,23.4190001 L14.6588475,18.7329519 Z M14.6588475,18.7329519 L9.98438177,18.7329519 L9.98438177,14.0585195 L14.6588475,14.0585195 L14.6588475,18.7329519 Z M14.6588475,28.1072966 L9.98438177,28.1072966 L9.98438177,23.4212484 L14.6588475,23.4212484 L14.6588475,28.1072966 Z M19.3449395,28.1072966 L19.3449395,32.7821037 L14.6588475,32.7821037 L14.6588475,28.1072966 L19.3449395,28.1072966 Z M24.0336566,28.1072966 L19.3475647,28.1072966 L19.3475647,23.4212484 L24.0336566,23.4212484 L24.0336566,28.1072966 Z M24.0336566,28.1072966 L28.7081224,28.1072966 L28.7081224,32.7821037 L24.0336566,32.7821037 L24.0336566,28.1072966 Z M9.97275561,23.4212484 L9.97275561,18.7352001 L5.29828985,18.7352001 L5.29828985,23.4212484 L9.97275561,23.4212484 Z M42.7663982,37.468152 L38.0803062,37.468152 L38.0803062,42.1542002 L42.7663982,42.1542002 L42.7663982,37.468152 Z M38.0803062,28.1072966 L42.7663982,28.1072966 L42.7663982,32.7937196 L38.0803062,32.7937196 L38.0803062,28.1072966 Z M42.7663982,18.7329519 L38.0803062,18.7329519 L38.0803062,23.4190001 L42.7663982,23.4190001 L42.7663982,18.7329519 Z M38.0803062,9.3720965 L42.7663982,9.3720965 L42.7663982,14.0585195 L38.0803062,14.0585195 L38.0803062,9.3720965 Z M38.0803062,0 L42.7663982,0 L42.7663982,4.68604825 L38.0803062,4.68604825 L38.0803062,0 Z" id="Shape-Copy-5"></path>
                        <path d="M37.6971072,463.1542 L42.3831991,463.1542 L42.3831991,421 L37.6971072,421 L37.6971072,463.1542 Z M33.0155157,463.1542 L28.331674,463.1542 L28.331674,421 L33.0155157,421 L33.0155157,463.1542 Z M23.6482073,463.1542 L18.9643656,463.1542 L18.9643656,421 L23.6482073,421 L23.6482073,463.1542 Z M9.59668224,463.1542 L14.2805239,463.1542 L14.2805239,421 L9.59668224,421 L9.59668224,463.1542 Z M4.91284055,463.1542 L0.228998849,463.1542 L0.228998849,421 L4.91284055,421 L4.91284055,463.1542 Z" id="Shape" transform="translate(21.306099, 442.077100) scale(-1, 1) translate(-21.306099, -442.077100) "></path>
                        <path d="M169.931569,341.21708 L169.931569,336.531032 L127.777369,336.531032 L127.777369,341.21708 L169.931569,341.21708 Z M169.931569,345.898632 L169.931569,350.582432 L127.777369,350.582432 L127.777369,345.898632 L169.931569,345.898632 Z M169.931569,355.266232 L169.931569,359.950032 L127.777369,359.950032 L127.777369,355.266232 L169.931569,355.266232 Z M169.931569,369.317632 L169.931569,364.633832 L127.777369,364.633832 L127.777369,369.317632 L169.931569,369.317632 Z M169.931569,374.001432 L169.931569,378.685232 L127.777369,378.685232 L127.777369,374.001432 L169.931569,374.001432 Z" id="Shape"></path>
                        <path d="M127.074799,88.7134207 L127.074799,84.0273725 L84.9205984,84.0273725 L84.9205984,88.7134207 L127.074799,88.7134207 Z M127.074799,93.3949725 L127.074799,98.0787725 L84.9205984,98.0787725 L84.9205984,93.3949725 L127.074799,93.3949725 Z M127.074799,102.762573 L127.074799,107.446373 L84.9205984,107.446373 L84.9205984,102.762573 L127.074799,102.762573 Z M127.074799,116.813973 L127.074799,112.130173 L84.9205984,112.130173 L84.9205984,116.813973 L127.074799,116.813973 Z M127.074799,121.497773 L127.074799,126.181573 L84.9205984,126.181573 L84.9205984,121.497773 L127.074799,121.497773 Z" id="Shape-Copy-12"></path>
                        <path d="M342.529641,168.335773 L337.8458,168.335773 C337.8458,145.055039 356.71918,126.181573 380,126.181573 L380,130.865373 C359.304688,130.865373 342.529641,147.640496 342.529641,168.335773 Z M351.897325,168.335773 L347.213483,168.335773 C347.213483,150.228202 361.892446,135.549173 380,135.549173 L380,140.232973 C364.480204,140.232973 351.897325,152.815908 351.897325,168.335773 Z M356.581167,168.335773 L361.265008,168.335773 C361.265008,157.989071 369.653469,149.600573 380,149.600573 L380,144.916773 C367.065711,144.916773 356.581167,155.401365 356.581167,168.335773 Z M370.632317,168.335773 L365.94885,168.335773 C365.94885,160.574529 372.238977,154.284373 380,154.284373 L380,158.968173 C374.826735,158.968173 370.632317,163.162609 370.632317,168.335773 Z M380,168.335773 L375.316158,168.335773 C375.316158,165.748067 377.412242,163.651973 380,163.651973 L380,168.335773 Z" id="Shape-Copy-11" transform="translate(358.922900, 147.258673) rotate(-270.000000) translate(-358.922900, -147.258673) "></path>
                        <path d="M253.8458,421.260974 L296,421.260974 L296,379.106774 C272.71918,379.106774 253.8458,397.98024 253.8458,421.260974 Z" id="Path-Copy-2" fill-rule="nonzero" transform="translate(274.922900, 400.183874) rotate(-180.000000) translate(-274.922900, -400.183874) "></path>
                        <path d="M258.645033,84.0273725 L253.958941,84.0273725 L253.958941,41.8731722 L258.645033,41.8731722 L258.645033,84.0273725 Z M272.698809,84.0273725 L277.3849,84.0273725 L277.3849,41.8731722 L272.698809,41.8731722 L272.698809,84.0273725 Z M286.752584,84.0273725 L282.066492,84.0273725 L282.066492,41.8731722 L286.752584,41.8731722 L286.752584,84.0273725 Z M296.113142,84.0273725 L291.42705,84.0273725 L291.42705,41.8731722 L296.113142,41.8731722 L296.113142,84.0273725 Z M263.331125,84.0273725 L268.017217,84.0273725 L268.017217,41.8731722 L263.331125,41.8731722 L263.331125,84.0273725 Z" id="Shape-Copy-9"></path>
                    </g>
                </g>
            </g>
        </g>
    </g>
</svg>