<svg viewBox="0 0 648 486" fill="none" xmlns="http://www.w3.org/2000/svg">
    <g clip-path="url(#clip0)">
        <path fill-rule="evenodd" clip-rule="evenodd"
            d="M258.209 251.991H252.216V246.003H258.209V240H252.216V233.997H258.209V228.009H264.217V222.006H258.209V227.994H252.216V222.006H258.209V216H252.201V222.003H246.208V227.991H240.2V222.003H234.192V227.991H228.199V222.003H234.192V216H228.184V222.003H222.191V216H216.18V222.003H222.188V227.991H216.18V233.994H222.188V239.997H216.18V246H222.188V251.988V252.003H228.181V257.991H234.189V252.003H240.197V257.991H246.205V252.003H252.198V257.991H258.206V252.003H264.214V246H258.206V251.991H258.209ZM222.188 252.006V257.994H216.18V251.991H222.188V252.006ZM240.197 222.003V216H246.205V222.003H240.197ZM258.209 233.994V239.997H264.217V233.994H258.209ZM228.181 228.006H222.188V233.994H228.181V228.006ZM228.196 257.994V263.997H234.189V257.994H240.197V263.997H246.205V257.994H252.213V263.997H258.206V257.994H264.214V263.997H258.206V270H252.198V263.997H246.205V270H240.197V263.997H234.189V270H228.181V263.997H222.188V270H216.18V263.997H222.188V257.994H228.196ZM252.198 246.003V240H246.205V246.003H252.198ZM240.197 246.003V251.991H246.205V246.003H240.197ZM234.189 246.003H240.197V240H234.189V246.003ZM234.189 246.003H228.196V251.991H234.189V246.003ZM234.189 233.994H228.196V239.997H234.189V233.994ZM240.197 233.994V228.006H234.189V233.994H240.197ZM246.208 233.994H240.2V239.997H246.208V233.994ZM246.208 233.994H252.201V228.006H246.208V233.994ZM228.181 239.997V246H222.188V239.997H228.181ZM270.225 222.003H264.217V216H270.225V222.003ZM264.217 233.994H270.225V227.991H264.217V233.994ZM270.225 246.003H264.217V240H270.225V246.003ZM264.217 257.994H270.225V251.991H264.217V257.994ZM264.217 270H270.225V263.997H264.217V270Z"
            fill="#131519" />
        <path fill-rule="evenodd" clip-rule="evenodd"
            d="M528.436 251.991H522.442V246.003H528.436V240H522.442V233.997H528.436V228.009H534.443V222.006H528.436V227.994H522.442V222.006H528.436V216H522.428V222.003H516.435V227.991H510.427V222.003H504.419V227.991H498.426V222.003H504.419V216H498.41V222.003H492.418V216H486.406V222.003H492.414V227.991H486.406V233.994H492.414V239.997H486.406V246H492.414V251.988V252.003H498.407V257.991H504.415V252.003H510.423V257.991H516.432V252.003H522.425V257.991H528.433V252.003H534.441V246H528.433V251.991H528.436ZM492.414 252.006V257.994H486.406V251.991H492.414V252.006ZM510.423 222.003V216H516.432V222.003H510.423ZM528.436 233.994V239.997H534.443V233.994H528.436ZM498.407 228.006H492.414V233.994H498.407V228.006ZM498.422 257.994V263.997H504.415V257.994H510.423V263.997H516.432V257.994H522.44V263.997H528.433V257.994H534.441V263.997H528.433V270H522.425V263.997H516.432V270H510.423V263.997H504.415V270H498.407V263.997H492.414V270H486.406V263.997H492.414V257.994H498.422ZM522.425 246.003V240H516.432V246.003H522.425ZM510.423 246.003V251.991H516.432V246.003H510.423ZM504.415 246.003H510.423V240H504.415V246.003ZM504.415 246.003H498.422V251.991H504.415V246.003ZM504.415 233.994H498.422V239.997H504.415V233.994ZM510.423 233.994V228.006H504.415V233.994H510.423ZM516.435 233.994H510.427V239.997H516.435V233.994ZM516.435 233.994H522.428V228.006H516.435V233.994ZM498.407 239.997V246H492.414V239.997H498.407ZM540.451 222.003H534.443V216H540.451V222.003ZM534.443 233.994H540.451V227.991H534.443V233.994ZM540.451 246.003H534.443V240H540.451V246.003ZM534.443 257.994H540.451V251.991H534.443V257.994ZM534.443 270H540.451V263.997H534.443V270Z"
            fill="#4038FF" />
        <path fill-rule="evenodd" clip-rule="evenodd"
            d="M150.119 35.9909H144.126V30.0028H150.119V24H144.126V17.9971H150.119V12.0091H156.127V6.00623H150.119V11.9942H144.126V6.00623H150.119V0H144.111V6.00288H138.118V11.9909H132.11V6.00288H126.102V11.9909H120.109V6.00288H126.102V0H120.094V6.00288H114.101V0H108.09V6.00288H114.098V11.9909H108.09V17.9942H114.098V23.9971H108.09V30H114.098V35.988V36.0029H120.091V41.9908H126.099V36.0029H132.107V41.9908H138.115V36.0029H144.108V41.9908H150.116V36.0029H156.124V30H150.116V35.9909H150.119ZM114.098 36.0057V41.9942H108.09V35.9909H114.098V36.0057ZM132.107 6.00288V0H138.115V6.00288H132.107ZM150.119 17.9942V23.9971H156.127V17.9942H150.119ZM120.091 12.0057H114.098V17.9942H120.091V12.0057ZM120.106 41.9942V47.9971H126.099V41.9942H132.107V47.9971H138.115V41.9942H144.123V47.9971H150.116V41.9942H156.124V47.9971H150.116V54H144.108V47.9971H138.115V54H132.107V47.9971H126.099V54H120.091V47.9971H114.098V54H108.09V47.9971H114.098V41.9942H120.106ZM144.108 30.0028V24H138.115V30.0028H144.108ZM132.107 30.0028V35.9909H138.115V30.0028H132.107ZM126.099 30.0028H132.107V24H126.099V30.0028ZM126.099 30.0028H120.106V35.9909H126.099V30.0028ZM126.099 17.9942H120.106V23.9971H126.099V17.9942ZM132.107 17.9942V12.0057H126.099V17.9942H132.107ZM138.118 17.9942H132.11V23.9971H138.118V17.9942ZM138.118 17.9942H144.111V12.0057H138.118V17.9942ZM120.091 23.9971V30H114.098V23.9971H120.091ZM162.135 6.00288H156.127V0H162.135V6.00288ZM156.127 17.9942H162.135V11.9909H156.127V17.9942ZM162.135 30.0028H156.127V24H162.135V30.0028ZM156.127 41.9942H162.135V35.9909H156.127V41.9942ZM156.127 54H162.135V47.9971H156.127V54Z"
            fill="#131519" />
        <path fill-rule="evenodd" clip-rule="evenodd"
            d="M318.26 270H324.268V324H318.26V270ZM312.258 270H306.253V324H312.258V270ZM300.248 270H294.243V324H300.248V270ZM282.233 270H288.238V324H282.233V270ZM276.228 270H270.223V324H276.228V270Z"
            fill="#131519" />
        <path
            d="M328.503 378H324.27V382.23L374.081 432H378.315V427.77L328.503 378ZM365.584 432H357.087L324.27 399.21V390.72L365.584 432ZM348.59 432H340.093L324.27 416.19V407.7L348.59 432ZM324.27 432V424.68L331.595 432H324.27ZM378.315 410.79V419.28L336.999 378H345.497L378.315 410.79ZM378.315 393.81V402.3L353.994 378H362.491L378.315 393.81ZM378.315 385.32L370.988 378H378.315V385.32Z"
            fill="#4038FF" />
        <path fill-rule="evenodd" clip-rule="evenodd"
            d="M324.811 155.997V162H270.766V155.997H324.811ZM324.811 150V144H270.766V150H324.811ZM324.811 138V132H270.766V138H324.811ZM324.811 120V126H270.766V120H324.811ZM324.811 114V108H270.766V114H324.811Z"
            fill="#131519" />
        <path fill-rule="evenodd" clip-rule="evenodd"
            d="M270.225 479.997V486H216.18V479.997H270.225ZM270.225 474V468H216.18V474H270.225ZM270.225 462V456H216.18V462H270.225ZM270.225 444V450H216.18V444H270.225ZM270.225 438V432H216.18V438H270.225Z"
            fill="#131519" />
        <path fill-rule="evenodd" clip-rule="evenodd"
            d="M486.408 317.997V324H432.363V317.997H486.408ZM486.408 312V306H432.363V312H486.408ZM486.408 300V294H432.363V300H486.408ZM486.408 282V288H432.363V282H486.408ZM486.408 276V270H432.363V276H486.408Z"
            fill="#131519" />
        <path fill-rule="evenodd" clip-rule="evenodd"
            d="M270.225 330.003V324H216.18V330.003H270.225ZM270.225 348.006V354.009H216.18V348.006H270.225ZM270.225 366.009V360.006H216.18V366.009H270.225ZM270.225 378V371.997H216.18V378H270.225ZM270.225 336.006V342.009H216.18V336.006H270.225Z"
            fill="#131519" />
        <path fill-rule="evenodd" clip-rule="evenodd"
            d="M641.993 378H647.998C647.998 348.177 623.801 324 593.953 324V330C620.486 330 641.993 351.489 641.993 378ZM629.983 378H635.988C635.988 354.804 617.169 336 593.953 336V342C613.851 342 629.983 358.119 629.983 378ZM623.978 378H617.973C617.973 364.746 607.218 354 593.953 354V348C610.536 348 623.978 361.431 623.978 378ZM605.963 378H611.968C611.968 368.058 603.903 360 593.953 360V366C600.586 366 605.963 371.373 605.963 378ZM593.953 378H599.958C599.958 374.685 597.271 372 593.953 372V378Z"
            fill="#131519" />
        <path fill-rule="evenodd" clip-rule="evenodd"
            d="M168.138 162H162.133C162.133 191.823 186.33 216 216.178 216V210C189.645 210 168.138 188.511 168.138 162ZM180.148 162H174.143C174.143 185.196 192.963 204 216.178 204V198C196.28 198 180.148 181.881 180.148 162ZM186.153 162H192.158C192.158 175.254 202.913 186 216.178 186V192C199.595 192 186.153 178.569 186.153 162ZM204.168 162H198.163C198.163 171.942 206.228 180 216.178 180V174C209.545 174 204.168 168.627 204.168 162ZM216.178 162H210.173C210.173 165.315 212.86 168 216.178 168V162Z"
            fill="#131519" />
        <path fill-rule="evenodd" clip-rule="evenodd"
            d="M540.451 426V432C570.299 432 594.496 407.823 594.496 378H588.491C588.491 404.511 566.984 426 540.451 426ZM540.451 414V420C563.666 420 582.486 401.196 582.486 378H576.481C576.481 397.881 560.349 414 540.451 414ZM540.451 408V402C553.716 402 564.471 391.254 564.471 378H570.476C570.476 394.569 557.034 408 540.451 408ZM540.451 390V396C550.401 396 558.466 387.942 558.466 378H552.461C552.461 384.627 547.083 390 540.451 390ZM540.451 378V384C543.769 384 546.456 381.315 546.456 378H540.451Z"
            fill="#131519" />
        <path d="M162.133 216V270H108.088C108.088 240.177 132.285 216 162.133 216Z" fill="#4038FF" />
        <path d="M54.043 270H108.088V324C78.2402 324 54.043 299.823 54.043 270Z" fill="#131519" />
        <path d="M432.901 54V108H378.855C378.855 78.177 403.053 54 432.901 54Z" fill="#131519" />
        <path fill-rule="evenodd" clip-rule="evenodd"
            d="M168.141 53.9999H162.133V108H168.141V53.9999ZM186.159 53.9999H192.167V108H186.159V53.9999ZM204.177 53.9999H198.169V108H204.177V53.9999ZM216.178 53.9999H210.17V108H216.178V53.9999ZM174.149 53.9999H180.157V108H174.149V53.9999Z"
            fill="#4038FF" />
        <path fill-rule="evenodd" clip-rule="evenodd"
            d="M6.00796 162H0V216H6.00796V162ZM24.0261 162H30.034V216H24.0261V162ZM42.0442 162H36.0362V216H42.0442V162ZM54.0452 162H48.0372V216H54.0452V162ZM12.0159 162H18.0239V216H12.0159V162Z"
            fill="#131519" />
        <path fill-rule="evenodd" clip-rule="evenodd"
            d="M437.161 250.581C448.73 246.769 479.107 254.88 487.401 258.713C499.922 264.499 513.691 271.892 518.596 286.462C521.873 296.196 518.262 307.155 516.424 316.193C515.392 321.261 514.416 326.06 514.369 330.74C514.834 330.715 515.309 330.669 515.597 330.642C531.588 329.097 548.173 338.921 555.928 354.53C558.652 360.013 556.673 363.395 555.696 364.594C554.905 365.568 553.888 366.274 552.674 366.691C551.446 367.114 550.258 367.152 549.258 367.134C533.355 366.84 519.16 363.994 505.864 358.428C491.475 352.408 480.604 344.148 473.553 333.879C466.421 323.493 463.61 310.698 465.645 299.763C461.349 300.312 456.98 301.611 452.447 302.958C444.234 305.399 435.741 307.923 426.552 306.258C418.378 304.779 411.215 300.215 403.989 295.267C388.216 284.47 370.206 271.492 356.068 254.043C353.053 250.32 350.133 246.156 349.202 240.93C348.129 234.912 350.109 229.41 351.556 225.391C355.293 215.008 360.477 203.924 370.593 200.447C371.386 200.175 372.206 199.951 373.029 199.786C376.806 199.019 380.609 199.477 383.963 199.881C387.188 200.269 390.234 200.637 392.525 199.849C392.808 199.752 393.082 199.637 393.339 199.505C395.217 198.553 396.733 196.49 398.248 193.951C407.729 201.289 420.699 220.165 437.161 250.581Z"
            fill="black" stroke="black" stroke-width="2.63701" />
        <path fill-rule="evenodd" clip-rule="evenodd"
            d="M374.177 205.09C364.619 207.018 359.779 217.85 356.321 227.492C354.888 231.487 353.443 235.742 354.218 240.07C354.923 243.997 357.359 247.385 359.851 250.461C373.003 266.694 389.741 279.075 406.601 290.632C413.037 295.044 419.754 299.464 427.16 300.813C442.715 303.648 457.301 292.405 472.935 294.211C467.514 305.394 470.344 320.145 477.68 330.822C485.017 341.503 496.136 348.601 507.567 353.397C521.087 359.07 534.951 361.483 549.129 361.76C550.099 361.78 551.19 361.744 551.808 360.983C552.645 359.954 552.11 358.298 551.479 357.03C544.79 343.583 530.14 334.892 516.379 336.207C514.141 336.421 511.396 336.637 510.042 334.618C509.369 333.613 509.279 332.325 509.268 331.122C509.163 317.078 516.594 303.207 512.054 289.757C507.853 277.31 495.219 270.661 483.849 265.394C474.578 261.1 464.323 256.721 455.018 259.779C449.069 261.736 444.467 266.47 439.466 270.318C428.346 278.875 411.382 282.654 400.714 272.176C391.096 262.728 391.522 246.302 396.65 234.198C397.316 232.629 398.201 230.951 399.767 230.504C401.936 229.887 404.026 231.889 405.974 233.277C411.597 237.283 381.231 203.667 374.177 205.09Z"
            fill="black" />
        <path fill-rule="evenodd" clip-rule="evenodd"
            d="M508.064 284.978C508.375 285.575 508.817 286.077 508.705 286.801L508.683 286.683C513.018 300.431 508.625 313.364 507.354 326.551C506.939 330.869 506.099 334.7 508.019 339.168C509.043 341.555 514.675 349.038 513.751 350.102C513.561 350.322 504.735 347.919 501.631 346.731C481.078 338.867 476.916 327.223 476.916 327.223C470.303 314.947 474.455 305.598 475.888 304.065C482.654 296.829 505.856 295.095 506.781 294.039C507.471 293.252 501.395 285.519 492.908 282.645C490.096 281.455 488.124 283.315 486.627 284.757C479.092 292.018 476.547 291.883 467.089 293.636C461.069 294.75 446.992 271.35 451.818 264.392C456.006 258.352 456.599 259.211 462.917 260.615C466.978 261.518 477.902 263.482 487.377 268.303C497.615 273.511 506.346 281.679 508.064 284.978Z"
            fill="#C4C3C6" />
        <path fill-rule="evenodd" clip-rule="evenodd"
            d="M498.225 292.214C503.808 290.3 509.217 296.311 509.684 309.011C510.152 321.71 514.229 299.73 513.613 297.95C512.226 293.939 508.234 273.742 498.196 277.183C488.158 280.625 481.146 286.666 482.533 290.678C483.92 294.689 488.187 295.656 498.225 292.214Z"
            fill="black" />
        <path fill-rule="evenodd" clip-rule="evenodd"
            d="M496.172 285.095C481.883 287.917 477.089 292.111 468.403 293.822C462.874 294.909 474.597 263.61 479.228 264.466C482.204 265.016 494 267.36 501.811 272.577C509.621 277.793 509.718 281.65 512.543 287.859C505.654 284.346 499.531 284.432 496.172 285.095Z"
            fill="white" />
        <path fill-rule="evenodd" clip-rule="evenodd"
            d="M542.174 360.614C531.242 360.88 522.26 349.307 517.082 341.99C515.252 339.405 516.608 337.876 519.741 338.324C531.365 339.993 543.756 345.657 550.184 357.169C550.891 358.437 544.232 360.565 542.174 360.614Z"
            fill="#C4C3C6" />
        <path fill-rule="evenodd" clip-rule="evenodd"
            d="M394.134 237.236C393.966 237.561 393.798 237.885 393.63 238.21C393.549 238.46 393.454 238.671 393.386 238.961L394.134 237.236Z"
            fill="#D796A0" />
        <path fill-rule="evenodd" clip-rule="evenodd"
            d="M412.879 220.747C410.265 215.559 404.495 208.911 397.882 207.503C394.175 206.714 393.265 208.223 384.268 207.473C381.933 207.28 380.965 207.321 378.835 207.114C370.021 206.254 364.349 210.231 360.79 218.388C358.586 223.437 355.775 228.156 354.323 233.612C352.967 238.903 354.861 243.249 358.016 247.554C365.625 257.931 404.456 288.975 420.41 298.836C424.353 301.274 427.71 300.275 427.909 299.839C429.071 297.292 426.263 296.615 424.898 295.345C415.843 286.933 406.222 279.276 397.389 270.551C393.887 267.093 391.722 263.475 390.661 259.7C389.892 256.962 390.66 252.323 392.005 243.092C392.7 238.319 393.256 235.485 394.33 232.212C394.619 231.326 395.549 228.57 397.321 225.314C397.321 225.314 399.815 220.726 403.417 218.547C404.203 218.071 404.975 217.764 405.456 218.119C405.597 218.223 405.913 218.531 405.925 219.659C405.944 221.575 404.937 222.933 404.785 223.474C403.605 227.656 403.963 230.986 405.651 233.169C407.538 235.61 410.652 235.796 414.473 235.985C417.687 236.143 421.923 235.636 421.992 234.473C422.026 233.883 420.979 233.331 420.457 233.019C416.226 230.489 414.978 224.913 412.879 220.747Z"
            fill="#C4C3C6" />
        <path fill-rule="evenodd" clip-rule="evenodd"
            d="M400.703 215.787C393.6 214.69 386.549 238.128 385.849 242.901C384.9 249.365 361.177 251.91 357.997 247.573C354.846 243.272 352.957 238.929 354.319 233.638C355.777 228.181 358.594 223.46 360.805 218.41C364.374 210.25 370.051 206.268 378.867 207.118C380.996 207.322 381.964 207.28 384.3 207.47C393.298 208.21 394.21 206.701 397.917 207.486C397.951 207.493 397.986 207.501 398.02 207.508C400.672 210.535 401.704 210.941 403.108 214.961L400.703 215.787Z"
            fill="white" />
        <path fill-rule="evenodd" clip-rule="evenodd"
            d="M206.648 259.337C195.043 254.348 166.014 260.609 158.217 264.047C146.446 269.238 133.584 276.047 129.95 291.226C127.523 301.366 131.922 313.362 134.436 323.164C135.846 328.661 137.181 333.866 137.599 338.869C137.143 338.806 136.675 338.719 136.392 338.668C120.648 335.751 105.229 344.934 98.8934 360.997C96.6684 366.64 98.8705 370.41 99.9202 371.768C100.77 372.872 101.821 373.707 103.039 374.249C104.273 374.797 105.436 374.933 106.411 374.992C121.923 375.938 135.563 374.021 148.109 369.127C161.686 363.834 171.649 355.87 177.72 345.457C183.861 334.924 185.59 321.475 182.733 309.631C186.973 310.557 191.344 312.292 195.879 314.089C204.095 317.348 212.593 320.718 221.437 319.667C229.303 318.733 235.938 314.425 242.603 309.71C257.153 299.424 273.714 286.983 286.138 269.459C288.787 265.72 291.308 261.502 291.803 255.992C292.372 249.647 290 243.611 288.267 239.202C283.791 227.813 277.846 215.559 267.688 211.043C266.892 210.689 266.074 210.386 265.256 210.143C261.506 209.025 257.828 209.213 254.583 209.379C251.464 209.539 248.517 209.69 246.217 208.668C245.932 208.541 245.656 208.397 245.394 208.235C243.484 207.069 241.839 204.745 240.158 201.912C231.48 209.001 220.31 228.143 206.648 259.337Z"
            fill="black" stroke="black" stroke-width="10" />
        <path fill-rule="evenodd" clip-rule="evenodd"
            d="M264.558 215.724C274.047 218.541 279.636 230.498 283.781 241.074C285.498 245.456 287.248 250.117 286.835 254.68C286.459 258.82 284.348 262.247 282.158 265.336C270.601 281.639 255.235 293.542 239.684 304.555C233.748 308.76 227.537 312.95 220.411 313.804C205.441 315.602 190.299 302.434 175.17 303.125C181.355 315.503 179.764 331.04 173.446 341.867C167.128 352.698 156.83 359.402 146.045 363.621C133.289 368.611 119.939 370.091 106.11 369.264C105.165 369.209 104.097 369.084 103.432 368.222C102.533 367.057 102.924 365.33 103.439 364.025C108.904 350.187 122.524 342.061 136.071 344.556C138.274 344.961 140.973 345.409 142.135 343.36C142.713 342.339 142.699 340.971 142.613 339.686C141.599 324.689 133.237 309.279 136.604 295.268C139.718 282.302 151.53 276.198 162.219 271.471C170.934 267.617 180.603 263.751 189.935 267.755C195.903 270.316 200.774 275.739 205.965 280.247C217.508 290.271 234.379 295.652 243.968 285.301C252.612 275.969 250.89 258.384 244.918 245.045C244.143 243.316 243.146 241.453 241.581 240.851C239.412 240.02 237.53 241.994 235.738 243.322C230.563 247.157 257.553 213.645 264.558 215.724Z"
            fill="black" />
        <path fill-rule="evenodd" clip-rule="evenodd"
            d="M140.113 290.474C139.856 291.089 139.464 291.59 139.631 292.372L139.644 292.247C136.502 306.594 141.821 320.76 144.111 334.95C144.86 339.597 145.985 343.756 144.465 348.379C143.654 350.848 138.747 358.398 139.734 359.608C139.937 359.857 148.368 357.988 151.305 356.965C170.758 350.191 173.897 338.08 173.897 338.08C179.382 325.487 174.583 315.168 173.061 313.417C165.876 305.15 143.074 301.459 142.086 300.258C141.35 299.362 146.67 291.581 154.732 289.182C157.384 288.134 159.459 290.277 161.036 291.937C168.973 300.292 171.448 300.349 180.827 302.971C218.036 315.468 232.294 315.966 235.306 308.238C237.705 302.082 195.755 276.4 193.419 272.934C188.848 266.149 188.338 267.019 182.277 268.019C178.382 268.663 167.867 269.896 158.995 274.296C149.408 279.05 141.529 287.086 140.113 290.474Z"
            fill="#C4C3C6" />
        <path fill-rule="evenodd" clip-rule="evenodd"
            d="M150.298 298.987C144.691 296.5 139.886 302.494 140.438 316.026C140.991 329.558 135.261 305.75 135.721 303.897C136.757 299.721 139.052 278.457 149.131 282.929C159.209 287.401 166.54 294.412 165.504 298.588C164.468 302.764 160.377 303.459 150.298 298.987Z"
            fill="black" />
        <path fill-rule="evenodd" clip-rule="evenodd"
            d="M151.741 291.543C165.923 295.689 170.939 300.55 179.56 303.066C185.047 304.666 171.108 270.295 166.652 270.842C163.789 271.195 152.452 272.765 145.237 277.72C138.022 282.675 138.234 286.788 135.968 293.199C142.418 289.991 148.406 290.568 151.741 291.543Z"
            fill="white" />
        <path fill-rule="evenodd" clip-rule="evenodd"
            d="M112.812 368.588C123.512 369.738 131.366 358.085 135.843 350.677C137.424 348.06 135.979 346.319 132.953 346.549C121.732 347.412 110.077 352.482 104.713 364.273C104.123 365.572 110.797 368.373 112.812 368.588Z"
            fill="#C4C3C6" />
        <path fill-rule="evenodd" clip-rule="evenodd"
            d="M247.619 248.489C247.809 248.849 247.998 249.209 248.188 249.569C248.288 249.843 248.397 250.075 248.486 250.391L247.619 248.489Z"
            fill="#D796A0" />
        <path fill-rule="evenodd" clip-rule="evenodd"
            d="M239.502 225.048C246.353 224.438 255.104 250.04 256.167 255.195C257.609 262.177 280.984 266.775 283.745 262.392C286.482 258.047 287.982 253.556 286.231 247.795C284.373 241.849 281.245 236.581 278.685 231.01C274.55 222.01 268.687 217.305 260.143 217.515C258.08 217.565 257.13 217.443 254.864 217.461C246.133 217.539 245.122 215.855 241.564 216.399C241.531 216.404 241.498 216.41 241.465 216.415C239.115 219.439 238.139 219.791 237.087 223.975L239.502 225.048Z"
            fill="white" />
        <path fill-rule="evenodd" clip-rule="evenodd"
            d="M408.384 410.7C386.672 409.144 369.602 394.007 370.258 376.892C370.914 359.777 389.047 347.164 410.759 348.72C432.471 350.277 449.54 365.413 448.884 382.528C448.228 399.643 430.096 412.256 408.384 410.7Z"
            fill="black" />
        <path fill-rule="evenodd" clip-rule="evenodd"
            d="M408.144 399.574C388.288 398.275 372.739 384.189 373.414 368.114C374.088 352.038 390.732 340.059 410.588 341.358C430.444 342.658 445.993 356.743 445.319 372.819C444.644 388.895 428 400.874 408.144 399.574Z"
            fill="#C4C3C6" />
        <path fill-rule="evenodd" clip-rule="evenodd"
            d="M256.754 333.367C225.635 299.592 220.248 270.916 210.256 246.99C182.337 180.135 218.44 227.433 184.993 145.945C166.636 101.221 230.317 66.7003 292.674 79.9404C313.853 84.4372 344.317 78.0595 366.093 92.1635C408.431 119.586 435.654 156.488 428.881 188.319C427.966 192.619 454.374 213.167 451.722 243.73C447.531 292.028 432.109 332.584 444.111 359.123C453.547 379.988 451.342 388.529 436.658 398.308C399.653 373.541 376.993 393.954 339.699 403.842C302.405 413.73 287.874 367.141 256.754 333.367Z"
            fill="black" />
        <path fill-rule="evenodd" clip-rule="evenodd"
            d="M266.466 98.2542C247.031 96.081 180.908 114.981 205.381 163.059C229.854 211.136 203.857 183.727 228.75 243.32C237.659 264.647 241.784 261.374 274.068 305.296C306.351 349.219 293.418 390.714 338.027 385.247C357.07 382.913 378.599 376.161 398.73 375.878C418.862 375.595 436.25 387.043 438.869 383.829C447.796 372.873 420.637 341.2 425.386 327.603C436.055 297.061 438.06 263.461 439.835 242.996C442.199 215.753 418.654 197.435 419.469 193.602C424.083 171.922 407.085 145.905 381.969 123.931C373.727 116.721 352.811 113.105 335.683 106.883C278.395 104.412 285.902 100.427 266.466 98.2542Z"
            fill="#C4C3C6" />
        <path fill-rule="evenodd" clip-rule="evenodd"
            d="M386.632 261.833C385.293 261.746 384.714 247.56 382.205 249.662C378.048 253.143 373.999 252.283 371.359 252.559C369.93 252.708 368.516 262.334 367.03 262.575C353.118 264.831 340.712 271.48 335.6 286.624C332.077 297.058 321.722 339.962 316.179 343.377C327.727 343.841 331.791 347.57 368.158 333.019C387.146 325.422 371.49 321.031 375.564 314.442C384.301 300.313 394.164 286.831 398.827 282.122C400.652 280.279 410.198 328.644 412.117 310.451C414.035 292.258 414.053 263.633 386.632 261.833Z"
            fill="white" />
        <path fill-rule="evenodd" clip-rule="evenodd"
            d="M382.948 269.39C357.73 270.572 346.968 272.738 337.526 290.106C331.987 300.294 322.301 339.716 316.383 342.072C346.541 340.543 359.998 319.275 381.316 316.302C402.634 313.328 407.744 323.628 417.873 328.641C410.664 320.435 413.451 296.07 408.425 285.062C403.399 274.053 394.907 268.83 382.948 269.39Z"
            fill="black" />
        <path fill-rule="evenodd" clip-rule="evenodd"
            d="M293.369 301.246C282.823 298.09 284.037 308.347 292.532 324.508C296.058 331.216 296.465 338.354 297 343.139C308.539 319.701 322.505 290.363 324.525 284.416C314.962 296.16 303.915 304.403 293.369 301.246Z"
            fill="black" />
        <path fill-rule="evenodd" clip-rule="evenodd"
            d="M260.76 253.851C274.72 312.062 284.387 347.381 289.761 359.809C293.107 367.547 301.109 351.188 299.795 322.238C298.923 303.041 293.046 285.867 282.163 270.716L260.76 253.851Z"
            fill="black" />
        <path fill-rule="evenodd" clip-rule="evenodd"
            d="M209.851 192.919C196.042 176.435 195.451 157.468 199.574 150.209C204.646 163.979 206.105 168.369 216.451 178.861C226.796 189.353 233.966 191.083 244.741 196.015C236.766 198.646 212.732 196.358 209.851 192.919Z"
            fill="black" />
        <path fill-rule="evenodd" clip-rule="evenodd"
            d="M379.929 266.662C370.28 265.937 377.079 250.93 382.559 246.252C385.528 252.326 389.578 267.387 379.929 266.662Z"
            fill="black" />
        <path fill-rule="evenodd" clip-rule="evenodd"
            d="M327.592 279.122C334.602 254.194 339.425 246.196 346.127 251.157C337.995 259.099 334.083 271.96 327.592 279.122Z"
            fill="black" />
        <path fill-rule="evenodd" clip-rule="evenodd"
            d="M430.712 284.215C422.1 284.816 420.714 265.037 403.505 262.364C409.107 267.328 417.449 276.939 422.352 288.413C427.64 300.788 429.234 315.182 427.885 324.014C427.862 322.08 437.398 312.788 438.344 310.787C439.956 307.375 442.65 293.298 441.101 295.235C440.081 296.511 434.792 299.142 433.697 299.366C433.588 295.523 439.325 283.614 430.712 284.215Z"
            fill="black" />
        <path fill-rule="evenodd" clip-rule="evenodd"
            d="M376.265 242.115C372.291 230.11 355.772 244.466 352.168 251.835C361.168 253.849 380.239 254.12 376.265 242.115Z"
            fill="black" />
        <path fill-rule="evenodd" clip-rule="evenodd"
            d="M397.834 240.656C394.843 231.61 383.484 242.313 380.765 248.87C386.763 250.021 400.824 249.701 397.834 240.656Z"
            fill="black" />
        <path fill-rule="evenodd" clip-rule="evenodd"
            d="M392.622 208.488C379.868 197.398 395.113 202.83 405.696 194.658C387.96 194.884 381.531 193.358 375.123 190.225C368.715 187.092 355.633 170.977 351.705 162.99C353.624 180.225 359.522 187.258 372.054 201.648C382.63 213.794 394.735 216.108 401.158 223.717C412.088 244.098 398.093 247.443 389.5 248.848C402.49 248.261 409.439 244.11 411.366 241.308C412.824 239.19 416.598 234.548 412.117 227.278C407.965 220.54 395.714 211.176 392.622 208.488Z"
            fill="black" />
        <path fill-rule="evenodd" clip-rule="evenodd"
            d="M287.477 231.397C275.419 231.75 261.047 231.539 249.764 223.313C238.481 215.086 247.823 202.722 254.442 197.525C266.663 187.928 274.933 203.327 305.345 199.403C333.914 195.716 313.527 230.634 287.477 231.397Z"
            fill="white" />
        <path fill-rule="evenodd" clip-rule="evenodd"
            d="M301.072 109.924C316.701 112.134 342.012 123.836 359.382 129.472C415.455 147.667 376.325 115.895 352.833 107.627C334.498 101.173 307.325 99.0618 284.855 99.8937C284.534 103.345 291.673 103.595 301.072 109.924Z"
            fill="white" />
        <path fill-rule="evenodd" clip-rule="evenodd"
            d="M300.732 111.729C296.816 93.1667 240.834 90.2931 218.979 115.368C212.008 123.367 208.638 131.645 202.883 149.168C210.787 145.207 197.729 151.533 229.795 135.886C261.861 120.24 299.904 126.456 300.732 111.729Z"
            fill="white" />
        <path fill-rule="evenodd" clip-rule="evenodd"
            d="M413.339 196.807C406.726 193.915 397.1 195.074 390.018 199.668C385.864 202.362 382.371 208.285 411.41 216.777C413.233 217.311 419.911 220.495 423.737 219.965C431.887 218.947 424.405 201.645 413.339 196.807Z"
            fill="white" />
        <path fill-rule="evenodd" clip-rule="evenodd"
            d="M363.823 206.675C362.458 209.358 360.887 212.087 368.479 215.945C376.072 219.803 378.916 220.407 385.579 217.729C387.498 216.275 385.304 211.398 378.596 207.241C365.219 198.949 353.11 164.333 349.203 165.07C345.368 165.794 342.528 180.471 360.001 198.772C360.29 199.075 365.187 203.993 363.823 206.675Z"
            fill="white" />
        <path fill-rule="evenodd" clip-rule="evenodd"
            d="M390.405 341.811C377.405 343.038 362.386 350.063 348.158 363.55C333.929 377.038 365.63 372.911 390.9 368.126C416.17 363.341 417.309 376.489 422.918 372.497C434.961 364.159 412.157 339.758 390.405 341.811Z"
            fill="white" />
        <path fill-rule="evenodd" clip-rule="evenodd"
            d="M392.282 333.094C397.508 334.171 408.151 339.804 418.169 352.443C409.723 343.961 382.94 339.803 365.722 350.103C372.543 338.203 383.538 331.292 392.282 333.094Z"
            fill="black" />
        <path fill-rule="evenodd" clip-rule="evenodd"
            d="M261.202 178.314C274.268 174.709 284.137 171.423 290.81 168.458C302.173 163.408 305.523 156.405 313.668 150.664C319.098 146.837 321.925 149.794 322.149 159.535C318.963 185.081 311.99 199.495 301.229 202.779C291.282 205.814 272.533 199.337 259.542 181.342C258.899 180.451 259.452 179.442 261.202 178.314Z"
            fill="white" />
        <path fill-rule="evenodd" clip-rule="evenodd"
            d="M299.746 195.312C283.701 200.208 267.075 192.985 261.207 179.064C270.936 179.608 281.562 178.367 292.274 175.099C303.99 171.523 314.262 165.994 322.386 159.365C325.948 174.479 316.139 190.309 299.746 195.312Z"
            fill="black" />
        <path fill-rule="evenodd" clip-rule="evenodd"
            d="M381.118 174.911C370.835 174.368 361.343 171.496 353.362 166.955C354.085 183.19 364.902 196.334 378.818 197.069C392.404 197.786 405.582 185.461 408.488 180.472C411.395 175.483 408.474 163.381 398.164 163.858C391.182 163.132 383.4 161.491 375.392 158.905C366.531 156.044 356.191 141.455 351.671 149.258C347.151 157.061 359.066 163.699 371.422 167.688C377.914 169.784 387.614 175.254 381.118 174.911Z"
            fill="white" />
        <path fill-rule="evenodd" clip-rule="evenodd"
            d="M381.715 191.252C392.188 191.8 406.466 179.489 404.664 171.939C403.361 166.481 388.119 166.679 382.996 166.412C370.787 165.774 359.485 162.726 349.919 157.947C353.976 179.255 364.575 190.357 381.715 191.252Z"
            fill="black" />
        <path fill-rule="evenodd" clip-rule="evenodd"
            d="M308.948 189.93C300.909 192.571 291.046 194.422 279.36 195.484C285.105 196.749 289.074 197.407 291.269 197.459C316.09 198.046 327.946 201.367 329.682 211.403C330.767 220.347 308.41 235.843 316.678 243.155C324.947 250.467 345.039 251.336 346.713 251.542C340.814 245.322 337.925 238.17 340.9 231.088C343.875 224.006 346.067 219.718 355.82 218.167C355.287 218.83 346.096 214.134 340.99 205.646C335.222 196.061 336.074 185.294 329.641 182.139C323.208 178.983 321.007 185.969 308.948 189.93Z"
            fill="black" />
        <path fill-rule="evenodd" clip-rule="evenodd"
            d="M343.949 235.087C346.448 220.943 357.493 219.664 360.941 217.04C351.671 218.945 343.327 219.728 338.669 226.38C333.726 233.438 331.558 244.574 347.119 250.23C345.729 247.068 342.45 243.574 343.949 235.087Z"
            fill="white" />
        <path fill-rule="evenodd" clip-rule="evenodd"
            d="M308.639 152.503C320.177 141.41 317.308 133.722 312.617 132.082C307.927 130.441 307.907 142.798 300.245 149.606C292.465 156.455 287.825 157.522 280.945 160.564C286.13 163.043 296.498 163.767 308.639 152.503Z"
            fill="black" />
        <path fill-rule="evenodd" clip-rule="evenodd"
            d="M366.688 154.976C353.548 147.635 349.094 133.346 353.983 131.738C358.872 130.13 363.018 143.483 372.205 147.997C381.412 152.442 386.081 151.769 393.775 152.476C389.061 157.097 379.925 162 366.688 154.976Z"
            fill="black" />
    </g>
    <defs>
        <clipPath id="clip0">
            <rect width="648" height="486" fill="white" />
        </clipPath>
    </defs>
</svg>