<svg viewBox="0 0 648 400" fill="none" xmlns="http://www.w3.org/2000/svg">
    <g clip-path="url(#clip0)">
        <path fill-rule="evenodd" clip-rule="evenodd"
            d="M258.209 251.991H252.216V246.003H258.209V240H252.216V233.997H258.209V228.009H264.217V222.006H258.209V227.994H252.216V222.006H258.209V216H252.201V222.003H246.208V227.991H240.2V222.003H234.192V227.991H228.199V222.003H234.192V216H228.184V222.003H222.191V216H216.18V222.003H222.188V227.991H216.18V233.994H222.188V239.997H216.18V246H222.188V251.988V252.003H228.181V257.991H234.189V252.003H240.197V257.991H246.205V252.003H252.198V257.991H258.206V252.003H264.214V246H258.206V251.991H258.209ZM222.188 252.006V257.994H216.18V251.991H222.188V252.006ZM240.197 222.003V216H246.205V222.003H240.197ZM258.209 233.994V239.997H264.217V233.994H258.209ZM228.181 228.006H222.188V233.994H228.181V228.006ZM228.196 257.994V263.997H234.189V257.994H240.197V263.997H246.205V257.994H252.213V263.997H258.206V257.994H264.214V263.997H258.206V270H252.198V263.997H246.205V270H240.197V263.997H234.189V270H228.181V263.997H222.188V270H216.18V263.997H222.188V257.994H228.196ZM252.198 246.003V240H246.205V246.003H252.198ZM240.197 246.003V251.991H246.205V246.003H240.197ZM234.189 246.003H240.197V240H234.189V246.003ZM234.189 246.003H228.196V251.991H234.189V246.003ZM234.189 233.994H228.196V239.997H234.189V233.994ZM240.197 233.994V228.006H234.189V233.994H240.197ZM246.208 233.994H240.2V239.997H246.208V233.994ZM246.208 233.994H252.201V228.006H246.208V233.994ZM228.181 239.997V246H222.188V239.997H228.181ZM270.225 222.003H264.217V216H270.225V222.003ZM264.217 233.994H270.225V227.991H264.217V233.994ZM270.225 246.003H264.217V240H270.225V246.003ZM264.217 257.994H270.225V251.991H264.217V257.994ZM264.217 270H270.225V263.997H264.217V270Z"
            fill="#131519" />
        <path fill-rule="evenodd" clip-rule="evenodd"
            d="M528.436 251.991H522.442V246.003H528.436V240H522.442V233.997H528.436V228.009H534.443V222.006H528.436V227.994H522.442V222.006H528.436V216H522.428V222.003H516.435V227.991H510.427V222.003H504.419V227.991H498.426V222.003H504.419V216H498.41V222.003H492.418V216H486.406V222.003H492.414V227.991H486.406V233.994H492.414V239.997H486.406V246H492.414V251.988V252.003H498.407V257.991H504.415V252.003H510.423V257.991H516.432V252.003H522.425V257.991H528.433V252.003H534.441V246H528.433V251.991H528.436ZM492.414 252.006V257.994H486.406V251.991H492.414V252.006ZM510.423 222.003V216H516.432V222.003H510.423ZM528.436 233.994V239.997H534.443V233.994H528.436ZM498.407 228.006H492.414V233.994H498.407V228.006ZM498.422 257.994V263.997H504.415V257.994H510.423V263.997H516.432V257.994H522.44V263.997H528.433V257.994H534.441V263.997H528.433V270H522.425V263.997H516.432V270H510.423V263.997H504.415V270H498.407V263.997H492.414V270H486.406V263.997H492.414V257.994H498.422ZM522.425 246.003V240H516.432V246.003H522.425ZM510.423 246.003V251.991H516.432V246.003H510.423ZM504.415 246.003H510.423V240H504.415V246.003ZM504.415 246.003H498.422V251.991H504.415V246.003ZM504.415 233.994H498.422V239.997H504.415V233.994ZM510.423 233.994V228.006H504.415V233.994H510.423ZM516.435 233.994H510.427V239.997H516.435V233.994ZM516.435 233.994H522.428V228.006H516.435V233.994ZM498.407 239.997V246H492.414V239.997H498.407ZM540.451 222.003H534.443V216H540.451V222.003ZM534.443 233.994H540.451V227.991H534.443V233.994ZM540.451 246.003H534.443V240H540.451V246.003ZM534.443 257.994H540.451V251.991H534.443V257.994ZM534.443 270H540.451V263.997H534.443V270Z"
            fill="#FF3861" />
        <path fill-rule="evenodd" clip-rule="evenodd"
            d="M150.119 35.9909H144.126V30.0028H150.119V24H144.126V17.9971H150.119V12.0091H156.127V6.00623H150.119V11.9942H144.126V6.00623H150.119V0H144.111V6.00288H138.118V11.9909H132.11V6.00288H126.102V11.9909H120.109V6.00288H126.102V0H120.094V6.00288H114.101V0H108.09V6.00288H114.098V11.9909H108.09V17.9942H114.098V23.9971H108.09V30H114.098V35.988V36.0029H120.091V41.9908H126.099V36.0029H132.107V41.9908H138.115V36.0029H144.108V41.9908H150.116V36.0029H156.124V30H150.116V35.9909H150.119ZM114.098 36.0057V41.9942H108.09V35.9909H114.098V36.0057ZM132.107 6.00288V0H138.115V6.00288H132.107ZM150.119 17.9942V23.9971H156.127V17.9942H150.119ZM120.091 12.0057H114.098V17.9942H120.091V12.0057ZM120.106 41.9942V47.9971H126.099V41.9942H132.107V47.9971H138.115V41.9942H144.123V47.9971H150.116V41.9942H156.124V47.9971H150.116V54H144.108V47.9971H138.115V54H132.107V47.9971H126.099V54H120.091V47.9971H114.098V54H108.09V47.9971H114.098V41.9942H120.106ZM144.108 30.0028V24H138.115V30.0028H144.108ZM132.107 30.0028V35.9909H138.115V30.0028H132.107ZM126.099 30.0028H132.107V24H126.099V30.0028ZM126.099 30.0028H120.106V35.9909H126.099V30.0028ZM126.099 17.9942H120.106V23.9971H126.099V17.9942ZM132.107 17.9942V12.0057H126.099V17.9942H132.107ZM138.118 17.9942H132.11V23.9971H138.118V17.9942ZM138.118 17.9942H144.111V12.0057H138.118V17.9942ZM120.091 23.9971V30H114.098V23.9971H120.091ZM162.135 6.00288H156.127V0H162.135V6.00288ZM156.127 17.9942H162.135V11.9909H156.127V17.9942ZM162.135 30.0028H156.127V24H162.135V30.0028ZM156.127 41.9942H162.135V35.9909H156.127V41.9942ZM156.127 54H162.135V47.9971H156.127V54Z"
            fill="#FF3861" />
        <path fill-rule="evenodd" clip-rule="evenodd"
            d="M318.26 270H324.268V324H318.26V270ZM312.258 270H306.253V324H312.258V270ZM300.248 270H294.243V324H300.248V270ZM282.233 270H288.238V324H282.233V270ZM276.228 270H270.223V324H276.228V270Z"
            fill="#131519" />
        <path fill-rule="evenodd" clip-rule="evenodd"
            d="M324.811 155.997V162H270.766V155.997H324.811ZM324.811 150V144H270.766V150H324.811ZM324.811 138V132H270.766V138H324.811ZM324.811 120V126H270.766V120H324.811ZM324.811 114V108H270.766V114H324.811Z"
            fill="#131519" />
        <path fill-rule="evenodd" clip-rule="evenodd"
            d="M486.408 317.997V324H432.363V317.997H486.408ZM486.408 312V306H432.363V312H486.408ZM486.408 300V294H432.363V300H486.408ZM486.408 282V288H432.363V282H486.408ZM486.408 276V270H432.363V276H486.408Z"
            fill="#131519" />
        <path fill-rule="evenodd" clip-rule="evenodd"
            d="M270.225 330.003V324H216.18V330.003H270.225ZM270.225 348.006V354.009H216.18V348.006H270.225ZM270.225 366.009V360.006H216.18V366.009H270.225ZM270.225 378V371.997H216.18V378H270.225ZM270.225 336.006V342.009H216.18V336.006H270.225Z"
            fill="#131519" />
        <path fill-rule="evenodd" clip-rule="evenodd"
            d="M641.993 54.0001H647.998C647.998 24.1772 623.801 6.10352e-05 593.953 6.10352e-05V6.00007C620.486 6.00007 641.993 27.4892 641.993 54.0001ZM629.983 54.0001H635.988C635.988 30.8041 617.169 12.0001 593.953 12.0001V18.0001C613.851 18.0001 629.983 34.1189 629.983 54.0001ZM623.978 54.0001H617.973C617.973 40.7463 607.218 30.0001 593.953 30.0001V24.0001C610.536 24.0001 623.978 37.4309 623.978 54.0001ZM605.963 54.0001H611.968C611.968 44.0583 603.903 36.0001 593.953 36.0001V42.0001C600.586 42.0001 605.963 47.3732 605.963 54.0001ZM593.953 54.0001H599.958C599.958 50.6852 597.271 48.0001 593.953 48.0001V54.0001Z"
            fill="#FF3861" />
        <path fill-rule="evenodd" clip-rule="evenodd"
            d="M168.138 162H162.133C162.133 191.823 186.33 216 216.178 216V210C189.645 210 168.138 188.511 168.138 162ZM180.148 162H174.143C174.143 185.196 192.963 204 216.178 204V198C196.28 198 180.148 181.881 180.148 162ZM186.153 162H192.158C192.158 175.254 202.913 186 216.178 186V192C199.595 192 186.153 178.569 186.153 162ZM204.168 162H198.163C198.163 171.942 206.228 180 216.178 180V174C209.545 174 204.168 168.627 204.168 162ZM216.178 162H210.173C210.173 165.315 212.86 168 216.178 168V162Z"
            fill="#131519" />
        <path d="M162.133 216V270H108.088C108.088 240.177 132.285 216 162.133 216Z" fill="#FF3861" />
        <path d="M54.043 270H108.088V324C78.2402 324 54.043 299.823 54.043 270Z" fill="#131519" />
        <path d="M432.901 54V108H378.855C378.855 78.177 403.053 54 432.901 54Z" fill="#131519" />
        <path fill-rule="evenodd" clip-rule="evenodd"
            d="M168.141 53.9999H162.133V108H168.141V53.9999ZM186.159 53.9999H192.167V108H186.159V53.9999ZM204.177 53.9999H198.169V108H204.177V53.9999ZM216.178 53.9999H210.17V108H216.178V53.9999ZM174.149 53.9999H180.157V108H174.149V53.9999Z"
            fill="#FF3861" />
        <path fill-rule="evenodd" clip-rule="evenodd"
            d="M6.00796 162H0V216H6.00796V162ZM24.0261 162H30.034V216H24.0261V162ZM42.0442 162H36.0362V216H42.0442V162ZM54.0452 162H48.0372V216H54.0452V162ZM12.0159 162H18.0239V216H12.0159V162Z"
            fill="#131519" />
        <path
            d="M615.77 343.156C614.18 342.47 612.69 341.848 611.27 341.241C608.34 340.003 605.8 338.931 603.27 337.788C593.44 333.294 585.15 329.463 577.36 325.797L579.91 324.678C580.91 324.236 581.91 323.771 583.1 323.274L591.1 319.79L576.44 313.814L572.33 312.159C569.11 310.874 565.78 309.542 562.64 308.139C561.641 307.68 560.573 307.322 559.46 307.074L557.75 306.286L553.81 304.433L552.54 303.842C554.3 303.054 556.07 302.313 557.89 301.517L561.81 299.806L570.26 296.132L556 290.874C549.86 288.619 544 286.491 538.26 284.41L539.75 283.874C545.083 281.955 550.195 279.676 555.03 277.063L555.38 276.873L566.88 278.45L575.18 279.569L585.83 281.028C586.31 281.091 586.76 281.13 587.19 281.154C592.14 281.398 594.01 279.01 594.61 277.906L595.5 276.227C596.72 273.949 597.87 271.797 599.18 269.629C599.689 268.861 599.942 268.004 599.915 267.138C599.889 266.272 599.585 265.426 599.03 264.678C597.14 262.163 593.41 261.864 591.82 261.737C588.27 261.462 584.73 261.178 581.18 260.886C581.365 260.145 581.615 259.415 581.93 258.702L582.38 257.693L582.09 256.613C581.97 256.172 581.85 255.675 581.75 255.1L581.68 254.713L581.51 254.343C580.707 252.508 580.199 250.601 580 248.667L579.93 247.973L579.56 247.319C579.115 246.534 578.731 245.728 578.41 244.907L577.41 242.092L574.82 241.935C574.88 239.775 572.38 237.804 571.12 236.818L570.26 236.148L570.77 236.062C576.77 234.879 583 233.87 589.02 232.908C591.3 232.538 593.58 232.167 595.86 231.781C597.86 231.45 599.86 231.134 601.86 230.827L606.52 230.086L610.62 224.938L606.86 222.628C606.07 222.147 605.3 221.651 604.52 221.162C602.385 219.737 600.137 218.421 597.79 217.22C594.999 215.907 591.684 215.465 588.5 215.983C582.85 217.079 577.19 218.348 571.73 219.546C569.56 220.027 567.39 220.516 565.23 220.981C562.56 221.564 559.89 222.14 556.99 222.754L554.99 223.196L547.43 220.831L549.12 220.39C550.105 220.297 551.077 220.128 552.02 219.885C555.11 219.097 558.36 218.403 561.51 217.709L565.51 216.818L585.44 212.349L571.44 208.013L568.44 207.067C566.11 206.326 564.1 205.695 561.97 205.12L562.02 204.623L550.26 201.414L563.84 197.142L556.84 192.822L556.56 192.64C555.985 192.229 555.33 191.894 554.62 191.647C553.08 191.127 551.56 190.622 550.08 190.165L548.25 189.574L548.6 189.448L545.69 188.714L545.57 188.675C543.566 187.887 541.416 187.355 539.2 187.098L534.32 185.869C533.47 185.656 532.89 185.506 532.32 185.372L519.62 182.4C511.62 180.518 503.62 178.634 495.62 176.748L492.68 176.038C485.77 174.351 483.58 174.028 479.05 177.575C478.56 177.962 477.97 178.427 477.25 178.947C477.102 179.037 476.949 179.122 476.79 179.199L476.4 179.412C475.547 179.856 474.819 180.433 474.26 181.107C472.951 181.216 471.688 181.549 470.56 182.085L468.67 183.007L467.76 182.881L462.76 182.226C459.14 181.761 455.76 181.312 452.52 180.784C450.99 180.499 449.404 180.451 447.85 180.642C446.282 179.86 444.536 179.325 442.71 179.065C442.25 178.979 441.81 178.884 441.37 178.789L440.1 178.529C441.1 177.741 442.1 176.953 443.28 176.054L451.78 169.463L422.59 165.112L420.98 165.971H420.91C420.015 165.554 419.038 165.255 418.02 165.088L414.71 164.536C410.46 163.819 406.06 163.086 401.8 162.297C397.2 161.446 393.8 162.424 391.8 165.214C389.33 168.62 386.87 171.986 384.36 175.4H383.05C378.76 175.4 374.56 175.455 370.45 175.51C370.52 175.234 370.58 174.958 370.63 174.722C370.68 174.485 370.78 174.051 370.88 173.681L372.13 169.101L362.13 168.423C358.07 168.139 354.23 167.871 350.34 167.634C348.82 167.563 344.72 167.942 343.42 170.567C342.77 171.899 342.3 173.224 341.81 174.627C341.75 174.808 341.69 174.997 341.62 175.179L340.68 175.116C338.17 174.958 335.57 174.785 333.01 174.658L310.74 175.068C310.743 174.831 310.766 174.594 310.81 174.359C311.016 173.445 310.955 172.507 310.631 171.614C310.307 170.722 309.728 169.9 308.94 169.211C307.04 167.54 304.06 166.712 300.58 166.846L293.98 167.13C284.34 167.548 274.38 167.973 264.58 168.431C262.34 168.533 260.05 168.644 258.33 169.455C256.441 168.816 254.36 168.614 252.33 168.872C247.9 169.306 243.33 169.66 238.92 170.039L235.5 170.338C234.869 170.388 234.245 170.488 233.64 170.638C233.075 170.101 232.456 169.6 231.79 169.14C231.641 168.995 231.504 168.842 231.38 168.683C230.897 168.082 230.345 167.517 229.73 166.996C228.904 166.345 227.992 165.767 227.01 165.269C226.76 165.143 226.52 165.009 226.3 164.883L224.59 163.89L195.92 166.736L204.36 173.736C205.49 174.674 206.52 175.526 207.53 176.377C206.94 176.456 206.37 176.543 205.86 176.629L204.5 176.803C201.8 177.173 198.11 177.67 197.26 180.587C196.41 183.504 199.38 185.498 201.35 186.822C202.26 187.445 203.19 188.068 204.11 188.683L195.82 189.771C194.7 188.933 193.465 188.196 192.14 187.571C191.387 187.225 190.677 186.824 190.02 186.373C189.5 186.003 188.5 185.317 187.5 184.686C186.5 184.055 185.83 183.598 185.37 183.283C182.681 181.553 179.877 179.937 176.97 178.442C175.864 177.858 174.619 177.456 173.31 177.26C172.741 176.572 172.02 175.972 171.18 175.486L170.78 175.25C170.649 175.184 170.522 175.113 170.4 175.037C169.66 174.461 169.08 173.973 168.6 173.563C163.97 169.684 161.6 169.921 154.83 171.237L151.9 171.797C143.953 173.284 136 174.766 128.04 176.243L115.38 178.608L108.5 179.988C106.322 180.128 104.189 180.554 102.19 181.249L102.02 181.296L99.5 181.809L99.8 181.935L97.69 182.51C96.1833 182.915 94.6767 183.335 93.17 183.772C92.5078 183.974 91.8927 184.262 91.35 184.623L91.06 184.796L84.2 188.699L97.99 193.657L86.24 196.29V196.795H86.02C83.89 197.26 81.88 197.796 79.56 198.419L76.56 199.207L62.88 202.833L87 209.447C90.13 210.291 93.36 211.174 96.43 212.096C97.4004 212.395 98.405 212.62 99.43 212.766L100.78 213.192L97.86 213.98C96.63 213.618 95.4 213.192 94.14 212.798L92.14 212.136L86.32 213.949C82.79 215.037 79.11 216.172 75.5 217.417L75.08 217.559L74.71 217.772C72.3 219.105 69.98 220.492 67.71 221.864C65.95 222.912 64.01 223.976 61.78 225.104L61.14 225.427L59.8 226.759C58.78 227.768 57.7633 228.783 56.75 229.802L56.52 230.054C55.4 231.418 54.44 232.687 53.58 233.933C53.21 234.477 52.74 235.076 52.18 235.738C50.7101 235.8 49.3119 236.259 48.2196 237.036C47.1272 237.814 46.4072 238.865 46.18 240.011L45.77 241.871C45.23 244.3 44.68 246.806 44.01 249.242C43.9371 249.503 43.8804 249.766 43.84 250.031C40.8907 249.894 37.9531 249.631 35.04 249.242L33.04 248.951L30.98 250.086L30.21 250.512L28.5 251.489L28.28 253.216C28.09 254.666 27.86 255.92 27.57 257.071C27.08 259.026 26.67 261.012 26.32 263.196V263.511C26.22 265.206 26.13 266.893 26.05 268.588L25.94 270.795L26.35 271.584C27.2706 273.384 28.052 275.227 28.69 277.102C29.49 279.467 30.32 281.911 31.3 284.299L31.57 284.97L32.11 285.545C34.42 287.965 36.92 290.204 39.33 292.372C40.19 293.16 41.06 293.949 41.91 294.737L44.31 296.936L45.64 296.558L45.12 297.756L48.41 299.569C49.28 300.05 50.13 300.539 50.98 301.028C53.2981 302.406 55.7155 303.677 58.22 304.835C59.8501 305.528 61.6515 305.935 63.5 306.026C64.9287 306.113 66.3644 305.957 67.71 305.569C72.71 304.031 77.71 302.336 82.5 300.689L85.88 299.538L89.3 301.115L93.13 302.896L97.94 305.119L96.22 305.868L92.14 307.658L90.26 308.446C89.1655 308.656 88.1101 308.976 87.12 309.4C83.88 310.748 80.46 312.025 77.12 313.255C75.72 313.78 74.3233 314.306 72.93 314.831L58.39 320.35L66.71 324.189C67.83 324.701 68.86 325.19 69.83 325.647L71.83 326.609C63.73 330.157 55.08 333.893 44.76 338.276C42.19 339.372 39.6 340.389 36.6 341.564L31.95 343.401L24 346.554L32.1 350.298C34.17 351.26 36.18 352.175 38.1 353.058C42.15 354.894 45.98 356.637 49.62 358.473L30.01 368.201L36.65 371.67C38.6166 372.686 40.9293 373.206 43.28 373.16C43.9089 373.159 44.5369 373.124 45.16 373.058H45.41C48.36 374.161 51.23 375.423 53.41 376.455C56.0767 377.69 58.7433 378.938 61.41 380.2C65.19 381.974 69.09 383.802 72.99 385.56C74.2505 386.09 75.6568 386.367 77.085 386.367C78.5132 386.367 79.9195 386.09 81.18 385.56C84.8324 383.937 88.3465 382.128 91.7 380.145C98.01 376.258 104.23 372.261 110.24 368.462L117.11 364.078L117.54 363.81L119.28 364.402C127.613 367.255 135.947 370.117 144.28 372.987C145.43 373.381 146.42 373.775 147.28 374.043L147.72 374.201C146.67 374.989 145.62 375.777 144.59 376.566C141.77 378.702 139.12 380.712 140.19 383.661C141.26 386.609 144.87 387.429 147.52 388.067C156.91 390.306 166.52 392.537 175.75 394.689L182.45 396.266C183.267 396.459 184.109 396.578 184.96 396.621C187.268 396.72 189.554 396.229 191.479 395.22C193.403 394.211 194.863 392.739 195.64 391.024C196.403 389.555 197.38 388.161 198.55 386.869L199.7 385.592L220.84 389.936L222.31 388.698C223.068 389.096 223.897 389.401 224.77 389.605L228.17 390.393C232.57 391.426 237.17 392.498 241.51 393.649C242.441 393.899 243.409 394.056 244.39 394.114C247.22 394.248 250.58 393.412 252.51 389.384C255.34 383.487 258.17 377.661 261.05 371.741H262.16C266.88 371.583 271.47 371.37 275.98 371.134C275.952 371.183 275.929 371.233 275.91 371.284C275.413 372.692 275.078 374.132 274.91 375.588C274.81 376.171 274.71 376.794 274.58 377.456L273.73 381.8L279.37 382.234L283.5 382.557C287.71 382.888 291.69 383.203 295.75 383.424H295.8C298.62 383.558 302.17 382.084 302.99 379.64C303.67 377.606 304.16 375.604 304.73 373.286C304.92 372.498 305.12 371.709 305.34 370.842L306.11 370.898C308.73 371.087 311.43 371.276 314.11 371.41L315.18 371.465L315.31 371.796L318 371.599H318.69V371.512L337.3 370.172C337.515 371.578 337.515 373 337.3 374.406C337.033 375.623 337.131 376.873 337.586 378.056C338.041 379.238 338.84 380.321 339.92 381.217C341.523 382.475 343.661 383.219 345.92 383.306C346.604 383.338 347.29 383.32 347.97 383.251L354.89 382.588C364.89 381.611 375.33 380.602 385.56 379.561C387.77 379.333 390.21 379.08 392 377.985C393.045 378.394 394.185 378.632 395.35 378.686C396.409 378.73 397.469 378.653 398.5 378.458C403.11 377.614 407.87 376.881 412.5 376.14L416.08 375.58C416.46 375.522 416.834 375.443 417.2 375.344C417.658 376.02 418.176 376.671 418.75 377.291C419.053 377.678 419.301 378.091 419.49 378.521C419.881 379.337 420.353 380.127 420.9 380.886C421.65 381.802 422.522 382.653 423.5 383.424C423.75 383.637 424 383.842 424.23 384.055L426.35 385.97L447.52 382.029L448.3 382.959C449.367 384.229 450.24 385.595 450.9 387.027C451.593 388.733 452.914 390.239 454.694 391.354C456.474 392.468 458.634 393.14 460.9 393.286C462.085 393.339 463.273 393.243 464.42 393.002L471.04 391.599C480.4 389.62 490.09 387.571 499.57 385.505C502.35 384.906 505.79 384.157 506.57 381.335C507.35 378.513 504.74 376.313 502.17 374.24C501.17 373.452 500.23 372.663 499.25 371.875L500.39 371.497C501.28 371.205 502.29 370.866 503.46 370.495C511.8 367.815 520.153 365.145 528.52 362.486L541.78 358.261C542.4 358.063 543.01 357.851 543.9 357.535L548.9 355.817C550.81 355.635 552.9 354.847 555.71 353.491C556.95 352.892 558.49 352.151 560.44 351.292C562 350.606 563.6 349.865 565.2 349.092C565.411 348.995 565.612 348.884 565.8 348.761L565.94 348.832C567.68 349.739 569.44 350.63 571.19 351.52C575.19 353.523 578.9 355.415 582.49 357.527C584.644 358.881 587.256 359.704 590 359.892C592.663 359.979 595.293 359.406 597.52 358.253C601.52 356.345 605.66 354.571 610.08 352.679C612.08 351.836 614.08 350.969 616.21 350.046L624 346.656L615.77 343.156Z"
            fill="black" stroke="black" stroke-width="17" stroke-linejoin="round" />
        <path
            d="M212.148 199.506C215.438 201.241 218.148 202.817 221.238 204.173C222.088 204.552 224.118 204.386 225.488 204.26C231.328 203.684 237.098 202.967 242.958 202.439C248.818 201.911 254.718 201.54 260.568 201.162C262.568 201.028 263.568 200.673 262.078 199.585C261.703 199.327 261.349 199.051 261.018 198.757C256.758 194.626 258.878 194.95 249.118 195.904C237.905 197.007 226.685 198.098 215.458 199.175C214.648 199.222 213.848 199.317 212.148 199.506Z"
            fill="#C4C3C6" />
        <path
            d="M82.5195 201.374L88.5195 203.022C93.0495 204.268 97.6395 205.466 102.09 206.798C104.28 207.46 105.92 207.586 107.74 206.798C109.472 206.121 111.247 205.516 113.06 204.985C106.67 202.935 100.83 201.043 94.9195 199.207C93.9272 198.933 92.8597 198.876 91.8295 199.041C88.9595 199.624 86.2895 200.373 82.5195 201.374Z"
            fill="white" />
        <path
            d="M493.04 299.577C491.17 300.365 489.3 301.153 487.46 302.021C487.378 302.06 487.291 302.092 487.2 302.115L467.9 306.845C467.598 306.917 467.275 306.91 466.979 306.825C466.684 306.74 466.431 306.581 466.26 306.372C462.54 301.965 457.14 298.812 453.26 294.24C452.72 293.593 452.41 291.961 453.32 291.764C454.67 291.457 456.06 290.361 457.25 290.085C468.65 287.46 472.5 285.292 483.9 282.667C484.49 282.533 491.17 279.853 491.75 279.939C494.32 280.326 498.75 281.516 504.08 284.874C506.08 286.104 512.66 287.704 516.84 289.604C517.081 289.709 517.279 289.867 517.41 290.058C517.54 290.249 517.598 290.466 517.576 290.683C517.554 290.899 517.452 291.106 517.285 291.278C517.117 291.451 516.89 291.581 516.63 291.654C510.04 293.278 496.04 298.497 493.11 299.537L493.04 299.577Z"
            fill="white" />
        <path
            d="M383.29 346.333L343.23 349.935C344.36 356.187 345.51 362.107 346.46 368.067C346.755 369.88 346.755 371.716 346.46 373.53C346.01 376.273 347.86 378.039 351.25 377.708C363.77 376.494 376.25 375.296 388.8 374.019C394.06 373.483 394.29 373.104 392.42 369.163C390.8 365.773 389.05 362.415 387.42 359.04C387.057 358.268 386.756 357.478 386.52 356.675C385.39 353.191 384.34 349.746 383.29 346.333Z"
            fill="#C4C3C6" />
        <path
            d="M376.352 327.168C383.092 341.934 389.622 356.163 396.052 370.408C397.002 372.521 398.242 373.498 401.192 372.954C407.052 371.874 412.982 370.984 418.902 370.053C421.062 369.706 421.162 368.666 420.352 367.302C418.662 364.464 416.932 361.65 415.222 358.82C410.732 351.394 406.312 343.936 401.732 336.541C399.732 333.388 397.552 330.235 395.232 327.223C394.89 326.815 394.439 326.47 393.91 326.214C393.382 325.958 392.788 325.797 392.172 325.741C387.202 326.041 382.272 326.608 376.352 327.168Z"
            fill="#C4C3C6" />
        <path
            d="M271.722 345.489C264.972 359.372 258.422 372.742 251.982 386.143C250.982 388.13 249.822 388.989 246.982 388.248C241.392 386.774 235.732 385.489 230.092 384.149C228.022 383.66 227.952 382.635 228.762 381.374C230.432 378.733 232.152 376.116 233.852 373.491C238.302 366.585 242.682 359.647 247.222 352.781C249.172 349.833 251.342 346.971 253.632 344.188C253.972 343.81 254.421 343.502 254.943 343.289C255.465 343.077 256.045 342.966 256.632 342.966C261.392 343.605 266.102 344.512 271.722 345.489Z"
            fill="#C4C3C6" />
        <path
            d="M323.43 349.005C332.84 348.217 341.27 347.476 349.69 346.727C351.09 346.601 352.46 346.301 353.86 346.128C358.86 345.513 359.33 344.985 358.31 340.87C356.45 333.451 354.5 326.041 352.64 318.615C352.03 316.171 350.59 315.115 347.25 315.359C340.46 315.848 333.61 315.95 326.8 316.368C325.8 316.431 324.17 317.243 324.13 317.819C323.79 322.178 323.74 326.561 323.65 330.937C323.65 332.789 323.75 334.657 323.72 336.51C323.66 340.42 323.54 344.322 323.43 349.005Z"
            fill="white" />
        <path
            d="M320.721 344.33C309.861 344.567 299.421 344.819 288.991 345C285.901 345.055 282.791 344.921 279.691 344.811C276.981 344.716 274.211 344.811 273.241 347.176C270.731 353.23 268.491 359.348 265.871 366.143C275.131 365.844 283.871 365.316 292.601 364.795C301.061 364.299 309.751 365.426 318.311 365.828C319.141 358.244 319.891 351.543 320.721 344.33Z"
            fill="#C4C3C6" />
        <path
            d="M321.081 323.014L298.841 323.211C297.841 323.211 296.771 323.25 295.741 323.211C287.141 322.832 286.561 323.479 285.161 330.59C284.521 333.861 282.491 336.896 281.161 340.05C280.761 340.964 280.501 341.91 280.031 343.25C284.081 343.124 287.521 343.014 290.961 342.927C299.961 342.69 308.961 342.541 317.901 342.139C318.542 342.002 319.126 341.734 319.595 341.364C320.063 340.993 320.4 340.532 320.571 340.026C320.901 334.437 320.931 328.792 321.081 323.014Z"
            fill="white" />
        <path
            d="M410.099 320.042L402.429 309.793L354.359 315.312C355.359 319.001 356.359 322.864 357.559 327.239L409.499 321.208L410.099 320.042Z"
            fill="white" />
        <path
            d="M254.441 317.046L264.371 304.535C285.221 307.255 299.601 306.112 319.121 306.49C320.811 306.49 322.121 307.894 321.991 309.447C321.671 313.089 322.421 317.078 321.091 321.145C299.601 320.357 275.891 321.934 255.041 318.402L254.441 317.046Z"
            fill="white" />
        <path
            d="M567.569 343.061C560.449 339.206 553.569 335.517 546.809 331.804C542.149 329.265 537.449 326.758 532.909 324.086C530.849 322.872 529.039 322.564 526.839 323.463C524.639 324.362 522.399 325 520.259 325.883C516.929 327.255 516.829 329.037 520.069 331.094C527.339 335.785 534.529 340.554 542.019 345.008C553.839 352.024 549.559 351.583 561.879 346.143C563.439 345.458 564.969 344.748 566.489 344.015C566.799 343.905 566.999 343.613 567.569 343.061Z"
            fill="#C4C3C6" />
        <path
            d="M325.199 314.941C350.039 313.199 374.979 311.638 399.509 308.004C399.349 303.802 396.779 301.816 392.249 302.218C371.669 304.031 351.092 305.844 330.519 307.657C324.009 308.225 323.339 309.005 325.199 314.941Z"
            fill="#C4C3C6" />
        <path
            d="M559.49 307.988C555.05 305.923 551.62 304.267 548.13 302.706C545.05 301.335 541.84 300.16 538.8 298.765C536.32 297.598 534.34 297.354 531.75 298.725C528.09 300.68 523.87 301.973 520 303.7C519.269 304.061 518.662 304.559 518.234 305.15C517.805 305.741 517.569 306.406 517.545 307.086C517.521 307.766 517.711 308.441 518.097 309.049C518.484 309.658 519.055 310.181 519.76 310.574C524.11 313.112 528.56 315.548 533.06 317.898C533.525 318.133 534.051 318.284 534.599 318.34C535.147 318.396 535.704 318.355 536.23 318.221C543.72 315.02 551.09 311.701 559.49 307.988Z"
            fill="#C4C3C6" />
        <path
            d="M531.271 319.569C527.051 317.259 523.811 315.414 520.461 313.672C517.511 312.143 514.351 310.826 511.461 309.242C509.091 307.941 507.001 307.665 503.721 309.242C499.071 311.433 494.031 312.884 489.231 314.839C485.301 316.415 483.991 320.546 486.781 322.541C490.781 325.379 494.891 328.059 499.101 330.724C499.587 330.989 500.146 331.16 500.732 331.221C501.318 331.283 501.914 331.234 502.471 331.078C511.721 327.484 520.861 323.755 531.271 319.569Z"
            fill="#C4C3C6" />
        <path
            d="M478.379 317.787C474.379 315.627 473.919 313.475 470.739 311.835C467.949 310.393 468.589 309.723 465.859 308.241C463.629 307.034 461.559 306.625 458.139 307.452C453.309 308.682 448.139 309.305 443.139 310.338C439.069 311.173 437.379 314.185 439.969 315.958C443.669 318.497 447.519 320.956 451.469 323.353C452.449 323.866 453.634 324.076 454.799 323.944C464.369 322.139 467.599 319.979 478.379 317.787Z"
            fill="#C4C3C6" />
        <path
            d="M398.52 301.39C402.87 307.326 406.91 313.042 411.3 318.584C411.94 319.372 414.38 319.876 415.75 319.679C423.24 318.591 430.65 317.243 438.46 315.927L427.09 305.347C426.14 304.472 424.84 303.771 424.24 302.738C421.62 298.402 417.49 298.111 412.49 299.128C408.08 300.026 403.54 300.594 398.52 301.39Z"
            fill="white" />
        <path
            d="M449.45 325.19C446.09 322.47 443.33 319.963 440.17 317.842C439.29 317.251 437.17 317.582 435.75 317.842C429.63 318.954 423.6 320.31 417.46 321.358C411.32 322.407 405.22 323.179 399.07 324.015C396.94 324.307 395.92 324.914 397.43 326.664C397.824 327.082 398.184 327.519 398.51 327.972C402.77 334.602 400.58 334.137 410.78 332.269C422.51 330.125 434.25 328.02 445.99 325.891C446.83 325.718 447.72 325.552 449.45 325.19Z"
            fill="#C4C3C6" />
        <path
            d="M547.499 351.654C543.499 349.1 540.099 346.703 536.349 344.787C535.349 344.251 532.999 344.929 531.438 345.426C524.778 347.554 518.249 349.951 511.559 352.009C504.869 354.066 498.179 355.824 491.459 357.653C489.129 358.292 488.069 359.111 489.939 360.854C490.427 361.264 490.878 361.702 491.289 362.162C496.799 368.958 494.289 368.753 505.409 365.182C518.179 361.082 530.969 357.03 543.739 352.947C544.659 352.655 545.559 352.324 547.499 351.654Z"
            fill="white" />
        <path
            d="M531.82 296.747C528.46 294.027 524.9 293.317 521.82 291.93C520.82 291.481 470.82 309.352 470.82 309.352L479.98 316.62C479.98 316.62 530.04 297.109 531.82 296.747Z"
            fill="white" />
        <path
            d="M531.32 322.013C537.6 325.45 543.32 328.603 549.04 331.693C549.359 331.863 549.721 331.976 550.101 332.025C550.481 332.074 550.869 332.058 551.24 331.977C557.78 329.612 564.24 327.113 570.76 324.661C570.76 324.291 570.76 323.912 570.76 323.534C567.82 322.091 564.89 320.625 561.93 319.206C560.8 318.67 559.39 318.418 558.47 317.724C552.89 313.499 547.75 314.153 542.23 317.495C539.14 319.332 535.34 320.381 531.32 322.013Z"
            fill="white" />
        <path
            d="M534.642 284.283C532.272 283.495 529.882 282.762 527.512 281.966C520.642 279.648 513.692 277.464 506.952 274.918C503.952 273.775 501.612 273.854 499.072 275.265C497.132 276.353 495.002 277.22 492.352 278.473C496.202 280.05 499.442 281.335 502.662 282.651C508.842 285.19 514.952 287.839 521.222 290.188C522.003 290.41 522.835 290.503 523.664 290.461C524.493 290.419 525.302 290.243 526.042 289.943C529.172 288.595 532.042 286.837 534.982 285.214L534.642 284.283Z"
            fill="white" />
        <path
            d="M381.651 344.031C379.331 338.426 377.441 333.664 375.351 328.966C375.12 328.591 374.779 328.265 374.356 328.014C373.934 327.763 373.442 327.595 372.921 327.523C368.181 327.783 363.471 328.311 358.211 328.737C358.671 331 359.071 333.002 359.491 335.044C359.971 337.409 360.621 339.719 360.931 342.068C361.201 344.141 361.761 345.308 364.931 345C370.261 344.449 375.641 344.346 381.651 344.031Z"
            fill="white" />
        <path
            d="M526 292.025C533.36 295.28 539.64 298.087 546 300.807C546.391 300.978 546.824 301.084 547.27 301.116C547.716 301.149 548.165 301.108 548.59 300.996C553.27 299.072 557.87 297.054 563.31 294.689C554.99 291.638 547.52 288.879 540.02 286.191C539.672 286.07 539.295 286.008 538.915 286.008C538.535 286.008 538.158 286.07 537.81 286.191C534.04 287.917 530.38 289.817 526 292.025Z"
            fill="white" />
        <path
            d="M342.042 364.504C341.772 361.76 341.532 359.505 341.322 357.251C341.112 354.996 340.942 352.781 340.712 349.982C335.772 350.132 330.532 350.124 325.362 350.519C322.752 350.716 321.222 355.375 322.042 358.638C322.382 360.026 321.832 361.508 321.982 362.935C322.204 363.941 322.559 364.927 323.042 365.875L342.042 364.504Z"
            fill="white" />
        <path
            d="M422.569 364.496C431.439 362.722 439.389 361.145 447.309 359.537C448.629 359.269 449.819 358.851 451.099 358.544C455.669 357.432 455.869 356.896 452.449 353.27C446.279 346.727 440.019 340.207 433.849 333.664C431.849 331.504 429.769 330.708 426.599 331.299C420.139 332.489 413.399 333.341 406.879 334.452C405.879 334.61 404.789 335.532 405.079 336.029C407.279 340.026 409.789 344.023 412.249 348.012C413.299 349.699 414.519 351.378 415.569 353.065C417.789 356.668 419.949 360.231 422.569 364.496Z"
            fill="white" />
        <path
            d="M483.799 355.998C484.228 356.388 484.793 356.671 485.424 356.812C486.055 356.952 486.725 356.943 487.349 356.786C494.069 354.878 497.799 352.844 504.349 351.126C505.559 350.818 506.649 350.416 507.819 350.077C512.009 348.879 512.179 348.501 508.959 346.254C503.169 342.233 498.959 336.896 493.179 332.852C491.269 331.528 487.679 332.505 484.769 333.207C478.849 334.642 472.669 335.864 466.689 337.259C465.819 337.464 464.789 338.213 465.059 338.552C467.159 341.161 468.679 341.413 471.059 343.983C472.059 345.071 474.779 347.791 475.779 348.879C478.29 351.363 480.967 353.739 483.799 355.998Z"
            fill="#C4C3C6" />
        <path d="M491.72 328.643L478.14 320.2L433.66 330.527L443.79 341.019L491.84 329.825L491.72 328.643Z"
            fill="#C4C3C6" />
        <path
            d="M477.46 353.577C471.9 348.729 467.25 344.614 462.46 340.57C461.568 339.935 460.422 339.566 459.22 339.529C454.66 340.318 450.27 341.248 445.32 342.249L450.24 347.815C452.09 349.888 454.1 351.938 455.77 354.043C457.25 355.895 458.49 356.896 461.49 356.258C466.41 355.209 471.72 354.523 477.46 353.577Z"
            fill="#C4C3C6" />
        <path
            d="M532.95 342.549C526.43 337.984 520.95 334.106 515.35 330.314C514.366 329.732 513.147 329.452 511.92 329.525C507.58 330.795 503.43 332.261 498.73 333.83C500.91 335.769 502.83 337.495 504.73 339.214C506.99 341.224 509.4 343.156 511.5 345.245C513.35 347.058 514.78 347.988 517.61 347.011C522.34 345.426 527.42 344.141 532.95 342.549Z"
            fill="white" />
        <path
            d="M450.092 376.541C448.212 374.082 446.662 372.056 445.142 370.022C443.622 367.988 442.142 366.001 440.292 363.487C435.482 364.165 430.292 364.732 425.372 365.662C422.902 366.128 424.102 370.526 426.812 373.412C427.962 374.634 428.282 376.045 429.252 377.353C430.085 378.265 431.012 379.122 432.022 379.915L450.092 376.541Z"
            fill="#C4C3C6" />
        <path
            d="M421.492 297.756C426.492 302.486 430.602 306.908 435.552 310.566C436.882 311.552 440.132 309.841 442.792 309.257C443.622 309.076 460.002 306.049 460.022 305.111C460.022 301.721 451.662 296.644 450.172 294.074C449.422 292.797 443.532 293.467 440.642 293.995C434.562 295.123 428.522 296.368 421.492 297.756Z"
            fill="white" />
        <path
            d="M282.419 330.361C276.329 330.069 270.819 329.77 265.309 329.573C264.919 329.634 264.553 329.764 264.238 329.954C263.922 330.144 263.666 330.388 263.489 330.668C261.819 333.349 260.339 336.108 258.699 338.796C257.699 340.46 258.629 341.342 260.589 341.461C265.742 341.787 270.899 341.994 276.059 342.083C276.504 342.008 276.919 341.848 277.268 341.617C277.616 341.386 277.888 341.092 278.059 340.759C279.599 337.424 280.919 334.011 282.419 330.361Z"
            fill="white" />
        <path
            d="M584.58 318.15L578.44 315.643C573.77 313.743 569.03 311.93 564.44 309.88C562.18 308.871 560.44 308.721 558.54 310.117C556.757 311.261 554.883 312.314 552.93 313.27C559.51 316.423 565.51 319.356 571.6 322.162C572.09 322.365 572.629 322.485 573.182 322.515C573.734 322.545 574.289 322.484 574.81 322.336C577.8 321.209 580.62 319.868 584.58 318.15Z"
            fill="#C4C3C6" />
        <path
            d="M304.629 367.988C298.279 368.24 292.799 368.359 287.359 368.776C286.359 368.855 285.269 370.093 284.909 370.999C284.342 372.849 283.938 374.727 283.699 376.62C289.369 377.054 294.699 377.511 299.959 377.811C300.432 377.802 300.895 377.699 301.304 377.511C301.713 377.324 302.055 377.058 302.299 376.738C303.179 374.113 303.719 371.441 304.629 367.988Z"
            fill="white" />
        <path
            d="M165.902 302.391C167.732 303.219 169.572 304.054 171.382 304.937L171.642 305.04L190.782 310.156C191.084 310.231 191.41 310.228 191.71 310.147C192.011 310.066 192.27 309.912 192.452 309.707C196.452 305.379 201.992 302.336 206.082 297.842C206.662 297.204 207.082 295.58 206.152 295.359C204.812 295.036 203.472 293.909 202.282 293.609C190.972 290.755 187.212 288.516 175.902 285.671C175.302 285.521 168.742 282.706 168.152 282.785C165.552 283.116 161.082 284.22 155.532 287.515C153.532 288.706 146.772 290.172 142.532 292.009C142.284 292.106 142.078 292.257 141.937 292.445C141.797 292.632 141.728 292.848 141.74 293.066C141.751 293.283 141.843 293.494 142.003 293.671C142.163 293.849 142.385 293.986 142.642 294.066C149.122 295.761 162.922 301.28 165.822 302.352L165.902 302.391Z"
            fill="white" />
        <path
            d="M88.9102 344.409C96.2502 340.696 103.29 337.141 110.31 333.57C115.12 331.118 119.96 328.713 124.66 326.128C126.78 324.953 128.66 324.685 130.78 325.623C132.9 326.561 135.16 327.247 137.27 328.17C140.54 329.612 140.55 331.323 137.2 333.388C129.67 337.937 122.2 342.564 114.47 346.861C102.26 353.64 106.58 353.278 94.4702 347.602C92.9502 346.882 91.4435 346.143 89.9502 345.387C89.5544 345.095 89.2052 344.767 88.9102 344.409Z"
            fill="white" />
        <path
            d="M98.7695 309.478C103.32 307.499 106.85 305.915 110.43 304.425C113.59 303.116 116.87 302.005 120 300.641C122.55 299.529 124.55 299.324 127.08 300.751C130.66 302.769 134.83 304.149 138.62 305.954C141.73 307.436 141.68 311.11 138.53 312.829C134.04 315.28 129.45 317.622 124.81 319.884C124.333 320.11 123.8 320.251 123.246 320.296C122.693 320.341 122.134 320.289 121.61 320.144C114.26 316.818 107.02 313.357 98.7695 309.478Z"
            fill="#C4C3C6" />
        <path
            d="M125.051 321.713C129.461 319.529 132.841 317.771 136.351 316.14C139.431 314.689 142.771 313.467 145.791 311.969C148.251 310.74 150.521 310.519 154.241 312.135C159.521 314.413 165.161 315.982 170.581 318.032C175.011 319.703 176.811 323.818 173.941 325.718C169.841 328.43 165.581 331.023 161.211 333.522C160.665 333.779 160.053 333.936 159.42 333.984C158.787 334.032 158.149 333.968 157.551 333.798C147.151 330.03 136.801 326.112 125.051 321.713Z"
            fill="white" />
        <path
            d="M179.719 320.877C183.829 318.796 184.409 316.652 187.719 315.075C190.599 313.688 189.989 313.01 192.799 311.583C195.099 310.424 197.199 310.054 200.579 310.992C205.379 312.308 210.579 313.041 215.479 314.145C219.479 315.067 221.069 318.087 218.379 319.829C214.539 322.289 210.549 324.669 206.469 326.987C205.461 327.482 204.259 327.67 203.089 327.515C193.569 325.505 190.429 323.282 179.719 320.877Z"
            fill="white" />
        <path
            d="M263.981 303.944C258.271 310.472 252.911 316.762 247.251 322.864C246.421 323.747 243.851 324.259 242.511 324.015C235.181 322.699 227.981 321.09 220.371 319.506C225.301 315.375 229.751 311.623 234.211 307.925C235.361 306.963 236.831 306.167 237.661 305.071C241.271 300.286 245.511 300.026 250.341 301.232C254.611 302.289 259.081 302.982 263.981 303.944Z"
            fill="white" />
        <path
            d="M208.398 328.871C211.908 326.222 214.798 323.771 218.078 321.713C218.988 321.146 221.078 321.516 222.518 321.8C228.598 323.03 234.588 324.512 240.698 325.671C246.808 326.829 252.908 327.736 259.028 328.698C261.158 329.029 262.148 329.652 260.558 331.37C260.139 331.781 259.755 332.213 259.408 332.663C254.798 339.206 257.018 338.781 246.868 336.715C235.198 334.35 223.508 331.985 211.868 329.62C210.998 329.455 210.168 329.25 208.398 328.871Z"
            fill="#C4C3C6" />
        <path
            d="M108.641 353.364C112.831 350.889 116.321 348.556 120.181 346.719C121.251 346.206 123.531 346.932 125.071 347.46C131.651 349.714 138.071 352.237 144.711 354.429C151.351 356.62 157.951 358.512 164.611 360.467C166.921 361.153 167.941 361.989 165.981 363.692C165.468 364.095 164.993 364.527 164.561 364.984C158.691 371.654 161.201 371.504 150.231 367.72C137.611 363.368 124.984 359.038 112.351 354.728C111.441 354.413 110.551 354.098 108.641 353.364Z"
            fill="white" />
        <path
            d="M127.102 298.796C130.612 296.14 134.222 295.501 137.382 294.169C138.382 293.743 187.742 312.6 187.742 312.6L178.182 319.695C178.182 319.695 128.872 299.19 127.102 298.796Z"
            fill="white" />
        <path
            d="M126.351 324.054C119.881 327.373 114.011 330.408 108.091 333.38C107.762 333.542 107.393 333.648 107.009 333.69C106.625 333.732 106.234 333.71 105.861 333.625C99.4111 331.11 93.0311 328.508 86.6211 325.931C86.6211 325.552 86.6911 325.142 86.7211 324.795C89.7211 323.408 92.7211 322.005 95.8011 320.649C96.9611 320.129 98.3911 319.908 99.3511 319.23C105.161 315.123 110.291 315.879 115.671 319.324C118.631 321.216 122.401 322.344 126.351 324.054Z"
            fill="#C4C3C6" />
        <path
            d="M124.89 286.301C127.31 285.576 129.75 284.874 132.16 284.126C139.16 281.942 146.26 279.9 153.16 277.488C156.25 276.408 158.57 276.534 161.05 277.992C162.94 279.112 165.05 280.026 167.63 281.327C163.69 282.809 160.38 284.047 157.08 285.308C150.75 287.673 144.49 290.243 138.08 292.474C137.287 292.68 136.45 292.755 135.619 292.695C134.788 292.636 133.982 292.442 133.25 292.127C130.17 290.716 127.41 288.903 124.52 287.255L124.89 286.301Z"
            fill="white" />
        <path
            d="M133.181 294.185C125.631 297.291 119.181 299.971 112.701 302.564C112.302 302.727 111.866 302.822 111.418 302.845C110.971 302.868 110.522 302.818 110.101 302.698C105.491 300.68 100.981 298.544 95.6406 296.069C104.141 293.191 111.771 290.55 119.441 288.036C119.791 287.914 120.168 287.852 120.551 287.852C120.933 287.852 121.311 287.914 121.661 288.036C125.321 289.928 128.891 291.89 133.181 294.185Z"
            fill="#C4C3C6" />
        <path
            d="M175.78 358.52L213.23 366.94C208.16 372.403 203.29 377.566 198.6 382.777C197.22 384.3 196.073 385.946 195.18 387.681C193.89 390.203 190.95 391.543 187.8 390.834C176.15 388.122 164.49 385.426 152.9 382.659C148.03 381.5 148.04 381.122 152.38 377.834C156.12 375.004 159.97 372.221 163.74 369.399C164.6 368.753 165.38 368.067 166.14 367.373C169.38 364.401 172.59 361.445 175.78 358.52Z"
            fill="#C4C3C6" />
        <path
            d="M233.442 368.666C224.622 366.719 216.722 364.985 208.852 363.227C207.532 362.935 206.362 362.486 205.092 362.154C200.552 360.956 200.382 360.42 204.002 356.857C210.512 350.44 217.122 344.047 223.642 337.63C225.792 335.509 227.882 334.752 231.042 335.399C237.462 336.715 244.192 337.7 250.682 338.954C251.622 339.135 252.682 340.081 252.412 340.602C250.002 344.543 247.292 348.485 244.612 352.426C243.482 354.098 242.172 355.745 241.032 357.409C238.622 360.933 236.282 364.456 233.442 368.666Z"
            fill="white" />
        <path
            d="M172.391 358.962C171.937 359.338 171.355 359.603 170.715 359.726C170.075 359.849 169.404 359.824 168.781 359.655C162.131 357.606 158.481 355.477 151.951 353.656C150.751 353.325 149.681 352.868 148.521 352.537C144.371 351.26 144.221 350.858 147.521 348.698C153.521 344.756 158.011 339.537 164.031 335.635C166.031 334.35 169.571 335.399 172.461 336.163C178.331 337.74 184.461 339.056 190.411 340.562C191.271 340.783 192.271 341.555 191.981 341.894C189.741 344.449 188.211 344.677 185.731 347.2C184.681 348.272 181.811 350.929 180.731 351.993C178.109 354.43 175.325 356.756 172.391 358.962Z"
            fill="white" />
        <path
            d="M168.719 331.236C172.909 328.706 175.139 326.136 179.069 323.7C179.299 323.563 179.567 323.472 179.851 323.435C180.135 323.398 180.426 323.416 180.699 323.487L221.269 333.79C221.566 333.861 221.836 333.988 222.057 334.16C222.277 334.332 222.441 334.543 222.534 334.777C222.626 335.01 222.645 335.257 222.589 335.498C222.532 335.738 222.402 335.964 222.209 336.155L214.009 344.039C213.781 344.255 213.477 344.412 213.134 344.489C212.791 344.567 212.427 344.561 212.089 344.472C196.959 340.633 183.899 337.511 169.359 333.822C169.116 333.761 168.891 333.663 168.697 333.533C168.503 333.403 168.343 333.244 168.228 333.065C168.112 332.886 168.043 332.691 168.025 332.49C168.006 332.29 168.038 332.089 168.119 331.898C168.23 331.635 168.439 331.404 168.719 331.236Z"
            fill="#C4C3C6" />
        <path
            d="M178.871 356.668C184.691 351.938 189.571 347.917 194.611 343.968C195.539 343.352 196.708 343.006 197.921 342.99C202.451 343.841 206.811 344.89 211.741 345.986C209.861 347.957 208.201 349.699 206.521 351.449C204.521 353.483 202.451 355.493 200.661 357.558C199.081 359.387 197.791 360.365 194.811 359.671C189.891 358.52 184.621 357.724 178.871 356.668Z"
            fill="#C4C3C6" />
        <path
            d="M123.719 344.543C130.489 340.121 136.159 336.345 141.989 332.671C143.002 332.112 144.239 331.863 145.469 331.969C149.769 333.317 153.859 334.87 158.469 336.526C156.189 338.426 154.169 340.113 152.139 341.792C149.769 343.755 147.249 345.67 145.049 347.681C143.099 349.454 141.619 350.361 138.819 349.328C134.209 347.618 129.169 346.214 123.719 344.543Z"
            fill="#C4C3C6" />
        <path
            d="M205.211 380.168C207.211 377.74 208.881 375.745 210.511 373.751C212.141 371.756 213.701 369.809 215.691 367.31C220.491 368.098 225.691 368.753 230.571 369.778C233.031 370.298 231.571 374.673 228.741 377.495C227.531 378.694 227.141 380.097 226.091 381.358C225.213 382.253 224.243 383.089 223.191 383.857L205.211 380.168Z"
            fill="white" />
        <path
            d="M237.831 301.981C232.541 306.609 228.231 310.952 223.081 314.516C221.691 315.469 218.521 313.727 215.871 313.057C215.051 312.86 198.751 309.51 198.781 308.572C198.901 305.182 207.591 300.278 209.211 297.756C210.031 296.494 215.921 297.275 218.791 297.858C224.841 299.088 230.841 300.491 237.831 301.981Z"
            fill="white" />
        <path
            d="M73.0703 319.135L79.3603 316.77C84.1403 314.957 88.9903 313.246 93.6803 311.252C96.0003 310.29 97.6803 310.172 99.5903 311.607C101.334 312.773 103.167 313.852 105.08 314.839C98.3103 317.858 92.1403 320.673 85.8903 323.353C85.3904 323.545 84.8456 323.654 84.2899 323.673C83.7342 323.692 83.1795 323.621 82.6603 323.463C79.7203 322.328 76.9603 320.933 73.0703 319.135Z"
            fill="white" />
        <path
            d="M248.211 325.158C249.607 323.399 251.13 321.704 252.771 320.081C253.231 319.671 254.771 319.797 255.861 319.916C260.421 320.381 264.981 321.019 269.531 321.492C274.081 321.965 278.531 322.178 283.061 322.478C284.621 322.58 285.491 322.927 284.891 324.109C284.729 324.396 284.592 324.691 284.481 324.992C283.771 327.484 283.541 327.988 282.801 328.674C281.561 329.785 249.221 326.135 248.211 325.158Z"
            fill="#C4C3C6" />
        <path
            d="M170.891 214.405C172.661 213.956 174.441 213.491 176.191 213.01L176.441 212.955L194.871 210.409C195.148 210.367 195.433 210.375 195.707 210.43C195.98 210.486 196.234 210.589 196.451 210.732C200.121 213.491 205.391 215.525 209.211 218.394C209.741 218.796 210.071 219.806 209.211 219.908C207.921 220.066 206.611 220.696 205.471 220.862C194.591 222.265 190.941 223.526 180.051 224.922C179.481 225.001 173.141 226.498 172.581 226.451C168.38 225.905 164.324 224.81 160.581 223.211C158.661 222.423 152.271 221.319 148.211 220.058C147.161 219.735 147.261 218.962 148.361 218.804C154.651 217.929 167.981 214.989 170.771 214.413L170.891 214.405Z"
            fill="#C4C3C6" />
        <path
            d="M275.189 187.76L313.589 186.278C312.359 182.431 311.109 178.781 310.059 175.131C309.743 174.031 309.706 172.892 309.949 171.781C310.319 170.109 308.499 168.998 305.249 169.14C293.249 169.652 281.249 170.157 269.249 170.716C264.249 170.953 263.989 171.181 265.889 173.625C267.519 175.73 269.279 177.819 270.939 179.932C271.306 180.402 271.618 180.898 271.869 181.414C273.019 183.519 274.109 185.655 275.189 187.76Z"
            fill="#C4C3C6" />
        <path
            d="M282.308 199.585C275.488 190.425 268.878 181.595 262.368 172.782C261.368 171.473 260.188 170.85 257.368 171.134C251.758 171.686 246.088 172.127 240.428 172.592C238.358 172.766 238.288 173.381 239.098 174.248C240.788 176.014 242.528 177.772 244.228 179.538C248.718 184.165 253.138 188.808 257.718 193.42C259.718 195.407 261.878 197.362 264.178 199.246C265.015 199.82 266.071 200.158 267.178 200.208C271.918 200.121 276.648 199.861 282.308 199.585Z"
            fill="white" />
        <path
            d="M382.352 190.298C388.512 181.919 394.482 173.846 400.352 165.758C401.222 164.559 402.352 164.055 405.082 164.559C410.482 165.561 415.952 166.451 421.402 167.374C423.402 167.713 423.492 168.343 422.752 169.1C421.202 170.677 419.612 172.254 418.052 173.83C413.942 177.977 409.892 182.147 405.692 186.262C403.819 188.07 401.816 189.792 399.692 191.418C398.889 191.91 397.887 192.157 396.872 192.112C392.342 191.639 387.802 190.992 382.352 190.298Z"
            fill="#C4C3C6" />
        <path
            d="M332.631 187.208C323.631 187.539 315.531 187.823 307.461 188.13C306.121 188.178 304.811 188.335 303.461 188.414C298.701 188.706 298.231 189.021 299.311 191.568C301.311 196.148 303.311 200.72 305.311 205.292C305.961 206.806 307.361 207.476 310.571 207.389C317.081 207.208 323.661 207.271 330.191 207.137C331.141 207.137 332.691 206.648 332.721 206.301C332.951 203.637 332.891 200.957 332.871 198.276C332.871 197.141 332.681 195.998 332.661 194.863C332.611 192.49 332.631 190.07 332.631 187.208Z"
            fill="#C4C3C6" />
        <path
            d="M335.371 190.125C345.791 190.18 355.811 190.212 365.831 190.291C368.831 190.291 371.781 190.456 374.761 190.574C377.371 190.685 380.031 190.677 380.901 189.266C383.161 185.608 385.171 181.895 387.531 177.78C378.641 177.78 370.291 177.961 361.891 178.119C353.771 178.276 345.401 177.433 337.171 177.023C336.531 181.627 335.971 185.718 335.371 190.125Z"
            fill="#C4C3C6" />
        <path
            d="M335.512 203.164L356.862 203.448C357.862 203.448 358.862 203.448 359.862 203.511C368.132 203.897 368.672 203.511 369.862 199.183C370.402 197.189 372.282 195.36 373.522 193.444C373.872 192.892 374.102 192.317 374.522 191.505H363.992C355.372 191.505 346.732 191.418 338.132 191.505C337.132 191.505 335.652 192.293 335.622 192.75C335.402 196.172 335.512 199.632 335.512 203.164Z"
            fill="white" />
        <path
            d="M250.07 203.377L257.72 209.77L303.72 207.24L300.37 199.877L250.62 202.636C250.43 202.88 250.25 203.125 250.07 203.377Z"
            fill="#C4C3C6" />
        <path
            d="M399.662 207.854L390.422 214.271C370.332 212.34 356.542 212.632 337.782 211.962C336.152 211.899 334.862 211.173 334.952 210.322C335.172 208.398 334.362 206.254 335.542 204.126C356.202 205.032 378.932 204.741 399.052 207.121L399.662 207.854Z"
            fill="#C4C3C6" />
        <path
            d="M142.91 234.398V234.524C143.91 234.705 144.97 234.91 145.98 235.139C150.286 233.568 154.692 232.174 159.18 230.961C159.45 230.89 159.57 230.677 159.94 230.401C156.02 229.502 152.19 228.651 148.4 227.768C143.03 226.507 137.64 225.253 132.33 223.913C131.246 223.567 130.08 223.407 128.91 223.445C127.741 223.483 126.595 223.718 125.55 224.134C122.86 225.206 119.75 226.01 116.88 226.972C115.888 227.339 114.92 227.747 113.98 228.194V228.856L142.91 234.398Z"
            fill="#C4C3C6" />
        <path
            d="M98.2695 186.404C105.2 188.903 111.85 191.284 118.48 193.68C123.01 195.32 127.59 196.936 132.02 198.655C132.898 199.049 133.869 199.297 134.874 199.382C135.879 199.468 136.895 199.389 137.86 199.151C139.86 198.655 142.08 198.284 144.12 197.787C147.29 196.999 147.34 195.935 144.18 194.634C137.09 191.631 130.07 188.572 122.77 185.718C111.25 181.209 115.37 181.556 103.66 184.662C102.18 185.056 100.72 185.45 99.2795 185.884C98.9204 186.028 98.5818 186.203 98.2695 186.404Z"
            fill="#C4C3C6" />
        <path
            d="M106.871 208.052C111.181 209.4 114.511 210.472 117.871 211.489C120.871 212.388 123.971 213.168 126.931 214.09C127.98 214.497 129.127 214.722 130.295 214.747C131.464 214.773 132.625 214.6 133.701 214.24C137.171 213.113 141.191 212.395 144.861 211.402C147.861 210.614 147.861 208.343 144.941 207.2C140.701 205.571 136.368 203.994 131.941 202.47C130.976 202.158 129.918 202.068 128.891 202.21C121.861 204.031 114.851 205.931 106.871 208.052Z"
            fill="#C4C3C6" />
        <path
            d="M133.719 201.469C137.829 202.959 140.989 204.149 144.249 205.277C147.119 206.27 150.179 207.129 152.999 208.154C154.146 208.609 155.407 208.859 156.691 208.887C157.976 208.914 159.252 208.718 160.429 208.312C164.839 207.05 169.659 206.254 174.219 205.158C177.949 204.252 179.109 201.761 176.379 200.492C172.489 198.678 168.469 196.936 164.379 195.249C163.357 194.895 162.222 194.799 161.129 194.973C152.299 196.983 143.589 199.096 133.719 201.469Z"
            fill="#C4C3C6" />
        <path
            d="M184.539 203.526C188.419 204.922 188.929 206.246 192.009 207.31C194.729 208.249 194.129 208.643 196.789 209.597C199.106 210.459 201.728 210.671 204.219 210.196C208.839 209.534 213.789 209.242 218.529 208.706C222.419 208.264 223.979 206.451 221.449 205.316C217.829 203.7 214.069 202.123 210.229 200.586C209.213 200.246 208.109 200.103 207.009 200.168C197.889 201.106 194.839 202.376 184.539 203.526Z"
            fill="#C4C3C6" />
        <path
            d="M261.64 215.005C257.31 211.292 253.3 207.721 248.95 204.244C248.31 203.74 245.95 203.401 244.65 203.495C237.49 204.023 230.4 204.717 222.93 205.379C226.93 207.744 230.5 209.92 234.1 212.064C235.108 212.529 236.048 213.082 236.9 213.712C239.52 216.416 243.49 216.668 248.27 216.14C252.49 215.667 256.83 215.399 261.64 215.005Z"
            fill="#C4C3C6" />
        <path
            d="M117.34 181.532C121.29 183.164 124.57 184.686 128.22 185.939C129.22 186.286 131.43 185.939 132.92 185.632C139.26 184.449 145.48 183.101 151.86 181.966C158.24 180.831 164.62 179.877 171.03 178.868C173.26 178.521 174.25 178.079 172.41 176.944C171.948 176.685 171.504 176.406 171.08 176.109C165.64 171.852 168.03 172.025 157.45 174.004C145.28 176.29 133.1 178.537 120.92 180.807C120.05 180.973 119.19 181.154 117.34 181.532Z"
            fill="#C4C3C6" />
        <path
            d="M133.719 215.438C137.009 217.165 140.449 217.661 143.439 218.592C144.439 218.883 192.019 208.848 192.019 208.848L183.019 204.228C183.019 204.228 135.409 215.241 133.719 215.438Z"
            fill="#C4C3C6" />
        <path
            d="M133.591 199.979C127.481 197.756 121.941 195.722 116.341 193.728C115.672 193.504 114.94 193.428 114.221 193.507C107.991 194.855 101.831 196.25 95.6406 197.638L95.7106 198.332C98.5706 199.27 101.421 200.216 104.291 201.162C105.44 201.417 106.563 201.741 107.651 202.131C113.111 204.819 118.031 204.496 123.261 202.573C126.141 201.477 129.771 200.901 133.591 199.979Z"
            fill="#C4C3C6" />
        <path
            d="M131.291 223.014C133.601 223.534 135.911 224.039 138.201 224.591C144.851 226.167 151.581 227.594 158.121 229.273C159.323 229.654 160.609 229.844 161.905 229.832C163.201 229.82 164.481 229.606 165.671 229.202C167.511 228.58 169.531 228.083 172.051 227.366L162.051 224.614C156.051 222.951 150.131 221.217 144.051 219.664C142.53 219.364 140.936 219.388 139.431 219.735C136.431 220.523 133.761 221.524 130.961 222.446L131.291 223.014Z"
            fill="#C4C3C6" />
        <path
            d="M276.828 189.203C279.178 192.679 281.108 195.62 283.238 198.544C283.852 199.072 284.694 199.401 285.598 199.467C290.148 199.388 294.658 199.175 299.698 198.994C299.208 197.598 298.778 196.361 298.328 195.123C297.808 193.68 297.128 192.246 296.778 190.795C296.468 189.526 295.898 188.793 292.828 188.927C287.718 189.147 282.588 189.116 276.828 189.203Z"
            fill="#C4C3C6" />
        <path
            d="M139.411 218.434C132.261 216.305 126.171 214.492 120.031 212.695C119.234 212.465 118.374 212.411 117.541 212.537C113.091 213.625 108.721 214.8 103.551 216.14C111.611 218.158 118.851 219.979 126.121 221.769C126.81 221.931 127.54 221.95 128.241 221.824C131.791 220.799 135.251 219.703 139.411 218.434Z"
            fill="#C4C3C6" />
        <path
            d="M314.379 177.378C314.709 179.065 314.999 180.452 315.249 181.84C315.499 183.227 315.719 184.583 316.009 186.294C320.749 186.294 325.779 186.396 330.739 186.246C333.239 186.175 334.599 183.345 333.739 181.335C333.369 180.476 333.869 179.577 333.739 178.702C333.485 178.059 333.122 177.447 332.659 176.881L314.379 177.378Z"
            fill="white" />
        <path
            d="M237.042 175.935C228.562 176.857 220.962 177.685 213.392 178.521C212.132 178.663 211.002 178.899 209.772 179.065C205.412 179.656 205.232 179.987 208.602 182.273C214.682 186.388 220.852 190.496 226.932 194.611C227.864 195.283 228.981 195.775 230.196 196.049C231.411 196.322 232.69 196.37 233.932 196.187C240.102 195.572 246.562 195.178 252.792 194.611C253.702 194.532 254.792 193.988 254.482 193.657C252.282 191.174 249.772 188.682 247.312 186.191C246.262 185.143 245.052 184.094 244.002 183.038C241.812 180.807 239.652 178.592 237.042 175.935Z"
            fill="#C4C3C6" />
        <path
            d="M178.429 180.026C177.417 179.503 176.185 179.314 174.999 179.498C168.589 180.547 165.049 181.737 158.759 182.652C157.609 182.817 156.579 183.046 155.449 183.235C151.449 183.889 151.309 184.134 154.449 185.553C160.109 188.123 164.259 191.465 169.929 194.027C171.799 194.871 175.219 194.343 177.999 193.964C183.649 193.176 189.559 192.553 195.259 191.812C196.089 191.702 197.069 191.26 196.799 191.024C194.719 189.392 193.259 189.203 190.949 187.587C189.949 186.909 187.289 185.222 186.299 184.512C184.559 183.33 181.139 181.453 178.429 180.026Z"
            fill="#C4C3C6" />
        <path d="M171.47 196.629L184.72 202.052L227.2 196.534L217.2 189.928L171.32 195.904L171.47 196.629Z"
            fill="white" />
        <path
            d="M131.539 187.374C137.909 190.283 143.249 192.758 148.729 195.178C149.763 195.56 150.898 195.744 152.039 195.714C156.189 195.013 160.129 194.193 164.609 193.349L158.719 189.912C156.489 188.643 154.129 187.397 152.069 186.097C150.249 184.954 148.849 184.354 146.149 184.906C141.649 185.813 136.809 186.499 131.539 187.374Z"
            fill="white" />
        <path
            d="M210.32 168.052C212.18 169.628 213.72 170.866 215.23 172.135C216.74 173.404 218.23 174.65 220.04 176.227C224.64 175.896 229.63 175.643 234.31 175.162C236.68 174.918 235.43 172.206 232.75 170.393C231.62 169.605 231.28 168.753 230.31 167.949C229.457 167.357 228.548 166.817 227.59 166.333L210.32 168.052Z"
            fill="white" />
        <path
            d="M239.66 216.818C234.71 213.83 230.66 211.047 225.85 208.714C224.55 208.091 221.47 209.076 218.92 209.384C218.13 209.486 202.47 211.039 202.48 211.615C202.48 213.688 210.7 216.952 212.2 218.536C212.94 219.325 218.59 219.033 221.35 218.765C227.17 218.19 232.94 217.535 239.66 216.818Z"
            fill="#C4C3C6" />
        <path
            d="M372.461 199.364C378.321 199.656 383.621 199.94 388.911 200.153C389.239 200.142 389.56 200.08 389.857 199.971C390.154 199.861 390.421 199.706 390.641 199.514C392.181 197.937 393.531 196.243 395.041 194.626C395.981 193.625 395.041 193.05 393.171 192.955C388.171 192.663 383.251 192.451 378.301 192.293C377.928 192.307 377.563 192.385 377.231 192.521C376.9 192.657 376.61 192.848 376.381 193.081C375.001 195.092 373.811 197.157 372.461 199.364Z"
            fill="white" />
        <path
            d="M350.242 175.935C356.332 175.935 361.592 175.935 366.802 175.761C367.288 175.694 367.749 175.54 368.149 175.312C368.549 175.084 368.878 174.788 369.112 174.445C369.599 173.336 369.935 172.189 370.112 171.024C364.662 170.653 359.572 170.283 354.472 170.007C353.702 169.959 352.402 170.298 352.252 170.614C351.482 172.198 351.002 173.838 350.242 175.935Z"
            fill="white" />
        <path
            d="M485.039 218.599C483.259 218.063 481.479 217.519 479.719 216.944L479.469 216.881L460.959 213.396C460.688 213.342 460.405 213.335 460.13 213.378C459.855 213.42 459.595 213.51 459.369 213.641C455.679 216.219 450.369 217.985 446.559 220.665C446.019 221.035 445.679 222.029 446.559 222.178C447.849 222.407 449.159 223.117 450.309 223.322C461.239 225.277 464.909 226.711 475.839 228.659C476.409 228.761 482.789 230.606 483.349 230.566C487.512 230.235 491.571 229.342 495.349 227.925C497.279 227.232 503.699 226.451 507.779 225.411C508.829 225.135 508.729 224.354 507.619 224.149C501.309 222.951 487.919 219.34 485.119 218.631L485.039 218.599Z"
            fill="#C4C3C6" />
        <path
            d="M557.989 194.264C550.989 196.408 544.349 198.458 537.699 200.515C533.139 201.934 528.539 203.322 524.089 204.819C523.18 205.169 522.189 205.367 521.179 205.399C520.168 205.432 519.16 205.299 518.219 205.009C516.169 204.41 513.979 203.937 511.939 203.337C508.759 202.391 508.699 201.319 511.879 200.137C518.999 197.496 526.049 194.792 533.389 192.301C544.959 188.359 540.819 188.517 552.579 192.214C554.059 192.682 555.525 193.16 556.979 193.649C557.339 193.828 557.677 194.034 557.989 194.264Z"
            fill="white" />
        <path
            d="M549.362 215.478C545.032 216.605 541.682 217.512 538.272 218.363C535.272 219.104 532.142 219.727 529.182 220.499C528.096 220.855 526.926 221.021 525.751 220.989C524.576 220.956 523.423 220.725 522.372 220.31C518.892 219.009 514.852 218.087 511.162 216.912C508.162 215.951 508.102 213.704 511.082 212.711C515.342 211.284 519.692 209.936 524.082 208.635C525.069 208.374 526.13 208.339 527.142 208.532C534.302 210.7 541.342 212.987 549.362 215.478Z"
            fill="#C4C3C6" />
        <path
            d="M523.818 207.508C519.638 208.769 516.428 209.778 513.108 210.716C510.168 211.552 506.998 212.238 504.108 213.081C501.768 213.783 499.598 213.87 495.978 212.829C490.858 211.331 485.398 210.267 480.148 208.887C475.848 207.784 474.028 205.229 476.738 204.118C480.608 202.541 484.648 201.02 488.738 199.569C489.871 199.267 491.09 199.232 492.248 199.467C502.398 202.021 512.428 204.607 523.818 207.508Z"
            fill="#C4C3C6" />
        <path
            d="M471.332 207.035C467.432 208.233 466.932 209.534 463.832 210.44C461.092 211.229 461.702 211.662 459.022 212.482C456.642 213.233 454.007 213.314 451.562 212.711C446.932 211.812 441.952 211.276 437.192 210.495C433.282 209.857 431.722 207.973 434.262 206.964C437.892 205.521 441.672 204.142 445.532 202.793C446.565 202.5 447.674 202.41 448.762 202.533C457.922 203.952 460.992 205.371 471.332 207.035Z"
            fill="white" />
        <path
            d="M393.891 214.634C398.231 211.142 402.271 207.768 406.641 204.512C407.271 204.039 409.641 203.818 410.951 203.976C418.151 204.867 425.271 205.915 432.771 206.964C428.771 209.147 425.171 211.118 421.551 213.081C420.534 213.482 419.584 213.98 418.721 214.563C416.091 217.141 412.101 217.188 407.301 216.416C403.081 215.754 398.721 215.273 393.891 214.634Z"
            fill="#C4C3C6" />
        <path
            d="M443.598 201.635C440.288 203.211 437.598 204.638 434.468 205.836C433.608 206.175 431.578 205.907 430.198 205.71C424.328 204.843 418.538 203.826 412.648 203.006C406.758 202.186 400.868 201.524 394.958 200.823C392.908 200.578 391.958 200.184 393.438 199.159C393.818 198.917 394.176 198.654 394.508 198.371C398.788 194.429 396.658 194.674 406.458 196.116C417.718 197.787 428.991 199.443 440.278 201.083C441.088 201.217 441.888 201.359 443.598 201.635Z"
            fill="white" />
        <path
            d="M538.83 188.422C534.83 189.865 531.57 191.229 527.91 192.285C526.91 192.577 524.68 192.096 523.19 191.749C516.82 190.243 510.57 188.596 504.19 187.121C497.81 185.647 491.35 184.386 484.9 183.03C482.67 182.573 481.67 182.037 483.52 181.035C483.983 180.794 484.427 180.531 484.85 180.247C490.32 176.266 487.92 176.305 498.55 178.828C510.77 181.719 523 184.609 535.24 187.5C536.12 187.76 536.98 187.957 538.83 188.422Z"
            fill="#C4C3C6" />
        <path
            d="M522.388 221.508C519.088 223.085 515.638 223.4 512.628 224.149C511.628 224.394 463.828 211.954 463.828 211.954L472.828 207.791C472.828 207.791 520.718 221.232 522.388 221.508Z"
            fill="white" />
        <path
            d="M522.52 206.057C528.65 204.142 534.22 202.384 539.84 200.673C540.523 200.48 541.26 200.442 541.97 200.562C548.22 202.226 554.42 203.929 560.63 205.624L560.56 206.317C557.69 207.106 554.83 207.894 551.94 208.682C550.793 208.88 549.667 209.143 548.57 209.471C543.08 211.883 538.14 211.331 532.89 209.124C530 207.925 526.35 207.177 522.52 206.057Z"
            fill="#C4C3C6" />
        <path
            d="M524.818 229.21C522.508 229.612 520.188 229.999 517.888 230.417C511.198 231.623 504.438 232.782 497.888 234.098C495.381 234.74 492.653 234.576 490.298 233.641C488.458 232.923 486.428 232.324 483.898 231.481L493.898 229.242C499.898 227.878 505.898 226.443 511.978 225.198C513.534 224.971 515.138 225.072 516.628 225.49C519.628 226.412 522.318 227.571 525.138 228.643L524.818 229.21Z"
            fill="#C4C3C6" />
        <path
            d="M516.719 224.22C523.899 222.454 530.019 220.925 536.189 219.49C537.008 219.317 537.87 219.317 538.689 219.49C543.159 220.807 547.539 222.202 552.689 223.81C544.599 225.387 537.329 226.877 530.029 228.296C529.323 228.431 528.584 228.415 527.889 228.249C524.319 226.972 520.839 225.702 516.719 224.22Z"
            fill="white" />
        <path
            d="M418.601 176.794L442.351 180.57C443.621 180.775 444.751 181.075 445.991 181.304C450.371 182.092 450.551 182.447 447.161 184.559C441.051 188.375 434.861 192.167 428.751 195.982C427.788 196.614 426.648 197.055 425.426 197.27C424.203 197.486 422.933 197.468 421.721 197.22C415.521 196.298 409.041 195.572 402.781 194.689C401.871 194.555 400.781 193.964 401.071 193.649C403.291 191.284 405.811 188.919 408.281 186.554C409.331 185.553 410.551 184.559 411.611 183.566C413.801 181.453 415.971 179.325 418.601 176.794Z"
            fill="white" />
        <path
            d="M477.469 183.818C478.516 183.349 479.755 183.221 480.919 183.464C487.359 184.835 490.919 186.207 497.229 187.405C498.389 187.634 499.419 187.918 500.549 188.194C504.549 189.053 504.719 189.297 501.549 190.559C495.859 192.837 491.689 195.974 485.999 198.253C484.119 199.002 480.679 198.3 477.889 197.78C472.219 196.723 466.279 195.793 460.549 194.76C459.719 194.611 458.729 194.122 459.009 193.917C461.099 192.395 462.559 192.277 464.889 190.764C465.889 190.133 468.559 188.556 469.549 187.918C472.099 186.445 474.742 185.077 477.469 183.818Z"
            fill="#C4C3C6" />
        <path
            d="M481.611 200.878C477.611 202.344 475.611 203.881 471.851 205.3C471.359 205.467 470.811 205.503 470.291 205.403L431.071 198.355C429.851 198.142 429.351 197.378 430.071 196.905L437.771 192.222C438.038 192.084 438.339 191.991 438.654 191.95C438.97 191.91 439.292 191.922 439.601 191.985C454.221 194.611 466.841 196.763 480.901 199.277C481.901 199.459 482.461 200.019 482.131 200.484C482.013 200.654 481.832 200.792 481.611 200.878Z"
            fill="#C4C3C6" />
        <path
            d="M471.3 185.135C465.82 187.926 461.23 190.298 456.48 192.624C455.499 193.005 454.414 193.189 453.32 193.16C448.95 192.561 444.74 191.844 439.98 191.079C441.74 189.904 443.29 188.864 444.86 187.831C446.72 186.617 448.72 185.395 450.35 184.189C451.82 183.101 453.03 182.525 455.91 183.006C460.72 183.818 465.72 184.378 471.3 185.135Z"
            fill="white" />
        <path
            d="M524.572 193.554C518.182 196.14 512.812 198.347 507.302 200.499C506.248 200.83 505.109 200.955 503.982 200.862C499.812 199.955 495.852 198.931 491.352 197.835L497.302 194.729C499.542 193.57 501.912 192.443 503.982 191.244C505.812 190.196 507.212 189.668 509.932 190.353C514.412 191.481 519.282 192.411 524.572 193.554Z"
            fill="white" />
        <path
            d="M445.44 170.267C443.57 171.717 442.021 172.908 440.511 174.098C439.001 175.288 437.51 176.463 435.68 177.953C431.05 177.385 426.04 176.881 421.33 176.171C418.95 175.809 420.22 173.152 422.9 171.441C424.04 170.732 424.381 169.865 425.361 169.124C426.217 168.574 427.131 168.081 428.09 167.65L445.44 170.267Z"
            fill="#C4C3C6" />
        <path
            d="M415.969 217.551C420.969 214.815 424.969 212.23 429.839 210.148C431.139 209.589 434.239 210.732 436.789 211.165C437.589 211.307 453.319 213.649 453.309 214.224C453.309 216.297 445.049 219.143 443.549 220.657C442.799 221.445 437.129 220.83 434.349 220.42C428.509 219.561 422.719 218.615 415.969 217.551Z"
            fill="#C4C3C6" />
        <path
            d="M573.808 210.03L567.808 211.37C563.258 212.395 558.638 213.357 554.178 214.469C551.978 215.02 550.328 215.06 548.498 214.145C546.761 213.383 544.975 212.691 543.148 212.072C549.578 210.338 555.438 208.729 561.378 207.2C562.393 206.983 563.463 206.983 564.478 207.2C567.338 207.949 570.028 208.856 573.808 210.03Z"
            fill="white" />
        <path
            d="M405.449 203.172C404.107 204.249 402.68 205.26 401.179 206.199C400.749 206.443 399.249 206.333 398.179 206.246C393.789 205.876 389.389 205.403 385.009 205.056C380.629 204.709 376.329 204.473 372.009 204.205C370.499 204.118 369.659 203.889 370.199 203.172C370.353 203.006 370.48 202.826 370.579 202.636C371.199 201.13 371.409 200.823 372.109 200.421C373.299 199.735 404.449 202.557 405.449 203.172Z"
            fill="white" />
        <path
            d="M154.222 275.265C153.222 274.713 149.032 273.278 148.222 272.774C140.002 267.776 138.222 266.467 133.632 261.177C133.412 260.917 131.772 256.928 130.792 255.17C129.282 255.17 127.792 255.17 126.262 255.17C119.442 255.091 112.032 255.091 105.062 254.24L104.242 254.697C104.483 255.614 104.657 256.54 104.762 257.472C104.912 258.781 105.132 260.066 105.402 261.359C105.882 262.778 106.369 264.191 106.862 265.6C108.122 266.869 109.322 268.186 110.442 269.542C111.692 271.118 112.942 272.695 114.282 274.193C118.572 277.031 123.282 279.514 127.642 282.328C128.452 282.849 129.242 283.385 130.032 283.905C130.177 283.876 130.317 283.836 130.452 283.787C137.272 281.201 144.602 279.979 151.682 277.291C152.652 276.96 154.872 275.659 154.222 275.265Z"
            fill="white" />
        <path
            d="M61.4 287.815C66.11 286.68 70.85 285.71 75.71 284.898C78.961 283.951 82.3457 283.318 85.79 283.014L86.96 282.643C87.1 282.178 87.23 281.705 87.4 281.24C76.93 274.823 71.56 265.135 69.9 255.769C69.9 255.588 69.9 255.414 69.83 255.233C68.7713 254.417 67.7698 253.557 66.83 252.655H65.36C56.63 252.655 47.1 252.71 38.58 251.512C38.16 251.741 37.74 251.985 37.3 252.214C37.12 253.617 36.88 255.02 36.53 256.416C36.04 258.386 35.65 260.357 35.33 262.289C35.21 264.433 35.11 266.561 35 268.698C35.9975 270.651 36.8456 272.649 37.54 274.681C38.34 277.046 39.13 279.411 40.06 281.674C43.06 284.827 46.4 287.641 49.63 290.606C53.0238 289.628 56.4782 288.786 59.98 288.083L61.4 287.815Z"
            fill="#C4C3C6" />
        <path
            d="M105.368 217.338C108.918 218.379 112.618 219.293 116.528 220.184C119.095 221.055 121.779 221.692 124.528 222.084L125.368 222.399C125.188 222.691 124.998 222.983 124.848 223.274C112.738 225.907 101.555 230.694 92.1581 237.267L91.7481 237.583C90.2281 237.992 88.7481 238.442 87.2881 238.907L85.9781 238.789C77.9781 238.15 69.3581 237.362 60.7881 237.441C60.5481 237.267 60.3281 237.094 60.0781 236.92C60.8039 236.088 61.4716 235.225 62.0781 234.335C62.9181 233.113 63.8481 231.907 64.8281 230.708C66.1181 229.408 67.4281 228.123 68.7281 226.83C70.8581 225.75 72.9381 224.63 74.9481 223.424C77.2281 222.06 79.4881 220.704 81.8381 219.404C86.6081 217.748 91.5281 216.298 96.4081 214.76C98.957 215.634 101.56 216.404 104.208 217.07L105.368 217.338Z"
            fill="white" />
        <path
            d="M122.129 231.205C119.639 233.389 117.029 235.509 114.599 237.724C113.819 238.828 113.109 239.963 112.459 241.114C111.683 243.537 111.066 245.989 110.609 248.461C110.719 248.461 110.979 253.412 111.089 253.436C117.089 254.823 126.089 253.436 131.149 254.421C132.039 254.595 131.579 250.96 132.149 250.085C133.749 247.673 131.559 248.138 133.149 245.75C133.829 244.74 135.489 242.525 136.149 241.516C137.559 239.38 141.449 238.363 143.149 235.824C135.719 234.169 128.869 232.695 122.129 231.205Z"
            fill="#C4C3C6" />
        <path
            d="M128.451 283.794C120.751 286.341 114.181 288.934 107.151 290.558C105.261 290.992 102.951 288.406 100.601 287.019C99.871 286.585 82.501 276.274 83.011 275.446C84.861 272.411 102.141 273.924 105.071 272.143C106.541 271.252 108.681 272.766 111.291 274.185C116.781 277.165 122.151 280.255 128.451 283.794Z"
            fill="#C4C3C6" />
        <path
            d="M108.229 271.15C107.057 269.591 106.095 267.939 105.359 266.223C103.45 262.533 102.465 258.587 102.459 254.603C102.369 254.492 102.279 254.382 102.179 254.271C101.552 253.828 100.73 253.596 99.8891 253.625C92.6291 253.704 85.3191 253.877 78.0391 253.98C76.0391 253.98 74.0391 253.98 72.0391 253.98C72.2789 255.654 72.2789 257.343 72.0391 259.017C72.3391 259.64 72.6091 260.271 72.8591 260.909C74.2964 263.174 75.426 265.552 76.2291 268.004C76.972 269.002 77.6398 270.034 78.2291 271.094C88.2291 271.15 98.2291 271.165 108.229 271.189V271.15Z"
            fill="white" />
        <path
            d="M120.969 230.953C109.089 240.184 111.089 243.203 111.089 243.203C111.089 243.203 97.0894 240.625 91.3594 239.538C98.8594 233.31 109.519 228.398 110.089 228.501C114.039 229.471 116.319 229.715 120.969 230.953Z"
            fill="#C4C3C6" />
        <path
            d="M108.451 252.214C90.6709 251.702 73.5309 251.197 56.3709 250.74C53.8309 250.677 52.6009 250.243 53.0409 248.674C53.9109 245.521 54.5509 242.415 55.2409 239.285C55.5009 238.142 56.7209 237.89 58.3709 238.032C61.8109 238.331 65.2409 238.647 68.6709 238.954C77.6709 239.743 86.7409 240.531 95.7309 241.382C99.6009 241.745 103.391 242.249 107.111 242.817C108.011 242.959 109.111 243.605 109.111 244.055C109.051 246.593 108.721 249.163 108.451 252.214Z"
            fill="#C4C3C6" />
        <path
            d="M55.5311 293.775C58.1311 293.097 60.7311 292.442 63.3211 291.741C70.8411 289.707 78.4311 287.799 85.8211 285.529C89.1311 284.512 91.6211 284.677 94.2811 286.191C96.2811 287.35 98.5511 288.304 101.281 289.66C97.1111 291.031 93.5611 292.23 90.0211 293.396C83.2411 295.675 76.5311 298.079 69.6511 300.176C67.9198 300.558 66.0686 300.399 64.4811 299.734C61.1811 298.268 58.2211 296.4 55.1211 294.689L55.5311 293.775Z"
            fill="#C4C3C6" />
        <path
            d="M498.719 235.848C499.599 236.4 503.719 237.961 504.449 238.473C511.879 243.511 513.449 244.843 516.949 249.896C517.119 250.148 517.849 253.885 518.449 255.541L523.219 255.832C530.379 256.313 538.219 256.747 545.329 257.937L546.329 257.567C546.305 256.711 546.352 255.855 546.469 255.005C546.639 253.806 546.729 252.64 546.759 251.433C546.609 250.109 546.439 248.792 546.279 247.492C545.25 246.261 544.318 244.981 543.489 243.66C542.559 242.155 541.639 240.657 540.599 239.198C536.779 236.353 532.459 233.814 528.539 230.992C527.809 230.472 527.119 229.936 526.409 229.415C526.249 229.431 526.092 229.457 525.939 229.494C518.109 231.449 510.089 232.127 501.939 234.153C500.719 234.421 498.099 235.47 498.719 235.848Z"
            fill="#C4C3C6" />
        <path
            d="M521.572 277.921C524.742 276.084 528.012 274.303 531.122 272.403C532.212 271.441 533.252 270.456 534.222 269.439C535.625 267.299 536.884 265.102 537.992 262.856C537.892 262.856 538.832 258.323 538.722 258.292C532.722 256.676 522.872 257.393 517.822 256.211C516.932 255.998 516.522 259.364 515.692 260.097C513.422 262.202 515.842 261.91 513.562 263.991C512.562 264.874 510.292 266.79 509.342 267.673C507.342 269.541 502.972 270.227 500.512 272.403C508.032 274.421 514.832 276.187 521.572 277.921Z"
            fill="white" />
        <path
            d="M527.961 229.628C536.711 227.76 544.271 225.789 552.081 224.725C554.181 224.433 555.971 226.932 558.081 228.343C558.751 228.777 574.491 239.199 573.751 239.924C571.051 242.581 553.211 240.184 549.681 241.627C547.921 242.352 546.031 240.838 543.681 239.404C538.611 236.361 533.721 233.223 527.961 229.628Z"
            fill="#C4C3C6" />
        <path
            d="M546.129 242.352C546.974 243.836 547.575 245.399 547.919 247.003C549.019 250.535 549.081 254.218 548.099 257.772L548.309 258.095C548.915 258.552 549.721 258.809 550.559 258.812C558.239 259.175 565.979 259.451 573.669 259.79C575.789 259.876 577.899 259.995 579.989 260.121C580.168 258.558 580.598 257.018 581.269 255.541C581.109 254.949 580.979 254.358 580.869 253.767C579.922 251.606 579.323 249.36 579.089 247.082C578.544 246.127 578.079 245.145 577.699 244.141C567.199 243.495 556.699 242.896 546.109 242.281C546.119 242.312 546.119 242.328 546.129 242.352Z"
            fill="#C4C3C6" />
        <path
            d="M522.719 278.221C537.529 270.519 536.169 267.642 536.169 267.642C536.169 267.642 550.309 270.795 556.059 272.151C546.609 277.385 534.149 281.225 533.579 281.067C529.719 279.995 527.319 279.624 522.719 278.221Z"
            fill="white" />
        <path
            d="M541.2 259.585C559.81 261.106 577.74 262.58 595.71 264.015C598.37 264.228 599.56 264.685 598.71 266.096C597.01 268.903 595.56 271.709 594.05 274.516C593.5 275.548 592.15 275.706 590.45 275.477C586.89 275.004 583.36 274.508 579.82 274.027C570.51 272.758 561.17 271.528 551.91 270.211C547.91 269.652 544.05 268.974 540.28 268.233C539.36 268.051 538.41 267.444 538.53 266.987C539.17 264.677 540.16 262.36 541.2 259.585Z"
            fill="#C4C3C6" />
        <path
            d="M520.214 258.692C520.588 230.573 433.009 207.052 324.602 206.157C216.195 205.262 128.011 227.332 127.637 255.451C127.264 283.57 214.842 307.091 323.249 307.986C431.657 308.881 519.841 286.811 520.214 258.692Z"
            fill="black" />
        <mask id="mask0" mask-type="alpha" maskUnits="userSpaceOnUse" x="34" y="181" width="580" height="152">
            <path fill-rule="evenodd" clip-rule="evenodd"
                d="M324.924 182.008C484.75 183.327 613.867 218.004 613.317 259.461C612.766 300.917 482.755 333.454 322.93 332.135C163.104 330.815 33.9862 296.139 34.5369 254.682C35.0876 213.226 165.098 180.689 324.924 182.008ZM324.603 206.157C433.01 207.052 520.589 230.573 520.215 258.692C519.842 286.811 431.657 308.881 323.25 307.986C214.843 307.091 127.264 283.57 127.638 255.451C128.012 227.332 216.196 205.262 324.603 206.157Z"
                fill="black" />
        </mask>
        <g mask="url(#mask0)">
            <path
                d="M170.891 214.406C172.661 213.956 174.441 213.491 176.191 213.01L176.441 212.955L194.871 210.409C195.148 210.367 195.433 210.375 195.707 210.431C195.98 210.487 196.234 210.59 196.451 210.732C200.121 213.491 205.391 215.525 209.211 218.395C209.741 218.797 210.071 219.806 209.211 219.908C207.921 220.066 206.611 220.697 205.471 220.862C194.591 222.265 190.941 223.527 180.051 224.922C179.481 225.001 173.141 226.499 172.581 226.451C168.38 225.905 164.324 224.81 160.581 223.211C158.661 222.423 152.271 221.319 148.211 220.058C147.161 219.735 147.261 218.962 148.361 218.805C154.651 217.93 167.981 214.989 170.771 214.414L170.891 214.406Z"
                fill="white" />
            <path
                d="M332.631 187.208C323.631 187.539 315.531 187.823 307.461 188.131C306.121 188.178 304.811 188.336 303.461 188.414C298.701 188.706 298.231 189.021 299.311 191.568C301.311 196.148 303.311 200.72 305.311 205.293C305.961 206.806 307.361 207.476 310.571 207.389C317.081 207.208 323.661 207.271 330.191 207.137C331.141 207.137 332.691 206.648 332.721 206.302C332.951 203.637 332.891 200.957 332.871 198.276C332.871 197.141 332.681 195.998 332.661 194.863C332.611 192.49 332.631 190.07 332.631 187.208Z"
                fill="white" />
            <path
                d="M250.07 203.377L257.72 209.77L303.72 207.24L300.37 199.877L250.62 202.636C250.43 202.88 250.25 203.125 250.07 203.377Z"
                fill="white" />
            <path
                d="M399.658 207.855L390.418 214.272C370.328 212.34 356.538 212.632 337.778 211.962C336.148 211.899 334.858 211.174 334.948 210.322C335.168 208.399 334.358 206.254 335.538 204.126C356.198 205.032 378.928 204.741 399.048 207.121L399.658 207.855Z"
                fill="white" />
            <path
                d="M142.91 234.398V234.524C143.91 234.705 144.97 234.91 145.98 235.139C150.286 233.568 154.692 232.174 159.18 230.961C159.45 230.89 159.57 230.677 159.94 230.401C156.02 229.502 152.19 228.651 148.4 227.768C143.03 226.507 137.64 225.253 132.33 223.913C131.246 223.567 130.08 223.407 128.91 223.445C127.741 223.483 126.595 223.718 125.55 224.134C122.86 225.206 119.75 226.01 116.88 226.972C115.888 227.339 114.92 227.747 113.98 228.194V228.856L142.91 234.398Z"
                fill="white" />
            <path
                d="M261.64 215.005C257.31 211.292 253.3 207.721 248.95 204.244C248.31 203.74 245.95 203.401 244.65 203.495C237.49 204.023 230.4 204.717 222.93 205.379C226.93 207.744 230.5 209.92 234.1 212.064C235.108 212.529 236.048 213.082 236.9 213.712C239.52 216.416 243.49 216.668 248.27 216.14C252.49 215.667 256.83 215.399 261.64 215.005Z"
                fill="white" />
            <path
                d="M131.291 223.014C133.601 223.535 135.911 224.039 138.201 224.591C144.851 226.168 151.581 227.594 158.121 229.274C159.323 229.655 160.609 229.845 161.905 229.832C163.201 229.82 164.481 229.606 165.671 229.203C167.511 228.58 169.531 228.083 172.051 227.366L162.051 224.615C156.051 222.951 150.131 221.217 144.051 219.664C142.53 219.364 140.936 219.388 139.431 219.735C136.431 220.523 133.761 221.524 130.961 222.447L131.291 223.014Z"
                fill="white" />
            <path
                d="M239.66 216.818C234.71 213.83 230.66 211.047 225.85 208.714C224.55 208.091 221.47 209.076 218.92 209.384C218.13 209.486 202.47 211.039 202.48 211.615C202.48 213.688 210.7 216.952 212.2 218.536C212.94 219.325 218.59 219.033 221.35 218.765C227.17 218.19 232.94 217.535 239.66 216.818Z"
                fill="white" />
            <path
                d="M485.039 218.6C483.259 218.064 481.479 217.52 479.719 216.944L479.469 216.881L460.959 213.397C460.688 213.342 460.405 213.335 460.13 213.378C459.855 213.42 459.595 213.51 459.369 213.641C455.679 216.219 450.369 217.985 446.559 220.665C446.019 221.036 445.679 222.029 446.559 222.179C447.849 222.407 449.159 223.117 450.309 223.322C461.239 225.277 464.909 226.712 475.839 228.659C476.409 228.761 482.789 230.606 483.349 230.566C487.512 230.235 491.571 229.342 495.349 227.926C497.279 227.232 503.699 226.451 507.779 225.411C508.829 225.135 508.729 224.354 507.619 224.149C501.309 222.951 487.919 219.341 485.119 218.631L485.039 218.6Z"
                fill="white" />
            <path
                d="M393.891 214.634C398.231 211.142 402.271 207.768 406.641 204.512C407.271 204.039 409.641 203.818 410.951 203.976C418.151 204.867 425.271 205.915 432.771 206.964C428.771 209.147 425.171 211.118 421.551 213.081C420.534 213.482 419.584 213.98 418.721 214.563C416.091 217.141 412.101 217.188 407.301 216.416C403.081 215.754 398.721 215.273 393.891 214.634Z"
                fill="white" />
            <path
                d="M524.818 229.211C522.508 229.613 520.188 229.999 517.888 230.417C511.198 231.623 504.438 232.782 497.888 234.098C495.381 234.741 492.653 234.576 490.298 233.641C488.458 232.924 486.428 232.325 483.898 231.481L493.898 229.242C499.898 227.878 505.898 226.444 511.978 225.198C513.534 224.971 515.138 225.072 516.628 225.49C519.628 226.412 522.318 227.571 525.138 228.643L524.818 229.211Z"
                fill="white" />
            <path
                d="M415.969 217.551C420.969 214.816 424.969 212.23 429.839 210.149C431.139 209.589 434.239 210.732 436.789 211.166C437.589 211.308 453.319 213.649 453.309 214.224C453.309 216.298 445.049 219.144 443.549 220.657C442.799 221.445 437.129 220.831 434.349 220.421C428.509 219.561 422.719 218.615 415.969 217.551Z"
                fill="white" />
            <path
                d="M122.129 231.205C119.639 233.389 117.029 235.509 114.599 237.725C113.819 238.828 113.109 239.963 112.459 241.114C111.683 243.537 111.066 245.989 110.609 248.462C110.719 248.462 110.979 253.412 111.089 253.436C117.089 254.823 126.089 253.436 131.149 254.421C132.039 254.595 131.579 250.961 132.149 250.086C133.749 247.673 131.559 248.138 133.149 245.75C133.829 244.741 135.489 242.525 136.149 241.516C137.559 239.38 141.449 238.363 143.149 235.825C135.719 234.169 128.869 232.695 122.129 231.205Z"
                fill="white" />
            <path
                d="M498.719 235.848C499.599 236.4 503.719 237.961 504.449 238.473C511.879 243.511 513.449 244.843 516.949 249.896C517.119 250.149 517.849 253.885 518.449 255.541L523.219 255.832C530.379 256.313 538.219 256.747 545.329 257.937L546.329 257.567C546.305 256.711 546.352 255.855 546.469 255.005C546.639 253.806 546.729 252.64 546.759 251.434C546.609 250.109 546.439 248.793 546.279 247.492C545.25 246.261 544.318 244.982 543.489 243.661C542.559 242.155 541.639 240.657 540.599 239.199C536.779 236.353 532.459 233.814 528.539 230.992C527.809 230.472 527.119 229.936 526.409 229.416C526.249 229.431 526.092 229.458 525.939 229.494C518.109 231.449 510.089 232.127 501.939 234.153C500.719 234.421 498.099 235.47 498.719 235.848Z"
                fill="white" />
        </g>
        <path
            d="M256.703 211.385C256.593 210.249 257.453 209.251 258.592 209.193L300.898 207.042C302.041 206.984 303 207.895 303 209.039V214.15C303 215.195 302.197 216.063 301.155 216.144L259.456 219.396C258.369 219.48 257.415 218.68 257.31 217.596L256.703 211.385Z"
            fill="#C4C4C4" />
        <path
            d="M396.717 210.685C396.869 209.518 395.986 208.473 394.81 208.428L337.076 206.226C335.943 206.182 335 207.09 335 208.224V213.326C335 214.385 335.826 215.261 336.883 215.322L393.807 218.651C394.855 218.712 395.772 217.953 395.907 216.912L396.717 210.685Z"
            fill="white" />
        <path
            d="M305.5 207.33C305.5 206.236 306.378 205.346 307.471 205.33L330.971 204.993C332.087 204.977 333 205.877 333 206.993V218.336C333 219.441 332.105 220.336 331 220.336H307.5C306.395 220.336 305.5 219.441 305.5 218.336V207.33Z"
            fill="white" />
        <path
            d="M305 225.058C305 223.964 305.879 223.073 306.973 223.058L330.973 222.729C332.088 222.714 333 223.614 333 224.729V235.68C333 236.784 332.105 237.68 331 237.68H307C305.895 237.68 305 236.784 305 235.68V225.058Z"
            fill="#C4C4C4" />
        <path
            d="M277 222.203C277 221.148 277.82 220.274 278.872 220.207L299.372 218.896C300.525 218.822 301.5 219.737 301.5 220.892V231.832C301.5 232.899 300.662 233.778 299.596 233.83L279.096 234.819C277.955 234.874 277 233.964 277 232.822V222.203Z"
            fill="#C4C4C4" />
        <path
            d="M471 243.078C471 242.205 470.433 241.433 469.601 241.171L453.601 236.133C452.312 235.728 451 236.69 451 238.041V248.799C451 249.685 451.583 250.465 452.433 250.717L468.433 255.447C469.715 255.825 471 254.865 471 253.529V243.078Z"
            fill="#C4C4C4" />
        <path
            d="M258 223.359C258 222.314 258.803 221.446 259.844 221.365L270.844 220.505C272.007 220.414 273 221.333 273 222.499V232.726C273 233.749 272.227 234.608 271.209 234.715L260.209 235.871C259.028 235.995 258 235.069 258 233.882V223.359Z"
            fill="#C4C4C4" />
        <path
            d="M233 228.367C233 227.34 233.778 226.48 234.8 226.377L237.8 226.076C238.978 225.957 240 226.882 240 228.066V232.621C240 233.622 239.26 234.469 238.268 234.603L235.268 235.008C234.068 235.17 233 234.237 233 233.026V228.367Z"
            fill="#C4C4C4" />
        <path
            d="M258 239.972C258 238.901 258.843 238.021 259.913 237.974L300.913 236.194C302.051 236.144 303 237.053 303 238.192V246.867C303 247.931 302.166 248.809 301.103 248.864L260.103 250.973C258.959 251.032 258 250.121 258 248.976V239.972Z"
            fill="#C4C4C4" />
        <path
            d="M408 231.561C408 230.517 407.197 229.649 406.156 229.567L401.156 229.177C399.993 229.086 399 230.004 399 231.17V235.721C399 236.745 399.773 237.603 400.791 237.71L405.791 238.236C406.972 238.36 408 237.434 408 236.247V231.561Z"
            fill="#C4C4C4" />
        <path
            d="M450 220.278C450 218.934 451.298 217.973 452.583 218.365L486.083 228.576C486.925 228.833 487.5 229.609 487.5 230.489V241.653C487.5 243.004 486.187 243.967 484.899 243.56L451.399 232.997C450.566 232.734 450 231.962 450 231.089V220.278Z"
            fill="#C4C4C4" />
        <path
            d="M399 211.947C399 210.738 400.065 209.805 401.263 209.964L418.263 212.222C419.257 212.354 420 213.202 420 214.205V225.588C420 226.781 418.962 227.709 417.776 227.575L400.776 225.661C399.765 225.547 399 224.691 399 223.673V211.947Z"
            fill="white" />
        <path
            d="M359 220.916C359 219.752 359.99 218.834 361.15 218.922L393.15 221.334C394.194 221.412 395 222.282 395 223.328V245.815C395 246.963 394.036 247.875 392.89 247.812L360.89 246.049C359.83 245.991 359 245.114 359 244.052V220.916Z"
            fill="#C4C4C4" />
        <path
            d="M335 219.314C335 218.16 335.975 217.245 337.127 217.318L354.127 218.396C355.18 218.463 356 219.337 356 220.392V223.744C356 224.891 355.038 225.803 353.893 225.741L336.893 224.827C335.831 224.77 335 223.893 335 222.83V219.314Z"
            fill="#C4C4C4" />
        <path
            d="M337 229.589C337 228.425 337.991 227.507 339.152 227.595L354.152 228.737C355.194 228.816 356 229.686 356 230.731V253.736C356 254.869 355.059 255.776 353.926 255.735L338.926 255.18C337.851 255.14 337 254.257 337 253.181V229.589Z"
            fill="#C4C4C4" />
        <path
            d="M331.844 240.439C332.948 240.439 333.844 241.334 333.844 242.439L333.844 253.884C333.844 255.011 332.914 255.915 331.788 255.884L317.076 255.471C316.008 255.441 315.152 254.577 315.132 253.509L314.927 242.476C314.906 241.357 315.808 240.439 316.927 240.439L331.844 240.439Z"
            fill="#C4C4C4" />
        <path
            d="M254 209.218C254 208.009 252.935 207.076 251.737 207.235L234.737 209.494C233.743 209.626 233 210.473 233 211.476V222.859C233 224.052 234.038 224.98 235.224 224.846L252.224 222.932C253.235 222.818 254 221.962 254 220.944V209.218Z"
            fill="white" />
        <path
            d="M231 212.045C231 211.431 230.452 210.962 229.845 211.057L207.845 214.498C207.359 214.574 207 214.993 207 215.486V234.173C207 234.778 207.532 235.244 208.131 235.165L230.131 232.248C230.629 232.182 231 231.758 231 231.256V212.045Z"
            fill="#C4C4C4" />
        <path
            d="M204.5 216.488C204.5 215.839 203.892 215.362 203.261 215.517L167.761 224.24C167.314 224.35 167 224.751 167 225.211V230.498C167 231.145 167.605 231.622 168.234 231.471L203.734 222.939C204.183 222.831 204.5 222.429 204.5 221.967V216.488Z"
            fill="white" />
        <path
            d="M489 232.61C489 231.234 490.358 230.269 491.658 230.721L495.658 232.114C496.461 232.394 497 233.152 497 234.003V245.252C497 246.588 495.715 247.549 494.434 247.171L490.434 245.99C489.584 245.739 489 244.958 489 244.072V232.61Z"
            fill="white" />
        <path
            d="M166 226.99C166 225.644 164.696 224.682 163.409 225.08L158.409 226.627C157.571 226.886 157 227.661 157 228.538V239.817C157 241.128 158.24 242.084 159.508 241.752L164.508 240.44C165.387 240.209 166 239.415 166 238.506V226.99Z"
            fill="white" />
        <path
            d="M155.5 229.402L146.175 233.626C145.46 233.95 145 234.662 145 235.448V246.194C145 247.699 146.599 248.664 147.93 247.965L154.43 244.548C155.088 244.203 155.5 243.521 155.5 242.778V229.402Z"
            fill="white" />
        <path
            d="M184 230.585L169.503 234.302C168.619 234.529 168 235.326 168 236.239V245.246C168 246.584 169.288 247.545 170.57 247.163L182.57 243.592C183.419 243.34 184 242.56 184 241.676V230.585Z"
            fill="#C4C4C4" />
        <path
            d="M499 237.333C499 235.765 500.722 234.807 502.055 235.634L519.599 246.522C519.863 246.686 520.085 246.909 520.248 247.174L523.134 251.866C524.235 253.656 522.249 261.507 520.96 263.169C519.877 264.566 518.879 266.064 518.104 267.3C517.325 268.541 515.508 268.655 514.628 267.484C511.136 262.837 503.655 253.12 500.026 250.199C499.431 249.72 499 249.024 499 248.259V237.333Z"
            fill="#C4C4C4" />
        <path
            d="M143.008 236.497C143.008 235.168 139.297 235.281 138.508 236.103L130.608 246.565C130.517 246.66 130.438 246.771 130.371 246.895C130.294 247.041 130.223 247.191 130.131 247.327L127.142 251.717C127.049 251.854 126.971 251.996 126.951 252.159C126.719 254.026 128.463 262.069 129.829 264.774C130.169 265.447 130.818 265.244 131.192 264.59C133.703 260.194 139.702 251.894 142.428 249.995C142.796 249.738 143.008 249.221 143.008 248.67V236.497Z"
            fill="#C4C4C4" />
        <path
            d="M423 214.901C423 213.636 424.159 212.689 425.399 212.941L446.399 217.213C447.33 217.402 448 218.222 448 219.173V243.189C448 244.429 446.882 245.37 445.66 245.159L424.66 241.538C423.701 241.372 423 240.54 423 239.567V214.901Z"
            fill="#C4C4C4" />
        <path
            d="M205 227.672C205 226.357 203.753 225.4 202.483 225.74L187.483 229.755C186.608 229.989 186 230.781 186 231.687V243.169C186 244.273 186.895 245.169 188 245.169H203C204.105 245.169 205 244.273 205 243.169V227.672Z"
            fill="#C4C4C4" />
        <path
            d="M255 227.265C255 226.086 253.985 225.162 252.812 225.273L244.312 226.078C243.285 226.175 242.5 227.037 242.5 228.069V252.207C242.5 253.337 243.436 254.243 244.565 254.206L253.065 253.928C254.144 253.893 255 253.008 255 251.929V227.265Z"
            fill="#C4C4C4" />
        <path
            d="M325.36 206.627C380.146 207.079 429.634 213.182 465.351 222.665C483.216 227.409 497.58 232.984 507.43 239.085C517.34 245.222 522.39 251.702 522.304 258.173C522.218 264.643 516.997 271.038 506.926 277.011C496.916 282.948 482.408 288.284 464.42 292.732C428.459 301.623 378.819 306.908 324.034 306.456C269.249 306.003 219.76 299.9 184.044 290.417C166.178 285.674 151.815 280.099 141.964 273.998C132.054 267.86 127.004 261.38 127.09 254.91C127.176 248.44 132.397 242.044 142.468 236.072C152.478 230.135 166.987 224.798 184.975 220.351C220.935 211.459 270.575 206.175 325.36 206.627Z"
            stroke="black" stroke-width="2" />
    </g>
    <defs>
        <clipPath id="clip0">
            <rect width="648" height="400" fill="white" />
        </clipPath>
    </defs>
</svg>