<svg width="157" height="32" viewBox="0 0 157 32" fill="none" xmlns="http://www.w3.org/2000/svg">
<path d="M122.782 12.965C121.991 13.8129 121.596 14.9561 121.596 16.3946C121.596 17.8324 121.991 18.9755 122.782 19.8235C123.572 20.6717 124.602 21.0956 125.871 21.0956C127.139 21.0956 128.169 20.6717 128.959 19.8235C129.75 18.9755 130.145 17.8324 130.145 16.3946C130.145 14.9561 129.75 13.8129 128.959 12.965C128.169 12.1168 127.139 11.6929 125.871 11.6929C124.602 11.6929 123.572 12.1168 122.782 12.965ZM37.9954 7.02556H40.8911V4.12988H37.9954V7.02556ZM134.756 23.8203V9.34217H137.652V11.2778H137.79C137.826 11.2227 137.872 11.1444 137.928 11.0431C137.983 10.9415 138.13 10.7618 138.369 10.5035C138.608 10.2455 138.87 10.0197 139.155 9.82633C139.44 9.63235 139.83 9.45716 140.327 9.30045C140.823 9.14405 141.356 9.0657 141.926 9.0657C142.588 9.0657 143.199 9.15775 143.76 9.34217C144.321 9.5266 144.762 9.74765 145.084 10.006C145.406 10.264 145.677 10.5172 145.897 10.7666C146.118 11.0154 146.265 11.232 146.339 11.4164L146.476 11.6929H146.614C146.651 11.619 146.702 11.5225 146.766 11.4027C146.83 11.2826 147 11.0749 147.276 10.7803C147.552 10.4853 147.855 10.2226 148.186 9.99196C148.517 9.76135 148.977 9.54953 149.565 9.35587C150.153 9.16253 150.779 9.0657 151.441 9.0657C153.058 9.0657 154.336 9.5817 155.274 10.6143C156.211 11.6467 156.68 13.1125 156.68 15.0115V23.8203H153.785V15.1498C153.785 12.8453 152.773 11.6929 150.751 11.6929C149.758 11.6929 148.912 12.0706 148.214 12.8265C147.515 13.5823 147.166 14.5414 147.166 15.7031V23.8203H144.27V15.1498C144.27 12.8453 143.259 11.6929 141.237 11.6929C140.244 11.6929 139.398 12.0706 138.7 12.8265C138.001 13.5823 137.652 14.5414 137.652 15.7031V23.8203H134.756ZM120.839 21.7043C119.589 20.3398 118.963 18.5701 118.963 16.3946C118.963 14.2187 119.593 12.4535 120.853 11.0985C122.112 9.74319 123.688 9.0657 125.582 9.0657C126.446 9.0657 127.246 9.24088 127.981 9.59094C128.717 9.94131 129.241 10.2824 129.553 10.6143L129.994 11.1399H130.132V9.34217H133.028V23.8203H130.132V21.5107H129.994C129.958 21.5658 129.898 21.6441 129.815 21.7454C129.733 21.847 129.553 22.0267 129.277 22.285C129.002 22.543 128.708 22.7688 128.395 22.9625C128.082 23.1561 127.669 23.3313 127.154 23.488C126.639 23.6444 126.115 23.7228 125.582 23.7228C123.688 23.7228 122.107 23.0501 120.839 21.7043ZM107.212 15.0115H115.486C115.339 14.1082 114.902 13.3291 114.176 12.6745C113.449 12.02 112.507 11.6929 111.349 11.6929C110.356 11.6929 109.469 11.9923 108.688 12.5917C107.907 13.1909 107.415 13.9974 107.212 15.0115ZM105.864 21.6212C104.485 20.2015 103.796 18.4592 103.796 16.3946C103.796 14.3293 104.49 12.5917 105.878 11.181C107.266 9.7709 108.962 9.0657 110.966 9.0657C112.97 9.0657 114.666 9.7709 116.054 11.181C117.442 12.5917 118.136 14.3293 118.136 16.3946V17.3622H106.692C106.894 18.5054 107.39 19.4132 108.181 20.0862C108.971 20.7593 109.9 21.0956 110.966 21.0956C111.83 21.0956 112.593 20.9345 113.255 20.6118C113.917 20.2891 114.367 19.962 114.606 19.6301L114.965 19.1597H117.998C117.962 19.289 117.897 19.4549 117.805 19.6578C117.713 19.8604 117.479 20.2245 117.102 20.75C116.725 21.2756 116.298 21.7365 115.82 22.1327C115.342 22.529 114.671 22.8934 113.807 23.2253C112.942 23.5572 111.996 23.7228 110.966 23.7228C108.962 23.7228 107.262 23.0224 105.864 21.6212ZM98.2477 11.9693L98.2165 23.8203H95.3211L95.352 11.4384C95.352 10.2805 96.2907 9.34217 97.4485 9.34217H103.901V11.9693H98.2477ZM84.7347 11.9693V9.34217H86.3894V6.29997H89.2851V9.34217H93.5593V11.9693H89.2851V21.1931H93.6973V23.8203H88.7853C87.4622 23.8203 86.3894 22.7475 86.3894 21.4247V11.9693H84.7347ZM71.0882 19.2087H74.2598C74.2782 19.2638 74.3104 19.3377 74.3563 19.4298C74.4025 19.5218 74.5127 19.6878 74.6872 19.9273C74.8621 20.1671 75.064 20.3793 75.294 20.5634C75.5237 20.7481 75.8546 20.9138 76.2868 21.0615C76.7188 21.209 77.1924 21.2826 77.7071 21.2826C78.7181 21.2826 79.4536 21.1259 79.9132 20.8125C80.3728 20.499 80.6028 20.1025 80.6028 19.6231C80.6028 19.181 80.2993 18.8306 79.6925 18.5723C79.0857 18.3143 78.3505 18.1022 77.4864 17.9362C76.6222 17.7706 75.7584 17.5537 74.8943 17.2864C74.0301 17.0192 73.2946 16.5627 72.6879 15.9177C72.0814 15.2721 71.7778 14.4331 71.7778 13.4008C71.7778 12.2949 72.2833 11.3266 73.2946 10.4971C74.306 9.66707 75.6386 9.25267 77.2934 9.25267C78.3228 9.25267 79.2421 9.4046 80.0511 9.70879C80.8602 10.013 81.4666 10.3818 81.8712 10.815C82.2757 11.2482 82.6111 11.6817 82.8777 12.1149C83.1443 12.5481 83.3144 12.9214 83.388 13.2348L83.4982 13.6773H80.4649C80.4464 13.6222 80.4187 13.5575 80.3821 13.4839C80.3455 13.41 80.2486 13.267 80.0925 13.0552C79.9361 12.843 79.7524 12.6586 79.5409 12.5019C79.3297 12.3455 79.0261 12.2022 78.6308 12.0732C78.2356 11.9442 77.7899 11.8798 77.2934 11.8798C76.4843 11.8798 75.8686 12.0273 75.4456 12.3219C75.0229 12.6172 74.8114 12.9857 74.8114 13.4285C74.8114 13.797 75.0274 14.106 75.4596 14.3548C75.8916 14.6038 76.4385 14.7835 77.1003 14.8943C77.7622 15.0049 78.47 15.166 79.2239 15.3782C79.9776 15.5903 80.6853 15.8346 81.3472 16.1111C82.0091 16.3876 82.556 16.8255 82.9879 17.4247C83.4201 18.0241 83.6361 18.757 83.6361 19.6231C83.6361 20.8032 83.1077 21.8126 82.0505 22.6516C80.9933 23.4906 79.5456 23.9098 77.7071 23.9098C76.6222 23.9098 75.6527 23.7486 74.7978 23.4259C73.9425 23.1033 73.2946 22.7115 72.8535 22.2506C72.412 21.7897 72.0492 21.3288 71.7641 20.8679C71.4791 20.4067 71.3001 20.0197 71.2265 19.7062L71.0882 19.2087ZM57.4377 9.34217H60.4709L63.5698 20.9246H64.9503L68.3308 9.34217H71.3641L65.474 29.0326H62.4353L64.0763 23.8203H63.0707C62.0846 23.8203 61.2204 23.1609 60.9599 22.2095L57.4377 9.34217ZM46.7653 12.965C45.9747 13.8129 45.5794 14.9561 45.5794 16.3946C45.5794 17.8324 45.9747 18.9755 46.7653 19.8235C47.5558 20.6717 48.5853 21.0956 49.8537 21.0956C51.1223 21.0956 52.1521 20.6717 52.9427 19.8235C53.7332 18.9755 54.1282 17.8324 54.1282 16.3946C54.1282 14.9561 53.7332 13.8129 52.9427 12.965C52.1521 12.1168 51.1223 11.6929 49.8537 11.6929C48.5853 11.6929 47.5558 12.1168 46.7653 12.965ZM44.6417 21.6212C43.2443 20.22 42.5458 18.4777 42.5458 16.3946C42.5458 14.3111 43.2443 12.5688 44.6417 11.1673C46.039 9.76613 47.7766 9.0657 49.8537 9.0657C51.9314 9.0657 53.6689 9.76613 55.0659 11.1673C56.4633 12.5688 57.1618 14.3111 57.1618 16.3946C57.1618 18.4777 56.4633 20.22 55.0659 21.6212C53.6689 23.0224 51.9314 23.7228 49.8537 23.7228C47.7766 23.7228 46.039 23.0224 44.6417 21.6212ZM33.6523 29.0326V26.4051H37.9954V9.34217H40.8911V26.6366C40.8911 27.9598 39.8186 29.0326 38.4955 29.0326H33.6523Z" fill="white"/>
<path d="M16.9046 0H19.8003V13.5996C19.8003 16.9126 18.5581 19.9356 16.5195 22.2376C16.7715 21.1346 16.9046 19.9876 16.9046 18.8122V0Z" fill="#4038FF"/>
<path d="M7.4812 23.7095V23.7123C6.07238 25.4492 3.93095 26.5704 1.5293 26.6036L2.39631 23.7095H7.4812Z" fill="#4038FF"/>
<path d="M9.2048 18.5088V18.7986C9.2048 19.7122 9.04872 20.5875 8.75887 21.4026H3.05859L3.92306 18.5088H9.2048Z" fill="#4038FF"/>
<path d="M22.1058 0H25.0015V8.39751C25.0015 11.7105 23.7592 14.7335 21.7207 17.0355C21.9727 15.9325 22.1058 14.7855 22.1058 13.6101V0Z" fill="#4038FF"/>
<path d="M14.4778 0V18.8243C14.4778 26.0111 8.62781 31.8522 1.44705 31.8522H0L0.864469 28.9584H1.44705C7.01131 28.9584 11.5811 24.4392 11.5811 18.8243V0H14.4778Z" fill="#4038FF"/>
</svg>
