<svg xmlns="http://www.w3.org/2000/svg" viewBox="0 0 109.61 139.62"><defs><style>.cls-1{fill:#4038ff}</style></defs><g id="Layer_2" data-name="Layer 2"><g id="Layer_10" data-name="Layer 10"><path class="cls-1" d="M74 .07L86.75.1l-.16 59.67A57 57 0 0172.1 97.63a67.18 67.18 0 001.73-15zM33 104.13a34.14 34.14 0 01-26.1 12.62l3.84-12.68zM40.8 81.29v1.27a34 34 0 01-2 11.42l-25-.07 3.82-12.69zM96.91.13h12.7l-.1 36.87A57 57 0 0195 74.86a67.18 67.18 0 001.73-15z"/><path class="cls-1" d="M63.88 0l-.22 82.59a57.21 57.21 0 01-57.31 57H0l3.83-12.69h2.55A44.51 44.51 0 0051 82.58L51.17 0z"/></g></g></svg>
