<svg xmlns="http://www.w3.org/2000/svg" viewBox="0 0 109.61 139.62">
    <defs>
        <style>
            .cls-1 {
                fill: #4038ff;
            }
        </style>
    </defs>
    <g id="Layer_2" data-name="Layer 2">
        <g id="Layer_10" data-name="Layer 10">
            <path class="cls-1" d="M74,.07,86.75.1l-.16,59.67A57,57,0,0,1,72.1,97.63a67.18,67.18,0,0,0,1.73-15Z" />
            <path class="cls-1" d="M33,104.13h0A34.14,34.14,0,0,1,6.9,116.75l3.84-12.68Z" />
            <path class="cls-1" d="M40.8,81.29v1.27a34,34,0,0,1-2,11.42l-25-.07,3.82-12.69Z" />
            <path class="cls-1" d="M96.91.13l12.7,0L109.51,37A57,57,0,0,1,95,74.86a67.18,67.18,0,0,0,1.73-15Z" />
            <path class="cls-1"
                d="M63.88,0l-.22,82.59a57.21,57.21,0,0,1-57.31,57H0l3.83-12.69H6.38A44.51,44.51,0,0,0,51,82.58L51.17,0Z" />
        </g>
    </g>
</svg>