<svg xmlns="http://www.w3.org/2000/svg" width="492" height="530" viewBox="0 0 492 530">
  <g fill="none" fill-rule="evenodd">
    <g fill-rule="nonzero" transform="translate(8.067)">
      <path fill="#000" d="M228.393887,0.03564 C218.902668,0.194786041 209.42833,0.896853342 200.017319,2.1384 C180.182423,4.72785579 162.792631,16.6727338 153.257639,34.257168 C150.204437,39.9187528 147.50257,45.76288 145.167359,51.756408 C139.072919,67.438008 135.394871,76.87548 139.315271,88.323048 C140.134615,90.5943697 141.108682,92.8068591 142.230623,94.94496 C143.078855,96.634296 144.219335,98.922384 144.140927,99.692208 L143.813039,100.141272 C142.266361,102.149393 141.026798,104.376283 140.134991,106.748928 C137.176871,114.589728 138.538319,121.717728 140.477135,129.487248 C142.018556,136.061814 144.097418,142.498657 146.692751,148.732848 C147.982919,151.890552 148.467623,153.0738 148.759871,156.35268 C148.910061,158.320981 148.950516,160.29612 148.881047,162.26892 C148.795511,166.68828 148.688591,172.191096 152.844215,178.0218 C154.316565,180.071659 156.101232,181.877973 158.133191,183.374928 C158.788351,183.927987 159.015304,184.838673 158.696303,185.634504 C151.451732,205.512365 145.585746,225.865885 141.140039,246.550392 C139.001639,256.408416 137.205383,266.458896 135.744143,276.438096 C135.587327,277.500168 135.437639,278.576496 135.295079,279.610056 C131.795231,304.736256 102.983855,320.239656 77.5582791,333.861264 C71.3711751,337.182912 65.5333431,340.319232 60.1873431,343.526832 C56.6732391,345.629592 53.1163671,347.582664 49.3527831,349.649784 C40.3144791,354.639384 30.9767991,359.75016 22.4517111,367.027848 C11.0469111,376.75044 7.00533508,390.265128 4.93108708,399.588552 C4.61745508,401.014152 4.21828708,402.617952 3.81199108,404.328672 C1.67359108,413.274312 -1.05643292,424.415376 0.419063083,433.624752 C1.84466308,442.484856 8.25986308,457.753032 35.3462631,460.418904 C38.0691591,460.689768 40.9631271,460.8252 43.9568871,460.8252 C44.5770231,460.8252 45.1971591,460.8252 45.8101671,460.8252 C65.0058711,460.4688 94.6860711,453.386592 88.5274791,472.368456 C84.5714391,484.54308 93.5692785,516.22008 103.933391,519 C111.717167,521.088504 135.101831,529.062888 144.047471,529.062888 L146.050439,529.062888 C147.426143,529.062888 148.901639,529.062888 150.327239,529.062888 C150.975887,529.062888 151.631663,529.062888 152.280311,529.062888 C172.859016,529.11055 193.212999,524.783172 211.991567,516.365872 C237.695135,504.847024 256.976375,490.29388 275.630351,471.860872 C285.609551,462.017104 295.004255,463.715064 305.346983,455.46084 C311.976023,450.15048 309.432119,450.653544 317.201639,445.5 C334.729391,433.824336 352.841639,421.756632 364.959239,403.4448 C370.062887,395.725176 373.990415,387.991296 377.789639,380.506896 C383.449271,369.344448 388.795271,358.795008 397.470047,349.642656 C399.751007,347.233392 402.124631,344.795616 404.426975,342.436248 C406.985927,339.820272 409.623287,337.111632 412.210751,334.367352 L413.037599,333.490608 C414.955031,331.466256 416.915231,329.392008 418.825535,327.153816 C424.028975,325.934928 428.947295,324.601992 433.494959,323.176392 C448.200023,318.557448 468.792815,310.132152 477.802607,290.309184 C484.417391,275.768064 483.918431,256.615128 476.448287,237.75444 C469.092191,219.22164 456.525527,204.630624 441.963023,197.794872 C439.917287,196.83972 437.721863,196.02 435.184295,195.079104 C428.129996,192.555043 421.277016,189.500272 414.684167,185.941008 C409.095815,182.94012 405.588839,180.666288 402.488159,178.656192 C398.161463,175.854888 394.426391,173.431368 388.567175,171.6066 C383.817496,170.14521 378.874272,169.409854 373.904879,169.425432 C367.756768,169.485121 361.649385,170.430997 355.771247,172.233864 C355.593681,172.290001 355.408619,172.318842 355.222391,172.3194 C354.34468,172.287451 353.575758,171.722067 353.283575,170.8938 L353.247935,170.779752 L353.212295,170.694216 C352.952827,169.950972 353.131785,169.125012 353.675615,168.555816 L360.404447,161.570376 C367.328398,154.36182 368.940669,143.56475 364.424639,134.64792 L324.999671,57.066768 L305.611511,18.92484 C302.47816,12.7543249 296.781511,8.28099479 290.043959,6.70032 C271.175576,2.2543319 251.856217,0.00594796012 232.471103,0 C231.123911,0 229.748207,0 228.393887,0.03564 Z"/>
      <path fill="#C4C3C6" d="M232.471103,10.692 C251.030625,10.6975776 269.527194,12.8502883 287.591927,17.1072 C291.262592,17.9710049 294.367406,20.4058458 296.081375,23.764752 L354.894503,139.473576 C357.361473,144.328388 356.483222,150.212953 352.706207,154.135872 C350.463263,156.4596 348.220319,158.78808 345.977375,161.121312 C342.600608,164.610461 341.495534,169.713138 343.126175,174.286728 C343.126175,174.35088 343.168943,174.42216 343.197455,174.486312 C345.015099,179.560931 349.810776,182.958344 355.201007,182.990016 C356.420076,182.989122 357.632573,182.811449 358.800647,182.462544 C363.687099,180.947317 368.767794,180.150157 373.883495,180.096048 C377.780905,180.063179 381.660483,180.625645 385.388087,181.764 L386.029664,181.97065 C386.239699,182.040521 386.446029,182.111397 386.649007,182.183332 L387.248239,182.402369 C387.346553,182.439422 387.444117,182.476754 387.540976,182.51437 L388.114018,182.743543 C388.39666,182.859893 388.673749,182.978928 388.946477,183.10083 L389.486474,183.34851 L390.016965,183.604158 L390.540072,183.868097 L391.057915,184.140648 L391.572616,184.422135 L392.086295,184.71288 L392.601075,185.013206 L393.119075,185.323436 L393.642418,185.643893 L394.44209,186.144457 L398.606278,188.826256 L399.993669,189.707269 L401.111341,190.404473 L402.303078,191.134123 L403.142251,191.639121 L404.019644,192.159346 L404.937379,192.695122 L405.897577,193.246771 L406.902358,193.814615 L408.497766,194.697455 L409.623287,195.3072 L410.833672,195.952023 L412.015102,196.569812 L413.167985,197.161427 L414.292727,197.727729 L415.389735,198.26958 L416.459417,198.78784 L417.502179,199.283369 L418.518429,199.75703 L419.508572,200.209682 L420.473017,200.642186 L421.412171,201.055403 L422.326439,201.450195 L423.21623,201.827422 L424.505911,202.36221 L425.742806,202.862319 L427.312263,203.480208 L428.793576,204.048497 L433.61905,205.855391 L434.456006,206.17665 L434.991943,206.38698 L435.763816,206.698863 L436.49847,207.008995 L436.968241,207.216211 L437.422487,207.4248 C462.676991,219.278664 479.513327,260.678088 468.072887,285.8328 C463.136787,296.69427 453.364741,303.556501 442.798852,308.269584 L441.806098,308.705196 C441.640292,308.776767 441.474324,308.847828 441.308208,308.918385 L440.309864,309.335743 L439.308719,309.741355 L438.305513,310.13556 L437.300986,310.518697 L436.295879,310.891104 L435.290931,311.253121 L434.286882,311.605086 L433.284474,311.947337 L432.284445,312.280214 L431.287536,312.604056 L430.294487,312.9192 C424.848695,314.62992 419.017991,316.148184 412.859399,317.488248 C410.212862,320.795248 407.398353,323.964248 404.426975,326.982744 C399.579935,332.12916 394.568951,337.111632 389.707655,342.236664 C382.247794,350.109284 377.094509,358.669137 372.438208,367.476655 L371.570533,369.13086 L370.711857,370.790225 L369.859526,372.454108 L366.931097,378.219491 L365.693976,380.636921 C362.78796,386.280096 359.72451,391.935555 356.049239,397.49292 C348.398073,409.060065 337.718787,418.108402 326.240133,426.333125 L324.705104,427.425023 L323.161776,428.508053 L321.611321,429.583107 L320.054915,430.651079 L317.711713,432.24171 L314.577569,434.346096 L308.457082,438.427423 C301.630137,442.987124 294.915399,447.558964 288.753791,452.478312 C283.529894,456.64919 235.105413,479.555245 216.292839,488 C199.208604,495.662871 184.015118,506.253319 165.298936,506.348013 L155.128416,506.348013 L154.222523,506.348013 C153.316222,506.348013 152.408901,506.33773 151.502416,506.326112 L150.158469,506.304207 L148.846867,506.272424 L147.538986,506.228422 L146.669755,506.191333 L145.80311,506.147363 L144.508808,506.067241 L143.650262,506.003535 C143.507485,505.992191 143.36487,505.980476 143.222425,505.968377 L142.369858,505.89109 L141.521743,505.804024 L140.678453,505.7066 L139.840362,505.598237 L139.007843,505.478356 L138.181268,505.346377 C133.434532,504.549637 125.292839,501 101.292839,488 C101.292839,454 116,454 124,443 C148.689689,418.99065 171.688679,412.576768 176.292839,406 C178.787639,402.436 170.778263,411.656256 168.732527,408.854952 C167.620789,407.399001 166.329949,406.089003 164.890535,404.955936 C163.749263,404.280756 162.690513,403.279481 161.668735,402.194094 L161.114795,401.595178 L159.751247,400.082166 L159.210037,399.49358 C157.767463,397.950256 156.324263,396.647856 154.740263,396.331056 L153.956183,396.331056 C152.205124,396.312363 150.470951,396.674763 148.873919,397.393128 C148.280199,398.241779 147.334468,399.006769 146.350947,399.727467 L144.886597,400.780218 C144.297373,401.209124 143.754757,401.628418 143.335463,402.047712 C141.460799,403.473312 139.593263,404.83476 137.725727,406.15344 C135.858191,407.47212 133.997783,408.740904 132.151631,409.995432 C131.185074,410.565672 130.204832,411.115383 129.196305,411.6692 L127.660478,412.506085 L126.071276,413.367603 L124.417751,414.272232 C119.691887,417.223224 118.037303,403.224112 113.347079,406.139464 C111.736151,407.087488 110.125223,408.021256 108.393119,408.919384 C105.8057,409.833846 103.293741,410.949213 100.880207,412.255288 C98.4424311,413.552584 96.0688071,415.006696 93.7094391,416.532088 L92.4239295,417.318093 L91.1307859,418.099529 L89.8299757,418.875126 L88.5214663,414.643613 L87.205225,415.403721 C86.3251463,415.907385 85.4398912,416.404615 84.5494163,416.89372 L83.2097837,417.621071 C72.4613166,423.387734 60.9580611,427.862336 48.6248391,428.118944 L46.9640151,428.118944 C44.4478311,428.118944 41.9031351,428.012024 39.4012071,427.762544 L38.6139759,427.680586 C38.3520756,427.651687 38.0907129,427.621193 37.8299706,427.589065 L37.0496878,427.487731 C36.790269,427.45229 36.5315534,427.415172 36.2736236,427.376337 L35.5022746,427.254635 L34.7361372,427.122377 C34.4816818,427.076504 34.2281777,427.02883 33.9757077,426.979315 L33.2214826,426.825201 L32.4739582,426.659787 C32.2259554,426.602738 31.9791521,426.543764 31.733631,426.482825 L31.0009973,426.294067 C30.5152497,426.164241 30.034962,426.026386 29.5607962,425.880171 L28.8542215,425.654537 C21.2511953,423.141352 15.3521015,418.376961 13.9970151,409.942544 C13.2767901,405.442994 10.9874245,421.779421 12.0996824,416.190532 L12.3738085,414.851267 C12.4206057,414.628507 12.4679138,414.406024 12.5156668,414.183899 L12.8069981,412.856071 C12.8562676,412.635692 12.9058503,412.41583 12.9556805,412.196562 L13.2571027,410.888733 L13.7134513,408.962095 L14.7426042,404.697029 L15.0132498,403.554814 L15.2676996,402.45352 L15.3878631,401.919408 C15.5114151,401.365008 15.6398951,400.810608 15.7737431,400.256756 L16.0487268,399.149943 C18.355008,390.119586 22.1716071,381.332688 29.4157671,375.175152 C35.8232451,369.703224 42.9244161,365.478003 50.1674788,361.443992 L52.2403097,360.295709 L57.4374017,357.434626 C59.8628504,356.093354 62.2836277,354.734236 64.6792967,353.318178 L65.7044151,352.707696 C66.8229408,352.037379 67.9719516,351.365876 69.147552,350.691963 L70.9304079,349.679135 L72.7502266,348.661776 L74.6040866,347.638968 L76.4890663,346.609795 L80.3406986,344.528683 L86.2785055,341.33634 L88.2888506,340.24971 L90.3098643,339.150294 L92.3386253,338.037173 C116.718553,324.593838 142.14081,307.992326 145.887287,281.099808 C146.029847,280.066248 146.179535,279.039816 146.329223,277.999128 C147.697799,268.668576 149.429903,258.917472 151.603943,248.809968 C155.947326,228.609529 161.684843,208.734234 168.775295,189.326808 C170.719871,184.071582 168.980399,178.163174 164.498495,174.799944 C163.362617,173.975228 162.368361,172.971343 161.554631,171.827568 C159.988085,169.635103 159.61545,167.629615 159.558187,165.183337 L159.550171,164.610701 C159.549635,164.513862 159.549465,164.4163 159.549612,164.317978 L159.563371,163.099394 L159.599005,161.104856 L159.606026,160.020054 L159.601209,159.260503 L159.585995,158.469873 L159.557985,157.64645 C159.528645,156.946123 159.483476,156.209851 159.416231,155.433168 C159.174734,152.704855 158.772852,150.777911 158.214339,148.994991 L158.092262,148.614901 L157.902954,148.057823 L157.703204,147.502595 L157.493038,146.944568 L156.881878,145.407457 L155.921831,143.045512 L155.538586,142.075705 L155.137233,141.029294 L154.717835,139.895259 L154.391484,138.9806 L153.94066,137.666707 L153.590812,136.6045 L153.108755,135.077001 L152.735554,133.841933 L152.352389,132.525035 L152.091423,131.599345 L151.69171,130.135731 L151.419737,129.107926 L151.143375,128.036864 L150.862631,126.921168 L150.615769,125.916545 L150.275729,124.477148 C150.240041,124.321514 150.205067,124.167271 150.170822,124.01438 L149.974225,123.112921 C149.942959,122.965271 149.912452,122.818891 149.882722,122.67374 L149.71377,121.817255 C148.863661,117.324498 148.839605,114.006558 150.149831,110.526768 C150.681885,109.113897 151.253944,108.154708 151.814378,107.346573 L152.14883,106.877398 L152.639856,106.209834 L152.956492,105.76774 C153.527239,104.948299 154.040192,104.055308 154.426631,102.685968 C155.472117,98.9731025 154.449183,95.7590519 152.977486,92.582647 L152.667125,91.9258457 L152.347145,91.269211 L151.526031,89.6223973 C150.756396,88.078798 149.999321,86.5106169 149.437031,84.865968 C148.093061,80.9388306 148.144433,77.1636791 149.247741,72.5307187 L149.435822,71.7717492 C149.468688,71.643948 149.502308,71.5154802 149.536677,71.3863261 L149.75181,70.603005 L149.984572,69.8022533 L150.234636,68.9831141 L150.501677,68.1446306 L150.78537,67.2858459 L151.085389,66.4058029 L151.401409,65.5035449 L151.90473,64.1064113 L152.628789,62.1568827 L153.615327,59.5698933 L155.139431,55.641168 C157.313147,50.0597609 159.829365,44.6178741 162.673727,39.34656 C170.548032,24.7633879 184.956927,14.8585985 201.393023,12.730608 C210.40701,11.5389983 219.481201,10.8583745 228.572087,10.692 L232.471103,10.692 Z"/>
      <path fill="#FFF" d="M218.899047 393.874431L213.325889 390.272954C211.257008 388.627754 203.015378 395.053418 201.713753 392.746467L139 430.24569C139.838699 433.113377 141.348359 434.947853 143.084466 436.149751 151.174811 441.675661 205.613388 418.992463 224.746951 404.901191 232.013955 399.549269 219.422469 394.117789 218.899047 393.874431zM430.23256 226.441019C436.449548 223.169887 445.857677 220.76643 454.372337 221.018084 461.320541 229.313741 466.632995 239.836799 469.45854 250.623157 467.246179 252.404635 464.308356 253.054974 460.711646 251.803704L460.372526 251.680802C441.681898 244.627598 424.055258 251.126164 407.645821 264.139871L407.148938 264.536213C406.260727 265.24277 405.392254 265.95914 404.533649 266.695137 399.759594 270.762693 393.932825 264.506609 397.285751 259.08953L397.398353 258.913197 397.664816 258.520666C406.369286 245.400296 417.067296 233.310322 430.23256 226.441019z"/>
      <path fill="#000" d="M165.931223 77.067936C166.547814 78.8244698 166.590248 80.7315064 166.052399 82.513728 165.349126 84.5366762 164.179469 86.3656383 162.638087 87.8526 161.333663 89.2782 156.372575 93.070296 156.372575 93.070296 156.372575 93.070296 158.304263 85.229496 156.372575 82.727568 154.804415 80.639064 151.910447 82.620648 151.468511 78.144264 151.311695 76.540464 151.382975 76.005864 152.309615 74.95092 154.640471 72.81252 157.855199 71.67204 160.898855 73.111896 163.015871 74.1312 165.033095 75.064968 165.931223 77.067936zM206.924351 72.805392C205.391831 71.465328 201.934751 70.823808 198.427775 70.168032 197.786255 70.046856 197.144735 69.954192 196.496087 69.882912 201.699527 72.256536 205.049687 75.16476 204.814463 78.329592 205.696112 77.8536454 206.479724 77.2151468 207.123935 76.4478 208.046932 75.377272 207.958789 73.7686633 206.924351 72.805392L206.924351 72.805392z"/>
      <path fill="#FFF" d="M206.938607,59.1624 L208.143239,51.89184 C208.310751,51.2636717 208.310751,50.6025763 208.143239,49.974408 C207.601511,48.548808 205.698335,48.384864 204.187199,48.484656 C189.918388,49.4118815 172.224205,51.4563608 159.510453,58 C172.768533,45.069808 196.068407,42.889176 214.601207,41.898384 C215.384968,39.4987915 214.794313,36.862718 213.061559,35.026992 C215.748815,32.482296 235.714343,18.561312 290.307695,23.721984 C290.065343,23.721984 289.594895,23.429736 289.345415,23.337072 L288.197807,22.888008 C287.485007,22.602888 286.729439,22.317768 285.988127,22.046904 C284.512631,21.49092 283.022879,20.963448 281.533127,20.450232 C278.553623,19.4238 275.538479,18.475776 272.509079,17.599032 C254.267935,12.3940383 235.317053,10.1132923 216.361823,10.841688 C214.807905,10.8066852 213.253698,10.8972678 211.714367,11.112552 C211.251047,11.212344 210.837623,11.461824 210.367175,11.568744 C209.654375,11.718432 208.941575,11.754072 208.228775,11.839608 C205.320551,12.203136 202.419455,12.595176 199.532615,13.101264 C193.830215,14.099184 188.177711,15.53904 182.967143,18.090864 C181.306613,18.8936953 179.703725,19.8106525 178.169999,20.835144 C169.780343,26.48052 164.070815,35.411904 160.307231,44.79948 C156.543647,54.187056 154.462271,64.152 151.903319,73.945872 C153.920543,71.49384 158.012015,71.572248 160.456919,73.589472 C162.901823,75.606696 163.849847,79.01388 163.657391,82.178712 C163.464935,85.343544 162.288815,88.3872 161.098439,91.30968 L152.951135,111.98088 C157.368233,104.668964 160.972656,96.8960296 163.700159,88.800624 C166.672535,79.990416 168.989135,70.217928 176.167031,64.308816 C184.442639,57.508704 196.310759,58.0932 206.938607,59.1624 Z"/>
      <path fill="#000" d="M170.292839 183C166.272817 180.370173 147.913863 241.727664 144.292839 255 143.689144 258.447026 144.200567 264.769013 142.565639 267.863112 142.729583 286.859232 147.940151 301.820904 158.532359 310.089384 162.492054 313.128047 167.060352 315.277263 171.925871 316.390536L194.543015 217.097496C180.862922 219.967613 171.77953 219.935114 167.292839 217 165.008065 215.505341 174.3779 197.775948 176.292839 189 177.747203 182.334815 172.028087 184.135168 170.292839 183zM365.486711 155.561472C359.077213 161.834112 352.067823 167.568445 344.979056 173.212453L338.89567 178.038501C330.284399 184.87367 321.775371 191.76438 314.300543 199.51272 308.846252 205.05657 304.074618 211.232892 300.087311 217.910088 295.316101 226.081203 292.081673 234.956676 289.113478 243.964833L288.309616 246.424463 286.320132 252.585412C283.924983 259.977453 281.43743 267.33655 278.161583 274.349592 271.561055 288.477288 261.510575 301.272048 248.223983 309.440736 235.422095 317.317176 218.072543 321.2946 203.481527 316.305 206.288979 302.080096 210.956142 288.134697 215.985714 274.281061L217.108754 271.20391 218.807696 266.592845 220.859489 261.049263 222.530014 256.51627C225.300801 248.962372 250.935028 165.56955 256.292839 161L219.327071 302.269968C224.43894 303.653458 229.792369 303.896795 235.008671 302.982768 242.607119 301.571424 249.706607 297.48708 256.136063 291.157416 257.138418 286.061371 267.857344 252.008899 288.292839 189L351.059639 132.309936C356.366936 139.739962 361.186102 147.506818 365.486711 155.561472z"/>
      <path fill="#FFF" d="M245.465447,207.574488 C237.689591,231.62436 232.113119,249.74136 228.736031,261.925488 C225.038975,275.264352 221.622287,288.676872 218.485967,302.163048 C221.786231,301.450248 232.416095,296.293136 233.292839,293 L243.292839,240 C243.359255,239.751368 244.083457,228.942864 245.465447,207.574488 Z"/>
      <path fill="#FFF" d="M321.531103,109.981712 C300.349836,173.972347 288.713763,210.463056 286.622883,219.45384 C289.923147,218.74104 300.553011,213.583928 301.429755,210.290792 L319.358495,142.407224 C319.424911,142.158592 320.149113,131.350088 321.531103,109.981712 Z" transform="rotate(38 304.077 164.718)"/>
      <path fill="#000" d="M60.3456369.492956571C49.0252597 8.22180928 40.6163712 14.1370769 35.1189716 18.2387595 29.1006012 22.7292044 23.1761563 27.3439894 17.3456369 32.0831145 18.9789381 32.8699965 25.1953645 34.1787992 26.6659792 33.0582729L48.5964713 13.664094C48.7075964 13.5795673 52.6239849 9.1891882 60.3456369.492956571zM48.3456369 43.4929566C37.0252597 51.2218093 28.6163712 57.1370769 23.1189716 61.2387595 17.1006012 65.7292044 11.1761563 70.3439894 5.34563687 75.0831145 6.97893807 75.8699965 13.1953645 77.1787992 14.6659792 76.0582729L36.5964713 56.664094C36.7075964 56.5795673 40.6239849 52.1891882 48.3456369 43.4929566zM55.3456369 22.4929566C44.0252597 30.2218093 35.6163712 36.1370769 30.1189716 40.2387595 24.1006012 44.7292044 18.1761563 49.3439894 12.3456369 54.0831145 13.9789381 54.8699965 20.1953645 56.1787992 21.6659792 55.0582729L43.5964713 35.664094C43.7075964 35.5795673 47.6239849 31.1891882 55.3456369 22.4929566zM43.3456369 65.4929566C32.0252597 73.2218093 23.6163712 79.1370769 18.1189716 83.2387595 12.1006012 87.7292044 6.17615626 92.3439894.345636873 97.0831145 1.97893807 97.8699965 8.1953645 99.1787992 9.66597919 98.0582729L31.5964713 78.664094C31.7075964 78.5795673 35.6239849 74.1891882 43.3456369 65.4929566z" transform="translate(245.165 175.507)"/>
      <path fill="#000" d="M289.292839,35 C289.344034,35.0286384 288.997946,34.3619717 288.254575,33 L287.577178,33.0743394 C287.493549,33.5947154 287.401557,34.1150914 287.292839,34.6354674 C287.393194,35.2880023 287.476823,35.9487972 287.543727,36.5930722 C287.760891,38.6099843 287.78609,40.642566 287.618993,42.6641253 C287.939414,43.0657899 288.710879,50.5110815 289.933391,65 C291.933391,61 294.933391,60 297.933391,64 L329.801566,133.556463 L337.292839,129 L289.292839,35 Z"/>
      <path fill="#FFF" d="M292.933391,33 C292.984585,33.0286384 292.638497,32.3619717 291.895126,31 L291.21773,31.0743394 C291.134101,31.5947154 291.042108,32.1150914 290.933391,32.6354674 C291.033746,33.2880023 291.117375,33.9487972 291.184278,34.5930722 C291.401442,36.6099843 291.426641,38.642566 291.259544,40.6641253 C291.579965,41.0657899 292.012049,41.701805 292.555797,42.5721706 L333.442117,131.556463 L340.933391,127 L292.933391,33 Z"/>
      <path fill="#000" d="M26.5645671 428.99868C31.6468311 431.336664 37.0712391 431.9568 42.3530871 432.74088 50.9066871 433.95264 58.1772471 432.149256 64.5568071 427.630104 73.3171191 421.428744 82.2128631 415.434096 91.1299911 409.403808 97.4667831 405.127008 104.031671 401.170968 108.565079 395.019504 106.726055 394.969608 105.236303 396.045936 103.889111 397.086624L85.5416391 411.242832C79.8392391 415.640808 74.0940711 420.060168 67.6361031 423.488736 61.1781351 426.917304 53.9218311 429.340824 46.1665671 429.490512 34.1915271 429.704352 22.1024391 424.536552 10.9898871 418.5918 15.6497747 422.797081 20.8961824 426.30269 26.5645671 428.99868L26.5645671 428.99868zM187.058615 130.214304L182.154551 128.075904 182.154551 128.040264C180.115943 127.09224 179.923487 126.072936 180.429575 125.032248 181.419052 123.11914 182.00382 121.022708 182.147423 118.873656L182.147423 118.873656C182.17352 118.296573 182.120761 117.718627 181.990607 117.155808 181.021199 113.185512 175.154855 112.501224 173.194655 112.380048 172.791776 112.364598 172.391688 112.452961 172.032791 112.636656 169.557081 113.930138 166.598717 113.900715 164.149223 112.558248 163.058194 111.933897 161.839463 111.56584 160.585223 111.48192 155.887871 111.260952 150.834119 110.526768 152.644631 118.8594 154.141511 125.759304 159.530279 130.492296 168.269207 126.7002 169.844495 125.9874 171.932999 126.529128 174.007247 127.013832 174.30532 127.081864 174.519537 127.343042 174.527933 127.648665 174.536329 127.954288 174.336775 128.226834 174.042887 128.311128 172.936032 128.590667 171.873327 129.022466 170.885183 129.594168 166.922015 132.088968 158.432567 130.19292 159.401975 136.764936 160.207439 142.23924 166.316135 136.96452 169.994183 137.598912 170.251278 137.642326 170.505872 137.699431 170.756879 137.769984 171.19287 137.907506 171.515248 138.277436 171.591867 138.728136 171.668486 139.178836 171.486461 139.634514 171.120407 139.908384 170.865454 140.091463 170.587433 140.24006 170.293559 140.35032 165.353855 142.196472 157.505927 141.868584 162.844799 150.942528 163.229531 151.749088 163.72891 152.495755 164.327423 153.159336 165.417411 154.475497 167.204853 154.985385 168.825191 154.442376 176.167031 151.940448 180.565007 146.08836 184.235927 139.42368 185.433431 137.420712 187.386503 131.40468 187.087127 130.15728L187.058615 130.214304z"/>
      <path fill="#C4C3C6" d="M184.863191,204.951384 L173.572439,195.80616 C159.401975,242.188056 154.683239,281.620152 162.973103,294.037128 C164.220421,296.057714 166.212263,297.506792 168.518687,298.071576 C173.943095,273.722328 180.636287,253.29348 186.039311,228.929976 C190.130783,215.8002 188.420063,199.719432 184.863191,204.951384 Z"/>
      <path fill="#000" d="M168.873557,262.69819 L167.510453,260 L167.510453,260 L168.522612,261.111157 L168.522612,261.111157 L169.977151,262.72474 L169.977151,262.72474 L171.356049,264.274595 L171.356049,264.274595 L172.233733,265.272456 L172.233733,265.272456 L173.48855,266.71623 L173.48855,266.71623 L174.284343,267.643425 L174.284343,267.643425 L175.417567,268.981284 L175.417567,268.981284 L176.479029,270.255675 L176.479029,270.255675 L177.147245,271.070037 L177.147245,271.070037 L177.78423,271.856237 L177.78423,271.856237 L178.390249,272.61429 L178.390249,272.61429 L178.965568,273.344215 L178.965568,273.344215 L179.510453,274.046029 L179.510453,274.046029 L177.895664,280 L173.340789,271.736884 L173.340789,271.736884 L171.042055,267.044885 L171.042055,267.044885 L168.873557,262.69819 L168.873557,262.69819 Z M171.643258,243.001449 L170.510453,241 L170.510453,241 L171.630409,242.115787 L171.630409,242.115787 L172.714111,243.203607 L172.714111,243.203607 L174.272239,244.782937 L174.272239,244.782937 L175.266412,245.800915 L175.266412,245.800915 L176.225218,246.790986 L176.225218,246.790986 L177.59767,248.223804 L177.59767,248.223804 L178.469169,249.144182 L178.469169,249.144182 L179.306189,250.036714 L179.306189,250.036714 L180.497628,251.323335 L180.497628,251.323335 L181.249562,252.146323 L181.249562,252.146323 L181.967905,252.941525 L181.967905,252.941525 L182.652913,253.708956 L182.652913,253.708956 L183.304837,254.448635 L183.304837,254.448635 L184.221249,255.506153 C184.319,255.62019 184.4154,255.733073 184.510453,255.844801 L182.848487,262 L177.179835,252.96697 L177.179835,252.96697 L173.584161,246.458131 L173.584161,246.458131 L171.643258,243.001449 L171.643258,243.001449 Z M175.120274,225.768729 L173.510453,223 L173.510453,223 L175.162373,224.623845 L175.162373,224.623845 L176.738899,226.189297 L176.738899,226.189297 L178.240727,227.696408 L178.240727,227.696408 L179.668551,229.145227 L179.668551,229.145227 L181.023066,230.535806 L181.023066,230.535806 L182.304969,231.868194 L182.304969,231.868194 L183.514955,233.142443 L183.514955,233.142443 L184.653718,234.358603 L184.653718,234.358603 L185.721954,235.516725 L185.721954,235.516725 L186.395273,236.256588 L186.395273,236.256588 L187.347509,237.318091 L187.347509,237.318091 L187.944139,237.993589 L187.944139,237.993589 L188.510453,238.643367 L188.510453,238.643367 L186.921977,245 L180.553563,235.266687 L180.553563,235.266687 L177.700324,230.248495 L177.700324,230.248495 L175.120274,225.768729 L175.120274,225.768729 Z M178.278239,206.671315 L176.510453,204 L176.510453,204 L178.210277,205.48396 L178.210277,205.48396 L179.839083,206.918407 L179.839083,206.918407 L180.885778,207.847216 L180.885778,207.847216 L182.397473,209.199226 L182.397473,209.199226 L183.839652,210.501827 L183.839652,210.501827 L185.655395,212.161839 L185.655395,212.161839 L186.937559,213.349306 L186.937559,213.349306 L188.152085,214.487497 L188.152085,214.487497 L188.92447,215.218934 L188.92447,215.218934 L190.380472,216.616205 L190.380472,216.616205 L191.395459,217.606801 L191.395459,217.606801 L192.345059,218.548279 L192.345059,218.548279 L193.229835,219.440677 C193.324563,219.537108 193.418101,219.63263 193.510453,219.727244 L191.88631,226 L184.363817,215.999886 L184.363817,215.999886 L180.953353,210.746105 L180.953353,210.746105 L178.278239,206.671315 L178.278239,206.671315 Z"/>
      <path fill="#FFF" d="M187.229687 188.892C166.558487 190.3176 158.004887 258.0336 156.066071 270.04428 154.640471 270.842616 153.820751 270.521856 153.336047 269.630856 150.235367 263.928456 159.088343 229.98492 174.720047 185.705784 177.107927 186.43284 184.827551 188.221968 187.229687 188.892zM232.585151 329.27796C240.490103 323.953344 251.060927 325.236384 260.027951 321.993144 266.735399 319.569624 272.323751 314.651304 276.607679 308.956032 280.891607 303.26076 289.356103 288.500736 292.292839 282 301.405414 261.822063 307.292839 245 315.041855 220.989384 318.44915 223.884462 316.868192 237.350766 311.154533 254.387086 306.733132 267.570303 291.104082 303.829128 272.292839 322 256.546901 337.209916 237.304671 336.020635 232.699199 333.782856 231.915119 333.405072 231.074015 332.8776 230.888687 332.02224 230.782416 331.382427 230.989146 330.730434 231.444671 330.268752 231.778231 329.888388 232.161896 329.555079 232.585151 329.27796z"/>
      <path fill="#000" d="M215.028887,47.7576 C215.135807,47.629296 215.256841,47.4920107 215.392485,47.3464432 L215.683405,47.0444721 C215.735188,46.9923721 215.788631,46.9394037 215.843753,46.8855926 L216.194779,46.5528225 C216.25669,46.4957446 216.320317,46.437876 216.385678,46.3792424 L216.798802,46.0184692 C223.239878,40.5369873 243.709678,29.4067066 291.212951,30.878496 C292.239536,30.907619 292.520586,31.9109573 292.549848,33.1545362 L292.551957,33.499099 C292.551391,33.5573351 292.550399,33.6159296 292.549025,33.6748138 L292.536579,34.0310419 C292.533866,34.0908086 292.530865,34.150727 292.527622,34.2107282 L292.503761,34.5988914 L292.407337,35.9159455 C292.394491,36.1138496 292.384319,36.3042111 292.378965,36.4838415 L292.374815,36.74484 L292.303535,53.909064 L292.291999,54.7201649 L292.275834,55.5358482 C292.196033,58.8045453 291.899276,62.1256114 290.115239,64.807776 C290.058215,64.893312 289.994063,64.97172 289.929911,65.057256 C289.6055,64.8708849 289.282853,64.6821392 288.96165,64.4915989 L288.002052,63.9151742 L287.049195,63.3314619 L284.211862,61.5713993 L283.266759,60.9933364 C283.109057,60.8977387 282.951235,60.8025622 282.793254,60.7078796 L281.843134,60.1462901 C278.032444,57.9282765 274.083846,56.0782361 269.444039,55.5984 C264.083971,55.0426974 262.562638,63.2473635 267.805125,64.0045471 L268.018439,64.030824 C272.362631,64.461096 276.077203,66.3881302 279.674899,68.6054684 L280.572185,69.1651527 L281.912877,70.0181956 L283.252627,70.8748909 C283.401658,70.9697585 283.550783,71.064432 283.700039,71.158824 C286.023856,75.7484876 286.662117,81.0084624 285.503423,86.020704 C283.981417,92.9566044 279.647348,99.0183937 274.562492,103.941806 L274.169903,104.31828 C273.588656,104.848368 273.297033,105.625147 273.385823,106.406784 C273.692327,108.3456 275.987543,108.217296 277.555703,107.6328 C286.173796,104.295918 292.077964,96.2680293 292.695575,87.047136 C294.780413,87.0825723 296.008873,89.1390614 296.599908,91.2541338 L296.713168,91.6919272 C296.730552,91.7648175 296.747197,91.8376165 296.763111,91.9102438 L296.849893,92.343303 C296.862918,92.4149215 296.875231,92.4862073 296.886839,92.55708 C298.122359,100.074744 297.996897,114.555717 296.510453,136 C275.628246,156.412437 263.926958,168.602661 261.40659,172.570671 L255.468866,181.919007 L253.357889,185.218178 L251.944165,187.412321 L250.523908,189.600984 L249.095907,191.783107 L247.658954,193.957633 L246.21184,196.1235 C236.769955,210.171206 226.607503,223.603084 214.230551,235.109952 L213.801181,235.500566 L213.361162,235.889658 L212.910999,236.274944 L212.451193,236.654142 L211.982249,237.024969 C209.221063,239.159272 206.019095,240.749784 202.825751,239.757408 C200.772887,239.130144 199.190471,237.547728 197.836151,235.908288 C189.486367,225.783298 186.993711,212.011417 187.067434,198.862461 L187.072871,198.236808 L187.072871,195.464016 C187.072871,194.501736 187.058615,193.56084 187.015847,192.612816 C187.151901,191.551642 186.991539,190.473518 186.552527,189.49788 C184.481843,188.225532 182.023685,187.433433 179.493218,186.739567 L178.405223,186.447096 C177.435815,186.190488 176.466407,185.941008 175.504127,185.677272 C173.666882,185.382036 171.879635,184.832668 170.193767,184.04496 C169.31326,183.638704 168.467025,183.161952 167.663327,182.61936 C166.778372,182.276082 165.945823,181.810622 165.189911,181.236528 C164.512485,180.714844 163.916679,180.095013 163.422167,179.397504 C162.889276,178.864725 162.478285,178.222702 162.217535,177.515712 C161.959639,176.805221 161.829331,176.054745 161.832623,175.298904 C161.328321,170.907428 163.3656,168.403602 166.326633,166.609399 L166.766361,166.351762 C166.840686,166.309621 178.292839,166 187.592327,155.06964 C189.373066,152.905656 190.876812,150.527918 192.068711,147.991536 C192.668225,147.214199 193.175341,146.369804 193.579847,145.475352 C194.251259,143.98537 194.623606,142.345856 194.92389,140.682377 L195.086695,139.74497 L195.348643,138.18488 L195.498358,137.346032 L195.605427,136.792341 L195.720602,136.244353 L195.845852,135.703158 C196.56605,132.747268 197.832832,130.149084 201.121271,128.724552 C202.190338,128.294911 203.139323,127.612522 203.886935,126.73584 C205.548178,124.704779 205.334955,123.334797 204.658571,122.129748 L204.507057,121.873866 L204.34445,121.621949 L204.173837,121.372911 L203.569638,120.524799 L203.379224,120.24271 C202.699788,119.201945 202.256554,118.079806 203.038703,116.528544 C203.482335,115.688546 204.144863,114.984147 204.956135,114.489936 C207.594592,112.805535 210.526098,111.754302 213.496264,110.787516 L216.469896,109.828555 C218.942958,109.019006 221.383982,108.141081 223.645751,106.877232 C233.781767,101.210472 235.507631,87.46056 230.781767,76.76856 C230.547085,76.2042714 230.143779,75.726279 229.627031,75.399984 C228.491643,74.7126411 227.450809,75.152686 226.5383,75.8499 L226.268431,76.0659091 L226.006464,76.292127 L225.752602,76.5233324 L225.507047,76.754304 C220.400035,81.5538803 214.030518,84.7979822 207.145319,86.10624 L206.866059,86.1540479 C205.970331,86.2925216 204.987911,86.2790091 204.536471,85.279392 C204.25798,84.5834663 204.380937,83.7910758 204.857231,83.212272 C207.872375,80.5464 210.723575,78.408 214.287575,76.9824 C214.159271,76.73292 214.030967,76.497696 213.888407,76.2696 C213.745847,76.041504 213.603287,75.827664 213.446471,75.620952 C212.638704,74.7656745 211.70041,74.0439103 210.666551,73.482552 L210.235703,73.268712 C210.161255,73.233072 210.084431,73.197432 210.003647,73.161792 C208.224887,72.082872 206.197604,71.7031293 204.131914,71.4396651 L202.061202,71.1933715 C201.923339,71.1766574 201.785616,71.1595965 201.648096,71.1420162 L201.236207,71.087544 L200.416487,70.966368 C198.358061,70.4634139 196.326366,69.8567603 194.329175,69.148728 C195.619462,68.5695779 197.045509,68.3695165 198.441299,68.568295 L198.762791,68.621256 L199.589639,68.621256 C203.3918,68.4397375 207.194915,68.9592227 210.809111,70.153776 C211.015823,70.217928 211.215407,70.289208 211.414991,70.367616 C212.250452,70.6768456 213.063521,71.0429459 213.848509,71.4632618 L214.316087,71.721936 L214.964735,72.049824 C216.83563,73.1144792 218.768376,74.0665705 220.752671,74.901024 C216.475871,70.004088 210.623783,67.224168 204.044639,66.440088 C203.766647,66.404448 203.495783,66.354552 203.210663,66.354552 L201.418291,66.3575591 C200.466383,66.362571 199.575383,66.375936 198.684383,66.411576 C198.442031,66.454344 198.206807,66.454344 197.971583,66.454344 C195.797543,66.347424 193.659143,66.347424 191.285519,67.473648 C191.124216,67.5185552 190.964682,67.569485 190.807249,67.6263239 L190.572719,67.716 C189.68364,68.032496 188.892515,68.5754727 188.277503,69.291288 C188.083396,69.4803523 187.900151,69.6802563 187.728647,69.89004 C185.682657,72.3858583 186.705479,75.6858041 188.489761,78.780967 L188.777481,79.267828 C188.826377,79.3486388 188.875716,79.4292711 188.925457,79.5097064 L189.228376,79.9898072 C189.279553,80.069381 189.331047,80.1487211 189.382816,80.2278091 L189.696393,80.699164 L190.014553,81.163585 L190.335277,81.6201898 L190.816754,82.2885105 L191.292647,82.93428 C191.26692,83.3663963 191.204926,83.7955864 191.107319,84.21732 C190.977903,84.7455901 190.813599,85.2646969 190.615487,85.771224 L190.426622,86.2540715 L190.246539,86.6905896 C189.508604,88.418331 188.889036,89.0415012 187.008719,89.834184 C181.897943,91.323936 176.259695,90.675288 172.695695,86.398488 L172.00076,85.5569449 L171.546438,84.9954257 C169.600074,82.5591069 167.979948,80.0713533 168.069623,77.082192 C168.095866,76.5116577 168.181873,75.9454488 168.326231,75.392856 C168.48357,74.7860306 168.688542,74.192565 168.939239,73.617984 C172.200493,66.4236288 178.44383,62.8572442 186.279525,61.0163943 L186.716471,60.915888 C187.436399,60.744816 188.170583,60.573744 188.904767,60.431184 L190.198585,60.1807346 C190.49089,60.1261056 190.793687,60.0719328 191.121575,60.01776 C191.941295,59.882328 192.753887,59.775408 193.559351,59.682744 C195.613537,59.4578252 197.679535,59.3622292 199.745131,59.3964115 L200.630327,59.419008 L202.811495,59.419008 C204.885743,59.454648 206.952863,59.547312 209.005727,59.682744 C209.704271,59.739768 210.388559,59.80392 211.065719,59.889456 C214.236946,60.2888555 217.356257,61.0226281 220.371669,62.0780633 L221.123327,62.348616 L222.698615,63.004392 L230.539415,66.247632 C231.122459,66.5186887 231.795395,66.5186887 232.378439,66.247632 C233.708999,65.5091712 233.176775,63.7027142 232.363892,62.450953 L232.185983,62.1918 C231.135695,60.7254134 229.995399,59.3256339 228.771671,58.000536 C228.365375,57.565728 227.944823,57.13092 227.524271,56.70324 C226.813861,55.9896932 225.651809,55.3482573 224.306304,54.7396869 L223.619506,54.4379588 C223.502905,54.3880667 223.385341,54.3383574 223.266969,54.2888082 L222.548276,53.9932524 L221.450155,53.5547385 C217.345278,51.1849128 210.626172,50.3333333 201.292839,51 C187.292839,52 173.501525,51.638856 155.510453,60 C170.795381,47.6753227 190.616675,43.6177524 214.974335,47.8272891 L215.028887,47.7576 Z"/>
      <path fill="#FFF" d="M210.773471 92.100888C209.868215 91.787256 208.856039 91.644696 207.979295 91.388088 205.779119 90.746568 203.581319 90.08604 201.385895 89.406504 200.886935 89.249688 198.278087 87.980904 197.821895 88.201872 201.115031 86.776272 214.009583 77.816376 214.294703 77.01804 213.945431 74.59452 207.380543 78.44364 204.472319 80.924184 199.449588 85.3496258 193.710416 88.8880991 187.500551 91.388088 183.936551 92.813688 174.670151 99.164736 179.153663 103.78368 182.004863 106.770312 188.370167 105.800904 191.984063 105.358968 196.942102 104.786154 201.833231 103.735839 206.589335 102.222648 208.563791 101.574 210.566759 100.797048 212.085023 99.371448 213.52931 97.8297947 213.846231 95.5456836 212.876231 93.669048 212.39645 92.9014204 211.646055 92.3418036 210.773471 92.100888L210.773471 92.100888zM267.070415 55.127952C275.103671 53.702352 284.776367 56.624832 289.808735 70.49592 283.208207 62.127648 276.522143 59.26932 268.866671 59.1624 265.167239 60.73056 263.378111 57.024 267.070415 55.127952z"/>
      <path fill="#C4C3C6" d="M275.296127,76.87548 C279.145247,81.665496 280.014863,89.299584 270.306527,98.337888 C274.982495,90.497088 275.089415,84.880224 272.623127,79.719552 C270.028535,77.887656 272.494823,75.186144 275.296127,76.87548 Z"/>
      <path fill="#000" d="M340.983209,341.032496 C348.036615,355.57224 352.463498,371.563659 331,406 C341.337779,376.126203 335.073656,361.127794 335.073656,351.868537 C329.337449,344.888932 334.789997,334.596051 340.983209,341.032496 Z" transform="scale(1 -1) rotate(47 1195.586 0)"/>
      <path fill="#FFF" d="M6.04134083,5.96470119 L48.3264585,29.5630707 C36.2831183,35.034802 28.3336676,37.912709 24.4781065,38.1967915 C18.6947648,38.6229153 10.69812,36.7647573 6.47810649,30.1967915 C3.66476415,25.8181476 3.5191756,17.7407842 6.04134083,5.96470119 Z" transform="rotate(-21 913.535 -262.82)"/>
      <path fill="#C4C3C6" d="M241.344869,169.114836 C238.540708,180.141928 224.537705,192.016928 207.026671,199.155855 L206.516197,199.194162 L236.062869,161.194162 C238.234948,162.371001 242.411577,164.920109 241.344869,169.114836 Z" transform="rotate(-8 224.016 180.194)"/>
      <path fill="#000" d="M415.304303,321.123528 C415.011937,320.178575 414.291821,317.504231 413.292839,318 C407.255423,320.416392 398.917031,326.526552 393.107711,329.441904 C387.298391,332.357256 379.906655,333.718704 374.574911,330.0264 C367.689263,325.32192 367.617983,315.349848 368.466215,307.052856 C370.604615,286.381656 374.945567,261.91836 392.701415,248.55336 C377.732615,253.421784 366.769751,267.285744 361.338215,281.598768 C355.578791,296.724384 354.816095,313.254216 354.923015,329.434776 C355.029935,345.615336 355.835399,361.938456 353.055479,377.905176 C351.786695,385.189992 349.655423,392.567472 345.022223,398.334024 C338.792351,406.096416 329.005607,409.874256 319.746335,413.523792 C270.563135,432.88344 223.382903,457.667496 181.249295,489.543912 C171.712031,496.757448 162.246047,504.512712 156.073199,514.791288 C152.687399,520.41528 190.988128,508.052864 199,506 C229.992544,498.066536 236,493 266,475 C296,457 303.480239,443.653848 329.319239,424.8288 C343.233095,414.6714 358.736495,405.504792 367.660751,390.778344 C374.460863,379.566 376.848743,365.972904 384.539855,355.345056 C392.124047,344.859768 404.056319,338.394672 412.830887,328.88592 C414.705551,326.833056 416.031359,323.318952 415.304303,321.123528 Z"/>
      <g transform="rotate(-6 219.023 -1483.391)">
        <path fill="#000" d="M36.5127275,15.7035362 C36.4447859,15.5888725 36.3650838,15.4813191 36.2748653,15.3825551 C36.125649,14.979215 35.8084843,14.6572382 35.4028547,14.4973141 C35.2186295,14.3828269 35.0065439,14.3189218 34.7887102,14.3122616 C31.9164551,14.135772 29.0507676,13.8912247 26.1916476,13.5786198 L32.6937472,4.2187124 C33.0861299,3.5915157 32.8945118,2.7708522 32.2628183,2.37312611 C31.6311247,1.97540002 30.791884,2.14701556 30.3754538,2.75907148 L21.8462949,16.3474747 L30.8383495,16.9062727 L26.6218314,21.9211739 L17.5993383,22.0429373 L9.34968343,32.7097393 L2.40242201,32.7061699 C2.33724845,34.402864 2.3047108,35.4739813 2.30480906,35.9195218 C2.30487439,36.0459209 2.30493971,36.1723199 2.30500503,36.2987189 C2.21899663,36.5559506 2.1758374,36.8251216 2.17666485,37.0959389 C2.14223922,38.4328055 3.18608524,39.5603856 4.54504615,39.6543044 L9.5862857,39.8416314 C10.2275743,39.8295943 10.8342703,39.5549459 11.2596725,39.0840973 C11.3268832,39.0089246 11.3865419,38.927553 11.4378191,38.8411138 C11.6028622,38.6991662 11.7287935,38.5186649 11.8039964,38.31626 C12.5425417,36.3944558 13.4773315,34.551141 14.5940849,32.8144761 C14.7623376,32.5909336 14.9404943,32.3673961 15.0988379,32.1341255 C15.1344274,32.0653568 15.1642027,31.9938298 15.1878635,31.9202653 C16.3359053,30.3262833 17.6821229,28.9171401 18.8202557,27.31343 C21.3161481,27.4702803 23.8120639,27.6725046 26.3080032,27.920103 C26.7277271,28.0914593 27.1899333,28.1357159 27.6352066,28.0471838 L27.7540548,28.0472449 C28.3100364,28.1264359 28.8332503,27.7699949 28.9520187,27.2311285 C29.0522526,27.1127273 29.1416684,26.9858847 29.2192311,26.8520688 C29.6773251,26.0263935 30.1794099,25.2250149 30.7234004,24.4512609 L30.8025773,24.3443486 L30.8718501,24.2374312 L30.8718853,24.3054922 L31.2479766,23.8000894 C31.5349971,23.42104 31.8319317,23.0614416 32.1288713,22.7115661 C32.7227505,22.0118153 33.3364578,21.3509667 33.9799173,20.7679174 C34.316488,20.4472313 34.6530638,20.1362683 34.9698164,19.7961261 L35.1579073,19.6309317 C35.3262052,19.4948962 35.4845991,19.3588556 35.6628061,19.2325482 C36.8013067,18.43686 37.1608285,16.9348051 36.5028335,15.7229772 L36.5127275,15.7035362 Z" transform="rotate(-5 19.503 21)"/>
        <path fill="#C4C3C6" d="M30.2802592,13.5998651 C27.8567954,13.4536084 27.4177285,13.0401826 25.0053484,12.7811448 L32.0319262,2.30140324 C32.0987754,2.19647385 31.1486605,2.20805622 29.1815814,2.33615034 L22.6124559,2.84246308 L7.6009731,24.376086 L22.4937272,6.91014559 L26.0139263,6.85945128 L9.80128686,30.0105347 L2.86032411,29.9131044 C2.86789396,30.6037193 2.8717186,31.1336079 2.87179801,31.5027701 C2.87185214,31.6075007 2.87190626,31.7122313 2.87196038,31.8169619 C2.79938878,32.0300961 2.76296844,32.2531231 2.7636671,32.4775146 C2.73460999,33.5852038 3.61534623,34.5194926 4.76196876,34.5973217 L9.01551319,34.7525748 C9.55660056,34.7426062 10.0685024,34.5150451 10.4274392,34.1249167 C10.4841489,34.0626313 10.5344865,33.9952096 10.5777524,33.923589 C10.7170086,33.8059765 10.8232645,33.6564192 10.8867185,33.4887129 C11.5098812,31.8963667 15.8464616,25.7009166 16.8067736,24.3721371 C18.2107123,24.4587912 21.3188911,24.5917648 26.1313099,24.7710579 L32.3721048,15.5877259 C31.1000725,14.2661654 30.4027907,13.6035451 30.2802592,13.5998651 Z" transform="rotate(-5 17.568 18.492)"/>
      </g>
      <path fill="#000" d="M187.686 29.938L187.686 29.938 187.686 29.938 187.779 29.795 187.779 29.795z"/>
      <path fill="#FFF" d="M151.240415,111.574584 C151.30384,111.796732 151.413107,112.003127 151.561175,112.180464 C152.338127,113.064336 153.799367,112.736448 154.811543,112.130568 C160.072007,108.98712 160.963007,102.372336 162.367223,97.01208 C162.937463,94.859424 163.548095,92.721024 164.199119,90.59688 C165.489287,86.32008 166.900631,82.100304 168.262079,77.859144 C168.575711,76.882608 168.803807,75.62808 167.991215,75.007944 C167.572562,74.7258447 167.050023,74.644851 166.565615,74.786976 C165.586704,75.109283 164.802637,75.8515328 164.427215,76.811328 C164.060572,77.7617343 163.820904,78.756354 163.714415,79.769448 C162.095249,90.1012843 158.186412,99.9403506 152.273975,108.566568 C151.868277,109.093895 151.546125,109.680501 151.318823,110.3058 C151.174514,110.713066 151.147348,111.152648 151.240415,111.574584 Z"/>
      <path fill="#FFF" d="M138.977328,332.137865 L131.386008,327.94486 C128.577331,326.041998 126.217407,323.683751 124.436208,321 L39,364.638318 C39.8688247,367.418551 41.8415308,369.839904 44.566968,371.471365 C59.770992,380.348113 101.277336,365.259505 148.208088,335.529541 L147.110376,334.287169 C144.307396,333.868088 141.575308,333.146085 138.977328,332.137865 L138.977328,332.137865 Z" transform="rotate(-3 93.604 347.5)"/>
      <path fill="#000" d="M379.292839,176 C378.545748,170.951184 336.376295,166.209096 335.292839,174 C332.805167,191.82 324.795655,215.850032 319.292839,233 C313.405111,251.340344 295.48315,311.786057 270.292839,336 C245.102528,360.213943 204.688547,361.317639 190.292839,357 C175.897131,352.682361 168.337055,349.146167 161.811239,335.607624 C160.844378,333.59238 160.057245,331.495744 159.458999,329.342112 C158.746199,336.470112 163.735799,344.310912 158.810351,350.476632 C157.48845,352.703217 155.935465,354.784217 154.177151,356.68512 C150.529911,360.642823 145.894805,363.558217 140.747999,365.1318 C138.210431,366.158232 135.587327,367.113384 133.085399,368.075664 C130.583471,369.037944 128.188463,370.021608 126.085703,371.08368 C114.877581,376.739544 104.057251,383.133159 93.6960711,390.22236 C81.4786791,398.576376 69.8600391,407.985336 60.6364071,419.55408 C57.2363511,423.83088 54.1285431,428.49972 52.6744311,433.767312 C51.2203191,439.034904 51.6052311,445.029552 54.7415511,449.505936 C55.1768565,450.231257 55.830597,450.800161 56.6090871,451.13112 C57.4352217,451.318437 58.2974316,451.269027 59.0967591,450.98856 C77.0092582,446.439629 94.1940388,439.397276 110.147495,430.06788 C112.799111,428.513976 115.422215,426.903048 117.988295,425.235096 C123.276092,422.072302 128.294523,418.479535 132.992735,414.4932 C135.406751,412.5924 137.782751,410.6322 140.120735,408.6126 C144.768191,404.587656 143.379864,421.984856 144,425 C144.577368,427.045736 184.016248,403.778235 185.694479,403.169776 C187.376687,402.521128 189.066023,401.993656 190.812383,401.501824 C227,388 263.704919,415.51976 268.757063,418.537744 C263.054663,410.696944 256.639463,404.281744 249.297623,398.016232 C247.451245,396.525512 245.523735,395.13818 243.523943,393.860608 C241.527581,392.579653 239.448811,391.431924 237.301199,390.424912 C234.83462,389.212747 232.305365,388.13252 229.724135,387.1888 C221.940359,384.287704 215.321135,379.223856 217.459535,377.085456 C217.830191,376.686288 218.215103,376.301376 218.607143,375.937848 C228.319053,375.287817 237.904291,373.370769 247.119143,370.235448 C263.798663,364.476024 279.073967,354.054888 289.281263,339.663456 C304.884455,317.65932 307.364999,288.997632 319.347167,264.819456 C318.420527,274.085856 375.564895,230.353408 379.292839,208 C382.158295,190.728856 381.901687,193.271144 379.292839,176 Z"/>
      <path fill="#FFF" d="M194.949311 66.425832C202.975439 65.891232 212.669519 67.088736 217.844447 72.698472 211.158383 69.298416 204.450935 68.129424 196.795463 68.051016 193.096031 68.67828 191.285519 67.174272 194.949311 66.425832zM154.298327 78.607584C154.775845 78.2555149 155.345466 78.0499559 155.937767 78.01596 156.176003 78.01614 156.414019 78.030421 156.650567 78.058728L157.206551 78.058728 157.705511 78.058728C160.556711 78.493536 162.025079 81.373248 162.745007 84.238704 162.032207 80.674704 158.183087 79.883496 155.189327 81.002592 155.020372 80.9909009 154.854353 80.9524037 154.697495 80.888544 154.234175 80.68896 153.884903 80.22564 153.735215 79.270488 153.902238 79.0327538 154.090733 78.8108546 154.298327 78.607584zM191.335415 72.463248C189.418834 75.6874657 189.661719 79.7543798 191.948423 82.727568 192.889319 84.024864 196.474703 83.140992 195.512423 81.82944 193.469843 79.21505 193.262514 75.6080941 194.992079 72.77688 195.790415 71.337024 192.112367 71.044776 191.335415 72.463248zM179.153663 109.001376C180.743207 110.077704 179.866463 114.47568 178.255535 113.385096 174.784199 111.032856 164.762231 116.628336 166.779455 112.308768 167.278415 111.23244 175.297415 106.3854 179.153663 109.001376zM163.735799 155.46168C165.239807 154.82016 168.290591 157.471776 166.772327 158.127552 163.486319 159.553152 163.628879 169.29 161.119823 165.854304 160.499687 164.998944 160.093391 157.022712 163.735799 155.46168zM328.292839 233L328.076746 235.199184C321.401917 268.574768 318.770049 287.693208 320.181143 292.554504 320.49147 293.623597 320.862876 294.684023 321.292021 295.725196 318.457204 304.495204 314.808962 313.011312 310.380143 321.159168L309.962642 321.931769 309.685591 322.457314 309.412567 322.990238 309.146144 323.529678C309.102433 323.62008 309.059105 323.710718 309.016212 323.801574L308.764517 324.349177C308.723582 324.440831 308.683191 324.532668 308.643396 324.624669L308.412218 325.178498C307.370805 327.770876 306.88129 330.463695 308.120567 332.863344 309.030915 334.622942 310.705849 335.806481 312.440634 336.813461L313.020145 337.14313C313.116778 337.197168 313.213353 337.250798 313.309751 337.304088 319.365149 340.664564 325.62374 343.645072 332.049263 346.228344 327.008316 348.935721 321.294938 350.135803 315.590711 349.685424L314.879459 349.629685 314.393862 349.596705 313.902943 349.570956C311.768827 349.479857 309.577055 349.686288 308.526863 351.4104 307.557455 353.007072 308.263127 355.202496 309.560423 356.514048 310.59826 357.56329 311.978241 358.22933 313.375557 358.81873L314.421719 359.2512C319.284177 361.302175 323.895258 363.904279 328.164503 367.006464 334.023681 371.239387 339.182865 376.364897 343.454063 382.196232L341.748489 380.825898 340.038359 379.458425C333.75644 374.455266 327.331624 369.603249 320.202527 365.930136 308.448455 359.878464 295.724975 358.018056 283.250975 362.872224 277.423167 365.132914 272.039947 368.395436 266.763599 371.794125L264.905246 372.997907 262.12714 374.806281C259.043201 376.808578 255.961873 378.769892 252.814415 380.514024 248.086242 383.106074 243.14732 385.247495 238.063069 386.921564 237.396434 386.711843 236.730691 386.506462 236.067203 386.304847L234.084856 385.710719 232.124189 385.13572 227.370929 383.759216 225.550408 383.223931C224.355288 382.868647 223.199104 382.515738 222.092735 382.160592L221.919166 382.116014 221.56965 382.018537 221.218572 381.91032C221.160036 381.891413 221.101516 381.872076 221.043052 381.852318L220.693254 381.728795C220.635173 381.70739 220.577228 381.685583 220.51946 381.663381L220.175289 381.525515C220.118387 381.501773 220.061742 381.477655 220.005395 381.45317L219.671196 381.301923C219.616198 381.276005 219.561577 381.249737 219.507375 381.223129L219.187495 381.059466 218.879575 380.88806C217.172234 379.895628 216.134027 378.550865 217.346657 377.204269L217.459535 377.085456C217.830191 376.686288 218.215103 376.301376 218.607143 375.937848 228.319053 375.287817 237.904291 373.370769 247.119143 370.235448 263.798663 364.476024 279.073967 354.054888 289.281263 339.663456 299.488559 325.272024 327.494168 234.611595 328.292839 233zM401.292839 196C399.154439 187.973872 390.092442 182.417683 382.358562 180.828139 373.092162 178.924963 363.86853 180.514507 355.471746 183.436987L355.222266 183.529651C351.736674 184.755667 353.333346 190.272739 357.146826 190.201459 357.859626 190.201459 358.508274 190.201459 359.192562 190.201459 367.746162 190.306003 378.446254 196.23885 391.292839 208 399.256802 204.889808 402.590135 200.889808 401.292839 196z"/>
    </g>
    <g transform="rotate(6 -3530.778 260.56)">
      <path fill="#000" d="M17.2274845,56.4121586 C28.1423579,58.6461635 38.5926516,47.7826867 40.5688688,32.1479039 C42.5450859,16.5131212 35.2988733,4.2013815 24.3839999,4.64886365 C13.4691265,5.09634579 3.01883285,15.9598226 1.04261569,28.9131183 C-0.933601464,41.8664139 6.31261114,54.1781536 17.2274845,56.4121586 Z"/>
      <path fill="#C4C3C6" d="M29.8244381,62.018519 C44.0744117,65.0785059 57.2139964,53.1402498 59.172522,35.3536777 C61.1310475,17.5671056 55.2870716,-0.325280872 41.037098,0.526180671 C26.7871244,1.37764221 9.52732822,16.8454103 7.56880266,30.9461945 C5.6102771,45.0469786 15.5744645,58.9585322 29.8244381,62.018519 Z"/>
      <path fill="#FFF" fill-rule="nonzero" d="M7.65196193,40.2851458 C4.61766483,25.6163003 12.8266258,12.7286646 32.2788449,1.62223887 C9.90387536,25.6108819 14.2827234,36.4139049 12.3617957,39.4296599 C11.0811773,41.4401633 9.51123271,41.7253253 7.65196193,40.2851458 Z"/>
      <path fill="#000" d="M38.7908522,66.2682516 C51.4846419,67.3212925 62.1537288,56.4780617 62.6209248,42.2828305 C63.0881209,28.2298183 53.1765084,17.9459064 40.4827187,19.0794577 C27.788929,20.0971864 17.1198421,30.3524721 16.6526461,42.2188921 C16.18545,54.2275311 26.0970625,65.0993881 38.7908522,66.2682516 Z"/>
      <path fill="#C4C3C6" d="M44.1753627,64.9082631 C55.2006859,66.1768291 64.6773398,54.9283312 65.3420617,39.9837655 C66.0067837,25.1684291 57.6078569,14.1010032 46.5825337,15.0642521 C35.5572106,15.9361194 26.0805566,26.6819574 25.4158347,39.2654789 C24.7511128,51.9782296 33.1500395,63.5483154 44.1753627,64.9082631 Z"/>
      <path fill="#FFF" fill-rule="nonzero" d="M26.3225235,48.3256109 C23.1469347,36.3201532 26.5716536,19.8077015 50.9494065,6.47026808 C36.5050797,20.3505576 31.9605785,31.5119914 32.3743474,43.4683958 C32.7881163,55.4248002 29.4981123,60.3310687 26.3225235,48.3256109 Z"/>
      <path fill="#000" d="M63.4659642,69.2308294 C75.0546685,70.1801247 84.8215951,59.5302988 85.2810053,45.6222423 C85.7404154,31.8300084 76.71834,21.3645581 65.1296356,22.0685398 C53.5409313,22.6912174 43.7740047,32.8918917 43.3145945,45.0308486 C42.8551843,57.285628 51.8772598,68.2002299 63.4659642,69.2308294 Z"/>
      <path fill="#C4C3C6" d="M65.9433446,61.9722836 C75.3246767,62.5615736 83.2312363,52.9135683 83.6031398,40.5763713 C83.9750432,28.3388017 76.6714583,19.2178654 67.2901263,20.0506793 C57.9087942,20.8135575 50.0022346,30.0752148 49.6303311,40.8906805 C49.2584276,51.8057736 56.5620125,61.3130578 65.9433446,61.9722836 Z"/>
      <path fill="#FFF" fill-rule="nonzero" d="M50.5871645,50.7881737 C47.5647356,39.1288449 51.4999687,23.5305207 74.7019727,11.0558851 C60.9543016,24.2013296 56.6289836,34.9487191 57.0227962,46.5185875 C57.4166088,58.088456 54.1121589,56.2065688 50.5871645,50.7881737 Z"/>
    </g>
    <g transform="rotate(6 -4052.614 1192.611)">
      <path fill="#000" d="M19.7472772,64.6117081 C32.2444476,67.1861242 44.2096895,54.6673023 46.472393,36.6501368 C48.7350965,18.6329713 40.4384219,4.44520448 27.9412515,4.96087266 C15.4440811,5.47654084 3.47883918,17.9953627 1.21613565,32.9224439 C-1.04656787,47.8495251 7.25010679,62.037292 19.7472772,64.6117081 Z"/>
      <path fill="#C4C3C6" d="M33.8841031,70.9222787 C50.2580674,74.4264572 65.3561368,60.7552284 67.606585,40.3867346 C69.8570332,20.0182408 63.1419996,-0.471427618 46.7680353,0.503633181 C30.394071,1.47869398 10.5616632,19.1917832 8.31121503,35.3394554 C6.06076682,51.4871276 17.5101388,67.4181003 33.8841031,70.9222787 Z"/>
      <path fill="#FFF" fill-rule="nonzero" d="M8.45508266,46.0315566 C4.96891145,29.347465 14.4003687,14.6892908 36.7494545,2.05703392 C11.0423559,29.3413022 16.0733115,41.628474 13.8663151,45.0585417 C12.3949842,47.3452535 10.5912401,47.6695918 8.45508266,46.0315566 Z"/>
      <path fill="#000" d="M44.4508853,75.6884275 C58.8003866,76.8894924 70.8610936,64.5220496 71.3892282,48.3314223 C71.9173629,32.3030053 60.7129314,20.5735038 46.36343,21.8663963 C32.0139286,23.0271851 19.9532217,34.7240364 19.425087,48.2584961 C18.8969524,61.9551663 30.1013839,74.3552591 44.4508853,75.6884275 Z"/>
      <path fill="#C4C3C6" d="M50.7233664,73.9397585 C63.4024881,75.3859238 74.3006401,62.5626362 75.0650703,45.5258313 C75.8295005,28.6363478 66.1707347,16.0194822 53.4916131,17.117586 C40.8124915,18.1115147 29.9143394,30.3617701 29.1499092,44.7069845 C28.385479,59.1995203 38.0442448,72.3894182 50.7233664,73.9397585 Z"/>
      <path fill="#FFF" fill-rule="nonzero" d="M30.0766139,54.952763 C26.4828464,41.169109 30.3585508,22.2109045 57.9464982,6.89798835 C41.6000642,22.8341661 36.4571186,35.6487831 36.9253748,49.3761182 C37.3936309,63.1034534 33.6703814,68.736417 30.0766139,54.952763 Z"/>
      <path fill="#000" d="M71.9357502,78.8466388 C85.1799837,79.9314404 96.3421855,67.7614138 96.8672257,51.8680632 C97.3922659,36.1070681 87.0813225,24.1477356 73.837089,24.9522066 C60.5928555,25.6637678 49.4306537,37.3205291 48.9056135,51.1922514 C48.3805733,65.1963293 58.6915167,77.6689272 71.9357502,78.8466388 Z"/>
      <path fill="#C4C3C6" d="M75.072185,70.54615 C85.8331247,71.2196243 94.9024137,60.1933326 95.3290089,46.0936788 C95.7556041,32.107885 87.3779625,21.6839578 76.6170228,22.6357451 C65.8560831,23.5076059 56.7867941,34.0923571 56.3601989,46.4528893 C55.9336038,58.9272814 64.3112453,69.7927491 75.072185,70.54615 Z"/>
      <path fill="#FFF" fill-rule="nonzero" d="M57.419914,58.2454435 C54.0347937,44.9962062 58.4422547,27.2708378 84.4284992,13.0951154 C69.0311076,28.0331207 64.1867514,40.2460632 64.6278216,53.393641 C65.0688917,66.5412188 61.3679078,64.4027106 57.419914,58.2454435 Z"/>
    </g>
  </g>
</svg>
