<?xml version="1.0" encoding="UTF-8"?>
<svg width="882px" height="300px" viewBox="0 0 882 300" version="1.1" xmlns="http://www.w3.org/2000/svg" xmlns:xlink="http://www.w3.org/1999/xlink">
    <!-- Generator: Sketch 61 (89581) - https://sketch.com -->
    <title>Group</title>
    <desc>Created with Sketch.</desc>
    <g id="Github-Covers" stroke="none" stroke-width="1" fill="none" fill-rule="evenodd">
        <g id="Testnets" transform="translate(0.000000, -0.000000)">
            <g id="Group">
                <rect id="Rectangle" fill="#FFFFFF" fill-rule="nonzero" x="0" y="0" width="882" height="300"></rect>
                <rect id="Rectangle" fill="#000000" fill-rule="nonzero" x="0" y="0" width="882" height="210"></rect>
                <rect id="Rectangle" fill="#1F242C" fill-rule="nonzero" x="620" y="105" width="52.5" height="52.5"></rect>
                <polygon id="Path" fill="#1F242C" fill-rule="nonzero" points="625.837 157.5 620 157.5 620 163.337 625.837 163.337"></polygon>
                <polygon id="Path" fill="#1F242C" fill-rule="nonzero" points="631.674 163.337 625.837 163.337 625.837 169.174 631.674 169.174"></polygon>
                <polygon id="Path" fill="#1F242C" fill-rule="nonzero" points="637.494 157.5 631.658 157.5 631.658 163.337 637.494 163.337"></polygon>
                <polygon id="Path" fill="#1F242C" fill-rule="nonzero" points="625.837 169.158 620 169.158 620 174.995 625.837 174.995"></polygon>
                <polygon id="Path" fill="#1F242C" fill-rule="nonzero" points="637.494 169.158 631.658 169.158 631.658 174.995 637.494 174.995"></polygon>
                <polygon id="Path" fill="#1F242C" fill-rule="nonzero" points="643.332 163.337 637.496 163.337 637.496 169.174 643.332 169.174"></polygon>
                <polygon id="Path" fill="#1F242C" fill-rule="nonzero" points="631.674 174.995 625.837 174.995 625.837 180.832 631.674 180.832"></polygon>
                <polygon id="Path" fill="#1F242C" fill-rule="nonzero" points="625.837 180.832 620 180.832 620 186.669 625.837 186.669"></polygon>
                <polygon id="Path" fill="#1F242C" fill-rule="nonzero" points="637.494 180.832 631.658 180.832 631.658 186.669 637.494 186.669"></polygon>
                <polygon id="Path" fill="#1F242C" fill-rule="nonzero" points="643.332 174.995 637.496 174.995 637.496 180.832 643.332 180.832"></polygon>
                <polygon id="Path" fill="#1F242C" fill-rule="nonzero" points="631.674 186.668 625.837 186.668 625.837 192.505 631.674 192.505"></polygon>
                <polygon id="Path" fill="#1F242C" fill-rule="nonzero" points="625.837 192.489 620 192.489 620 198.326 625.837 198.326"></polygon>
                <polygon id="Path" fill="#1F242C" fill-rule="nonzero" points="637.494 192.489 631.658 192.489 631.658 198.326 637.494 198.326"></polygon>
                <polygon id="Path" fill="#1F242C" fill-rule="nonzero" points="643.332 186.668 637.496 186.668 637.496 192.505 643.332 192.505"></polygon>
                <polygon id="Path" fill="#1F242C" fill-rule="nonzero" points="631.674 198.326 625.837 198.326 625.837 204.163 631.674 204.163"></polygon>
                <polygon id="Path" fill="#1F242C" fill-rule="nonzero" points="625.837 204.164 620 204.164 620 210.001 625.837 210.001"></polygon>
                <polygon id="Path" fill="#1F242C" fill-rule="nonzero" points="637.494 204.164 631.658 204.164 631.658 210.001 637.494 210.001"></polygon>
                <polygon id="Path" fill="#1F242C" fill-rule="nonzero" points="643.332 198.326 637.496 198.326 637.496 204.163 643.332 204.163"></polygon>
                <polygon id="Path" fill="#1F242C" fill-rule="nonzero" points="649.168 157.5 643.331 157.5 643.331 163.337 649.168 163.337"></polygon>
                <polygon id="Path" fill="#1F242C" fill-rule="nonzero" points="655.006 163.337 649.169 163.337 649.169 169.174 655.006 169.174"></polygon>
                <polygon id="Path" fill="#1F242C" fill-rule="nonzero" points="660.826 157.5 654.99 157.5 654.99 163.337 660.826 163.337"></polygon>
                <polygon id="Path" fill="#1F242C" fill-rule="nonzero" points="649.168 169.158 643.331 169.158 643.331 174.995 649.168 174.995"></polygon>
                <polygon id="Path" fill="#1F242C" fill-rule="nonzero" points="660.826 169.158 654.99 169.158 654.99 174.995 660.826 174.995"></polygon>
                <polygon id="Path" fill="#1F242C" fill-rule="nonzero" points="666.663 163.337 660.826 163.337 660.826 169.174 666.663 169.174"></polygon>
                <polygon id="Path" fill="#1F242C" fill-rule="nonzero" points="655.006 174.995 649.169 174.995 649.169 180.832 655.006 180.832"></polygon>
                <polygon id="Path" fill="#1F242C" fill-rule="nonzero" points="649.168 180.832 643.331 180.832 643.331 186.669 649.168 186.669"></polygon>
                <polygon id="Path" fill="#1F242C" fill-rule="nonzero" points="660.826 180.832 654.99 180.832 654.99 186.669 660.826 186.669"></polygon>
                <polygon id="Path" fill="#1F242C" fill-rule="nonzero" points="666.663 174.995 660.826 174.995 660.826 180.832 666.663 180.832"></polygon>
                <polygon id="Path" fill="#1F242C" fill-rule="nonzero" points="655.006 186.668 649.169 186.668 649.169 192.505 655.006 192.505"></polygon>
                <polygon id="Path" fill="#1F242C" fill-rule="nonzero" points="649.168 192.489 643.331 192.489 643.331 198.326 649.168 198.326"></polygon>
                <polygon id="Path" fill="#1F242C" fill-rule="nonzero" points="660.826 192.489 654.99 192.489 654.99 198.326 660.826 198.326"></polygon>
                <polygon id="Path" fill="#1F242C" fill-rule="nonzero" points="666.663 186.668 660.826 186.668 660.826 192.505 666.663 192.505"></polygon>
                <polygon id="Path" fill="#1F242C" fill-rule="nonzero" points="655.006 198.326 649.169 198.326 649.169 204.163 655.006 204.163"></polygon>
                <polygon id="Path" fill="#1F242C" fill-rule="nonzero" points="649.168 204.164 643.331 204.164 643.331 210.001 649.168 210.001"></polygon>
                <polygon id="Path" fill="#1F242C" fill-rule="nonzero" points="660.826 204.164 654.99 204.164 654.99 210.001 660.826 210.001"></polygon>
                <polygon id="Path" fill="#1F242C" fill-rule="nonzero" points="672.5 157.5 666.663 157.5 666.663 163.337 672.5 163.337"></polygon>
                <polygon id="Path" fill="#1F242C" fill-rule="nonzero" points="672.5 169.158 666.663 169.158 666.663 174.995 672.5 174.995"></polygon>
                <polygon id="Path" fill="#1F242C" fill-rule="nonzero" points="672.5 180.832 666.663 180.832 666.663 186.669 672.5 186.669"></polygon>
                <polygon id="Path" fill="#1F242C" fill-rule="nonzero" points="672.5 192.489 666.663 192.489 666.663 198.326 672.5 198.326"></polygon>
                <polygon id="Path" fill="#1F242C" fill-rule="nonzero" points="672.5 204.164 666.663 204.164 666.663 210.001 672.5 210.001"></polygon>
                <polygon id="Path" fill="#1F242C" fill-rule="nonzero" points="666.663 198.326 660.826 198.326 660.826 204.163 666.663 204.163"></polygon>
                <rect id="Rectangle" fill="#1F242C" fill-rule="nonzero" x="631.667" y="52.5" width="5.83333" height="52.5"></rect>
                <rect id="Rectangle" fill="#1F242C" fill-rule="nonzero" x="643.333" y="52.5" width="5.83333" height="52.5"></rect>
                <rect id="Rectangle" fill="#1F242C" fill-rule="nonzero" x="655" y="52.5" width="5.83333" height="52.5"></rect>
                <rect id="Rectangle" fill="#1F242C" fill-rule="nonzero" x="666.667" y="52.5" width="5.83333" height="52.5"></rect>
                <rect id="Rectangle" fill="#1F242C" fill-rule="nonzero" x="620" y="52.5" width="5.83668" height="52.5"></rect>
                <rect id="Rectangle" fill="#1F242C" fill-rule="nonzero" transform="translate(552.916335, 131.250000) rotate(-180.000000) translate(-552.916335, -131.250000) " x="549.99967" y="105" width="5.83333" height="52.5"></rect>
                <rect id="Rectangle" fill="#1F242C" fill-rule="nonzero" transform="translate(541.250335, 131.250000) rotate(-180.000000) translate(-541.250335, -131.250000) " x="538.33367" y="105" width="5.83333" height="52.5"></rect>
                <rect id="Rectangle" fill="#1F242C" fill-rule="nonzero" transform="translate(529.583335, 131.250000) rotate(-180.000000) translate(-529.583335, -131.250000) " x="526.66667" y="105" width="5.83333" height="52.5"></rect>
                <rect id="Rectangle" fill="#1F242C" fill-rule="nonzero" transform="translate(517.916335, 131.250000) rotate(-180.000000) translate(-517.916335, -131.250000) " x="514.99967" y="105" width="5.83333" height="52.5"></rect>
                <rect id="Rectangle" fill="#1F242C" fill-rule="nonzero" transform="translate(564.581660, 131.250000) rotate(-180.000000) translate(-564.581660, -131.250000) " x="561.66332" y="105" width="5.83668" height="52.5"></rect>
                <rect id="Rectangle" fill="#1F242C" fill-rule="nonzero" transform="translate(867.588335, 27.234400) rotate(-180.000000) translate(-867.588335, -27.234400) " x="864.67167" y="0.9844" width="5.83333" height="52.5"></rect>
                <rect id="Rectangle" fill="#1F242C" fill-rule="nonzero" transform="translate(855.921335, 27.234400) rotate(-180.000000) translate(-855.921335, -27.234400) " x="853.00467" y="0.9844" width="5.83333" height="52.5"></rect>
                <rect id="Rectangle" fill="#1F242C" fill-rule="nonzero" transform="translate(844.255335, 27.234400) rotate(-180.000000) translate(-844.255335, -27.234400) " x="841.33867" y="0.9844" width="5.83333" height="52.5"></rect>
                <rect id="Rectangle" fill="#1F242C" fill-rule="nonzero" transform="translate(832.588335, 27.234400) rotate(-180.000000) translate(-832.588335, -27.234400) " x="829.67167" y="0.9844" width="5.83333" height="52.5"></rect>
                <rect id="Rectangle" fill="#1F242C" fill-rule="nonzero" transform="translate(879.253660, 27.234400) rotate(-180.000000) translate(-879.253660, -27.234400) " x="876.33532" y="0.9844" width="5.83668" height="52.5"></rect>
                <path d="M567.5,163.333 L567.5,157.5 C596.495,157.5 620,181.005 620,210 L614.167,210 C614.167,184.227 593.273,163.333 567.5,163.333 Z M567.5,175 L567.5,169.166 C590.052,169.166 608.333,187.448 608.333,210 L602.5,210 C602.5,190.67 586.83,175 567.5,175 Z M567.5,180.834 L567.5,186.667 C580.387,186.667 590.833,197.114 590.833,210 L596.667,210 C596.667,193.892 583.608,180.834 567.5,180.834 Z M567.5,198.333 L567.5,192.5 C577.165,192.5 585,200.335 585,210 L579.167,210 C579.167,203.557 573.943,198.333 567.5,198.333 Z M567.5,210 L567.5,204.166 C570.722,204.166 573.333,206.778 573.333,210 L567.5,210 Z" id="Shape" fill="#1F242C"></path>
                <path d="M777,110.833 L777,105 C805.995,105 829.5,128.505 829.5,157.5 L823.667,157.5 C823.667,131.727 802.773,110.833 777,110.833 Z M777,122.5 L777,116.667 C799.552,116.667 817.833,134.949 817.833,157.5 L812,157.5 C812,138.17 796.33,122.5 777,122.5 Z M777,128.333 L777,134.167 C789.887,134.167 800.333,144.613 800.333,157.5 L806.167,157.5 C806.167,141.392 793.108,128.333 777,128.333 Z M777,145.833 L777,140 C786.665,140 794.5,147.835 794.5,157.5 L788.667,157.5 C788.667,151.056 783.443,145.833 777,145.833 Z M777,157.5 L777,151.667 C780.222,151.667 782.833,154.279 782.833,157.5 L777,157.5 Z" id="Shape" fill="#1F242C"></path>
                <path d="M729.112,52.5 L725,52.5 L725,48.3875 L773.387,0 L777.5,0 L777.5,4.1125 L729.112,52.5 Z M765.133,0 L756.879,0 L725,31.8791 L725,40.1333 L765.133,0 Z M748.625,0 L740.371,0 L725,15.3708 L725,23.625 L748.625,0 Z M725,0 L725,7.11666 L732.116,0 L725,0 Z M777.5,20.6208 L777.5,12.3667 L737.366,52.5 L745.621,52.5 L777.5,20.6208 Z M777.5,37.1291 L777.5,28.875 L753.875,52.5 L762.129,52.5 L777.5,37.1291 Z M777.5,45.3833 L770.383,52.5 L777.5,52.5 L777.5,45.3833 Z" id="Shape" fill="#1F242C" fill-rule="nonzero"></path>
                <path d="M672.5,105 L725,105 L725,52.5 C696.005,52.5 672.5,76.0051 672.5,105 Z" id="Path" fill="#1F242C" fill-rule="nonzero"></path>
                <path d="M777.5,157.5 L777.5,105 L725,105 C725,133.995 748.505,157.5 777.5,157.5 Z" id="Path" fill="#1F242C" fill-rule="nonzero"></path>
                <path d="M695.56,131 C694.66,131.23 692.92,132 692.02,132.23 L692.02,133.34 C692.862,134.344 693.612,135.421 694.26,136.56 C696.98,141.05 700.63,144.32 703.35,148.81 C704.13,150.1 706.14,152.63 706.52,154.08 C706.777,155.283 706.894,156.511 706.87,157.74 L707.75,209.35 C707.837,210.363 707.721,211.383 707.41,212.35 C706.6,214.41 702.11,215.35 699.99,216 C686.489,220.082 672.19,220.768 658.36,218 C655.65,217.46 651.89,216.8 650.18,214.63 C648.18,212.01 647.86,208.27 647.54,204.96 C646.71,196.14 647.27,192.06 646.78,183.74 C646.55,179.8 646.15,179.1 646.19,174.37 C646.19,171.53 646.19,169.37 646.29,166.59 C646.39,163.81 646.4,160.14 646.47,157.17 C646.57,152.92 650.34,149.25 653,145.94 C655.31,143.08 657.65,140.23 659.93,137.34 C660.985,135.976 662.113,134.671 663.31,133.43 C663.24,132.6 663.53,132.62 663.47,131.8 C662.02,131.68 662.23,131.13 660.78,131.01 C660.251,126.242 660.151,121.436 660.48,116.65 C660.55,115.65 660.48,112.92 661.24,112.19 C662.756,111.132 664.362,110.208 666.04,109.43 C672.31,107.23 686.79,107.67 692.87,111.35 C695.4,112.88 695.48,117.21 695.96,119.97 C696.14,121 696.53,130.75 695.56,131 Z" id="Path" fill="#000000" fill-rule="nonzero"></path>
                <path d="M669.65,127.53 C669.622,127.82 669.667,128.112 669.78,128.38 C670.018,128.713 670.377,128.939 670.78,129.01 C672.62,129.469 674.526,129.594 676.41,129.38 C676.602,125.08 676.528,120.771 676.19,116.48 C673.13,116 670.91,114.65 670.36,118.17 C669.899,121.269 669.661,124.397 669.65,127.53 Z" id="Path" fill="#D3D8E0" fill-rule="nonzero"></path>
                <path d="M679.37,125.639 C679.23,127.039 679.02,128.569 679.78,129.749 C681.56,129.778 683.339,129.661 685.1,129.399 C685.246,128.104 685.182,126.794 684.91,125.519 C684.43,122.589 683.84,119.669 683.16,116.779 C680.28,116.609 679.16,116.149 679.34,119.119 C679.535,121.288 679.545,123.469 679.37,125.639 Z" id="Path" fill="#D3D8E0" fill-rule="nonzero"></path>
                <path d="M688.22,126 C688.22,127.1 688.36,128.51 689.42,128.77 C690.31,129 691.31,128.42 692.11,128.4 C691.955,124.794 691.306,121.228 690.18,117.8 C689.84,116.8 689.29,116.25 688.18,116.67 C686.9,117.15 687.54,117.52 687.5,118.67 C687.43,121.06 688.26,123.59 688.22,126 Z" id="Path" fill="#D3D8E0" fill-rule="nonzero"></path>
                <path d="M666.79,122.11 C667.01,124.47 666.65,126.58 666.93,128.75 L665.07,128.2 L664.87,123.64 C664.825,122.774 664.825,121.906 664.87,121.04 C664.97,119.48 664.37,115.38 665.78,115.51 C666.31,115.51 667.19,115.82 667.28,116.65 C667.43,118.34 666.69,121 666.79,122.11 Z" id="Path" fill="#D3D8E0" fill-rule="nonzero"></path>
                <path d="M669.66,131.05 C668.71,130.92 668.66,131.05 668.44,131.99 C668.33,132.52 668.16,132.94 668.63,133.21 C669.188,133.52 669.798,133.723 670.43,133.81 C675.27,134.197 680.128,134.304 684.98,134.13 C686.002,133.987 687.007,133.742 687.98,133.4 C688.65,133.22 688.7,131.4 687.63,131.47 C685.87,131.56 683.95,131.97 682.16,132.02 C677.975,132.004 673.797,131.68 669.66,131.05 Z" id="Path" fill="#D3D8E0" fill-rule="nonzero"></path>
                <path d="M682.94,137 C684.427,136.807 685.937,137.036 687.3,137.66 C688.66,138.34 692.23,142.42 693.45,145.32 C695.32,149.74 696.1,150.68 698.17,154.81 C698.57,155.6 699.56,156 699.81,156.81 C700.06,157.62 699.63,158.29 699.7,159.03 C700.33,166.52 701.13,173.11 701.08,180.13 C701.08,183.97 700.63,188.03 700.6,191.87 C700.54,197.66 700.6,200.07 700.21,205.67 C700.21,206.22 699.65,206.82 699.42,207.32 C699.205,207.634 698.923,207.896 698.594,208.088 C698.266,208.28 697.899,208.397 697.52,208.43 C684.437,211.366 670.934,211.935 657.65,210.11 C656.846,210.095 656.076,209.781 655.49,209.23 C655.117,208.657 654.932,207.983 654.96,207.3 L653.45,182.49 C653.29,180.444 653.25,178.391 653.33,176.34 C653.67,172.715 653.67,169.065 653.33,165.44 C653.04,162.72 653.02,158.54 653.83,155.93 C654.523,154.255 655.543,152.736 656.83,151.46 C658.338,149.842 659.656,148.057 660.76,146.14 C661.76,144.41 667.76,140.5 669.67,139.52 C672.445,138.338 675.387,137.592 678.39,137.31 C682,137.36 679.36,137.5 682.94,137 Z" id="Path" fill="#D3D8E0" fill-rule="nonzero"></path>
                <path d="M663.06,160 C662.677,159.798 662.24,159.72 661.81,159.776 C661.381,159.833 660.979,160.02 660.66,160.314 C660.342,160.607 660.121,160.992 660.03,161.416 C659.939,161.84 659.981,162.281 660.15,162.68 C661.31,179.21 657.95,185.33 661.06,201.6 C673.422,202.85 685.897,202.41 698.14,200.29 C698.759,200.258 699.345,200.002 699.79,199.57 C700.068,199.138 700.211,198.633 700.2,198.12 C700.96,188.57 700.42,188.7 700.76,179.12 C700.96,173.63 702.09,169.12 701.43,163.63 C700.73,157.94 700.67,154.37 694.59,156.53 C684.24,160.23 674,162.09 663.06,160 Z" id="Path" fill="#FFFFFF" fill-rule="nonzero"></path>
                <path d="M683.64,114.74 C684.201,114.727 684.752,114.587 685.25,114.33 C685.494,114.195 685.691,113.988 685.812,113.738 C685.934,113.487 685.975,113.205 685.93,112.93 C682.72,112.221 679.447,111.829 676.16,111.76 C674.92,111.76 667.54,111.33 667.04,112.61 C666.18,114.86 681.76,114.91 683.64,114.74 Z" id="Path" fill="#D3D8E0" fill-rule="nonzero"></path>
                <path d="M685.55,114.74 C685.97,114.74 686.72,114.74 687.08,114.48 C687.303,114.294 687.447,114.031 687.482,113.743 C687.517,113.455 687.442,113.164 687.27,112.93 C684.887,112.226 682.424,111.832 679.94,111.76 C679.01,111.76 673.46,111.33 673.09,112.61 C672.44,114.86 684.14,114.91 685.55,114.74 Z" id="Path" fill="#FFFFFF" fill-rule="nonzero"></path>
                <path d="M685.87,139.35 C686.266,139.27 686.677,139.334 687.03,139.53 C687.196,139.679 687.332,139.859 687.43,140.06 C688.526,142.233 689.429,144.499 690.13,146.83 L692.02,152.54 C692.095,152.696 692.133,152.867 692.133,153.04 C692.133,153.213 692.095,153.384 692.02,153.54 C691.88,153.733 691.679,153.874 691.45,153.94 C688.204,155.104 684.818,155.834 681.38,156.11 C680.54,154.25 680.87,152.46 680.55,150.45 C680.04,147.21 679.2,143.93 679.05,141.06 C679,139.69 683.64,139.55 685.87,139.35 Z" id="Path" fill="#FFFFFF" fill-rule="nonzero"></path>
                <path d="M672.56,171.25 C676.34,172.14 680.34,171.93 684.2,171.75 C687.59,171.59 691.2,171.66 694.34,170.29 C694.7,170.14 694.58,169.56 694.23,169.48 C690.73,168.62 686.93,169.32 683.37,169.56 C679.81,169.8 676.05,169.91 672.56,170.89 C672.522,170.903 672.49,170.927 672.467,170.959 C672.443,170.992 672.431,171.03 672.431,171.07 C672.431,171.11 672.443,171.148 672.467,171.181 C672.49,171.213 672.522,171.237 672.56,171.25 Z" id="Path" fill="#000000" fill-rule="nonzero"></path>
                <path d="M673.22,188.5 C679.42,190.3 688.5,188.37 694.48,186.84 C695.65,186.54 695.48,184.55 694.19,184.67 C690.11,185.06 686.07,185.74 682,186.21 C679,186.57 675.49,186.51 672.91,187.49 C672.83,187.49 672.91,188.06 672.98,188.08 L673.22,188.5 Z" id="Path" fill="#000000" fill-rule="nonzero"></path>
                <path d="M694.88,195.199 C695.118,199.153 694.883,203.121 694.18,207.019 L686.52,208.779 C685.306,204.93 684.944,200.863 685.46,196.859 C686.38,196.609 694.81,193.879 694.88,195.199 Z" id="Path" fill="#FFFFFF" fill-rule="nonzero"></path>
                <path d="M672.86,179.28 C676.48,180.53 680.71,180.28 684.48,179.96 C687.83,179.66 691.76,179.4 694.59,177.51 C694.719,177.429 694.818,177.308 694.873,177.166 C694.928,177.025 694.936,176.869 694.896,176.722 C694.855,176.575 694.769,176.445 694.649,176.351 C694.529,176.257 694.382,176.204 694.23,176.2 C690.79,176.02 687.17,177.35 683.71,177.68 C680.25,178.01 676.54,177.68 673.02,178.11 C672.88,178.116 672.746,178.171 672.642,178.266 C672.538,178.361 672.47,178.489 672.451,178.628 C672.432,178.768 672.463,178.909 672.537,179.028 C672.612,179.148 672.726,179.237 672.86,179.28 Z" id="Path" fill="#000000" fill-rule="nonzero"></path>
                <path d="M680.38,116.7 C680.52,116.687 680.662,116.711 680.79,116.77 C680.936,116.89 681.03,117.062 681.05,117.25 C681.173,117.87 681.247,118.498 681.27,119.13 L681.86,128.81 C681.907,129.054 681.86,129.308 681.73,129.52 C681.53,129.79 681.13,129.79 680.79,129.77 L678.57,129.61 C678.57,128.34 678.47,127.14 678.37,125.87 C678.29,124.321 678.29,122.769 678.37,121.22 C678.37,120.11 678.13,117.97 678.2,117.36 C678.36,116.07 679.15,116.71 680.38,116.7 Z" id="Path" fill="#FFFFFF" fill-rule="nonzero"></path>
                <path d="M688,116.78 C688,116.78 688.11,117.78 688.21,118.28 C688.883,121.403 689.357,124.566 689.63,127.75 C689.692,128.09 689.639,128.442 689.48,128.75 C689.15,129.25 687.75,129.43 687.75,129.12 C687.75,128.53 687.4,128.43 687.24,127.86 C687.023,127.15 686.859,126.424 686.75,125.69 C686.75,125.07 686.6,124.51 686.56,123.89 C686.546,123.142 686.476,122.397 686.35,121.66 C685.881,120.084 685.762,118.426 686,116.8 C686.664,116.725 687.335,116.718 688,116.78 Z" id="Path" fill="#FFFFFF" fill-rule="nonzero"></path>
                <path d="M672,116.23 C672.555,118.777 672.797,121.383 672.72,123.99 L672.72,128.77 C672.72,129.05 672.72,129.37 672.46,129.52 C672.279,129.585 672.081,129.585 671.9,129.52 L669.63,129.17 C669.447,129.157 669.27,129.095 669.12,128.99 C668.951,128.793 668.865,128.538 668.88,128.28 C668.69,125.564 668.66,122.839 668.79,120.12 C668.79,119.23 668.59,116.99 669.15,116.26 C669.71,115.53 671.23,116.14 672,116.23 Z" id="Path" fill="#FFFFFF" fill-rule="nonzero"></path>
                <path d="M646.68,127 C648.723,131.973 650.394,137.09 651.68,142.31 C655.45,157.31 659.9,168.41 663.68,183.43 C665.61,191.33 667.68,199.22 669.38,207.12 C670.25,211.07 671.03,214.92 671.9,218.87 C672.061,219.339 672.127,219.835 672.093,220.33 C672.058,220.825 671.925,221.308 671.7,221.75 C671.149,222.389 670.405,222.831 669.58,223.01 C645.78,230.52 620.15,229.17 595.2,227.72 C586.49,227.24 577.01,226.38 570.73,220.41 C569.47,219.15 568.21,217.61 568.12,215.88 C568.047,214.838 568.176,213.792 568.5,212.8 C570.15,205.87 571.69,199.03 573.34,192.1 C576.53,178.33 579.82,164.65 583.78,151.1 C587.17,139.73 591.14,128.56 595.39,117.59 C596.74,114.12 598.2,110.46 598.29,106.71 C598.49,100.16 596.74,93.5099 598.58,87.1599 C599.36,84.4599 598.58,83.7899 596.36,81.9599 C595.36,81.1899 592.49,80.0299 591.91,79.3599 C590.55,77.9199 590.36,71.2699 592.1,70.2099 C594.608,68.6941 597.295,67.4981 600.1,66.6499 C607.068,65.2452 614.177,64.6645 621.28,64.9199 C627.077,65.094 632.829,65.9978 638.4,67.6099 C640.666,68.4492 642.763,69.6889 644.59,71.2699 C646.24,72.6199 646.14,78.2699 644.2,79.2699 C642.85,79.9499 640.34,80.0399 639.56,81.3899 C639.099,82.4209 638.87,83.5407 638.89,84.6699 C639.08,92.8499 639.08,98.8199 639.47,107.01 C639.91,114.42 643.78,120.39 646.68,127 Z" id="Path" fill="#000000" fill-rule="nonzero"></path>
                <path d="M653.17,179.76 C654.53,184.69 655.88,190.76 656.94,195.76 C657.99,201.329 658.701,206.956 659.07,212.61 C659.247,213.47 659.109,214.365 658.68,215.13 C658.413,215.478 658.079,215.769 657.698,215.985 C657.316,216.202 656.896,216.339 656.46,216.39 C652.11,217.55 647.76,219.2 643.31,219.2 C638.09,219.29 631.61,219.78 626.39,219.87 C612.07,220.07 604.24,219.58 590.32,216.1 C589.795,216.049 589.287,215.885 588.831,215.619 C588.375,215.353 587.982,214.991 587.679,214.559 C587.376,214.127 587.17,213.634 587.075,213.115 C586.981,212.595 586.999,212.062 587.13,211.55 C586.84,185.55 601.6,153.67 605.13,127.92 C605.71,123.56 635.04,119.17 636.13,121.92 C638.74,129.09 640.96,134.8 642.22,141.67 C644.86,155.16 649.21,165.23 653.17,179.76 Z" id="Path" fill="#D3D8E0" fill-rule="nonzero"></path>
                <path d="M627.14,207.15 C627.528,207.801 628.049,208.362 628.669,208.796 C629.29,209.231 629.996,209.528 630.74,209.67 C632.187,209.916 633.662,209.953 635.12,209.78 C638.079,209.653 641.03,209.373 643.96,208.94 C644.84,204.74 641.96,203.7 638.71,203.94 C637.55,204 626.56,206.11 627.14,207.15 Z" id="Path" fill="#FFFFFF" fill-rule="nonzero"></path>
                <path d="M625.37,189 C625.08,187.26 625.37,184.35 624.88,182.7 C624,179.79 621.37,154.47 620.98,151.47 C620.78,149.63 617.46,129.47 620.2,128.39 C621.099,128.03 622.063,127.863 623.03,127.9 L630.03,128.09 C632.08,132.17 640.38,176.98 640.47,181.53 C640.57,184.44 641.35,187.16 641.65,190.07 C641.979,192.021 642.109,194.001 642.04,195.98 C641.94,197.15 641.94,198.22 640.77,198.41 C637.25,199.09 630.71,200.74 628.66,199.41 C625.18,197.23 625.86,192.47 625.37,189 Z" id="Path" fill="#FFFFFF" fill-rule="nonzero"></path>
                <path d="M618.45,107 C617.995,106.929 617.568,106.732 617.22,106.43 C617.003,106.127 616.841,105.788 616.74,105.43 C615.74,103.15 616.65,100.67 616.36,98.0898 C615.812,93.6235 616.134,89.0933 617.31,84.7498 C617.5,84.1798 617.03,83.5098 617.41,83.2298 C617.71,83.0414 618.056,82.9409 618.41,82.9398 C621.918,82.7308 625.438,82.9559 628.89,83.6098 C629.17,83.601 629.443,83.7014 629.65,83.8898 C630.22,84.3698 630.12,85.4198 629.93,86.2798 C628.7,92.6598 628.7,99.9098 628.7,106.39 C628.7,109.72 626.98,108.86 624.89,108.48 C622.17,108.11 621.12,107.54 618.45,107 Z" id="Path" fill="#D3D8E0" fill-rule="nonzero"></path>
                <path d="M621.75,108.389 C624.303,109.745 627.242,110.186 630.08,109.639 C630.329,109.627 630.573,109.561 630.794,109.445 C631.015,109.33 631.208,109.167 631.36,108.969 C631.619,108.631 631.788,108.231 631.85,107.809 C632.846,103.075 633.206,98.2289 632.92,93.3994 C632.795,91.866 632.765,90.3264 632.83,88.7894 C632.92,87.7894 633.12,86.9694 633.12,85.9994 C633.154,85.5446 633.062,85.0892 632.853,84.6835 C632.645,84.2777 632.329,83.9372 631.94,83.6994 C631.608,83.5385 631.237,83.4727 630.87,83.5094 C628.71,83.4094 624.87,82.3494 622.87,83.2194 C620.87,84.0894 621.4,87.6394 621.3,90.0394 C621.2,93.1094 621.1,96.1894 621.2,99.2594 C621.26,100.319 621,107.909 621.75,108.389 Z" id="Path" fill="#FFFFFF" fill-rule="nonzero"></path>
                <path d="M598.12,72.0003 C606.12,69.0003 615.12,69.7203 623.6,70.6503 C624.27,70.7603 625.03,70.9603 625.12,71.6503 C624.12,72.1703 622.85,71.8603 622.18,72.7903 C621.9,73.2103 621.9,73.7303 621.62,74.2403 C621.05,75.5903 619.44,75.8003 618.02,75.8003 C614.377,75.8559 610.734,75.6486 607.12,75.1803 C604,74.8403 600.39,75.0003 598.12,72.0003 Z" id="Path" fill="#FFFFFF" fill-rule="nonzero"></path>
                <path d="M595.16,73.7601 C595.088,74.2712 595.169,74.7922 595.391,75.2581 C595.613,75.724 595.968,76.1142 596.41,76.3801 C596.975,76.69 597.598,76.8774 598.24,76.9301 C611.351,79.3989 624.796,79.5208 637.95,77.2901 C639.178,77.198 640.353,76.7497 641.33,76.0001 C642.19,75.1901 642.48,73.6501 641.52,72.9301 C641.11,72.7081 640.661,72.57 640.197,72.5236 C639.734,72.4772 639.266,72.5236 638.82,72.6601 C631.104,73.8495 623.289,74.2716 615.49,73.9201 C611.537,73.7401 607.587,73.3801 603.64,72.8401 C601.23,72.5901 595.74,70.3301 595.16,73.7601 Z" id="Path" fill="#D3D8E0" fill-rule="nonzero"></path>
                <path d="M625.27,76.1202 C625.313,76.5023 625.41,76.8761 625.56,77.2302 C625.66,77.6402 626.24,77.7402 626.63,77.8402 C627.022,77.9069 627.425,77.8725 627.8,77.7402 C629.85,77.3302 631.51,77.1302 633.56,76.8302 C633.961,76.7779 634.354,76.6771 634.73,76.5302 C634.93,76.4302 635.12,76.4302 635.12,75.9202 L635.12,74.1102 C635.149,73.858 635.081,73.6042 634.93,73.4002 C634.83,73.2002 634.53,73.2002 634.34,73.2002 C632.214,72.8072 630.037,72.7734 627.9,73.1002 C627.12,73.2002 625.75,73.2002 625.46,73.9002 C625.275,74.2363 625.162,74.6076 625.129,74.9901 C625.096,75.3725 625.144,75.7575 625.27,76.1202 Z" id="Path" fill="#FFFFFF" fill-rule="nonzero"></path>
                <path d="M657.35,242 C657.06,239.66 656.78,237.66 656.52,236.08 C651.91,238.823 647.048,241.117 642,242.93 C632.47,245.5 626.64,237.27 623.76,226.56 C620.88,215.85 623.89,205.24 633.42,202.68 C640.73,200.68 686.6,185.14 706.1,179.89 C712.04,178.3 720.5,190.35 723.45,201.34 C724.06,203.6 722.03,209.22 717.84,216.6 L657.35,242 Z" id="Path" fill="#000000"></path>
                <path d="M706.32,215 C697.04,219.94 682.463,226.25 662.59,233.93 C661.142,227.745 659.092,221.716 656.47,215.93 C655.186,213.203 653.337,210.778 651.046,208.818 C648.755,206.858 646.074,205.407 643.18,204.56 L705.18,185.65 C709.03,187.22 712.42,190 715.72,198.05 C716.88,200.91 712.18,211.86 706.32,215 Z" id="Path" fill="#D3D8E0"></path>
                <path d="M660.51,214.76 C653.25,209.16 647.583,205.694 643.51,204.36 L705.44,185.36 C708.967,186.894 712.3,191.21 715.44,198.31 C683.653,213.01 665.343,218.494 660.51,214.76 Z" id="Path" fill="#FFFFFF"></path>
                <path d="M644.07,211 C645.65,211.84 651.34,213.62 653.35,221.07 C654.303,225.201 654.856,229.413 655,233.65 C646.61,237.65 640.27,240.99 639.19,239.98 C640.497,239.283 641.636,238.309 642.527,237.126 C643.419,235.942 644.041,234.579 644.35,233.13 C645.19,229.17 644.99,225.06 643.77,221.2 C643.303,219.496 642.418,217.935 641.196,216.658 C639.974,215.382 638.452,214.431 636.77,213.89 L644.07,211 Z" id="Path" fill="#FFFFFF"></path>
                <path d="M655,233.67 C646.58,237.67 640.22,240.98 639.14,239.98 C640.448,239.294 641.59,238.331 642.488,237.159 C643.386,235.986 644.018,234.632 644.34,233.19 C644.78,230.376 645.991,227.738 647.84,225.57 C648.543,224.674 649.444,223.954 650.473,223.466 C651.503,222.978 652.631,222.737 653.77,222.76 C654.46,226.36 654.871,230.007 655,233.67 Z" id="Path" fill="#D3D8E0"></path>
                <path d="M635.27,217.51 C637.428,218.966 638.943,221.197 639.5,223.74 C639.68,224.42 639.83,225.08 639.96,225.74 L633.56,228.41 C633.146,227.367 632.854,226.28 632.69,225.17 C632.427,223.374 632.638,221.54 633.3,219.85 C633.733,218.906 634.414,218.097 635.27,217.51 Z" id="Path" fill="#D3D8E0"></path>
                <path d="M710.21,182.66 L713.4,190.54 C712.237,191.257 710.987,191.821 709.68,192.22 C707.98,192.63 706.34,193.67 707.03,192.79 C707.37,192.35 709.03,190.65 710.12,189.7 C710.42,189.43 710.71,189.19 710.98,188.96 C708.751,189.849 706.478,190.623 704.17,191.28 C697.44,193.21 697.71,192.78 703.17,189.78 C704.26,189.18 705.69,188.48 707.44,187.69 C706.674,187.731 705.906,187.731 705.14,187.69 C703.519,187.61 701.906,187.396 700.32,187.05 C699.24,186.65 701.77,186.15 704.32,184.71 C706.192,183.788 708.17,183.099 710.21,182.66 Z" id="Path" fill="#000000"></path>
                <path d="M707.73,255.089 C707.44,252.749 707.16,250.749 706.89,249.169 C702.265,251.91 697.385,254.197 692.32,255.999 C682.79,258.569 676.96,250.339 674.08,239.629 C671.2,228.919 674.21,218.309 683.74,215.749 C691.06,213.749 736.93,198.209 756.43,192.959 C762.36,191.369 770.82,203.419 773.78,214.409 C774.39,216.669 772.35,222.289 768.16,229.669 L707.73,255.089 Z" id="Path" fill="#000000"></path>
                <path d="M756.69,228.05 C747.41,232.99 732.847,239.306 713,247 C711.557,240.813 709.507,234.784 706.88,229 C705.597,226.273 703.75,223.849 701.461,221.889 C699.172,219.929 696.492,218.477 693.6,217.63 L755.6,198.72 C759.46,200.29 762.84,203.07 766.14,211.12 C767.26,214 762.56,224.93 756.69,228.05 Z" id="Path" fill="#D3D8E0"></path>
                <path d="M710.89,227.82 C703.623,222.22 697.973,218.753 693.94,217.42 L755.87,198.42 C759.397,199.953 762.73,204.27 765.87,211.37 C734.057,226.07 715.73,231.553 710.89,227.82 Z" id="Path" fill="#FFFFFF"></path>
                <path d="M694.44,223.999 C696.03,224.839 701.72,226.619 703.72,234.069 C704.677,238.209 705.226,242.432 705.36,246.679 C696.97,250.679 690.63,254.019 689.56,253.009 C690.867,252.312 692.006,251.338 692.897,250.155 C693.789,248.971 694.411,247.608 694.72,246.159 C695.55,242.198 695.35,238.091 694.14,234.229 C693.675,232.524 692.79,230.962 691.568,229.686 C690.345,228.409 688.823,227.458 687.14,226.919 L694.44,223.999 Z" id="Path" fill="#FFFFFF"></path>
                <path d="M705.41,246.729 C696.99,250.729 690.63,254.039 689.56,253.039 C690.868,252.354 692.01,251.391 692.906,250.218 C693.803,249.045 694.432,247.69 694.75,246.249 C695.199,243.437 696.41,240.802 698.25,238.629 C698.955,237.733 699.859,237.013 700.89,236.525 C701.92,236.038 703.05,235.796 704.19,235.819 C704.877,239.419 705.285,243.066 705.41,246.729 Z" id="Path" fill="#D3D8E0"></path>
                <path d="M685.64,230.569 C687.798,232.025 689.313,234.256 689.87,236.799 C690.05,237.479 690.21,238.139 690.34,238.799 L683.94,241.469 C683.521,240.428 683.229,239.34 683.07,238.229 C682.803,236.433 683.013,234.598 683.68,232.909 C684.115,231.969 684.791,231.162 685.64,230.569 Z" id="Path" fill="#D3D8E0"></path>
                <path d="M760.58,195.72 L763.78,203.6 C762.615,204.313 761.365,204.877 760.06,205.28 C758.35,205.69 756.71,206.73 757.4,205.85 C757.75,205.41 759.45,203.71 760.5,202.76 C760.8,202.49 761.08,202.25 761.36,202.02 C759.36,202.83 757.16,203.58 754.55,204.34 C747.82,206.27 748.08,205.84 753.55,202.84 C754.637,202.24 756.06,201.543 757.82,200.75 C757.054,200.79 756.286,200.79 755.52,200.75 C753.898,200.671 752.286,200.457 750.7,200.11 C749.62,199.71 752.14,199.21 754.7,197.77 C756.568,196.847 758.543,196.158 760.58,195.72 Z" id="Path" fill="#000000"></path>
                <path d="M679.81,223.37 C679.52,221.03 679.24,219.03 678.97,217.45 C674.347,220.196 669.468,222.483 664.4,224.28 C654.88,226.84 649.05,218.61 646.16,207.9 C643.27,197.19 646.3,186.59 655.82,184.02 C663.14,182.02 709.01,166.48 728.51,161.24 C734.45,159.64 742.9,171.7 745.86,182.69 C746.47,184.94 744.43,190.56 740.24,197.94 L679.81,223.37 Z" id="Path" fill="#000000"></path>
                <path d="M728.77,196.33 C719.49,201.277 704.913,207.587 685.04,215.26 C683.595,209.076 681.549,203.047 678.93,197.26 C677.644,194.534 675.795,192.111 673.504,190.151 C671.213,188.191 668.533,186.739 665.64,185.89 L727.64,166.98 C731.49,168.55 734.88,171.33 738.17,179.38 C739.34,182.25 734.64,193.21 728.77,196.33 Z" id="Path" fill="#D3D8E0"></path>
                <path d="M683,196.1 C675.74,190.507 670.073,187.04 666,185.7 L727.93,166.7 C731.457,168.22 734.79,172.534 737.93,179.64 C706.123,194.347 687.813,199.834 683,196.1 Z" id="Path" fill="#FFFFFF"></path>
                <path d="M666.52,192.311 C668.11,193.151 673.8,194.941 675.81,202.381 C676.756,206.526 677.306,210.751 677.45,215.001 C669.05,219.001 662.72,222.351 661.64,221.331 C662.948,220.635 664.088,219.661 664.979,218.477 C665.87,217.294 666.492,215.93 666.8,214.481 C667.635,210.52 667.435,206.411 666.22,202.551 C665.753,200.846 664.868,199.285 663.646,198.009 C662.424,196.733 660.902,195.781 659.22,195.241 L666.52,192.311 Z" id="Path" fill="#FFFFFF"></path>
                <path d="M677.5,215 C669.08,219 662.72,222.32 661.64,221.31 C662.947,220.625 664.089,219.663 664.987,218.493 C665.885,217.322 666.517,215.97 666.84,214.53 C667.277,211.714 668.485,209.073 670.33,206.9 C671.037,206.006 671.941,205.287 672.971,204.8 C674.001,204.312 675.131,204.069 676.27,204.09 C676.955,207.69 677.367,211.338 677.5,215 Z" id="Path" fill="#D3D8E0"></path>
                <path d="M657.73,198.851 C659.888,200.307 661.403,202.538 661.96,205.081 C662.14,205.761 662.29,206.421 662.42,207.081 L656.02,209.761 C655.603,208.715 655.311,207.624 655.15,206.511 C654.883,204.718 655.093,202.886 655.76,201.201 C656.191,200.253 656.872,199.44 657.73,198.851 Z" id="Path" fill="#D3D8E0"></path>
                <path d="M732.67,164 L735.86,171.88 C734.695,172.595 733.445,173.163 732.14,173.57 C730.44,173.97 728.79,175.01 729.48,174.14 C729.83,173.7 731.48,171.99 732.58,171.04 L733.44,170.3 C731.212,171.192 728.939,171.966 726.63,172.62 C719.9,174.56 720.17,174.12 725.63,171.12 C726.72,170.52 728.14,169.83 729.9,169.03 C729.134,169.071 728.366,169.071 727.6,169.03 C725.978,168.955 724.365,168.741 722.78,168.39 C721.7,167.99 724.23,167.5 726.78,166.05 C728.652,165.127 730.63,164.439 732.67,164 Z" id="Path" fill="#000000"></path>
                <path d="M60.9609,72.4297 L60.9609,68.3516 L85.0078,68.3516 L85.0078,72.4297 L75.2578,72.4297 L75.2578,101 L70.7109,101 L70.7109,72.4297 L60.9609,72.4297 Z M88.6641,88.7656 C88.6641,86.9062 88.8906,85.1875 89.3438,83.6094 C89.8125,82.0156 90.5,80.6641 91.4062,79.5547 C92.3281,78.4297 93.4375,77.5469 94.7344,76.9062 C96.0312,76.2656 97.5234,75.9453 99.2109,75.9453 C100.977,75.9453 102.516,76.25 103.828,76.8594 C105.141,77.4688 106.227,78.3047 107.086,79.3672 C107.945,80.4141 108.594,81.6484 109.031,83.0703 C109.469,84.4922 109.688,86.0234 109.688,87.6641 L109.688,89.9609 L93.2109,89.9609 L93.2109,92.5625 C93.2109,93.4531 93.375,94.2422 93.7031,94.9297 C94.0469,95.6172 94.5078,96.2031 95.0859,96.6875 C95.6641,97.1562 96.3125,97.5156 97.0312,97.7656 C97.75,98 98.4922,98.1172 99.2578,98.1172 C100.789,98.1172 102.117,97.7266 103.242,96.9453 C104.367,96.1641 105.008,94.9219 105.164,93.2188 L109.5,93.2188 C109.406,94.5312 109.062,95.7031 108.469,96.7344 C107.875,97.75 107.102,98.6172 106.148,99.3359 C105.211,100.055 104.148,100.609 102.961,101 C101.773,101.391 100.523,101.586 99.2109,101.586 C97.4453,101.586 95.8984,101.266 94.5703,100.625 C93.2578,99.9844 92.1562,99.1016 91.2656,97.9766 C90.3906,96.8516 89.7344,95.5078 89.2969,93.9453 C88.875,92.3828 88.6641,90.6562 88.6641,88.7656 Z M93.2109,86.5156 L105.211,86.5156 L105.211,85.1562 C105.211,84.2656 105.047,83.4609 104.719,82.7422 C104.406,82.0234 103.969,81.4141 103.406,80.9141 C102.859,80.4141 102.219,80.0391 101.484,79.7891 C100.766,79.5234 100.008,79.3906 99.2109,79.3906 C98.4141,79.3906 97.6562,79.5234 96.9375,79.7891 C96.2188,80.0391 95.5781,80.4141 95.0156,80.9141 C94.4531,81.4141 94.0078,82.0234 93.6797,82.7422 C93.3672,83.4609 93.2109,84.2656 93.2109,85.1562 L93.2109,86.5156 Z M114.656,93.2656 L118.992,93.2656 C119.055,94.8906 119.633,96.1094 120.727,96.9219 C121.836,97.7188 123.141,98.1172 124.641,98.1172 C126.078,98.1172 127.328,97.7969 128.391,97.1562 C129.453,96.5156 129.984,95.5859 129.984,94.3672 C129.984,93.3828 129.664,92.5938 129.023,92 C128.383,91.4062 127.242,90.9531 125.602,90.6406 L121.57,89.8203 C119.555,89.3984 118,88.625 116.906,87.5 C115.828,86.3594 115.289,84.8281 115.289,82.9062 C115.289,81.9531 115.5,81.0547 115.922,80.2109 C116.359,79.3516 116.977,78.6094 117.773,77.9844 C118.586,77.3594 119.531,76.8672 120.609,76.5078 C121.703,76.1328 122.922,75.9453 124.266,75.9453 C125.422,75.9453 126.547,76.1016 127.641,76.4141 C128.75,76.7109 129.734,77.1797 130.594,77.8203 C131.469,78.4609 132.164,79.2812 132.68,80.2812 C133.211,81.2656 133.492,82.4453 133.523,83.8203 L129.211,83.8203 C129.148,82.1953 128.641,81.0547 127.688,80.3984 C126.75,79.7266 125.625,79.3906 124.312,79.3906 C122.969,79.3906 121.828,79.7109 120.891,80.3516 C119.969,80.9922 119.508,81.8281 119.508,82.8594 C119.508,83.8125 119.781,84.5547 120.328,85.0859 C120.875,85.6172 121.758,86.0078 122.977,86.2578 L127.102,87.125 C129.539,87.6406 131.344,88.4766 132.516,89.6328 C133.703,90.7734 134.297,92.3359 134.297,94.3203 C134.297,95.3516 134.062,96.3125 133.594,97.2031 C133.141,98.0781 132.477,98.8359 131.602,99.4766 C130.742,100.102 129.719,100.609 128.531,101 C127.344,101.391 126.031,101.586 124.594,101.586 C123.219,101.586 121.93,101.406 120.727,101.047 C119.539,100.703 118.492,100.188 117.586,99.5 C116.695,98.7969 115.992,97.9297 115.477,96.8984 C114.961,95.8516 114.688,94.6406 114.656,93.2656 Z M138.328,80.2109 L138.328,76.5312 L142.453,76.5312 L142.453,68.3516 L146.719,68.3516 L146.719,76.5312 L152.344,76.5312 L152.344,80.2109 L146.719,80.2109 L146.719,97.2969 L152.344,97.2969 L152.344,101 L142.453,101 L142.453,80.2109 L138.328,80.2109 Z M158.344,101 L158.344,76.5312 L162.656,76.5312 L162.656,80.5625 C163.328,79.125 164.25,78 165.422,77.1875 C166.594,76.3594 168.109,75.9453 169.969,75.9453 C171.156,75.9453 172.234,76.1094 173.203,76.4375 C174.172,76.75 175.008,77.2578 175.711,77.9609 C176.414,78.6641 176.961,79.5703 177.352,80.6797 C177.742,81.7734 177.938,83.1094 177.938,84.6875 L177.938,101 L173.602,101 L173.602,85.1562 C173.602,83.3594 173.258,81.9531 172.57,80.9375 C171.883,79.9062 170.609,79.3906 168.75,79.3906 C167.859,79.3906 167.047,79.5703 166.312,79.9297 C165.578,80.2734 164.938,80.7734 164.391,81.4297 C163.844,82.0859 163.414,82.8672 163.102,83.7734 C162.805,84.6641 162.656,85.6406 162.656,86.7031 L162.656,101 L158.344,101 Z M184.43,88.7656 C184.43,86.9062 184.656,85.1875 185.109,83.6094 C185.578,82.0156 186.266,80.6641 187.172,79.5547 C188.094,78.4297 189.203,77.5469 190.5,76.9062 C191.797,76.2656 193.289,75.9453 194.977,75.9453 C196.742,75.9453 198.281,76.25 199.594,76.8594 C200.906,77.4688 201.992,78.3047 202.852,79.3672 C203.711,80.4141 204.359,81.6484 204.797,83.0703 C205.234,84.4922 205.453,86.0234 205.453,87.6641 L205.453,89.9609 L188.977,89.9609 L188.977,92.5625 C188.977,93.4531 189.141,94.2422 189.469,94.9297 C189.812,95.6172 190.273,96.2031 190.852,96.6875 C191.43,97.1562 192.078,97.5156 192.797,97.7656 C193.516,98 194.258,98.1172 195.023,98.1172 C196.555,98.1172 197.883,97.7266 199.008,96.9453 C200.133,96.1641 200.773,94.9219 200.93,93.2188 L205.266,93.2188 C205.172,94.5312 204.828,95.7031 204.234,96.7344 C203.641,97.75 202.867,98.6172 201.914,99.3359 C200.977,100.055 199.914,100.609 198.727,101 C197.539,101.391 196.289,101.586 194.977,101.586 C193.211,101.586 191.664,101.266 190.336,100.625 C189.023,99.9844 187.922,99.1016 187.031,97.9766 C186.156,96.8516 185.5,95.5078 185.062,93.9453 C184.641,92.3828 184.43,90.6562 184.43,88.7656 Z M188.977,86.5156 L200.977,86.5156 L200.977,85.1562 C200.977,84.2656 200.812,83.4609 200.484,82.7422 C200.172,82.0234 199.734,81.4141 199.172,80.9141 C198.625,80.4141 197.984,80.0391 197.25,79.7891 C196.531,79.5234 195.773,79.3906 194.977,79.3906 C194.18,79.3906 193.422,79.5234 192.703,79.7891 C191.984,80.0391 191.344,80.4141 190.781,80.9141 C190.219,81.4141 189.773,82.0234 189.445,82.7422 C189.133,83.4609 188.977,84.2656 188.977,85.1562 L188.977,86.5156 Z M209.672,80.2109 L209.672,76.5312 L213.797,76.5312 L213.797,68.3516 L218.062,68.3516 L218.062,76.5312 L223.688,76.5312 L223.688,80.2109 L218.062,80.2109 L218.062,97.2969 L223.688,97.2969 L223.688,101 L213.797,101 L213.797,80.2109 L209.672,80.2109 Z M228.094,93.2656 L232.43,93.2656 C232.492,94.8906 233.07,96.1094 234.164,96.9219 C235.273,97.7188 236.578,98.1172 238.078,98.1172 C239.516,98.1172 240.766,97.7969 241.828,97.1562 C242.891,96.5156 243.422,95.5859 243.422,94.3672 C243.422,93.3828 243.102,92.5938 242.461,92 C241.82,91.4062 240.68,90.9531 239.039,90.6406 L235.008,89.8203 C232.992,89.3984 231.438,88.625 230.344,87.5 C229.266,86.3594 228.727,84.8281 228.727,82.9062 C228.727,81.9531 228.938,81.0547 229.359,80.2109 C229.797,79.3516 230.414,78.6094 231.211,77.9844 C232.023,77.3594 232.969,76.8672 234.047,76.5078 C235.141,76.1328 236.359,75.9453 237.703,75.9453 C238.859,75.9453 239.984,76.1016 241.078,76.4141 C242.188,76.7109 243.172,77.1797 244.031,77.8203 C244.906,78.4609 245.602,79.2812 246.117,80.2812 C246.648,81.2656 246.93,82.4453 246.961,83.8203 L242.648,83.8203 C242.586,82.1953 242.078,81.0547 241.125,80.3984 C240.188,79.7266 239.062,79.3906 237.75,79.3906 C236.406,79.3906 235.266,79.7109 234.328,80.3516 C233.406,80.9922 232.945,81.8281 232.945,82.8594 C232.945,83.8125 233.219,84.5547 233.766,85.0859 C234.312,85.6172 235.195,86.0078 236.414,86.2578 L240.539,87.125 C242.977,87.6406 244.781,88.4766 245.953,89.6328 C247.141,90.7734 247.734,92.3359 247.734,94.3203 C247.734,95.3516 247.5,96.3125 247.031,97.2031 C246.578,98.0781 245.914,98.8359 245.039,99.4766 C244.18,100.102 243.156,100.609 241.969,101 C240.781,101.391 239.469,101.586 238.031,101.586 C236.656,101.586 235.367,101.406 234.164,101.047 C232.977,100.703 231.93,100.188 231.023,99.5 C230.133,98.7969 229.43,97.9297 228.914,96.8984 C228.398,95.8516 228.125,94.6406 228.094,93.2656 Z" id="Shape" fill="#FFFFFF" fill-rule="nonzero"></path>
                <path d="M61.4091,145 L68.5227,145 L68.5227,143.75 L62.8182,143.75 L62.8182,139.795 L68.0682,139.795 L68.0682,138.545 L62.8182,138.545 L62.8182,134.614 L68.4318,134.614 L68.4318,133.364 L61.4091,133.364 L61.4091,145 Z M71.7898,136.273 L70.2443,136.273 L73.017,140.636 L70.2443,145 L71.7898,145 L73.8807,141.614 L75.9716,145 L77.517,145 L74.6989,140.636 L77.517,136.273 L75.9716,136.273 L73.8807,139.841 L71.7898,136.273 Z M83.2259,136.273 L81.3622,136.273 L81.3622,134.182 L80.0213,134.182 L80.0213,136.273 L78.7031,136.273 L78.7031,137.409 L80.0213,137.409 L80.0213,142.864 C80.0213,144.386 81.2486,145.114 82.3849,145.114 C82.8849,145.114 83.2031,145.023 83.3849,144.955 L83.1122,143.75 C82.9986,143.773 82.8168,143.818 82.5213,143.818 C81.9304,143.818 81.3622,143.636 81.3622,142.5 L81.3622,137.409 L83.2259,137.409 L83.2259,136.273 Z M88.8082,145.182 C90.581,145.182 91.8764,144.295 92.2855,142.977 L90.9901,142.614 C90.6491,143.523 89.8594,143.977 88.8082,143.977 C87.2344,143.977 86.1491,142.96 86.0866,141.091 L92.4219,141.091 L92.4219,140.523 C92.4219,137.273 90.4901,136.159 88.6719,136.159 C86.3082,136.159 84.7401,138.023 84.7401,140.705 C84.7401,143.386 86.2855,145.182 88.8082,145.182 Z M86.0866,139.932 C86.1776,138.574 87.1378,137.364 88.6719,137.364 C90.1264,137.364 91.0582,138.455 91.0582,139.932 L86.0866,139.932 Z M95.8026,139.75 C95.8026,138.227 96.7457,137.364 98.0298,137.364 C99.2741,137.364 100.03,138.176 100.03,139.545 L100.03,145 L101.371,145 L101.371,139.455 C101.371,137.227 100.183,136.159 98.4162,136.159 C97.098,136.159 96.2798,136.75 95.8707,137.636 L95.7571,137.636 L95.7571,136.273 L94.4616,136.273 L94.4616,145 L95.8026,145 L95.8026,139.75 Z M110.003,138.227 C109.582,136.989 108.639,136.159 106.912,136.159 C105.071,136.159 103.707,137.205 103.707,138.682 C103.707,139.886 104.423,140.693 106.026,141.068 L107.48,141.409 C108.361,141.614 108.776,142.034 108.776,142.636 C108.776,143.386 107.98,144 106.73,144 C105.634,144 104.946,143.528 104.707,142.591 L103.435,142.909 C103.747,144.392 104.969,145.182 106.753,145.182 C108.781,145.182 110.162,144.074 110.162,142.568 C110.162,141.352 109.401,140.585 107.844,140.205 L106.548,139.886 C105.514,139.631 105.048,139.284 105.048,138.614 C105.048,137.864 105.844,137.318 106.912,137.318 C108.082,137.318 108.565,137.966 108.798,138.568 L110.003,138.227 Z M112.18,145 L113.521,145 L113.521,136.273 L112.18,136.273 L112.18,145 Z M112.862,134.818 C113.385,134.818 113.817,134.409 113.817,133.909 C113.817,133.409 113.385,133 112.862,133 C112.339,133 111.908,133.409 111.908,133.909 C111.908,134.409 112.339,134.818 112.862,134.818 Z M123.114,136.273 L121.659,136.273 L119.25,143.227 L119.159,143.227 L116.75,136.273 L115.295,136.273 L118.523,145 L119.886,145 L123.114,136.273 Z M128.23,145.182 C130.003,145.182 131.298,144.295 131.707,142.977 L130.412,142.614 C130.071,143.523 129.281,143.977 128.23,143.977 C126.656,143.977 125.571,142.96 125.509,141.091 L131.844,141.091 L131.844,140.523 C131.844,137.273 129.912,136.159 128.094,136.159 C125.73,136.159 124.162,138.023 124.162,140.705 C124.162,143.386 125.707,145.182 128.23,145.182 Z M125.509,139.932 C125.599,138.574 126.56,137.364 128.094,137.364 C129.548,137.364 130.48,138.455 130.48,139.932 L125.509,139.932 Z M141.679,145.182 C143.361,145.182 143.929,144.136 144.224,143.659 L144.384,143.659 L144.384,145 L145.679,145 L145.679,133.364 L144.338,133.364 L144.338,137.659 L144.224,137.659 C143.929,137.205 143.406,136.159 141.702,136.159 C139.497,136.159 137.974,137.909 137.974,140.659 C137.974,143.432 139.497,145.182 141.679,145.182 Z M141.861,143.977 C140.179,143.977 139.315,142.5 139.315,140.636 C139.315,138.795 140.156,137.364 141.861,137.364 C143.497,137.364 144.361,138.682 144.361,140.636 C144.361,142.614 143.474,143.977 141.861,143.977 Z M150.889,145.205 C152.412,145.205 153.207,144.386 153.48,143.818 L153.548,143.818 L153.548,145 L154.889,145 L154.889,139.25 C154.889,136.477 152.776,136.159 151.662,136.159 C150.344,136.159 148.844,136.614 148.162,138.205 L149.435,138.659 C149.73,138.023 150.429,137.341 151.707,137.341 C152.94,137.341 153.548,137.994 153.548,139.114 L153.548,139.159 C153.548,139.807 152.889,139.75 151.298,139.955 C149.679,140.165 147.912,140.523 147.912,142.523 C147.912,144.227 149.23,145.205 150.889,145.205 Z M151.094,144 C150.026,144 149.253,143.523 149.253,142.591 C149.253,141.568 150.185,141.25 151.23,141.114 C151.798,141.045 153.321,140.886 153.548,140.614 L153.548,141.841 C153.548,142.932 152.685,144 151.094,144 Z M161.132,136.273 L159.268,136.273 L159.268,134.182 L157.928,134.182 L157.928,136.273 L156.609,136.273 L156.609,137.409 L157.928,137.409 L157.928,142.864 C157.928,144.386 159.155,145.114 160.291,145.114 C160.791,145.114 161.109,145.023 161.291,144.955 L161.018,143.75 C160.905,143.773 160.723,143.818 160.428,143.818 C159.837,143.818 159.268,143.636 159.268,142.5 L159.268,137.409 L161.132,137.409 L161.132,136.273 Z M165.717,145.205 C167.24,145.205 168.036,144.386 168.308,143.818 L168.376,143.818 L168.376,145 L169.717,145 L169.717,139.25 C169.717,136.477 167.604,136.159 166.49,136.159 C165.172,136.159 163.672,136.614 162.99,138.205 L164.263,138.659 C164.558,138.023 165.257,137.341 166.536,137.341 C167.768,137.341 168.376,137.994 168.376,139.114 L168.376,139.159 C168.376,139.807 167.717,139.75 166.126,139.955 C164.507,140.165 162.74,140.523 162.74,142.523 C162.74,144.227 164.058,145.205 165.717,145.205 Z M165.922,144 C164.854,144 164.081,143.523 164.081,142.591 C164.081,141.568 165.013,141.25 166.058,141.114 C166.626,141.045 168.149,140.886 168.376,140.614 L168.376,141.841 C168.376,142.932 167.513,144 165.922,144 Z M179.233,145.205 C180.756,145.205 181.551,144.386 181.824,143.818 L181.892,143.818 L181.892,145 L183.233,145 L183.233,139.25 C183.233,136.477 181.119,136.159 180.006,136.159 C178.688,136.159 177.188,136.614 176.506,138.205 L177.778,138.659 C178.074,138.023 178.773,137.341 180.051,137.341 C181.284,137.341 181.892,137.994 181.892,139.114 L181.892,139.159 C181.892,139.807 181.233,139.75 179.642,139.955 C178.023,140.165 176.256,140.523 176.256,142.523 C176.256,144.227 177.574,145.205 179.233,145.205 Z M179.438,144 C178.369,144 177.597,143.523 177.597,142.591 C177.597,141.568 178.528,141.25 179.574,141.114 C180.142,141.045 181.665,140.886 181.892,140.614 L181.892,141.841 C181.892,142.932 181.028,144 179.438,144 Z M185.862,145 L187.158,145 L187.158,143.659 L187.317,143.659 C187.612,144.136 188.18,145.182 189.862,145.182 C192.044,145.182 193.567,143.432 193.567,140.659 C193.567,137.909 192.044,136.159 189.839,136.159 C188.135,136.159 187.612,137.205 187.317,137.659 L187.203,137.659 L187.203,133.364 L185.862,133.364 L185.862,145 Z M187.18,140.636 C187.18,138.682 188.044,137.364 189.68,137.364 C191.385,137.364 192.226,138.795 192.226,140.636 C192.226,142.5 191.362,143.977 189.68,143.977 C188.067,143.977 187.18,142.614 187.18,140.636 Z M199.163,145.182 C201.527,145.182 203.118,143.386 203.118,140.682 C203.118,137.955 201.527,136.159 199.163,136.159 C196.8,136.159 195.209,137.955 195.209,140.682 C195.209,143.386 196.8,145.182 199.163,145.182 Z M199.163,143.977 C197.368,143.977 196.55,142.432 196.55,140.682 C196.55,138.932 197.368,137.364 199.163,137.364 C200.959,137.364 201.777,138.932 201.777,140.682 C201.777,142.432 200.959,143.977 199.163,143.977 Z M210.665,141.432 C210.665,143.068 209.415,143.818 208.415,143.818 C207.301,143.818 206.506,143 206.506,141.727 L206.506,136.273 L205.165,136.273 L205.165,141.818 C205.165,144.045 206.347,145.114 207.983,145.114 C209.301,145.114 210.165,144.409 210.574,143.523 L210.665,143.523 L210.665,145 L212.006,145 L212.006,136.273 L210.665,136.273 L210.665,141.432 Z M218.257,136.273 L216.393,136.273 L216.393,134.182 L215.053,134.182 L215.053,136.273 L213.734,136.273 L213.734,137.409 L215.053,137.409 L215.053,142.864 C215.053,144.386 216.28,145.114 217.416,145.114 C217.916,145.114 218.234,145.023 218.416,144.955 L218.143,143.75 C218.03,143.773 217.848,143.818 217.553,143.818 C216.962,143.818 216.393,143.636 216.393,142.5 L216.393,137.409 L218.257,137.409 L218.257,136.273 Z M224.774,148.273 L226.115,148.273 L226.115,143.659 L226.229,143.659 C226.524,144.136 227.092,145.182 228.774,145.182 C230.956,145.182 232.479,143.432 232.479,140.659 C232.479,137.909 230.956,136.159 228.751,136.159 C227.047,136.159 226.524,137.205 226.229,137.659 L226.07,137.659 L226.07,136.273 L224.774,136.273 L224.774,148.273 Z M226.092,140.636 C226.092,138.682 226.956,137.364 228.592,137.364 C230.297,137.364 231.138,138.795 231.138,140.636 C231.138,142.5 230.274,143.977 228.592,143.977 C226.979,143.977 226.092,142.614 226.092,140.636 Z M237.092,145.205 C238.615,145.205 239.411,144.386 239.683,143.818 L239.751,143.818 L239.751,145 L241.092,145 L241.092,139.25 C241.092,136.477 238.979,136.159 237.865,136.159 C236.547,136.159 235.047,136.614 234.365,138.205 L235.638,138.659 C235.933,138.023 236.632,137.341 237.911,137.341 C239.143,137.341 239.751,137.994 239.751,139.114 L239.751,139.159 C239.751,139.807 239.092,139.75 237.501,139.955 C235.882,140.165 234.115,140.523 234.115,142.523 C234.115,144.227 235.433,145.205 237.092,145.205 Z M237.297,144 C236.229,144 235.456,143.523 235.456,142.591 C235.456,141.568 236.388,141.25 237.433,141.114 C238.001,141.045 239.524,140.886 239.751,140.614 L239.751,141.841 C239.751,142.932 238.888,144 237.297,144 Z M249.722,138.227 C249.301,136.989 248.358,136.159 246.631,136.159 C244.79,136.159 243.426,137.205 243.426,138.682 C243.426,139.886 244.142,140.693 245.744,141.068 L247.199,141.409 C248.08,141.614 248.494,142.034 248.494,142.636 C248.494,143.386 247.699,144 246.449,144 C245.352,144 244.665,143.528 244.426,142.591 L243.153,142.909 C243.466,144.392 244.688,145.182 246.472,145.182 C248.5,145.182 249.881,144.074 249.881,142.568 C249.881,141.352 249.119,140.585 247.562,140.205 L246.267,139.886 C245.233,139.631 244.767,139.284 244.767,138.614 C244.767,137.864 245.562,137.318 246.631,137.318 C247.801,137.318 248.284,137.966 248.517,138.568 L249.722,138.227 Z M255.695,136.273 L253.831,136.273 L253.831,134.182 L252.49,134.182 L252.49,136.273 L251.172,136.273 L251.172,137.409 L252.49,137.409 L252.49,142.864 C252.49,144.386 253.717,145.114 254.854,145.114 C255.354,145.114 255.672,145.023 255.854,144.955 L255.581,143.75 C255.467,143.773 255.286,143.818 254.99,143.818 C254.399,143.818 253.831,143.636 253.831,142.5 L253.831,137.409 L255.695,137.409 L255.695,136.273 Z M259.712,143.409 L258.257,143.409 L258.189,144.045 C258.024,145.585 257.7,147.119 257.553,147.841 L258.575,147.841 C258.848,147.068 259.428,145.318 259.621,144.023 L259.712,143.409 Z M268.037,133.364 L266.696,133.364 L266.696,145 L268.037,145 L268.037,133.364 Z M270.493,145 L271.834,145 L271.834,136.273 L270.493,136.273 L270.493,145 Z M271.175,134.818 C271.697,134.818 272.129,134.409 272.129,133.909 C272.129,133.409 271.697,133 271.175,133 C270.652,133 270.22,133.409 270.22,133.909 C270.22,134.409 270.652,134.818 271.175,134.818 Z M281.426,136.273 L279.972,136.273 L277.562,143.227 L277.472,143.227 L275.062,136.273 L273.608,136.273 L276.835,145 L278.199,145 L281.426,136.273 Z M286.543,145.182 C288.315,145.182 289.611,144.295 290.02,142.977 L288.724,142.614 C288.384,143.523 287.594,143.977 286.543,143.977 C284.969,143.977 283.884,142.96 283.821,141.091 L290.156,141.091 L290.156,140.523 C290.156,137.273 288.224,136.159 286.406,136.159 C284.043,136.159 282.474,138.023 282.474,140.705 C282.474,143.386 284.02,145.182 286.543,145.182 Z M283.821,139.932 C283.912,138.574 284.872,137.364 286.406,137.364 C287.861,137.364 288.793,138.455 288.793,139.932 L283.821,139.932 Z M299.264,145.205 C300.787,145.205 301.582,144.386 301.855,143.818 L301.923,143.818 L301.923,145 L303.264,145 L303.264,139.25 C303.264,136.477 301.151,136.159 300.037,136.159 C298.719,136.159 297.219,136.614 296.537,138.205 L297.81,138.659 C298.105,138.023 298.804,137.341 300.082,137.341 C301.315,137.341 301.923,137.994 301.923,139.114 L301.923,139.159 C301.923,139.807 301.264,139.75 299.673,139.955 C298.054,140.165 296.287,140.523 296.287,142.523 C296.287,144.227 297.605,145.205 299.264,145.205 Z M299.469,144 C298.401,144 297.628,143.523 297.628,142.591 C297.628,141.568 298.56,141.25 299.605,141.114 C300.173,141.045 301.696,140.886 301.923,140.614 L301.923,141.841 C301.923,142.932 301.06,144 299.469,144 Z M307.053,139.75 C307.053,138.227 307.996,137.364 309.28,137.364 C310.524,137.364 311.28,138.176 311.28,139.545 L311.28,145 L312.621,145 L312.621,139.455 C312.621,137.227 311.433,136.159 309.666,136.159 C308.348,136.159 307.53,136.75 307.121,137.636 L307.007,137.636 L307.007,136.273 L305.712,136.273 L305.712,145 L307.053,145 L307.053,139.75 Z M318.366,145.182 C320.048,145.182 320.616,144.136 320.912,143.659 L321.071,143.659 L321.071,145 L322.366,145 L322.366,133.364 L321.026,133.364 L321.026,137.659 L320.912,137.659 C320.616,137.205 320.094,136.159 318.389,136.159 C316.185,136.159 314.662,137.909 314.662,140.659 C314.662,143.432 316.185,145.182 318.366,145.182 Z M318.548,143.977 C316.866,143.977 316.003,142.5 316.003,140.636 C316.003,138.795 316.844,137.364 318.548,137.364 C320.185,137.364 321.048,138.682 321.048,140.636 C321.048,142.614 320.162,143.977 318.548,143.977 Z M335.009,141.432 C335.009,143.068 333.759,143.818 332.759,143.818 C331.645,143.818 330.849,143 330.849,141.727 L330.849,136.273 L329.509,136.273 L329.509,141.818 C329.509,144.045 330.69,145.114 332.327,145.114 C333.645,145.114 334.509,144.409 334.918,143.523 L335.009,143.523 L335.009,145 L336.349,145 L336.349,136.273 L335.009,136.273 L335.009,141.432 Z M338.805,148.273 L340.146,148.273 L340.146,143.659 L340.26,143.659 C340.555,144.136 341.124,145.182 342.805,145.182 C344.987,145.182 346.51,143.432 346.51,140.659 C346.51,137.909 344.987,136.159 342.783,136.159 C341.078,136.159 340.555,137.205 340.26,137.659 L340.101,137.659 L340.101,136.273 L338.805,136.273 L338.805,148.273 Z M340.124,140.636 C340.124,138.682 340.987,137.364 342.624,137.364 C344.328,137.364 345.169,138.795 345.169,140.636 C345.169,142.5 344.305,143.977 342.624,143.977 C341.01,143.977 340.124,142.614 340.124,140.636 Z M352.101,145.182 C354.033,145.182 355.305,144 355.533,142.455 L354.192,142.455 C353.942,143.409 353.146,143.977 352.101,143.977 C350.51,143.977 349.487,142.659 349.487,140.636 C349.487,138.659 350.533,137.364 352.101,137.364 C353.283,137.364 353.987,138.091 354.192,138.886 L355.533,138.886 C355.305,137.25 353.919,136.159 352.078,136.159 C349.714,136.159 348.146,138.023 348.146,140.682 C348.146,143.295 349.646,145.182 352.101,145.182 Z M361.038,145.182 C363.402,145.182 364.993,143.386 364.993,140.682 C364.993,137.955 363.402,136.159 361.038,136.159 C358.675,136.159 357.084,137.955 357.084,140.682 C357.084,143.386 358.675,145.182 361.038,145.182 Z M361.038,143.977 C359.243,143.977 358.425,142.432 358.425,140.682 C358.425,138.932 359.243,137.364 361.038,137.364 C362.834,137.364 363.652,138.932 363.652,140.682 C363.652,142.432 362.834,143.977 361.038,143.977 Z M367.04,145 L368.381,145 L368.381,139.545 C368.381,138.267 369.312,137.364 370.358,137.364 C371.375,137.364 372.085,138.028 372.085,139.023 L372.085,145 L373.449,145 L373.449,139.318 C373.449,138.193 374.153,137.364 375.381,137.364 C376.335,137.364 377.153,137.869 377.153,139.159 L377.153,145 L378.494,145 L378.494,139.159 C378.494,137.108 377.392,136.159 375.835,136.159 C374.585,136.159 373.67,136.733 373.222,137.636 L373.131,137.636 C372.699,136.705 371.938,136.159 370.79,136.159 C369.653,136.159 368.812,136.705 368.449,137.636 L368.335,137.636 L368.335,136.273 L367.04,136.273 L367.04,145 Z M380.946,145 L382.287,145 L382.287,136.273 L380.946,136.273 L380.946,145 Z M381.628,134.818 C382.151,134.818 382.582,134.409 382.582,133.909 C382.582,133.409 382.151,133 381.628,133 C381.105,133 380.673,133.409 380.673,133.909 C380.673,134.409 381.105,134.818 381.628,134.818 Z M386.084,139.75 C386.084,138.227 387.027,137.364 388.311,137.364 C389.555,137.364 390.311,138.176 390.311,139.545 L390.311,145 L391.652,145 L391.652,139.455 C391.652,137.227 390.464,136.159 388.697,136.159 C387.379,136.159 386.561,136.75 386.152,137.636 L386.038,137.636 L386.038,136.273 L384.743,136.273 L384.743,145 L386.084,145 L386.084,139.75 Z M397.625,148.455 C399.716,148.455 401.398,147.5 401.398,145.25 L401.398,136.273 L400.102,136.273 L400.102,137.659 L399.966,137.659 C399.67,137.205 399.125,136.159 397.42,136.159 C395.216,136.159 393.693,137.909 393.693,140.591 C393.693,143.318 395.284,144.864 397.398,144.864 C399.102,144.864 399.648,143.864 399.943,143.386 L400.057,143.386 L400.057,145.159 C400.057,146.614 399.034,147.273 397.625,147.273 C396.04,147.273 395.483,146.438 395.125,145.955 L394.057,146.705 C394.602,147.619 395.676,148.455 397.625,148.455 Z M397.58,143.659 C395.898,143.659 395.034,142.386 395.034,140.568 C395.034,138.795 395.875,137.364 397.58,137.364 C399.216,137.364 400.08,138.682 400.08,140.568 C400.08,142.5 399.193,143.659 397.58,143.659 Z M412.148,136.273 L410.284,136.273 L410.284,134.182 L408.943,134.182 L408.943,136.273 L407.625,136.273 L407.625,137.409 L408.943,137.409 L408.943,142.864 C408.943,144.386 410.17,145.114 411.307,145.114 C411.807,145.114 412.125,145.023 412.307,144.955 L412.034,143.75 C411.92,143.773 411.739,143.818 411.443,143.818 C410.852,143.818 410.284,143.636 410.284,142.5 L410.284,137.409 L412.148,137.409 L412.148,136.273 Z M417.73,145.182 C419.503,145.182 420.798,144.295 421.207,142.977 L419.912,142.614 C419.571,143.523 418.781,143.977 417.73,143.977 C416.156,143.977 415.071,142.96 415.009,141.091 L421.344,141.091 L421.344,140.523 C421.344,137.273 419.412,136.159 417.594,136.159 C415.23,136.159 413.662,138.023 413.662,140.705 C413.662,143.386 415.207,145.182 417.73,145.182 Z M415.009,139.932 C415.099,138.574 416.06,137.364 417.594,137.364 C419.048,137.364 419.98,138.455 419.98,139.932 L415.009,139.932 Z M429.565,138.227 C429.145,136.989 428.202,136.159 426.474,136.159 C424.634,136.159 423.27,137.205 423.27,138.682 C423.27,139.886 423.986,140.693 425.588,141.068 L427.043,141.409 C427.923,141.614 428.338,142.034 428.338,142.636 C428.338,143.386 427.543,144 426.293,144 C425.196,144 424.509,143.528 424.27,142.591 L422.997,142.909 C423.31,144.392 424.531,145.182 426.315,145.182 C428.344,145.182 429.724,144.074 429.724,142.568 C429.724,141.352 428.963,140.585 427.406,140.205 L426.111,139.886 C425.077,139.631 424.611,139.284 424.611,138.614 C424.611,137.864 425.406,137.318 426.474,137.318 C427.645,137.318 428.128,137.966 428.361,138.568 L429.565,138.227 Z M435.538,136.273 L433.675,136.273 L433.675,134.182 L432.334,134.182 L432.334,136.273 L431.016,136.273 L431.016,137.409 L432.334,137.409 L432.334,142.864 C432.334,144.386 433.561,145.114 434.697,145.114 C435.197,145.114 435.516,145.023 435.697,144.955 L435.425,143.75 C435.311,143.773 435.129,143.818 434.834,143.818 C434.243,143.818 433.675,143.636 433.675,142.5 L433.675,137.409 L435.538,137.409 L435.538,136.273 Z M438.896,139.75 C438.896,138.227 439.839,137.364 441.124,137.364 C442.368,137.364 443.124,138.176 443.124,139.545 L443.124,145 L444.464,145 L444.464,139.455 C444.464,137.227 443.277,136.159 441.51,136.159 C440.192,136.159 439.374,136.75 438.964,137.636 L438.851,137.636 L438.851,136.273 L437.555,136.273 L437.555,145 L438.896,145 L438.896,139.75 Z M450.574,145.182 C452.347,145.182 453.642,144.295 454.051,142.977 L452.756,142.614 C452.415,143.523 451.625,143.977 450.574,143.977 C449,143.977 447.915,142.96 447.852,141.091 L454.188,141.091 L454.188,140.523 C454.188,137.273 452.256,136.159 450.438,136.159 C448.074,136.159 446.506,138.023 446.506,140.705 C446.506,143.386 448.051,145.182 450.574,145.182 Z M447.852,139.932 C447.943,138.574 448.903,137.364 450.438,137.364 C451.892,137.364 452.824,138.455 452.824,139.932 L447.852,139.932 Z M460.023,136.273 L458.159,136.273 L458.159,134.182 L456.818,134.182 L456.818,136.273 L455.5,136.273 L455.5,137.409 L456.818,137.409 L456.818,142.864 C456.818,144.386 458.045,145.114 459.182,145.114 C459.682,145.114 460,145.023 460.182,144.955 L459.909,143.75 C459.795,143.773 459.614,143.818 459.318,143.818 C458.727,143.818 458.159,143.636 458.159,142.5 L458.159,137.409 L460.023,137.409 L460.023,136.273 Z M468.065,138.227 C467.645,136.989 466.702,136.159 464.974,136.159 C463.134,136.159 461.77,137.205 461.77,138.682 C461.77,139.886 462.486,140.693 464.088,141.068 L465.543,141.409 C466.423,141.614 466.838,142.034 466.838,142.636 C466.838,143.386 466.043,144 464.793,144 C463.696,144 463.009,143.528 462.77,142.591 L461.497,142.909 C461.81,144.392 463.031,145.182 464.815,145.182 C466.844,145.182 468.224,144.074 468.224,142.568 C468.224,141.352 467.463,140.585 465.906,140.205 L464.611,139.886 C463.577,139.631 463.111,139.284 463.111,138.614 C463.111,137.864 463.906,137.318 464.974,137.318 C466.145,137.318 466.628,137.966 466.861,138.568 L468.065,138.227 Z" id="Shape" fill="#C4C3C6" fill-rule="nonzero"></path>
            </g>
        </g>
    </g>
</svg>