<svg xmlns="http://www.w3.org/2000/svg" viewBox="0 0 882 300"><defs><style>.cls-1,.cls-4{fill:#c4c3c6;}.cls-2,.cls-5{fill:#fff;}.cls-3,.cls-4,.cls-5{fill-rule:evenodd;}</style></defs><title>illustrations</title><g id="Layer_4" data-name="Layer 4"><rect x="-0.2" y="0.07" width="882" height="209" rx="6"/><path class="cls-1" d="M61.53,144.92V132.47h7.58v1.22H62.92V138H68v1.21H62.92v4.5h6.19v1.22Z"/><path class="cls-1" d="M70.35,135.92h1.48L74,139.45l2.2-3.53h1.47l-2.86,4.47,2.85,4.53H76.2L74,141.41l-2.19,3.51H70.35l2.83-4.5Z"/><path class="cls-1" d="M84.05,137.09H81.19v4.31a5.81,5.81,0,0,0,.22,2c.15.32.51.49,1.07.49l1.6-.11.09,1.11a11.26,11.26,0,0,1-1.83.2,2.38,2.38,0,0,1-2-.68,4.48,4.48,0,0,1-.54-2.61v-4.74H78.58v-1.17h1.27v-2.75h1.34v2.75h2.86Z"/><path class="cls-1" d="M91.82,143.81l.53-.06,0,1.07a26.05,26.05,0,0,1-3.51.28A3.16,3.16,0,0,1,86.12,144a6,6,0,0,1-.81-3.5q0-4.74,3.76-4.74a3.44,3.44,0,0,1,2.72,1,4.74,4.74,0,0,1,.9,3.2l-.07,1H86.68a3.7,3.7,0,0,0,.54,2.22,2.2,2.2,0,0,0,1.88.72C90,143.92,90.9,143.88,91.82,143.81Zm-.48-3.91a4,4,0,0,0-.53-2.34,2.08,2.08,0,0,0-1.73-.68,2.21,2.21,0,0,0-1.8.72,3.63,3.63,0,0,0-.62,2.3Z"/><path class="cls-1" d="M96.14,144.92H94.79v-9h1.34v.63a5.74,5.74,0,0,1,2.79-.81,2.66,2.66,0,0,1,2.42,1,6.88,6.88,0,0,1,.62,3.45v4.75h-1.33v-4.71a6.19,6.19,0,0,0-.37-2.57,1.63,1.63,0,0,0-1.58-.69,4.83,4.83,0,0,0-1.21.17,6.07,6.07,0,0,0-1,.33l-.35.17Z"/><path class="cls-1" d="M107.29,137c-1.31,0-2,.46-2,1.37a.94.94,0,0,0,.45.89,8,8,0,0,0,2.06.54,5.6,5.6,0,0,1,2.26.78,2.24,2.24,0,0,1,.67,1.89,2.37,2.37,0,0,1-.89,2,4.42,4.42,0,0,1-2.6.64,16,16,0,0,1-2.63-.25l-.54-.09.07-1.17a22.14,22.14,0,0,0,3.1.31,3,3,0,0,0,1.59-.34,1.18,1.18,0,0,0,.55-1.11,1.13,1.13,0,0,0-.47-1.06,6.49,6.49,0,0,0-2-.53,5.47,5.47,0,0,1-2.25-.74,2.12,2.12,0,0,1-.67-1.8,2.19,2.19,0,0,1,.93-1.95,4,4,0,0,1,2.31-.63A18.86,18.86,0,0,1,110,136l.5.09,0,1.15A24.06,24.06,0,0,0,107.29,137Z"/><path class="cls-1" d="M112.83,133.89v-1.57h1.35v1.57Zm0,11v-9h1.35v9Z"/><path class="cls-1" d="M115.93,135.92h1.44l2.1,7.83h.67l2.18-7.83h1.38l-2.54,9h-2.7Z"/><path class="cls-1" d="M131.39,143.81l.52-.06,0,1.07a26.05,26.05,0,0,1-3.51.28,3.17,3.17,0,0,1-2.76-1.12,6,6,0,0,1-.81-3.5c0-3.16,1.26-4.74,3.76-4.74a3.43,3.43,0,0,1,2.72,1,4.74,4.74,0,0,1,.9,3.2l-.07,1h-5.94a3.7,3.7,0,0,0,.54,2.22,2.21,2.21,0,0,0,1.88.72C129.55,143.92,130.46,143.88,131.39,143.81Zm-.49-3.91a4,4,0,0,0-.53-2.34,2.06,2.06,0,0,0-1.73-.68,2.21,2.21,0,0,0-1.8.72,3.63,3.63,0,0,0-.62,2.3Z"/><path class="cls-1" d="M145.23,132v12.92H143.9v-.61a5.49,5.49,0,0,1-2.74.79,4,4,0,0,1-1.26-.18,2.65,2.65,0,0,1-1-.64c-.64-.65-1-1.85-1-3.59a6.44,6.44,0,0,1,.87-3.79,3.41,3.41,0,0,1,2.89-1.16,11.06,11.06,0,0,1,2.22.24v-4Zm-4.68,11.77a2.21,2.21,0,0,0,.84.13,4.71,4.71,0,0,0,1.15-.17,7.56,7.56,0,0,0,1-.34l.36-.16v-6.1a12.05,12.05,0,0,0-2.14-.22,2.06,2.06,0,0,0-1.91.88,5.27,5.27,0,0,0-.54,2.71,4.43,4.43,0,0,0,.63,2.8A1.46,1.46,0,0,0,140.55,143.77Z"/><path class="cls-1" d="M154.19,138.64v4.61c0,.44.39.71,1.05.79l-.06,1.06a2.91,2.91,0,0,1-2.14-.72,7.92,7.92,0,0,1-3.24.72,2.43,2.43,0,0,1-1.89-.7,2.87,2.87,0,0,1-.65-2,2.55,2.55,0,0,1,.67-1.94,3.51,3.51,0,0,1,2.09-.76l2.82-.27v-.78a1.82,1.82,0,0,0-.39-1.31,1.46,1.46,0,0,0-1.08-.4,25.89,25.89,0,0,0-3,.18l-.56.06,0-1a18.49,18.49,0,0,1,3.51-.4,2.51,2.51,0,0,1,2.91,2.9Zm-5.54,3.67c0,1.11.46,1.66,1.37,1.66a7.44,7.44,0,0,0,2.41-.41l.41-.15v-3l-2.66.25a1.76,1.76,0,0,0-1.17.47A1.67,1.67,0,0,0,148.65,142.31Z"/><path class="cls-1" d="M161.52,137.09h-2.86v4.31a5.81,5.81,0,0,0,.22,2c.15.32.51.49,1.07.49l1.61-.11.09,1.11a11.47,11.47,0,0,1-1.84.2,2.36,2.36,0,0,1-1.94-.68,4.48,4.48,0,0,1-.54-2.61v-4.74h-1.28v-1.17h1.28v-2.75h1.33v2.75h2.86Z"/><path class="cls-1" d="M169.53,138.64v4.61c0,.44.38.71,1,.79l0,1.06a2.9,2.9,0,0,1-2.14-.72,7.92,7.92,0,0,1-3.24.72,2.43,2.43,0,0,1-1.89-.7,2.87,2.87,0,0,1-.65-2,2.51,2.51,0,0,1,.67-1.94,3.5,3.5,0,0,1,2.08-.76l2.83-.27v-.78a1.77,1.77,0,0,0-.4-1.31,1.43,1.43,0,0,0-1.08-.4,25.72,25.72,0,0,0-3,.18l-.56.06-.06-1a18.49,18.49,0,0,1,3.51-.4,3,3,0,0,1,2.23.71A3,3,0,0,1,169.53,138.64ZM164,142.31c0,1.11.45,1.66,1.36,1.66a7.5,7.5,0,0,0,2.42-.41l.41-.15v-3l-2.66.25a1.76,1.76,0,0,0-1.17.47A1.67,1.67,0,0,0,164,142.31Z"/><path class="cls-1" d="M182.51,138.64v4.61c0,.44.38.71,1,.79l-.05,1.06a2.9,2.9,0,0,1-2.14-.72,7.92,7.92,0,0,1-3.24.72,2.43,2.43,0,0,1-1.89-.7,2.83,2.83,0,0,1-.65-2,2.54,2.54,0,0,1,.66-1.94,3.53,3.53,0,0,1,2.09-.76l2.83-.27v-.78a1.77,1.77,0,0,0-.4-1.31,1.43,1.43,0,0,0-1.08-.4,26,26,0,0,0-3,.18l-.55.06-.06-1a18.49,18.49,0,0,1,3.51-.4,3,3,0,0,1,2.22.71A3,3,0,0,1,182.51,138.64ZM177,142.31c0,1.11.46,1.66,1.37,1.66a7.4,7.4,0,0,0,2.41-.41l.42-.15v-3l-2.67.25a1.76,1.76,0,0,0-1.17.47A1.67,1.67,0,0,0,177,142.31Z"/><path class="cls-1" d="M189.15,135.74a2.92,2.92,0,0,1,2.55,1,6.66,6.66,0,0,1,.73,3.63,5.66,5.66,0,0,1-.91,3.64c-.61.7-1.72,1-3.34,1-.51,0-1.34,0-2.5-.14l-.51-.05V132h1.33v4.37A6.36,6.36,0,0,1,189.15,135.74Zm-1,8.16a2.73,2.73,0,0,0,2.33-.8,4.85,4.85,0,0,0,.57-2.71,5.73,5.73,0,0,0-.45-2.68A1.72,1.72,0,0,0,189,137a6.22,6.22,0,0,0-2.15.4l-.36.12v6.34C187.28,143.87,187.84,143.9,188.16,143.9Z"/><path class="cls-1" d="M194.24,140.41a5.7,5.7,0,0,1,.89-3.57,4.56,4.56,0,0,1,5.94,0,5.7,5.7,0,0,1,.88,3.57,6.11,6.11,0,0,1-.83,3.58,4.68,4.68,0,0,1-6.05,0A6.11,6.11,0,0,1,194.24,140.41Zm1.39,0a5.71,5.71,0,0,0,.48,2.76,2.13,2.13,0,0,0,2,.79c1,0,1.68-.26,2-.78a5.68,5.68,0,0,0,.47-2.76,5.07,5.07,0,0,0-.52-2.73,2.88,2.88,0,0,0-3.88,0A5,5,0,0,0,195.63,140.38Z"/><path class="cls-1" d="M209.76,135.92h1.35v9h-1.35v-.63a5.16,5.16,0,0,1-2.66.81,2.66,2.66,0,0,1-2.44-.95,7.08,7.08,0,0,1-.61-3.53v-4.7h1.35v4.68a6.78,6.78,0,0,0,.34,2.63c.23.45.75.67,1.55.67a4.65,4.65,0,0,0,1.21-.17,5.93,5.93,0,0,0,.94-.34l.32-.16Z"/><path class="cls-1" d="M218.36,137.09H215.5v4.31a5.74,5.74,0,0,0,.23,2c.15.32.5.49,1.07.49l1.6-.11.09,1.11a11.47,11.47,0,0,1-1.84.2,2.37,2.37,0,0,1-1.94-.68,4.48,4.48,0,0,1-.54-2.61v-4.74h-1.28v-1.17h1.28v-2.75h1.33v2.75h2.86Z"/><path class="cls-1" d="M224,148.92v-13h1.33v.65a5.2,5.2,0,0,1,2.7-.83,2.84,2.84,0,0,1,2.48,1.09,6.35,6.35,0,0,1,.78,3.59,5.57,5.57,0,0,1-.91,3.59,3.72,3.72,0,0,1-3,1.09,9.67,9.67,0,0,1-2-.19v4Zm3.83-12a4.21,4.21,0,0,0-1.16.18,6.13,6.13,0,0,0-1,.36l-.34.18v6.07a13.81,13.81,0,0,0,1.94.19,2.35,2.35,0,0,0,2-.82,4.83,4.83,0,0,0,.58-2.7,5,5,0,0,0-.53-2.67A1.74,1.74,0,0,0,227.81,137Z"/><path class="cls-1" d="M239.82,138.64v4.61c0,.44.38.71,1,.79l-.05,1.06a2.9,2.9,0,0,1-2.14-.72,7.92,7.92,0,0,1-3.24.72,2.43,2.43,0,0,1-1.89-.7,2.83,2.83,0,0,1-.65-2,2.54,2.54,0,0,1,.66-1.94,3.53,3.53,0,0,1,2.09-.76l2.83-.27v-.78a1.77,1.77,0,0,0-.4-1.31,1.43,1.43,0,0,0-1.08-.4,26,26,0,0,0-3,.18l-.55.06-.06-1a18.49,18.49,0,0,1,3.51-.4,3,3,0,0,1,2.23.71A3,3,0,0,1,239.82,138.64Zm-5.55,3.67c0,1.11.46,1.66,1.37,1.66a7.4,7.4,0,0,0,2.41-.41l.42-.15v-3l-2.67.25a1.76,1.76,0,0,0-1.17.47A1.67,1.67,0,0,0,234.27,142.31Z"/><path class="cls-1" d="M245.31,137c-1.31,0-2,.46-2,1.37a.94.94,0,0,0,.45.89,7.92,7.92,0,0,0,2,.54,5.65,5.65,0,0,1,2.27.78,2.27,2.27,0,0,1,.66,1.89,2.34,2.34,0,0,1-.89,2,4.4,4.4,0,0,1-2.6.64,16.11,16.11,0,0,1-2.63-.25l-.54-.09.07-1.17a22.14,22.14,0,0,0,3.1.31,3,3,0,0,0,1.59-.34,1.18,1.18,0,0,0,.55-1.11,1.11,1.11,0,0,0-.47-1.06,6.49,6.49,0,0,0-2.05-.53,5.58,5.58,0,0,1-2.25-.74,2.12,2.12,0,0,1-.66-1.8,2.21,2.21,0,0,1,.92-1.95,4,4,0,0,1,2.32-.63A18.74,18.74,0,0,1,248,136l.5.09,0,1.15A23.77,23.77,0,0,0,245.31,137Z"/><path class="cls-1" d="M255.51,137.09h-2.86v4.31a5.74,5.74,0,0,0,.23,2c.15.32.5.49,1.07.49l1.6-.11.09,1.11a11.36,11.36,0,0,1-1.84.2,2.37,2.37,0,0,1-1.94-.68,4.48,4.48,0,0,1-.54-2.61v-4.74H250v-1.17h1.28v-2.75h1.33v2.75h2.86Z"/><path class="cls-1" d="M256.49,147.14l.82-4.14h1.5l-1.21,4.14Z"/><path class="cls-1" d="M265.25,144.92V132h1.35v12.92Z"/><path class="cls-1" d="M269.3,133.89v-1.57h1.35v1.57Zm0,11v-9h1.35v9Z"/><path class="cls-1" d="M272.4,135.92h1.44l2.1,7.83h.67l2.18-7.83h1.38l-2.53,9h-2.7Z"/><path class="cls-1" d="M287.86,143.81l.52-.06,0,1.07a26.05,26.05,0,0,1-3.51.28,3.17,3.17,0,0,1-2.76-1.12,6,6,0,0,1-.81-3.5q0-4.74,3.77-4.74a3.42,3.42,0,0,1,2.71,1,4.74,4.74,0,0,1,.9,3.2l-.07,1h-5.94a3.7,3.7,0,0,0,.54,2.22,2.21,2.21,0,0,0,1.88.72C286,143.92,286.94,143.88,287.86,143.81Zm-.49-3.91a3.88,3.88,0,0,0-.53-2.34,2.06,2.06,0,0,0-1.73-.68,2.24,2.24,0,0,0-1.8.72,3.63,3.63,0,0,0-.62,2.3Z"/><path class="cls-1" d="M301.14,138.64v4.61c0,.44.39.71,1.05.79l-.06,1.06a2.91,2.91,0,0,1-2.14-.72,7.92,7.92,0,0,1-3.24.72,2.43,2.43,0,0,1-1.89-.7,2.87,2.87,0,0,1-.65-2,2.55,2.55,0,0,1,.67-1.94,3.51,3.51,0,0,1,2.09-.76l2.82-.27v-.78a1.82,1.82,0,0,0-.39-1.31,1.46,1.46,0,0,0-1.08-.4,25.89,25.89,0,0,0-3,.18l-.56.06,0-1a18.49,18.49,0,0,1,3.51-.4,2.51,2.51,0,0,1,2.91,2.9Zm-5.54,3.67c0,1.11.46,1.66,1.37,1.66a7.44,7.44,0,0,0,2.41-.41l.41-.15v-3l-2.66.25a1.76,1.76,0,0,0-1.17.47A1.67,1.67,0,0,0,295.6,142.31Z"/><path class="cls-1" d="M305.16,144.92h-1.35v-9h1.33v.63a5.74,5.74,0,0,1,2.79-.81,2.65,2.65,0,0,1,2.42,1,6.88,6.88,0,0,1,.62,3.45v4.75h-1.33v-4.71a6,6,0,0,0-.37-2.57,1.62,1.62,0,0,0-1.57-.69,4.9,4.9,0,0,0-1.22.17,6.44,6.44,0,0,0-1,.33l-.34.17Z"/><path class="cls-1" d="M320.38,132v12.92h-1.33v-.61a5.43,5.43,0,0,1-2.73.79,4,4,0,0,1-1.26-.18,2.58,2.58,0,0,1-1-.64c-.65-.65-1-1.85-1-3.59a6.44,6.44,0,0,1,.87-3.79,3.39,3.39,0,0,1,2.89-1.16,11,11,0,0,1,2.21.24v-4Zm-4.68,11.77a2.25,2.25,0,0,0,.84.13,4.64,4.64,0,0,0,1.15-.17,7.08,7.08,0,0,0,1-.34l.36-.16v-6.1a12,12,0,0,0-2.14-.22,2.08,2.08,0,0,0-1.91.88,5.27,5.27,0,0,0-.54,2.71,4.43,4.43,0,0,0,.63,2.8A1.6,1.6,0,0,0,315.7,143.77Z"/><path class="cls-1" d="M332.57,135.92h1.35v9h-1.35v-.63a5.16,5.16,0,0,1-2.66.81,2.66,2.66,0,0,1-2.44-.95,7.22,7.22,0,0,1-.6-3.53v-4.7h1.34v4.68a6.54,6.54,0,0,0,.35,2.63c.23.45.74.67,1.54.67a4.65,4.65,0,0,0,1.21-.17,5.93,5.93,0,0,0,.94-.34l.32-.16Z"/><path class="cls-1" d="M336.51,148.92v-13h1.33v.65a5.26,5.26,0,0,1,2.7-.83,2.87,2.87,0,0,1,2.49,1.09,6.44,6.44,0,0,1,.77,3.59,5.57,5.57,0,0,1-.91,3.59,3.7,3.7,0,0,1-3,1.09,9.77,9.77,0,0,1-2-.19v4Zm3.84-12a4.15,4.15,0,0,0-1.16.18,5.94,5.94,0,0,0-1,.36l-.34.18v6.07a13.79,13.79,0,0,0,1.95.19,2.33,2.33,0,0,0,2-.82,4.83,4.83,0,0,0,.58-2.7,5,5,0,0,0-.53-2.67A1.74,1.74,0,0,0,340.35,137Z"/><path class="cls-1" d="M349.36,135.74a16.56,16.56,0,0,1,2,.22l.43,0-.05,1.1a20.4,20.4,0,0,0-2.13-.16,2.43,2.43,0,0,0-2.07.73,4.7,4.7,0,0,0-.55,2.7,5.28,5.28,0,0,0,.51,2.74,2.39,2.39,0,0,0,2.13.78l2.13-.16.05,1.11a18.17,18.17,0,0,1-2.5.25,3.4,3.4,0,0,1-2.91-1.08,6.3,6.3,0,0,1-.8-3.64,5.75,5.75,0,0,1,.86-3.6A3.57,3.57,0,0,1,349.36,135.74Z"/><path class="cls-1" d="M353.34,140.41a5.77,5.77,0,0,1,.88-3.57,4.57,4.57,0,0,1,5.95,0,5.77,5.77,0,0,1,.88,3.57,6.11,6.11,0,0,1-.83,3.58,4.68,4.68,0,0,1-6.05,0A6.11,6.11,0,0,1,353.34,140.41Zm1.39,0a5.85,5.85,0,0,0,.47,2.76,2.16,2.16,0,0,0,2,.79c1,0,1.68-.26,2-.78a5.8,5.8,0,0,0,.47-2.76,5.07,5.07,0,0,0-.52-2.73,2.88,2.88,0,0,0-3.88,0A5,5,0,0,0,354.73,140.38Z"/><path class="cls-1" d="M364.59,144.92h-1.35v-9h1.33v.63a5.11,5.11,0,0,1,2.63-.81,2.7,2.7,0,0,1,2.34.92,6.87,6.87,0,0,1,1.54-.64,6.25,6.25,0,0,1,1.67-.28,2.66,2.66,0,0,1,2.42,1,6.87,6.87,0,0,1,.62,3.46v4.75h-1.35v-4.71a6.23,6.23,0,0,0-.36-2.57,1.56,1.56,0,0,0-1.53-.69,4.86,4.86,0,0,0-1.23.17,6.65,6.65,0,0,0-1,.33l-.34.17a8.84,8.84,0,0,1,.23,2.62v4.68h-1.35v-4.64a6.51,6.51,0,0,0-.35-2.64c-.23-.46-.74-.69-1.54-.69a4.41,4.41,0,0,0-1.17.17,5.54,5.54,0,0,0-.93.33l-.31.17Z"/><path class="cls-1" d="M378.29,133.89v-1.57h1.35v1.57Zm0,11v-9h1.35v9Z"/><path class="cls-1" d="M383.58,144.92h-1.35v-9h1.33v.63a5.8,5.8,0,0,1,2.79-.81,2.65,2.65,0,0,1,2.42,1,6.75,6.75,0,0,1,.63,3.45v4.75h-1.34v-4.71a6,6,0,0,0-.37-2.57,1.61,1.61,0,0,0-1.57-.69,4.83,4.83,0,0,0-1.21.17,6.63,6.63,0,0,0-1,.33l-.34.17Z"/><path class="cls-1" d="M395.37,149.15a5.62,5.62,0,0,1-3-.58,2.4,2.4,0,0,1-.86-2.13,2,2,0,0,1,.33-1.2,5,5,0,0,1,1.09-1,1.39,1.39,0,0,1-.5-1.24,3.1,3.1,0,0,1,.45-1.13l.16-.29a2.67,2.67,0,0,1-1.42-2.72q0-3.07,3.37-3.08a6.82,6.82,0,0,1,1.6.18l.27.06,2.66-.07v1.15l-1.71,0a2.44,2.44,0,0,1,.6,1.8,2.89,2.89,0,0,1-.84,2.37,4.2,4.2,0,0,1-2.64.67,4.76,4.76,0,0,1-.88-.07,3.72,3.72,0,0,0-.33,1c0,.37.12.6.35.69a8.46,8.46,0,0,0,2.07.14,4.36,4.36,0,0,1,2.48.54,2.42,2.42,0,0,1,.76,2.1Q399.37,149.15,395.37,149.15Zm-2.54-2.82a1.52,1.52,0,0,0,.53,1.32,3.67,3.67,0,0,0,2,.37,3.93,3.93,0,0,0,2.05-.4,1.44,1.44,0,0,0,.62-1.32q0-.93-.45-1.2a3.85,3.85,0,0,0-1.76-.27l-2-.09a3.28,3.28,0,0,0-.8.76A1.5,1.5,0,0,0,392.83,146.33Zm.13-7.51a2,2,0,0,0,.48,1.51,3,3,0,0,0,3.14,0,2.74,2.74,0,0,0,0-3,2.25,2.25,0,0,0-1.57-.45,2.18,2.18,0,0,0-1.57.46A2,2,0,0,0,393,138.82Z"/><path class="cls-1" d="M409.77,137.09h-2.86v4.31a5.81,5.81,0,0,0,.22,2c.15.32.51.49,1.07.49l1.61-.11.09,1.11a11.47,11.47,0,0,1-1.84.2,2.36,2.36,0,0,1-1.94-.68,4.48,4.48,0,0,1-.54-2.61v-4.74H404.3v-1.17h1.28v-2.75h1.33v2.75h2.86Z"/><path class="cls-1" d="M417.55,143.81l.52-.06,0,1.07a26.06,26.06,0,0,1-3.52.28,3.16,3.16,0,0,1-2.75-1.12,6,6,0,0,1-.81-3.5c0-3.16,1.26-4.74,3.76-4.74a3.44,3.44,0,0,1,2.72,1,4.74,4.74,0,0,1,.9,3.2l-.07,1H412.4a3.7,3.7,0,0,0,.54,2.22,2.21,2.21,0,0,0,1.88.72C415.71,143.92,416.62,143.88,417.55,143.81Zm-.49-3.91a4,4,0,0,0-.53-2.34,2.06,2.06,0,0,0-1.73-.68,2.21,2.21,0,0,0-1.8.72,3.63,3.63,0,0,0-.62,2.3Z"/><path class="cls-1" d="M423.34,137c-1.3,0-2,.46-2,1.37a.94.94,0,0,0,.45.89,7.92,7.92,0,0,0,2.05.54,5.6,5.6,0,0,1,2.27.78,2.27,2.27,0,0,1,.67,1.89,2.37,2.37,0,0,1-.89,2,4.44,4.44,0,0,1-2.6.64,15.92,15.92,0,0,1-2.63-.25l-.54-.09.07-1.17a22.14,22.14,0,0,0,3.1.31,3,3,0,0,0,1.59-.34,1.2,1.2,0,0,0,.55-1.11,1.13,1.13,0,0,0-.47-1.06,6.58,6.58,0,0,0-2.05-.53,5.47,5.47,0,0,1-2.25-.74,2.1,2.1,0,0,1-.67-1.8,2.19,2.19,0,0,1,.93-1.95,4,4,0,0,1,2.31-.63A19,19,0,0,1,426,136l.5.09,0,1.15A23.77,23.77,0,0,0,423.34,137Z"/><path class="cls-1" d="M433.55,137.09h-2.86v4.31a5.81,5.81,0,0,0,.22,2c.15.32.51.49,1.07.49l1.6-.11.09,1.11a11.26,11.26,0,0,1-1.83.2,2.34,2.34,0,0,1-1.94-.68,4.48,4.48,0,0,1-.54-2.61v-4.74h-1.28v-1.17h1.28v-2.75h1.33v2.75h2.86Z"/><path class="cls-1" d="M436.55,144.92H435.2v-9h1.34v.63a5.74,5.74,0,0,1,2.79-.81,2.66,2.66,0,0,1,2.42,1,6.88,6.88,0,0,1,.62,3.45v4.75H441v-4.71a6.19,6.19,0,0,0-.37-2.57,1.63,1.63,0,0,0-1.58-.69,4.83,4.83,0,0,0-1.21.17,6.07,6.07,0,0,0-1,.33l-.35.17Z"/><path class="cls-1" d="M451,143.81l.52-.06,0,1.07a26.05,26.05,0,0,1-3.51.28,3.15,3.15,0,0,1-2.75-1.12,6,6,0,0,1-.82-3.5q0-4.74,3.77-4.74a3.42,3.42,0,0,1,2.71,1,4.74,4.74,0,0,1,.9,3.2l-.07,1h-5.94a3.7,3.7,0,0,0,.54,2.22,2.21,2.21,0,0,0,1.88.72C449.16,143.92,450.07,143.88,451,143.81Zm-.49-3.91a3.88,3.88,0,0,0-.53-2.34,2.06,2.06,0,0,0-1.72-.68,2.21,2.21,0,0,0-1.8.72,3.57,3.57,0,0,0-.62,2.3Z"/><path class="cls-1" d="M458.57,137.09h-2.86v4.31a5.81,5.81,0,0,0,.22,2c.15.32.51.49,1.07.49l1.61-.11.09,1.11a11.47,11.47,0,0,1-1.84.2,2.39,2.39,0,0,1-1.95-.68,4.48,4.48,0,0,1-.54-2.61v-4.74H453.1v-1.17h1.27v-2.75h1.34v2.75h2.86Z"/><path class="cls-1" d="M463.05,137c-1.31,0-2,.46-2,1.37a.94.94,0,0,0,.45.89,7.92,7.92,0,0,0,2,.54,5.65,5.65,0,0,1,2.27.78,2.27,2.27,0,0,1,.67,1.89,2.35,2.35,0,0,1-.9,2,4.4,4.4,0,0,1-2.6.64,15.9,15.9,0,0,1-2.62-.25l-.54-.09.07-1.17a22,22,0,0,0,3.09.31,3,3,0,0,0,1.6-.34,1.2,1.2,0,0,0,.54-1.11,1.13,1.13,0,0,0-.46-1.06,6.67,6.67,0,0,0-2-.53,5.47,5.47,0,0,1-2.25-.74,2.1,2.1,0,0,1-.67-1.8,2.19,2.19,0,0,1,.93-1.95,4,4,0,0,1,2.31-.63,18.74,18.74,0,0,1,2.75.26l.51.09,0,1.15A23.77,23.77,0,0,0,463.05,137Z"/><path class="cls-2" d="M60.62,70.7V67.39h24V70.7H74.5v29.91H70.85V70.7Z"/><path class="cls-2" d="M100.66,97.63l1.39-.14.09,2.83a69.07,69.07,0,0,1-9.36.77q-5.18,0-7.34-3t-2.16-9.34q0-12.61,10-12.62,4.84,0,7.25,2.71t2.4,8.52l-.19,2.74H86.93q0,4,1.44,5.9t5,1.92C95.77,97.92,98.19,97.82,100.66,97.63Zm-1.3-10.41q0-4.43-1.42-6.24c-.94-1.22-2.48-1.83-4.6-1.83a5.9,5.9,0,0,0-4.8,1.92Q86.92,83,86.88,87.22Z"/><path class="cls-2" d="M116.11,79.34q-5.23,0-5.23,3.65a2.53,2.53,0,0,0,1.2,2.38,20.63,20.63,0,0,0,5.47,1.44,14.46,14.46,0,0,1,6,2.09q1.77,1.34,1.77,5A6.26,6.26,0,0,1,123,99.36q-2.39,1.73-6.94,1.73a44.41,44.41,0,0,1-7-.67l-1.43-.24.19-3.12a61.52,61.52,0,0,0,8.25.81,8.2,8.2,0,0,0,4.25-.89,3.18,3.18,0,0,0,1.46-3,3,3,0,0,0-1.24-2.83,18.47,18.47,0,0,0-5.48-1.42,14.47,14.47,0,0,1-6-2q-1.77-1.29-1.77-4.8a5.83,5.83,0,0,1,2.47-5.18,10.73,10.73,0,0,1,6.17-1.68,50.08,50.08,0,0,1,7.34.67l1.35.24-.1,3.07A62.81,62.81,0,0,0,116.11,79.34Z"/><path class="cls-2" d="M143.33,79.73H135.7V91.2c0,2.75.19,4.56.59,5.42s1.36,1.3,2.86,1.3l4.27-.29.24,3a33.05,33.05,0,0,1-4.89.53q-3.75,0-5.19-1.83t-1.44-7V79.73h-3.4V76.61h3.4V69.26h3.56v7.35h7.63Z"/><path class="cls-2" d="M151.34,100.61h-3.6v-24h3.55v1.68a15.4,15.4,0,0,1,7.45-2.16c3.19,0,5.35.86,6.45,2.59s1.66,4.8,1.66,9.22v12.67h-3.56V88c0-3.33-.32-5.61-1-6.84s-2.06-1.85-4.2-1.85a12.78,12.78,0,0,0-3.24.46,15.59,15.59,0,0,0-2.62.89l-.91.43Z"/><path class="cls-2" d="M189.84,97.63l1.39-.14.1,2.83a69.32,69.32,0,0,1-9.36.77q-5.19,0-7.35-3t-2.16-9.34q0-12.61,10-12.62c3.24,0,5.65.9,7.25,2.71s2.4,4.65,2.4,8.52L192,90.1H176.11q0,4,1.44,5.9t5,1.92Q186.14,97.92,189.84,97.63Zm-1.3-10.41q0-4.43-1.41-6.24c-.95-1.22-2.48-1.83-4.61-1.83a5.9,5.9,0,0,0-4.8,1.92c-1.07,1.28-1.63,3.33-1.66,6.15Z"/><path class="cls-2" d="M210.05,79.73h-7.64V91.2q0,4.13.6,5.42c.4.87,1.36,1.3,2.86,1.3l4.27-.29.24,3a33.05,33.05,0,0,1-4.89.53q-3.75,0-5.19-1.83t-1.44-7V79.73h-3.41V76.61h3.41V69.26h3.55v7.35h7.64Z"/><path class="cls-2" d="M222,79.34q-5.24,0-5.23,3.65a2.53,2.53,0,0,0,1.2,2.38,20.63,20.63,0,0,0,5.47,1.44,14.46,14.46,0,0,1,6.05,2.09q1.77,1.34,1.77,5a6.26,6.26,0,0,1-2.37,5.42q-2.38,1.73-6.94,1.73a44.41,44.41,0,0,1-7-.67l-1.44-.24.19-3.12a61.63,61.63,0,0,0,8.26.81A8.2,8.2,0,0,0,226.2,97a3.2,3.2,0,0,0,1.46-3,3,3,0,0,0-1.25-2.83,18.28,18.28,0,0,0-5.47-1.42,14.47,14.47,0,0,1-6-2q-1.77-1.29-1.77-4.8a5.83,5.83,0,0,1,2.47-5.18,10.73,10.73,0,0,1,6.17-1.68,50.08,50.08,0,0,1,7.34.67l1.34.24-.09,3.07A62.81,62.81,0,0,0,222,79.34Z"/></g><g id="Layer_5" data-name="Layer 5"><path d="M685.35,131.08c-.9.24-2.63,1-3.53,1.23v1.11a22,22,0,0,1,2.23,3.23c2.72,4.49,6.37,7.76,9.09,12.25.78,1.28,2.79,3.81,3.17,5.26a15.51,15.51,0,0,1,.35,3.66l.88,51.61a7.71,7.71,0,0,1-.34,3c-.81,2.05-5.3,3-7.41,3.64a85.75,85.75,0,0,1-41.64,2c-2.7-.55-6.47-1.21-8.17-3.38-2.06-2.62-2.33-6.36-2.64-9.67-.84-8.81-.27-12.9-.76-21.22-.24-3.94-.63-4.64-.6-9.37,0-2.83.06-4.95.11-7.78s.1-6.45.17-9.42c.1-4.25,3.87-7.92,6.54-11.23,2.31-2.86,4.64-5.71,6.93-8.59a47.29,47.29,0,0,1,3.37-3.92c-.06-.82.23-.81.16-1.63-1.45-.12-1.23-.67-2.68-.79a79.34,79.34,0,0,1-.3-14.36c.07-1,0-3.73.76-4.46a32,32,0,0,1,4.79-2.75c6.27-2.21,20.75-1.77,26.83,1.91,2.53,1.53,2.62,5.86,3.1,8.62C685.93,121,686.32,130.83,685.35,131.08Z"/><path class="cls-1" d="M659.44,127.6a1.76,1.76,0,0,0,.14.85,1.57,1.57,0,0,0,1,.64,16.05,16.05,0,0,0,5.62.36,102.67,102.67,0,0,0-.21-12.89c-3.07-.49-5.28-1.84-5.83,1.69A65,65,0,0,0,659.44,127.6Z"/><path class="cls-1" d="M669.17,125.71c-.15,1.4-.36,2.93.41,4.11a32.53,32.53,0,0,0,5.31-.35,11.73,11.73,0,0,0-.19-3.87c-.48-2.94-1.06-5.85-1.75-8.75-2.87-.17-4-.63-3.81,2.34A39.43,39.43,0,0,1,669.17,125.71Z"/><path class="cls-1" d="M678,126.1c0,1.09.14,2.5,1.2,2.77.89.22,1.88-.36,2.68-.38A39.32,39.32,0,0,0,680,117.9c-.33-1.06-.89-1.56-2-1.14-1.27.49-.63.86-.67,2C677.22,121.13,678.06,123.66,678,126.1Z"/><path class="cls-1" d="M656.59,122.19c.22,2.36-.14,4.46.13,6.63l-1.86-.54-.2-4.57a25,25,0,0,1,0-2.6c.1-1.55-.51-5.66.9-5.53.54,0,1.42.32,1.51,1.15C657.23,118.41,656.49,121.08,656.59,122.19Z"/><path class="cls-1" d="M659.46,131.12c-1-.13-1,0-1.22.94-.12.53-.29.95.18,1.22a5.29,5.29,0,0,0,1.81.6,126.06,126.06,0,0,0,14.55.32,14.6,14.6,0,0,0,3-.72c.67-.19.72-2-.35-1.93-1.76.08-3.67.49-5.47.54A85.26,85.26,0,0,1,659.46,131.12Z"/><path class="cls-1" d="M672.73,137a7.88,7.88,0,0,1,4.36.67c1.37.67,4.93,4.75,6.16,7.65,1.87,4.42,2.65,5.36,4.72,9.49.39.79,1.38,1.2,1.63,2s-.17,1.48-.11,2.23c.64,7.49,1.43,14.07,1.38,21.09,0,3.84-.44,7.9-.48,11.74,0,5.79,0,8.2-.39,13.8a5.87,5.87,0,0,1-.79,1.66,2.55,2.55,0,0,1-1.9,1.1,112.26,112.26,0,0,1-39.86,1.69,2.48,2.48,0,0,1-2.7-2.82l-1.5-24.8a52.66,52.66,0,0,1-.13-6.15,58.48,58.48,0,0,0,0-10.91c-.3-2.71-.32-6.9.5-9.51a13.54,13.54,0,0,1,3-4.47,28.73,28.73,0,0,0,3.94-5.32c1-1.73,7-5.64,8.9-6.61a28.7,28.7,0,0,1,8.72-2.21C671.78,137.43,669.15,137.57,672.73,137Z"/><path class="cls-2" d="M652.86,160.12a2.09,2.09,0,0,0-2.91,2.67c1.15,16.53-2.2,22.65.91,38.93a136.72,136.72,0,0,0,37.08-1.32,2.53,2.53,0,0,0,1.64-.72,2.59,2.59,0,0,0,.42-1.45c.75-9.55.22-9.42.56-19,.19-5.49,1.33-10,.66-15.49-.69-5.68-.75-9.25-6.84-7.1C674,160.31,663.82,162.16,652.86,160.12Z"/><path class="cls-1" d="M673.44,114.81a3.78,3.78,0,0,0,1.6-.4,1.33,1.33,0,0,0,.68-1.41,50.06,50.06,0,0,0-9.76-1.17c-1.24,0-8.63-.42-9.12.85C656,114.93,671.56,115,673.44,114.81Z"/><path class="cls-2" d="M675.35,114.81c.42,0,1.17,0,1.52-.25a1.16,1.16,0,0,0,.2-1.56,28.83,28.83,0,0,0-7.34-1.17c-.93,0-6.47-.42-6.84.85C662.24,114.93,673.94,115,675.35,114.81Z"/><path class="cls-2" d="M675.67,139.43a1.62,1.62,0,0,1,1.15.18,1.41,1.41,0,0,1,.4.53,40.39,40.39,0,0,1,2.7,6.76l1.9,5.71a1.18,1.18,0,0,1,0,1,1.23,1.23,0,0,1-.57.4,39.17,39.17,0,0,1-10.07,2.16c-.84-1.86-.51-3.64-.83-5.66-.52-3.24-1.35-6.52-1.5-9.38C668.81,139.77,673.43,139.62,675.67,139.43Z"/><path d="M662.35,171.33c3.78.88,7.78.67,11.64.49,3.4-.16,7-.09,10.14-1.46.36-.15.24-.72-.1-.81-3.5-.86-7.3-.16-10.87.09s-7.32.34-10.81,1.33a.19.19,0,0,0,0,.36Z"/><path d="M663,188.57c6.2,1.8,15.28-.13,21.26-1.66,1.17-.3,1-2.28-.3-2.16-4.07.39-8.11,1.06-12.18,1.54-3,.35-6.52.29-9.09,1.27-.09,0,0,.57.07.6Z"/><path class="cls-2" d="M684.68,195.28a50.81,50.81,0,0,1-.7,11.81l-7.67,1.76a28,28,0,0,1-1.06-11.92C676.17,196.68,684.6,194,684.68,195.28Z"/><path d="M662.65,179.36c3.63,1.24,7.85,1,11.62.67,3.35-.3,7.28-.56,10.11-2.45a.71.71,0,0,0-.35-1.31c-3.45-.18-7.07,1.15-10.52,1.49s-7.17,0-10.7.42a.6.6,0,0,0-.16,1.18Z"/><path class="cls-2" d="M670.18,116.77a.72.72,0,0,1,.41.08.67.67,0,0,1,.26.47,11.9,11.9,0,0,1,.22,1.88l.59,9.68a1.06,1.06,0,0,1-.13.71,1.08,1.08,0,0,1-.95.25l-2.21-.16c0-1.27-.1-2.47-.21-3.74-.12-1.55,0-3.09,0-4.65,0-1.11-.24-3.25-.16-3.86C668.16,116.14,668.94,116.78,670.18,116.77Z"/><path class="cls-2" d="M677.76,116.85s.11,1.05.2,1.5a73.84,73.84,0,0,1,1.42,9.47,1.63,1.63,0,0,1-.14,1c-.33.5-1.74.68-1.74.38,0-.6-.35-.69-.51-1.27a14.76,14.76,0,0,1-.48-2.17c0-.62-.15-1.18-.19-1.8a16.67,16.67,0,0,0-.22-2.23,11.45,11.45,0,0,1-.34-4.86A9.84,9.84,0,0,1,677.76,116.85Z"/><path class="cls-2" d="M661.81,116.3a32,32,0,0,1,.71,7.77l.05,4.77c0,.28,0,.61-.25.75a.8.8,0,0,1-.57,0l-2.26-.35a1,1,0,0,1-.51-.18,1,1,0,0,1-.25-.71,69.41,69.41,0,0,1-.08-8.16c0-.89-.2-3.13.35-3.85S661,116.21,661.81,116.3Z"/><g id="Illustrations"><g id="Group-66"><g id="Group-65"><g id="Group-61"><path id="Path" d="M636.48,127.11a109.18,109.18,0,0,1,5,15.31c3.77,15,8.22,26.09,12,41.11,1.94,7.9,4,15.79,5.71,23.69.87,3.95,1.64,7.8,2.51,11.75a3.68,3.68,0,0,1-.19,2.89,4,4,0,0,1-2.13,1.25c-23.79,7.51-49.42,6.16-74.38,4.72-8.7-.48-18.18-1.35-24.47-7.32-1.25-1.25-2.51-2.79-2.61-4.53a8.12,8.12,0,0,1,.39-3.08c1.64-6.93,3.19-13.77,4.83-20.7,3.2-13.77,6.48-27.44,10.45-41,3.38-11.36,7.35-22.53,11.61-33.51,1.35-3.47,2.8-7.13,2.9-10.88.19-6.55-1.55-13.19.29-19.55.77-2.69,0-3.37-2.23-5.2-1-.77-3.87-1.92-4.45-2.6-1.35-1.44-1.54-8.09.2-9.15a35.61,35.61,0,0,1,8-3.56A91.19,91.19,0,0,1,611.14,65a68.66,68.66,0,0,1,17.12,2.7,20.26,20.26,0,0,1,6.19,3.65c1.64,1.35,1.54,7-.39,8-1.35.67-3.87.77-4.64,2.11a7.57,7.57,0,0,0-.68,3.28c.19,8.18.19,14.15.58,22.34C629.71,114.49,633.58,120.46,636.48,127.11Z"/><path class="cls-1" d="M643,179.83c1.35,4.94,2.7,11,3.77,16a141.94,141.94,0,0,1,2.13,16.84,3.76,3.76,0,0,1-.39,2.52,3.25,3.25,0,0,1-2.23,1.26c-4.35,1.16-8.7,2.81-13.15,2.81-5.22.1-11.7.58-16.92.68-14.31.19-22.14-.29-36.07-3.78a4.82,4.82,0,0,1-2-.87,4.88,4.88,0,0,1-1.16-3.68c-.29-26,14.47-57.88,18-83.63.58-4.36,29.92-8.75,31-6,2.61,7.17,4.84,12.88,6.09,19.76C634.65,155.23,639,165.3,643,179.83Z"/><path class="cls-2" d="M616.94,207.23a5.37,5.37,0,0,0,3.6,2.51,15.24,15.24,0,0,0,4.37.11,85.42,85.42,0,0,0,8.85-.84c.87-4.19-2-5.24-5.25-5C627.34,204.08,616.35,206.18,616.94,207.23Z"/><path class="cls-2" d="M615.17,189.05c-.3-1.74,0-4.65-.49-6.3-.88-2.91-3.52-28.22-3.91-31.23-.19-1.84-3.51-22-.78-23.08a7,7,0,0,1,2.83-.49l7,.2c2,4.07,10.35,48.88,10.45,53.44.1,2.91.88,5.62,1.17,8.53a28.1,28.1,0,0,1,.39,5.92c-.1,1.16-.1,2.23-1.27,2.42-3.51.68-10.05,2.33-12.1,1C615,197.3,615.65,192.55,615.17,189.05Z"/><path class="cls-1" d="M608.25,107a2.4,2.4,0,0,1-1.24-.57,2.91,2.91,0,0,1-.47-1c-1-2.29-.1-4.77-.38-7.34a34.85,34.85,0,0,1,1-13.35c.19-.57-.29-1.23.09-1.52a2,2,0,0,1,1-.29,42.63,42.63,0,0,1,10.47.67,1.07,1.07,0,0,1,.76.29c.57.47.48,1.52.29,2.38-1.24,6.38-1.24,13.63-1.24,20.11,0,3.33-1.71,2.48-3.81,2.1C612,108.18,610.92,107.61,608.25,107Z"/><path class="cls-2" d="M611.54,108.46a12.68,12.68,0,0,0,8.34,1.25,1.65,1.65,0,0,0,1.27-.67,2.42,2.42,0,0,0,.49-1.15,54.91,54.91,0,0,0,1.08-14.41,35.64,35.64,0,0,1-.1-4.62,26.23,26.23,0,0,0,.3-2.78,2.53,2.53,0,0,0-1.18-2.31,2,2,0,0,0-1.08-.19c-2.16-.1-6-1.15-8-.29s-1.47,4.42-1.57,6.82c-.09,3.08-.19,6.15-.09,9.23C611.05,100.39,610.76,108,611.54,108.46Z"/><path class="cls-2" d="M587.92,72.12c8.05-3,17-2.29,25.48-1.35.66.1,1.42.31,1.52,1-.95.52-2.28.21-2.94,1.14-.29.42-.29.94-.57,1.46-.57,1.35-2.18,1.55-3.6,1.55a75.74,75.74,0,0,1-10.89-.62C593.79,74.92,590.19,75,587.92,72.12Z"/><path class="cls-1" d="M585,73.84a2.66,2.66,0,0,0,1.26,2.62A4.68,4.68,0,0,0,588,77a112.73,112.73,0,0,0,39.71.36,6.4,6.4,0,0,0,3.37-1.26c.87-.82,1.16-2.35.19-3.08a3.51,3.51,0,0,0-2.7-.27A118.11,118.11,0,0,1,605.29,74q-5.92-.27-11.86-1.09C591,72.66,585.53,70.4,585,73.84Z"/><path class="cls-2" d="M615.06,76.2a5.2,5.2,0,0,0,.29,1.11c.1.4.69.5,1.08.6a2.34,2.34,0,0,0,1.17-.1c2-.4,3.71-.6,5.75-.91a5.12,5.12,0,0,0,1.18-.3c.19-.1.39-.1.39-.61V74.18a1,1,0,0,0-.2-.71c-.1-.2-.39-.2-.58-.2a19.89,19.89,0,0,0-6.44-.1c-.79.1-2.15.1-2.44.81A2.73,2.73,0,0,0,615.06,76.2Z"/></g></g></g></g><g id="Scroll"><path class="cls-3" d="M647.15,242.1c-.29-2.34-.57-4.34-.84-5.92A82.92,82.92,0,0,1,631.74,243c-9.52,2.56-15.36-5.67-18.24-16.38s.13-21.31,9.66-23.88c7.32-2,53.19-17.54,72.69-22.78,5.93-1.6,14.39,10.46,17.35,21.45.61,2.25-1.43,7.87-5.62,15.25Z"/><path class="cls-4" d="M696.11,215.06q-13.92,7.42-43.73,18.93a96.63,96.63,0,0,0-6.12-18A21.29,21.29,0,0,0,633,204.66l62-18.91c3.86,1.57,7.25,4.35,10.54,12.4C706.68,201,702,211.94,696.11,215.06Z"/><path class="cls-5" d="M650.31,214.83q-10.9-8.39-16.95-10.4l61.93-19q5.3,2.28,10,12.94Q657.57,220.43,650.31,214.83Z"/><g id="Group-3"><path class="cls-5" d="M633.86,211c1.59.84,7.28,2.63,9.28,10.07a66.13,66.13,0,0,1,1.65,12.61c-8.4,4.05-14.74,7.35-15.81,6.33a10.15,10.15,0,0,0,5.16-6.85,23.68,23.68,0,0,0-.58-11.93,10.61,10.61,0,0,0-7-7.31Z"/><path class="cls-4" d="M644.83,233.74c-8.42,4-14.78,7.32-15.85,6.31a10.13,10.13,0,0,0,5.19-6.78,15.59,15.59,0,0,1,3.5-7.63,7.4,7.4,0,0,1,5.94-2.81A71.25,71.25,0,0,1,644.83,233.74Z"/><path class="cls-4" d="M625.06,217.58a10,10,0,0,1,4.23,6.23c.19.68.34,1.34.47,2l-6.4,2.68a14.3,14.3,0,0,1-.87-3.25,10.3,10.3,0,0,1,.61-5.31A5.82,5.82,0,0,1,625.06,217.58Z"/></g><path id="Combined-Shape-Copy" class="cls-3" d="M700,182.73l3.2,7.88a16.53,16.53,0,0,1-3.72,1.69c-1.71.4-3.35,1.44-2.66.57.35-.44,2-2.15,3.1-3.1.3-.26.58-.51.86-.74a68.76,68.76,0,0,1-6.81,2.32c-6.73,1.94-6.47,1.5-1-1.5,1.09-.6,2.51-1.29,4.27-2.09a21.8,21.8,0,0,1-2.3,0,28.06,28.06,0,0,1-4.82-.64c-1.08-.4,1.44-.89,4-2.34A25.48,25.48,0,0,1,700,182.73Z"/></g><g id="Scroll-2" data-name="Scroll"><path class="cls-3" d="M697.52,255.16c-.29-2.34-.57-4.34-.83-5.92a83.25,83.25,0,0,1-14.57,6.83c-9.53,2.56-15.36-5.67-18.24-16.38s.13-21.31,9.66-23.88c7.31-2,53.18-17.54,72.68-22.78,5.94-1.6,14.4,10.46,17.35,21.45.61,2.25-1.42,7.87-5.61,15.25Z"/><path class="cls-4" d="M746.49,228.12q-13.92,7.42-43.73,18.93a97.37,97.37,0,0,0-6.12-18,21.3,21.3,0,0,0-13.29-11.37l62-18.91c3.85,1.57,7.24,4.35,10.54,12.4C757.05,214,752.36,225,746.49,228.12Z"/><path class="cls-5" d="M700.68,227.89q-10.89-8.38-16.95-10.39l61.93-19q5.3,2.28,10,12.94Q707.94,233.49,700.68,227.89Z"/><g id="Group-3-2" data-name="Group-3"><path class="cls-5" d="M684.24,224.1c1.59.84,7.27,2.63,9.28,10.07a65.31,65.31,0,0,1,1.64,12.61c-8.39,4.05-14.73,7.35-15.81,6.33a10.15,10.15,0,0,0,5.16-6.85,23.45,23.45,0,0,0-.58-11.93,10.61,10.61,0,0,0-7-7.31Z"/><path class="cls-4" d="M695.21,246.8c-8.42,4-14.78,7.32-15.86,6.31a10.17,10.17,0,0,0,5.2-6.78,15.53,15.53,0,0,1,3.5-7.63,7.37,7.37,0,0,1,5.93-2.81A71.32,71.32,0,0,1,695.21,246.8Z"/><path class="cls-4" d="M675.44,230.64a10.13,10.13,0,0,1,4.23,6.23c.18.68.33,1.34.46,2l-6.4,2.68a14.87,14.87,0,0,1-.87-3.25,10.41,10.41,0,0,1,.61-5.31A5.81,5.81,0,0,1,675.44,230.64Z"/></g><path id="Combined-Shape-Copy-2" data-name="Combined-Shape-Copy" class="cls-3" d="M750.38,195.79l3.19,7.88a16.31,16.31,0,0,1-3.71,1.69c-1.71.4-3.35,1.44-2.66.57a43.77,43.77,0,0,1,3.09-3.1l.86-.74a67.87,67.87,0,0,1-6.81,2.32c-6.73,1.94-6.46,1.5-1-1.5,1.09-.6,2.52-1.29,4.28-2.09a19.55,19.55,0,0,1-2.31,0,28.36,28.36,0,0,1-4.82-.64c-1.08-.4,1.45-.89,4-2.34A25.41,25.41,0,0,1,750.38,195.79Z"/></g><g id="Scroll-3" data-name="Scroll"><path class="cls-3" d="M669.61,223.44c-.3-2.34-.57-4.34-.84-5.91a83.81,83.81,0,0,1-14.57,6.82c-9.53,2.56-15.36-5.66-18.24-16.37s.13-21.32,9.66-23.89c7.32-2,53.19-17.53,72.68-22.78,5.94-1.6,14.4,10.46,17.36,21.45.6,2.25-1.43,7.88-5.62,15.25Z"/><path class="cls-4" d="M718.57,196.41q-13.92,7.41-43.73,18.92a97.25,97.25,0,0,0-6.12-18A21.29,21.29,0,0,0,655.44,186l62-18.91c3.85,1.57,7.24,4.34,10.54,12.4C729.14,182.32,724.44,193.28,718.57,196.41Z"/><path class="cls-5" d="M672.76,196.17q-10.89-8.38-16.94-10.39l61.93-19q5.29,2.28,10,12.94Q680,201.77,672.76,196.17Z"/><g id="Group-3-3" data-name="Group-3"><path class="cls-5" d="M656.32,192.38c1.59.84,7.28,2.63,9.28,10.07a65.31,65.31,0,0,1,1.64,12.61c-8.39,4.05-14.73,7.35-15.81,6.33a10.2,10.2,0,0,0,5.17-6.84,23.58,23.58,0,0,0-.59-11.93,10.61,10.61,0,0,0-7-7.32Z"/><path class="cls-4" d="M667.29,215.08c-8.42,4-14.78,7.32-15.85,6.32a10.17,10.17,0,0,0,5.19-6.79,15.63,15.63,0,0,1,3.5-7.63,7.4,7.4,0,0,1,5.93-2.81A70.22,70.22,0,0,1,667.29,215.08Z"/><path class="cls-4" d="M647.52,198.92a10.15,10.15,0,0,1,4.23,6.24c.18.67.34,1.34.46,2l-6.39,2.68a14.71,14.71,0,0,1-.88-3.25,10.43,10.43,0,0,1,.62-5.31A5.82,5.82,0,0,1,647.52,198.92Z"/></g><path id="Combined-Shape-Copy-3" data-name="Combined-Shape-Copy" class="cls-3" d="M722.46,164.07l3.2,7.88a16.53,16.53,0,0,1-3.72,1.69c-1.71.4-3.35,1.44-2.66.57a42.51,42.51,0,0,1,3.1-3.09c.3-.27.58-.52.86-.75a69,69,0,0,1-6.82,2.32c-6.72,1.94-6.46,1.5-1-1.49q1.64-.9,4.28-2.09a21.92,21.92,0,0,1-2.3,0,28.06,28.06,0,0,1-4.82-.64c-1.08-.4,1.44-.89,4-2.33A25.52,25.52,0,0,1,722.46,164.07Z"/></g></g></svg>