<?xml version="1.0" encoding="UTF-8"?>
<svg width="882px" height="300px" viewBox="0 0 882 300" version="1.1" xmlns="http://www.w3.org/2000/svg" xmlns:xlink="http://www.w3.org/1999/xlink">
    <!-- Generator: Sketch 61 (89581) - https://sketch.com -->
    <title>Group</title>
    <desc>Created with Sketch.</desc>
    <g id="Github-Covers" stroke="none" stroke-width="1" fill="none" fill-rule="evenodd">
        <g id="Meetings" transform="translate(0.000000, -0.000000)">
            <g id="Group">
                <rect id="Rectangle" fill="#FFFFFF" fill-rule="nonzero" x="0" y="0" width="882" height="300"></rect>
                <rect id="Rectangle" fill="#E9ECF0" fill-rule="nonzero" x="0" y="0" width="882" height="210"></rect>
                <path d="M64.4062,101 L64.4062,68.3516 L71.625,68.3516 L79.9688,93.5703 L80.1562,93.5703 L88.4531,68.3516 L95.5781,68.3516 L95.5781,101 L91.2891,101 L91.2891,73.2031 L91.1016,73.2031 L81.8438,101 L78.1875,101 L68.8828,73.2031 L68.6953,73.2031 L68.6953,101 L64.4062,101 Z M102.68,88.7656 C102.68,86.9062 102.906,85.1875 103.359,83.6094 C103.828,82.0156 104.516,80.6641 105.422,79.5547 C106.344,78.4297 107.453,77.5469 108.75,76.9062 C110.047,76.2656 111.539,75.9453 113.227,75.9453 C114.992,75.9453 116.531,76.25 117.844,76.8594 C119.156,77.4688 120.242,78.3047 121.102,79.3672 C121.961,80.4141 122.609,81.6484 123.047,83.0703 C123.484,84.4922 123.703,86.0234 123.703,87.6641 L123.703,89.9609 L107.227,89.9609 L107.227,92.5625 C107.227,93.4531 107.391,94.2422 107.719,94.9297 C108.062,95.6172 108.523,96.2031 109.102,96.6875 C109.68,97.1562 110.328,97.5156 111.047,97.7656 C111.766,98 112.508,98.1172 113.273,98.1172 C114.805,98.1172 116.133,97.7266 117.258,96.9453 C118.383,96.1641 119.023,94.9219 119.18,93.2188 L123.516,93.2188 C123.422,94.5312 123.078,95.7031 122.484,96.7344 C121.891,97.75 121.117,98.6172 120.164,99.3359 C119.227,100.055 118.164,100.609 116.977,101 C115.789,101.391 114.539,101.586 113.227,101.586 C111.461,101.586 109.914,101.266 108.586,100.625 C107.273,99.9844 106.172,99.1016 105.281,97.9766 C104.406,96.8516 103.75,95.5078 103.312,93.9453 C102.891,92.3828 102.68,90.6562 102.68,88.7656 Z M107.227,86.5156 L119.227,86.5156 L119.227,85.1562 C119.227,84.2656 119.062,83.4609 118.734,82.7422 C118.422,82.0234 117.984,81.4141 117.422,80.9141 C116.875,80.4141 116.234,80.0391 115.5,79.7891 C114.781,79.5234 114.023,79.3906 113.227,79.3906 C112.43,79.3906 111.672,79.5234 110.953,79.7891 C110.234,80.0391 109.594,80.4141 109.031,80.9141 C108.469,81.4141 108.023,82.0234 107.695,82.7422 C107.383,83.4609 107.227,84.2656 107.227,85.1562 L107.227,86.5156 Z M128.977,88.7656 C128.977,86.9062 129.203,85.1875 129.656,83.6094 C130.125,82.0156 130.812,80.6641 131.719,79.5547 C132.641,78.4297 133.75,77.5469 135.047,76.9062 C136.344,76.2656 137.836,75.9453 139.523,75.9453 C141.289,75.9453 142.828,76.25 144.141,76.8594 C145.453,77.4688 146.539,78.3047 147.398,79.3672 C148.258,80.4141 148.906,81.6484 149.344,83.0703 C149.781,84.4922 150,86.0234 150,87.6641 L150,89.9609 L133.523,89.9609 L133.523,92.5625 C133.523,93.4531 133.688,94.2422 134.016,94.9297 C134.359,95.6172 134.82,96.2031 135.398,96.6875 C135.977,97.1562 136.625,97.5156 137.344,97.7656 C138.062,98 138.805,98.1172 139.57,98.1172 C141.102,98.1172 142.43,97.7266 143.555,96.9453 C144.68,96.1641 145.32,94.9219 145.477,93.2188 L149.812,93.2188 C149.719,94.5312 149.375,95.7031 148.781,96.7344 C148.188,97.75 147.414,98.6172 146.461,99.3359 C145.523,100.055 144.461,100.609 143.273,101 C142.086,101.391 140.836,101.586 139.523,101.586 C137.758,101.586 136.211,101.266 134.883,100.625 C133.57,99.9844 132.469,99.1016 131.578,97.9766 C130.703,96.8516 130.047,95.5078 129.609,93.9453 C129.188,92.3828 128.977,90.6562 128.977,88.7656 Z M133.523,86.5156 L145.523,86.5156 L145.523,85.1562 C145.523,84.2656 145.359,83.4609 145.031,82.7422 C144.719,82.0234 144.281,81.4141 143.719,80.9141 C143.172,80.4141 142.531,80.0391 141.797,79.7891 C141.078,79.5234 140.32,79.3906 139.523,79.3906 C138.727,79.3906 137.969,79.5234 137.25,79.7891 C136.531,80.0391 135.891,80.4141 135.328,80.9141 C134.766,81.4141 134.32,82.0234 133.992,82.7422 C133.68,83.4609 133.523,84.2656 133.523,85.1562 L133.523,86.5156 Z M154.219,80.2109 L154.219,76.5312 L158.344,76.5312 L158.344,68.3516 L162.609,68.3516 L162.609,76.5312 L168.234,76.5312 L168.234,80.2109 L162.609,80.2109 L162.609,97.2969 L168.234,97.2969 L168.234,101 L158.344,101 L158.344,80.2109 L154.219,80.2109 Z M174.141,72.875 L174.141,68.3516 L178.641,68.3516 L178.641,72.875 L174.141,72.875 Z M174.234,101 L174.234,76.5312 L178.547,76.5312 L178.547,101 L174.234,101 Z M186.516,101 L186.516,76.5312 L190.828,76.5312 L190.828,80.5625 C191.5,79.125 192.422,78 193.594,77.1875 C194.766,76.3594 196.281,75.9453 198.141,75.9453 C199.328,75.9453 200.406,76.1094 201.375,76.4375 C202.344,76.75 203.18,77.2578 203.883,77.9609 C204.586,78.6641 205.133,79.5703 205.523,80.6797 C205.914,81.7734 206.109,83.1094 206.109,84.6875 L206.109,101 L201.773,101 L201.773,85.1562 C201.773,83.3594 201.43,81.9531 200.742,80.9375 C200.055,79.9062 198.781,79.3906 196.922,79.3906 C196.031,79.3906 195.219,79.5703 194.484,79.9297 C193.75,80.2734 193.109,80.7734 192.562,81.4297 C192.016,82.0859 191.586,82.8672 191.273,83.7734 C190.977,84.6641 190.828,85.6406 190.828,86.7031 L190.828,101 L186.516,101 Z M212.648,88.7656 C212.648,87 212.844,85.3359 213.234,83.7734 C213.641,82.1953 214.242,80.8359 215.039,79.6953 C215.836,78.5391 216.844,77.625 218.062,76.9531 C219.281,76.2812 220.703,75.9453 222.328,75.9453 C224.156,75.9453 225.727,76.3359 227.039,77.1172 C228.352,77.8984 229.391,79.0312 230.156,80.5156 L230.156,76.5312 L234.492,76.5312 L234.492,100.531 C234.492,102.234 234.188,103.695 233.578,104.914 C232.969,106.148 232.164,107.172 231.164,107.984 C230.18,108.797 229.055,109.391 227.789,109.766 C226.523,110.156 225.234,110.352 223.922,110.352 C222.641,110.352 221.414,110.227 220.242,109.977 C219.086,109.727 218.031,109.305 217.078,108.711 C216.141,108.117 215.359,107.328 214.734,106.344 C214.109,105.375 213.703,104.156 213.516,102.688 L217.828,102.688 C217.984,104.094 218.578,105.148 219.609,105.852 C220.656,106.555 222.031,106.906 223.734,106.906 C224.562,106.906 225.367,106.781 226.148,106.531 C226.93,106.297 227.617,105.914 228.211,105.383 C228.805,104.867 229.273,104.188 229.617,103.344 C229.977,102.516 230.156,101.508 230.156,100.32 L230.156,97.0156 C229.391,98.4844 228.367,99.6172 227.086,100.414 C225.805,101.195 224.258,101.586 222.445,101.586 C220.789,101.586 219.344,101.25 218.109,100.578 C216.891,99.9062 215.875,98.9922 215.062,97.8359 C214.25,96.6797 213.641,95.3281 213.234,93.7812 C212.844,92.2188 212.648,90.5469 212.648,88.7656 Z M217.195,92.5625 C217.195,93.3906 217.352,94.1484 217.664,94.8359 C217.992,95.5234 218.438,96.1094 219,96.5938 C219.562,97.0625 220.219,97.4375 220.969,97.7188 C221.719,97.9844 222.547,98.1172 223.453,98.1172 C225.625,98.1172 227.281,97.4297 228.422,96.0547 C229.578,94.6797 230.156,92.9375 230.156,90.8281 L230.156,86.7031 C230.156,84.5938 229.578,82.8516 228.422,81.4766 C227.281,80.0859 225.625,79.3906 223.453,79.3906 C222.562,79.3906 221.734,79.5312 220.969,79.8125 C220.219,80.0781 219.562,80.4531 219,80.9375 C218.438,81.4219 217.992,82.0078 217.664,82.6953 C217.352,83.3828 217.195,84.1406 217.195,84.9688 L217.195,92.5625 Z M240.844,93.2656 L245.18,93.2656 C245.242,94.8906 245.82,96.1094 246.914,96.9219 C248.023,97.7188 249.328,98.1172 250.828,98.1172 C252.266,98.1172 253.516,97.7969 254.578,97.1562 C255.641,96.5156 256.172,95.5859 256.172,94.3672 C256.172,93.3828 255.852,92.5938 255.211,92 C254.57,91.4062 253.43,90.9531 251.789,90.6406 L247.758,89.8203 C245.742,89.3984 244.188,88.625 243.094,87.5 C242.016,86.3594 241.477,84.8281 241.477,82.9062 C241.477,81.9531 241.688,81.0547 242.109,80.2109 C242.547,79.3516 243.164,78.6094 243.961,77.9844 C244.773,77.3594 245.719,76.8672 246.797,76.5078 C247.891,76.1328 249.109,75.9453 250.453,75.9453 C251.609,75.9453 252.734,76.1016 253.828,76.4141 C254.938,76.7109 255.922,77.1797 256.781,77.8203 C257.656,78.4609 258.352,79.2812 258.867,80.2812 C259.398,81.2656 259.68,82.4453 259.711,83.8203 L255.398,83.8203 C255.336,82.1953 254.828,81.0547 253.875,80.3984 C252.938,79.7266 251.812,79.3906 250.5,79.3906 C249.156,79.3906 248.016,79.7109 247.078,80.3516 C246.156,80.9922 245.695,81.8281 245.695,82.8594 C245.695,83.8125 245.969,84.5547 246.516,85.0859 C247.062,85.6172 247.945,86.0078 249.164,86.2578 L253.289,87.125 C255.727,87.6406 257.531,88.4766 258.703,89.6328 C259.891,90.7734 260.484,92.3359 260.484,94.3203 C260.484,95.3516 260.25,96.3125 259.781,97.2031 C259.328,98.0781 258.664,98.8359 257.789,99.4766 C256.93,100.102 255.906,100.609 254.719,101 C253.531,101.391 252.219,101.586 250.781,101.586 C249.406,101.586 248.117,101.406 246.914,101.047 C245.727,100.703 244.68,100.188 243.773,99.5 C242.883,98.7969 242.18,97.9297 241.664,96.8984 C241.148,95.8516 240.875,94.6406 240.844,93.2656 Z" id="Shape" fill="#000000" fill-rule="nonzero"></path>
                <path d="M61.4091,145 L68.2273,145 L68.2273,143.75 L62.8182,143.75 L62.8182,133.364 L61.4091,133.364 L61.4091,145 Z M73.8864,145.182 C75.6591,145.182 76.9545,144.295 77.3636,142.977 L76.0682,142.614 C75.7273,143.523 74.9375,143.977 73.8864,143.977 C72.3125,143.977 71.2273,142.96 71.1648,141.091 L77.5,141.091 L77.5,140.523 C77.5,137.273 75.5682,136.159 73.75,136.159 C71.3864,136.159 69.8182,138.023 69.8182,140.705 C69.8182,143.386 71.3636,145.182 73.8864,145.182 Z M71.1648,139.932 C71.2557,138.574 72.2159,137.364 73.75,137.364 C75.2045,137.364 76.1364,138.455 76.1364,139.932 L71.1648,139.932 Z M82.108,145.205 C83.6307,145.205 84.4261,144.386 84.6989,143.818 L84.767,143.818 L84.767,145 L86.108,145 L86.108,139.25 C86.108,136.477 83.9943,136.159 82.8807,136.159 C81.5625,136.159 80.0625,136.614 79.3807,138.205 L80.6534,138.659 C80.9489,138.023 81.6477,137.341 82.9261,137.341 C84.1591,137.341 84.767,137.994 84.767,139.114 L84.767,139.159 C84.767,139.807 84.108,139.75 82.517,139.955 C80.8977,140.165 79.1307,140.523 79.1307,142.523 C79.1307,144.227 80.4489,145.205 82.108,145.205 Z M82.3125,144 C81.2443,144 80.4716,143.523 80.4716,142.591 C80.4716,141.568 81.4034,141.25 82.4489,141.114 C83.017,141.045 84.5398,140.886 84.767,140.614 L84.767,141.841 C84.767,142.932 83.9034,144 82.3125,144 Z M88.5554,145 L89.8963,145 L89.8963,139.477 C89.8963,138.295 90.8281,137.432 92.1009,137.432 C92.4588,137.432 92.8281,137.5 92.919,137.523 L92.919,136.159 C92.7656,136.148 92.4134,136.136 92.2145,136.136 C91.169,136.136 90.2599,136.727 89.9418,137.591 L89.8509,137.591 L89.8509,136.273 L88.5554,136.273 L88.5554,145 Z M95.8494,139.75 C95.8494,138.227 96.7926,137.364 98.0767,137.364 C99.321,137.364 100.077,138.176 100.077,139.545 L100.077,145 L101.418,145 L101.418,139.455 C101.418,137.227 100.23,136.159 98.4631,136.159 C97.1449,136.159 96.3267,136.75 95.9176,137.636 L95.804,137.636 L95.804,136.273 L94.5085,136.273 L94.5085,145 L95.8494,145 L95.8494,139.75 Z M109.709,139.75 C109.709,138.227 110.68,137.364 112.004,137.364 C113.266,137.364 114.027,138.159 114.027,139.545 L114.027,145 L115.368,145 L115.368,139.455 C115.368,137.21 114.175,136.159 112.391,136.159 C111.016,136.159 110.232,136.733 109.822,137.636 L109.709,137.636 L109.709,133.364 L108.368,133.364 L108.368,145 L109.709,145 L109.709,139.75 Z M121.366,145.182 C123.73,145.182 125.321,143.386 125.321,140.682 C125.321,137.955 123.73,136.159 121.366,136.159 C119.003,136.159 117.412,137.955 117.412,140.682 C117.412,143.386 119.003,145.182 121.366,145.182 Z M121.366,143.977 C119.571,143.977 118.753,142.432 118.753,140.682 C118.753,138.932 119.571,137.364 121.366,137.364 C123.162,137.364 123.98,138.932 123.98,140.682 C123.98,142.432 123.162,143.977 121.366,143.977 Z M129.048,145 L130.366,145 L132.276,138.295 L132.412,138.295 L134.321,145 L135.639,145 L138.298,136.273 L136.889,136.273 L135.003,142.932 L134.912,142.932 L133.071,136.273 L131.639,136.273 L129.776,142.955 L129.685,142.955 L127.798,136.273 L126.389,136.273 L129.048,145 Z M146.548,145 L147.866,145 L149.776,138.295 L149.912,138.295 L151.821,145 L153.139,145 L155.798,136.273 L154.389,136.273 L152.503,142.932 L152.412,142.932 L150.571,136.273 L149.139,136.273 L147.276,142.955 L147.185,142.955 L145.298,136.273 L143.889,136.273 L146.548,145 Z M160.933,145.182 C162.706,145.182 164.001,144.295 164.411,142.977 L163.115,142.614 C162.774,143.523 161.984,143.977 160.933,143.977 C159.359,143.977 158.274,142.96 158.212,141.091 L164.547,141.091 L164.547,140.523 C164.547,137.273 162.615,136.159 160.797,136.159 C158.433,136.159 156.865,138.023 156.865,140.705 C156.865,143.386 158.411,145.182 160.933,145.182 Z M158.212,139.932 C158.303,138.574 159.263,137.364 160.797,137.364 C162.251,137.364 163.183,138.455 163.183,139.932 L158.212,139.932 Z M174.632,145.182 C176.564,145.182 177.837,144 178.064,142.455 L176.723,142.455 C176.473,143.409 175.678,143.977 174.632,143.977 C173.041,143.977 172.018,142.659 172.018,140.636 C172.018,138.659 173.064,137.364 174.632,137.364 C175.814,137.364 176.518,138.091 176.723,138.886 L178.064,138.886 C177.837,137.25 176.45,136.159 174.609,136.159 C172.246,136.159 170.678,138.023 170.678,140.682 C170.678,143.295 172.178,145.182 174.632,145.182 Z M183.57,145.182 C185.933,145.182 187.524,143.386 187.524,140.682 C187.524,137.955 185.933,136.159 183.57,136.159 C181.206,136.159 179.615,137.955 179.615,140.682 C179.615,143.386 181.206,145.182 183.57,145.182 Z M183.57,143.977 C181.774,143.977 180.956,142.432 180.956,140.682 C180.956,138.932 181.774,137.364 183.57,137.364 C185.365,137.364 186.183,138.932 186.183,140.682 C186.183,142.432 185.365,143.977 183.57,143.977 Z M190.912,139.75 C190.912,138.227 191.855,137.364 193.139,137.364 C194.384,137.364 195.139,138.176 195.139,139.545 L195.139,145 L196.48,145 L196.48,139.455 C196.48,137.227 195.293,136.159 193.526,136.159 C192.207,136.159 191.389,136.75 190.98,137.636 L190.866,137.636 L190.866,136.273 L189.571,136.273 L189.571,145 L190.912,145 L190.912,139.75 Z M202.226,145.182 C203.908,145.182 204.476,144.136 204.771,143.659 L204.93,143.659 L204.93,145 L206.226,145 L206.226,133.364 L204.885,133.364 L204.885,137.659 L204.771,137.659 C204.476,137.205 203.953,136.159 202.249,136.159 C200.044,136.159 198.521,137.909 198.521,140.659 C198.521,143.432 200.044,145.182 202.226,145.182 Z M202.408,143.977 C200.726,143.977 199.862,142.5 199.862,140.636 C199.862,138.795 200.703,137.364 202.408,137.364 C204.044,137.364 204.908,138.682 204.908,140.636 C204.908,142.614 204.021,143.977 202.408,143.977 Z M214.368,141.432 C214.368,143.068 213.118,143.818 212.118,143.818 C211.004,143.818 210.209,143 210.209,141.727 L210.209,136.273 L208.868,136.273 L208.868,141.818 C208.868,144.045 210.05,145.114 211.686,145.114 C213.004,145.114 213.868,144.409 214.277,143.523 L214.368,143.523 L214.368,145 L215.709,145 L215.709,136.273 L214.368,136.273 L214.368,141.432 Z M221.71,145.182 C223.642,145.182 224.915,144 225.142,142.455 L223.801,142.455 C223.551,143.409 222.756,143.977 221.71,143.977 C220.119,143.977 219.097,142.659 219.097,140.636 C219.097,138.659 220.142,137.364 221.71,137.364 C222.892,137.364 223.597,138.091 223.801,138.886 L225.142,138.886 C224.915,137.25 223.528,136.159 221.688,136.159 C219.324,136.159 217.756,138.023 217.756,140.682 C217.756,143.295 219.256,145.182 221.71,145.182 Z M230.898,136.273 L229.034,136.273 L229.034,134.182 L227.693,134.182 L227.693,136.273 L226.375,136.273 L226.375,137.409 L227.693,137.409 L227.693,142.864 C227.693,144.386 228.92,145.114 230.057,145.114 C230.557,145.114 230.875,145.023 231.057,144.955 L230.784,143.75 C230.67,143.773 230.489,143.818 230.193,143.818 C229.602,143.818 229.034,143.636 229.034,142.5 L229.034,137.409 L230.898,137.409 L230.898,136.273 Z M237.415,145 L238.756,145 L238.756,139.545 C238.756,138.267 239.688,137.364 240.733,137.364 C241.75,137.364 242.46,138.028 242.46,139.023 L242.46,145 L243.824,145 L243.824,139.318 C243.824,138.193 244.528,137.364 245.756,137.364 C246.71,137.364 247.528,137.869 247.528,139.159 L247.528,145 L248.869,145 L248.869,139.159 C248.869,137.108 247.767,136.159 246.21,136.159 C244.96,136.159 244.045,136.733 243.597,137.636 L243.506,137.636 C243.074,136.705 242.312,136.159 241.165,136.159 C240.028,136.159 239.188,136.705 238.824,137.636 L238.71,137.636 L238.71,136.273 L237.415,136.273 L237.415,145 Z M254.98,145.182 C256.753,145.182 258.048,144.295 258.457,142.977 L257.162,142.614 C256.821,143.523 256.031,143.977 254.98,143.977 C253.406,143.977 252.321,142.96 252.259,141.091 L258.594,141.091 L258.594,140.523 C258.594,137.273 256.662,136.159 254.844,136.159 C252.48,136.159 250.912,138.023 250.912,140.705 C250.912,143.386 252.457,145.182 254.98,145.182 Z M252.259,139.932 C252.349,138.574 253.31,137.364 254.844,137.364 C256.298,137.364 257.23,138.455 257.23,139.932 L252.259,139.932 Z M264.293,145.182 C266.065,145.182 267.361,144.295 267.77,142.977 L266.474,142.614 C266.134,143.523 265.344,143.977 264.293,143.977 C262.719,143.977 261.634,142.96 261.571,141.091 L267.906,141.091 L267.906,140.523 C267.906,137.273 265.974,136.159 264.156,136.159 C261.793,136.159 260.224,138.023 260.224,140.705 C260.224,143.386 261.77,145.182 264.293,145.182 Z M261.571,139.932 C261.662,138.574 262.622,137.364 264.156,137.364 C265.611,137.364 266.543,138.455 266.543,139.932 L261.571,139.932 Z M273.741,136.273 L271.878,136.273 L271.878,134.182 L270.537,134.182 L270.537,136.273 L269.219,136.273 L269.219,137.409 L270.537,137.409 L270.537,142.864 C270.537,144.386 271.764,145.114 272.901,145.114 C273.401,145.114 273.719,145.023 273.901,144.955 L273.628,143.75 C273.514,143.773 273.332,143.818 273.037,143.818 C272.446,143.818 271.878,143.636 271.878,142.5 L271.878,137.409 L273.741,137.409 L273.741,136.273 Z M275.759,145 L277.099,145 L277.099,136.273 L275.759,136.273 L275.759,145 Z M276.44,134.818 C276.963,134.818 277.395,134.409 277.395,133.909 C277.395,133.409 276.963,133 276.44,133 C275.918,133 275.486,133.409 275.486,133.909 C275.486,134.409 275.918,134.818 276.44,134.818 Z M280.896,139.75 C280.896,138.227 281.839,137.364 283.124,137.364 C284.368,137.364 285.124,138.176 285.124,139.545 L285.124,145 L286.464,145 L286.464,139.455 C286.464,137.227 285.277,136.159 283.51,136.159 C282.192,136.159 281.374,136.75 280.964,137.636 L280.851,137.636 L280.851,136.273 L279.555,136.273 L279.555,145 L280.896,145 L280.896,139.75 Z M292.438,148.455 C294.528,148.455 296.21,147.5 296.21,145.25 L296.21,136.273 L294.915,136.273 L294.915,137.659 L294.778,137.659 C294.483,137.205 293.938,136.159 292.233,136.159 C290.028,136.159 288.506,137.909 288.506,140.591 C288.506,143.318 290.097,144.864 292.21,144.864 C293.915,144.864 294.46,143.864 294.756,143.386 L294.869,143.386 L294.869,145.159 C294.869,146.614 293.847,147.273 292.438,147.273 C290.852,147.273 290.295,146.438 289.938,145.955 L288.869,146.705 C289.415,147.619 290.489,148.455 292.438,148.455 Z M292.392,143.659 C290.71,143.659 289.847,142.386 289.847,140.568 C289.847,138.795 290.688,137.364 292.392,137.364 C294.028,137.364 294.892,138.682 294.892,140.568 C294.892,142.5 294.006,143.659 292.392,143.659 Z M304.847,138.227 C304.426,136.989 303.483,136.159 301.756,136.159 C299.915,136.159 298.551,137.205 298.551,138.682 C298.551,139.886 299.267,140.693 300.869,141.068 L302.324,141.409 C303.205,141.614 303.619,142.034 303.619,142.636 C303.619,143.386 302.824,144 301.574,144 C300.477,144 299.79,143.528 299.551,142.591 L298.278,142.909 C298.591,144.392 299.812,145.182 301.597,145.182 C303.625,145.182 305.006,144.074 305.006,142.568 C305.006,141.352 304.244,140.585 302.688,140.205 L301.392,139.886 C300.358,139.631 299.892,139.284 299.892,138.614 C299.892,137.864 300.688,137.318 301.756,137.318 C302.926,137.318 303.409,137.966 303.642,138.568 L304.847,138.227 Z" id="Shape" fill="#000000" fill-rule="nonzero"></path>
                <rect id="Rectangle" fill="#D8DDE5" fill-rule="nonzero" x="620" y="105" width="52.5" height="52.5"></rect>
                <polygon id="Path" fill="#D8DDE5" fill-rule="nonzero" points="625.837 157.5 620 157.5 620 163.337 625.837 163.337"></polygon>
                <polygon id="Path" fill="#D8DDE5" fill-rule="nonzero" points="631.673 163.337 625.837 163.337 625.837 169.174 631.673 169.174"></polygon>
                <polygon id="Path" fill="#D8DDE5" fill-rule="nonzero" points="637.494 157.5 631.658 157.5 631.658 163.337 637.494 163.337"></polygon>
                <polygon id="Path" fill="#D8DDE5" fill-rule="nonzero" points="625.837 169.158 620 169.158 620 174.995 625.837 174.995"></polygon>
                <polygon id="Path" fill="#D8DDE5" fill-rule="nonzero" points="637.494 169.158 631.658 169.158 631.658 174.995 637.494 174.995"></polygon>
                <polygon id="Path" fill="#D8DDE5" fill-rule="nonzero" points="643.332 163.337 637.495 163.337 637.495 169.174 643.332 169.174"></polygon>
                <polygon id="Path" fill="#D8DDE5" fill-rule="nonzero" points="631.673 174.995 625.837 174.995 625.837 180.832 631.673 180.832"></polygon>
                <polygon id="Path" fill="#D8DDE5" fill-rule="nonzero" points="625.837 180.832 620 180.832 620 186.669 625.837 186.669"></polygon>
                <polygon id="Path" fill="#D8DDE5" fill-rule="nonzero" points="637.494 180.832 631.658 180.832 631.658 186.669 637.494 186.669"></polygon>
                <polygon id="Path" fill="#D8DDE5" fill-rule="nonzero" points="643.332 174.995 637.495 174.995 637.495 180.832 643.332 180.832"></polygon>
                <polygon id="Path" fill="#D8DDE5" fill-rule="nonzero" points="631.673 186.668 625.837 186.668 625.837 192.505 631.673 192.505"></polygon>
                <polygon id="Path" fill="#D8DDE5" fill-rule="nonzero" points="625.837 192.489 620 192.489 620 198.326 625.837 198.326"></polygon>
                <polygon id="Path" fill="#D8DDE5" fill-rule="nonzero" points="637.494 192.489 631.658 192.489 631.658 198.326 637.494 198.326"></polygon>
                <polygon id="Path" fill="#D8DDE5" fill-rule="nonzero" points="643.332 186.668 637.495 186.668 637.495 192.505 643.332 192.505"></polygon>
                <polygon id="Path" fill="#D8DDE5" fill-rule="nonzero" points="631.673 198.326 625.837 198.326 625.837 204.163 631.673 204.163"></polygon>
                <polygon id="Path" fill="#D8DDE5" fill-rule="nonzero" points="625.837 204.164 620 204.164 620 210.001 625.837 210.001"></polygon>
                <polygon id="Path" fill="#D8DDE5" fill-rule="nonzero" points="637.494 204.164 631.658 204.164 631.658 210.001 637.494 210.001"></polygon>
                <polygon id="Path" fill="#D8DDE5" fill-rule="nonzero" points="643.332 198.326 637.495 198.326 637.495 204.163 643.332 204.163"></polygon>
                <polygon id="Path" fill="#D8DDE5" fill-rule="nonzero" points="649.168 157.5 643.331 157.5 643.331 163.337 649.168 163.337"></polygon>
                <polygon id="Path" fill="#D8DDE5" fill-rule="nonzero" points="655.006 163.337 649.169 163.337 649.169 169.174 655.006 169.174"></polygon>
                <polygon id="Path" fill="#D8DDE5" fill-rule="nonzero" points="660.826 157.5 654.99 157.5 654.99 163.337 660.826 163.337"></polygon>
                <polygon id="Path" fill="#D8DDE5" fill-rule="nonzero" points="649.168 169.158 643.331 169.158 643.331 174.995 649.168 174.995"></polygon>
                <polygon id="Path" fill="#D8DDE5" fill-rule="nonzero" points="660.826 169.158 654.99 169.158 654.99 174.995 660.826 174.995"></polygon>
                <polygon id="Path" fill="#D8DDE5" fill-rule="nonzero" points="666.663 163.337 660.826 163.337 660.826 169.174 666.663 169.174"></polygon>
                <polygon id="Path" fill="#D8DDE5" fill-rule="nonzero" points="655.006 174.995 649.169 174.995 649.169 180.832 655.006 180.832"></polygon>
                <polygon id="Path" fill="#D8DDE5" fill-rule="nonzero" points="649.168 180.832 643.331 180.832 643.331 186.669 649.168 186.669"></polygon>
                <polygon id="Path" fill="#D8DDE5" fill-rule="nonzero" points="660.826 180.832 654.99 180.832 654.99 186.669 660.826 186.669"></polygon>
                <polygon id="Path" fill="#D8DDE5" fill-rule="nonzero" points="666.663 174.995 660.826 174.995 660.826 180.832 666.663 180.832"></polygon>
                <polygon id="Path" fill="#D8DDE5" fill-rule="nonzero" points="655.006 186.668 649.169 186.668 649.169 192.505 655.006 192.505"></polygon>
                <polygon id="Path" fill="#D8DDE5" fill-rule="nonzero" points="649.168 192.489 643.331 192.489 643.331 198.326 649.168 198.326"></polygon>
                <polygon id="Path" fill="#D8DDE5" fill-rule="nonzero" points="660.826 192.489 654.99 192.489 654.99 198.326 660.826 198.326"></polygon>
                <polygon id="Path" fill="#D8DDE5" fill-rule="nonzero" points="666.663 186.668 660.826 186.668 660.826 192.505 666.663 192.505"></polygon>
                <polygon id="Path" fill="#D8DDE5" fill-rule="nonzero" points="655.006 198.326 649.169 198.326 649.169 204.163 655.006 204.163"></polygon>
                <polygon id="Path" fill="#D8DDE5" fill-rule="nonzero" points="649.168 204.164 643.331 204.164 643.331 210.001 649.168 210.001"></polygon>
                <polygon id="Path" fill="#D8DDE5" fill-rule="nonzero" points="660.826 204.164 654.99 204.164 654.99 210.001 660.826 210.001"></polygon>
                <polygon id="Path" fill="#D8DDE5" fill-rule="nonzero" points="672.5 157.5 666.663 157.5 666.663 163.337 672.5 163.337"></polygon>
                <polygon id="Path" fill="#D8DDE5" fill-rule="nonzero" points="672.5 169.158 666.663 169.158 666.663 174.995 672.5 174.995"></polygon>
                <polygon id="Path" fill="#D8DDE5" fill-rule="nonzero" points="672.5 180.832 666.663 180.832 666.663 186.669 672.5 186.669"></polygon>
                <polygon id="Path" fill="#D8DDE5" fill-rule="nonzero" points="672.5 192.489 666.663 192.489 666.663 198.326 672.5 198.326"></polygon>
                <polygon id="Path" fill="#D8DDE5" fill-rule="nonzero" points="672.5 204.164 666.663 204.164 666.663 210.001 672.5 210.001"></polygon>
                <polygon id="Path" fill="#D8DDE5" fill-rule="nonzero" points="666.663 198.326 660.826 198.326 660.826 204.163 666.663 204.163"></polygon>
                <rect id="Rectangle" fill="#D8DDE5" fill-rule="nonzero" x="631.667" y="52.5" width="5.83333" height="52.5"></rect>
                <rect id="Rectangle" fill="#D8DDE5" fill-rule="nonzero" x="643.333" y="52.5" width="5.83333" height="52.5"></rect>
                <rect id="Rectangle" fill="#D8DDE5" fill-rule="nonzero" x="655" y="52.5" width="5.83333" height="52.5"></rect>
                <rect id="Rectangle" fill="#D8DDE5" fill-rule="nonzero" x="666.667" y="52.5" width="5.83333" height="52.5"></rect>
                <rect id="Rectangle" fill="#D8DDE5" fill-rule="nonzero" x="620" y="52.5" width="5.83668" height="52.5"></rect>
                <rect id="Rectangle" fill="#D8DDE5" fill-rule="nonzero" transform="translate(552.916335, 131.250000) rotate(-180.000000) translate(-552.916335, -131.250000) " x="549.99967" y="105" width="5.83333" height="52.5"></rect>
                <rect id="Rectangle" fill="#D8DDE5" fill-rule="nonzero" transform="translate(541.250335, 131.250000) rotate(-180.000000) translate(-541.250335, -131.250000) " x="538.33367" y="105" width="5.83333" height="52.5"></rect>
                <rect id="Rectangle" fill="#D8DDE5" fill-rule="nonzero" transform="translate(529.583335, 131.250000) rotate(-180.000000) translate(-529.583335, -131.250000) " x="526.66667" y="105" width="5.83333" height="52.5"></rect>
                <rect id="Rectangle" fill="#D8DDE5" fill-rule="nonzero" transform="translate(517.916335, 131.250000) rotate(-180.000000) translate(-517.916335, -131.250000) " x="514.99967" y="105" width="5.83333" height="52.5"></rect>
                <rect id="Rectangle" fill="#D8DDE5" fill-rule="nonzero" transform="translate(564.581660, 131.250000) rotate(-180.000000) translate(-564.581660, -131.250000) " x="561.66332" y="105" width="5.83668" height="52.5"></rect>
                <rect id="Rectangle" fill="#D8DDE5" fill-rule="nonzero" transform="translate(867.588335, 27.234400) rotate(-180.000000) translate(-867.588335, -27.234400) " x="864.67167" y="0.9844" width="5.83333" height="52.5"></rect>
                <rect id="Rectangle" fill="#D8DDE5" fill-rule="nonzero" transform="translate(855.921335, 27.234400) rotate(-180.000000) translate(-855.921335, -27.234400) " x="853.00467" y="0.9844" width="5.83333" height="52.5"></rect>
                <rect id="Rectangle" fill="#D8DDE5" fill-rule="nonzero" transform="translate(844.255335, 27.234400) rotate(-180.000000) translate(-844.255335, -27.234400) " x="841.33867" y="0.9844" width="5.83333" height="52.5"></rect>
                <rect id="Rectangle" fill="#D8DDE5" fill-rule="nonzero" transform="translate(832.588335, 27.234400) rotate(-180.000000) translate(-832.588335, -27.234400) " x="829.67167" y="0.9844" width="5.83333" height="52.5"></rect>
                <rect id="Rectangle" fill="#D8DDE5" fill-rule="nonzero" transform="translate(879.253660, 27.234400) rotate(-180.000000) translate(-879.253660, -27.234400) " x="876.33532" y="0.9844" width="5.83668" height="52.5"></rect>
                <path d="M567.5,163.333 L567.5,157.5 C596.495,157.5 620,181.005 620,210 L614.167,210 C614.167,184.227 593.273,163.333 567.5,163.333 Z M567.5,175 L567.5,169.166 C590.052,169.166 608.333,187.448 608.333,210 L602.5,210 C602.5,190.67 586.83,175 567.5,175 Z M567.5,180.834 L567.5,186.667 C580.387,186.667 590.833,197.114 590.833,210 L596.667,210 C596.667,193.892 583.608,180.834 567.5,180.834 Z M567.5,198.333 L567.5,192.5 C577.165,192.5 585,200.335 585,210 L579.167,210 C579.167,203.557 573.943,198.333 567.5,198.333 Z M567.5,210 L567.5,204.166 C570.722,204.166 573.333,206.778 573.333,210 L567.5,210 Z" id="Shape" fill="#D8DDE5"></path>
                <path d="M777,110.833 L777,105 C805.995,105 829.5,128.505 829.5,157.5 L823.667,157.5 C823.667,131.727 802.773,110.833 777,110.833 Z M777,122.5 L777,116.667 C799.552,116.667 817.833,134.949 817.833,157.5 L812,157.5 C812,138.17 796.33,122.5 777,122.5 Z M777,128.333 L777,134.167 C789.887,134.167 800.333,144.613 800.333,157.5 L806.167,157.5 C806.167,141.392 793.108,128.333 777,128.333 Z M777,145.833 L777,140 C786.665,140 794.5,147.835 794.5,157.5 L788.667,157.5 C788.667,151.056 783.443,145.833 777,145.833 Z M777,157.5 L777,151.667 C780.222,151.667 782.833,154.279 782.833,157.5 L777,157.5 Z" id="Shape" fill="#D8DDE5"></path>
                <path d="M729.112,52.5 L725,52.5 L725,48.3875 L773.387,0 L777.5,0 L777.5,4.1125 L729.112,52.5 Z M765.133,0 L756.879,0 L725,31.8791 L725,40.1333 L765.133,0 Z M748.625,0 L740.371,0 L725,15.3708 L725,23.625 L748.625,0 Z M725,0 L725,7.11666 L732.116,0 L725,0 Z M777.5,20.6208 L777.5,12.3667 L737.366,52.5 L745.621,52.5 L777.5,20.6208 Z M777.5,37.1291 L777.5,28.875 L753.875,52.5 L762.129,52.5 L777.5,37.1291 Z M777.5,45.3833 L770.383,52.5 L777.5,52.5 L777.5,45.3833 Z" id="Shape" fill="#D8DDE5" fill-rule="nonzero"></path>
                <path d="M672.5,105 L725,105 L725,52.5 C696.005,52.5 672.5,76.0051 672.5,105 Z" id="Path" fill="#D8DDE5" fill-rule="nonzero"></path>
                <path d="M777.5,157.5 L777.5,105 L725,105 C725,133.995 748.505,157.5 777.5,157.5 Z" id="Path" fill="#D8DDE5" fill-rule="nonzero"></path>
                <path d="M619.7,91.2002 C630,91.9002 641.5,91.9002 651.6,94.0002 C654.6,94.6002 657,98.3002 659.6,99.9002 C663.8,102.4 667,106.2 670.2,109.8 C687.3,128.9 708.6,143.5 728.9,159.1 C737.2,165.5 745.7,172.6 748.7,182.6 C751.7,192.6 746.2,205.7 735.8,206.7 C738.4,212.7 736.9,220.2 732,224.6 C727.1,229 719.5,229.8 713.8,226.6 C718,232.5 712.3,241.3 705.2,243 C698.1,244.6 690.9,241.5 684.3,238.5 C684.7,245.3 677,250.3 670.2,249.7 C663.4,249.1 657.6,244.8 652.2,240.6 C643.3,233.7 634.5,226.9 625.6,220 C608.9,207.1 591.6,193.4 582.3,174.4 C580.4,170.6 578.9,166.6 576.2,163.3 C573.8,160.5 570.7,158.4 567.7,156.4 C557.6,149.9 547,144.1 536,139 C541,128.8 546.1,118.6 551.5,108.6 C555.3,101.5 568.8,78.2002 568.8,78.2002 C577.4,80.2002 584.2,85.5002 591.6,87.7002 C601.1,90.4002 610,90.5002 619.7,91.2002 Z" id="Path" fill="#000000" fill-rule="nonzero"></path>
                <path d="M700.8,236.001 C697.4,237.601 692.7,234.701 686.5,231.301 C682.4,229.101 651.3,209.701 651.3,209.701 C652.6,212.301 678.7,230.301 677.4,232.701 C675.9,235.501 671.9,238.901 670.8,239.001 C668.8,239.301 662.5,234.701 662.5,234.701 C641.3,219.901 629.3,209.901 613.2,189.701 C604.5,178.801 596.5,168.401 586.7,158.401 C576.9,148.401 565.4,140.301 553.5,134.601 C559,124.601 570.1,105.901 574.9,95.3005 C575.8,93.3005 605.1,102.701 621.6,102.901 C627.1,103.001 637.8,103.801 643,105.601 C646.2,106.701 648.4,111.601 651,113.901 C674.4,133.901 700.6,151.901 723.9,171.901 C723.9,171.901 733.5,179.801 735.1,182.001 C737.8,185.501 742.4,189.001 739.8,193.901 C737.6,197.901 736.3,202.501 731.6,202.101 C730.6,202.001 682.5,174.501 678.8,172.801 C678.8,172.801 726.1,203.901 727.3,206.001 C728.5,208.201 729.4,210.901 728.5,212.401 C726.7,215.501 725.9,218.601 722.4,220.801 C718.9,223.001 710.2,219.701 707.2,217.701 C704.2,215.701 663.2,191.601 663.2,191.601 C663.2,191.601 705.6,222.501 706.2,225.201 C706.7,227.901 703.9,234.601 700.8,236.001 Z" id="Path" fill="#D3D8E0" fill-rule="nonzero"></path>
                <path d="M667.7,186.101 C657.9,194.601 657.5,177.901 664.6,172.701 C667.5,170.601 673.2,169.901 674.5,174.701 C675.5,178.101 670.1,184.001 667.7,186.101 Z" id="Path" fill="#FFFFFF" fill-rule="nonzero"></path>
                <path d="M683.8,166.3 C671.6,176.4 671,156.6 680,150.4 C683.7,147.9 690.8,147.1 692.4,152.7 C693.4,156.9 686.7,163.9 683.8,166.3 Z" id="Path" fill="#FFFFFF" fill-rule="nonzero"></path>
                <path d="M658.9,193.5 C659.6,195.6 658.3,197.7 657,199.4 C655.6,201.4 654.1,203.5 651.9,204.8 C649.7,206 646.7,206 645,204.2 C644.4,203.5 644,202.5 644.3,201.5 C644.4,201.1 644.7,200.7 644.9,200.4 C647.1,197.7 656,184.6 658.9,193.5 Z" id="Path" fill="#FFFFFF" fill-rule="nonzero"></path>
                <path d="M702.8,216.2 C702.8,216.2 710.3,209.6 711.6,207.2 L704.8,217.2 L710.7,212.2 C710.7,212.2 708.7,216.5 707.2,219 C707.2,219 702.5,219.5 702.8,216.2 Z" id="Path" fill="#000000" fill-rule="nonzero"></path>
                <path d="M684.3,232.601 C684.3,232.601 690.7,226.501 692.4,224.101 C692.4,224.101 687.2,233.101 686.4,234.101 L684.3,232.601 Z" id="Path" fill="#000000" fill-rule="nonzero"></path>
                <path d="M660.2,239.101 C660.2,239.101 666.6,233.001 668.3,230.601 C668.3,230.601 663.1,239.601 662.3,240.601 L660.2,239.101 Z" id="Path" fill="#000000" fill-rule="nonzero"></path>
                <path d="M718.6,196.001 C718.6,196.001 726,189.101 727.9,186.301 C727.9,186.301 721.9,196.501 721,197.701 L718.6,196.001 Z" id="Path" fill="#000000" fill-rule="nonzero"></path>
                <path d="M713.5,167.901 C717.7,171.001 722.2,173.601 725.9,177.301 C730.4,181.801 735.3,187.601 740.2,191.701 C740.9,189.901 740,189.301 739.5,187.601 C739,185.901 736.9,183.401 735.7,182.101 C730.8,176.901 726.5,172.801 720.8,168.401 C717.5,165.801 714.2,163.301 710.9,160.701 C709.7,159.801 703,153.401 701.8,154.001 C697.7,156.001 713.5,166.901 713.5,167.901 Z" id="Path" fill="#FFFFFF" fill-rule="nonzero"></path>
                <path d="M571.1,103 C571.1,103 620.4,118.2 629,117.3 L642.5,99.0002 C642.5,99.0002 633.9,106.4 602.4,100.5 C602.4,100.5 581.9,95.2002 574.9,95.3002 C574.9,95.3002 572.1,101.2 571.1,103 Z" id="Path" fill="#FFFFFF" fill-rule="nonzero"></path>
                <path d="M588.4,164.5 C592.8,160.9 607.3,160.5 609.6,168.2 C610.8,172.3 611.1,178.3 609.6,182.4 C615.1,180.9 621,182.7 625.5,186.2 C630,189.7 629.6,197.3 626.3,201.9 C635.2,198.8 645.8,207.5 644.5,216.8 C648.8,213.7 655.5,215.1 658.8,219.4 C662.1,223.6 662.1,229.8 659.6,234.6 C657.1,239.3 652.4,242.6 647.3,244.3 C645.8,244.8 639.4,243.1 637.5,241.4 C635.1,239.2 633.4,236.6 635.2,231.4 C631.4,236.3 623.7,237.7 618.4,234.5 C613.1,231.2 610.9,223.7 613.6,218.1 C608.5,220.8 602.8,223.8 598,221.1 C596.8,220.4 592,215.8 591.2,214.6 C588.8,211 591.1,205.3 592.1,201.1 C590.9,203.7 585.6,205.5 582.7,204.2 C569.1,198.1 570.7,190.5 576.8,179.6 C580.5,172.9 584.4,167.7 588.4,164.5 Z" id="Path" fill="#000000" fill-rule="nonzero"></path>
                <path d="M604.3,175.501 C604.5,176.201 604.6,176.901 604.4,177.601 C604.2,178.401 603.7,179.201 603.1,179.801 C599.6,184.301 595.8,188.701 591.9,192.901 C590.7,194.201 589.4,195.501 587.7,195.901 C586.7,196.201 586.1,195.601 585.1,195.501 C582.5,195.301 581,193.701 579.6,191.501 C577.9,188.901 580,184.101 581.6,181.501 C585.3,175.901 600,159.001 604.3,175.501 Z" id="Path" fill="#D3D8E0" fill-rule="nonzero"></path>
                <path d="M613.2,189.701 C615.4,189.301 617.8,189.801 619.5,191.301 C621.2,192.701 622,194.801 621.5,196.901 C620.7,200.601 616.3,204.601 613.5,207.201 C611.5,209.001 609.1,212.201 606.4,212.401 C603.7,212.601 601.2,211.801 599.5,209.701 C599.1,209.201 598.1,207.701 597.8,207.201 C596.9,205.201 600.3,199.701 601.7,198.001 C604.6,194.701 608.7,190.501 613.2,189.701 Z" id="Path" fill="#D3D8E0" fill-rule="nonzero"></path>
                <path d="M630.4,209.9 C632.3,209.4 634.4,209.7 636,210.9 C637.6,212.1 638.6,214.3 638.3,216.3 C637.9,219.8 635.5,221.9 633.2,224.5 C631.6,226.3 629.4,228.5 627.1,228.9 C624.8,229.3 622.9,228.7 621.2,226.9 C620.8,226.5 620.4,224.8 620.1,224.3 C619.2,222.5 620.2,220.3 621.3,218.6 C623.5,215.4 626.5,211 630.4,209.9 Z" id="Path" fill="#D3D8E0" fill-rule="nonzero"></path>
                <path d="M648.4,223.7 C650,223.4 651.7,223.8 652.9,224.9 C654.1,226 654.8,227.8 654.4,229.5 C653.8,232.3 653.2,232.1 651.2,234 C649.8,235.4 648.5,237.3 646.6,237.5 C644.7,237.7 643.1,236 641.9,234.4 C641.6,234 641.3,233.7 641.2,233.3 C640.6,231.7 641.5,230 642.6,228.7 C644.7,226.1 645.2,224.3 648.4,223.7 Z" id="Path" fill="#D3D8E0" fill-rule="nonzero"></path>
                <path d="M602.7,170.5 C604.2,171.4 604.5,174.8 604.4,175.1 C604.3,175.5 604,175.9 603.7,176.2 C601.7,178.5 600.3,180.5 598.1,182.6 C597.4,183.2 595.8,184 594.9,184.3 C594.3,184.4 593.7,184.4 593.1,184.3 C591.6,184.2 589.9,184 589,182.9 C588,181.6 588.4,177.7 589.3,176.4 C591.4,173.5 595.3,166.1 602.7,170.5 Z" id="Path" fill="#FFFFFF" fill-rule="nonzero"></path>
                <path d="M637,209.4 C638.1,210.1 638.9,212.4 638.8,212.7 C638.7,213 638.7,214.1 638.4,214.4 C636.9,216.2 635.9,217.8 634.1,219.4 C633.6,219.9 631.7,220.1 630.9,220.3 C630.5,220.4 630,220.4 629.6,220.3 C628.5,220.2 627.1,220.1 626.5,219.2 C625.8,218.2 626,215.1 626.7,214.1 C628.4,211.8 631.3,206 637,209.4 Z" id="Path" fill="#FFFFFF" fill-rule="nonzero"></path>
                <path d="M620.1,191.3 C621.5,192.1 621.9,194.9 621.8,195.2 C621.7,195.6 621.4,195.9 621.1,196.2 C619.1,198.1 618.6,199.2 616.4,201 C615.7,201.5 613.4,202.9 612.5,203.1 C611.9,203.2 611.4,203.2 610.8,203.1 C609.3,203 608.1,201.9 607.3,201 C606.3,199.9 606.8,196.7 607.8,195.6 C609.7,193.1 611.9,186.3 620.1,191.3 Z" id="Path" fill="#FFFFFF" fill-rule="nonzero"></path>
                <path d="M588.4,180.1 C588.4,180.1 592.5,184.7 596.7,181.7 L604.5,174.2 L604.7,175.1 L598.1,182.5 C598.1,182.5 594.6,185.5 590.7,183.8 C587.8,182.7 588.4,180.1 588.4,180.1 Z" id="Path" fill="#000000" fill-rule="nonzero"></path>
                <path d="M606.8,198.9 C606.8,198.9 610.9,203.5 615.1,200.5 L622.9,193 L623.1,193.9 L616.5,201.3 C616.5,201.3 613,204.3 609.1,202.6 C606.2,201.4 606.8,198.9 606.8,198.9 Z" id="Path" fill="#000000" fill-rule="nonzero"></path>
                <path d="M626.2,216.6 C626.2,216.6 630.3,221.2 634.5,218.2 L642.3,210.7 L642.5,211.6 L635.9,219 C635.9,219 632.4,222 628.5,220.3 C625.6,219.2 626.2,216.6 626.2,216.6 Z" id="Path" fill="#000000" fill-rule="nonzero"></path>
                <path d="M619.8,147.4 C619.8,148.4 619.9,149.5 620.6,150.2 C621.1,150.8 622,151 622.7,151.3 C627,152.5 635.9,152.4 638.8,149 C639.9,147.7 640.3,145.7 641.1,144.2 C644.8,136.5 645.7,133.2 647.7,126.1 C648.4,123.7 649.5,124.2 650.9,122.2 C652.3,120.2 654.8,117.2 656.4,115.4 C658.6,112.9 658.3,112 660.1,109.4 C660.5,108.8 661.4,108.5 662.2,108.5 C663.2,108.5 664.1,109.2 664.9,110 C671.4,116.1 678.1,122.1 684.8,128 C687.1,130.1 689.5,132.1 691.8,134.2 C707.3,148 722.8,161.8 738.3,175.6 C738.9,176.2 739.7,176.8 740.5,176.6 C741.2,176.5 741.7,175.8 742.1,175.2 C746.5,168.3 749.4,159.8 756.2,155.2 C758.8,153.4 761.9,152.3 764.8,151.1 C769.7,149 774.3,146.3 778.6,143.2 C779.2,142.8 779.8,142.3 780.2,141.7 C780.7,140.9 780.8,139.8 780.7,138.8 C780.2,130.6 774.1,125.9 770.5,118.5 C768.4,114.2 765.7,108.4 763,104.5 C761.6,102.5 761,100.2 759.7,98.2004 C758.1,95.7004 756.9,93.3004 755.4,90.8004 C751.5,84.7004 747.5,78.3004 744.1,71.9004 C734.9,75.8004 727.7,78.8004 718.5,82.8004 C715.4,84.1004 712.3,85.4004 708.9,85.6004 C705.7,85.7004 702.6,84.8004 699.6,83.9004 C687,80.4004 674,78.0004 661.1,75.7004 C658.9,75.3004 656.7,74.9004 654.6,75.4004 C652.1,76.0004 650.1,77.6004 648.1,79.3004 C639.7,86.3004 629.1,92.3004 620.7,99.3004 C615.5,103.7 618.4,114.1 618.7,120.3 C619,129.3 619.4,138.4 619.8,147.4 Z" id="Path" fill="#000000" fill-rule="nonzero"></path>
                <path d="M637.4,135.9 C638.4,130.7 639.5,125.6 641.9,120.7 C644.4,115.6 645.4,114.7 647.8,109.2 C649.6,110 652.1,107.7 653.6,108.3 C659.9,110.9 663.2,115.2 670.5,118.9 C677.4,122.4 684.3,126.1 690.2,131.1 C694,134.2 697.4,137.9 701.3,140.8 C706.3,144.6 712,147.3 716.9,151.2 C723.1,156.1 726.1,160.4 732.1,165.8 C733.7,159.5 738.1,156.9 743.8,153.6 C746.5,152 752.7,147.7 755.5,146.2 C758.4,144.7 760.1,143.4 762.7,141.4 C763.8,140.6 769.8,139.5 769.8,138.1 C769.8,135.2 765.7,131 763.2,127.2 C754.8,114.7 747.7,101.6 739.9,88.5005 C739.3,87.5005 738.6,86.5005 737.5,86.2005 C736.6,85.9005 735.6,86.3005 734.7,86.6005 C729.3,88.7005 720.7,91.5005 715.3,93.6005 C713.2,94.4005 710.9,95.3005 708.6,95.3005 C706.6,95.3005 704.6,94.6005 702.7,93.9005 C689.1,89.2005 675,85.9005 660.7,84.0005 C659,83.8005 657.3,83.6005 655.6,84.0005 C654.2,84.3005 653,85.1005 651.8,85.8005 C643.9,90.7005 636.3,96.0005 629,101.8 C627.7,102.8 626.4,104 625.8,105.5 C625.2,107 625.5,108.7 625.8,110.3 C627.3,119.5 625.3,127.2 626,136.5 C626.4,141.8 626.1,143.4 628.8,143 C632.1,142.6 636.9,138.4 637.4,135.9 Z" id="Path" fill="#D3D8E0" fill-rule="nonzero"></path>
                <path d="M672.6,122.801 C672.6,122.801 689.4,126.201 704.1,123.901 C704.1,123.901 692.8,129.201 676.9,126.401 L672.6,122.801 Z" id="Path" fill="#000000" fill-rule="nonzero"></path>
                <path d="M645.2,229.401 C645.2,229.401 647.8,232.501 650.1,232.401 C650.1,232.401 655.3,229.701 655,227.601 C654.7,225.501 651.1,222.101 647.2,223.901 C647.2,224.001 645.1,226.801 645.2,229.401 Z" id="Path" fill="#FFFFFF" fill-rule="nonzero"></path>
                <path d="M645,229.101 C645,229.101 649.1,233.201 652.3,230.901 L658.1,225.301 L658.3,226.001 L653.3,231.601 C653.3,231.601 650.1,233.901 646.7,232.001 C644.7,230.701 645,229.101 645,229.101 Z" id="Path" fill="#000000" fill-rule="nonzero"></path>
                <path d="M626,124.6 C626,123.8 626.9,123.5 627.2,124.2 C627.8,125.2 628.6,128.6 628.9,131.6 C628.9,131.6 629.1,140.5 627.5,142.8 C627.3,143.1 626.8,142.9 626.6,142.6 C626.1,141.8 625.3,139.4 625.4,133.4 L626,124.6 Z" id="Path" fill="#FFFFFF" fill-rule="nonzero"></path>
                <path d="M743.6,94.3006 C742.6,92.8006 740.5,90.0006 739.8,88.6006 C738.7,86.6006 738.4,86.1006 736.1,86.1006 C727.9,88.2006 719.7,92.5006 711.7,94.9006 C712.8,95.4006 717.5,96.3006 718.4,97.0006 C722.9,100.301 720.6,98.5006 725.1,101.801 C731.2,100.201 739.1,99.7006 745,97.7006 C745.3,97.6006 745.4,97.7006 745.5,97.5006 L743.6,94.3006 Z" id="Path" fill="#FFFFFF" fill-rule="nonzero"></path>
                <path d="M646.9,111.901 C646.9,111.901 647.8,106.301 647.7,102.801 C647.7,102.801 649.1,108.201 649,109.301 C649,109.301 651.5,107.601 651.3,105.601 L651.3,111.901 L646.9,111.901 Z" id="Path" fill="#000000" fill-rule="nonzero"></path>
                <path d="M636.3,102.4 C637.7,102 639,101.2 640.3,100.4 C644.4,97.8002 648.6,95.2002 652.7,92.6002 C655,91.2002 657.3,89.7002 659.9,89.1002 C663.6,88.2002 667.5,89.2002 671.2,90.0002 C677.3,91.3002 683.5,92.2002 689.8,93.1002 C693.4,93.6002 697.2,94.1002 700.8,93.3002 C687.6,89.2002 674.4,85.1002 660.6,84.1002 C658.9,84.0002 657.2,83.9002 655.6,84.3002 C654.3,84.7002 653,85.4002 651.8,86.1002 C647.6,88.6002 643.5,91.2002 639.4,93.9002 C635.6,96.4002 630.9,98.9002 627.6,102.2 C628.4,103.6 634.8,102.8 636.3,102.4 Z" id="Path" fill="#FFFFFF" fill-rule="nonzero"></path>
                <path d="M626,124.6 C626,124.6 627.6,123.7 628.2,127.1 C628.2,127.1 629.1,132.2 629,135 C629,135 630.5,127.8 628.1,122.7 C628.1,122.7 625.2,119.8 623.1,122.7 L626,124.6 Z" id="Path" fill="#000000" fill-rule="nonzero"></path>
            </g>
        </g>
    </g>
</svg>