<svg xmlns="http://www.w3.org/2000/svg" viewBox="0 0 882 300"><defs><style>.cls-1,.cls-4{fill:#c4c3c6;}.cls-2,.cls-5{fill:#fff;}.cls-3,.cls-4,.cls-5{fill-rule:evenodd;}</style></defs><title>illustrations</title><g id="Layer_4" data-name="Layer 4"><rect width="882" height="209" rx="6"/><path class="cls-1" d="M68.39,144.92H61.53V132.47h1.39v11.21h5.47Z"/><path class="cls-1" d="M76,143.81l.52-.06,0,1.07a26.05,26.05,0,0,1-3.51.28A3.17,3.17,0,0,1,70.24,144a6,6,0,0,1-.81-3.5c0-3.16,1.26-4.74,3.76-4.74a3.43,3.43,0,0,1,2.72,1,4.74,4.74,0,0,1,.9,3.2l-.07,1H70.8a3.7,3.7,0,0,0,.54,2.22,2.21,2.21,0,0,0,1.88.72C74.12,143.92,75,143.88,76,143.81Zm-.49-3.91a3.88,3.88,0,0,0-.53-2.34,2.06,2.06,0,0,0-1.73-.68,2.22,2.22,0,0,0-1.8.72,3.63,3.63,0,0,0-.62,2.3Z"/><path class="cls-1" d="M85.27,138.64v4.61c0,.44.39.71,1,.79l-.06,1.06a2.9,2.9,0,0,1-2.14-.72,7.92,7.92,0,0,1-3.24.72,2.43,2.43,0,0,1-1.89-.7,2.87,2.87,0,0,1-.65-2,2.51,2.51,0,0,1,.67-1.94,3.51,3.51,0,0,1,2.09-.76l2.82-.27v-.78a1.82,1.82,0,0,0-.39-1.31,1.46,1.46,0,0,0-1.08-.4,25.89,25.89,0,0,0-3,.18l-.56.06-.05-1a18.49,18.49,0,0,1,3.51-.4,2.51,2.51,0,0,1,2.91,2.9Zm-5.54,3.67c0,1.11.45,1.66,1.37,1.66a7.44,7.44,0,0,0,2.41-.41l.41-.15v-3l-2.66.25a1.76,1.76,0,0,0-1.17.47A1.67,1.67,0,0,0,79.73,142.31Z"/><path class="cls-1" d="M87.94,144.92v-9h1.33v1.23a8.61,8.61,0,0,1,3.29-1.42v1.36a10.45,10.45,0,0,0-1.57.45,11.63,11.63,0,0,0-1.25.54l-.45.24v6.6Z"/><path class="cls-1" d="M95.51,144.92H94.16v-9H95.5v.63a5.74,5.74,0,0,1,2.79-.81,2.66,2.66,0,0,1,2.42,1,6.88,6.88,0,0,1,.62,3.45v4.75H100v-4.71a6.19,6.19,0,0,0-.37-2.57,1.63,1.63,0,0,0-1.58-.69,4.83,4.83,0,0,0-1.21.17,6.07,6.07,0,0,0-1,.33l-.35.17Z"/><path class="cls-1" d="M109.14,144.92h-1.35V132h1.35v4.43a6.39,6.39,0,0,1,2.77-.69,2.65,2.65,0,0,1,2.42,1,6.77,6.77,0,0,1,.62,3.45v4.75H113.6v-4.71a6.23,6.23,0,0,0-.36-2.57,1.61,1.61,0,0,0-1.56-.69,6.13,6.13,0,0,0-2.2.41l-.34.13Z"/><path class="cls-1" d="M117.06,140.41a5.7,5.7,0,0,1,.88-3.57,4.57,4.57,0,0,1,6,0,5.78,5.78,0,0,1,.87,3.57,6.12,6.12,0,0,1-.82,3.58,4.68,4.68,0,0,1-6,0A6.11,6.11,0,0,1,117.06,140.41Zm1.39,0a5.73,5.73,0,0,0,.47,2.76,2.93,2.93,0,0,0,4,0,5.8,5.8,0,0,0,.47-2.76,5.17,5.17,0,0,0-.52-2.73,2.88,2.88,0,0,0-3.88,0A4.92,4.92,0,0,0,118.45,140.38Z"/><path class="cls-1" d="M126.13,135.92h1.35l1.82,7.83h.29l2.14-7.65h1.4l2.15,7.65h.3l1.8-7.83h1.35l-2.14,9h-2.25l-1.91-7-1.91,7h-2.25Z"/><path class="cls-1" d="M143.81,135.92h1.35l1.82,7.83h.28l2.15-7.65h1.4l2.14,7.65h.31l1.8-7.83h1.35l-2.14,9H152l-1.91-7-1.91,7H146Z"/><path class="cls-1" d="M164.29,143.81l.52-.06,0,1.07a26.05,26.05,0,0,1-3.51.28,3.15,3.15,0,0,1-2.75-1.12,6,6,0,0,1-.81-3.5q0-4.74,3.76-4.74a3.44,3.44,0,0,1,2.72,1,4.74,4.74,0,0,1,.9,3.2l-.08,1h-5.94a3.7,3.7,0,0,0,.54,2.22,2.21,2.21,0,0,0,1.88.72C162.46,143.92,163.37,143.88,164.29,143.81Zm-.48-3.91a3.87,3.87,0,0,0-.54-2.34,2.06,2.06,0,0,0-1.72-.68,2.21,2.21,0,0,0-1.8.72,3.57,3.57,0,0,0-.62,2.3Z"/><path class="cls-1" d="M176.84,135.92h1.35v9h-1.35v-.63a5.16,5.16,0,0,1-2.67.81,2.68,2.68,0,0,1-2.44-.95,7.22,7.22,0,0,1-.6-3.53v-4.7h1.35v4.68a6.78,6.78,0,0,0,.34,2.63c.23.45.75.67,1.55.67a4.65,4.65,0,0,0,1.21-.17,5.41,5.41,0,0,0,.93-.34l.33-.16Z"/><path class="cls-1" d="M183.61,137c-1.31,0-2,.46-2,1.37a.94.94,0,0,0,.45.89,8,8,0,0,0,2.06.54,5.45,5.45,0,0,1,2.26.78,2.24,2.24,0,0,1,.67,1.89,2.37,2.37,0,0,1-.89,2,4.42,4.42,0,0,1-2.6.64,16,16,0,0,1-2.63-.25l-.54-.09.07-1.17a22.14,22.14,0,0,0,3.1.31,3,3,0,0,0,1.59-.34,1.18,1.18,0,0,0,.55-1.11,1.13,1.13,0,0,0-.47-1.06,6.58,6.58,0,0,0-2-.53,5.47,5.47,0,0,1-2.25-.74,2.1,2.1,0,0,1-.67-1.8,2.19,2.19,0,0,1,.93-1.95,4,4,0,0,1,2.31-.63,19,19,0,0,1,2.76.26l.5.09,0,1.15A23.79,23.79,0,0,0,183.61,137Z"/><path class="cls-1" d="M195.27,143.81l.52-.06,0,1.07a26.05,26.05,0,0,1-3.51.28,3.17,3.17,0,0,1-2.76-1.12,6,6,0,0,1-.81-3.5q0-4.74,3.77-4.74a3.42,3.42,0,0,1,2.71,1,4.74,4.74,0,0,1,.9,3.2l-.07,1h-5.94a3.7,3.7,0,0,0,.54,2.22,2.21,2.21,0,0,0,1.88.72C193.44,143.92,194.34,143.88,195.27,143.81Zm-.49-3.91a3.88,3.88,0,0,0-.53-2.34,2.06,2.06,0,0,0-1.73-.68,2.24,2.24,0,0,0-1.8.72,3.7,3.7,0,0,0-.62,2.3Z"/><path class="cls-1" d="M211.78,138.79a8.46,8.46,0,0,1-1.07,4.82c-.71,1-2,1.49-3.86,1.49s-3.15-.51-3.86-1.53a8.55,8.55,0,0,1-1.06-4.81,8.8,8.8,0,0,1,1.08-4.88c.72-1.06,2-1.59,3.83-1.59s3.12.53,3.85,1.58A8.87,8.87,0,0,1,211.78,138.79Zm-8.43,0a8,8,0,0,0,.72,3.93,3.84,3.84,0,0,0,5.55,0,7.9,7.9,0,0,0,.71-3.92,8.32,8.32,0,0,0-.73-4,3,3,0,0,0-2.77-1.26,2.92,2.92,0,0,0-2.75,1.25A8.24,8.24,0,0,0,203.35,138.75Z"/><path class="cls-1" d="M218.06,135.74a2.88,2.88,0,0,1,2.54,1,6.57,6.57,0,0,1,.73,3.63,5.6,5.6,0,0,1-.91,3.64c-.6.7-1.72,1-3.34,1-.5,0-1.33,0-2.5-.14l-.5-.05V132h1.33v4.37A6.29,6.29,0,0,1,218.06,135.74Zm-1,8.16a2.74,2.74,0,0,0,2.33-.8,4.87,4.87,0,0,0,.56-2.71,5.7,5.7,0,0,0-.45-2.68,1.71,1.71,0,0,0-1.6-.76,6.16,6.16,0,0,0-2.14.4l-.36.12v6.34C216.19,143.87,216.74,143.9,217.07,143.9Z"/><path class="cls-1" d="M223.56,144.69v-8.77h1.34v8.79a4.22,4.22,0,0,1-.6,2.48,6.68,6.68,0,0,1-2.39,1.75l-.54-1.05a6.22,6.22,0,0,0,1.8-1.37A3.32,3.32,0,0,0,223.56,144.69Zm0-10.8v-1.57h1.34v1.57Z"/><path class="cls-1" d="M233.61,143.81l.52-.06,0,1.07a26.05,26.05,0,0,1-3.51.28A3.17,3.17,0,0,1,227.9,144a6,6,0,0,1-.81-3.5c0-3.16,1.26-4.74,3.76-4.74a3.43,3.43,0,0,1,2.72,1,4.74,4.74,0,0,1,.9,3.2l-.07,1h-5.94a3.7,3.7,0,0,0,.54,2.22,2.21,2.21,0,0,0,1.88.72C231.78,143.92,232.68,143.88,233.61,143.81Zm-.49-3.91a3.88,3.88,0,0,0-.53-2.34,2.06,2.06,0,0,0-1.73-.68,2.24,2.24,0,0,0-1.8.72,3.63,3.63,0,0,0-.62,2.3Z"/><path class="cls-1" d="M239.94,135.74a16.56,16.56,0,0,1,2,.22l.43,0,0,1.1a20.4,20.4,0,0,0-2.13-.16,2.43,2.43,0,0,0-2.07.73,4.7,4.7,0,0,0-.55,2.7,5.28,5.28,0,0,0,.51,2.74,2.39,2.39,0,0,0,2.13.78l2.13-.16,0,1.11a18.17,18.17,0,0,1-2.5.25A3.41,3.41,0,0,1,237,144a6.3,6.3,0,0,1-.8-3.64,5.75,5.75,0,0,1,.86-3.6A3.57,3.57,0,0,1,239.94,135.74Z"/><path class="cls-1" d="M249.09,137.09h-2.86v4.31a5.81,5.81,0,0,0,.22,2c.15.32.51.49,1.07.49l1.6-.11.09,1.11a11.26,11.26,0,0,1-1.83.2,2.38,2.38,0,0,1-1.95-.68,4.48,4.48,0,0,1-.54-2.61v-4.74h-1.27v-1.17h1.27v-2.75h1.34v2.75h2.86Z"/><path class="cls-1" d="M250.74,133.89v-1.57h1.35v1.57Zm0,11v-9h1.35v9Z"/><path class="cls-1" d="M253.84,135.92h1.44l2.11,7.83h.66l2.18-7.83h1.39l-2.54,9h-2.7Z"/><path class="cls-1" d="M269.3,143.81l.52-.06,0,1.07a26.05,26.05,0,0,1-3.51.28A3.15,3.15,0,0,1,263.6,144a6,6,0,0,1-.81-3.5q0-4.74,3.76-4.74a3.44,3.44,0,0,1,2.72,1,4.74,4.74,0,0,1,.9,3.2l-.08,1h-5.94a3.7,3.7,0,0,0,.54,2.22,2.22,2.22,0,0,0,1.89.72C267.47,143.92,268.38,143.88,269.3,143.81Zm-.48-3.91a4,4,0,0,0-.53-2.34,2.09,2.09,0,0,0-1.73-.68,2.21,2.21,0,0,0-1.8.72,3.57,3.57,0,0,0-.62,2.3Z"/><path class="cls-1" d="M275.1,137c-1.31,0-2,.46-2,1.37a.94.94,0,0,0,.45.89,7.92,7.92,0,0,0,2.05.54,5.5,5.5,0,0,1,2.27.78,2.27,2.27,0,0,1,.66,1.89,2.37,2.37,0,0,1-.89,2,4.4,4.4,0,0,1-2.6.64,16.11,16.11,0,0,1-2.63-.25l-.54-.09.07-1.17a22.14,22.14,0,0,0,3.1.31,3,3,0,0,0,1.59-.34,1.18,1.18,0,0,0,.55-1.11,1.11,1.11,0,0,0-.47-1.06,6.49,6.49,0,0,0-2.05-.53,5.58,5.58,0,0,1-2.25-.74,2.12,2.12,0,0,1-.66-1.8,2.18,2.18,0,0,1,.92-1.95,4,4,0,0,1,2.32-.63,18.74,18.74,0,0,1,2.75.26l.5.09,0,1.15A23.77,23.77,0,0,0,275.1,137Z"/><path class="cls-1" d="M291,138.64v4.61c0,.44.38.71,1,.79L292,145.1a2.92,2.92,0,0,1-2.15-.72,7.92,7.92,0,0,1-3.24.72,2.46,2.46,0,0,1-1.89-.7,2.87,2.87,0,0,1-.64-2,2.54,2.54,0,0,1,.66-1.94,3.53,3.53,0,0,1,2.09-.76l2.83-.27v-.78a1.81,1.81,0,0,0-.4-1.31,1.43,1.43,0,0,0-1.08-.4,25.89,25.89,0,0,0-3,.18l-.56.06-.05-1a18.49,18.49,0,0,1,3.51-.4,2.53,2.53,0,0,1,2.92,2.9Zm-5.55,3.67c0,1.11.46,1.66,1.37,1.66a7.4,7.4,0,0,0,2.41-.41l.42-.15v-3l-2.67.25a1.76,1.76,0,0,0-1.17.47A1.67,1.67,0,0,0,285.41,142.31Z"/><path class="cls-1" d="M295,144.92h-1.35v-9H295v.63a5.74,5.74,0,0,1,2.79-.81,2.65,2.65,0,0,1,2.42,1,6.77,6.77,0,0,1,.62,3.45v4.75h-1.33v-4.71a6,6,0,0,0-.37-2.57,1.61,1.61,0,0,0-1.57-.69,4.9,4.9,0,0,0-1.22.17,6.85,6.85,0,0,0-1,.33l-.34.17Z"/><path class="cls-1" d="M310.2,132v12.92h-1.33v-.61a5.49,5.49,0,0,1-2.74.79,4,4,0,0,1-1.26-.18,2.58,2.58,0,0,1-1-.64c-.65-.65-1-1.85-1-3.6a6.42,6.42,0,0,1,.87-3.78,3.4,3.4,0,0,1,2.89-1.16,11.14,11.14,0,0,1,2.22.24v-4Zm-4.68,11.77a2.16,2.16,0,0,0,.83.13,4.71,4.71,0,0,0,1.16-.17,7.56,7.56,0,0,0,1-.34l.36-.16v-6.1a12.16,12.16,0,0,0-2.15-.22,2.06,2.06,0,0,0-1.9.88,5.17,5.17,0,0,0-.54,2.71,4.43,4.43,0,0,0,.63,2.8A1.46,1.46,0,0,0,305.52,143.77Z"/><path class="cls-1" d="M318.39,144.92H317V132.47h1.39v5.79l2.05-.07,3.18-5.72h1.59l-3.56,6.26,3.76,6.19h-1.64l-3.31-5.5-2.07.07Z"/><path class="cls-1" d="M332.86,143.81l.52-.06,0,1.07a26.05,26.05,0,0,1-3.51.28,3.17,3.17,0,0,1-2.76-1.12,6,6,0,0,1-.81-3.5q0-4.74,3.77-4.74a3.42,3.42,0,0,1,2.71,1,4.74,4.74,0,0,1,.9,3.2l-.07,1h-5.94a3.7,3.7,0,0,0,.54,2.22,2.21,2.21,0,0,0,1.88.72C331,143.92,331.93,143.88,332.86,143.81Zm-.49-3.91a3.88,3.88,0,0,0-.53-2.34,2.06,2.06,0,0,0-1.73-.68,2.24,2.24,0,0,0-1.8.72,3.63,3.63,0,0,0-.62,2.3Z"/><path class="cls-1" d="M334.82,135.92h1.35l2.25,7.83h.6l2.26-7.83h1.35l-3.74,13h-1.35l1.17-4h-1.33Z"/><path class="cls-1" d="M349.94,140.15v4.77h-1.39V132.47h4.61a4.22,4.22,0,0,1,3,.92,3.68,3.68,0,0,1,1,2.86c0,1.92-.76,3.12-2.28,3.62l2.39,5h-1.53l-2.25-4.77Zm3.24-1.22c1.69,0,2.54-.87,2.54-2.62a2.29,2.29,0,0,0-2.56-2.62h-3.22v5.24Z"/><path class="cls-1" d="M365.37,143.81l.52-.06,0,1.07a25.81,25.81,0,0,1-3.51.28,3.16,3.16,0,0,1-2.75-1.12,6,6,0,0,1-.81-3.5q0-4.74,3.76-4.74a3.43,3.43,0,0,1,2.72,1,4.74,4.74,0,0,1,.9,3.2l-.07,1h-5.94a3.7,3.7,0,0,0,.54,2.22,2.21,2.21,0,0,0,1.88.72C363.53,143.92,364.44,143.88,365.37,143.81Zm-.49-3.91a4,4,0,0,0-.53-2.34,2.06,2.06,0,0,0-1.73-.68,2.21,2.21,0,0,0-1.8.72,3.63,3.63,0,0,0-.62,2.3Z"/><path class="cls-1" d="M371.16,137c-1.31,0-2,.46-2,1.37a.94.94,0,0,0,.45.89,7.92,7.92,0,0,0,2.05.54,5.45,5.45,0,0,1,2.27.78,2.27,2.27,0,0,1,.67,1.89,2.37,2.37,0,0,1-.89,2,4.43,4.43,0,0,1-2.61.64,15.9,15.9,0,0,1-2.62-.25l-.54-.09.07-1.17a22.17,22.17,0,0,0,3.09.31,3,3,0,0,0,1.6-.34,1.2,1.2,0,0,0,.55-1.11,1.13,1.13,0,0,0-.47-1.06,6.58,6.58,0,0,0-2.05-.53,5.47,5.47,0,0,1-2.25-.74,2.1,2.1,0,0,1-.67-1.8,2.19,2.19,0,0,1,.93-1.95,4,4,0,0,1,2.31-.63,18.74,18.74,0,0,1,2.75.26l.51.09,0,1.15A23.77,23.77,0,0,0,371.16,137Z"/><path class="cls-1" d="M382.32,135.92h1.35v9h-1.35v-.63a5.13,5.13,0,0,1-2.66.81,2.66,2.66,0,0,1-2.44-.95,7.22,7.22,0,0,1-.6-3.53v-4.7H378v4.68a6.59,6.59,0,0,0,.34,2.63c.23.45.74.67,1.55.67a4.57,4.57,0,0,0,1.2-.17,5.93,5.93,0,0,0,.94-.34l.32-.16Z"/><path class="cls-1" d="M386.37,144.92V132h1.35v12.92Z"/><path class="cls-1" d="M395.08,137.09h-2.86v4.31a5.74,5.74,0,0,0,.23,2c.15.32.5.49,1.07.49l1.6-.11.09,1.11a11.36,11.36,0,0,1-1.84.2,2.37,2.37,0,0,1-1.94-.68,4.48,4.48,0,0,1-.54-2.61v-4.74h-1.28v-1.17h1.28v-2.75h1.33v2.75h2.86Z"/><path class="cls-1" d="M399.57,137c-1.31,0-2,.46-2,1.37a.94.94,0,0,0,.45.89,8,8,0,0,0,2.06.54,5.45,5.45,0,0,1,2.26.78,2.24,2.24,0,0,1,.67,1.89,2.37,2.37,0,0,1-.89,2,4.42,4.42,0,0,1-2.6.64,16,16,0,0,1-2.63-.25l-.54-.09.07-1.17a22.14,22.14,0,0,0,3.1.31,3,3,0,0,0,1.59-.34,1.18,1.18,0,0,0,.55-1.11,1.13,1.13,0,0,0-.47-1.06,6.49,6.49,0,0,0-2.05-.53,5.47,5.47,0,0,1-2.25-.74,2.12,2.12,0,0,1-.67-1.8,2.19,2.19,0,0,1,.93-1.95,4,4,0,0,1,2.31-.63,18.86,18.86,0,0,1,2.76.26l.5.09,0,1.15A24.06,24.06,0,0,0,399.57,137Z"/><path class="cls-2" d="M82.37,100.61H64.08V67.39h3.7V97.3H82.37Z"/><path class="cls-2" d="M86.45,71.18V67h3.6v4.17Zm0,29.43v-24h3.6v24Z"/><path class="cls-2" d="M94.7,76.61h3.84l5.62,20.88h1.77l5.81-20.88h3.7l-6.77,24h-7.2Z"/><path class="cls-2" d="M135.93,97.63l1.4-.14.09,2.83a69.32,69.32,0,0,1-9.36.77q-5.18,0-7.34-3t-2.16-9.34q0-12.61,10-12.62,4.84,0,7.25,2.71t2.4,8.52l-.19,2.74H122.21q0,4,1.44,5.9t5,1.92Q132.25,97.92,135.93,97.63Zm-1.29-10.41q0-4.43-1.42-6.24t-4.61-1.83a5.93,5.93,0,0,0-4.8,1.92q-1.61,1.92-1.65,6.15Z"/><path class="cls-2" d="M180,84.24q0,8.88-2.83,12.86t-10.3,4q-7.47,0-10.29-4.08t-2.84-12.84q0-8.76,2.88-13t10.23-4.25q7.33,0,10.24,4.23T180,84.24Zm-22.46-.1c0,4.87.63,8.36,1.92,10.49s3.75,3.19,7.41,3.19,6.13-1,7.39-3.12,1.9-5.56,1.9-10.46-.66-8.46-2-10.7-3.77-3.36-7.37-3.36-6,1.11-7.34,3.33S157.49,79.28,157.49,84.14Z"/><path class="cls-2" d="M190.41,100.61h-3.69V67.39h3.69V82.85l5.47-.19,8.5-15.27h4.22L199.1,84.1l10,16.51h-4.37l-8.83-14.69-5.52.19Z"/><path class="cls-2" d="M217.72,87.89v12.72H214V67.39h12.29c3.52,0,6.16.82,7.94,2.45s2.66,4.18,2.66,7.63q0,7.68-6.09,9.65l6.38,13.49h-4.08l-6-12.72Zm8.64-3.27q6.78,0,6.77-7t-6.81-7h-8.6v14Z"/></g><g id="Layer_1" data-name="Layer 1"><g id="Group-9"><g id="Group-7"><path id="Oval" class="cls-3" d="M635.7,107.87a81,81,0,0,0,15.43-2.74c-1.51,15.83-13,73.67-8.17,86.76,3.11,8.74,9.86,12,16.94,11.27,10.55-1.1,28.28-1.72,43.56-3.65,7.34-.93,14.82-.93,19.35-3.66,7.61-4.57,4.76-17.48,0-26.18-1.73-3.17-3-2.44-7.26-2.44,0-8.52,2.8-21.09,4.27-33.6,2-17,3-37.92,3-44.34,0-11.12-4.9-24.66-10.88-24.66-19.67,0-66.73,3.05-74.11,3.05-9.61,0-15.12,9.25-15.12,20.09S626.1,107.87,635.7,107.87Z"/><path class="cls-4" d="M646.93,71.81l63.21-2.1q7.23,5.51,7.23,31t-7.23,66.21q-49,2.47-53.58,3.2t-8.15,6.65q4.43-33.59,8.15-56.5c1.44-8.89,1.83-25.11,0-34.31A20.89,20.89,0,0,0,646.93,71.81Z"/><path id="Path" class="cls-5" d="M660.26,85.71q-8.13-10.48-13.33-13.85l63.18-2.15q4.41,3.44,6.13,14.48Q665.69,92.71,660.26,85.71Z"/><g id="Group-3"><g id="Group-4"><path id="Path-Copy-6" class="cls-5" d="M716.08,171c1.09,0,2.77,2.32,4,6.17,2,6.14-1.3,9-4.93,10.69-9,1.06-37.71,3.82-38.38,2.54q-17.32,4.62-14.89.75c1.28-2,.91-3.21,1-8a10.36,10.36,0,0,0-4.12-9Z"/><path id="Path-Copy-5" class="cls-4" d="M721.36,188.4c-1.76,5.92-33.19,5.12-41.61,5.93s-21.75,2.55-20.12,0a15.09,15.09,0,0,1,5.64-5.91c2.19-1.21,21.57-7.13,36.73-8.61q15.16-1.47,16.63-5.9C723.32,179.8,721.36,186.58,721.36,188.4Z"/><path id="Path-Copy-2" class="cls-4" d="M655.74,178.11a9.7,9.7,0,0,1,1.44,6.35c0,.62-.1,1.21-.18,1.79l-5.29.43a14.49,14.49,0,0,1,.2-2.93,9.87,9.87,0,0,1,1.81-4.25A4.33,4.33,0,0,1,655.74,178.11Z"/></g></g><path id="Combined-Shape" class="cls-3" d="M647.7,156.43l.64,7.3a14.5,14.5,0,0,0,3.62-.16c1.49-.36,3.18-.21,2.3-.61-.45-.2-2.44-.85-3.64-1.16l-1-.23a61.74,61.74,0,0,0,6.22-.9c6-1.16,5.62-1.39.2-1.55-1.09,0-2.47,0-4.16.07a17.57,17.57,0,0,0,1.8-.89,25.46,25.46,0,0,0,3.5-2.39c.68-.73-1.48-.12-4.07-.2A22.46,22.46,0,0,0,647.7,156.43Z"/><path id="Combined-Shape-Copy" class="cls-3" d="M715.11,68.44l1,8.19a15.52,15.52,0,0,1-3.93.65c-1.71,0-3.52.51-2.65-.13A41.06,41.06,0,0,1,713.24,75l1-.49a64.21,64.21,0,0,1-7,.46c-6.83.13-6.47-.22-.58-1.66,1.18-.29,2.7-.58,4.55-.88-.68-.14-1.4-.33-2.17-.57a27.83,27.83,0,0,1-4.38-1.81c-.91-.65,1.59-.47,4.4-1.18A25,25,0,0,1,715.11,68.44Z"/></g></g><path d="M664,130.17c-.31,2.12.57,4.47,1.31,6.44a1.17,1.17,0,0,0,2.22,0,19.79,19.79,0,0,1,3.82-6c1.26-1.34,3.34-2.27,4-4a.92.92,0,0,0-.87-1.15c-2.13-.07-4.24,2.61-5.48,4.11a23.25,23.25,0,0,0-3.69,6.38h2.22c-.78-1.92-1.25-4.27-2.38-6-.27-.4-1.06-.43-1.15.15Z"/><path d="M664.4,114.05c-1.89,1.07,0,4.84.81,6.1a1,1,0,0,0,1.49.19c1.58-1.33,3.17-2.66,4.73-4,1.36-1.18,3.23-2.31,4-4,.29-.61-.19-1.49-1-1.24-1.73.58-3,2.18-4.31,3.38-1.63,1.48-3.22,3-4.82,4.48l1.48.19a8.93,8.93,0,0,1-1.54-3.79c-.14-.71-.1-.92-.69-1.35a.18.18,0,0,0-.21,0Z"/><path d="M664.78,103c-.27,2.14,1.18,6.5,3.9,4.12,1.36-1.18,2.23-3.14,3.3-4.59,1.27-1.75,2.9-3.32,4-5.16.8-1.29-.95-2.43-2-1.54a27.93,27.93,0,0,0-4.61,6c-.56.86-1.18,2.61-2,3.25l-.25.41a12.35,12.35,0,0,1-.65-1.5,7.41,7.41,0,0,0-.63-1.3.62.62,0,0,0-1.14.31Z"/><path d="M681.24,100.84s0,0,0,0,0,0,0,0Z"/><path d="M681.15,100.66c4.42,1,9.58.16,14.08.09,2.41,0,4.83,0,7.24-.06a36.59,36.59,0,0,0,7.1-.19,1.24,1.24,0,0,0,0-2.37,27.88,27.88,0,0,0-6.65-.29c-2.57,0-5.12.1-7.69.24-4.44.25-9.92.11-14.08,1.86-.3.13-.4.63,0,.72Z"/><path d="M662.41,146.78c-.28,2.14,1.18,6.49,3.9,4.12,1.36-1.19,2.23-3.14,3.29-4.6,1.28-1.75,2.9-3.32,4-5.15.81-1.29-.94-2.44-2-1.54a28.11,28.11,0,0,0-4.61,6c-.56.86-1.18,2.62-2,3.25l-.25.41a12.62,12.62,0,0,1-.66-1.5,8,8,0,0,0-.62-1.29.62.62,0,0,0-1.14.31Z"/><path d="M678.78,144.48c4.42,1,9.58.15,14.08.09q3.61-.06,7.23-.06a37.48,37.48,0,0,0,7.11-.2,1.23,1.23,0,0,0,0-2.36,27.45,27.45,0,0,0-6.66-.3q-3.84,0-7.68.24c-4.45.25-9.92.12-14.08,1.87-.31.13-.4.63,0,.72Z"/><path d="M679.71,114.57q7.45-.1,14.89-.3c2.42-.07,4.83-.08,7.24-.06,2.23,0,5,.59,7.06-.22.76-.29,1.13-1.47.25-1.9-1.93-1-4.29-.67-6.4-.7-2.72,0-5.43,0-8.15,0a92.08,92.08,0,0,0-15.08,1.68c-.82.16-.62,1.46.19,1.45Z"/><path d="M661.72,157.85c-1.89,1.07,0,4.84.81,6.1a1,1,0,0,0,1.49.19c1.58-1.33,3.17-2.66,4.73-4,1.36-1.18,3.24-2.31,4-3.95.3-.61-.19-1.49-1-1.24-1.72.58-3,2.18-4.31,3.39-1.63,1.47-3.22,3-4.82,4.47l1.49.19a9,9,0,0,1-1.55-3.79c-.14-.71-.1-.92-.69-1.35a.18.18,0,0,0-.21,0Z"/><path d="M677,158.37q7.46-.1,14.9-.3c2.41-.07,4.82-.08,7.23-.06,2.24,0,5,.59,7.06-.22.76-.29,1.13-1.47.25-1.9-1.93-.95-4.29-.67-6.4-.7-2.72,0-5.43,0-8.14.05a91,91,0,0,0-15.09,1.69c-.82.15-.62,1.45.19,1.44Z"/><path d="M679.2,131.83a29.37,29.37,0,0,0,6.76.37c2.24,0,4.67.21,6.85-.33a1.13,1.13,0,0,0,0-2.16c-2.21-.45-4.61-.13-6.85-.06a28.87,28.87,0,0,0-6.76.64.81.81,0,0,0,0,1.54Z"/><g id="Group-9-2" data-name="Group-9"><g id="Group-7-2" data-name="Group-7"><path id="Oval-2" data-name="Oval" class="cls-3" d="M582.19,124.7c1.85,0,12.2-1.37,17.28-3.07-1.69,17.73-14.56,82.52-9.14,97.18,3.47,9.79,11,13.44,19,12.62,11.81-1.23,31.67-1.93,48.78-4.09,8.23-1.05,16.6-1.05,21.68-4.1,8.52-5.11,5.33-19.58,0-29.32-1.94-3.55-3.35-2.73-8.13-2.73,0-9.55,3.13-23.63,4.78-37.64,2.24-19.05,3.35-42.47,3.35-49.65,0-12.47-5.49-27.62-12.19-27.62-22,0-74.74,3.41-83,3.41-10.76,0-16.94,10.35-16.94,22.5S571.44,124.7,582.19,124.7Z"/><path class="cls-4" d="M594.77,84.32,665.57,82q8.08,6.18,8.09,34.72t-8.09,74.16q-54.93,2.78-60,3.58t-9.14,7.46q5-37.63,9.14-63.29c1.61-10,2.05-28.12,0-38.43A23.42,23.42,0,0,0,594.77,84.32Z"/><path id="Path-2" data-name="Path" class="cls-5" d="M609.7,99.88q-9.11-11.75-14.93-15.51L665.54,82q4.94,3.84,6.86,16.21Q615.78,107.73,609.7,99.88Z"/><g id="Group-3-2" data-name="Group-3"><path class="cls-5" d="M592.55,91.42c1.44,1.34,6.92,4.84,6.92,13.25a72.14,72.14,0,0,1-1.84,13.76c-10,1.89-17.58,3.57-18.43,2.19a11.11,11.11,0,0,0,7.37-5.75,25.62,25.62,0,0,0,2.76-12.74c-.4-6.94-4.48-8.89-5.3-9.71Z"/><path class="cls-4" d="M597.67,118.47c-10,1.86-17.62,3.52-18.47,2.16a11.12,11.12,0,0,0,7.39-5.69,17,17,0,0,1,5.84-7,8,8,0,0,1,7-1.27A78.11,78.11,0,0,1,597.67,118.47Z"/><path class="cls-4" d="M581.44,95.82a11,11,0,0,1,2.69,7.77c0,.77,0,1.51-.07,2.23l-7.49,1a15.68,15.68,0,0,1,0-3.66,11.3,11.3,0,0,1,2.15-5.43A6.36,6.36,0,0,1,581.44,95.82Z"/><g id="Group-4-2" data-name="Group-4"><path id="Path-Copy-6-2" data-name="Path-Copy-6" class="cls-5" d="M672.22,195.37c1.22,0,3.1,2.61,4.5,6.92,2.23,6.88-1.46,10.05-5.52,12-10.09,1.19-42.23,4.28-43,2.85q-19.41,5.16-16.68.83c1.43-2.28,1-3.59,1.08-9,.09-6.95-3.85-9.18-4.61-10Z"/><path id="Path-Copy-5-2" data-name="Path-Copy-5" class="cls-4" d="M678.13,214.9c-2,6.62-37.17,5.73-46.6,6.64s-24.36,2.85-22.54,0a16.94,16.94,0,0,1,6.32-6.62c2.46-1.36,24.16-8,41.14-9.64q17-1.67,18.63-6.61C680.33,205.27,678.13,212.86,678.13,214.9Z"/><path id="Path-Copy-2-2" data-name="Path-Copy-2" class="cls-4" d="M604.63,203.37a10.87,10.87,0,0,1,1.62,7.12c0,.69-.11,1.35-.2,2l-5.93.49a16.54,16.54,0,0,1,.23-3.3,11,11,0,0,1,2-4.75A4.88,4.88,0,0,1,604.63,203.37Z"/></g></g><path id="Combined-Shape-2" data-name="Combined-Shape" class="cls-3" d="M595.63,179.1l.72,8.17a16.71,16.71,0,0,0,4.06-.19c1.66-.4,3.56-.23,2.57-.68-.5-.22-2.74-.94-4.08-1.29l-1.08-.27a69.89,69.89,0,0,0,7-1c6.72-1.3,6.3-1.56.23-1.74-1.22,0-2.77,0-4.66.09a21.11,21.11,0,0,0,2-1,27.58,27.58,0,0,0,3.91-2.67c.77-.82-1.65-.13-4.55-.23A25.31,25.31,0,0,0,595.63,179.1Z"/><path id="Combined-Shape-Copy-2" data-name="Combined-Shape-Copy" class="cls-3" d="M671.13,80.53l1.13,9.18a17.45,17.45,0,0,1-4.41.73c-1.91-.06-3.94.57-3-.15A47.73,47.73,0,0,1,669,87.91l1.12-.54a73.57,73.57,0,0,1-7.86.52c-7.65.14-7.24-.25-.65-1.86q2-.48,5.11-1a24.3,24.3,0,0,1-2.43-.63,30.66,30.66,0,0,1-4.91-2c-1-.72,1.78-.53,4.93-1.31A28.22,28.22,0,0,1,671.13,80.53Z"/></g></g><path d="M613.93,146.67c-.36,2.38.63,5,1.46,7.22a1.3,1.3,0,0,0,2.48,0,22.07,22.07,0,0,1,4.28-6.66c1.42-1.5,3.74-2.54,4.49-4.48a1,1,0,0,0-1-1.29c-2.38-.08-4.75,2.93-6.14,4.61a25.94,25.94,0,0,0-4.13,7.13h2.48c-.86-2.14-1.39-4.77-2.66-6.69-.3-.45-1.19-.48-1.28.16Z"/><path d="M614.34,131.62c-2.12,1.21,0,5.43.9,6.84a1.08,1.08,0,0,0,1.67.21c1.77-1.49,3.55-3,5.3-4.49,1.52-1.32,3.62-2.59,4.5-4.43.32-.68-.23-1.67-1.07-1.38-1.93.65-3.35,2.43-4.83,3.78-1.82,1.66-3.61,3.34-5.4,5l1.66.21a10.1,10.1,0,0,1-1.73-4.25c-.16-.79-.11-1-.77-1.51a.21.21,0,0,0-.23,0Z"/><path d="M614.76,119.21c-.3,2.39,1.33,7.27,4.38,4.61,1.52-1.33,2.49-3.52,3.68-5.15,1.43-2,3.25-3.72,4.53-5.77.9-1.44-1.06-2.73-2.23-1.73-2.07,1.76-3.69,4.46-5.17,6.72-.63,1-1.32,2.93-2.19,3.64l-.29.46a14.7,14.7,0,0,1-.73-1.68,8.4,8.4,0,0,0-.7-1.45.69.69,0,0,0-1.28.35Z"/><path d="M633.2,116.83s0,0,0,0,0,0,0,0Z"/><path d="M633.1,116.63c4.95,1.11,10.73.17,15.77.1q4.05-.06,8.1-.07c2.63,0,5.37.3,8-.22a1.38,1.38,0,0,0,0-2.64,30.93,30.93,0,0,0-7.45-.34q-4.31,0-8.61.28c-5,.28-11.11.12-15.77,2.08-.34.15-.45.71,0,.81Z"/><path d="M631.49,132.2c5.56-.07,11.11-.19,16.68-.33q4.05-.12,8.1-.06c2.5,0,5.56.65,7.91-.25.85-.33,1.26-1.65.28-2.13-2.16-1.07-4.8-.76-7.17-.79q-4.56-.07-9.12.06a103.11,103.11,0,0,0-16.9,1.89c-.92.18-.7,1.62.22,1.61Z"/><path d="M630.92,148.53a32.45,32.45,0,0,0,7.57.42c2.51,0,5.22.24,7.66-.37a1.26,1.26,0,0,0,0-2.41c-2.47-.51-5.15-.15-7.66-.08a32.51,32.51,0,0,0-7.57.72.9.9,0,0,0,0,1.72Z"/><g id="Group"><path id="Fill-1-Copy" d="M690.52,109.62l-3.87,1-.46.14c-.09,0-.23-.06-.24-.1s.1-.1.18-.1l.36-.2c2.2-1.16,4.41-2.3,6.59-3.48a30.74,30.74,0,0,0,4.89-2.66c2.16-1.73,4.2-3.6,6.3-5.41s-.52.56,1.81-1.44c-2.55-.23-4.91.18-7.27.07a38.22,38.22,0,0,1,9-1.59.81.81,0,0,0,.55-.27c3.29-2.85,3.15-3.54,6.62-6.15,1.32-1,2.61-2,4.08-3.14a24.1,24.1,0,0,0-5.89.5.67.67,0,0,1-.57.07l-.44.16-.28.07c-.09,0-.25,0-.25,0s.11-.11.19-.1a.21.21,0,0,1,.27-.14c.09-.16.24-.17.4-.17l.6-.16a14.07,14.07,0,0,1,4.76-1.11,7,7,0,0,0,4.93-1.83c1.43-1.5,2.8-2.84,4.37-4.21a1.18,1.18,0,0,0-.72-.24l-6.13.9a1.07,1.07,0,0,1-1-.14,55.33,55.33,0,0,1,9.6-2.74,6.25,6.25,0,0,0,1.68-1.22c1.17-1.4,1.28-1.88,2.35-3.35,1.81-2.48,3.45-5.06,3.86-8.2a2.92,2.92,0,0,0-2.49-3.63,10.2,10.2,0,0,0-2.91-.28,49.79,49.79,0,0,0-10.82,2.1c-2.39.63-4.55,1.55-6.07,3.62a1.5,1.5,0,0,1-1.18.77c.68-1,1.54-1.61,2.14-2.64-.29.07-.46.09-.63.15-6.11,2-3.76,1.3-9,5-2.09,1.45-4.93,4.19-6,6.52-.7,1.58-3,4.09-3.81,5.6,0,0-7.48,8.3-7.5,8.29L696.9,74.9c-1.25,1-2.38,1.83-3.49,2.71a147,147,0,0,0-13.09,11.46c-3.89,3.68-2.92,1.71-5.53,6.53a39.53,39.53,0,0,1-3.59,5.48l1.62-4.79c-3.62,2.46-4.39,6.65-6.46,10l.84-3.8a41.19,41.19,0,0,0-4.91,5.94A24.91,24.91,0,0,0,657.7,119c0,.08,0,.22-.08.24s-.15-.06-.14-.16c-1.92-1.81-2.06-4-1.37-6.4a6.15,6.15,0,0,0,.12,6.69,9.44,9.44,0,0,1,1.4,3.16,3.29,3.29,0,0,1-.68,3.14q-2.87,3.34-5.6,6.79c-2.66,3.34-5.37,6.65-7.73,10.22a5.67,5.67,0,0,0-1.19,4.65c.16-.15.26-.2.31-.29,4.44-6.43,9.08-12.69,14-18.72,3.66-4.42,6.52-8.74,10.27-13.49a109.75,109.75,0,0,1,14.71-15.49,170.12,170.12,0,0,1,25.45-18.71,21.16,21.16,0,0,1,3-.58c-1.13.86-2.27,1.7-3.4,2.57-2.83,2.17-31.24,26-39.62,35.55-2.23,2.55-4.45,5.1-6.56,7.77,1.88.4,2.61,2.36,4.28,2.95-.53-1-1.48-1.66-1.89-2.76,2.66,1.45,15.1-.88,14.26-1.22s-10.71,2-12.84.45c5.69-1.7,10.52-4.85,15.39-8.24-1.26-.37-2.45,0-3.66-.6,1.7-.23,3.21-.45,4.73-.62a3.11,3.11,0,0,0,1.53-.63c4.58-3.36,4-1.42,8.38-5,.16-.14.51-.25.35-.56S690.75,109.56,690.52,109.62Zm5.6,5.1a7.49,7.49,0,0,1-1,.86l-.21.15a20.09,20.09,0,0,1-5.51,3.42l-.23.09a11.22,11.22,0,0,0-1.1.49l-4.27,3a6.34,6.34,0,0,1,.35,1.71,6.88,6.88,0,0,1-2.67,6,6.87,6.87,0,0,1-2.2,1.18,18.68,18.68,0,0,1-2,.56c-.76.17-1.64.34-2.59.5l4.6,8.65-16.68-5.94a10.19,10.19,0,0,1-2-.93c-4.12,5.09-8.17,10.55-12.26,16.5l-.27.36c-.52.65-1.56,1.56-1,1.06l-8.47,7.89L635.78,149a11.28,11.28,0,0,1,.21-6.29,15.09,15.09,0,0,1,1.9-3.84c1.86-2.81,3.45-4.9,7-9.4l.23-.28.82-1c1.48-1.85,2.92-3.62,4.34-5.31a13,13,0,0,1-.3-13.36l3.06,1.22a41,41,0,0,1,3.56-6.16,48.49,48.49,0,0,1,5.73-6.9l1.36-1.35c.15-.25.3-.49.47-.75a17,17,0,0,1,4.78-5l1.19-.81.18-.3a12.3,12.3,0,0,1,2-2.6c.24-.23,2.19-1.84,3.2-2.81a155.62,155.62,0,0,1,13.54-11.83l.38-.31,3.18-2.47,26.93-20.93-5,8.79a23,23,0,0,1,4.15-1.49l.68-.18.17,0c5.32-1.42,7.93-2,11.45-2.1A17.09,17.09,0,0,1,736,54a9.74,9.74,0,0,1,7.64,11.18c-.54,4.14-2.15,7.28-5.13,11.37-.27.37-.36.51-.76,1.14l1,.59-2.49,2.18,1.49.09-10,7.69h0a12.14,12.14,0,0,1-3,2.29l-1.51,1.16-.65.5-7.51,6.47c-.71.71-1.29,1.25-2.25,2.08l0,0-.42.34a6.48,6.48,0,0,1-.72.49l-1.1,1c-.68.59-1,.87-1.31,1.09l-.32.23-.16.1h0l-1.89,1.65h0c-2.23,2-3.25,2.83-4.6,3.91a20.29,20.29,0,0,1-4.59,2.69A7.23,7.23,0,0,1,696.12,114.72Zm-34.27-.85a6.77,6.77,0,0,0-4.63-1.49l4.4,1.75Zm49.17-27h0Zm-17.44-13.8,0,0,0,0Z"/><path id="Fill-1" class="cls-4" d="M690.52,109.62c.23-.06.5-.23.66,0s-.19.42-.35.56c-4.39,3.61-3.8,1.67-8.38,5a3.11,3.11,0,0,1-1.53.63c-1.52.17-3,.39-4.73.62,1.21.57,2.4.23,3.66.6-4.87,3.39-9.7,6.54-15.39,8.24,2.13,1.55,12-.79,12.84-.45s-11.6,2.67-14.26,1.22c.41,1.1,1.36,1.76,1.89,2.76-1.67-.59-2.4-2.55-4.28-2.95,2.11-2.67,4.33-5.22,6.56-7.77,8.38-9.54,36.79-33.38,39.62-35.55,1.13-.87,2.27-1.71,3.4-2.57a21.16,21.16,0,0,0-3,.58,170.12,170.12,0,0,0-25.45,18.71,109.75,109.75,0,0,0-14.71,15.49c-3.75,4.75-6.61,9.07-10.27,13.49-5,6-9.61,12.29-14,18.72,0,.09-.15.14-.31.29a5.67,5.67,0,0,1,1.19-4.65c2.36-3.57,5.07-6.88,7.73-10.22q2.74-3.45,5.6-6.79a3.29,3.29,0,0,0,.68-3.14,9.44,9.44,0,0,0-1.4-3.16,6.15,6.15,0,0,1-.12-6.69c-.69,2.39-.55,4.59,1.37,6.4,0,.1,0,.2.14.16s0-.16.08-.24a24.91,24.91,0,0,1,4.59-10.52,41.19,41.19,0,0,1,4.91-5.94l-.84,3.8c2.07-3.39,2.84-7.58,6.46-10l-1.62,4.79a39.53,39.53,0,0,0,3.59-5.48c2.61-4.82,1.64-2.85,5.53-6.53a147,147,0,0,1,13.09-11.46c1.11-.88,2.24-1.74,3.49-2.71l-8.37,14.86s7.48-8.3,7.5-8.29c.86-1.51,3.11-4,3.81-5.6,1-2.33,3.87-5.07,6-6.52,5.28-3.67,2.93-3,9-5,.17-.06.34-.08.63-.15-.6,1-1.46,1.69-2.14,2.64a1.5,1.5,0,0,0,1.18-.77c1.52-2.07,3.68-3,6.07-3.62a49.79,49.79,0,0,1,10.82-2.1,10.2,10.2,0,0,1,2.91.28,2.92,2.92,0,0,1,2.49,3.63c-.41,3.14-2,5.72-3.86,8.2-1.07,1.47-1.18,2-2.35,3.35a6.25,6.25,0,0,1-1.68,1.22,55.33,55.33,0,0,0-9.6,2.74,1.07,1.07,0,0,0,1,.14l6.13-.9a1.18,1.18,0,0,1,.72.24c-1.57,1.37-2.94,2.71-4.37,4.21a7,7,0,0,1-4.93,1.83,14.07,14.07,0,0,0-4.76,1.11l-.6.16c-.16,0-.31,0-.4.17a.21.21,0,0,0-.27.14c-.08,0-.2-.06-.19.1s.16,0,.25,0l.28-.07.44-.16a.67.67,0,0,0,.57-.07,24.1,24.1,0,0,1,5.89-.5c-1.47,1.14-2.76,2.15-4.08,3.14-3.47,2.61-3.33,3.3-6.62,6.15a.81.81,0,0,1-.55.27,38.22,38.22,0,0,0-9,1.59c2.36.11,4.72-.3,7.27-.07-2.33,2,.39-.46-1.81,1.44s-4.14,3.68-6.3,5.41a30.74,30.74,0,0,1-4.89,2.66c-2.18,1.18-4.39,2.32-6.59,3.48l-.36.2c-.08,0-.2,0-.18.1s.15.06.24.1l.46-.14Z"/><path class="cls-5" d="M660.94,126.08c1-1.4,2.11-2.84,3.26-4.31,1-1.19,2-2.36,3.06-3.53A216.5,216.5,0,0,1,683.09,103C682.86,104.37,661.6,126.28,660.94,126.08ZM686.46,95.4l4.88-8.66c2.13-2.37,4.73-5.26,4.74-5.25.86-1.52,3.11-4,3.81-5.62,1-2.33,3.87-5.07,6-6.52,5.28-3.68,2.93-3,9-5a6.36,6.36,0,0,1,.62-.15,32,32,0,0,1-2.14,2.64,1.46,1.46,0,0,0,1.18-.77c1.52-2.07,3.68-3,6.07-3.63a49.63,49.63,0,0,1,10.8-2.11,10.5,10.5,0,0,1,2.91.27,2.94,2.94,0,0,1,2.49,3.64,15.46,15.46,0,0,1-2.6,6.38,2.91,2.91,0,0,0-2.5-3.53,10.5,10.5,0,0,0-2.91-.27A49.63,49.63,0,0,0,718,68.94c-2.39.64-4.55,1.56-6.07,3.63a1.46,1.46,0,0,1-1.18.77,32,32,0,0,0,2.14-2.64c-.29.07-.46.1-.62.15-6.11,2-3.76,1.31-9,5-2.09,1.45-4.93,4.19-6,6.53-.69,1.58-2.95,4.09-3.81,5.61,0,0-3.63,4-5.84,6.47ZM655,130.58c-1.28,1.61-11.35,15-12.55,16.7-.37-1.75,9.2-15,10.06-16.26C654.85,127.44,657.89,126.53,655,130.58Zm1.31-11.13a6.16,6.16,0,0,1-.12-6.7c-.67,2.31-.56,4.45,1.17,6.22-.21.41-.41.82-.59,1.24C656.61,120,656.46,119.69,656.3,119.45Zm6.05-10.91a42.5,42.5,0,0,1,4.92-5.94c-.28,1.26-.57,2.53-.85,3.8,2.07-3.4,2.84-7.59,6.47-10.06-.53,1.55-1,3.08-1.63,4.79a37.54,37.54,0,0,0,3.59-5.48c2.62-4.83,1.65-2.85,5.53-6.54a147.27,147.27,0,0,1,13.09-11.48c1.1-.89,2.23-1.75,3.48-2.72l-4.46,7.92c-.56.44-1.1.86-1.63,1.29A148.69,148.69,0,0,0,677.77,95.6c-3.88,3.69-2.91,1.71-5.53,6.54a38.16,38.16,0,0,1-3.59,5.49c.59-1.72,1.1-3.25,1.63-4.8-3.63,2.47-4.4,6.66-6.47,10.06.28-1.27.57-2.54.85-3.8a42.5,42.5,0,0,0-4.92,5.94c-.62.9-1.21,1.82-1.74,2.75A26.48,26.48,0,0,1,662.35,108.54Z"/></g></g></svg>