<?xml version="1.0" encoding="UTF-8"?>
<svg width="882px" height="300px" viewBox="0 0 882 300" version="1.1" xmlns="http://www.w3.org/2000/svg" xmlns:xlink="http://www.w3.org/1999/xlink">
    <!-- Generator: Sketch 61 (89581) - https://sketch.com -->
    <title>Group</title>
    <desc>Created with Sketch.</desc>
    <g id="Github-Covers" stroke="none" stroke-width="1" fill="none" fill-rule="evenodd">
        <g id="Live-OKR">
            <g id="Group">
                <rect id="Rectangle" fill="#FFFFFF" fill-rule="nonzero" x="0" y="0" width="882" height="300"></rect>
                <rect id="Rectangle" fill="#000000" fill-rule="nonzero" x="0" y="0" width="882" height="210"></rect>
                <rect id="Rectangle" fill="#1F242C" fill-rule="nonzero" x="620" y="105" width="52.5" height="52.5"></rect>
                <polygon id="Path" fill="#1F242C" fill-rule="nonzero" points="625.837 157.5 620 157.5 620 163.337 625.837 163.337"></polygon>
                <polygon id="Path" fill="#1F242C" fill-rule="nonzero" points="631.674 163.337 625.837 163.337 625.837 169.174 631.674 169.174"></polygon>
                <polygon id="Path" fill="#1F242C" fill-rule="nonzero" points="637.494 157.5 631.658 157.5 631.658 163.337 637.494 163.337"></polygon>
                <polygon id="Path" fill="#1F242C" fill-rule="nonzero" points="625.837 169.158 620 169.158 620 174.995 625.837 174.995"></polygon>
                <polygon id="Path" fill="#1F242C" fill-rule="nonzero" points="637.494 169.158 631.658 169.158 631.658 174.995 637.494 174.995"></polygon>
                <polygon id="Path" fill="#1F242C" fill-rule="nonzero" points="643.332 163.337 637.496 163.337 637.496 169.174 643.332 169.174"></polygon>
                <polygon id="Path" fill="#1F242C" fill-rule="nonzero" points="631.674 174.995 625.837 174.995 625.837 180.832 631.674 180.832"></polygon>
                <polygon id="Path" fill="#1F242C" fill-rule="nonzero" points="625.837 180.832 620 180.832 620 186.669 625.837 186.669"></polygon>
                <polygon id="Path" fill="#1F242C" fill-rule="nonzero" points="637.494 180.832 631.658 180.832 631.658 186.669 637.494 186.669"></polygon>
                <polygon id="Path" fill="#1F242C" fill-rule="nonzero" points="643.332 174.995 637.496 174.995 637.496 180.832 643.332 180.832"></polygon>
                <polygon id="Path" fill="#1F242C" fill-rule="nonzero" points="631.674 186.668 625.837 186.668 625.837 192.505 631.674 192.505"></polygon>
                <polygon id="Path" fill="#1F242C" fill-rule="nonzero" points="625.837 192.489 620 192.489 620 198.326 625.837 198.326"></polygon>
                <polygon id="Path" fill="#1F242C" fill-rule="nonzero" points="637.494 192.489 631.658 192.489 631.658 198.326 637.494 198.326"></polygon>
                <polygon id="Path" fill="#1F242C" fill-rule="nonzero" points="643.332 186.668 637.496 186.668 637.496 192.505 643.332 192.505"></polygon>
                <polygon id="Path" fill="#1F242C" fill-rule="nonzero" points="631.674 198.326 625.837 198.326 625.837 204.163 631.674 204.163"></polygon>
                <polygon id="Path" fill="#1F242C" fill-rule="nonzero" points="625.837 204.164 620 204.164 620 210.001 625.837 210.001"></polygon>
                <polygon id="Path" fill="#1F242C" fill-rule="nonzero" points="637.494 204.164 631.658 204.164 631.658 210.001 637.494 210.001"></polygon>
                <polygon id="Path" fill="#1F242C" fill-rule="nonzero" points="643.332 198.326 637.496 198.326 637.496 204.163 643.332 204.163"></polygon>
                <polygon id="Path" fill="#1F242C" fill-rule="nonzero" points="649.168 157.5 643.331 157.5 643.331 163.337 649.168 163.337"></polygon>
                <polygon id="Path" fill="#1F242C" fill-rule="nonzero" points="655.006 163.337 649.169 163.337 649.169 169.174 655.006 169.174"></polygon>
                <polygon id="Path" fill="#1F242C" fill-rule="nonzero" points="660.826 157.5 654.99 157.5 654.99 163.337 660.826 163.337"></polygon>
                <polygon id="Path" fill="#1F242C" fill-rule="nonzero" points="649.168 169.158 643.331 169.158 643.331 174.995 649.168 174.995"></polygon>
                <polygon id="Path" fill="#1F242C" fill-rule="nonzero" points="660.826 169.158 654.99 169.158 654.99 174.995 660.826 174.995"></polygon>
                <polygon id="Path" fill="#1F242C" fill-rule="nonzero" points="666.663 163.337 660.826 163.337 660.826 169.174 666.663 169.174"></polygon>
                <polygon id="Path" fill="#1F242C" fill-rule="nonzero" points="655.006 174.995 649.169 174.995 649.169 180.832 655.006 180.832"></polygon>
                <polygon id="Path" fill="#1F242C" fill-rule="nonzero" points="649.168 180.832 643.331 180.832 643.331 186.669 649.168 186.669"></polygon>
                <polygon id="Path" fill="#1F242C" fill-rule="nonzero" points="660.826 180.832 654.99 180.832 654.99 186.669 660.826 186.669"></polygon>
                <polygon id="Path" fill="#1F242C" fill-rule="nonzero" points="666.663 174.995 660.826 174.995 660.826 180.832 666.663 180.832"></polygon>
                <polygon id="Path" fill="#1F242C" fill-rule="nonzero" points="655.006 186.668 649.169 186.668 649.169 192.505 655.006 192.505"></polygon>
                <polygon id="Path" fill="#1F242C" fill-rule="nonzero" points="649.168 192.489 643.331 192.489 643.331 198.326 649.168 198.326"></polygon>
                <polygon id="Path" fill="#1F242C" fill-rule="nonzero" points="660.826 192.489 654.99 192.489 654.99 198.326 660.826 198.326"></polygon>
                <polygon id="Path" fill="#1F242C" fill-rule="nonzero" points="666.663 186.668 660.826 186.668 660.826 192.505 666.663 192.505"></polygon>
                <polygon id="Path" fill="#1F242C" fill-rule="nonzero" points="655.006 198.326 649.169 198.326 649.169 204.163 655.006 204.163"></polygon>
                <polygon id="Path" fill="#1F242C" fill-rule="nonzero" points="649.168 204.164 643.331 204.164 643.331 210.001 649.168 210.001"></polygon>
                <polygon id="Path" fill="#1F242C" fill-rule="nonzero" points="660.826 204.164 654.99 204.164 654.99 210.001 660.826 210.001"></polygon>
                <polygon id="Path" fill="#1F242C" fill-rule="nonzero" points="672.5 157.5 666.663 157.5 666.663 163.337 672.5 163.337"></polygon>
                <polygon id="Path" fill="#1F242C" fill-rule="nonzero" points="672.5 169.158 666.663 169.158 666.663 174.995 672.5 174.995"></polygon>
                <polygon id="Path" fill="#1F242C" fill-rule="nonzero" points="672.5 180.832 666.663 180.832 666.663 186.669 672.5 186.669"></polygon>
                <polygon id="Path" fill="#1F242C" fill-rule="nonzero" points="672.5 192.489 666.663 192.489 666.663 198.326 672.5 198.326"></polygon>
                <polygon id="Path" fill="#1F242C" fill-rule="nonzero" points="672.5 204.164 666.663 204.164 666.663 210.001 672.5 210.001"></polygon>
                <polygon id="Path" fill="#1F242C" fill-rule="nonzero" points="666.663 198.326 660.826 198.326 660.826 204.163 666.663 204.163"></polygon>
                <rect id="Rectangle" fill="#1F242C" fill-rule="nonzero" x="631.667" y="52.5" width="5.83333" height="52.5"></rect>
                <rect id="Rectangle" fill="#1F242C" fill-rule="nonzero" x="643.333" y="52.5" width="5.83333" height="52.5"></rect>
                <rect id="Rectangle" fill="#1F242C" fill-rule="nonzero" x="655" y="52.5" width="5.83333" height="52.5"></rect>
                <rect id="Rectangle" fill="#1F242C" fill-rule="nonzero" x="666.667" y="52.5" width="5.83333" height="52.5"></rect>
                <rect id="Rectangle" fill="#1F242C" fill-rule="nonzero" x="620" y="52.5" width="5.83668" height="52.5"></rect>
                <rect id="Rectangle" fill="#1F242C" fill-rule="nonzero" transform="translate(552.916335, 131.250000) rotate(-180.000000) translate(-552.916335, -131.250000) " x="549.99967" y="105" width="5.83333" height="52.5"></rect>
                <rect id="Rectangle" fill="#1F242C" fill-rule="nonzero" transform="translate(541.250335, 131.250000) rotate(-180.000000) translate(-541.250335, -131.250000) " x="538.33367" y="105" width="5.83333" height="52.5"></rect>
                <rect id="Rectangle" fill="#1F242C" fill-rule="nonzero" transform="translate(529.583335, 131.250000) rotate(-180.000000) translate(-529.583335, -131.250000) " x="526.66667" y="105" width="5.83333" height="52.5"></rect>
                <rect id="Rectangle" fill="#1F242C" fill-rule="nonzero" transform="translate(517.916335, 131.250000) rotate(-180.000000) translate(-517.916335, -131.250000) " x="514.99967" y="105" width="5.83333" height="52.5"></rect>
                <rect id="Rectangle" fill="#1F242C" fill-rule="nonzero" transform="translate(564.581660, 131.250000) rotate(-180.000000) translate(-564.581660, -131.250000) " x="561.66332" y="105" width="5.83668" height="52.5"></rect>
                <rect id="Rectangle" fill="#1F242C" fill-rule="nonzero" transform="translate(867.588335, 27.234400) rotate(-180.000000) translate(-867.588335, -27.234400) " x="864.67167" y="0.9844" width="5.83333" height="52.5"></rect>
                <rect id="Rectangle" fill="#1F242C" fill-rule="nonzero" transform="translate(855.921335, 27.234400) rotate(-180.000000) translate(-855.921335, -27.234400) " x="853.00467" y="0.9844" width="5.83333" height="52.5"></rect>
                <rect id="Rectangle" fill="#1F242C" fill-rule="nonzero" transform="translate(844.255335, 27.234400) rotate(-180.000000) translate(-844.255335, -27.234400) " x="841.33867" y="0.9844" width="5.83333" height="52.5"></rect>
                <rect id="Rectangle" fill="#1F242C" fill-rule="nonzero" transform="translate(832.588335, 27.234400) rotate(-180.000000) translate(-832.588335, -27.234400) " x="829.67167" y="0.9844" width="5.83333" height="52.5"></rect>
                <rect id="Rectangle" fill="#1F242C" fill-rule="nonzero" transform="translate(879.253660, 27.234400) rotate(-180.000000) translate(-879.253660, -27.234400) " x="876.33532" y="0.9844" width="5.83668" height="52.5"></rect>
                <path d="M567.5,163.333 L567.5,157.5 C596.495,157.5 620,181.005 620,210 L614.167,210 C614.167,184.227 593.273,163.333 567.5,163.333 Z M567.5,175 L567.5,169.166 C590.052,169.166 608.333,187.448 608.333,210 L602.5,210 C602.5,190.67 586.83,175 567.5,175 Z M567.5,180.834 L567.5,186.667 C580.387,186.667 590.833,197.114 590.833,210 L596.667,210 C596.667,193.892 583.608,180.834 567.5,180.834 Z M567.5,198.333 L567.5,192.5 C577.165,192.5 585,200.335 585,210 L579.167,210 C579.167,203.557 573.943,198.333 567.5,198.333 Z M567.5,210 L567.5,204.166 C570.722,204.166 573.333,206.778 573.333,210 L567.5,210 Z" id="Shape" fill="#1F242C"></path>
                <path d="M777,110.833 L777,105 C805.995,105 829.5,128.505 829.5,157.5 L823.667,157.5 C823.667,131.727 802.773,110.833 777,110.833 Z M777,122.5 L777,116.667 C799.552,116.667 817.833,134.949 817.833,157.5 L812,157.5 C812,138.17 796.33,122.5 777,122.5 Z M777,128.333 L777,134.167 C789.887,134.167 800.333,144.613 800.333,157.5 L806.167,157.5 C806.167,141.392 793.108,128.333 777,128.333 Z M777,145.833 L777,140 C786.665,140 794.5,147.835 794.5,157.5 L788.667,157.5 C788.667,151.056 783.443,145.833 777,145.833 Z M777,157.5 L777,151.667 C780.222,151.667 782.833,154.279 782.833,157.5 L777,157.5 Z" id="Shape" fill="#1F242C"></path>
                <path d="M729.112,52.5 L725,52.5 L725,48.3875 L773.387,0 L777.5,0 L777.5,4.1125 L729.112,52.5 Z M765.133,0 L756.879,0 L725,31.8791 L725,40.1333 L765.133,0 Z M748.625,0 L740.371,0 L725,15.3708 L725,23.625 L748.625,0 Z M725,0 L725,7.11666 L732.116,0 L725,0 Z M777.5,20.6208 L777.5,12.3667 L737.366,52.5 L745.621,52.5 L777.5,20.6208 Z M777.5,37.1291 L777.5,28.875 L753.875,52.5 L762.129,52.5 L777.5,37.1291 Z M777.5,45.3833 L770.383,52.5 L777.5,52.5 L777.5,45.3833 Z" id="Shape" fill="#1F242C" fill-rule="nonzero"></path>
                <path d="M672.5,105 L725,105 L725,52.5 C696.005,52.5 672.5,76.0051 672.5,105 Z" id="Path" fill="#1F242C" fill-rule="nonzero"></path>
                <path d="M777.5,157.5 L777.5,105 L725,105 C725,133.995 748.505,157.5 777.5,157.5 Z" id="Path" fill="#1F242C" fill-rule="nonzero"></path>
                <path d="M64.4062,101 L64.4062,68.3516 L68.9766,68.3516 L68.9766,96.9219 L83.7656,96.9219 L83.7656,101 L64.4062,101 Z M88.5,72.875 L88.5,68.3516 L93,68.3516 L93,72.875 L88.5,72.875 Z M88.5938,101 L88.5938,76.5312 L92.9062,76.5312 L92.9062,101 L88.5938,101 Z M98.2266,76.5312 L102.891,76.5312 L109.031,95.8672 L109.219,95.8672 L115.477,76.5312 L119.93,76.5312 L111.141,101 L107.016,101 L98.2266,76.5312 Z M123.961,88.7656 C123.961,86.9062 124.188,85.1875 124.641,83.6094 C125.109,82.0156 125.797,80.6641 126.703,79.5547 C127.625,78.4297 128.734,77.5469 130.031,76.9062 C131.328,76.2656 132.82,75.9453 134.508,75.9453 C136.273,75.9453 137.812,76.25 139.125,76.8594 C140.438,77.4688 141.523,78.3047 142.383,79.3672 C143.242,80.4141 143.891,81.6484 144.328,83.0703 C144.766,84.4922 144.984,86.0234 144.984,87.6641 L144.984,89.9609 L128.508,89.9609 L128.508,92.5625 C128.508,93.4531 128.672,94.2422 129,94.9297 C129.344,95.6172 129.805,96.2031 130.383,96.6875 C130.961,97.1562 131.609,97.5156 132.328,97.7656 C133.047,98 133.789,98.1172 134.555,98.1172 C136.086,98.1172 137.414,97.7266 138.539,96.9453 C139.664,96.1641 140.305,94.9219 140.461,93.2188 L144.797,93.2188 C144.703,94.5312 144.359,95.7031 143.766,96.7344 C143.172,97.75 142.398,98.6172 141.445,99.3359 C140.508,100.055 139.445,100.609 138.258,101 C137.07,101.391 135.82,101.586 134.508,101.586 C132.742,101.586 131.195,101.266 129.867,100.625 C128.555,99.9844 127.453,99.1016 126.562,97.9766 C125.688,96.8516 125.031,95.5078 124.594,93.9453 C124.172,92.3828 123.961,90.6562 123.961,88.7656 Z M128.508,86.5156 L140.508,86.5156 L140.508,85.1562 C140.508,84.2656 140.344,83.4609 140.016,82.7422 C139.703,82.0234 139.266,81.4141 138.703,80.9141 C138.156,80.4141 137.516,80.0391 136.781,79.7891 C136.062,79.5234 135.305,79.3906 134.508,79.3906 C133.711,79.3906 132.953,79.5234 132.234,79.7891 C131.516,80.0391 130.875,80.4141 130.312,80.9141 C129.75,81.4141 129.305,82.0234 128.977,82.7422 C128.664,83.4609 128.508,84.2656 128.508,85.1562 L128.508,86.5156 Z M162.68,84.6875 C162.68,82.125 162.953,79.7969 163.5,77.7031 C164.047,75.6094 164.883,73.8203 166.008,72.3359 C167.148,70.8359 168.594,69.6797 170.344,68.8672 C172.109,68.0547 174.227,67.6484 176.695,67.6484 C179.164,67.6484 181.273,68.0547 183.023,68.8672 C184.789,69.6797 186.234,70.8359 187.359,72.3359 C188.5,73.8203 189.344,75.6094 189.891,77.7031 C190.438,79.7969 190.711,82.125 190.711,84.6875 C190.711,87.25 190.438,89.5781 189.891,91.6719 C189.344,93.7656 188.5,95.5547 187.359,97.0391 C186.234,98.5234 184.789,99.6797 183.023,100.508 C181.273,101.32 179.164,101.727 176.695,101.727 C174.227,101.727 172.109,101.32 170.344,100.508 C168.594,99.6797 167.148,98.5234 166.008,97.0391 C164.883,95.5547 164.047,93.7656 163.5,91.6719 C162.953,89.5781 162.68,87.25 162.68,84.6875 Z M167.719,89.7266 C167.719,90.9766 167.945,92.0938 168.398,93.0781 C168.867,94.0469 169.508,94.8828 170.32,95.5859 C171.148,96.2891 172.102,96.8281 173.18,97.2031 C174.273,97.5625 175.445,97.7422 176.695,97.7422 C177.945,97.7422 179.109,97.5625 180.188,97.2031 C181.281,96.8281 182.234,96.2891 183.047,95.5859 C183.875,94.8828 184.516,94.0469 184.969,93.0781 C185.438,92.0938 185.672,90.9766 185.672,89.7266 L185.672,79.6484 C185.672,78.3984 185.438,77.2891 184.969,76.3203 C184.516,75.3359 183.875,74.4922 183.047,73.7891 C182.234,73.0859 181.281,72.5547 180.188,72.1953 C179.109,71.8203 177.945,71.6328 176.695,71.6328 C175.445,71.6328 174.273,71.8203 173.18,72.1953 C172.102,72.5547 171.148,73.0859 170.32,73.7891 C169.508,74.4922 168.867,75.3359 168.398,76.3203 C167.945,77.2891 167.719,78.3984 167.719,79.6484 L167.719,89.7266 Z M198.047,101 L198.047,68.3516 L202.617,68.3516 L202.617,101 L198.047,101 Z M202.711,83.5859 L216.258,68.3516 L221.812,68.3516 L208.031,83.5859 L223.008,101 L217.453,101 L202.711,83.5859 Z M228.234,101 L228.234,68.3516 L240.539,68.3516 C242.242,68.3516 243.742,68.5469 245.039,68.9375 C246.352,69.3281 247.438,69.9219 248.297,70.7188 C249.156,71.5156 249.781,72.5 250.172,73.6719 C250.562,74.8281 250.758,76.1797 250.758,77.7266 C250.758,79.1641 250.57,80.4688 250.195,81.6406 C249.836,82.7969 249.242,83.7969 248.414,84.6406 C247.773,85.2812 247.023,85.8125 246.164,86.2344 C245.32,86.6406 244.258,86.9219 242.977,87.0781 L251.039,101 L245.812,101 L238.172,87.2188 L232.805,87.2188 L232.805,101 L228.234,101 Z M232.805,83.3281 L242.203,83.3281 C243.422,83.3281 244.352,82.9609 244.992,82.2266 C245.633,81.4922 245.953,80.6172 245.953,79.6016 L245.953,75.9922 C245.953,74.8672 245.617,73.9922 244.945,73.3672 C244.273,72.7422 243.359,72.4297 242.203,72.4297 L232.805,72.4297 L232.805,83.3281 Z" id="Shape" fill="#FFFFFF" fill-rule="nonzero"></path>
                <path d="M61.4091,145 L68.2273,145 L68.2273,143.75 L62.8182,143.75 L62.8182,133.364 L61.4091,133.364 L61.4091,145 Z M73.8864,145.182 C75.6591,145.182 76.9545,144.295 77.3636,142.977 L76.0682,142.614 C75.7273,143.523 74.9375,143.977 73.8864,143.977 C72.3125,143.977 71.2273,142.96 71.1648,141.091 L77.5,141.091 L77.5,140.523 C77.5,137.273 75.5682,136.159 73.75,136.159 C71.3864,136.159 69.8182,138.023 69.8182,140.705 C69.8182,143.386 71.3636,145.182 73.8864,145.182 Z M71.1648,139.932 C71.2557,138.574 72.2159,137.364 73.75,137.364 C75.2045,137.364 76.1364,138.455 76.1364,139.932 L71.1648,139.932 Z M82.108,145.205 C83.6307,145.205 84.4261,144.386 84.6989,143.818 L84.767,143.818 L84.767,145 L86.108,145 L86.108,139.25 C86.108,136.477 83.9943,136.159 82.8807,136.159 C81.5625,136.159 80.0625,136.614 79.3807,138.205 L80.6534,138.659 C80.9489,138.023 81.6477,137.341 82.9261,137.341 C84.1591,137.341 84.767,137.994 84.767,139.114 L84.767,139.159 C84.767,139.807 84.108,139.75 82.517,139.955 C80.8977,140.165 79.1307,140.523 79.1307,142.523 C79.1307,144.227 80.4489,145.205 82.108,145.205 Z M82.3125,144 C81.2443,144 80.4716,143.523 80.4716,142.591 C80.4716,141.568 81.4034,141.25 82.4489,141.114 C83.017,141.045 84.5398,140.886 84.767,140.614 L84.767,141.841 C84.767,142.932 83.9034,144 82.3125,144 Z M88.5554,145 L89.8963,145 L89.8963,139.477 C89.8963,138.295 90.8281,137.432 92.1009,137.432 C92.4588,137.432 92.8281,137.5 92.919,137.523 L92.919,136.159 C92.7656,136.148 92.4134,136.136 92.2145,136.136 C91.169,136.136 90.2599,136.727 89.9418,137.591 L89.8509,137.591 L89.8509,136.273 L88.5554,136.273 L88.5554,145 Z M95.8494,139.75 C95.8494,138.227 96.7926,137.364 98.0767,137.364 C99.321,137.364 100.077,138.176 100.077,139.545 L100.077,145 L101.418,145 L101.418,139.455 C101.418,137.227 100.23,136.159 98.4631,136.159 C97.1449,136.159 96.3267,136.75 95.9176,137.636 L95.804,137.636 L95.804,136.273 L94.5085,136.273 L94.5085,145 L95.8494,145 L95.8494,139.75 Z M109.709,139.75 C109.709,138.227 110.68,137.364 112.004,137.364 C113.266,137.364 114.027,138.159 114.027,139.545 L114.027,145 L115.368,145 L115.368,139.455 C115.368,137.21 114.175,136.159 112.391,136.159 C111.016,136.159 110.232,136.733 109.822,137.636 L109.709,137.636 L109.709,133.364 L108.368,133.364 L108.368,145 L109.709,145 L109.709,139.75 Z M121.366,145.182 C123.73,145.182 125.321,143.386 125.321,140.682 C125.321,137.955 123.73,136.159 121.366,136.159 C119.003,136.159 117.412,137.955 117.412,140.682 C117.412,143.386 119.003,145.182 121.366,145.182 Z M121.366,143.977 C119.571,143.977 118.753,142.432 118.753,140.682 C118.753,138.932 119.571,137.364 121.366,137.364 C123.162,137.364 123.98,138.932 123.98,140.682 C123.98,142.432 123.162,143.977 121.366,143.977 Z M129.048,145 L130.366,145 L132.276,138.295 L132.412,138.295 L134.321,145 L135.639,145 L138.298,136.273 L136.889,136.273 L135.003,142.932 L134.912,142.932 L133.071,136.273 L131.639,136.273 L129.776,142.955 L129.685,142.955 L127.798,136.273 L126.389,136.273 L129.048,145 Z M146.548,145 L147.866,145 L149.776,138.295 L149.912,138.295 L151.821,145 L153.139,145 L155.798,136.273 L154.389,136.273 L152.503,142.932 L152.412,142.932 L150.571,136.273 L149.139,136.273 L147.276,142.955 L147.185,142.955 L145.298,136.273 L143.889,136.273 L146.548,145 Z M160.933,145.182 C162.706,145.182 164.001,144.295 164.411,142.977 L163.115,142.614 C162.774,143.523 161.984,143.977 160.933,143.977 C159.359,143.977 158.274,142.96 158.212,141.091 L164.547,141.091 L164.547,140.523 C164.547,137.273 162.615,136.159 160.797,136.159 C158.433,136.159 156.865,138.023 156.865,140.705 C156.865,143.386 158.411,145.182 160.933,145.182 Z M158.212,139.932 C158.303,138.574 159.263,137.364 160.797,137.364 C162.251,137.364 163.183,138.455 163.183,139.932 L158.212,139.932 Z M176.587,141.432 C176.587,143.068 175.337,143.818 174.337,143.818 C173.223,143.818 172.428,143 172.428,141.727 L172.428,136.273 L171.087,136.273 L171.087,141.818 C171.087,144.045 172.268,145.114 173.905,145.114 C175.223,145.114 176.087,144.409 176.496,143.523 L176.587,143.523 L176.587,145 L177.928,145 L177.928,136.273 L176.587,136.273 L176.587,141.432 Z M186.565,138.227 C186.145,136.989 185.202,136.159 183.474,136.159 C181.634,136.159 180.27,137.205 180.27,138.682 C180.27,139.886 180.986,140.693 182.588,141.068 L184.043,141.409 C184.923,141.614 185.338,142.034 185.338,142.636 C185.338,143.386 184.543,144 183.293,144 C182.196,144 181.509,143.528 181.27,142.591 L179.997,142.909 C180.31,144.392 181.531,145.182 183.315,145.182 C185.344,145.182 186.724,144.074 186.724,142.568 C186.724,141.352 185.963,140.585 184.406,140.205 L183.111,139.886 C182.077,139.631 181.611,139.284 181.611,138.614 C181.611,137.864 182.406,137.318 183.474,137.318 C184.645,137.318 185.128,137.966 185.361,138.568 L186.565,138.227 Z M192.402,145.182 C194.175,145.182 195.47,144.295 195.879,142.977 L194.584,142.614 C194.243,143.523 193.453,143.977 192.402,143.977 C190.828,143.977 189.743,142.96 189.68,141.091 L196.016,141.091 L196.016,140.523 C196.016,137.273 194.084,136.159 192.266,136.159 C189.902,136.159 188.334,138.023 188.334,140.705 C188.334,143.386 189.879,145.182 192.402,145.182 Z M189.68,139.932 C189.771,138.574 190.732,137.364 192.266,137.364 C193.72,137.364 194.652,138.455 194.652,139.932 L189.68,139.932 Z M212.555,139.182 C212.555,135.5 210.396,133.205 207.419,133.205 C204.442,133.205 202.283,135.5 202.283,139.182 C202.283,142.864 204.442,145.159 207.419,145.159 C210.396,145.159 212.555,142.864 212.555,139.182 Z M211.192,139.182 C211.192,142.205 209.533,143.841 207.419,143.841 C205.305,143.841 203.646,142.205 203.646,139.182 C203.646,136.159 205.305,134.523 207.419,134.523 C209.533,134.523 211.192,136.159 211.192,139.182 Z M214.925,145 L216.22,145 L216.22,143.659 L216.379,143.659 C216.675,144.136 217.243,145.182 218.925,145.182 C221.107,145.182 222.629,143.432 222.629,140.659 C222.629,137.909 221.107,136.159 218.902,136.159 C217.197,136.159 216.675,137.205 216.379,137.659 L216.266,137.659 L216.266,133.364 L214.925,133.364 L214.925,145 Z M216.243,140.636 C216.243,138.682 217.107,137.364 218.743,137.364 C220.447,137.364 221.288,138.795 221.288,140.636 C221.288,142.5 220.425,143.977 218.743,143.977 C217.129,143.977 216.243,142.614 216.243,140.636 Z M224.68,136.273 L224.68,145.636 C224.68,146.523 224.317,147.023 223.499,147.023 L223.249,147.023 L223.249,148.273 L223.521,148.273 C225.203,148.273 226.021,147.25 226.021,145.636 L226.021,136.273 L224.68,136.273 Z M225.339,134.818 C225.862,134.818 226.294,134.409 226.294,133.909 C226.294,133.409 225.862,133 225.339,133 C224.817,133 224.385,133.409 224.385,133.909 C224.385,134.409 224.817,134.818 225.339,134.818 Z M232.136,145.182 C233.909,145.182 235.205,144.295 235.614,142.977 L234.318,142.614 C233.977,143.523 233.188,143.977 232.136,143.977 C230.562,143.977 229.477,142.96 229.415,141.091 L235.75,141.091 L235.75,140.523 C235.75,137.273 233.818,136.159 232,136.159 C229.636,136.159 228.068,138.023 228.068,140.705 C228.068,143.386 229.614,145.182 232.136,145.182 Z M229.415,139.932 C229.506,138.574 230.466,137.364 232,137.364 C233.455,137.364 234.386,138.455 234.386,139.932 L229.415,139.932 Z M241.335,145.182 C243.267,145.182 244.54,144 244.767,142.455 L243.426,142.455 C243.176,143.409 242.381,143.977 241.335,143.977 C239.744,143.977 238.722,142.659 238.722,140.636 C238.722,138.659 239.767,137.364 241.335,137.364 C242.517,137.364 243.222,138.091 243.426,138.886 L244.767,138.886 C244.54,137.25 243.153,136.159 241.312,136.159 C238.949,136.159 237.381,138.023 237.381,140.682 C237.381,143.295 238.881,145.182 241.335,145.182 Z M250.523,136.273 L248.659,136.273 L248.659,134.182 L247.318,134.182 L247.318,136.273 L246,136.273 L246,137.409 L247.318,137.409 L247.318,142.864 C247.318,144.386 248.545,145.114 249.682,145.114 C250.182,145.114 250.5,145.023 250.682,144.955 L250.409,143.75 C250.295,143.773 250.114,143.818 249.818,143.818 C249.227,143.818 248.659,143.636 248.659,142.5 L248.659,137.409 L250.523,137.409 L250.523,136.273 Z M252.54,145 L253.881,145 L253.881,136.273 L252.54,136.273 L252.54,145 Z M253.222,134.818 C253.744,134.818 254.176,134.409 254.176,133.909 C254.176,133.409 253.744,133 253.222,133 C252.699,133 252.267,133.409 252.267,133.909 C252.267,134.409 252.699,134.818 253.222,134.818 Z M263.473,136.273 L262.018,136.273 L259.609,143.227 L259.518,143.227 L257.109,136.273 L255.655,136.273 L258.882,145 L260.246,145 L263.473,136.273 Z M268.589,145.182 C270.362,145.182 271.658,144.295 272.067,142.977 L270.771,142.614 C270.43,143.523 269.641,143.977 268.589,143.977 C267.016,143.977 265.93,142.96 265.868,141.091 L272.203,141.091 L272.203,140.523 C272.203,137.273 270.271,136.159 268.453,136.159 C266.089,136.159 264.521,138.023 264.521,140.705 C264.521,143.386 266.067,145.182 268.589,145.182 Z M265.868,139.932 C265.959,138.574 266.919,137.364 268.453,137.364 C269.908,137.364 270.839,138.455 270.839,139.932 L265.868,139.932 Z M280.425,138.227 C280.004,136.989 279.061,136.159 277.334,136.159 C275.493,136.159 274.129,137.205 274.129,138.682 C274.129,139.886 274.845,140.693 276.447,141.068 L277.902,141.409 C278.783,141.614 279.197,142.034 279.197,142.636 C279.197,143.386 278.402,144 277.152,144 C276.055,144 275.368,143.528 275.129,142.591 L273.857,142.909 C274.169,144.392 275.391,145.182 277.175,145.182 C279.203,145.182 280.584,144.074 280.584,142.568 C280.584,141.352 279.822,140.585 278.266,140.205 L276.97,139.886 C275.936,139.631 275.47,139.284 275.47,138.614 C275.47,137.864 276.266,137.318 277.334,137.318 C278.504,137.318 278.987,137.966 279.22,138.568 L280.425,138.227 Z M289.67,145.205 C291.193,145.205 291.989,144.386 292.261,143.818 L292.33,143.818 L292.33,145 L293.67,145 L293.67,139.25 C293.67,136.477 291.557,136.159 290.443,136.159 C289.125,136.159 287.625,136.614 286.943,138.205 L288.216,138.659 C288.511,138.023 289.21,137.341 290.489,137.341 C291.722,137.341 292.33,137.994 292.33,139.114 L292.33,139.159 C292.33,139.807 291.67,139.75 290.08,139.955 C288.46,140.165 286.693,140.523 286.693,142.523 C286.693,144.227 288.011,145.205 289.67,145.205 Z M289.875,144 C288.807,144 288.034,143.523 288.034,142.591 C288.034,141.568 288.966,141.25 290.011,141.114 C290.58,141.045 292.102,140.886 292.33,140.614 L292.33,141.841 C292.33,142.932 291.466,144 289.875,144 Z M297.459,139.75 C297.459,138.227 298.402,137.364 299.686,137.364 C300.93,137.364 301.686,138.176 301.686,139.545 L301.686,145 L303.027,145 L303.027,139.455 C303.027,137.227 301.839,136.159 300.072,136.159 C298.754,136.159 297.936,136.75 297.527,137.636 L297.413,137.636 L297.413,136.273 L296.118,136.273 L296.118,145 L297.459,145 L297.459,139.75 Z M308.773,145.182 C310.455,145.182 311.023,144.136 311.318,143.659 L311.477,143.659 L311.477,145 L312.773,145 L312.773,133.364 L311.432,133.364 L311.432,137.659 L311.318,137.659 C311.023,137.205 310.5,136.159 308.795,136.159 C306.591,136.159 305.068,137.909 305.068,140.659 C305.068,143.432 306.591,145.182 308.773,145.182 Z M308.955,143.977 C307.273,143.977 306.409,142.5 306.409,140.636 C306.409,138.795 307.25,137.364 308.955,137.364 C310.591,137.364 311.455,138.682 311.455,140.636 C311.455,142.614 310.568,143.977 308.955,143.977 Z M320.097,145 L321.506,145 L321.506,141.227 L322.96,139.591 L327.006,145 L328.71,145 L323.824,138.614 L328.71,133.364 L326.869,133.364 L321.642,139.136 L321.506,139.136 L321.506,133.364 L320.097,133.364 L320.097,145 Z M333.371,145.182 C335.143,145.182 336.439,144.295 336.848,142.977 L335.553,142.614 C335.212,143.523 334.422,143.977 333.371,143.977 C331.797,143.977 330.712,142.96 330.649,141.091 L336.984,141.091 L336.984,140.523 C336.984,137.273 335.053,136.159 333.234,136.159 C330.871,136.159 329.303,138.023 329.303,140.705 C329.303,143.386 330.848,145.182 333.371,145.182 Z M330.649,139.932 C330.74,138.574 331.7,137.364 333.234,137.364 C334.689,137.364 335.621,138.455 335.621,139.932 L330.649,139.932 Z M339.888,148.25 C341.098,148.25 341.956,147.608 342.456,146.273 L346.172,136.295 L344.706,136.273 L342.297,143.227 L342.206,143.227 L339.797,136.273 L338.342,136.273 L341.57,145.045 L341.32,145.727 C340.842,147.034 340.229,147.159 339.251,146.909 L338.911,148.091 C339.047,148.159 339.433,148.25 339.888,148.25 Z M352.628,145 L354.037,145 L354.037,140.455 L356.582,140.455 C356.685,140.455 356.781,140.455 356.878,140.449 L359.332,145 L360.969,145 L358.338,140.193 C359.821,139.688 360.514,138.477 360.514,136.932 C360.514,134.875 359.287,133.364 356.56,133.364 L352.628,133.364 L352.628,145 Z M354.037,139.182 L354.037,134.614 L356.514,134.614 C358.401,134.614 359.128,135.534 359.128,136.932 C359.128,138.33 358.401,139.182 356.537,139.182 L354.037,139.182 Z M366.246,145.182 C368.018,145.182 369.314,144.295 369.723,142.977 L368.428,142.614 C368.087,143.523 367.297,143.977 366.246,143.977 C364.672,143.977 363.587,142.96 363.524,141.091 L369.859,141.091 L369.859,140.523 C369.859,137.273 367.928,136.159 366.109,136.159 C363.746,136.159 362.178,138.023 362.178,140.705 C362.178,143.386 363.723,145.182 366.246,145.182 Z M363.524,139.932 C363.615,138.574 364.575,137.364 366.109,137.364 C367.564,137.364 368.496,138.455 368.496,139.932 L363.524,139.932 Z M378.081,138.227 C377.661,136.989 376.717,136.159 374.99,136.159 C373.149,136.159 371.786,137.205 371.786,138.682 C371.786,139.886 372.501,140.693 374.104,141.068 L375.558,141.409 C376.439,141.614 376.854,142.034 376.854,142.636 C376.854,143.386 376.058,144 374.808,144 C373.712,144 373.024,143.528 372.786,142.591 L371.513,142.909 C371.825,144.392 373.047,145.182 374.831,145.182 C376.859,145.182 378.24,144.074 378.24,142.568 C378.24,141.352 377.479,140.585 375.922,140.205 L374.626,139.886 C373.592,139.631 373.126,139.284 373.126,138.614 C373.126,137.864 373.922,137.318 374.99,137.318 C376.161,137.318 376.643,137.966 376.876,138.568 L378.081,138.227 Z M385.759,141.432 C385.759,143.068 384.509,143.818 383.509,143.818 C382.395,143.818 381.599,143 381.599,141.727 L381.599,136.273 L380.259,136.273 L380.259,141.818 C380.259,144.045 381.44,145.114 383.077,145.114 C384.395,145.114 385.259,144.409 385.668,143.523 L385.759,143.523 L385.759,145 L387.099,145 L387.099,136.273 L385.759,136.273 L385.759,141.432 Z M390.896,133.364 L389.555,133.364 L389.555,145 L390.896,145 L390.896,133.364 Z M397.148,136.273 L395.284,136.273 L395.284,134.182 L393.943,134.182 L393.943,136.273 L392.625,136.273 L392.625,137.409 L393.943,137.409 L393.943,142.864 C393.943,144.386 395.17,145.114 396.307,145.114 C396.807,145.114 397.125,145.023 397.307,144.955 L397.034,143.75 C396.92,143.773 396.739,143.818 396.443,143.818 C395.852,143.818 395.284,143.636 395.284,142.5 L395.284,137.409 L397.148,137.409 L397.148,136.273 Z M405.19,138.227 C404.77,136.989 403.827,136.159 402.099,136.159 C400.259,136.159 398.895,137.205 398.895,138.682 C398.895,139.886 399.611,140.693 401.213,141.068 L402.668,141.409 C403.548,141.614 403.963,142.034 403.963,142.636 C403.963,143.386 403.168,144 401.918,144 C400.821,144 400.134,143.528 399.895,142.591 L398.622,142.909 C398.935,144.392 400.156,145.182 401.94,145.182 C403.969,145.182 405.349,144.074 405.349,142.568 C405.349,141.352 404.588,140.585 403.031,140.205 L401.736,139.886 C400.702,139.631 400.236,139.284 400.236,138.614 C400.236,137.864 401.031,137.318 402.099,137.318 C403.27,137.318 403.753,137.966 403.986,138.568 L405.19,138.227 Z" id="Shape" fill="#C4C3C6" fill-rule="nonzero"></path>
                <path d="M635.7,107.87 C640.92,107.457 646.087,106.54 651.13,105.13 C649.62,120.96 638.13,178.8 642.96,191.89 C646.07,200.63 652.82,203.89 659.9,203.16 C670.45,202.06 688.18,201.44 703.46,199.51 C710.8,198.58 718.28,198.58 722.81,195.85 C730.42,191.28 727.57,178.37 722.81,169.67 C721.08,166.5 719.81,167.23 715.55,167.23 C715.55,158.71 718.35,146.14 719.82,133.63 C721.82,116.63 722.82,95.7099 722.82,89.2899 C722.82,78.1699 717.92,64.6299 711.94,64.6299 C692.27,64.6299 645.21,67.6799 637.83,67.6799 C628.22,67.6799 622.71,76.9299 622.71,87.7699 C622.71,98.6099 626.1,107.87 635.7,107.87 Z" id="Path" fill="#000000"></path>
                <path d="M646.93,71.81 L710.14,69.71 C714.96,73.3833 717.37,83.7166 717.37,100.71 C717.37,117.703 714.96,139.773 710.14,166.92 C677.473,168.567 659.613,169.633 656.56,170.12 C653.507,170.607 650.79,172.823 648.41,176.77 C651.363,154.377 654.08,135.543 656.56,120.27 C658,111.38 658.39,95.16 656.56,85.96 C656.045,83.0551 654.921,80.2923 653.261,77.8534 C651.601,75.4145 649.443,73.3548 646.93,71.81 Z" id="Path" fill="#D3D8E0"></path>
                <path d="M660.26,85.71 C654.84,78.7233 650.397,74.1066 646.93,71.86 L710.11,69.71 C713.05,72.0033 715.093,76.83 716.24,84.19 C682.54,89.87 663.88,90.3766 660.26,85.71 Z" id="Path" fill="#FFFFFF"></path>
                <path d="M716.08,171 C717.17,171 718.85,173.32 720.08,177.17 C722.08,183.31 718.78,186.17 715.15,187.86 C706.15,188.92 677.44,191.68 676.77,190.4 C665.223,193.48 660.26,193.73 661.88,191.15 C663.16,189.15 662.79,187.94 662.88,183.15 C662.999,181.425 662.684,179.698 661.964,178.126 C661.245,176.554 660.143,175.187 658.76,174.15 L716.08,171 Z" id="Path" fill="#FFFFFF"></path>
                <path d="M721.36,188.4 C719.6,194.32 688.17,193.52 679.75,194.33 C671.33,195.14 658,196.88 659.63,194.33 C660.931,191.879 662.882,189.834 665.27,188.42 C667.46,187.21 686.84,181.29 702,179.81 C712.107,178.83 717.65,176.863 718.63,173.91 C723.32,179.8 721.36,186.58 721.36,188.4 Z" id="Path" fill="#D3D8E0"></path>
                <path d="M655.74,178.11 C656.937,179.998 657.446,182.241 657.18,184.46 C657.18,185.08 657.08,185.67 657,186.25 L651.71,186.68 C651.677,185.699 651.744,184.718 651.91,183.75 C652.169,182.21 652.789,180.754 653.72,179.5 C654.245,178.852 654.947,178.369 655.74,178.11 Z" id="Path" fill="#C4C3C6"></path>
                <path d="M647.7,156.43 L648.34,163.73 C649.549,163.828 650.765,163.774 651.96,163.57 C653.45,163.21 655.14,163.36 654.26,162.96 C653.81,162.76 651.82,162.11 650.62,161.8 L649.62,161.57 C651.707,161.376 653.783,161.075 655.84,160.67 C661.84,159.51 661.46,159.28 656.04,159.12 C654.95,159.12 653.57,159.12 651.88,159.19 C652.496,158.928 653.097,158.631 653.68,158.3 C654.911,157.602 656.082,156.803 657.18,155.91 C657.86,155.18 655.7,155.79 653.11,155.71 C651.284,155.729 649.467,155.971 647.7,156.43 Z" id="Path" fill="#000000"></path>
                <path d="M715.11,68.4403 L716.11,76.6303 C714.833,77.0148 713.513,77.2333 712.18,77.2803 C710.47,77.2803 708.66,77.7903 709.53,77.1503 C710.728,76.3695 711.967,75.6518 713.24,75.0003 L714.24,74.5103 C711.917,74.791 709.58,74.9446 707.24,74.9703 C700.41,75.1003 700.77,74.7503 706.66,73.3103 C707.84,73.0203 709.36,72.7303 711.21,72.4303 C710.53,72.2903 709.81,72.1003 709.04,71.8603 C707.531,71.3826 706.066,70.777 704.66,70.0503 C703.75,69.4003 706.25,69.5803 709.06,68.8703 C711.052,68.4819 713.083,68.3375 715.11,68.4403 Z" id="Path" fill="#000000"></path>
                <path d="M664,130.169 C663.69,132.289 664.57,134.639 665.31,136.609 C665.388,136.842 665.537,137.045 665.736,137.189 C665.935,137.332 666.174,137.409 666.42,137.409 C666.665,137.409 666.905,137.332 667.104,137.189 C667.303,137.045 667.452,136.842 667.53,136.609 C668.43,134.395 669.725,132.362 671.35,130.609 C672.61,129.269 674.69,128.339 675.35,126.609 C675.385,126.475 675.389,126.335 675.361,126.199 C675.334,126.063 675.277,125.935 675.193,125.824 C675.109,125.713 675.002,125.623 674.878,125.56 C674.755,125.497 674.619,125.462 674.48,125.459 C672.35,125.389 670.24,128.069 669,129.569 C667.439,131.486 666.193,133.64 665.31,135.949 L667.53,135.949 C666.75,134.029 666.28,131.679 665.15,129.949 C664.88,129.549 664.09,129.519 664,130.099 L664,130.169 Z" id="Path" fill="#000000" fill-rule="nonzero"></path>
                <path d="M664.4,114.049 C662.51,115.119 664.4,118.889 665.21,120.149 C665.29,120.267 665.393,120.366 665.514,120.441 C665.635,120.515 665.771,120.563 665.912,120.581 C666.053,120.599 666.196,120.587 666.332,120.545 C666.468,120.504 666.593,120.433 666.7,120.339 C668.28,119.009 669.87,117.679 671.43,116.339 C672.79,115.159 674.66,114.029 675.43,112.339 C675.72,111.729 675.24,110.849 674.43,111.099 C672.7,111.679 671.43,113.279 670.12,114.479 C668.49,115.959 666.9,117.479 665.3,118.959 L666.78,119.149 C665.98,118.022 665.453,116.725 665.24,115.359 C665.1,114.649 665.14,114.439 664.55,114.009 C664.519,113.987 664.483,113.975 664.445,113.975 C664.407,113.975 664.371,113.987 664.34,114.009 L664.4,114.049 Z" id="Path" fill="#000000" fill-rule="nonzero"></path>
                <path d="M664.78,103 C664.51,105.14 665.96,109.5 668.68,107.12 C670.04,105.94 670.91,103.98 671.98,102.53 C673.25,100.78 674.88,99.2099 675.98,97.3699 C676.78,96.0799 675.03,94.9399 673.98,95.8299 C672.178,97.6116 670.627,99.6301 669.37,101.83 C668.81,102.69 668.19,104.44 667.37,105.08 L667.12,105.49 C666.87,105.005 666.653,104.504 666.47,103.99 C666.303,103.537 666.092,103.102 665.84,102.69 C665.769,102.58 665.664,102.495 665.541,102.448 C665.418,102.401 665.284,102.394 665.157,102.428 C665.03,102.463 664.917,102.537 664.835,102.64 C664.753,102.742 664.706,102.869 664.7,103 L664.78,103 Z" id="Path" fill="#000000" fill-rule="nonzero"></path>
                <path d="M681.15,100.659 C685.57,101.659 690.73,100.819 695.23,100.749 C697.64,100.749 700.06,100.749 702.47,100.689 C704.837,100.856 707.215,100.793 709.57,100.499 C709.823,100.421 710.045,100.264 710.202,100.051 C710.36,99.8376 710.445,99.5795 710.445,99.3144 C710.445,99.0494 710.36,98.7912 710.202,98.578 C710.045,98.3647 709.823,98.2075 709.57,98.1294 C707.373,97.7676 705.14,97.6702 702.92,97.8394 C700.35,97.8394 697.8,97.9394 695.23,98.0794 C690.79,98.3294 685.31,98.1894 681.15,99.9394 C680.85,100.069 680.75,100.569 681.15,100.659 Z" id="Path" fill="#000000" fill-rule="nonzero"></path>
                <path d="M662.41,146.78 C662.13,148.92 663.59,153.27 666.31,150.9 C667.67,149.71 668.54,147.76 669.6,146.3 C670.88,144.55 672.5,142.98 673.6,141.15 C674.41,139.86 672.66,138.71 671.6,139.61 C669.8,141.393 668.249,143.411 666.99,145.61 C666.43,146.47 665.81,148.23 664.99,148.86 L664.74,149.27 C664.488,148.784 664.267,148.283 664.08,147.77 C663.912,147.322 663.705,146.89 663.46,146.48 C663.388,146.369 663.284,146.284 663.161,146.237 C663.038,146.19 662.903,146.184 662.777,146.218 C662.65,146.253 662.537,146.326 662.455,146.429 C662.373,146.532 662.325,146.658 662.32,146.79 L662.41,146.78 Z" id="Path" fill="#000000" fill-rule="nonzero"></path>
                <path d="M678.78,144.479 C683.2,145.479 688.36,144.629 692.86,144.569 C695.267,144.529 697.677,144.509 700.09,144.509 C702.461,144.668 704.842,144.601 707.2,144.309 C707.455,144.234 707.679,144.079 707.838,143.866 C707.997,143.653 708.083,143.395 708.083,143.129 C708.083,142.863 707.997,142.605 707.838,142.392 C707.679,142.18 707.455,142.024 707.2,141.949 C705,141.579 702.764,141.478 700.54,141.649 C697.98,141.649 695.42,141.729 692.86,141.889 C688.41,142.139 682.94,142.009 678.78,143.759 C678.47,143.889 678.38,144.389 678.78,144.479 Z" id="Path" fill="#000000" fill-rule="nonzero"></path>
                <path d="M679.71,114.569 C684.677,114.503 689.64,114.403 694.6,114.269 C697.02,114.199 699.43,114.189 701.84,114.209 C704.07,114.209 706.84,114.799 708.9,113.989 C709.66,113.699 710.03,112.519 709.15,112.089 C707.22,111.089 704.86,111.419 702.75,111.389 C700.03,111.389 697.32,111.389 694.6,111.389 C689.536,111.534 684.492,112.095 679.52,113.069 C678.7,113.229 678.9,114.529 679.71,114.519 L679.71,114.569 Z" id="Path" fill="#000000" fill-rule="nonzero"></path>
                <path d="M661.72,157.85 C659.83,158.92 661.72,162.69 662.53,163.95 C662.61,164.068 662.713,164.167 662.834,164.242 C662.955,164.316 663.091,164.364 663.232,164.382 C663.373,164.4 663.516,164.388 663.652,164.346 C663.788,164.304 663.913,164.234 664.02,164.14 C665.6,162.81 667.19,161.48 668.75,160.14 C670.11,158.96 671.99,157.83 672.75,156.19 C673.05,155.58 672.56,154.7 671.75,154.95 C670.03,155.53 668.75,157.13 667.44,158.34 C665.81,159.81 664.22,161.34 662.62,162.81 L664.11,163 C663.309,161.872 662.779,160.576 662.56,159.21 C662.42,158.5 662.46,158.29 661.87,157.86 C661.839,157.838 661.803,157.826 661.765,157.826 C661.727,157.826 661.691,157.838 661.66,157.86 L661.72,157.85 Z" id="Path" fill="#000000" fill-rule="nonzero"></path>
                <path d="M677,158.369 C681.973,158.303 686.94,158.203 691.9,158.069 C694.31,157.999 696.72,157.989 699.13,158.009 C701.37,158.009 704.13,158.599 706.19,157.789 C706.95,157.499 707.32,156.319 706.44,155.889 C704.51,154.939 702.15,155.219 700.04,155.189 C697.32,155.189 694.61,155.189 691.9,155.239 C686.832,155.381 681.784,155.947 676.81,156.929 C675.99,157.079 676.19,158.379 677,158.369 Z" id="Path" fill="#000000" fill-rule="nonzero"></path>
                <path d="M679.2,131.829 C681.431,132.213 683.7,132.337 685.96,132.199 C688.2,132.199 690.63,132.409 692.81,131.869 C693.041,131.798 693.243,131.655 693.387,131.461 C693.53,131.266 693.608,131.031 693.608,130.789 C693.608,130.548 693.53,130.312 693.387,130.118 C693.243,129.924 693.041,129.78 692.81,129.709 C690.6,129.259 688.2,129.579 685.96,129.649 C683.689,129.596 681.42,129.811 679.2,130.289 C679.038,130.342 678.896,130.445 678.796,130.584 C678.695,130.722 678.641,130.888 678.641,131.059 C678.641,131.23 678.695,131.397 678.796,131.535 C678.896,131.673 679.038,131.776 679.2,131.829 Z" id="Path" fill="#000000" fill-rule="nonzero"></path>
                <path d="M582.19,124.699 C584.04,124.699 594.39,123.329 599.47,121.629 C597.78,139.359 584.91,204.149 590.33,218.809 C593.8,228.599 601.33,232.249 609.33,231.429 C621.14,230.199 641,229.499 658.11,227.339 C666.34,226.289 674.71,226.289 679.79,223.239 C688.31,218.129 685.12,203.659 679.79,193.919 C677.85,190.369 676.44,191.189 671.66,191.189 C671.66,181.639 674.79,167.559 676.44,153.549 C678.68,134.499 679.79,111.079 679.79,103.899 C679.79,91.4293 674.3,76.2793 667.6,76.2793 C645.6,76.2793 592.86,79.6893 584.6,79.6893 C573.84,79.6893 567.66,90.0393 567.66,102.189 C567.66,114.339 571.44,124.699 582.19,124.699 Z" id="Path" fill="#000000"></path>
                <path d="M594.77,84.319 L665.57,81.999 C670.957,86.119 673.653,97.6924 673.660014,116.719 C673.667,135.746 670.97,160.466 665.57,190.879 C628.95,192.732 608.95,193.926 605.57,194.459 C602.19,194.992 599.143,197.479 596.43,201.919 C599.763,176.832 602.81,155.736 605.57,138.629 C607.18,128.629 607.62,110.509 605.57,100.199 C604.994,96.9392 603.734,93.8384 601.873,91.1011 C600.011,88.3639 597.59,86.0524 594.77,84.319 Z" id="Path" fill="#D3D8E0"></path>
                <path d="M609.7,99.879 C603.627,92.0457 598.65,86.8757 594.77,84.369 L665.54,81.999 C668.833,84.559 671.12,89.9624 672.4,98.209 C634.653,104.556 613.753,105.112 609.7,99.879 Z" id="Path" fill="#FFFFFF"></path>
                <path d="M592.55,91.4189 C593.99,92.7589 599.47,96.2589 599.47,104.669 C599.301,109.304 598.684,113.912 597.63,118.429 C587.63,120.319 580.05,121.999 579.2,120.619 C580.773,120.254 582.247,119.55 583.519,118.557 C584.792,117.564 585.833,116.305 586.57,114.869 C588.573,110.931 589.524,106.543 589.33,102.129 C588.93,95.1889 584.85,93.2389 584.03,92.4189 L592.55,91.4189 Z" id="Path" fill="#FFFFFF"></path>
                <path d="M597.67,118.469 C587.67,120.329 580.05,121.989 579.2,120.629 C580.771,120.272 582.245,119.579 583.521,118.596 C584.797,117.614 585.844,116.366 586.59,114.939 C587.863,112.117 589.883,109.697 592.43,107.939 C593.42,107.202 594.567,106.703 595.781,106.483 C596.996,106.263 598.244,106.326 599.43,106.669 C599.145,110.641 598.557,114.586 597.67,118.469 Z" id="Path" fill="#D3D8E0"></path>
                <path d="M581.44,95.8193 C583.307,97.9642 584.271,100.749 584.13,103.589 C584.13,104.359 584.13,105.099 584.06,105.819 L576.57,106.819 C576.427,105.604 576.427,104.375 576.57,103.159 C576.799,101.192 577.54,99.3197 578.72,97.7293 C579.441,96.8628 580.38,96.2037 581.44,95.8193 Z" id="Path" fill="#D3D8E0"></path>
                <path d="M672.22,195.369 C673.44,195.369 675.32,197.979 676.72,202.289 C678.95,209.169 675.26,212.339 671.2,214.289 C661.11,215.479 628.97,218.569 628.2,217.139 C615.26,220.579 609.7,220.856 611.52,217.969 C612.95,215.689 612.52,214.379 612.6,208.969 C612.69,202.019 608.75,199.789 607.99,198.969 L672.22,195.369 Z" id="Path" fill="#FFFFFF"></path>
                <path d="M678.13,214.899 C676.13,221.519 640.96,220.629 631.53,221.539 C622.1,222.449 607.17,224.389 608.99,221.539 C610.449,218.794 612.636,216.504 615.31,214.919 C617.77,213.559 639.47,206.919 656.45,205.279 C667.783,204.166 673.993,201.962 675.08,198.669 C680.33,205.269 678.13,212.859 678.13,214.899 Z" id="Path" fill="#D3D8E0"></path>
                <path d="M604.63,203.369 C605.975,205.485 606.547,208 606.25,210.489 C606.25,211.179 606.14,211.839 606.05,212.489 L600.12,212.979 C600.086,211.874 600.163,210.769 600.35,209.679 C600.631,207.96 601.317,206.332 602.35,204.929 C602.944,204.2 603.736,203.659 604.63,203.369 Z" id="Path" fill="#D3D8E0"></path>
                <path d="M595.63,179.099 L596.35,187.269 C597.706,187.371 599.069,187.308 600.41,187.079 C602.07,186.679 603.97,186.849 602.98,186.399 C602.48,186.179 600.24,185.459 598.9,185.109 L597.82,184.839 C600.169,184.624 602.505,184.29 604.82,183.839 C611.54,182.539 611.12,182.279 605.05,182.099 C603.83,182.099 602.28,182.099 600.39,182.189 C601.074,181.891 601.741,181.558 602.39,181.189 C603.767,180.413 605.075,179.52 606.3,178.519 C607.07,177.699 604.65,178.389 601.75,178.289 C599.684,178.308 597.629,178.58 595.63,179.099 Z" id="Path" fill="#000000"></path>
                <path d="M671.13,80.529 L672.26,89.709 C670.827,90.1404 669.345,90.3857 667.85,90.439 C665.94,90.379 663.91,91.009 664.85,90.289 C666.193,89.4268 667.578,88.6324 669,87.909 L670.12,87.369 C667.511,87.6826 664.887,87.8561 662.26,87.889 C654.61,88.029 655.02,87.639 661.61,86.029 C662.943,85.709 664.647,85.3756 666.72,85.029 C665.9,84.861 665.088,84.6507 664.29,84.399 C662.598,83.8753 660.956,83.2062 659.38,82.399 C658.38,81.679 661.16,81.869 664.31,81.089 C666.552,80.6264 668.842,80.4383 671.13,80.529 Z" id="Path" fill="#000000"></path>
                <path d="M613.93,146.67 C613.57,149.05 614.56,151.67 615.39,153.89 C615.473,154.153 615.638,154.384 615.861,154.547 C616.084,154.711 616.353,154.799 616.63,154.799 C616.907,154.799 617.176,154.711 617.399,154.547 C617.622,154.384 617.787,154.153 617.87,153.89 C618.884,151.43 620.334,149.173 622.15,147.23 C623.57,145.73 625.89,144.69 626.64,142.75 C626.687,142.597 626.696,142.435 626.667,142.278 C626.638,142.12 626.572,141.972 626.474,141.846 C626.376,141.72 626.249,141.619 626.104,141.551 C625.959,141.484 625.8,141.453 625.64,141.46 C623.26,141.38 620.89,144.39 619.5,146.07 C617.752,148.211 616.358,150.618 615.37,153.2 L617.85,153.2 C616.99,151.06 616.46,148.43 615.19,146.51 C614.89,146.06 614,146.03 613.91,146.67 L613.93,146.67 Z" id="Path" fill="#000000" fill-rule="nonzero"></path>
                <path d="M614.34,131.619 C612.22,132.829 614.34,137.049 615.24,138.459 C615.325,138.597 615.439,138.713 615.575,138.801 C615.711,138.888 615.864,138.944 616.025,138.964 C616.185,138.984 616.348,138.968 616.501,138.917 C616.654,138.866 616.794,138.781 616.91,138.669 C618.68,137.179 620.46,135.669 622.21,134.179 C623.73,132.859 625.83,131.589 626.71,129.749 C627.03,129.069 626.48,128.079 625.64,128.369 C623.71,129.019 622.29,130.799 620.81,132.149 C618.99,133.809 617.2,135.489 615.41,137.149 L617.07,137.359 C616.175,136.094 615.583,134.64 615.34,133.109 C615.18,132.319 615.23,132.109 614.57,131.599 C614.536,131.577 614.496,131.565 614.455,131.565 C614.414,131.565 614.374,131.577 614.34,131.599 L614.34,131.619 Z" id="Path" fill="#000000" fill-rule="nonzero"></path>
                <path d="M614.76,119.21 C614.46,121.6 616.09,126.48 619.14,123.82 C620.66,122.49 621.63,120.3 622.82,118.67 C624.25,116.67 626.07,114.95 627.35,112.9 C628.25,111.46 626.29,110.17 625.12,111.17 C623.05,112.93 621.43,115.63 619.95,117.89 C619.32,118.89 618.63,120.82 617.76,121.53 L617.47,121.99 C617.192,121.445 616.948,120.884 616.74,120.31 C616.553,119.805 616.319,119.319 616.04,118.86 C615.962,118.731 615.845,118.632 615.705,118.576 C615.566,118.521 615.412,118.512 615.268,118.552 C615.123,118.591 614.995,118.677 614.904,118.796 C614.812,118.914 614.762,119.06 614.76,119.21 Z" id="Path" fill="#000000" fill-rule="nonzero"></path>
                <path d="M633.1,116.63 C638.05,117.74 643.83,116.8 648.87,116.73 C651.57,116.69 654.27,116.666 656.97,116.66 C659.6,116.66 662.34,116.96 664.97,116.44 C665.253,116.353 665.5,116.179 665.676,115.941 C665.852,115.703 665.947,115.415 665.947,115.12 C665.947,114.824 665.852,114.536 665.676,114.298 C665.5,114.061 665.253,113.886 664.97,113.8 C662.509,113.386 660.008,113.272 657.52,113.46 C654.647,113.46 651.777,113.553 648.91,113.74 C643.91,114.02 637.8,113.86 633.14,115.82 C632.8,115.97 632.69,116.53 633.14,116.63 L633.1,116.63 Z" id="Path" fill="#000000" fill-rule="nonzero"></path>
                <path d="M631.49,132.2 C637.05,132.13 642.6,132.01 648.17,131.87 C650.87,131.79 653.57,131.77 656.27,131.81 C658.77,131.81 661.83,132.46 664.18,131.56 C665.029898,131.23 665.44,129.91 664.46,129.43 C662.3,128.36 659.66,128.67 657.29,128.64 C654.25,128.593 651.21,128.613 648.17,128.7 C642.494,128.863 636.842,129.495 631.27,130.59 C630.35,130.77 630.57,132.21 631.49,132.2 Z" id="Path" fill="#000000" fill-rule="nonzero"></path>
                <path d="M630.92,148.529 C633.418,148.964 635.959,149.105 638.49,148.949 C641,148.949 643.71,149.189 646.15,148.579 C646.408,148.5 646.634,148.341 646.794,148.124 C646.955,147.907 647.042,147.644 647.042,147.374 C647.042,147.104 646.955,146.841 646.794,146.624 C646.634,146.408 646.408,146.248 646.15,146.169 C643.68,145.659 641,146.019 638.49,146.089 C635.947,146.032 633.406,146.274 630.92,146.809 C630.736,146.866 630.575,146.98 630.461,147.135 C630.347,147.289 630.285,147.477 630.285,147.669 C630.285,147.861 630.347,148.049 630.461,148.203 C630.575,148.358 630.736,148.472 630.92,148.529 Z" id="Path" fill="#000000" fill-rule="nonzero"></path>
                <path d="M690.52,109.62 L686.65,110.62 L686.19,110.76 C686.1,110.76 685.96,110.7 685.95,110.66 C685.94,110.62 686.05,110.56 686.13,110.56 L686.49,110.36 C688.69,109.2 690.9,108.06 693.08,106.88 C694.787,106.143 696.424,105.252 697.97,104.22 C700.13,102.49 702.17,100.62 704.27,98.8095 C706.37,96.9995 703.75,99.3695 706.08,97.3695 C703.53,97.1395 701.17,97.5495 698.81,97.4395 C701.736,96.5515 704.757,96.0176 707.81,95.8495 C708.022,95.835 708.219,95.7381 708.36,95.5795 C711.65,92.7295 711.51,92.0395 714.98,89.4295 C716.3,88.4295 717.59,87.4295 719.06,86.2895 C717.084,86.2139 715.105,86.3818 713.17,86.7895 C713.086,86.8427 712.991,86.8766 712.893,86.8887 C712.794,86.9008 712.694,86.8908 712.6,86.8595 L712.16,87.0195 L711.88,87.0895 C711.79,87.0895 711.63,87.0895 711.63,87.0895 C711.63,87.0895 711.74,86.9795 711.82,86.9895 C711.828,86.9622 711.841,86.9368 711.859,86.9148 C711.877,86.8929 711.9,86.8748 711.925,86.8617 C711.95,86.8486 711.978,86.8408 712.006,86.8387 C712.035,86.8366 712.063,86.8403 712.09,86.8495 C712.18,86.6895 712.33,86.6795 712.49,86.6795 L713.09,86.5195 C714.6,85.8747 716.211,85.499 717.85,85.4095 C719.669,85.4634 721.437,84.8071 722.78,83.5795 C724.21,82.0795 725.58,80.7395 727.15,79.3695 C726.943,79.2124 726.69,79.1281 726.43,79.1295 L720.3,80.0295 C720.135,80.0903 719.957,80.1093 719.782,80.0849 C719.608,80.0605 719.442,79.9934 719.3,79.8895 C722.411,78.6888 725.624,77.7717 728.9,77.1495 C729.524,76.8394 730.092,76.427 730.58,75.9295 C731.75,74.5295 731.86,74.0495 732.93,72.5795 C734.74,70.0995 736.38,67.5195 736.79,64.3795 C736.894,63.9757 736.911,63.5542 736.838,63.1434 C736.766,62.7327 736.606,62.3422 736.371,61.9982 C736.135,61.6543 735.828,61.3649 735.471,61.1495 C735.113,60.9341 734.714,60.7977 734.3,60.7495 C733.348,60.517 732.368,60.4227 731.39,60.4695 C727.717,60.7669 724.088,61.4713 720.57,62.5695 C718.18,63.1995 716.02,64.1195 714.5,66.1895 C714.381,66.4047 714.212,66.5874 714.006,66.7217 C713.8,66.856 713.565,66.9376 713.32,66.9595 C714,65.9595 714.86,65.3495 715.46,64.3195 C715.17,64.3895 715,64.4095 714.83,64.4695 C708.72,66.4695 711.07,65.7695 705.83,69.4695 C703.74,70.9195 700.9,73.6595 699.83,75.9895 C699.13,77.5695 696.83,80.0795 696.02,81.5895 C696.02,81.5895 688.54,89.8895 688.52,89.8795 L696.9,74.8995 C695.65,75.8995 694.52,76.7295 693.41,77.6095 C688.824,81.1678 684.453,84.9944 680.32,89.0695 C676.43,92.7495 677.4,90.7795 674.79,95.5995 C673.747,97.5224 672.546,99.3553 671.2,101.08 L672.82,96.2895 C669.2,98.7495 668.43,102.94 666.36,106.29 L667.2,102.49 C665.381,104.312 663.737,106.3 662.29,108.43 C659.955,111.546 658.383,115.166 657.7,119 C657.7,119.08 657.7,119.22 657.62,119.24 C657.54,119.26 657.47,119.18 657.48,119.08 C655.56,117.27 655.42,115.08 656.11,112.68 C655.482,113.687 655.159,114.855 655.181,116.042 C655.202,117.229 655.566,118.385 656.23,119.37 C656.887,120.328 657.362,121.399 657.63,122.53 C657.795,123.067 657.818,123.638 657.699,124.188 C657.58,124.738 657.322,125.248 656.95,125.67 C655.037,127.896 653.17,130.16 651.35,132.46 C648.69,135.8 645.98,139.11 643.62,142.68 C643.094,143.32 642.714,144.069 642.509,144.872 C642.303,145.676 642.276,146.515 642.43,147.33 C642.59,147.18 642.69,147.13 642.74,147.04 C647.18,140.61 651.82,134.35 656.74,128.32 C660.4,123.9 663.26,119.58 667.01,114.83 C671.398,109.2 676.325,104.012 681.72,99.3395 C689.605,92.3271 698.125,86.0634 707.17,80.6295 C708.155,80.3642 709.157,80.1703 710.17,80.0495 C709.04,80.9095 707.9,81.7495 706.77,82.6195 C703.94,84.7895 675.53,108.62 667.15,118.17 C664.92,120.72 662.7,123.27 660.59,125.94 C662.47,126.34 663.2,128.3 664.87,128.89 C664.34,127.89 663.39,127.23 662.98,126.13 C665.64,127.58 678.08,125.25 677.24,124.91 C676.4,124.57 666.53,126.91 664.4,125.36 C670.09,123.66 674.92,120.51 679.79,117.12 C678.53,116.75 677.34,117.12 676.13,116.52 C677.83,116.29 679.34,116.07 680.86,115.9 C681.417,115.832 681.946,115.614 682.39,115.27 C686.97,111.91 686.39,113.85 690.77,110.27 C690.93,110.13 691.28,110.02 691.12,109.71 C690.96,109.4 690.75,109.56 690.52,109.62 Z M696.12,114.72 C695.813,115.035 695.478,115.323 695.12,115.58 L694.91,115.73 C693.271,117.16 691.41,118.315 689.4,119.15 L689.17,119.24 C688.795,119.383 688.428,119.547 688.07,119.73 L683.8,122.73 C683.995,123.281 684.113,123.856 684.15,124.44 C684.24,125.583 684.043,126.731 683.577,127.779 C683.111,128.827 682.39,129.741 681.48,130.44 C680.825,130.964 680.079,131.364 679.28,131.62 C678.624,131.843 677.957,132.03 677.28,132.18 C676.52,132.35 675.64,132.52 674.69,132.68 L679.29,141.33 L662.61,135.39 C661.912,135.153 661.241,134.841 660.61,134.46 C656.49,139.55 652.44,145.01 648.35,150.96 L648.08,151.32 C647.56,151.97 646.52,152.88 647.08,152.38 L638.61,160.27 L635.78,149 C635.252,146.925 635.325,144.744 635.99,142.71 C636.437,141.346 637.077,140.053 637.89,138.87 C639.75,136.06 641.34,133.97 644.89,129.47 L645.12,129.19 L645.94,128.19 C647.42,126.34 648.86,124.57 650.28,122.88 C649.025,120.888 648.335,118.594 648.282,116.241 C648.229,113.888 648.816,111.565 649.98,109.52 L653.04,110.74 C654.046,108.587 655.237,106.526 656.6,104.58 C658.293,102.107 660.211,99.7976 662.33,97.6795 L663.69,96.3295 C663.84,96.0795 663.99,95.8395 664.16,95.5795 C665.394,93.6029 667.021,91.901 668.94,90.5795 L670.13,89.7695 L670.31,89.4695 C670.858,88.5175 671.53,87.643 672.31,86.8695 C672.55,86.6395 674.5,85.0295 675.51,84.0595 C679.792,79.8585 684.312,75.9086 689.05,72.2295 L689.43,71.9195 L692.61,69.4495 L719.54,48.5195 L714.54,57.3095 C715.872,56.6811 717.262,56.1821 718.69,55.8195 L719.37,55.6395 L719.54,55.6395 C724.86,54.2195 727.47,53.6395 730.99,53.5395 C732.674,53.4449 734.362,53.5999 736,53.9995 C738.475,54.5082 740.655,55.9587 742.081,58.0447 C743.506,60.1307 744.065,62.689 743.64,65.1795 C743.1,69.3195 741.49,72.4595 738.51,76.5495 C738.24,76.9195 738.15,77.0595 737.75,77.6895 L738.75,78.2795 L736.26,80.4595 L737.75,80.5495 L727.75,88.2395 C726.875,89.1546 725.863,89.9273 724.75,90.5295 L723.24,91.6895 L722.59,92.1895 L715.08,98.6595 C714.37,99.3695 713.79,99.9095 712.83,100.74 L712.41,101.08 C712.181,101.259 711.941,101.423 711.69,101.57 L710.59,102.57 C709.91,103.16 709.59,103.44 709.28,103.66 L708.96,103.89 L708.8,103.99 L706.91,105.64 C704.68,107.64 703.66,108.47 702.31,109.55 C700.905,110.644 699.361,111.548 697.72,112.24 C697.363,113.167 696.818,114.012 696.12,114.72 Z M661.85,113.87 C660.544,112.816 658.895,112.286 657.22,112.38 L661.62,114.13 L661.85,113.87 Z" id="Shape" fill="#000000" fill-rule="nonzero"></path>
                <path d="M690.52,109.62 C690.75,109.56 691.02,109.39 691.18,109.62 C691.34,109.85 690.99,110.04 690.83,110.18 C686.44,113.79 687.03,111.85 682.45,115.18 C682.006,115.524 681.477,115.742 680.92,115.81 C679.4,115.98 677.92,116.2 676.19,116.43 C677.4,117 678.59,116.66 679.85,117.03 C674.98,120.42 670.15,123.57 664.46,125.27 C666.59,126.82 676.46,124.48 677.3,124.82 C678.14,125.16 665.7,127.49 663.04,126.04 C663.45,127.14 664.4,127.8 664.93,128.8 C663.26,128.21 662.53,126.25 660.65,125.85 C662.76,123.18 664.98,120.63 667.21,118.08 C675.59,108.54 704,84.6995 706.83,82.5295 C707.96,81.6595 709.1,80.8195 710.23,79.9595 C709.217,80.0803 708.215,80.2742 707.23,80.5395 C698.185,85.9734 689.665,92.2371 681.78,99.2495 C676.385,103.922 671.458,109.11 667.07,114.74 C663.32,119.49 660.46,123.81 656.8,128.23 C651.8,134.23 647.19,140.52 642.8,146.95 C642.8,147.04 642.65,147.09 642.49,147.24 C642.336,146.425 642.363,145.586 642.569,144.782 C642.774,143.979 643.154,143.23 643.68,142.59 C646.04,139.02 648.75,135.71 651.41,132.37 C653.237,130.07 655.103,127.806 657.01,125.58 C657.382,125.158 657.64,124.648 657.759,124.098 C657.878,123.548 657.854,122.977 657.69,122.44 C657.422,121.309 656.947,120.238 656.29,119.28 C655.626,118.295 655.262,117.139 655.241,115.952 C655.219,114.765 655.542,113.597 656.17,112.59 C655.48,114.98 655.62,117.18 657.54,118.99 C657.54,119.09 657.54,119.19 657.68,119.15 C657.82,119.11 657.68,118.99 657.76,118.91 C658.45,115.093 660.022,111.491 662.35,108.39 C663.797,106.26 665.441,104.272 667.26,102.45 L666.42,106.25 C668.49,102.86 669.26,98.6695 672.88,96.2495 L671.26,101.04 C672.606,99.3153 673.807,97.4824 674.85,95.5595 C677.46,90.7395 676.49,92.7095 680.38,89.0295 C684.513,84.9545 688.884,81.1278 693.47,77.5695 C694.58,76.6895 695.71,75.8295 696.96,74.8595 L688.59,89.7195 C688.59,89.7195 696.07,81.4195 696.09,81.4295 C696.95,79.9195 699.2,77.4295 699.9,75.8295 C700.9,73.4995 703.77,70.7595 705.9,69.3095 C711.18,65.6395 708.83,66.3095 714.9,64.3095 C715.07,64.2495 715.24,64.2295 715.53,64.1595 C714.93,65.1595 714.07,65.8495 713.39,66.7995 C713.635,66.7776 713.87,66.696 714.076,66.5617 C714.282,66.4274 714.451,66.2447 714.57,66.0295 C716.09,63.9595 718.25,63.0295 720.64,62.4095 C724.158,61.3113 727.787,60.607 731.46,60.3095 C732.438,60.2627 733.418,60.357 734.37,60.5895 C734.784,60.6377 735.183,60.7741 735.541,60.9895 C735.898,61.2049 736.205,61.4943 736.441,61.8383 C736.676,62.1822 736.836,62.5727 736.908,62.9834 C736.981,63.3942 736.964,63.8157 736.86,64.2195 C736.45,67.3595 734.86,69.9395 733,72.4195 C731.93,73.8895 731.82,74.4195 730.65,75.7695 C730.162,76.267 729.594,76.6794 728.97,76.9895 C725.694,77.6117 722.481,78.5288 719.37,79.7295 C719.512,79.8334 719.678,79.9005 719.852,79.9249 C720.027,79.9493 720.205,79.9303 720.37,79.8695 L726.5,78.9695 C726.76,78.9681 727.013,79.0524 727.22,79.2095 C725.65,80.5795 724.28,81.9195 722.85,83.4195 C721.507,84.6471 719.739,85.3034 717.92,85.2495 C716.281,85.339 714.67,85.7147 713.16,86.3595 L712.56,86.5195 C712.4,86.5195 712.25,86.5195 712.16,86.6895 C712.133,86.6803 712.105,86.6766 712.076,86.6787 C712.048,86.6808 712.02,86.6886 711.995,86.7017 C711.97,86.7148 711.947,86.7329 711.929,86.7548 C711.911,86.7768 711.898,86.8022 711.89,86.8295 C711.81,86.8295 711.69,86.7695 711.7,86.9295 C711.71,87.0895 711.86,86.9295 711.95,86.9295 L712.23,86.8595 L712.67,86.6995 C712.764,86.7308 712.864,86.7408 712.963,86.7287 C713.061,86.7166 713.156,86.6827 713.24,86.6295 C715.175,86.2218 717.154,86.0539 719.13,86.1295 C717.66,87.2695 716.37,88.2795 715.05,89.2695 C711.58,91.8795 711.72,92.5695 708.43,95.4195 C708.289,95.5781 708.092,95.675 707.88,95.6895 C704.827,95.8577 701.806,96.3915 698.88,97.2795 C701.24,97.3895 703.6,96.9795 706.15,97.2095 C703.82,99.2095 706.54,96.7495 704.34,98.6495 C702.14,100.55 700.2,102.33 698.04,104.06 C696.494,105.092 694.857,105.983 693.15,106.72 C690.97,107.9 688.76,109.04 686.56,110.2 L686.2,110.4 C686.12,110.4 686,110.4 686.02,110.5 C686.04,110.6 686.17,110.56 686.26,110.6 L686.72,110.46 L690.52,109.62 Z" id="Path" fill="#D3D8E0"></path>
                <path d="M660.94,126.08 C661.94,124.68 663.05,123.24 664.2,121.77 C665.2,120.58 666.2,119.41 667.26,118.24 C672.275,112.895 677.559,107.809 683.09,103 C682.86,104.37 661.6,126.28 660.94,126.08 Z M686.46,95.4 L691.34,86.74 C693.47,84.37 696.07,81.48 696.08,81.49 C696.94,79.97 699.19,77.49 699.89,75.87 C700.89,73.54 703.76,70.8 705.89,69.35 C711.17,65.67 708.82,66.35 714.89,64.35 C715.094,64.2897 715.301,64.2396 715.51,64.2 C714.844,65.1173 714.129,65.9985 713.37,66.84 C713.616,66.8216 713.853,66.7414 714.059,66.6068 C714.265,66.4721 714.434,66.2875 714.55,66.07 C716.07,64 718.23,63.07 720.62,62.44 C724.131,61.3385 727.753,60.6308 731.42,60.33 C732.398,60.2839 733.377,60.3748 734.33,60.6 C734.744,60.6511 735.142,60.7897 735.499,61.0065 C735.855,61.2234 736.161,61.5137 736.396,61.858 C736.632,62.2022 736.792,62.5927 736.865,63.0034 C736.938,63.4141 736.922,63.8356 736.82,64.24 C736.444,66.5352 735.555,68.716 734.22,70.62 C734.31,70.2221 734.315,69.8098 734.235,69.4099 C734.155,69.0099 733.992,68.6312 733.756,68.2984 C733.52,67.9655 733.217,67.6859 732.866,67.4778 C732.516,67.2696 732.125,67.1375 731.72,67.09 C730.767,66.8648 729.788,66.7739 728.81,66.82 C725.139,67.1233 721.513,67.8344 718,68.94 C715.61,69.58 713.45,70.5 711.93,72.57 C711.814,72.7875 711.645,72.9721 711.439,73.1068 C711.233,73.2414 710.996,73.3216 710.75,73.34 C711.509,72.4985 712.224,71.6173 712.89,70.7 C712.6,70.77 712.43,70.8 712.27,70.85 C706.16,72.85 708.51,72.16 703.27,75.85 C701.18,77.3 698.34,80.04 697.27,82.38 C696.58,83.96 694.32,86.47 693.46,87.99 C693.46,87.99 689.83,91.99 687.62,94.46 L686.46,95.4 Z M655,130.58 C653.72,132.19 643.65,145.58 642.45,147.28 C642.08,145.53 651.65,132.28 652.51,131.02 C654.85,127.44 657.89,126.53 655,130.58 Z M656.31,119.45 C655.645,118.464 655.28,117.307 655.259,116.118 C655.238,114.929 655.561,113.759 656.19,112.75 C655.52,115.06 655.63,117.2 657.36,118.97 C657.15,119.38 656.95,119.79 656.77,120.21 C656.61,120 656.46,119.69 656.3,119.45 L656.31,119.45 Z M662.36,108.54 C663.816,106.415 665.463,104.427 667.28,102.6 C667,103.86 666.71,105.13 666.43,106.4 C668.5,103 669.27,98.81 672.9,96.34 C672.37,97.89 671.9,99.42 671.27,101.13 C672.624,99.4114 673.825,97.5778 674.86,95.65 C677.48,90.82 676.51,92.8 680.39,89.11 C684.523,85.0285 688.894,81.1952 693.48,77.63 C694.58,76.74 695.71,75.88 696.96,74.91 L692.5,82.83 C691.94,83.27 691.4,83.69 690.87,84.12 C686.283,87.6874 681.908,91.5206 677.77,95.6 C673.89,99.29 674.86,97.31 672.24,102.14 C671.203,104.07 670.002,105.906 668.65,107.63 C669.24,105.91 669.75,104.38 670.28,102.83 C666.65,105.3 665.88,109.49 663.81,112.89 C664.09,111.62 664.38,110.35 664.66,109.09 C662.843,110.917 661.196,112.905 659.74,115.03 C659.12,115.93 658.53,116.85 658,117.78 C658.837,114.447 660.314,111.309 662.35,108.54 L662.36,108.54 Z" id="Shape" fill="#FFFFFF"></path>
            </g>
        </g>
    </g>
</svg>