<svg width="24" height="24" fill="none" xmlns="http://www.w3.org/2000/svg"><path d="M18 14c.317-.394.569-.862.74-1.376.172-.515.26-1.067.26-1.624 0-.557-.088-1.109-.26-1.624A4.428 4.428 0 0018 8M21 16a7.091 7.091 0 001.48-2.294 7.289 7.289 0 000-5.412A7.092 7.092 0 0021 6M15 21.25l-7.7-5.5H2.75c-.464 0-.91-.181-1.237-.503A1.703 1.703 0 011 14.03V9.22c0-.456.184-.893.513-1.216A1.766 1.766 0 012.75 7.5H7.3L15 2v19.25z" stroke="#fff" stroke-width="2" stroke-miterlimit="10" stroke-linecap="square"/></svg>
