<?xml version="1.0" encoding="UTF-8"?>
<svg width="882px" height="300px" viewBox="0 0 882 300" version="1.1" xmlns="http://www.w3.org/2000/svg" xmlns:xlink="http://www.w3.org/1999/xlink">
    <!-- Generator: Sketch 61 (89581) - https://sketch.com -->
    <title>Group</title>
    <desc>Created with Sketch.</desc>
    <g id="Github-Covers" stroke="none" stroke-width="1" fill="none" fill-rule="evenodd">
        <g id="Github-Pilicy" transform="translate(0.000000, -0.000000)">
            <g id="Group">
                <rect id="Rectangle" fill="#FFFFFF" fill-rule="nonzero" x="0" y="0" width="882" height="300"></rect>
                <rect id="Rectangle" fill="#E9ECF0" fill-rule="nonzero" x="0" y="0" width="882" height="210"></rect>
                <path d="M62.9297,84.9688 C62.9297,82.25 63.2109,79.8203 63.7734,77.6797 C64.3359,75.5234 65.1719,73.7031 66.2812,72.2188 C67.4062,70.7344 68.8281,69.6016 70.5469,68.8203 C72.2812,68.0391 74.3203,67.6484 76.6641,67.6484 C78.2891,67.6484 79.7969,67.8828 81.1875,68.3516 C82.5781,68.8047 83.7812,69.4688 84.7969,70.3438 C85.8281,71.2031 86.6641,72.25 87.3047,73.4844 C87.9453,74.7031 88.3125,76.0859 88.4062,77.6328 L83.8594,77.6328 C83.6406,75.7109 82.8828,74.2344 81.5859,73.2031 C80.2891,72.1562 78.5,71.6328 76.2188,71.6328 C75,71.6328 73.8828,71.8359 72.8672,72.2422 C71.8672,72.6328 71.0078,73.1797 70.2891,73.8828 C69.5703,74.5859 69,75.4297 68.5781,76.4141 C68.1719,77.3828 67.9688,78.4609 67.9688,79.6484 L67.9688,89.7266 C67.9688,90.8828 68.1797,91.9453 68.6016,92.9141 C69.0391,93.8828 69.6328,94.7344 70.3828,95.4688 C71.1484,96.1875 72.0469,96.75 73.0781,97.1562 C74.125,97.5469 75.25,97.7422 76.4531,97.7422 C78.9844,97.7422 80.9375,97.0703 82.3125,95.7266 C83.6875,94.3828 84.375,92.4297 84.375,89.8672 L84.375,87.6641 L76.9922,87.6641 L76.9922,83.5859 L88.9453,83.5859 L88.9453,101 L84.5859,101 L84.375,97.5547 C83.5469,98.8047 82.4766,99.8125 81.1641,100.578 C79.8516,101.344 78.1562,101.727 76.0781,101.727 C74,101.727 72.1406,101.336 70.5,100.555 C68.875,99.7578 67.5,98.6328 66.375,97.1797 C65.2656,95.7266 64.4141,93.9688 63.8203,91.9062 C63.2266,89.8438 62.9297,87.5312 62.9297,84.9688 Z M96.1406,72.875 L96.1406,68.3516 L100.641,68.3516 L100.641,72.875 L96.1406,72.875 Z M96.2344,101 L96.2344,76.5312 L100.547,76.5312 L100.547,101 L96.2344,101 Z M106.172,80.2109 L106.172,76.5312 L110.297,76.5312 L110.297,68.3516 L114.562,68.3516 L114.562,76.5312 L120.188,76.5312 L120.188,80.2109 L114.562,80.2109 L114.562,97.2969 L120.188,97.2969 L120.188,101 L110.297,101 L110.297,80.2109 L106.172,80.2109 Z M126.188,101 L126.188,68.3516 L130.5,68.3516 L130.5,80.5625 C131.172,79.125 132.094,78 133.266,77.1875 C134.438,76.3594 135.953,75.9453 137.812,75.9453 C139,75.9453 140.078,76.1094 141.047,76.4375 C142.016,76.75 142.852,77.2578 143.555,77.9609 C144.258,78.6641 144.805,79.5703 145.195,80.6797 C145.586,81.7734 145.781,83.1094 145.781,84.6875 L145.781,101 L141.445,101 L141.445,85.1562 C141.445,83.3594 141.102,81.9531 140.414,80.9375 C139.727,79.9062 138.453,79.3906 136.594,79.3906 C135.703,79.3906 134.891,79.5703 134.156,79.9297 C133.422,80.2734 132.781,80.7734 132.234,81.4297 C131.688,82.0859 131.258,82.8672 130.945,83.7734 C130.648,84.6641 130.5,85.6406 130.5,86.7031 L130.5,101 L126.188,101 Z M153.375,92.8438 L153.375,76.5312 L157.688,76.5312 L157.688,92.3516 C157.688,94.1172 158.031,95.5234 158.719,96.5703 C159.406,97.6016 160.664,98.1172 162.492,98.1172 C164.32,98.1172 165.766,97.4375 166.828,96.0781 C167.906,94.7188 168.445,92.9688 168.445,90.8281 L168.445,76.5312 L172.758,76.5312 L172.758,101 L168.445,101 L168.445,96.9688 C167.773,98.4062 166.875,99.5391 165.75,100.367 C164.625,101.18 163.141,101.586 161.297,101.586 C160.172,101.586 159.117,101.422 158.133,101.094 C157.164,100.781 156.328,100.273 155.625,99.5703 C154.922,98.8672 154.367,97.9609 153.961,96.8516 C153.57,95.7422 153.375,94.4062 153.375,92.8438 Z M180.75,101 L180.75,68.3516 L185.062,68.3516 L185.062,80.5156 C185.828,79.0469 186.859,77.9219 188.156,77.1406 C189.453,76.3438 191.031,75.9453 192.891,75.9453 C194.516,75.9453 195.938,76.2812 197.156,76.9531 C198.375,77.625 199.383,78.5391 200.18,79.6953 C200.992,80.8359 201.594,82.1953 201.984,83.7734 C202.391,85.3359 202.594,87 202.594,88.7656 C202.594,90.5625 202.391,92.2344 201.984,93.7812 C201.594,95.3281 200.992,96.6797 200.18,97.8359 C199.383,98.9922 198.375,99.9062 197.156,100.578 C195.953,101.25 194.531,101.586 192.891,101.586 C191.031,101.586 189.453,101.195 188.156,100.414 C186.859,99.6172 185.828,98.4844 185.062,97.0156 L185.062,101 L180.75,101 Z M185.062,90.8281 C185.062,92.9375 185.641,94.6797 186.797,96.0547 C187.953,97.4297 189.617,98.1172 191.789,98.1172 C193.617,98.1172 195.109,97.6094 196.266,96.5938 C197.438,95.5625 198.023,94.2188 198.023,92.5625 L198.023,84.9688 C198.023,83.3125 197.438,81.9688 196.266,80.9375 C195.109,79.9062 193.617,79.3906 191.789,79.3906 C189.617,79.3906 187.953,80.0859 186.797,81.4766 C185.641,82.8516 185.062,84.5938 185.062,86.7031 L185.062,90.8281 Z M221.906,101 L221.906,68.3516 L234.258,68.3516 C236.211,68.3516 237.797,68.5391 239.016,68.9141 C240.25,69.2734 241.305,69.9062 242.18,70.8125 C243.008,71.6719 243.594,72.75 243.938,74.0469 C244.297,75.3438 244.477,76.7578 244.477,78.2891 C244.477,79.7891 244.258,81.2109 243.82,82.5547 C243.398,83.8828 242.719,85.0078 241.781,85.9297 C239.984,87.6953 237.492,88.5781 234.305,88.5781 L226.477,88.5781 L226.477,101 L221.906,101 Z M226.477,84.4766 L236.039,84.4766 C237.133,84.4766 238.008,84.125 238.664,83.4219 C239.336,82.7188 239.672,81.8281 239.672,80.75 L239.672,75.9922 C239.672,74.8984 239.352,74.0312 238.711,73.3906 C238.07,72.75 237.18,72.4297 236.039,72.4297 L226.477,72.4297 L226.477,84.4766 Z M249.117,88.7656 C249.117,86.9062 249.336,85.1875 249.773,83.6094 C250.227,82.0156 250.906,80.6641 251.812,79.5547 C252.734,78.4297 253.883,77.5469 255.258,76.9062 C256.633,76.2656 258.25,75.9453 260.109,75.9453 C261.969,75.9453 263.586,76.2656 264.961,76.9062 C266.336,77.5469 267.477,78.4297 268.383,79.5547 C269.289,80.6641 269.969,82.0156 270.422,83.6094 C270.875,85.1875 271.102,86.9062 271.102,88.7656 C271.102,90.6562 270.875,92.3828 270.422,93.9453 C269.969,95.5078 269.289,96.8516 268.383,97.9766 C267.477,99.1016 266.328,99.9844 264.938,100.625 C263.562,101.266 261.953,101.586 260.109,101.586 C258.25,101.586 256.633,101.266 255.258,100.625 C253.883,99.9844 252.734,99.1016 251.812,97.9766 C250.906,96.8516 250.227,95.5078 249.773,93.9453 C249.336,92.3828 249.117,90.6562 249.117,88.7656 Z M253.664,92.5625 C253.664,93.3906 253.836,94.1484 254.18,94.8359 C254.539,95.5234 255.008,96.1094 255.586,96.5938 C256.164,97.0625 256.844,97.4375 257.625,97.7188 C258.406,97.9844 259.234,98.1172 260.109,98.1172 C260.969,98.1172 261.789,97.9844 262.57,97.7188 C263.352,97.4375 264.031,97.0625 264.609,96.5938 C265.188,96.1094 265.648,95.5234 265.992,94.8359 C266.352,94.1484 266.531,93.3906 266.531,92.5625 L266.531,84.9688 C266.531,84.1406 266.352,83.3828 265.992,82.6953 C265.648,82.0078 265.188,81.4219 264.609,80.9375 C264.031,80.4531 263.352,80.0781 262.57,79.8125 C261.789,79.5312 260.969,79.3906 260.109,79.3906 C259.25,79.3906 258.422,79.5312 257.625,79.8125 C256.844,80.0781 256.164,80.4531 255.586,80.9375 C255.008,81.4219 254.539,82.0078 254.18,82.6953 C253.836,83.3828 253.664,84.1406 253.664,84.9688 L253.664,92.5625 Z M277.875,101 L277.875,68.3516 L282.188,68.3516 L282.188,101 L277.875,101 Z M290.156,72.875 L290.156,68.3516 L294.656,68.3516 L294.656,72.875 L290.156,72.875 Z M290.25,101 L290.25,76.5312 L294.562,76.5312 L294.562,101 L290.25,101 Z M301.289,88.9531 C301.289,87 301.516,85.2188 301.969,83.6094 C302.438,81.9844 303.117,80.6172 304.008,79.5078 C304.914,78.3828 306.023,77.5078 307.336,76.8828 C308.648,76.2578 310.133,75.9453 311.789,75.9453 C313.07,75.9453 314.281,76.1172 315.422,76.4609 C316.562,76.7891 317.562,77.3047 318.422,78.0078 C319.281,78.7109 319.984,79.6094 320.531,80.7031 C321.078,81.7812 321.414,83.0625 321.539,84.5469 L317.227,84.5469 C317.133,83.5625 316.922,82.7422 316.594,82.0859 C316.281,81.4141 315.867,80.8828 315.352,80.4922 C314.836,80.0859 314.25,79.8047 313.594,79.6484 C312.938,79.4766 312.258,79.3906 311.555,79.3906 C310.82,79.3906 310.117,79.5156 309.445,79.7656 C308.773,80 308.164,80.3594 307.617,80.8438 C307.07,81.3281 306.633,81.9297 306.305,82.6484 C305.992,83.3672 305.836,84.2031 305.836,85.1562 L305.836,92.3516 C305.836,93.2109 305.984,94.0078 306.281,94.7422 C306.594,95.4609 307.016,96.0703 307.547,96.5703 C308.078,97.0547 308.688,97.4375 309.375,97.7188 C310.062,97.9844 310.805,98.1172 311.602,98.1172 C313.195,98.1172 314.523,97.6875 315.586,96.8281 C316.648,95.9688 317.258,94.625 317.414,92.7969 L321.727,92.7969 C321.57,94.2969 321.188,95.6016 320.578,96.7109 C319.969,97.8047 319.211,98.7188 318.305,99.4531 C317.414,100.172 316.398,100.703 315.258,101.047 C314.133,101.406 312.945,101.586 311.695,101.586 C309.898,101.586 308.352,101.273 307.055,100.648 C305.773,100.023 304.695,99.1406 303.82,98 C302.961,96.8594 302.32,95.5234 301.898,93.9922 C301.492,92.4609 301.289,90.7812 301.289,88.9531 Z M325.617,76.5312 L330.281,76.5312 L336.656,95.6797 L336.867,95.6797 L343.43,76.5312 L347.906,76.5312 L335.906,109.156 L327.539,109.156 L327.539,105.453 L333.164,105.453 L334.711,101 L325.617,76.5312 Z" id="Shape" fill="#000000" fill-rule="nonzero"></path>
                <path d="M61.4091,145 L62.8182,145 L62.8182,139.795 L67.8636,139.795 L67.8636,138.545 L62.8182,138.545 L62.8182,134.614 L68.3864,134.614 L68.3864,133.364 L61.4091,133.364 L61.4091,145 Z M70.6179,145 L71.9588,145 L71.9588,136.273 L70.6179,136.273 L70.6179,145 Z M71.2997,134.818 C71.8224,134.818 72.2543,134.409 72.2543,133.909 C72.2543,133.409 71.8224,133 71.2997,133 C70.777,133 70.3452,133.409 70.3452,133.909 C70.3452,134.409 70.777,134.818 71.2997,134.818 Z M75.7557,139.75 C75.7557,138.227 76.6989,137.364 77.983,137.364 C79.2273,137.364 79.983,138.176 79.983,139.545 L79.983,145 L81.3239,145 L81.3239,139.455 C81.3239,137.227 80.1364,136.159 78.3693,136.159 C77.0511,136.159 76.233,136.75 75.8239,137.636 L75.7102,137.636 L75.7102,136.273 L74.4148,136.273 L74.4148,145 L75.7557,145 L75.7557,139.75 Z M87.0696,145.182 C88.7514,145.182 89.3196,144.136 89.6151,143.659 L89.7741,143.659 L89.7741,145 L91.0696,145 L91.0696,133.364 L89.7287,133.364 L89.7287,137.659 L89.6151,137.659 C89.3196,137.205 88.7969,136.159 87.0923,136.159 C84.8878,136.159 83.3651,137.909 83.3651,140.659 C83.3651,143.432 84.8878,145.182 87.0696,145.182 Z M87.2514,143.977 C85.5696,143.977 84.706,142.5 84.706,140.636 C84.706,138.795 85.5469,137.364 87.2514,137.364 C88.8878,137.364 89.7514,138.682 89.7514,140.636 C89.7514,142.614 88.8651,143.977 87.2514,143.977 Z M101.757,145.182 C104.121,145.182 105.712,143.386 105.712,140.682 C105.712,137.955 104.121,136.159 101.757,136.159 C99.3935,136.159 97.8026,137.955 97.8026,140.682 C97.8026,143.386 99.3935,145.182 101.757,145.182 Z M101.757,143.977 C99.9616,143.977 99.1435,142.432 99.1435,140.682 C99.1435,138.932 99.9616,137.364 101.757,137.364 C103.553,137.364 104.371,138.932 104.371,140.682 C104.371,142.432 103.553,143.977 101.757,143.977 Z M113.259,141.432 C113.259,143.068 112.009,143.818 111.009,143.818 C109.895,143.818 109.099,143 109.099,141.727 L109.099,136.273 L107.759,136.273 L107.759,141.818 C107.759,144.045 108.94,145.114 110.577,145.114 C111.895,145.114 112.759,144.409 113.168,143.523 L113.259,143.523 L113.259,145 L114.599,145 L114.599,136.273 L113.259,136.273 L113.259,141.432 Z M120.851,136.273 L118.987,136.273 L118.987,134.182 L117.646,134.182 L117.646,136.273 L116.328,136.273 L116.328,137.409 L117.646,137.409 L117.646,142.864 C117.646,144.386 118.874,145.114 120.01,145.114 C120.51,145.114 120.828,145.023 121.01,144.955 L120.737,143.75 C120.624,143.773 120.442,143.818 120.146,143.818 C119.555,143.818 118.987,143.636 118.987,142.5 L118.987,137.409 L120.851,137.409 L120.851,136.273 Z M128.709,139.75 C128.709,138.227 129.68,137.364 131.004,137.364 C132.266,137.364 133.027,138.159 133.027,139.545 L133.027,145 L134.368,145 L134.368,139.455 C134.368,137.21 133.175,136.159 131.391,136.159 C130.016,136.159 129.232,136.733 128.822,137.636 L128.709,137.636 L128.709,133.364 L127.368,133.364 L127.368,145 L128.709,145 L128.709,139.75 Z M140.366,145.182 C142.73,145.182 144.321,143.386 144.321,140.682 C144.321,137.955 142.73,136.159 140.366,136.159 C138.003,136.159 136.412,137.955 136.412,140.682 C136.412,143.386 138.003,145.182 140.366,145.182 Z M140.366,143.977 C138.571,143.977 137.753,142.432 137.753,140.682 C137.753,138.932 138.571,137.364 140.366,137.364 C142.162,137.364 142.98,138.932 142.98,140.682 C142.98,142.432 142.162,143.977 140.366,143.977 Z M148.048,145 L149.366,145 L151.276,138.295 L151.412,138.295 L153.321,145 L154.639,145 L157.298,136.273 L155.889,136.273 L154.003,142.932 L153.912,142.932 L152.071,136.273 L150.639,136.273 L148.776,142.955 L148.685,142.955 L146.798,136.273 L145.389,136.273 L148.048,145 Z M165.548,145 L166.866,145 L168.776,138.295 L168.912,138.295 L170.821,145 L172.139,145 L174.798,136.273 L173.389,136.273 L171.503,142.932 L171.412,142.932 L169.571,136.273 L168.139,136.273 L166.276,142.955 L166.185,142.955 L164.298,136.273 L162.889,136.273 L165.548,145 Z M179.933,145.182 C181.706,145.182 183.001,144.295 183.411,142.977 L182.115,142.614 C181.774,143.523 180.984,143.977 179.933,143.977 C178.359,143.977 177.274,142.96 177.212,141.091 L183.547,141.091 L183.547,140.523 C183.547,137.273 181.615,136.159 179.797,136.159 C177.433,136.159 175.865,138.023 175.865,140.705 C175.865,143.386 177.411,145.182 179.933,145.182 Z M177.212,139.932 C177.303,138.574 178.263,137.364 179.797,137.364 C181.251,137.364 182.183,138.455 182.183,139.932 L177.212,139.932 Z M195.587,141.432 C195.587,143.068 194.337,143.818 193.337,143.818 C192.223,143.818 191.428,143 191.428,141.727 L191.428,136.273 L190.087,136.273 L190.087,141.818 C190.087,144.045 191.268,145.114 192.905,145.114 C194.223,145.114 195.087,144.409 195.496,143.523 L195.587,143.523 L195.587,145 L196.928,145 L196.928,136.273 L195.587,136.273 L195.587,141.432 Z M205.565,138.227 C205.145,136.989 204.202,136.159 202.474,136.159 C200.634,136.159 199.27,137.205 199.27,138.682 C199.27,139.886 199.986,140.693 201.588,141.068 L203.043,141.409 C203.923,141.614 204.338,142.034 204.338,142.636 C204.338,143.386 203.543,144 202.293,144 C201.196,144 200.509,143.528 200.27,142.591 L198.997,142.909 C199.31,144.392 200.531,145.182 202.315,145.182 C204.344,145.182 205.724,144.074 205.724,142.568 C205.724,141.352 204.963,140.585 203.406,140.205 L202.111,139.886 C201.077,139.631 200.611,139.284 200.611,138.614 C200.611,137.864 201.406,137.318 202.474,137.318 C203.645,137.318 204.128,137.966 204.361,138.568 L205.565,138.227 Z M211.402,145.182 C213.175,145.182 214.47,144.295 214.879,142.977 L213.584,142.614 C213.243,143.523 212.453,143.977 211.402,143.977 C209.828,143.977 208.743,142.96 208.68,141.091 L215.016,141.091 L215.016,140.523 C215.016,137.273 213.084,136.159 211.266,136.159 C208.902,136.159 207.334,138.023 207.334,140.705 C207.334,143.386 208.879,145.182 211.402,145.182 Z M208.68,139.932 C208.771,138.574 209.732,137.364 211.266,137.364 C212.72,137.364 213.652,138.455 213.652,139.932 L208.68,139.932 Z M229.692,137 L231.146,137 C230.714,134.75 228.828,133.205 226.374,133.205 C223.391,133.205 221.283,135.5 221.283,139.182 C221.283,142.864 223.374,145.159 226.464,145.159 C229.237,145.159 231.214,143.312 231.214,140.432 L231.214,139.182 L226.783,139.182 L226.783,140.432 L229.851,140.432 C229.811,142.523 228.436,143.841 226.464,143.841 C224.305,143.841 222.646,142.205 222.646,139.182 C222.646,136.159 224.305,134.523 226.374,134.523 C228.055,134.523 229.197,135.472 229.692,137 Z M233.993,145 L235.334,145 L235.334,136.273 L233.993,136.273 L233.993,145 Z M234.675,134.818 C235.197,134.818 235.629,134.409 235.629,133.909 C235.629,133.409 235.197,133 234.675,133 C234.152,133 233.72,133.409 233.72,133.909 C233.72,134.409 234.152,134.818 234.675,134.818 Z M241.585,136.273 L239.722,136.273 L239.722,134.182 L238.381,134.182 L238.381,136.273 L237.062,136.273 L237.062,137.409 L238.381,137.409 L238.381,142.864 C238.381,144.386 239.608,145.114 240.744,145.114 C241.244,145.114 241.562,145.023 241.744,144.955 L241.472,143.75 C241.358,143.773 241.176,143.818 240.881,143.818 C240.29,143.818 239.722,143.636 239.722,142.5 L239.722,137.409 L241.585,137.409 L241.585,136.273 Z M245.131,139.75 C245.131,138.227 246.102,137.364 247.426,137.364 C248.688,137.364 249.449,138.159 249.449,139.545 L249.449,145 L250.79,145 L250.79,139.455 C250.79,137.21 249.597,136.159 247.812,136.159 C246.438,136.159 245.653,136.733 245.244,137.636 L245.131,137.636 L245.131,133.364 L243.79,133.364 L243.79,145 L245.131,145 L245.131,139.75 Z M258.743,141.432 C258.743,143.068 257.493,143.818 256.493,143.818 C255.379,143.818 254.584,143 254.584,141.727 L254.584,136.273 L253.243,136.273 L253.243,141.818 C253.243,144.045 254.425,145.114 256.061,145.114 C257.379,145.114 258.243,144.409 258.652,143.523 L258.743,143.523 L258.743,145 L260.084,145 L260.084,136.273 L258.743,136.273 L258.743,141.432 Z M262.722,145 L264.017,145 L264.017,143.659 L264.176,143.659 C264.472,144.136 265.04,145.182 266.722,145.182 C268.903,145.182 270.426,143.432 270.426,140.659 C270.426,137.909 268.903,136.159 266.699,136.159 C264.994,136.159 264.472,137.205 264.176,137.659 L264.062,137.659 L264.062,133.364 L262.722,133.364 L262.722,145 Z M264.04,140.636 C264.04,138.682 264.903,137.364 266.54,137.364 C268.244,137.364 269.085,138.795 269.085,140.636 C269.085,142.5 268.222,143.977 266.54,143.977 C264.926,143.977 264.04,142.614 264.04,140.636 Z" id="Shape" fill="#000000" fill-rule="nonzero"></path>
                <rect id="Rectangle" fill="#D8DDE5" fill-rule="nonzero" x="620" y="105" width="52.5" height="52.5"></rect>
                <polygon id="Path" fill="#D8DDE5" fill-rule="nonzero" points="625.837 157.5 620 157.5 620 163.337 625.837 163.337"></polygon>
                <polygon id="Path" fill="#D8DDE5" fill-rule="nonzero" points="631.673 163.337 625.837 163.337 625.837 169.174 631.673 169.174"></polygon>
                <polygon id="Path" fill="#D8DDE5" fill-rule="nonzero" points="637.494 157.5 631.658 157.5 631.658 163.337 637.494 163.337"></polygon>
                <polygon id="Path" fill="#D8DDE5" fill-rule="nonzero" points="625.837 169.158 620 169.158 620 174.995 625.837 174.995"></polygon>
                <polygon id="Path" fill="#D8DDE5" fill-rule="nonzero" points="637.494 169.158 631.658 169.158 631.658 174.995 637.494 174.995"></polygon>
                <polygon id="Path" fill="#D8DDE5" fill-rule="nonzero" points="643.332 163.337 637.495 163.337 637.495 169.174 643.332 169.174"></polygon>
                <polygon id="Path" fill="#D8DDE5" fill-rule="nonzero" points="631.673 174.995 625.837 174.995 625.837 180.832 631.673 180.832"></polygon>
                <polygon id="Path" fill="#D8DDE5" fill-rule="nonzero" points="625.837 180.832 620 180.832 620 186.669 625.837 186.669"></polygon>
                <polygon id="Path" fill="#D8DDE5" fill-rule="nonzero" points="637.494 180.832 631.658 180.832 631.658 186.669 637.494 186.669"></polygon>
                <polygon id="Path" fill="#D8DDE5" fill-rule="nonzero" points="643.332 174.995 637.495 174.995 637.495 180.832 643.332 180.832"></polygon>
                <polygon id="Path" fill="#D8DDE5" fill-rule="nonzero" points="631.673 186.668 625.837 186.668 625.837 192.505 631.673 192.505"></polygon>
                <polygon id="Path" fill="#D8DDE5" fill-rule="nonzero" points="625.837 192.489 620 192.489 620 198.326 625.837 198.326"></polygon>
                <polygon id="Path" fill="#D8DDE5" fill-rule="nonzero" points="637.494 192.489 631.658 192.489 631.658 198.326 637.494 198.326"></polygon>
                <polygon id="Path" fill="#D8DDE5" fill-rule="nonzero" points="643.332 186.668 637.495 186.668 637.495 192.505 643.332 192.505"></polygon>
                <polygon id="Path" fill="#D8DDE5" fill-rule="nonzero" points="631.673 198.326 625.837 198.326 625.837 204.163 631.673 204.163"></polygon>
                <polygon id="Path" fill="#D8DDE5" fill-rule="nonzero" points="625.837 204.164 620 204.164 620 210.001 625.837 210.001"></polygon>
                <polygon id="Path" fill="#D8DDE5" fill-rule="nonzero" points="637.494 204.164 631.658 204.164 631.658 210.001 637.494 210.001"></polygon>
                <polygon id="Path" fill="#D8DDE5" fill-rule="nonzero" points="643.332 198.326 637.495 198.326 637.495 204.163 643.332 204.163"></polygon>
                <polygon id="Path" fill="#D8DDE5" fill-rule="nonzero" points="649.168 157.5 643.331 157.5 643.331 163.337 649.168 163.337"></polygon>
                <polygon id="Path" fill="#D8DDE5" fill-rule="nonzero" points="655.006 163.337 649.169 163.337 649.169 169.174 655.006 169.174"></polygon>
                <polygon id="Path" fill="#D8DDE5" fill-rule="nonzero" points="660.826 157.5 654.99 157.5 654.99 163.337 660.826 163.337"></polygon>
                <polygon id="Path" fill="#D8DDE5" fill-rule="nonzero" points="649.168 169.158 643.331 169.158 643.331 174.995 649.168 174.995"></polygon>
                <polygon id="Path" fill="#D8DDE5" fill-rule="nonzero" points="660.826 169.158 654.99 169.158 654.99 174.995 660.826 174.995"></polygon>
                <polygon id="Path" fill="#D8DDE5" fill-rule="nonzero" points="666.663 163.337 660.826 163.337 660.826 169.174 666.663 169.174"></polygon>
                <polygon id="Path" fill="#D8DDE5" fill-rule="nonzero" points="655.006 174.995 649.169 174.995 649.169 180.832 655.006 180.832"></polygon>
                <polygon id="Path" fill="#D8DDE5" fill-rule="nonzero" points="649.168 180.832 643.331 180.832 643.331 186.669 649.168 186.669"></polygon>
                <polygon id="Path" fill="#D8DDE5" fill-rule="nonzero" points="660.826 180.832 654.99 180.832 654.99 186.669 660.826 186.669"></polygon>
                <polygon id="Path" fill="#D8DDE5" fill-rule="nonzero" points="666.663 174.995 660.826 174.995 660.826 180.832 666.663 180.832"></polygon>
                <polygon id="Path" fill="#D8DDE5" fill-rule="nonzero" points="655.006 186.668 649.169 186.668 649.169 192.505 655.006 192.505"></polygon>
                <polygon id="Path" fill="#D8DDE5" fill-rule="nonzero" points="649.168 192.489 643.331 192.489 643.331 198.326 649.168 198.326"></polygon>
                <polygon id="Path" fill="#D8DDE5" fill-rule="nonzero" points="660.826 192.489 654.99 192.489 654.99 198.326 660.826 198.326"></polygon>
                <polygon id="Path" fill="#D8DDE5" fill-rule="nonzero" points="666.663 186.668 660.826 186.668 660.826 192.505 666.663 192.505"></polygon>
                <polygon id="Path" fill="#D8DDE5" fill-rule="nonzero" points="655.006 198.326 649.169 198.326 649.169 204.163 655.006 204.163"></polygon>
                <polygon id="Path" fill="#D8DDE5" fill-rule="nonzero" points="649.168 204.164 643.331 204.164 643.331 210.001 649.168 210.001"></polygon>
                <polygon id="Path" fill="#D8DDE5" fill-rule="nonzero" points="660.826 204.164 654.99 204.164 654.99 210.001 660.826 210.001"></polygon>
                <polygon id="Path" fill="#D8DDE5" fill-rule="nonzero" points="672.5 157.5 666.663 157.5 666.663 163.337 672.5 163.337"></polygon>
                <polygon id="Path" fill="#D8DDE5" fill-rule="nonzero" points="672.5 169.158 666.663 169.158 666.663 174.995 672.5 174.995"></polygon>
                <polygon id="Path" fill="#D8DDE5" fill-rule="nonzero" points="672.5 180.832 666.663 180.832 666.663 186.669 672.5 186.669"></polygon>
                <polygon id="Path" fill="#D8DDE5" fill-rule="nonzero" points="672.5 192.489 666.663 192.489 666.663 198.326 672.5 198.326"></polygon>
                <polygon id="Path" fill="#D8DDE5" fill-rule="nonzero" points="672.5 204.164 666.663 204.164 666.663 210.001 672.5 210.001"></polygon>
                <polygon id="Path" fill="#D8DDE5" fill-rule="nonzero" points="666.663 198.326 660.826 198.326 660.826 204.163 666.663 204.163"></polygon>
                <rect id="Rectangle" fill="#D8DDE5" fill-rule="nonzero" x="631.667" y="52.5" width="5.83333" height="52.5"></rect>
                <rect id="Rectangle" fill="#D8DDE5" fill-rule="nonzero" x="643.333" y="52.5" width="5.83333" height="52.5"></rect>
                <rect id="Rectangle" fill="#D8DDE5" fill-rule="nonzero" x="655" y="52.5" width="5.83333" height="52.5"></rect>
                <rect id="Rectangle" fill="#D8DDE5" fill-rule="nonzero" x="666.667" y="52.5" width="5.83333" height="52.5"></rect>
                <rect id="Rectangle" fill="#D8DDE5" fill-rule="nonzero" x="620" y="52.5" width="5.83668" height="52.5"></rect>
                <rect id="Rectangle" fill="#D8DDE5" fill-rule="nonzero" transform="translate(552.916335, 131.250000) rotate(-180.000000) translate(-552.916335, -131.250000) " x="549.99967" y="105" width="5.83333" height="52.5"></rect>
                <rect id="Rectangle" fill="#D8DDE5" fill-rule="nonzero" transform="translate(541.250335, 131.250000) rotate(-180.000000) translate(-541.250335, -131.250000) " x="538.33367" y="105" width="5.83333" height="52.5"></rect>
                <rect id="Rectangle" fill="#D8DDE5" fill-rule="nonzero" transform="translate(529.583335, 131.250000) rotate(-180.000000) translate(-529.583335, -131.250000) " x="526.66667" y="105" width="5.83333" height="52.5"></rect>
                <rect id="Rectangle" fill="#D8DDE5" fill-rule="nonzero" transform="translate(517.916335, 131.250000) rotate(-180.000000) translate(-517.916335, -131.250000) " x="514.99967" y="105" width="5.83333" height="52.5"></rect>
                <rect id="Rectangle" fill="#D8DDE5" fill-rule="nonzero" transform="translate(564.581660, 131.250000) rotate(-180.000000) translate(-564.581660, -131.250000) " x="561.66332" y="105" width="5.83668" height="52.5"></rect>
                <rect id="Rectangle" fill="#D8DDE5" fill-rule="nonzero" transform="translate(867.588335, 27.234400) rotate(-180.000000) translate(-867.588335, -27.234400) " x="864.67167" y="0.9844" width="5.83333" height="52.5"></rect>
                <rect id="Rectangle" fill="#D8DDE5" fill-rule="nonzero" transform="translate(855.921335, 27.234400) rotate(-180.000000) translate(-855.921335, -27.234400) " x="853.00467" y="0.9844" width="5.83333" height="52.5"></rect>
                <rect id="Rectangle" fill="#D8DDE5" fill-rule="nonzero" transform="translate(844.255335, 27.234400) rotate(-180.000000) translate(-844.255335, -27.234400) " x="841.33867" y="0.9844" width="5.83333" height="52.5"></rect>
                <rect id="Rectangle" fill="#D8DDE5" fill-rule="nonzero" transform="translate(832.588335, 27.234400) rotate(-180.000000) translate(-832.588335, -27.234400) " x="829.67167" y="0.9844" width="5.83333" height="52.5"></rect>
                <rect id="Rectangle" fill="#D8DDE5" fill-rule="nonzero" transform="translate(879.253660, 27.234400) rotate(-180.000000) translate(-879.253660, -27.234400) " x="876.33532" y="0.9844" width="5.83668" height="52.5"></rect>
                <path d="M567.5,163.333 L567.5,157.5 C596.495,157.5 620,181.005 620,210 L614.167,210 C614.167,184.227 593.273,163.333 567.5,163.333 Z M567.5,175 L567.5,169.166 C590.052,169.166 608.333,187.448 608.333,210 L602.5,210 C602.5,190.67 586.83,175 567.5,175 Z M567.5,180.834 L567.5,186.667 C580.387,186.667 590.833,197.114 590.833,210 L596.667,210 C596.667,193.892 583.608,180.834 567.5,180.834 Z M567.5,198.333 L567.5,192.5 C577.165,192.5 585,200.335 585,210 L579.167,210 C579.167,203.557 573.943,198.333 567.5,198.333 Z M567.5,210 L567.5,204.166 C570.722,204.166 573.333,206.778 573.333,210 L567.5,210 Z" id="Shape" fill="#D8DDE5"></path>
                <path d="M777,110.833 L777,105 C805.995,105 829.5,128.505 829.5,157.5 L823.667,157.5 C823.667,131.727 802.773,110.833 777,110.833 Z M777,122.5 L777,116.667 C799.552,116.667 817.833,134.949 817.833,157.5 L812,157.5 C812,138.17 796.33,122.5 777,122.5 Z M777,128.333 L777,134.167 C789.887,134.167 800.333,144.613 800.333,157.5 L806.167,157.5 C806.167,141.392 793.108,128.333 777,128.333 Z M777,145.833 L777,140 C786.665,140 794.5,147.835 794.5,157.5 L788.667,157.5 C788.667,151.056 783.443,145.833 777,145.833 Z M777,157.5 L777,151.667 C780.222,151.667 782.833,154.279 782.833,157.5 L777,157.5 Z" id="Shape" fill="#D8DDE5"></path>
                <path d="M729.112,52.5 L725,52.5 L725,48.3875 L773.387,0 L777.5,0 L777.5,4.1125 L729.112,52.5 Z M765.133,0 L756.879,0 L725,31.8791 L725,40.1333 L765.133,0 Z M748.625,0 L740.371,0 L725,15.3708 L725,23.625 L748.625,0 Z M725,0 L725,7.11666 L732.117,0 L725,0 Z M777.5,20.6208 L777.5,12.3667 L737.367,52.5 L745.621,52.5 L777.5,20.6208 Z M777.5,37.1291 L777.5,28.875 L753.875,52.5 L762.129,52.5 L777.5,37.1291 Z M777.5,45.3833 L770.383,52.5 L777.5,52.5 L777.5,45.3833 Z" id="Shape" fill="#D8DDE5" fill-rule="nonzero"></path>
                <path d="M672.5,105 L725,105 L725,52.5 C696.005,52.5 672.5,76.0051 672.5,105 Z" id="Path" fill="#D8DDE5" fill-rule="nonzero"></path>
                <path d="M777.5,157.5 L777.5,105 L725,105 C725,133.995 748.505,157.5 777.5,157.5 Z" id="Path" fill="#D8DDE5" fill-rule="nonzero"></path>
                <path d="M715.42,149.55 L715.42,255.55 L714.06,257.13 C709.38,262.6 702.56,264.97 691.67,264.97 C682.85,264.97 676.83,262.97 671.67,259.11 L639.86,259.11 C633.5,265.35 623.06,268.7 608.62,268.7 C592.62,268.7 580.12,264.02 575.16,256.59 L574.22,255.17 L574.22,149 C574.22,143 578.94,138.63 586.22,135.78 C587.831,135.155 589.477,134.624 591.15,134.19 L591.15,101.56 C591.15,86.2811 597.22,71.6277 608.024,60.8238 C618.828,50.0198 633.481,43.9502 648.76,43.9502 C664.039,43.9502 678.692,50.0198 689.496,60.8238 C700.3,71.6277 706.37,86.2811 706.37,101.56 L706.37,126.8 C706.37,128.56 695.96,132.48 690.71,132.48 C685.46,132.48 675.31,128.95 675.31,127.38 L675.31,101.56 C675.175,94.6092 672.319,87.9885 667.356,83.1205 C662.392,78.2524 655.717,75.5254 648.765,75.5254 C641.813,75.5254 635.138,78.2524 630.174,83.1205 C625.211,87.9885 622.355,94.6092 622.22,101.56 L622.22,133.49 C628.971,134.927 635.131,138.371 639.89,143.37 L671.43,143.37 C672.64,142.379 673.939,141.502 675.31,140.75 C680.304,139.15 685.476,138.169 690.71,137.83 C706,137 715.42,144.68 715.42,149.55 Z" id="Path" fill="#000000" fill-rule="nonzero"></path>
                <path d="M632,172.65 C624.807,231.216 616.313,260.503 606.52,260.51 C590.66,260.51 583.2,258.04 580.01,253.25 L580.01,160.47 C589.86,168.18 605.27,173.14 622.59,173.14 C625.733,173.14 628.874,172.976 632,172.65 Z M674.75,164.35 C681.116,166.862 687.906,168.125 694.75,168.07 C700.055,168.092 705.336,167.351 710.43,165.87 C710.97,188.99 707.717,210.39 700.67,230.07 C689.3,261.8 679,257.33 674.72,254.19 L674.75,164.35 Z" id="Shape" fill="#D3D8E0" fill-rule="nonzero"></path>
                <path d="M670.55,165 L670.55,242.51 C670.55,245.427 669.391,248.225 667.328,250.288 C665.265,252.351 662.467,253.51 659.55,253.51 L635.23,253.51 C634.703,220.25 636.727,197.893 641.3,186.44 C645.873,174.987 655.623,167.84 670.55,165 Z" id="Path" fill="#D3D8E0"></path>
                <path d="M652,192.58 C647.321,192.544 642.783,194.183 639.206,197.2 C635.629,200.217 633.249,204.414 632.495,209.032 C631.742,213.651 632.665,218.386 635.097,222.384 C637.53,226.381 641.312,229.377 645.76,230.83 C646.76,231.01 647.11,230.41 647.11,229.89 C647.11,229.37 647.11,228.19 647.11,226.55 C641.61,227.74 640.45,223.92 640.45,223.92 C640.086,222.733 639.309,221.714 638.26,221.05 C636.46,219.83 638.39,219.85 638.39,219.85 C639.008,219.936 639.6,220.16 640.119,220.506 C640.639,220.853 641.073,221.312 641.39,221.85 C641.66,222.335 642.023,222.762 642.458,223.107 C642.893,223.452 643.393,223.707 643.927,223.858 C644.461,224.01 645.02,224.054 645.571,223.989 C646.122,223.924 646.656,223.751 647.14,223.48 C647.229,222.483 647.677,221.552 648.4,220.86 C644.01,220.36 639.4,218.68 639.4,211.15 C639.365,209.205 640.081,207.321 641.4,205.89 C640.8,204.196 640.868,202.336 641.59,200.69 C641.59,200.69 643.25,200.17 647.03,202.69 C650.266,201.797 653.684,201.797 656.92,202.69 C660.69,200.15 662.35,200.69 662.35,200.69 C663.082,202.333 663.154,204.195 662.55,205.89 C663.869,207.321 664.585,209.205 664.55,211.15 C664.55,218.69 659.93,220.35 655.55,220.84 C656.042,221.309 656.426,221.879 656.677,222.511 C656.927,223.143 657.037,223.821 657,224.5 C657,227.13 657,229.24 657,229.89 C657,230.54 657.36,231.02 658.36,230.83 C662.819,229.375 666.608,226.369 669.041,222.359 C671.474,218.348 672.388,213.599 671.619,208.972 C670.85,204.345 668.447,200.147 664.848,197.139 C661.248,194.132 656.69,192.514 652,192.58 Z" id="Path" fill="#000000"></path>
                <path d="M584.92,249 L584.92,173.79 C584.92,171.79 586.58,170.69 588.63,171.39 L596.83,174.22 C597.01,203.92 596.343,223.607 594.83,233.28 C593.317,242.953 590.013,248.193 584.92,249 Z" id="Path" fill="#FFFFFF"></path>
                <path d="M679.61,227.58 L679.61,173.07 C679.591,172.747 679.659,172.424 679.806,172.134 C679.952,171.845 680.173,171.599 680.445,171.423 C680.717,171.246 681.031,171.144 681.355,171.128 C681.679,171.112 682.002,171.182 682.29,171.33 L688.23,173.33 C688.357,194.864 687.863,209.134 686.75,216.14 C685.637,223.147 683.257,226.96 679.61,227.58 Z" id="Path" fill="#FFFFFF"></path>
                <path d="M709.66,148.83 L709.66,161 C706.46,163.83 701.54,165.44 691.53,165.44 C681.52,165.44 676.6,163 673.41,161 L637.16,161 C632.89,165 624.27,168.28 608.37,168.28 C601.22,168.28 588.65,166.85 582.37,160.82 C580.37,158.887 579.427,154.75 579.54,148.41 C579.54,143.69 592.43,139.87 608.33,139.87 C624.23,139.87 631.78,143.56 637.12,148.41 L673.42,148.41 C676.03,146.41 681.94,143.41 691.49,143.41 C701.54,143.46 709.66,145.87 709.66,148.83 Z" id="Path" fill="#FFFFFF"></path>
                <path d="M681.12,124.329 L681.12,104.919 C681.12,87.1593 670.12,72.7693 652.28,72.7693 C648.053,72.764 643.866,73.5915 639.958,75.2043 C636.051,76.8171 632.499,79.1838 629.506,82.1692 C626.514,85.1546 624.138,88.7003 622.516,92.6038 C620.893,96.5072 620.055,100.692 620.05,104.919 L620.05,154.429 C619.59,155.839 618.4,157.289 610.2,157.849 C602,158.409 597.41,153.579 596.95,152.169 L596.95,103.789 C596.95,75.1293 623.64,53.0293 652.37,53.0293 C666.142,53.0293 679.352,58.4927 689.101,68.2208 C698.849,77.9489 704.341,91.1471 704.37,104.919 L704.37,126.589 C703.8,127.999 696.17,129.999 691,129.999 C685.83,129.999 681.6,125.729 681.14,124.319 L681.12,124.329 Z" id="Path" fill="#000000" fill-rule="nonzero"></path>
                <path d="M680.91,123.29 L680.91,102.13 C680.91,97.9091 680.079,93.7297 678.464,89.8303 C676.848,85.9309 674.481,82.3878 671.496,79.4034 C668.512,76.4189 664.969,74.0515 661.069,72.4363 C657.17,70.8211 652.991,69.9898 648.77,69.9898 C644.549,69.9898 640.37,70.8211 636.471,72.4363 C632.571,74.0515 629.028,76.4189 626.044,79.4034 C623.059,82.3878 620.692,85.9309 619.077,89.8303 C617.461,93.7297 616.63,97.9091 616.63,102.13 L616.63,151.69 C616.17,153.1 611.95,155.12 606.81,155.12 C601.67,155.12 597.44,153.12 596.98,151.69 L596.98,102.13 C596.98,88.373 602.445,75.1796 612.172,65.4521 C621.9,55.7246 635.093,50.2598 648.85,50.2598 C662.607,50.2598 675.8,55.7246 685.528,65.4521 C695.255,75.1796 700.72,88.373 700.72,102.13 L700.72,123.29 C700.26,124.7 696.04,126.72 690.89,126.72 C685.74,126.72 681.37,124.7 680.91,123.29 Z" id="Path" fill="#D3D8E0" fill-rule="nonzero"></path>
                <path d="M601.84,146.549 L601.84,100.289 C601.866,89.2535 605.823,78.5878 613.002,70.2063 C620.182,61.8247 630.113,56.2757 641.014,54.555 C651.915,52.8343 663.072,55.0545 672.484,60.8172 C681.896,66.5799 688.946,75.5079 692.37,85.9994 C687.442,76.9307 679.632,69.7638 670.174,65.6324 C660.716,61.5009 650.15,60.6407 640.149,63.1879 C630.147,65.7351 621.28,71.5442 614.95,79.6964 C608.621,87.8486 605.19,97.8784 605.2,108.199 L605.2,148.119 C603.34,147.749 602.08,147.189 601.84,146.549 Z" id="Path" fill="#FFFFFF" fill-rule="nonzero"></path>
                <path d="M691.13,109.84 L687.84,109.84 C686.99,112.32 690.24,117.92 693.65,119.1 C696.4,120.1 699.18,119.55 700.65,118.02 C699.91,118.53 695.38,117.17 693.34,114.55 C692.223,113.188 691.463,111.569 691.13,109.84 Z" id="Path" fill="#FFFFFF" fill-rule="nonzero"></path>
                <path d="M704.31,109.84 L704.31,119 C704.1,119 703.76,118.85 701.42,118.48 C694.42,117.37 691.71,113.48 691.13,109.84 L704.31,109.84 Z" id="Path" fill="#000000"></path>
                <path d="M692.58,157.89 C699.743,157.89 705.55,156.167 705.55,154.04 C705.55,151.914 699.743,150.19 692.58,150.19 C685.417,150.19 679.61,151.914 679.61,154.04 C679.61,156.167 685.417,157.89 692.58,157.89 Z" id="Path" fill="#000000" fill-rule="nonzero"></path>
            </g>
        </g>
    </g>
</svg>