<svg id="Layer_4" data-name="Layer 4" xmlns="http://www.w3.org/2000/svg" viewBox="0 0 882 300"><defs><style>.cls-1,.cls-2{fill:#c4c3c6;}.cls-2,.cls-3,.cls-4{fill-rule:evenodd;}.cls-4,.cls-5{fill:#fff;}</style></defs><title>github-policy</title><rect class="cls-1" x="-0.2" y="0.07" width="882" height="209" rx="6"/><path d="M61.53,144.92V132.47H69v1.22H62.92v4.86h5.13v1.23H62.92v5.14Z"/><path d="M70.76,133.89v-1.57h1.35v1.57Zm0,11v-9h1.35v9Z"/><path d="M76.06,144.92H74.71v-9H76v.63a5.74,5.74,0,0,1,2.79-.81,2.66,2.66,0,0,1,2.42,1,6.88,6.88,0,0,1,.62,3.45v4.75H80.54v-4.71a6.19,6.19,0,0,0-.37-2.57,1.63,1.63,0,0,0-1.58-.69,4.83,4.83,0,0,0-1.21.17,6.44,6.44,0,0,0-1,.33l-.34.17Z"/><path d="M91.28,132v12.92H90v-.61a5.43,5.43,0,0,1-2.73.79,4,4,0,0,1-1.26-.18,2.58,2.58,0,0,1-1-.64c-.65-.65-1-1.85-1-3.59a6.44,6.44,0,0,1,.87-3.79,3.39,3.39,0,0,1,2.89-1.16A11,11,0,0,1,90,136v-4ZM86.6,143.77a2.25,2.25,0,0,0,.84.13,4.64,4.64,0,0,0,1.15-.17,7.08,7.08,0,0,0,1-.34l.36-.16v-6.1a12.05,12.05,0,0,0-2.14-.22,2.08,2.08,0,0,0-1.91.88,5.27,5.27,0,0,0-.54,2.71,4.43,4.43,0,0,0,.63,2.8A1.53,1.53,0,0,0,86.6,143.77Z"/><path d="M97.46,140.41a5.7,5.7,0,0,1,.88-3.57,4.57,4.57,0,0,1,6,0,5.78,5.78,0,0,1,.87,3.57,6,6,0,0,1-.83,3.58,4.66,4.66,0,0,1-6,0A6,6,0,0,1,97.46,140.41Zm1.38,0a5.71,5.71,0,0,0,.48,2.76,2.93,2.93,0,0,0,4,0,5.8,5.8,0,0,0,.47-2.76,5.05,5.05,0,0,0-.53-2.73,2.18,2.18,0,0,0-1.93-.75,2.25,2.25,0,0,0-1.95.75A5,5,0,0,0,98.84,140.38Z"/><path d="M113,135.92h1.35v9H113v-.63a5.13,5.13,0,0,1-2.66.81,2.67,2.67,0,0,1-2.44-.95,7.22,7.22,0,0,1-.6-3.53v-4.7h1.35v4.68a6.59,6.59,0,0,0,.34,2.63c.23.45.74.67,1.55.67a4.57,4.57,0,0,0,1.2-.17,5.93,5.93,0,0,0,.94-.34l.32-.16Z"/><path d="M121.58,137.09h-2.86v4.31a5.81,5.81,0,0,0,.22,2c.15.32.51.49,1.07.49l1.6-.11.09,1.11a11.26,11.26,0,0,1-1.83.2,2.38,2.38,0,0,1-2-.68,4.48,4.48,0,0,1-.54-2.61v-4.74h-1.27v-1.17h1.27v-2.75h1.34v2.75h2.86Z"/><path d="M128.54,144.92h-1.35V132h1.35v4.43a6.43,6.43,0,0,1,2.78-.69,2.68,2.68,0,0,1,2.42,1,6.88,6.88,0,0,1,.62,3.45v4.75H133v-4.71a6.19,6.19,0,0,0-.37-2.57,1.61,1.61,0,0,0-1.56-.69,6.17,6.17,0,0,0-2.2.41l-.34.13Z"/><path d="M136.46,140.41a5.7,5.7,0,0,1,.89-3.57,4.56,4.56,0,0,1,5.94,0,5.7,5.7,0,0,1,.88,3.57,6.11,6.11,0,0,1-.83,3.58,4.68,4.68,0,0,1-6.05,0A6.11,6.11,0,0,1,136.46,140.41Zm1.39,0a5.71,5.71,0,0,0,.48,2.76,2.13,2.13,0,0,0,2,.79c1,0,1.68-.26,2-.78a5.8,5.8,0,0,0,.47-2.76,5.07,5.07,0,0,0-.52-2.73,2.88,2.88,0,0,0-3.88,0A5,5,0,0,0,137.85,140.38Z"/><path d="M145.54,135.92h1.35l1.81,7.83H149l2.14-7.65h1.41l2.14,7.65H155l1.8-7.83h1.35l-2.15,9h-2.25l-1.91-7-1.9,7h-2.25Z"/><path d="M163.21,135.92h1.35l1.82,7.83h.29l2.14-7.65h1.4l2.15,7.65h.3l1.8-7.83h1.35l-2.14,9h-2.25l-1.91-7-1.91,7h-2.25Z"/><path d="M183.7,143.81l.52-.06,0,1.07a26.05,26.05,0,0,1-3.51.28A3.16,3.16,0,0,1,178,144a6,6,0,0,1-.81-3.5q0-4.74,3.76-4.74a3.44,3.44,0,0,1,2.72,1,4.74,4.74,0,0,1,.9,3.2l-.07,1h-5.94a3.7,3.7,0,0,0,.54,2.22,2.2,2.2,0,0,0,1.88.72C181.86,143.92,182.77,143.88,183.7,143.81Zm-.49-3.91a4,4,0,0,0-.53-2.34,2.08,2.08,0,0,0-1.73-.68,2.21,2.21,0,0,0-1.8.72,3.63,3.63,0,0,0-.62,2.3Z"/><path d="M196.24,135.92h1.35v9h-1.35v-.63a5.16,5.16,0,0,1-2.66.81,2.66,2.66,0,0,1-2.44-.95,7.22,7.22,0,0,1-.6-3.53v-4.7h1.34v4.68a6.54,6.54,0,0,0,.35,2.63c.22.45.74.67,1.54.67a4.65,4.65,0,0,0,1.21-.17,5.93,5.93,0,0,0,.94-.34l.32-.16Z"/><path d="M203,137c-1.31,0-2,.46-2,1.37a.94.94,0,0,0,.45.89,7.92,7.92,0,0,0,2.05.54,5.65,5.65,0,0,1,2.27.78,2.27,2.27,0,0,1,.66,1.89,2.34,2.34,0,0,1-.89,2,4.4,4.4,0,0,1-2.6.64,16.11,16.11,0,0,1-2.63-.25l-.54-.09.07-1.17a22.14,22.14,0,0,0,3.1.31,3,3,0,0,0,1.59-.34,1.18,1.18,0,0,0,.55-1.11,1.11,1.11,0,0,0-.47-1.06,6.49,6.49,0,0,0-2-.53,5.58,5.58,0,0,1-2.25-.74,2.12,2.12,0,0,1-.66-1.8,2.18,2.18,0,0,1,.92-1.95,4,4,0,0,1,2.32-.63,18.74,18.74,0,0,1,2.75.26l.5.09,0,1.15A23.77,23.77,0,0,0,203,137Z"/><path d="M214.67,143.81l.52-.06,0,1.07a26.05,26.05,0,0,1-3.51.28A3.15,3.15,0,0,1,209,144a6,6,0,0,1-.81-3.5q0-4.74,3.76-4.74a3.44,3.44,0,0,1,2.72,1,4.74,4.74,0,0,1,.9,3.2l-.08,1h-5.94a3.7,3.7,0,0,0,.54,2.22,2.22,2.22,0,0,0,1.89.72C212.84,143.92,213.75,143.88,214.67,143.81Zm-.48-3.91a4,4,0,0,0-.53-2.34,2.08,2.08,0,0,0-1.73-.68,2.21,2.21,0,0,0-1.8.72,3.63,3.63,0,0,0-.62,2.3Z"/><path d="M226.77,139.79v-1.24h3.44v6.12a21.85,21.85,0,0,1-4.05.43c-1.82,0-3.07-.52-3.77-1.56a11.58,11.58,0,0,1,0-9.68c.7-1.05,1.94-1.57,3.73-1.57a17.64,17.64,0,0,1,3.47.36l.62.11-.06,1.15a23.91,23.91,0,0,0-3.87-.38,3,3,0,0,0-2.79,1.2,11.33,11.33,0,0,0,0,8,3,3,0,0,0,2.77,1.2,13.57,13.57,0,0,0,2.58-.25v-3.84Z"/><path d="M232.69,133.89v-1.57H234v1.57Zm0,11v-9H234v9Z"/><path d="M241.29,137.09h-2.86v4.31a5.74,5.74,0,0,0,.23,2c.15.32.5.49,1.07.49l1.6-.11.09,1.11a11.36,11.36,0,0,1-1.84.2,2.37,2.37,0,0,1-1.94-.68,4.48,4.48,0,0,1-.54-2.61v-4.74h-1.28v-1.17h1.28v-2.75h1.33v2.75h2.86Z"/><path d="M244.3,144.92H243V132h1.35v4.43a6.39,6.39,0,0,1,2.77-.69,2.65,2.65,0,0,1,2.42,1,6.77,6.77,0,0,1,.62,3.45v4.75h-1.35v-4.71a6.23,6.23,0,0,0-.36-2.57,1.61,1.61,0,0,0-1.56-.69,6.13,6.13,0,0,0-2.2.41l-.34.13Z"/><path d="M258.23,135.92h1.35v9h-1.35v-.63a5.16,5.16,0,0,1-2.66.81,2.66,2.66,0,0,1-2.44-.95,7.22,7.22,0,0,1-.6-3.53v-4.7h1.35v4.68a6.59,6.59,0,0,0,.34,2.63c.23.45.74.67,1.55.67a4.63,4.63,0,0,0,1.2-.17,5.93,5.93,0,0,0,.94-.34l.32-.16Z"/><path d="M266.15,135.74a2.92,2.92,0,0,1,2.55,1,6.66,6.66,0,0,1,.73,3.63,5.66,5.66,0,0,1-.91,3.64c-.61.7-1.72,1-3.34,1-.5,0-1.34,0-2.5-.14l-.51-.05V132h1.34v4.37A6.29,6.29,0,0,1,266.15,135.74Zm-1,8.16a2.73,2.73,0,0,0,2.33-.8,4.85,4.85,0,0,0,.57-2.71,5.73,5.73,0,0,0-.45-2.68A1.71,1.71,0,0,0,266,137a6.12,6.12,0,0,0-2.14.4l-.36.12v6.34Q264.68,143.9,265.16,143.9Z"/><path d="M77.23,86.93V83.62H86.4V99.94a59,59,0,0,1-10.8,1.15q-7.25,0-10.06-4.18T62.74,84q0-8.7,2.8-12.91t10-4.2a47.25,47.25,0,0,1,9.27,1l1.63.29-.14,3.07a63.29,63.29,0,0,0-10.32-1q-5.52,0-7.44,3.2T66.58,84q0,7.42,1.92,10.61t7.39,3.19a36.22,36.22,0,0,0,6.86-.67V86.93Z"/><path d="M93,71.18V67h3.6v4.17Zm0,29.43v-24h3.6v24Z"/><path d="M116,79.73h-7.64V91.2a15.38,15.38,0,0,0,.61,5.42c.39.87,1.35,1.3,2.85,1.3l4.27-.29.24,3a33.05,33.05,0,0,1-4.89.53q-3.75,0-5.19-1.83t-1.44-7V79.73h-3.41V76.61h3.41V69.26h3.55v7.35H116Z"/><path d="M124,100.61h-3.6V66.14H124V78a17.31,17.31,0,0,1,7.4-1.82q4.8,0,6.45,2.59t1.66,9.22v12.67h-3.6V88q0-5-1-6.84c-.65-1.23-2-1.85-4.15-1.85a15.87,15.87,0,0,0-5.85,1.11l-.92.33Z"/><path d="M161.13,76.61h3.61v24h-3.61V98.93a13.69,13.69,0,0,1-7.1,2.16q-4.89,0-6.5-2.55c-1.08-1.69-1.61-4.83-1.61-9.4V76.61h3.6V89.09c0,3.49.3,5.82.91,7s2,1.77,4.13,1.77a12,12,0,0,0,3.21-.45,14.82,14.82,0,0,0,2.5-.89l.86-.43Z"/><path d="M182.25,76.13c3.24,0,5.5.92,6.8,2.76S191,84,191,88.56s-.81,7.85-2.42,9.72-4.59,2.81-8.91,2.81c-1.34,0-3.57-.13-6.67-.39l-1.34-.14V66.14h3.55V77.81A16.8,16.8,0,0,1,182.25,76.13Zm-2.64,21.74q4.71,0,6.22-2.13t1.51-7.23q0-5.08-1.2-7.13t-4.27-2a16.85,16.85,0,0,0-5.71,1.06l-1,.34V97.63Q178.32,97.87,179.61,97.87Z"/><path d="M220.22,89.42h-8.45v11.19h-3.69V67.39h12.14q5.43,0,8,2.64c1.72,1.76,2.59,4.45,2.59,8.07Q230.83,89.43,220.22,89.42Zm-8.45-3.26h8.4q6.87,0,6.87-8.06c0-2.56-.55-4.44-1.63-5.64s-2.84-1.8-5.24-1.8h-8.4Z"/><path d="M234.67,88.56q0-6.57,2.35-9.5c1.57-2,4.22-2.93,7.94-2.93s6.37,1,7.92,2.93,2.33,5.12,2.33,9.5-.73,7.57-2.21,9.55-4.16,3-8.06,3-6.59-1-8.06-3S234.67,92.94,234.67,88.56Zm3.69-.07q0,5.25,1.28,7.37c.84,1.4,2.62,2.11,5.32,2.11s4.48-.7,5.31-2.09,1.25-3.85,1.25-7.37-.47-5.94-1.4-7.27-2.64-2-5.16-2-4.24.66-5.18,2S238.36,85,238.36,88.49Z"/><path d="M261.36,100.61V66.14H265v34.47Z"/><path d="M272.16,71.18V67h3.6v4.17Zm0,29.43v-24h3.6v24Z"/><path d="M291.64,76.13a41.9,41.9,0,0,1,5.38.57l1.15.15L298,79.78a56.3,56.3,0,0,0-5.67-.44c-2.72,0-4.56.65-5.54,2s-1.46,3.69-1.46,7.2.45,5.94,1.36,7.32,2.81,2.06,5.69,2.06l5.67-.43.14,3a50.71,50.71,0,0,1-6.67.67q-5.62,0-7.75-2.88t-2.14-9.72q0-6.84,2.3-9.6T291.64,76.13Z"/><path d="M301.34,76.61h3.6l6,20.88h1.58l6.05-20.88h3.6l-10,34.65h-3.6l3.12-10.65h-3.55Z"/><g id="Illustrations"><g id="Artboard-Copy"><g id="Group-70-Copy-2"><g id="Group-70-Copy"><path id="Path" d="M715.22,149.62v106l-1.36,1.58c-4.68,5.47-11.51,7.84-22.39,7.84-8.82,0-14.84-2-20.05-5.86H639.66c-6.37,6.25-16.8,9.59-31.25,9.59-16,0-28.5-4.67-33.45-12.11l-1-1.42V149.09c0-6,4.73-10.37,12-13.22a44.75,44.75,0,0,1,4.94-1.59V101.63a57.61,57.61,0,0,1,115.22,0v25.25c0,1.75-10.42,5.67-15.66,5.67s-15.41-3.53-15.41-5.09V101.63a26.55,26.55,0,0,0-53.09,0v31.94a34.07,34.07,0,0,1,17.67,9.87h31.54a26.59,26.59,0,0,1,3.88-2.62,64.57,64.57,0,0,1,15.41-2.92C705.75,137.08,715.22,144.75,715.22,149.62Z"/><path id="Combined-Shape" class="cls-1" d="M631.76,172.72Q621,260.58,606.28,260.58c-15.85,0-23.31-2.47-26.5-7.26V160.55c9.85,7.7,25.26,12.67,42.57,12.67A87.62,87.62,0,0,0,631.76,172.72Zm42.76-8.3a53.27,53.27,0,0,0,20,3.72A55.73,55.73,0,0,0,710.22,166q.81,34.67-9.76,64.19c-11.36,31.73-21.68,27.27-25.94,24.12Z"/><path id="Rectangle" class="cls-2" d="M670.34,165.07v77.51a11,11,0,0,1-11,11H635q-.78-49.89,6.07-67.07T670.34,165.07Z"/><path id="Fill-4" class="cls-3" d="M651.82,192.66a19.61,19.61,0,0,0-6.25,38.25c1,.18,1.35-.43,1.35-.95s0-1.7,0-3.34c-5.49,1.19-6.65-2.63-6.65-2.63a5.19,5.19,0,0,0-2.2-2.87c-1.79-1.22.14-1.19.14-1.19a4.17,4.17,0,0,1,3,2c1.76,3,4.62,2.13,5.75,1.63a4.19,4.19,0,0,1,1.25-2.62c-4.39-.5-9-2.18-9-9.7a7.55,7.55,0,0,1,2-5.27,6.93,6.93,0,0,1,.19-5.19s1.66-.53,5.43,2a18.89,18.89,0,0,1,9.9,0c3.77-2.54,5.42-2,5.42-2a7,7,0,0,1,.2,5.19,7.54,7.54,0,0,1,2,5.27c0,7.54-4.62,9.2-9,9.68a4.69,4.69,0,0,1,1.34,3.64c0,2.62,0,4.74,0,5.38s.35,1.14,1.36.95a19.61,19.61,0,0,0-6.26-38.25"/><path id="Rectangle-Copy-21" class="cls-4" d="M584.72,249.05V173.86c0-2,1.66-3.1,3.71-2.39l8.2,2.83q.25,44.54-2,59T584.72,249.05Z"/><path id="Rectangle-Copy-22" class="cls-4" d="M679.4,227.65V173.14a1.84,1.84,0,0,1,2.69-1.73l5.94,2.05q.18,32.29-1.49,42.81T679.4,227.65Z"/><path class="cls-4" d="M709.45,148.91v12.18c-3.2,2.83-8.11,4.45-18.12,4.45s-14.93-2.43-18.13-4.45H637c-4.26,4-12.89,7.28-28.79,7.28-7.15,0-19.72-1.42-26-7.45q-3-2.91-2.82-12.42c0-4.71,12.88-8.54,28.78-8.54s23.46,3.69,28.79,8.54h36.3c2.62-2,8.53-5,18.08-5C701.34,143.53,709.45,145.94,709.45,148.91Z"/><g id="Group-71"><path d="M680.92,124.41V105c0-17.75-11-32.15-28.85-32.15A32.19,32.19,0,0,0,619.84,105V154.5h0c-.46,1.41-1.66,2.86-9.86,3.42s-12.78-4.27-13.24-5.67h0V103.86c0-28.65,26.68-50.76,55.41-50.76a52,52,0,0,1,52,51.89v21.67h0c-.46,1.41-8.09,3.42-13.25,3.42s-9.39-4.27-9.85-5.67Z"/><path class="cls-1" d="M680.7,123.36h0V102.2a32.14,32.14,0,1,0-64.27,0v49.57h0c-.46,1.41-4.69,3.42-9.83,3.42s-9.36-2-9.82-3.42h0V102.2a51.87,51.87,0,1,1,103.74,0v21.16h0c-.46,1.41-4.68,3.43-9.82,3.43S681.16,124.77,680.7,123.36Z"/><path id="Shape" class="cls-5" d="M601.64,146.62h0V100.37a46.4,46.4,0,0,1,90.56-14.3A46.4,46.4,0,0,0,605,108.27V148.2C603.13,147.82,601.87,147.26,601.64,146.62Z"/><path id="Shape-Copy-5" class="cls-5" d="M690.93,109.91h-3.3c-.85,2.48,2.4,8.09,5.82,9.26,2.75,1,5.53.45,6.95-1.08-.75.51-5.27-.85-7.31-3.47A10.27,10.27,0,0,1,690.93,109.91Z"/></g><path class="cls-3" d="M704.1,109.91v9.17c-.21,0-.55-.15-2.88-.52-7-1.12-9.72-5-10.29-8.65Z"/></g></g></g><ellipse cx="692.37" cy="154.11" rx="12.97" ry="3.85"/></g></svg>