<?xml version="1.0" encoding="UTF-8"?>
<svg width="882px" height="300px" viewBox="0 0 882 300" version="1.1" xmlns="http://www.w3.org/2000/svg" xmlns:xlink="http://www.w3.org/1999/xlink">
    <!-- Generator: Sketch 61 (89581) - https://sketch.com -->
    <title>Group</title>
    <desc>Created with Sketch.</desc>
    <g id="Github-Covers" stroke="none" stroke-width="1" fill="none" fill-rule="evenodd">
        <g id="Landing-Repository">
            <g id="Group">
                <rect id="Rectangle" fill="#FFFFFF" fill-rule="nonzero" x="0" y="0" width="882" height="300"></rect>
                <rect id="Rectangle" fill="#000000" fill-rule="nonzero" x="0" y="0" width="882" height="210"></rect>
                <path d="M64.4062,101 L64.4062,68.3516 L68.9766,68.3516 L68.9766,96.9219 L83.7656,96.9219 L83.7656,101 L64.4062,101 Z M87.0469,94.2734 C87.0469,92.3516 87.6562,90.7031 88.875,89.3281 C90.0938,87.9531 91.9219,87.1562 94.3594,86.9375 L102.328,86.2109 L102.328,84.2422 C102.328,83.2891 102.203,82.5 101.953,81.875 C101.719,81.25 101.375,80.7578 100.922,80.3984 C100.484,80.0234 99.9531,79.7656 99.3281,79.625 C98.7031,79.4688 98.0078,79.3906 97.2422,79.3906 C95.7109,79.3906 94.4844,79.7344 93.5625,80.4219 C92.6562,81.1094 92.2031,82.2422 92.2031,83.8203 L87.8672,83.8203 C87.8672,82.6641 88.1172,81.6094 88.6172,80.6562 C89.1172,79.6875 89.7891,78.8516 90.6328,78.1484 C91.4766,77.4453 92.4688,76.9062 93.6094,76.5312 C94.75,76.1406 95.9766,75.9453 97.2891,75.9453 C98.6016,75.9453 99.8203,76.1172 100.945,76.4609 C102.086,76.7891 103.07,77.2891 103.898,77.9609 C104.742,78.6328 105.391,79.5 105.844,80.5625 C106.312,81.6094 106.547,82.8516 106.547,84.2891 L106.547,97.2969 L110.203,97.2969 L110.203,101 L102.891,101 L102.797,96.4766 L102.609,96.4766 C101.938,98.2109 100.945,99.5 99.6328,100.344 C98.3203,101.172 96.75,101.586 94.9219,101.586 C93.7031,101.586 92.6016,101.398 91.6172,101.023 C90.6328,100.648 89.7812,100.094 89.0625,99.3594 C88.4219,98.7188 87.9219,97.9531 87.5625,97.0625 C87.2188,96.1719 87.0469,95.2422 87.0469,94.2734 Z M91.6172,94.8594 C91.6172,95.9844 92.0078,96.8125 92.7891,97.3438 C93.5703,97.8594 94.6484,98.1172 96.0234,98.1172 C97.9766,98.1172 99.5156,97.4219 100.641,96.0312 C101.766,94.6406 102.328,92.8438 102.328,90.6406 L102.328,89.5391 L93.6328,90.3359 C92.7422,90.3984 92.1797,90.6328 91.9453,91.0391 C91.7266,91.4453 91.6172,92 91.6172,92.7031 L91.6172,94.8594 Z M115.031,101 L115.031,76.5312 L119.344,76.5312 L119.344,80.5625 C120.016,79.125 120.938,78 122.109,77.1875 C123.281,76.3594 124.797,75.9453 126.656,75.9453 C127.844,75.9453 128.922,76.1094 129.891,76.4375 C130.859,76.75 131.695,77.2578 132.398,77.9609 C133.102,78.6641 133.648,79.5703 134.039,80.6797 C134.43,81.7734 134.625,83.1094 134.625,84.6875 L134.625,101 L130.289,101 L130.289,85.1562 C130.289,83.3594 129.945,81.9531 129.258,80.9375 C128.57,79.9062 127.297,79.3906 125.438,79.3906 C124.547,79.3906 123.734,79.5703 123,79.9297 C122.266,80.2734 121.625,80.7734 121.078,81.4297 C120.531,82.0859 120.102,82.8672 119.789,83.7734 C119.492,84.6641 119.344,85.6406 119.344,86.7031 L119.344,101 L115.031,101 Z M141.164,88.7656 C141.164,87 141.359,85.3359 141.75,83.7734 C142.156,82.1953 142.758,80.8359 143.555,79.6953 C144.352,78.5391 145.359,77.625 146.578,76.9531 C147.797,76.2812 149.219,75.9453 150.844,75.9453 C152.672,75.9453 154.242,76.3359 155.555,77.1172 C156.867,77.8984 157.906,79.0312 158.672,80.5156 L158.672,68.3516 L163.008,68.3516 L163.008,101 L158.672,101 L158.672,97.0156 C157.906,98.4844 156.883,99.6172 155.602,100.414 C154.32,101.195 152.773,101.586 150.961,101.586 C149.305,101.586 147.859,101.25 146.625,100.578 C145.406,99.9062 144.391,98.9922 143.578,97.8359 C142.766,96.6797 142.156,95.3281 141.75,93.7812 C141.359,92.2188 141.164,90.5469 141.164,88.7656 Z M145.711,92.5625 C145.711,93.3906 145.867,94.1484 146.18,94.8359 C146.508,95.5234 146.953,96.1094 147.516,96.5938 C148.078,97.0625 148.734,97.4375 149.484,97.7188 C150.234,97.9844 151.062,98.1172 151.969,98.1172 C154.141,98.1172 155.797,97.4297 156.938,96.0547 C158.094,94.6797 158.672,92.9375 158.672,90.8281 L158.672,86.7031 C158.672,84.5938 158.094,82.8516 156.938,81.4766 C155.797,80.0859 154.141,79.3906 151.969,79.3906 C151.078,79.3906 150.25,79.5312 149.484,79.8125 C148.734,80.0781 148.078,80.4531 147.516,80.9375 C146.953,81.4219 146.508,82.0078 146.18,82.6953 C145.867,83.3828 145.711,84.1406 145.711,84.9688 L145.711,92.5625 Z M170.859,72.875 L170.859,68.3516 L175.359,68.3516 L175.359,72.875 L170.859,72.875 Z M170.953,101 L170.953,76.5312 L175.266,76.5312 L175.266,101 L170.953,101 Z M183.234,101 L183.234,76.5312 L187.547,76.5312 L187.547,80.5625 C188.219,79.125 189.141,78 190.312,77.1875 C191.484,76.3594 193,75.9453 194.859,75.9453 C196.047,75.9453 197.125,76.1094 198.094,76.4375 C199.062,76.75 199.898,77.2578 200.602,77.9609 C201.305,78.6641 201.852,79.5703 202.242,80.6797 C202.633,81.7734 202.828,83.1094 202.828,84.6875 L202.828,101 L198.492,101 L198.492,85.1562 C198.492,83.3594 198.148,81.9531 197.461,80.9375 C196.773,79.9062 195.5,79.3906 193.641,79.3906 C192.75,79.3906 191.938,79.5703 191.203,79.9297 C190.469,80.2734 189.828,80.7734 189.281,81.4297 C188.734,82.0859 188.305,82.8672 187.992,83.7734 C187.695,84.6641 187.547,85.6406 187.547,86.7031 L187.547,101 L183.234,101 Z M209.367,88.7656 C209.367,87 209.562,85.3359 209.953,83.7734 C210.359,82.1953 210.961,80.8359 211.758,79.6953 C212.555,78.5391 213.562,77.625 214.781,76.9531 C216,76.2812 217.422,75.9453 219.047,75.9453 C220.875,75.9453 222.445,76.3359 223.758,77.1172 C225.07,77.8984 226.109,79.0312 226.875,80.5156 L226.875,76.5312 L231.211,76.5312 L231.211,100.531 C231.211,102.234 230.906,103.695 230.297,104.914 C229.688,106.148 228.883,107.172 227.883,107.984 C226.898,108.797 225.773,109.391 224.508,109.766 C223.242,110.156 221.953,110.352 220.641,110.352 C219.359,110.352 218.133,110.227 216.961,109.977 C215.805,109.727 214.75,109.305 213.797,108.711 C212.859,108.117 212.078,107.328 211.453,106.344 C210.828,105.375 210.422,104.156 210.234,102.688 L214.547,102.688 C214.703,104.094 215.297,105.148 216.328,105.852 C217.375,106.555 218.75,106.906 220.453,106.906 C221.281,106.906 222.086,106.781 222.867,106.531 C223.648,106.297 224.336,105.914 224.93,105.383 C225.523,104.867 225.992,104.188 226.336,103.344 C226.695,102.516 226.875,101.508 226.875,100.32 L226.875,97.0156 C226.109,98.4844 225.086,99.6172 223.805,100.414 C222.523,101.195 220.977,101.586 219.164,101.586 C217.508,101.586 216.062,101.25 214.828,100.578 C213.609,99.9062 212.594,98.9922 211.781,97.8359 C210.969,96.6797 210.359,95.3281 209.953,93.7812 C209.562,92.2188 209.367,90.5469 209.367,88.7656 Z M213.914,92.5625 C213.914,93.3906 214.07,94.1484 214.383,94.8359 C214.711,95.5234 215.156,96.1094 215.719,96.5938 C216.281,97.0625 216.938,97.4375 217.688,97.7188 C218.438,97.9844 219.266,98.1172 220.172,98.1172 C222.344,98.1172 224,97.4297 225.141,96.0547 C226.297,94.6797 226.875,92.9375 226.875,90.8281 L226.875,86.7031 C226.875,84.5938 226.297,82.8516 225.141,81.4766 C224,80.0859 222.344,79.3906 220.172,79.3906 C219.281,79.3906 218.453,79.5312 217.688,79.8125 C216.938,80.0781 216.281,80.4531 215.719,80.9375 C215.156,81.4219 214.711,82.0078 214.383,82.6953 C214.07,83.3828 213.914,84.1406 213.914,84.9688 L213.914,92.5625 Z M251.766,101 L251.766,68.3516 L264.07,68.3516 C265.773,68.3516 267.273,68.5469 268.57,68.9375 C269.883,69.3281 270.969,69.9219 271.828,70.7188 C272.688,71.5156 273.312,72.5 273.703,73.6719 C274.094,74.8281 274.289,76.1797 274.289,77.7266 C274.289,79.1641 274.102,80.4688 273.727,81.6406 C273.367,82.7969 272.773,83.7969 271.945,84.6406 C271.305,85.2812 270.555,85.8125 269.695,86.2344 C268.852,86.6406 267.789,86.9219 266.508,87.0781 L274.57,101 L269.344,101 L261.703,87.2188 L256.336,87.2188 L256.336,101 L251.766,101 Z M256.336,83.3281 L265.734,83.3281 C266.953,83.3281 267.883,82.9609 268.523,82.2266 C269.164,81.4922 269.484,80.6172 269.484,79.6016 L269.484,75.9922 C269.484,74.8672 269.148,73.9922 268.477,73.3672 C267.805,72.7422 266.891,72.4297 265.734,72.4297 L256.336,72.4297 L256.336,83.3281 Z M279.961,88.7656 C279.961,86.9062 280.188,85.1875 280.641,83.6094 C281.109,82.0156 281.797,80.6641 282.703,79.5547 C283.625,78.4297 284.734,77.5469 286.031,76.9062 C287.328,76.2656 288.82,75.9453 290.508,75.9453 C292.273,75.9453 293.812,76.25 295.125,76.8594 C296.438,77.4688 297.523,78.3047 298.383,79.3672 C299.242,80.4141 299.891,81.6484 300.328,83.0703 C300.766,84.4922 300.984,86.0234 300.984,87.6641 L300.984,89.9609 L284.508,89.9609 L284.508,92.5625 C284.508,93.4531 284.672,94.2422 285,94.9297 C285.344,95.6172 285.805,96.2031 286.383,96.6875 C286.961,97.1562 287.609,97.5156 288.328,97.7656 C289.047,98 289.789,98.1172 290.555,98.1172 C292.086,98.1172 293.414,97.7266 294.539,96.9453 C295.664,96.1641 296.305,94.9219 296.461,93.2188 L300.797,93.2188 C300.703,94.5312 300.359,95.7031 299.766,96.7344 C299.172,97.75 298.398,98.6172 297.445,99.3359 C296.508,100.055 295.445,100.609 294.258,101 C293.07,101.391 291.82,101.586 290.508,101.586 C288.742,101.586 287.195,101.266 285.867,100.625 C284.555,99.9844 283.453,99.1016 282.562,97.9766 C281.688,96.8516 281.031,95.5078 280.594,93.9453 C280.172,92.3828 279.961,90.6562 279.961,88.7656 Z M284.508,86.5156 L296.508,86.5156 L296.508,85.1562 C296.508,84.2656 296.344,83.4609 296.016,82.7422 C295.703,82.0234 295.266,81.4141 294.703,80.9141 C294.156,80.4141 293.516,80.0391 292.781,79.7891 C292.062,79.5234 291.305,79.3906 290.508,79.3906 C289.711,79.3906 288.953,79.5234 288.234,79.7891 C287.516,80.0391 286.875,80.4141 286.312,80.9141 C285.75,81.4141 285.305,82.0234 284.977,82.7422 C284.664,83.4609 284.508,84.2656 284.508,85.1562 L284.508,86.5156 Z M307.547,109.156 L307.547,76.5312 L311.859,76.5312 L311.859,80.5156 C312.625,79.0469 313.656,77.9219 314.953,77.1406 C316.25,76.3438 317.828,75.9453 319.688,75.9453 C321.312,75.9453 322.734,76.2812 323.953,76.9531 C325.172,77.625 326.18,78.5391 326.977,79.6953 C327.789,80.8359 328.391,82.1953 328.781,83.7734 C329.188,85.3359 329.391,87 329.391,88.7656 C329.391,90.5625 329.188,92.2344 328.781,93.7812 C328.391,95.3281 327.789,96.6797 326.977,97.8359 C326.18,98.9922 325.172,99.9062 323.953,100.578 C322.75,101.25 321.328,101.586 319.688,101.586 C317.828,101.586 316.25,101.195 314.953,100.414 C313.656,99.6172 312.625,98.4844 311.859,97.0156 L311.859,109.156 L307.547,109.156 Z M311.859,90.8281 C311.859,92.9375 312.438,94.6797 313.594,96.0547 C314.75,97.4297 316.414,98.1172 318.586,98.1172 C320.414,98.1172 321.906,97.6094 323.062,96.5938 C324.234,95.5625 324.82,94.2188 324.82,92.5625 L324.82,84.9688 C324.82,83.3125 324.234,81.9688 323.062,80.9375 C321.906,79.9062 320.414,79.3906 318.586,79.3906 C316.414,79.3906 314.75,80.0859 313.594,81.4766 C312.438,82.8516 311.859,84.5938 311.859,86.7031 L311.859,90.8281 Z M334.805,88.7656 C334.805,86.9062 335.023,85.1875 335.461,83.6094 C335.914,82.0156 336.594,80.6641 337.5,79.5547 C338.422,78.4297 339.57,77.5469 340.945,76.9062 C342.32,76.2656 343.938,75.9453 345.797,75.9453 C347.656,75.9453 349.273,76.2656 350.648,76.9062 C352.023,77.5469 353.164,78.4297 354.07,79.5547 C354.977,80.6641 355.656,82.0156 356.109,83.6094 C356.562,85.1875 356.789,86.9062 356.789,88.7656 C356.789,90.6562 356.562,92.3828 356.109,93.9453 C355.656,95.5078 354.977,96.8516 354.07,97.9766 C353.164,99.1016 352.016,99.9844 350.625,100.625 C349.25,101.266 347.641,101.586 345.797,101.586 C343.938,101.586 342.32,101.266 340.945,100.625 C339.57,99.9844 338.422,99.1016 337.5,97.9766 C336.594,96.8516 335.914,95.5078 335.461,93.9453 C335.023,92.3828 334.805,90.6562 334.805,88.7656 Z M339.352,92.5625 C339.352,93.3906 339.523,94.1484 339.867,94.8359 C340.227,95.5234 340.695,96.1094 341.273,96.5938 C341.852,97.0625 342.531,97.4375 343.312,97.7188 C344.094,97.9844 344.922,98.1172 345.797,98.1172 C346.656,98.1172 347.477,97.9844 348.258,97.7188 C349.039,97.4375 349.719,97.0625 350.297,96.5938 C350.875,96.1094 351.336,95.5234 351.68,94.8359 C352.039,94.1484 352.219,93.3906 352.219,92.5625 L352.219,84.9688 C352.219,84.1406 352.039,83.3828 351.68,82.6953 C351.336,82.0078 350.875,81.4219 350.297,80.9375 C349.719,80.4531 349.039,80.0781 348.258,79.8125 C347.477,79.5312 346.656,79.3906 345.797,79.3906 C344.938,79.3906 344.109,79.5312 343.312,79.8125 C342.531,80.0781 341.852,80.4531 341.273,80.9375 C340.695,81.4219 340.227,82.0078 339.867,82.6953 C339.523,83.3828 339.352,84.1406 339.352,84.9688 L339.352,92.5625 Z M361.875,93.2656 L366.211,93.2656 C366.273,94.8906 366.852,96.1094 367.945,96.9219 C369.055,97.7188 370.359,98.1172 371.859,98.1172 C373.297,98.1172 374.547,97.7969 375.609,97.1562 C376.672,96.5156 377.203,95.5859 377.203,94.3672 C377.203,93.3828 376.883,92.5938 376.242,92 C375.602,91.4062 374.461,90.9531 372.82,90.6406 L368.789,89.8203 C366.773,89.3984 365.219,88.625 364.125,87.5 C363.047,86.3594 362.508,84.8281 362.508,82.9062 C362.508,81.9531 362.719,81.0547 363.141,80.2109 C363.578,79.3516 364.195,78.6094 364.992,77.9844 C365.805,77.3594 366.75,76.8672 367.828,76.5078 C368.922,76.1328 370.141,75.9453 371.484,75.9453 C372.641,75.9453 373.766,76.1016 374.859,76.4141 C375.969,76.7109 376.953,77.1797 377.812,77.8203 C378.688,78.4609 379.383,79.2812 379.898,80.2812 C380.43,81.2656 380.711,82.4453 380.742,83.8203 L376.43,83.8203 C376.367,82.1953 375.859,81.0547 374.906,80.3984 C373.969,79.7266 372.844,79.3906 371.531,79.3906 C370.188,79.3906 369.047,79.7109 368.109,80.3516 C367.188,80.9922 366.727,81.8281 366.727,82.8594 C366.727,83.8125 367,84.5547 367.547,85.0859 C368.094,85.6172 368.977,86.0078 370.195,86.2578 L374.32,87.125 C376.758,87.6406 378.562,88.4766 379.734,89.6328 C380.922,90.7734 381.516,92.3359 381.516,94.3203 C381.516,95.3516 381.281,96.3125 380.812,97.2031 C380.359,98.0781 379.695,98.8359 378.82,99.4766 C377.961,100.102 376.938,100.609 375.75,101 C374.562,101.391 373.25,101.586 371.812,101.586 C370.438,101.586 369.148,101.406 367.945,101.047 C366.758,100.703 365.711,100.188 364.805,99.5 C363.914,98.7969 363.211,97.9297 362.695,96.8984 C362.18,95.8516 361.906,94.6406 361.875,93.2656 Z M387.797,72.875 L387.797,68.3516 L392.297,68.3516 L392.297,72.875 L387.797,72.875 Z M387.891,101 L387.891,76.5312 L392.203,76.5312 L392.203,101 L387.891,101 Z M397.828,80.2109 L397.828,76.5312 L401.953,76.5312 L401.953,68.3516 L406.219,68.3516 L406.219,76.5312 L411.844,76.5312 L411.844,80.2109 L406.219,80.2109 L406.219,97.2969 L411.844,97.2969 L411.844,101 L401.953,101 L401.953,80.2109 L397.828,80.2109 Z M416.555,88.7656 C416.555,86.9062 416.773,85.1875 417.211,83.6094 C417.664,82.0156 418.344,80.6641 419.25,79.5547 C420.172,78.4297 421.32,77.5469 422.695,76.9062 C424.07,76.2656 425.688,75.9453 427.547,75.9453 C429.406,75.9453 431.023,76.2656 432.398,76.9062 C433.773,77.5469 434.914,78.4297 435.82,79.5547 C436.727,80.6641 437.406,82.0156 437.859,83.6094 C438.312,85.1875 438.539,86.9062 438.539,88.7656 C438.539,90.6562 438.312,92.3828 437.859,93.9453 C437.406,95.5078 436.727,96.8516 435.82,97.9766 C434.914,99.1016 433.766,99.9844 432.375,100.625 C431,101.266 429.391,101.586 427.547,101.586 C425.688,101.586 424.07,101.266 422.695,100.625 C421.32,99.9844 420.172,99.1016 419.25,97.9766 C418.344,96.8516 417.664,95.5078 417.211,93.9453 C416.773,92.3828 416.555,90.6562 416.555,88.7656 Z M421.102,92.5625 C421.102,93.3906 421.273,94.1484 421.617,94.8359 C421.977,95.5234 422.445,96.1094 423.023,96.5938 C423.602,97.0625 424.281,97.4375 425.062,97.7188 C425.844,97.9844 426.672,98.1172 427.547,98.1172 C428.406,98.1172 429.227,97.9844 430.008,97.7188 C430.789,97.4375 431.469,97.0625 432.047,96.5938 C432.625,96.1094 433.086,95.5234 433.43,94.8359 C433.789,94.1484 433.969,93.3906 433.969,92.5625 L433.969,84.9688 C433.969,84.1406 433.789,83.3828 433.43,82.6953 C433.086,82.0078 432.625,81.4219 432.047,80.9375 C431.469,80.4531 430.789,80.0781 430.008,79.8125 C429.227,79.5312 428.406,79.3906 427.547,79.3906 C426.688,79.3906 425.859,79.5312 425.062,79.8125 C424.281,80.0781 423.602,80.4531 423.023,80.9375 C422.445,81.4219 421.977,82.0078 421.617,82.6953 C421.273,83.3828 421.102,84.1406 421.102,84.9688 L421.102,92.5625 Z M445.219,101 L445.219,76.5312 L456.984,76.5312 L456.984,80.2578 L449.531,80.2578 L449.531,101 L445.219,101 Z M459.82,76.5312 L464.484,76.5312 L470.859,95.6797 L471.07,95.6797 L477.633,76.5312 L482.109,76.5312 L470.109,109.156 L461.742,109.156 L461.742,105.453 L467.367,105.453 L468.914,101 L459.82,76.5312 Z" id="Shape" fill="#FFFFFF" fill-rule="nonzero"></path>
                <path d="M67.7727,136.273 L69.1364,136.273 C69.0739,134.517 67.4545,133.205 65.2045,133.205 C62.9773,133.205 61.2273,134.5 61.2273,136.455 C61.2273,138.023 62.3636,138.955 64.1818,139.477 L65.6136,139.886 C66.8409,140.227 67.9318,140.659 67.9318,141.818 C67.9318,143.091 66.7045,143.932 65.0909,143.932 C63.7045,143.932 62.4773,143.318 62.3636,142 L60.9091,142 C61.0455,143.909 62.5909,145.205 65.0909,145.205 C67.7727,145.205 69.2955,143.727 69.2955,141.841 C69.2955,139.659 67.2273,138.955 66.0227,138.636 L64.8409,138.318 C63.9773,138.091 62.5909,137.636 62.5909,136.386 C62.5909,135.273 63.6136,134.455 65.1591,134.455 C66.5682,134.455 67.6364,135.125 67.7727,136.273 Z M75.2259,136.273 L73.3622,136.273 L73.3622,134.182 L72.0213,134.182 L72.0213,136.273 L70.7031,136.273 L70.7031,137.409 L72.0213,137.409 L72.0213,142.864 C72.0213,144.386 73.2486,145.114 74.3849,145.114 C74.8849,145.114 75.2031,145.023 75.3849,144.955 L75.1122,143.75 C74.9986,143.773 74.8168,143.818 74.5213,143.818 C73.9304,143.818 73.3622,143.636 73.3622,142.5 L73.3622,137.409 L75.2259,137.409 L75.2259,136.273 Z M79.8111,145.205 C81.3338,145.205 82.1293,144.386 82.402,143.818 L82.4702,143.818 L82.4702,145 L83.8111,145 L83.8111,139.25 C83.8111,136.477 81.6974,136.159 80.5838,136.159 C79.2656,136.159 77.7656,136.614 77.0838,138.205 L78.3565,138.659 C78.652,138.023 79.3509,137.341 80.6293,137.341 C81.8622,137.341 82.4702,137.994 82.4702,139.114 L82.4702,139.159 C82.4702,139.807 81.8111,139.75 80.2202,139.955 C78.6009,140.165 76.8338,140.523 76.8338,142.523 C76.8338,144.227 78.152,145.205 79.8111,145.205 Z M80.0156,144 C78.9474,144 78.1747,143.523 78.1747,142.591 C78.1747,141.568 79.1065,141.25 80.152,141.114 C80.7202,141.045 82.2429,140.886 82.4702,140.614 L82.4702,141.841 C82.4702,142.932 81.6065,144 80.0156,144 Z M86.2585,145 L87.5994,145 L87.5994,139.477 C87.5994,138.295 88.5312,137.432 89.804,137.432 C90.1619,137.432 90.5312,137.5 90.6222,137.523 L90.6222,136.159 C90.4688,136.148 90.1165,136.136 89.9176,136.136 C88.8722,136.136 87.9631,136.727 87.6449,137.591 L87.554,137.591 L87.554,136.273 L86.2585,136.273 L86.2585,145 Z M96.554,136.273 L94.6903,136.273 L94.6903,134.182 L93.3494,134.182 L93.3494,136.273 L92.0312,136.273 L92.0312,137.409 L93.3494,137.409 L93.3494,142.864 C93.3494,144.386 94.5767,145.114 95.7131,145.114 C96.2131,145.114 96.5312,145.023 96.7131,144.955 L96.4403,143.75 C96.3267,143.773 96.1449,143.818 95.8494,143.818 C95.2585,143.818 94.6903,143.636 94.6903,142.5 L94.6903,137.409 L96.554,137.409 L96.554,136.273 Z M104.412,139.75 C104.412,138.227 105.384,137.364 106.707,137.364 C107.969,137.364 108.73,138.159 108.73,139.545 L108.73,145 L110.071,145 L110.071,139.455 C110.071,137.21 108.878,136.159 107.094,136.159 C105.719,136.159 104.935,136.733 104.526,137.636 L104.412,137.636 L104.412,133.364 L103.071,133.364 L103.071,145 L104.412,145 L104.412,139.75 Z M116.183,145.182 C117.956,145.182 119.251,144.295 119.661,142.977 L118.365,142.614 C118.024,143.523 117.234,143.977 116.183,143.977 C114.609,143.977 113.524,142.96 113.462,141.091 L119.797,141.091 L119.797,140.523 C119.797,137.273 117.865,136.159 116.047,136.159 C113.683,136.159 112.115,138.023 112.115,140.705 C112.115,143.386 113.661,145.182 116.183,145.182 Z M113.462,139.932 C113.553,138.574 114.513,137.364 116.047,137.364 C117.501,137.364 118.433,138.455 118.433,139.932 L113.462,139.932 Z M121.837,145 L123.178,145 L123.178,139.477 C123.178,138.295 124.109,137.432 125.382,137.432 C125.74,137.432 126.109,137.5 126.2,137.523 L126.2,136.159 C126.047,136.148 125.695,136.136 125.496,136.136 C124.45,136.136 123.541,136.727 123.223,137.591 L123.132,137.591 L123.132,136.273 L121.837,136.273 L121.837,145 Z M131.183,145.182 C132.956,145.182 134.251,144.295 134.661,142.977 L133.365,142.614 C133.024,143.523 132.234,143.977 131.183,143.977 C129.609,143.977 128.524,142.96 128.462,141.091 L134.797,141.091 L134.797,140.523 C134.797,137.273 132.865,136.159 131.047,136.159 C128.683,136.159 127.115,138.023 127.115,140.705 C127.115,143.386 128.661,145.182 131.183,145.182 Z M128.462,139.932 C128.553,138.574 129.513,137.364 131.047,137.364 C132.501,137.364 133.433,138.455 133.433,139.932 L128.462,139.932 Z M145.132,136.273 L143.268,136.273 L143.268,134.182 L141.928,134.182 L141.928,136.273 L140.609,136.273 L140.609,137.409 L141.928,137.409 L141.928,142.864 C141.928,144.386 143.155,145.114 144.291,145.114 C144.791,145.114 145.109,145.023 145.291,144.955 L145.018,143.75 C144.905,143.773 144.723,143.818 144.428,143.818 C143.837,143.818 143.268,143.636 143.268,142.5 L143.268,137.409 L145.132,137.409 L145.132,136.273 Z M150.601,145.182 C152.964,145.182 154.555,143.386 154.555,140.682 C154.555,137.955 152.964,136.159 150.601,136.159 C148.237,136.159 146.646,137.955 146.646,140.682 C146.646,143.386 148.237,145.182 150.601,145.182 Z M150.601,143.977 C148.805,143.977 147.987,142.432 147.987,140.682 C147.987,138.932 148.805,137.364 150.601,137.364 C152.396,137.364 153.214,138.932 153.214,140.682 C153.214,142.432 152.396,143.977 150.601,143.977 Z M162.443,133.364 L161.102,133.364 L161.102,145 L162.443,145 L162.443,133.364 Z M168.558,145.182 C170.331,145.182 171.626,144.295 172.036,142.977 L170.74,142.614 C170.399,143.523 169.609,143.977 168.558,143.977 C166.984,143.977 165.899,142.96 165.837,141.091 L172.172,141.091 L172.172,140.523 C172.172,137.273 170.24,136.159 168.422,136.159 C166.058,136.159 164.49,138.023 164.49,140.705 C164.49,143.386 166.036,145.182 168.558,145.182 Z M165.837,139.932 C165.928,138.574 166.888,137.364 168.422,137.364 C169.876,137.364 170.808,138.455 170.808,139.932 L165.837,139.932 Z M176.78,145.205 C178.303,145.205 179.098,144.386 179.371,143.818 L179.439,143.818 L179.439,145 L180.78,145 L180.78,139.25 C180.78,136.477 178.666,136.159 177.553,136.159 C176.234,136.159 174.734,136.614 174.053,138.205 L175.325,138.659 C175.621,138.023 176.32,137.341 177.598,137.341 C178.831,137.341 179.439,137.994 179.439,139.114 L179.439,139.159 C179.439,139.807 178.78,139.75 177.189,139.955 C175.57,140.165 173.803,140.523 173.803,142.523 C173.803,144.227 175.121,145.205 176.78,145.205 Z M176.984,144 C175.916,144 175.143,143.523 175.143,142.591 C175.143,141.568 176.075,141.25 177.121,141.114 C177.689,141.045 179.212,140.886 179.439,140.614 L179.439,141.841 C179.439,142.932 178.575,144 176.984,144 Z M183.227,145 L184.568,145 L184.568,139.477 C184.568,138.295 185.5,137.432 186.773,137.432 C187.131,137.432 187.5,137.5 187.591,137.523 L187.591,136.159 C187.438,136.148 187.085,136.136 186.886,136.136 C185.841,136.136 184.932,136.727 184.614,137.591 L184.523,137.591 L184.523,136.273 L183.227,136.273 L183.227,145 Z M190.521,139.75 C190.521,138.227 191.464,137.364 192.749,137.364 C193.993,137.364 194.749,138.176 194.749,139.545 L194.749,145 L196.089,145 L196.089,139.455 C196.089,137.227 194.902,136.159 193.135,136.159 C191.817,136.159 190.999,136.75 190.589,137.636 L190.476,137.636 L190.476,136.273 L189.18,136.273 L189.18,145 L190.521,145 L190.521,139.75 Z M205.608,145.205 C207.131,145.205 207.926,144.386 208.199,143.818 L208.267,143.818 L208.267,145 L209.608,145 L209.608,139.25 C209.608,136.477 207.494,136.159 206.381,136.159 C205.062,136.159 203.562,136.614 202.881,138.205 L204.153,138.659 C204.449,138.023 205.148,137.341 206.426,137.341 C207.659,137.341 208.267,137.994 208.267,139.114 L208.267,139.159 C208.267,139.807 207.608,139.75 206.017,139.955 C204.398,140.165 202.631,140.523 202.631,142.523 C202.631,144.227 203.949,145.205 205.608,145.205 Z M205.812,144 C204.744,144 203.972,143.523 203.972,142.591 C203.972,141.568 204.903,141.25 205.949,141.114 C206.517,141.045 208.04,140.886 208.267,140.614 L208.267,141.841 C208.267,142.932 207.403,144 205.812,144 Z M212.237,145 L213.533,145 L213.533,143.659 L213.692,143.659 C213.987,144.136 214.555,145.182 216.237,145.182 C218.419,145.182 219.942,143.432 219.942,140.659 C219.942,137.909 218.419,136.159 216.214,136.159 C214.51,136.159 213.987,137.205 213.692,137.659 L213.578,137.659 L213.578,133.364 L212.237,133.364 L212.237,145 Z M213.555,140.636 C213.555,138.682 214.419,137.364 216.055,137.364 C217.76,137.364 218.601,138.795 218.601,140.636 C218.601,142.5 217.737,143.977 216.055,143.977 C214.442,143.977 213.555,142.614 213.555,140.636 Z M225.538,145.182 C227.902,145.182 229.493,143.386 229.493,140.682 C229.493,137.955 227.902,136.159 225.538,136.159 C223.175,136.159 221.584,137.955 221.584,140.682 C221.584,143.386 223.175,145.182 225.538,145.182 Z M225.538,143.977 C223.743,143.977 222.925,142.432 222.925,140.682 C222.925,138.932 223.743,137.364 225.538,137.364 C227.334,137.364 228.152,138.932 228.152,140.682 C228.152,142.432 227.334,143.977 225.538,143.977 Z M237.04,141.432 C237.04,143.068 235.79,143.818 234.79,143.818 C233.676,143.818 232.881,143 232.881,141.727 L232.881,136.273 L231.54,136.273 L231.54,141.818 C231.54,144.045 232.722,145.114 234.358,145.114 C235.676,145.114 236.54,144.409 236.949,143.523 L237.04,143.523 L237.04,145 L238.381,145 L238.381,136.273 L237.04,136.273 L237.04,141.432 Z M244.632,136.273 L242.768,136.273 L242.768,134.182 L241.428,134.182 L241.428,136.273 L240.109,136.273 L240.109,137.409 L241.428,137.409 L241.428,142.864 C241.428,144.386 242.655,145.114 243.791,145.114 C244.291,145.114 244.609,145.023 244.791,144.955 L244.518,143.75 C244.405,143.773 244.223,143.818 243.928,143.818 C243.337,143.818 242.768,143.636 242.768,142.5 L242.768,137.409 L244.632,137.409 L244.632,136.273 Z M254.945,136.273 L253.081,136.273 L253.081,134.182 L251.74,134.182 L251.74,136.273 L250.422,136.273 L250.422,137.409 L251.74,137.409 L251.74,142.864 C251.74,144.386 252.967,145.114 254.104,145.114 C254.604,145.114 254.922,145.023 255.104,144.955 L254.831,143.75 C254.717,143.773 254.536,143.818 254.24,143.818 C253.649,143.818 253.081,143.636 253.081,142.5 L253.081,137.409 L254.945,137.409 L254.945,136.273 Z M258.49,139.75 C258.49,138.227 259.462,137.364 260.786,137.364 C262.047,137.364 262.808,138.159 262.808,139.545 L262.808,145 L264.149,145 L264.149,139.455 C264.149,137.21 262.956,136.159 261.172,136.159 C259.797,136.159 259.013,136.733 258.604,137.636 L258.49,137.636 L258.49,133.364 L257.149,133.364 L257.149,145 L258.49,145 L258.49,139.75 Z M270.261,145.182 C272.034,145.182 273.33,144.295 273.739,142.977 L272.443,142.614 C272.102,143.523 271.312,143.977 270.261,143.977 C268.688,143.977 267.602,142.96 267.54,141.091 L273.875,141.091 L273.875,140.523 C273.875,137.273 271.943,136.159 270.125,136.159 C267.761,136.159 266.193,138.023 266.193,140.705 C266.193,143.386 267.739,145.182 270.261,145.182 Z M267.54,139.932 C267.631,138.574 268.591,137.364 270.125,137.364 C271.58,137.364 272.511,138.455 272.511,139.932 L267.54,139.932 Z M285.051,133.364 L285.051,141.682 C285.051,143.131 284.358,143.909 283.142,143.909 C282.034,143.909 281.233,143.261 281.233,142.273 L279.847,142.273 C279.847,144.062 281.233,145.159 283.142,145.159 C285.165,145.159 286.46,143.915 286.46,141.682 L286.46,133.364 L285.051,133.364 Z M292.648,145.182 C295.011,145.182 296.602,143.386 296.602,140.682 C296.602,137.955 295.011,136.159 292.648,136.159 C290.284,136.159 288.693,137.955 288.693,140.682 C288.693,143.386 290.284,145.182 292.648,145.182 Z M292.648,143.977 C290.852,143.977 290.034,142.432 290.034,140.682 C290.034,138.932 290.852,137.364 292.648,137.364 C294.443,137.364 295.261,138.932 295.261,140.682 C295.261,142.432 294.443,143.977 292.648,143.977 Z M299.2,148.25 C300.411,148.25 301.268,147.608 301.768,146.273 L305.484,136.295 L304.018,136.273 L301.609,143.227 L301.518,143.227 L299.109,136.273 L297.655,136.273 L300.882,145.045 L300.632,145.727 C300.155,147.034 299.541,147.159 298.564,146.909 L298.223,148.091 C298.359,148.159 298.746,148.25 299.2,148.25 Z M313.44,138.227 C313.02,136.989 312.077,136.159 310.349,136.159 C308.509,136.159 307.145,137.205 307.145,138.682 C307.145,139.886 307.861,140.693 309.463,141.068 L310.918,141.409 C311.798,141.614 312.213,142.034 312.213,142.636 C312.213,143.386 311.418,144 310.168,144 C309.071,144 308.384,143.528 308.145,142.591 L306.872,142.909 C307.185,144.392 308.406,145.182 310.19,145.182 C312.219,145.182 313.599,144.074 313.599,142.568 C313.599,141.352 312.838,140.585 311.281,140.205 L309.986,139.886 C308.952,139.631 308.486,139.284 308.486,138.614 C308.486,137.864 309.281,137.318 310.349,137.318 C311.52,137.318 312.003,137.966 312.236,138.568 L313.44,138.227 Z M319.413,136.273 L317.55,136.273 L317.55,134.182 L316.209,134.182 L316.209,136.273 L314.891,136.273 L314.891,137.409 L316.209,137.409 L316.209,142.864 C316.209,144.386 317.436,145.114 318.572,145.114 C319.072,145.114 319.391,145.023 319.572,144.955 L319.3,143.75 C319.186,143.773 319.004,143.818 318.709,143.818 C318.118,143.818 317.55,143.636 317.55,142.5 L317.55,137.409 L319.413,137.409 L319.413,136.273 Z M321.43,145 L322.771,145 L322.771,139.477 C322.771,138.295 323.703,137.432 324.976,137.432 C325.334,137.432 325.703,137.5 325.794,137.523 L325.794,136.159 C325.641,136.148 325.288,136.136 325.089,136.136 C324.044,136.136 323.135,136.727 322.817,137.591 L322.726,137.591 L322.726,136.273 L321.43,136.273 L321.43,145 Z M330.777,145.182 C332.55,145.182 333.845,144.295 334.254,142.977 L332.959,142.614 C332.618,143.523 331.828,143.977 330.777,143.977 C329.203,143.977 328.118,142.96 328.055,141.091 L334.391,141.091 L334.391,140.523 C334.391,137.273 332.459,136.159 330.641,136.159 C328.277,136.159 326.709,138.023 326.709,140.705 C326.709,143.386 328.254,145.182 330.777,145.182 Z M328.055,139.932 C328.146,138.574 329.107,137.364 330.641,137.364 C332.095,137.364 333.027,138.455 333.027,139.932 L328.055,139.932 Z M338.999,145.205 C340.521,145.205 341.317,144.386 341.589,143.818 L341.658,143.818 L341.658,145 L342.999,145 L342.999,139.25 C342.999,136.477 340.885,136.159 339.771,136.159 C338.453,136.159 336.953,136.614 336.271,138.205 L337.544,138.659 C337.839,138.023 338.538,137.341 339.817,137.341 C341.05,137.341 341.658,137.994 341.658,139.114 L341.658,139.159 C341.658,139.807 340.999,139.75 339.408,139.955 C337.788,140.165 336.021,140.523 336.021,142.523 C336.021,144.227 337.339,145.205 338.999,145.205 Z M339.203,144 C338.135,144 337.362,143.523 337.362,142.591 C337.362,141.568 338.294,141.25 339.339,141.114 C339.908,141.045 341.43,140.886 341.658,140.614 L341.658,141.841 C341.658,142.932 340.794,144 339.203,144 Z M345.446,145 L346.787,145 L346.787,139.545 C346.787,138.267 347.719,137.364 348.764,137.364 C349.781,137.364 350.491,138.028 350.491,139.023 L350.491,145 L351.855,145 L351.855,139.318 C351.855,138.193 352.56,137.364 353.787,137.364 C354.741,137.364 355.56,137.869 355.56,139.159 L355.56,145 L356.901,145 L356.901,139.159 C356.901,137.108 355.798,136.159 354.241,136.159 C352.991,136.159 352.077,136.733 351.628,137.636 L351.537,137.636 C351.105,136.705 350.344,136.159 349.196,136.159 C348.06,136.159 347.219,136.705 346.855,137.636 L346.741,137.636 L346.741,136.273 L345.446,136.273 L345.446,145 Z M363.852,148.273 L365.193,148.273 L365.193,143.659 L365.307,143.659 C365.602,144.136 366.17,145.182 367.852,145.182 C370.034,145.182 371.557,143.432 371.557,140.659 C371.557,137.909 370.034,136.159 367.83,136.159 C366.125,136.159 365.602,137.205 365.307,137.659 L365.148,137.659 L365.148,136.273 L363.852,136.273 L363.852,148.273 Z M365.17,140.636 C365.17,138.682 366.034,137.364 367.67,137.364 C369.375,137.364 370.216,138.795 370.216,140.636 C370.216,142.5 369.352,143.977 367.67,143.977 C366.057,143.977 365.17,142.614 365.17,140.636 Z M373.602,145 L374.943,145 L374.943,139.477 C374.943,138.295 375.875,137.432 377.148,137.432 C377.506,137.432 377.875,137.5 377.966,137.523 L377.966,136.159 C377.812,136.148 377.46,136.136 377.261,136.136 C376.216,136.136 375.307,136.727 374.989,137.591 L374.898,137.591 L374.898,136.273 L373.602,136.273 L373.602,145 Z M382.835,145.182 C385.199,145.182 386.79,143.386 386.79,140.682 C386.79,137.955 385.199,136.159 382.835,136.159 C380.472,136.159 378.881,137.955 378.881,140.682 C378.881,143.386 380.472,145.182 382.835,145.182 Z M382.835,143.977 C381.04,143.977 380.222,142.432 380.222,140.682 C380.222,138.932 381.04,137.364 382.835,137.364 C384.631,137.364 385.449,138.932 385.449,140.682 C385.449,142.432 384.631,143.977 382.835,143.977 Z M388.837,136.273 L388.837,145.636 C388.837,146.523 388.473,147.023 387.655,147.023 L387.405,147.023 L387.405,148.273 L387.678,148.273 C389.359,148.273 390.178,147.25 390.178,145.636 L390.178,136.273 L388.837,136.273 Z M389.496,134.818 C390.018,134.818 390.45,134.409 390.45,133.909 C390.45,133.409 390.018,133 389.496,133 C388.973,133 388.541,133.409 388.541,133.909 C388.541,134.409 388.973,134.818 389.496,134.818 Z M396.293,145.182 C398.065,145.182 399.361,144.295 399.77,142.977 L398.474,142.614 C398.134,143.523 397.344,143.977 396.293,143.977 C394.719,143.977 393.634,142.96 393.571,141.091 L399.906,141.091 L399.906,140.523 C399.906,137.273 397.974,136.159 396.156,136.159 C393.793,136.159 392.224,138.023 392.224,140.705 C392.224,143.386 393.77,145.182 396.293,145.182 Z M393.571,139.932 C393.662,138.574 394.622,137.364 396.156,137.364 C397.611,137.364 398.543,138.455 398.543,139.932 L393.571,139.932 Z M405.491,145.182 C407.423,145.182 408.696,144 408.923,142.455 L407.582,142.455 C407.332,143.409 406.537,143.977 405.491,143.977 C403.901,143.977 402.878,142.659 402.878,140.636 C402.878,138.659 403.923,137.364 405.491,137.364 C406.673,137.364 407.378,138.091 407.582,138.886 L408.923,138.886 C408.696,137.25 407.31,136.159 405.469,136.159 C403.105,136.159 401.537,138.023 401.537,140.682 C401.537,143.295 403.037,145.182 405.491,145.182 Z M414.679,136.273 L412.815,136.273 L412.815,134.182 L411.474,134.182 L411.474,136.273 L410.156,136.273 L410.156,137.409 L411.474,137.409 L411.474,142.864 C411.474,144.386 412.702,145.114 413.838,145.114 C414.338,145.114 414.656,145.023 414.838,144.955 L414.565,143.75 C414.452,143.773 414.27,143.818 413.974,143.818 C413.384,143.818 412.815,143.636 412.815,142.5 L412.815,137.409 L414.679,137.409 L414.679,136.273 Z M424.741,145.182 C427.105,145.182 428.696,143.386 428.696,140.682 C428.696,137.955 427.105,136.159 424.741,136.159 C422.378,136.159 420.787,137.955 420.787,140.682 C420.787,143.386 422.378,145.182 424.741,145.182 Z M424.741,143.977 C422.946,143.977 422.128,142.432 422.128,140.682 C422.128,138.932 422.946,137.364 424.741,137.364 C426.537,137.364 427.355,138.932 427.355,140.682 C427.355,142.432 426.537,143.977 424.741,143.977 Z M432.084,139.75 C432.084,138.227 433.027,137.364 434.311,137.364 C435.555,137.364 436.311,138.176 436.311,139.545 L436.311,145 L437.652,145 L437.652,139.455 C437.652,137.227 436.464,136.159 434.697,136.159 C433.379,136.159 432.561,136.75 432.152,137.636 L432.038,137.636 L432.038,136.273 L430.743,136.273 L430.743,145 L432.084,145 L432.084,139.75 Z M452.739,137 L454.193,137 C453.761,134.75 451.875,133.205 449.42,133.205 C446.438,133.205 444.33,135.5 444.33,139.182 C444.33,142.864 446.42,145.159 449.511,145.159 C452.284,145.159 454.261,143.312 454.261,140.432 L454.261,139.182 L449.83,139.182 L449.83,140.432 L452.898,140.432 C452.858,142.523 451.483,143.841 449.511,143.841 C447.352,143.841 445.693,142.205 445.693,139.182 C445.693,136.159 447.352,134.523 449.42,134.523 C451.102,134.523 452.244,135.472 452.739,137 Z M457.04,145 L458.381,145 L458.381,136.273 L457.04,136.273 L457.04,145 Z M457.722,134.818 C458.244,134.818 458.676,134.409 458.676,133.909 C458.676,133.409 458.244,133 457.722,133 C457.199,133 456.767,133.409 456.767,133.909 C456.767,134.409 457.199,134.818 457.722,134.818 Z M464.632,136.273 L462.768,136.273 L462.768,134.182 L461.428,134.182 L461.428,136.273 L460.109,136.273 L460.109,137.409 L461.428,137.409 L461.428,142.864 C461.428,144.386 462.655,145.114 463.791,145.114 C464.291,145.114 464.609,145.023 464.791,144.955 L464.518,143.75 C464.405,143.773 464.223,143.818 463.928,143.818 C463.337,143.818 462.768,143.636 462.768,142.5 L462.768,137.409 L464.632,137.409 L464.632,136.273 Z M468.178,139.75 C468.178,138.227 469.149,137.364 470.473,137.364 C471.734,137.364 472.496,138.159 472.496,139.545 L472.496,145 L473.837,145 L473.837,139.455 C473.837,137.21 472.643,136.159 470.859,136.159 C469.484,136.159 468.7,136.733 468.291,137.636 L468.178,137.636 L468.178,133.364 L466.837,133.364 L466.837,145 L468.178,145 L468.178,139.75 Z M481.79,141.432 C481.79,143.068 480.54,143.818 479.54,143.818 C478.426,143.818 477.631,143 477.631,141.727 L477.631,136.273 L476.29,136.273 L476.29,141.818 C476.29,144.045 477.472,145.114 479.108,145.114 C480.426,145.114 481.29,144.409 481.699,143.523 L481.79,143.523 L481.79,145 L483.131,145 L483.131,136.273 L481.79,136.273 L481.79,141.432 Z M485.768,145 L487.064,145 L487.064,143.659 L487.223,143.659 C487.518,144.136 488.087,145.182 489.768,145.182 C491.95,145.182 493.473,143.432 493.473,140.659 C493.473,137.909 491.95,136.159 489.746,136.159 C488.041,136.159 487.518,137.205 487.223,137.659 L487.109,137.659 L487.109,133.364 L485.768,133.364 L485.768,145 Z M487.087,140.636 C487.087,138.682 487.95,137.364 489.587,137.364 C491.291,137.364 492.132,138.795 492.132,140.636 C492.132,142.5 491.268,143.977 489.587,143.977 C487.973,143.977 487.087,142.614 487.087,140.636 Z" id="Shape" fill="#C4C3C6" fill-rule="nonzero"></path>
                <rect id="Rectangle" fill="#1F242C" fill-rule="nonzero" x="620" y="105" width="52.5" height="52.5"></rect>
                <polygon id="Path" fill="#1F242C" fill-rule="nonzero" points="625.837 157.5 620 157.5 620 163.337 625.837 163.337"></polygon>
                <polygon id="Path" fill="#1F242C" fill-rule="nonzero" points="631.673 163.337 625.837 163.337 625.837 169.174 631.673 169.174"></polygon>
                <polygon id="Path" fill="#1F242C" fill-rule="nonzero" points="637.494 157.5 631.658 157.5 631.658 163.337 637.494 163.337"></polygon>
                <polygon id="Path" fill="#1F242C" fill-rule="nonzero" points="625.837 169.158 620 169.158 620 174.995 625.837 174.995"></polygon>
                <polygon id="Path" fill="#1F242C" fill-rule="nonzero" points="637.494 169.158 631.658 169.158 631.658 174.995 637.494 174.995"></polygon>
                <polygon id="Path" fill="#1F242C" fill-rule="nonzero" points="643.332 163.337 637.495 163.337 637.495 169.174 643.332 169.174"></polygon>
                <polygon id="Path" fill="#1F242C" fill-rule="nonzero" points="631.673 174.995 625.837 174.995 625.837 180.832 631.673 180.832"></polygon>
                <polygon id="Path" fill="#1F242C" fill-rule="nonzero" points="625.837 180.832 620 180.832 620 186.669 625.837 186.669"></polygon>
                <polygon id="Path" fill="#1F242C" fill-rule="nonzero" points="637.494 180.832 631.658 180.832 631.658 186.669 637.494 186.669"></polygon>
                <polygon id="Path" fill="#1F242C" fill-rule="nonzero" points="643.332 174.995 637.495 174.995 637.495 180.832 643.332 180.832"></polygon>
                <polygon id="Path" fill="#1F242C" fill-rule="nonzero" points="631.673 186.668 625.837 186.668 625.837 192.505 631.673 192.505"></polygon>
                <polygon id="Path" fill="#1F242C" fill-rule="nonzero" points="625.837 192.489 620 192.489 620 198.326 625.837 198.326"></polygon>
                <polygon id="Path" fill="#1F242C" fill-rule="nonzero" points="637.494 192.489 631.658 192.489 631.658 198.326 637.494 198.326"></polygon>
                <polygon id="Path" fill="#1F242C" fill-rule="nonzero" points="643.332 186.668 637.495 186.668 637.495 192.505 643.332 192.505"></polygon>
                <polygon id="Path" fill="#1F242C" fill-rule="nonzero" points="631.673 198.326 625.837 198.326 625.837 204.163 631.673 204.163"></polygon>
                <polygon id="Path" fill="#1F242C" fill-rule="nonzero" points="625.837 204.164 620 204.164 620 210.001 625.837 210.001"></polygon>
                <polygon id="Path" fill="#1F242C" fill-rule="nonzero" points="637.494 204.164 631.658 204.164 631.658 210.001 637.494 210.001"></polygon>
                <polygon id="Path" fill="#1F242C" fill-rule="nonzero" points="643.332 198.326 637.495 198.326 637.495 204.163 643.332 204.163"></polygon>
                <polygon id="Path" fill="#1F242C" fill-rule="nonzero" points="649.168 157.5 643.331 157.5 643.331 163.337 649.168 163.337"></polygon>
                <polygon id="Path" fill="#1F242C" fill-rule="nonzero" points="655.006 163.337 649.169 163.337 649.169 169.174 655.006 169.174"></polygon>
                <polygon id="Path" fill="#1F242C" fill-rule="nonzero" points="660.826 157.5 654.99 157.5 654.99 163.337 660.826 163.337"></polygon>
                <polygon id="Path" fill="#1F242C" fill-rule="nonzero" points="649.168 169.158 643.331 169.158 643.331 174.995 649.168 174.995"></polygon>
                <polygon id="Path" fill="#1F242C" fill-rule="nonzero" points="660.826 169.158 654.99 169.158 654.99 174.995 660.826 174.995"></polygon>
                <polygon id="Path" fill="#1F242C" fill-rule="nonzero" points="666.663 163.337 660.826 163.337 660.826 169.174 666.663 169.174"></polygon>
                <polygon id="Path" fill="#1F242C" fill-rule="nonzero" points="655.006 174.995 649.169 174.995 649.169 180.832 655.006 180.832"></polygon>
                <polygon id="Path" fill="#1F242C" fill-rule="nonzero" points="649.168 180.832 643.331 180.832 643.331 186.669 649.168 186.669"></polygon>
                <polygon id="Path" fill="#1F242C" fill-rule="nonzero" points="660.826 180.832 654.99 180.832 654.99 186.669 660.826 186.669"></polygon>
                <polygon id="Path" fill="#1F242C" fill-rule="nonzero" points="666.663 174.995 660.826 174.995 660.826 180.832 666.663 180.832"></polygon>
                <polygon id="Path" fill="#1F242C" fill-rule="nonzero" points="655.006 186.668 649.169 186.668 649.169 192.505 655.006 192.505"></polygon>
                <polygon id="Path" fill="#1F242C" fill-rule="nonzero" points="649.168 192.489 643.331 192.489 643.331 198.326 649.168 198.326"></polygon>
                <polygon id="Path" fill="#1F242C" fill-rule="nonzero" points="660.826 192.489 654.99 192.489 654.99 198.326 660.826 198.326"></polygon>
                <polygon id="Path" fill="#1F242C" fill-rule="nonzero" points="666.663 186.668 660.826 186.668 660.826 192.505 666.663 192.505"></polygon>
                <polygon id="Path" fill="#1F242C" fill-rule="nonzero" points="655.006 198.326 649.169 198.326 649.169 204.163 655.006 204.163"></polygon>
                <polygon id="Path" fill="#1F242C" fill-rule="nonzero" points="649.168 204.164 643.331 204.164 643.331 210.001 649.168 210.001"></polygon>
                <polygon id="Path" fill="#1F242C" fill-rule="nonzero" points="660.826 204.164 654.99 204.164 654.99 210.001 660.826 210.001"></polygon>
                <polygon id="Path" fill="#1F242C" fill-rule="nonzero" points="672.5 157.5 666.663 157.5 666.663 163.337 672.5 163.337"></polygon>
                <polygon id="Path" fill="#1F242C" fill-rule="nonzero" points="672.5 169.158 666.663 169.158 666.663 174.995 672.5 174.995"></polygon>
                <polygon id="Path" fill="#1F242C" fill-rule="nonzero" points="672.5 180.832 666.663 180.832 666.663 186.669 672.5 186.669"></polygon>
                <polygon id="Path" fill="#1F242C" fill-rule="nonzero" points="672.5 192.489 666.663 192.489 666.663 198.326 672.5 198.326"></polygon>
                <polygon id="Path" fill="#1F242C" fill-rule="nonzero" points="672.5 204.164 666.663 204.164 666.663 210.001 672.5 210.001"></polygon>
                <polygon id="Path" fill="#1F242C" fill-rule="nonzero" points="666.663 198.326 660.826 198.326 660.826 204.163 666.663 204.163"></polygon>
                <rect id="Rectangle" fill="#1F242C" fill-rule="nonzero" x="631.667" y="52.4995" width="5.83333" height="52.5"></rect>
                <rect id="Rectangle" fill="#1F242C" fill-rule="nonzero" x="643.333" y="52.4995" width="5.83333" height="52.5"></rect>
                <rect id="Rectangle" fill="#1F242C" fill-rule="nonzero" x="655" y="52.4995" width="5.83333" height="52.5"></rect>
                <rect id="Rectangle" fill="#1F242C" fill-rule="nonzero" x="666.667" y="52.4995" width="5.83333" height="52.5"></rect>
                <rect id="Rectangle" fill="#1F242C" fill-rule="nonzero" x="620" y="52.4995" width="5.83668" height="52.5"></rect>
                <rect id="Rectangle" fill="#1F242C" fill-rule="nonzero" transform="translate(552.916335, 131.250000) rotate(-180.000000) translate(-552.916335, -131.250000) " x="549.99967" y="105" width="5.83333" height="52.5"></rect>
                <rect id="Rectangle" fill="#1F242C" fill-rule="nonzero" transform="translate(541.250335, 131.250000) rotate(-180.000000) translate(-541.250335, -131.250000) " x="538.33367" y="105" width="5.83333" height="52.5"></rect>
                <rect id="Rectangle" fill="#1F242C" fill-rule="nonzero" transform="translate(529.583335, 131.250000) rotate(-180.000000) translate(-529.583335, -131.250000) " x="526.66667" y="105" width="5.83333" height="52.5"></rect>
                <rect id="Rectangle" fill="#1F242C" fill-rule="nonzero" transform="translate(517.916335, 131.250000) rotate(-180.000000) translate(-517.916335, -131.250000) " x="514.99967" y="105" width="5.83333" height="52.5"></rect>
                <rect id="Rectangle" fill="#1F242C" fill-rule="nonzero" transform="translate(564.581660, 131.250000) rotate(-180.000000) translate(-564.581660, -131.250000) " x="561.66332" y="105" width="5.83668" height="52.5"></rect>
                <rect id="Rectangle" fill="#1F242C" fill-rule="nonzero" transform="translate(867.588335, 27.234900) rotate(-180.000000) translate(-867.588335, -27.234900) " x="864.67167" y="0.9849" width="5.83333" height="52.5"></rect>
                <rect id="Rectangle" fill="#1F242C" fill-rule="nonzero" transform="translate(855.921335, 27.234400) rotate(-180.000000) translate(-855.921335, -27.234400) " x="853.00467" y="0.9844" width="5.83333" height="52.5"></rect>
                <rect id="Rectangle" fill="#1F242C" fill-rule="nonzero" transform="translate(844.255335, 27.234400) rotate(-180.000000) translate(-844.255335, -27.234400) " x="841.33867" y="0.9844" width="5.83333" height="52.5"></rect>
                <rect id="Rectangle" fill="#1F242C" fill-rule="nonzero" transform="translate(832.588335, 27.234400) rotate(-180.000000) translate(-832.588335, -27.234400) " x="829.67167" y="0.9844" width="5.83333" height="52.5"></rect>
                <rect id="Rectangle" fill="#1F242C" fill-rule="nonzero" transform="translate(879.253660, 27.234900) rotate(-180.000000) translate(-879.253660, -27.234900) " x="876.33532" y="0.9849" width="5.83668" height="52.5"></rect>
                <path d="M567.5,163.333 L567.5,157.5 C596.495,157.5 620,181.005 620,210 L614.167,210 C614.167,184.227 593.273,163.333 567.5,163.333 Z M567.5,175 L567.5,169.166 C590.052,169.166 608.333,187.448 608.333,210 L602.5,210 C602.5,190.67 586.83,175 567.5,175 Z M567.5,180.834 L567.5,186.667 C580.387,186.667 590.833,197.114 590.833,210 L596.667,210 C596.667,193.892 583.608,180.834 567.5,180.834 Z M567.5,198.333 L567.5,192.5 C577.165,192.5 585,200.335 585,210 L579.167,210 C579.167,203.557 573.943,198.333 567.5,198.333 Z M567.5,210 L567.5,204.166 C570.722,204.166 573.333,206.778 573.333,210 L567.5,210 Z" id="Shape" fill="#1F242C"></path>
                <path d="M777,110.833 L777,105 C805.995,105 829.5,128.505 829.5,157.5 L823.667,157.5 C823.667,131.727 802.773,110.833 777,110.833 Z M777,122.5 L777,116.667 C799.552,116.667 817.833,134.949 817.833,157.5 L812,157.5 C812,138.17 796.33,122.5 777,122.5 Z M777,128.333 L777,134.167 C789.887,134.167 800.333,144.613 800.333,157.5 L806.167,157.5 C806.167,141.392 793.108,128.333 777,128.333 Z M777,145.833 L777,140 C786.665,140 794.5,147.835 794.5,157.5 L788.667,157.5 C788.667,151.056 783.443,145.833 777,145.833 Z M777,157.5 L777,151.667 C780.222,151.667 782.833,154.279 782.833,157.5 L777,157.5 Z" id="Shape" fill="#1F242C"></path>
                <path d="M729.112,52.5 L725,52.5 L725,48.3875 L773.387,0 L777.5,0 L777.5,4.1125 L729.112,52.5 Z M765.133,0 L756.879,0 L725,31.8791 L725,40.1333 L765.133,0 Z M748.625,0 L740.371,0 L725,15.3708 L725,23.625 L748.625,0 Z M725,0 L725,7.11666 L732.116,0 L725,0 Z M777.5,20.6208 L777.5,12.3667 L737.366,52.5 L745.621,52.5 L777.5,20.6208 Z M777.5,37.1291 L777.5,28.875 L753.875,52.5 L762.129,52.5 L777.5,37.1291 Z M777.5,45.3833 L770.383,52.5 L777.5,52.5 L777.5,45.3833 Z" id="Shape" fill="#1F242C" fill-rule="nonzero"></path>
                <path d="M672.5,105 L725,105 L725,52.5 C696.005,52.5 672.5,76.0051 672.5,105 Z" id="Path" fill="#1F242C" fill-rule="nonzero"></path>
                <path d="M777.5,157.5 L777.5,105 L725,105 C725,133.995 748.505,157.5 777.5,157.5 Z" id="Path" fill="#1F242C" fill-rule="nonzero"></path>
                <path d="M734.164,216.079 C734.569,212.991 734.884,210.293 735.282,208.127 C740.806,211.763 752.61,216.643 754.829,217.258 C767.578,220.715 775.457,209.705 779.296,195.299 C783.135,180.893 779.118,166.727 766.369,163.27 C756.521,160.586 695.038,139.721 668.836,132.748 C660.913,130.611 649.489,146.755 645.56,161.55 C644.765,164.548 647.425,172.141 653.061,181.961 L734.164,216.079 Z" id="Path" fill="#000000"></path>
                <path d="M668.546,179.788 C680.965,186.453 700.572,194.879 727.247,205.143 C729.512,196.224 732.406,187.244 735.472,181.076 C739.288,173.439 745.187,168.335 753.267,165.787 L670.139,140.438 C664.937,142.521 660.372,146.291 656.031,157.091 C654.329,160.906 660.684,175.613 668.546,179.788 Z" id="Path" fill="#D3D8E0"></path>
                <path d="M729.985,179.502 C739.722,172 747.256,167.376 752.705,165.555 L669.599,140.109 C664.81,142.184 660.402,147.94 656.256,157.451 C698.918,177.153 723.501,184.471 729.985,179.502 Z" id="Path" fill="#FFFFFF"></path>
                <path d="M752.031,174.452 C749.917,175.606 742.294,177.952 739.565,187.995 C738.2,193.017 737.578,200.16 737.397,204.942 C748.655,210.414 757.176,214.845 758.631,213.436 C755.003,211.367 752.62,208.354 751.721,204.246 C750.934,200.986 750.38,194.495 752.547,188.221 C755.238,180.119 760.703,179.123 761.999,178.396 L752.031,174.452 Z" id="Path" fill="#FFFFFF"></path>
                <path d="M737.322,204.822 C748.602,210.197 757.124,214.628 758.556,213.316 C754.928,211.247 752.545,208.234 751.623,204.224 C751.204,202.485 750.492,198.01 746.902,194 C744.526,191.399 741.858,190.064 738.95,190.214 C737.968,194.914 737.443,200.745 737.322,204.822 Z" id="Path" fill="#C4C3C6"></path>
                <path d="M763.76,183.215 C761.002,184.939 759.113,187.787 758.138,191.564 C757.936,192.441 757.711,193.416 757.531,194.195 L766.135,197.824 C766.322,197.456 767.035,195.26 767.342,193.484 C767.582,192 767.62,188.725 766.533,186.318 C765.552,184.347 763.955,183.26 763.76,183.215 Z" id="Path" fill="#D3D8E0"></path>
                <path d="M663.251,136.487 L658.955,147.092 C661.136,148.314 662.8,149.109 663.969,149.379 C666.308,149.919 668.444,151.336 667.5,150.091 C667.028,149.469 664.779,147.205 663.325,145.946 C662.905,145.541 662.561,145.256 662.216,144.972 C664.929,146.111 667.882,147.101 671.345,148.105 C680.392,150.707 680.017,150.108 672.739,146.067 C671.293,145.22 669.337,144.358 667.013,143.308 C668.032,143.338 668.954,143.346 670.094,143.301 C672.275,143.189 675.88,142.687 676.555,142.432 C678.001,141.945 674.569,141.255 671.113,139.328 C669.42,138.219 666.856,137.319 663.251,136.487 Z" id="Path" fill="#000000"></path>
                <path d="M709.99,232.77 C710.395,229.682 710.711,226.983 711.108,224.817 C716.632,228.453 728.436,233.334 730.655,233.948 C743.404,237.405 751.283,226.395 755.122,211.989 C758.961,197.584 754.944,183.417 742.195,179.961 C732.347,177.277 670.865,156.411 644.662,149.438 C636.739,147.301 625.315,163.445 621.386,178.24 C620.591,181.239 623.251,188.832 628.887,198.651 L709.99,232.77 Z" id="Path" fill="#000000"></path>
                <path d="M644.372,196.479 C656.791,203.143 676.398,211.57 703.073,221.833 C705.338,212.914 708.232,203.935 711.298,197.767 C715.114,190.129 721.013,185.025 729.093,182.478 L645.965,157.128 C640.763,159.212 636.198,162.981 631.857,173.782 C630.155,177.597 636.51,192.303 644.372,196.479 Z" id="Path" fill="#D3D8E0"></path>
                <path d="M705.811,196.193 C715.549,188.691 723.082,184.067 728.531,182.246 L645.425,156.799 C640.636,158.875 636.228,164.631 632.082,174.142 C674.744,193.844 699.328,201.161 705.811,196.193 Z" id="Path" fill="#FFFFFF"></path>
                <path d="M727.857,191.143 C725.743,192.297 718.12,194.642 715.391,204.686 C714.026,209.707 713.404,216.85 713.223,221.632 C724.481,227.105 733.002,231.535 734.457,230.126 C730.829,228.057 728.446,225.044 727.547,220.937 C726.76,217.676 726.206,211.185 728.373,204.912 C731.064,196.809 736.529,195.813 737.825,195.086 L727.857,191.143 Z" id="Path" fill="#FFFFFF"></path>
                <path d="M713.148,221.513 C724.428,226.888 732.95,231.318 734.382,230.007 C730.754,227.938 728.371,224.924 727.449,220.914 C727.03,219.175 726.318,214.701 722.728,210.69 C720.353,208.089 717.684,206.755 714.776,206.904 C713.794,211.604 713.269,217.435 713.148,221.513 Z" id="Path" fill="#D3D8E0"></path>
                <path d="M739.586,199.906 C736.828,201.629 734.939,204.477 733.964,208.255 C733.762,209.132 733.537,210.106 733.357,210.886 L741.961,214.514 C742.148,214.147 742.861,211.951 743.168,210.174 C743.408,208.69 743.446,205.415 742.359,203.009 C741.378,201.037 739.781,199.951 739.586,199.906 Z" id="Path" fill="#D3D8E0"></path>
                <path d="M639.1,153.081 L634.804,163.686 C636.985,164.908 638.649,165.703 639.818,165.973 C642.157,166.513 644.293,167.929 643.348,166.685 C642.876,166.063 640.628,163.799 639.174,162.54 C638.754,162.135 638.409,161.85 638.065,161.565 C640.778,162.705 643.731,163.694 647.194,164.699 C656.24,167.301 655.865,166.701 648.588,162.661 C647.141,161.813 645.185,160.951 642.862,159.902 C643.881,159.932 644.803,159.939 645.942,159.895 C648.123,159.782 651.729,159.281 652.403,159.026 C653.85,158.539 650.417,157.849 646.962,155.922 C645.246,154.91 642.682,154.01 639.1,153.081 Z" id="Path" fill="#000000"></path>
                <path d="M642.433,250.22 C642.838,247.132 643.154,244.434 643.551,242.268 C649.075,245.903 660.879,250.784 663.098,251.399 C675.847,254.855 683.726,243.845 687.565,229.44 C691.404,215.034 687.388,200.868 674.638,197.411 C664.79,194.727 603.308,173.861 577.105,166.888 C569.182,164.751 557.758,180.895 553.829,195.691 C553.034,198.689 555.694,206.282 561.33,216.101 L642.433,250.22 Z" id="Path" fill="#000000"></path>
                <path d="M576.793,214.026 C589.212,220.691 608.819,229.118 635.494,239.381 C637.758,230.462 640.652,221.483 643.718,215.314 C647.534,207.677 653.434,202.573 661.514,200.026 L578.386,174.676 C573.184,176.759 568.619,180.529 564.278,191.329 C562.576,195.144 568.931,209.851 576.793,214.026 Z" id="Path" fill="#D3D8E0"></path>
                <path d="M638.232,213.739 C647.969,206.238 655.502,201.614 660.952,199.793 L577.846,174.346 C573.056,176.422 568.648,182.178 564.503,191.689 C607.164,211.39 631.748,218.708 638.232,213.739 Z" id="Path" fill="#FFFFFF"></path>
                <path d="M660.3,208.593 C658.186,209.747 650.563,212.092 647.834,222.136 C646.469,227.158 645.847,234.3 645.666,239.082 C656.924,244.555 665.446,248.986 666.9,247.577 C663.272,245.508 660.889,242.494 659.99,238.387 C659.203,235.126 658.649,228.635 660.816,222.362 C663.507,214.26 668.972,213.263 670.268,212.536 L660.3,208.593 Z" id="Path" fill="#FFFFFF"></path>
                <path d="M645.569,239.061 C656.849,244.436 665.371,248.866 666.802,247.555 C663.175,245.486 660.792,242.472 659.87,238.462 C659.45,236.723 658.739,232.249 655.149,228.238 C652.773,225.637 650.105,224.303 647.197,224.452 C646.214,229.152 645.689,234.983 645.569,239.061 Z" id="Path" fill="#D3D8E0"></path>
                <path d="M672.029,217.356 C669.271,219.079 667.382,221.927 666.407,225.705 C666.205,226.582 665.98,227.556 665.8,228.336 L674.404,231.964 C674.591,231.597 675.304,229.401 675.611,227.625 C675.851,226.141 675.889,222.865 674.802,220.459 C673.798,218.585 672.224,217.401 672.029,217.356 Z" id="Path" fill="#D3D8E0"></path>
                <path d="M571.618,170.65 L567.322,181.255 C569.503,182.477 571.167,183.272 572.336,183.542 C574.675,184.082 576.811,185.499 575.866,184.254 C575.394,183.632 573.146,181.368 571.692,180.109 C571.272,179.704 570.927,179.419 570.583,179.135 C573.296,180.274 576.249,181.264 579.712,182.269 C588.758,184.87 588.383,184.271 581.106,180.23 C579.659,179.383 577.703,178.521 575.38,177.471 C576.399,177.501 577.321,177.509 578.46,177.464 C580.641,177.352 584.247,176.85 584.921,176.595 C586.368,176.108 582.935,175.418 579.48,173.491 C577.666,172.457 575.103,171.557 571.618,170.65 Z" id="Path" fill="#000000"></path>
                <path d="M661.58,207.738 C661.986,204.65 662.301,201.952 662.698,199.786 C668.222,203.422 680.026,208.302 682.245,208.917 C694.994,212.374 702.873,201.364 706.712,186.958 C710.551,172.553 706.535,158.386 693.785,154.929 C684.012,152.365 622.432,131.477 596.349,124.429 C588.427,122.292 577.002,138.436 573.073,153.232 C572.279,156.23 574.939,163.823 580.574,173.642 L661.58,207.738 Z" id="Path" fill="#000000"></path>
                <path d="M595.962,171.448 C608.382,178.112 627.988,186.539 654.663,196.803 C656.928,187.883 659.822,178.904 662.888,172.736 C666.704,165.099 672.603,159.995 680.683,157.447 L597.555,132.098 C592.353,134.181 587.788,137.951 583.447,148.751 C581.843,152.588 588.1,167.272 595.962,171.448 Z" id="Path" fill="#D3D8E0"></path>
                <path d="M657.402,171.161 C667.139,163.659 674.672,159.035 680.121,157.215 L597.113,131.79 C592.323,133.866 587.915,139.622 583.77,149.133 C626.334,168.812 650.918,176.13 657.402,171.161 Z" id="Path" fill="#FFFFFF"></path>
                <path d="M679.447,166.111 C677.333,167.266 669.71,169.611 666.981,179.654 C665.616,184.676 664.994,191.819 664.813,196.601 C676.071,202.074 684.593,206.504 686.047,205.095 C682.419,203.026 680.036,200.013 679.137,195.905 C678.35,192.645 677.796,186.154 679.963,179.88 C682.655,171.778 688.119,170.782 689.416,170.055 L679.447,166.111 Z" id="Path" fill="#FFFFFF"></path>
                <path d="M664.738,196.481 C676.018,201.857 684.54,206.287 685.972,204.976 C682.344,202.907 679.961,199.893 679.04,195.883 C678.62,194.144 677.908,189.669 674.318,185.659 C671.943,183.058 669.274,181.724 666.366,181.873 C665.384,186.573 664.859,192.404 664.738,196.481 Z" id="Path" fill="#D3D8E0"></path>
                <path d="M691.274,174.897 C688.515,176.62 686.626,179.468 685.652,183.246 C685.449,184.123 685.224,185.097 685.044,185.877 L693.649,189.505 C693.836,189.138 694.548,186.942 694.856,185.166 C695.096,183.682 695.133,180.406 694.047,178 C692.968,176.006 691.469,174.942 691.274,174.897 Z" id="Path" fill="#D3D8E0"></path>
                <path d="M590.787,128.072 L586.491,138.677 C588.672,139.899 590.336,140.694 591.506,140.964 C593.844,141.504 595.98,142.921 595.036,141.676 C594.564,141.054 592.315,138.79 590.861,137.531 C590.442,137.126 590.097,136.841 589.752,136.557 C592.465,137.696 595.418,138.686 598.881,139.69 C607.928,142.292 607.553,141.692 600.275,137.652 C598.829,136.805 596.873,135.943 594.549,134.893 C595.569,134.923 596.491,134.931 597.63,134.886 C599.811,134.774 603.416,134.272 604.091,134.017 C605.538,133.53 602.105,132.84 598.65,130.913 C596.933,129.901 594.273,128.979 590.787,128.072 Z" id="Path" fill="#000000"></path>
                <path d="M696.654,172.731 C697.059,169.643 697.375,166.944 697.772,164.778 C703.296,168.414 715.1,173.295 717.319,173.909 C730.068,177.366 737.947,166.356 741.786,151.95 C745.625,137.545 741.608,123.378 728.859,119.922 C719.011,117.237 657.529,96.3722 631.326,89.3991 C623.403,87.2622 611.979,103.406 608.05,118.201 C607.255,121.199 609.915,128.792 615.551,138.612 L696.654,172.731 Z" id="Path" fill="#000000"></path>
                <path d="M631.036,136.44 C643.455,143.104 663.062,151.531 689.737,161.794 C692.002,152.875 694.896,143.896 697.962,137.727 C701.778,130.09 707.677,124.986 715.757,122.439 L632.629,97.0892 C627.427,99.1725 622.862,102.942 618.521,113.743 C616.819,117.557 623.174,132.264 631.036,136.44 Z" id="Path" fill="#D3D8E0"></path>
                <path d="M692.378,136.131 C702.115,128.629 709.648,124.005 715.098,122.184 L632.089,96.7595 C627.3,98.8352 622.892,104.591 618.746,114.102 C661.408,133.804 685.894,141.099 692.378,136.131 Z" id="Path" fill="#FFFFFF"></path>
                <path d="M714.521,131.104 C712.407,132.258 704.784,134.603 702.055,144.647 C700.69,149.668 700.068,156.811 699.887,161.593 C711.145,167.066 719.666,171.496 721.121,170.087 C717.493,168.018 715.11,165.005 714.211,160.897 C713.424,157.637 712.87,151.146 715.037,144.873 C717.728,136.77 723.193,135.774 724.489,135.047 L714.521,131.104 Z" id="Path" fill="#FFFFFF"></path>
                <path d="M699.812,161.474 C711.092,166.849 719.614,171.279 721.046,169.968 C717.418,167.899 715.035,164.885 714.113,160.875 C713.694,159.136 712.982,154.662 709.392,150.651 C707.017,148.05 704.348,146.716 701.44,146.865 C700.458,151.565 699.933,157.396 699.812,161.474 Z" id="Path" fill="#D3D8E0"></path>
                <path d="M726.25,139.866 C723.492,141.59 721.603,144.438 720.628,148.216 C720.426,149.093 720.201,150.067 720.021,150.847 L728.625,154.475 C728.812,154.108 729.525,151.912 729.832,150.135 C730.072,148.651 730.11,145.376 729.023,142.97 C728.042,140.998 726.445,139.911 726.25,139.866 Z" id="Path" fill="#D3D8E0"></path>
                <path d="M625.764,93.0411 L621.468,103.647 C623.649,104.869 625.313,105.663 626.482,105.933 C628.821,106.473 630.957,107.89 630.012,106.646 C629.54,106.023 627.292,103.76 625.838,102.5 C625.418,102.095 625.073,101.811 624.729,101.526 C627.442,102.665 630.395,103.655 633.858,104.66 C642.904,107.261 642.529,106.662 635.252,102.621 C633.805,101.774 631.849,100.912 629.526,99.8622 C630.545,99.8923 631.467,99.8999 632.606,99.855 C634.787,99.7428 638.393,99.241 639.067,98.9862 C640.514,98.4991 637.081,97.8092 633.626,95.8826 C631.91,94.8706 629.249,93.9484 625.764,93.0411 Z" id="Path" fill="#000000"></path>
            </g>
        </g>
    </g>
</svg>