<?xml version="1.0" encoding="UTF-8"?>
<svg width="882px" height="300px" viewBox="0 0 882 300" version="1.1" xmlns="http://www.w3.org/2000/svg" xmlns:xlink="http://www.w3.org/1999/xlink">
    <!-- Generator: Sketch 61 (89581) - https://sketch.com -->
    <title>Group</title>
    <desc>Created with Sketch.</desc>
    <g id="Github-Covers" stroke="none" stroke-width="1" fill="none" fill-rule="evenodd">
        <g id="OKR-system">
            <g id="Group">
                <rect id="Rectangle" fill="#FFFFFF" fill-rule="nonzero" x="0" y="0" width="882" height="300"></rect>
                <rect id="Rectangle" fill="#E9ECF0" fill-rule="nonzero" x="0" y="0" width="882" height="210"></rect>
                <path d="M62.9297,84.6875 C62.9297,82.125 63.2031,79.7969 63.75,77.7031 C64.2969,75.6094 65.1328,73.8203 66.2578,72.3359 C67.3984,70.8359 68.8438,69.6797 70.5938,68.8672 C72.3594,68.0547 74.4766,67.6484 76.9453,67.6484 C79.4141,67.6484 81.5234,68.0547 83.2734,68.8672 C85.0391,69.6797 86.4844,70.8359 87.6094,72.3359 C88.75,73.8203 89.5938,75.6094 90.1406,77.7031 C90.6875,79.7969 90.9609,82.125 90.9609,84.6875 C90.9609,87.25 90.6875,89.5781 90.1406,91.6719 C89.5938,93.7656 88.75,95.5547 87.6094,97.0391 C86.4844,98.5234 85.0391,99.6797 83.2734,100.508 C81.5234,101.32 79.4141,101.727 76.9453,101.727 C74.4766,101.727 72.3594,101.32 70.5938,100.508 C68.8438,99.6797 67.3984,98.5234 66.2578,97.0391 C65.1328,95.5547 64.2969,93.7656 63.75,91.6719 C63.2031,89.5781 62.9297,87.25 62.9297,84.6875 Z M67.9688,89.7266 C67.9688,90.9766 68.1953,92.0938 68.6484,93.0781 C69.1172,94.0469 69.7578,94.8828 70.5703,95.5859 C71.3984,96.2891 72.3516,96.8281 73.4297,97.2031 C74.5234,97.5625 75.6953,97.7422 76.9453,97.7422 C78.1953,97.7422 79.3594,97.5625 80.4375,97.2031 C81.5312,96.8281 82.4844,96.2891 83.2969,95.5859 C84.125,94.8828 84.7656,94.0469 85.2188,93.0781 C85.6875,92.0938 85.9219,90.9766 85.9219,89.7266 L85.9219,79.6484 C85.9219,78.3984 85.6875,77.2891 85.2188,76.3203 C84.7656,75.3359 84.125,74.4922 83.2969,73.7891 C82.4844,73.0859 81.5312,72.5547 80.4375,72.1953 C79.3594,71.8203 78.1953,71.6328 76.9453,71.6328 C75.6953,71.6328 74.5234,71.8203 73.4297,72.1953 C72.3516,72.5547 71.3984,73.0859 70.5703,73.7891 C69.7578,74.4922 69.1172,75.3359 68.6484,76.3203 C68.1953,77.2891 67.9688,78.3984 67.9688,79.6484 L67.9688,89.7266 Z M98.2969,101 L98.2969,68.3516 L102.867,68.3516 L102.867,101 L98.2969,101 Z M102.961,83.5859 L116.508,68.3516 L122.062,68.3516 L108.281,83.5859 L123.258,101 L117.703,101 L102.961,83.5859 Z M128.484,101 L128.484,68.3516 L140.789,68.3516 C142.492,68.3516 143.992,68.5469 145.289,68.9375 C146.602,69.3281 147.688,69.9219 148.547,70.7188 C149.406,71.5156 150.031,72.5 150.422,73.6719 C150.812,74.8281 151.008,76.1797 151.008,77.7266 C151.008,79.1641 150.82,80.4688 150.445,81.6406 C150.086,82.7969 149.492,83.7969 148.664,84.6406 C148.023,85.2812 147.273,85.8125 146.414,86.2344 C145.57,86.6406 144.508,86.9219 143.227,87.0781 L151.289,101 L146.062,101 L138.422,87.2188 L133.055,87.2188 L133.055,101 L128.484,101 Z M133.055,83.3281 L142.453,83.3281 C143.672,83.3281 144.602,82.9609 145.242,82.2266 C145.883,81.4922 146.203,80.6172 146.203,79.6016 L146.203,75.9922 C146.203,74.8672 145.867,73.9922 145.195,73.3672 C144.523,72.7422 143.609,72.4297 142.453,72.4297 L133.055,72.4297 L133.055,83.3281 Z M168.562,93.2656 L172.898,93.2656 C172.961,94.8906 173.539,96.1094 174.633,96.9219 C175.742,97.7188 177.047,98.1172 178.547,98.1172 C179.984,98.1172 181.234,97.7969 182.297,97.1562 C183.359,96.5156 183.891,95.5859 183.891,94.3672 C183.891,93.3828 183.57,92.5938 182.93,92 C182.289,91.4062 181.148,90.9531 179.508,90.6406 L175.477,89.8203 C173.461,89.3984 171.906,88.625 170.812,87.5 C169.734,86.3594 169.195,84.8281 169.195,82.9062 C169.195,81.9531 169.406,81.0547 169.828,80.2109 C170.266,79.3516 170.883,78.6094 171.68,77.9844 C172.492,77.3594 173.438,76.8672 174.516,76.5078 C175.609,76.1328 176.828,75.9453 178.172,75.9453 C179.328,75.9453 180.453,76.1016 181.547,76.4141 C182.656,76.7109 183.641,77.1797 184.5,77.8203 C185.375,78.4609 186.07,79.2812 186.586,80.2812 C187.117,81.2656 187.398,82.4453 187.43,83.8203 L183.117,83.8203 C183.055,82.1953 182.547,81.0547 181.594,80.3984 C180.656,79.7266 179.531,79.3906 178.219,79.3906 C176.875,79.3906 175.734,79.7109 174.797,80.3516 C173.875,80.9922 173.414,81.8281 173.414,82.8594 C173.414,83.8125 173.688,84.5547 174.234,85.0859 C174.781,85.6172 175.664,86.0078 176.883,86.2578 L181.008,87.125 C183.445,87.6406 185.25,88.4766 186.422,89.6328 C187.609,90.7734 188.203,92.3359 188.203,94.3203 C188.203,95.3516 187.969,96.3125 187.5,97.2031 C187.047,98.0781 186.383,98.8359 185.508,99.4766 C184.648,100.102 183.625,100.609 182.438,101 C181.25,101.391 179.938,101.586 178.5,101.586 C177.125,101.586 175.836,101.406 174.633,101.047 C173.445,100.703 172.398,100.188 171.492,99.5 C170.602,98.7969 169.898,97.9297 169.383,96.8984 C168.867,95.8516 168.594,94.6406 168.562,93.2656 Z M192.023,76.5312 L196.688,76.5312 L203.062,95.6797 L203.273,95.6797 L209.836,76.5312 L214.312,76.5312 L202.312,109.156 L193.945,109.156 L193.945,105.453 L199.57,105.453 L201.117,101 L192.023,76.5312 Z M218.016,93.2656 L222.352,93.2656 C222.414,94.8906 222.992,96.1094 224.086,96.9219 C225.195,97.7188 226.5,98.1172 228,98.1172 C229.438,98.1172 230.688,97.7969 231.75,97.1562 C232.812,96.5156 233.344,95.5859 233.344,94.3672 C233.344,93.3828 233.023,92.5938 232.383,92 C231.742,91.4062 230.602,90.9531 228.961,90.6406 L224.93,89.8203 C222.914,89.3984 221.359,88.625 220.266,87.5 C219.188,86.3594 218.648,84.8281 218.648,82.9062 C218.648,81.9531 218.859,81.0547 219.281,80.2109 C219.719,79.3516 220.336,78.6094 221.133,77.9844 C221.945,77.3594 222.891,76.8672 223.969,76.5078 C225.062,76.1328 226.281,75.9453 227.625,75.9453 C228.781,75.9453 229.906,76.1016 231,76.4141 C232.109,76.7109 233.094,77.1797 233.953,77.8203 C234.828,78.4609 235.523,79.2812 236.039,80.2812 C236.57,81.2656 236.852,82.4453 236.883,83.8203 L232.57,83.8203 C232.508,82.1953 232,81.0547 231.047,80.3984 C230.109,79.7266 228.984,79.3906 227.672,79.3906 C226.328,79.3906 225.188,79.7109 224.25,80.3516 C223.328,80.9922 222.867,81.8281 222.867,82.8594 C222.867,83.8125 223.141,84.5547 223.688,85.0859 C224.234,85.6172 225.117,86.0078 226.336,86.2578 L230.461,87.125 C232.898,87.6406 234.703,88.4766 235.875,89.6328 C237.062,90.7734 237.656,92.3359 237.656,94.3203 C237.656,95.3516 237.422,96.3125 236.953,97.2031 C236.5,98.0781 235.836,98.8359 234.961,99.4766 C234.102,100.102 233.078,100.609 231.891,101 C230.703,101.391 229.391,101.586 227.953,101.586 C226.578,101.586 225.289,101.406 224.086,101.047 C222.898,100.703 221.852,100.188 220.945,99.5 C220.055,98.7969 219.352,97.9297 218.836,96.8984 C218.32,95.8516 218.047,94.6406 218.016,93.2656 Z M241.688,80.2109 L241.688,76.5312 L245.812,76.5312 L245.812,68.3516 L250.078,68.3516 L250.078,76.5312 L255.703,76.5312 L255.703,80.2109 L250.078,80.2109 L250.078,97.2969 L255.703,97.2969 L255.703,101 L245.812,101 L245.812,80.2109 L241.688,80.2109 Z M260.414,88.7656 C260.414,86.9062 260.641,85.1875 261.094,83.6094 C261.562,82.0156 262.25,80.6641 263.156,79.5547 C264.078,78.4297 265.188,77.5469 266.484,76.9062 C267.781,76.2656 269.273,75.9453 270.961,75.9453 C272.727,75.9453 274.266,76.25 275.578,76.8594 C276.891,77.4688 277.977,78.3047 278.836,79.3672 C279.695,80.4141 280.344,81.6484 280.781,83.0703 C281.219,84.4922 281.438,86.0234 281.438,87.6641 L281.438,89.9609 L264.961,89.9609 L264.961,92.5625 C264.961,93.4531 265.125,94.2422 265.453,94.9297 C265.797,95.6172 266.258,96.2031 266.836,96.6875 C267.414,97.1562 268.062,97.5156 268.781,97.7656 C269.5,98 270.242,98.1172 271.008,98.1172 C272.539,98.1172 273.867,97.7266 274.992,96.9453 C276.117,96.1641 276.758,94.9219 276.914,93.2188 L281.25,93.2188 C281.156,94.5312 280.812,95.7031 280.219,96.7344 C279.625,97.75 278.852,98.6172 277.898,99.3359 C276.961,100.055 275.898,100.609 274.711,101 C273.523,101.391 272.273,101.586 270.961,101.586 C269.195,101.586 267.648,101.266 266.32,100.625 C265.008,99.9844 263.906,99.1016 263.016,97.9766 C262.141,96.8516 261.484,95.5078 261.047,93.9453 C260.625,92.3828 260.414,90.6562 260.414,88.7656 Z M264.961,86.5156 L276.961,86.5156 L276.961,85.1562 C276.961,84.2656 276.797,83.4609 276.469,82.7422 C276.156,82.0234 275.719,81.4141 275.156,80.9141 C274.609,80.4141 273.969,80.0391 273.234,79.7891 C272.516,79.5234 271.758,79.3906 270.961,79.3906 C270.164,79.3906 269.406,79.5234 268.688,79.7891 C267.969,80.0391 267.328,80.4141 266.766,80.9141 C266.203,81.4141 265.758,82.0234 265.43,82.7422 C265.117,83.4609 264.961,84.2656 264.961,85.1562 L264.961,86.5156 Z M288,101 L288,76.5312 L292.312,76.5312 L292.312,80.5625 C292.859,79.2188 293.703,78.1172 294.844,77.2578 C295.984,76.3828 297.414,75.9453 299.133,75.9453 C300.758,75.9453 302.195,76.3516 303.445,77.1641 C304.695,77.9766 305.594,79.25 306.141,80.9844 C306.656,79.5469 307.531,78.3516 308.766,77.3984 C310,76.4297 311.523,75.9453 313.336,75.9453 C314.398,75.9453 315.391,76.1094 316.312,76.4375 C317.25,76.75 318.062,77.2578 318.75,77.9609 C319.438,78.6641 319.969,79.5703 320.344,80.6797 C320.734,81.7734 320.93,83.1094 320.93,84.6875 L320.93,101 L316.617,101 L316.617,85.1562 C316.617,83.3594 316.273,81.9531 315.586,80.9375 C314.898,79.9062 313.75,79.3906 312.141,79.3906 C311.375,79.3906 310.664,79.5703 310.008,79.9297 C309.352,80.2734 308.766,80.7734 308.25,81.4297 C307.734,82.0859 307.336,82.8672 307.055,83.7734 C306.773,84.6641 306.633,85.6406 306.633,86.7031 L306.633,101 L302.297,101 L302.297,85.1562 C302.297,83.3594 301.953,81.9531 301.266,80.9375 C300.578,79.9062 299.438,79.3906 297.844,79.3906 C297.078,79.3906 296.367,79.5703 295.711,79.9297 C295.055,80.2734 294.469,80.7734 293.953,81.4297 C293.438,82.0859 293.031,82.8672 292.734,83.7734 C292.453,84.6641 292.312,85.6406 292.312,86.7031 L292.312,101 L288,101 Z" id="Shape" fill="#000000" fill-rule="nonzero"></path>
                <path d="M61.4091,145 L68.2273,145 L68.2273,143.75 L62.8182,143.75 L62.8182,133.364 L61.4091,133.364 L61.4091,145 Z M73.8864,145.182 C75.6591,145.182 76.9545,144.295 77.3636,142.977 L76.0682,142.614 C75.7273,143.523 74.9375,143.977 73.8864,143.977 C72.3125,143.977 71.2273,142.96 71.1648,141.091 L77.5,141.091 L77.5,140.523 C77.5,137.273 75.5682,136.159 73.75,136.159 C71.3864,136.159 69.8182,138.023 69.8182,140.705 C69.8182,143.386 71.3636,145.182 73.8864,145.182 Z M71.1648,139.932 C71.2557,138.574 72.2159,137.364 73.75,137.364 C75.2045,137.364 76.1364,138.455 76.1364,139.932 L71.1648,139.932 Z M82.108,145.205 C83.6307,145.205 84.4261,144.386 84.6989,143.818 L84.767,143.818 L84.767,145 L86.108,145 L86.108,139.25 C86.108,136.477 83.9943,136.159 82.8807,136.159 C81.5625,136.159 80.0625,136.614 79.3807,138.205 L80.6534,138.659 C80.9489,138.023 81.6477,137.341 82.9261,137.341 C84.1591,137.341 84.767,137.994 84.767,139.114 L84.767,139.159 C84.767,139.807 84.108,139.75 82.517,139.955 C80.8977,140.165 79.1307,140.523 79.1307,142.523 C79.1307,144.227 80.4489,145.205 82.108,145.205 Z M82.3125,144 C81.2443,144 80.4716,143.523 80.4716,142.591 C80.4716,141.568 81.4034,141.25 82.4489,141.114 C83.017,141.045 84.5398,140.886 84.767,140.614 L84.767,141.841 C84.767,142.932 83.9034,144 82.3125,144 Z M88.5554,145 L89.8963,145 L89.8963,139.477 C89.8963,138.295 90.8281,137.432 92.1009,137.432 C92.4588,137.432 92.8281,137.5 92.919,137.523 L92.919,136.159 C92.7656,136.148 92.4134,136.136 92.2145,136.136 C91.169,136.136 90.2599,136.727 89.9418,137.591 L89.8509,137.591 L89.8509,136.273 L88.5554,136.273 L88.5554,145 Z M95.8494,139.75 C95.8494,138.227 96.7926,137.364 98.0767,137.364 C99.321,137.364 100.077,138.176 100.077,139.545 L100.077,145 L101.418,145 L101.418,139.455 C101.418,137.227 100.23,136.159 98.4631,136.159 C97.1449,136.159 96.3267,136.75 95.9176,137.636 L95.804,137.636 L95.804,136.273 L94.5085,136.273 L94.5085,145 L95.8494,145 L95.8494,139.75 Z M109.709,139.75 C109.709,138.227 110.68,137.364 112.004,137.364 C113.266,137.364 114.027,138.159 114.027,139.545 L114.027,145 L115.368,145 L115.368,139.455 C115.368,137.21 114.175,136.159 112.391,136.159 C111.016,136.159 110.232,136.733 109.822,137.636 L109.709,137.636 L109.709,133.364 L108.368,133.364 L108.368,145 L109.709,145 L109.709,139.75 Z M121.366,145.182 C123.73,145.182 125.321,143.386 125.321,140.682 C125.321,137.955 123.73,136.159 121.366,136.159 C119.003,136.159 117.412,137.955 117.412,140.682 C117.412,143.386 119.003,145.182 121.366,145.182 Z M121.366,143.977 C119.571,143.977 118.753,142.432 118.753,140.682 C118.753,138.932 119.571,137.364 121.366,137.364 C123.162,137.364 123.98,138.932 123.98,140.682 C123.98,142.432 123.162,143.977 121.366,143.977 Z M129.048,145 L130.366,145 L132.276,138.295 L132.412,138.295 L134.321,145 L135.639,145 L138.298,136.273 L136.889,136.273 L135.003,142.932 L134.912,142.932 L133.071,136.273 L131.639,136.273 L129.776,142.955 L129.685,142.955 L127.798,136.273 L126.389,136.273 L129.048,145 Z M146.548,145 L147.866,145 L149.776,138.295 L149.912,138.295 L151.821,145 L153.139,145 L155.798,136.273 L154.389,136.273 L152.503,142.932 L152.412,142.932 L150.571,136.273 L149.139,136.273 L147.276,142.955 L147.185,142.955 L145.298,136.273 L143.889,136.273 L146.548,145 Z M160.933,145.182 C162.706,145.182 164.001,144.295 164.411,142.977 L163.115,142.614 C162.774,143.523 161.984,143.977 160.933,143.977 C159.359,143.977 158.274,142.96 158.212,141.091 L164.547,141.091 L164.547,140.523 C164.547,137.273 162.615,136.159 160.797,136.159 C158.433,136.159 156.865,138.023 156.865,140.705 C156.865,143.386 158.411,145.182 160.933,145.182 Z M158.212,139.932 C158.303,138.574 159.263,137.364 160.797,137.364 C162.251,137.364 163.183,138.455 163.183,139.932 L158.212,139.932 Z M176.587,141.432 C176.587,143.068 175.337,143.818 174.337,143.818 C173.223,143.818 172.428,143 172.428,141.727 L172.428,136.273 L171.087,136.273 L171.087,141.818 C171.087,144.045 172.268,145.114 173.905,145.114 C175.223,145.114 176.087,144.409 176.496,143.523 L176.587,143.523 L176.587,145 L177.928,145 L177.928,136.273 L176.587,136.273 L176.587,141.432 Z M186.565,138.227 C186.145,136.989 185.202,136.159 183.474,136.159 C181.634,136.159 180.27,137.205 180.27,138.682 C180.27,139.886 180.986,140.693 182.588,141.068 L184.043,141.409 C184.923,141.614 185.338,142.034 185.338,142.636 C185.338,143.386 184.543,144 183.293,144 C182.196,144 181.509,143.528 181.27,142.591 L179.997,142.909 C180.31,144.392 181.531,145.182 183.315,145.182 C185.344,145.182 186.724,144.074 186.724,142.568 C186.724,141.352 185.963,140.585 184.406,140.205 L183.111,139.886 C182.077,139.631 181.611,139.284 181.611,138.614 C181.611,137.864 182.406,137.318 183.474,137.318 C184.645,137.318 185.128,137.966 185.361,138.568 L186.565,138.227 Z M192.402,145.182 C194.175,145.182 195.47,144.295 195.879,142.977 L194.584,142.614 C194.243,143.523 193.453,143.977 192.402,143.977 C190.828,143.977 189.743,142.96 189.68,141.091 L196.016,141.091 L196.016,140.523 C196.016,137.273 194.084,136.159 192.266,136.159 C189.902,136.159 188.334,138.023 188.334,140.705 C188.334,143.386 189.879,145.182 192.402,145.182 Z M189.68,139.932 C189.771,138.574 190.732,137.364 192.266,137.364 C193.72,137.364 194.652,138.455 194.652,139.932 L189.68,139.932 Z M212.555,139.182 C212.555,135.5 210.396,133.205 207.419,133.205 C204.442,133.205 202.283,135.5 202.283,139.182 C202.283,142.864 204.442,145.159 207.419,145.159 C210.396,145.159 212.555,142.864 212.555,139.182 Z M211.192,139.182 C211.192,142.205 209.533,143.841 207.419,143.841 C205.305,143.841 203.646,142.205 203.646,139.182 C203.646,136.159 205.305,134.523 207.419,134.523 C209.533,134.523 211.192,136.159 211.192,139.182 Z M214.925,145 L216.22,145 L216.22,143.659 L216.379,143.659 C216.675,144.136 217.243,145.182 218.925,145.182 C221.107,145.182 222.629,143.432 222.629,140.659 C222.629,137.909 221.107,136.159 218.902,136.159 C217.197,136.159 216.675,137.205 216.379,137.659 L216.266,137.659 L216.266,133.364 L214.925,133.364 L214.925,145 Z M216.243,140.636 C216.243,138.682 217.107,137.364 218.743,137.364 C220.447,137.364 221.288,138.795 221.288,140.636 C221.288,142.5 220.425,143.977 218.743,143.977 C217.129,143.977 216.243,142.614 216.243,140.636 Z M224.68,136.273 L224.68,145.636 C224.68,146.523 224.317,147.023 223.499,147.023 L223.249,147.023 L223.249,148.273 L223.521,148.273 C225.203,148.273 226.021,147.25 226.021,145.636 L226.021,136.273 L224.68,136.273 Z M225.339,134.818 C225.862,134.818 226.294,134.409 226.294,133.909 C226.294,133.409 225.862,133 225.339,133 C224.817,133 224.385,133.409 224.385,133.909 C224.385,134.409 224.817,134.818 225.339,134.818 Z M232.136,145.182 C233.909,145.182 235.205,144.295 235.614,142.977 L234.318,142.614 C233.977,143.523 233.188,143.977 232.136,143.977 C230.562,143.977 229.477,142.96 229.415,141.091 L235.75,141.091 L235.75,140.523 C235.75,137.273 233.818,136.159 232,136.159 C229.636,136.159 228.068,138.023 228.068,140.705 C228.068,143.386 229.614,145.182 232.136,145.182 Z M229.415,139.932 C229.506,138.574 230.466,137.364 232,137.364 C233.455,137.364 234.386,138.455 234.386,139.932 L229.415,139.932 Z M241.335,145.182 C243.267,145.182 244.54,144 244.767,142.455 L243.426,142.455 C243.176,143.409 242.381,143.977 241.335,143.977 C239.744,143.977 238.722,142.659 238.722,140.636 C238.722,138.659 239.767,137.364 241.335,137.364 C242.517,137.364 243.222,138.091 243.426,138.886 L244.767,138.886 C244.54,137.25 243.153,136.159 241.312,136.159 C238.949,136.159 237.381,138.023 237.381,140.682 C237.381,143.295 238.881,145.182 241.335,145.182 Z M250.523,136.273 L248.659,136.273 L248.659,134.182 L247.318,134.182 L247.318,136.273 L246,136.273 L246,137.409 L247.318,137.409 L247.318,142.864 C247.318,144.386 248.545,145.114 249.682,145.114 C250.182,145.114 250.5,145.023 250.682,144.955 L250.409,143.75 C250.295,143.773 250.114,143.818 249.818,143.818 C249.227,143.818 248.659,143.636 248.659,142.5 L248.659,137.409 L250.523,137.409 L250.523,136.273 Z M252.54,145 L253.881,145 L253.881,136.273 L252.54,136.273 L252.54,145 Z M253.222,134.818 C253.744,134.818 254.176,134.409 254.176,133.909 C254.176,133.409 253.744,133 253.222,133 C252.699,133 252.267,133.409 252.267,133.909 C252.267,134.409 252.699,134.818 253.222,134.818 Z M263.473,136.273 L262.018,136.273 L259.609,143.227 L259.518,143.227 L257.109,136.273 L255.655,136.273 L258.882,145 L260.246,145 L263.473,136.273 Z M268.589,145.182 C270.362,145.182 271.658,144.295 272.067,142.977 L270.771,142.614 C270.43,143.523 269.641,143.977 268.589,143.977 C267.016,143.977 265.93,142.96 265.868,141.091 L272.203,141.091 L272.203,140.523 C272.203,137.273 270.271,136.159 268.453,136.159 C266.089,136.159 264.521,138.023 264.521,140.705 C264.521,143.386 266.067,145.182 268.589,145.182 Z M265.868,139.932 C265.959,138.574 266.919,137.364 268.453,137.364 C269.908,137.364 270.839,138.455 270.839,139.932 L265.868,139.932 Z M280.425,138.227 C280.004,136.989 279.061,136.159 277.334,136.159 C275.493,136.159 274.129,137.205 274.129,138.682 C274.129,139.886 274.845,140.693 276.447,141.068 L277.902,141.409 C278.783,141.614 279.197,142.034 279.197,142.636 C279.197,143.386 278.402,144 277.152,144 C276.055,144 275.368,143.528 275.129,142.591 L273.857,142.909 C274.169,144.392 275.391,145.182 277.175,145.182 C279.203,145.182 280.584,144.074 280.584,142.568 C280.584,141.352 279.822,140.585 278.266,140.205 L276.97,139.886 C275.936,139.631 275.47,139.284 275.47,138.614 C275.47,137.864 276.266,137.318 277.334,137.318 C278.504,137.318 278.987,137.966 279.22,138.568 L280.425,138.227 Z M289.67,145.205 C291.193,145.205 291.989,144.386 292.261,143.818 L292.33,143.818 L292.33,145 L293.67,145 L293.67,139.25 C293.67,136.477 291.557,136.159 290.443,136.159 C289.125,136.159 287.625,136.614 286.943,138.205 L288.216,138.659 C288.511,138.023 289.21,137.341 290.489,137.341 C291.722,137.341 292.33,137.994 292.33,139.114 L292.33,139.159 C292.33,139.807 291.67,139.75 290.08,139.955 C288.46,140.165 286.693,140.523 286.693,142.523 C286.693,144.227 288.011,145.205 289.67,145.205 Z M289.875,144 C288.807,144 288.034,143.523 288.034,142.591 C288.034,141.568 288.966,141.25 290.011,141.114 C290.58,141.045 292.102,140.886 292.33,140.614 L292.33,141.841 C292.33,142.932 291.466,144 289.875,144 Z M297.459,139.75 C297.459,138.227 298.402,137.364 299.686,137.364 C300.93,137.364 301.686,138.176 301.686,139.545 L301.686,145 L303.027,145 L303.027,139.455 C303.027,137.227 301.839,136.159 300.072,136.159 C298.754,136.159 297.936,136.75 297.527,137.636 L297.413,137.636 L297.413,136.273 L296.118,136.273 L296.118,145 L297.459,145 L297.459,139.75 Z M308.773,145.182 C310.455,145.182 311.023,144.136 311.318,143.659 L311.477,143.659 L311.477,145 L312.773,145 L312.773,133.364 L311.432,133.364 L311.432,137.659 L311.318,137.659 C311.023,137.205 310.5,136.159 308.795,136.159 C306.591,136.159 305.068,137.909 305.068,140.659 C305.068,143.432 306.591,145.182 308.773,145.182 Z M308.955,143.977 C307.273,143.977 306.409,142.5 306.409,140.636 C306.409,138.795 307.25,137.364 308.955,137.364 C310.591,137.364 311.455,138.682 311.455,140.636 C311.455,142.614 310.568,143.977 308.955,143.977 Z M320.097,145 L321.506,145 L321.506,141.227 L322.96,139.591 L327.006,145 L328.71,145 L323.824,138.614 L328.71,133.364 L326.869,133.364 L321.642,139.136 L321.506,139.136 L321.506,133.364 L320.097,133.364 L320.097,145 Z M333.371,145.182 C335.143,145.182 336.439,144.295 336.848,142.977 L335.553,142.614 C335.212,143.523 334.422,143.977 333.371,143.977 C331.797,143.977 330.712,142.96 330.649,141.091 L336.984,141.091 L336.984,140.523 C336.984,137.273 335.053,136.159 333.234,136.159 C330.871,136.159 329.303,138.023 329.303,140.705 C329.303,143.386 330.848,145.182 333.371,145.182 Z M330.649,139.932 C330.74,138.574 331.7,137.364 333.234,137.364 C334.689,137.364 335.621,138.455 335.621,139.932 L330.649,139.932 Z M339.888,148.25 C341.098,148.25 341.956,147.608 342.456,146.273 L346.172,136.295 L344.706,136.273 L342.297,143.227 L342.206,143.227 L339.797,136.273 L338.342,136.273 L341.57,145.045 L341.32,145.727 C340.842,147.034 340.229,147.159 339.251,146.909 L338.911,148.091 C339.047,148.159 339.433,148.25 339.888,148.25 Z M352.628,145 L354.037,145 L354.037,140.455 L356.582,140.455 C356.685,140.455 356.781,140.455 356.878,140.449 L359.332,145 L360.969,145 L358.338,140.193 C359.821,139.688 360.514,138.477 360.514,136.932 C360.514,134.875 359.287,133.364 356.56,133.364 L352.628,133.364 L352.628,145 Z M354.037,139.182 L354.037,134.614 L356.514,134.614 C358.401,134.614 359.128,135.534 359.128,136.932 C359.128,138.33 358.401,139.182 356.537,139.182 L354.037,139.182 Z M366.246,145.182 C368.018,145.182 369.314,144.295 369.723,142.977 L368.428,142.614 C368.087,143.523 367.297,143.977 366.246,143.977 C364.672,143.977 363.587,142.96 363.524,141.091 L369.859,141.091 L369.859,140.523 C369.859,137.273 367.928,136.159 366.109,136.159 C363.746,136.159 362.178,138.023 362.178,140.705 C362.178,143.386 363.723,145.182 366.246,145.182 Z M363.524,139.932 C363.615,138.574 364.575,137.364 366.109,137.364 C367.564,137.364 368.496,138.455 368.496,139.932 L363.524,139.932 Z M378.081,138.227 C377.661,136.989 376.717,136.159 374.99,136.159 C373.149,136.159 371.786,137.205 371.786,138.682 C371.786,139.886 372.501,140.693 374.104,141.068 L375.558,141.409 C376.439,141.614 376.854,142.034 376.854,142.636 C376.854,143.386 376.058,144 374.808,144 C373.712,144 373.024,143.528 372.786,142.591 L371.513,142.909 C371.825,144.392 373.047,145.182 374.831,145.182 C376.859,145.182 378.24,144.074 378.24,142.568 C378.24,141.352 377.479,140.585 375.922,140.205 L374.626,139.886 C373.592,139.631 373.126,139.284 373.126,138.614 C373.126,137.864 373.922,137.318 374.99,137.318 C376.161,137.318 376.643,137.966 376.876,138.568 L378.081,138.227 Z M385.759,141.432 C385.759,143.068 384.509,143.818 383.509,143.818 C382.395,143.818 381.599,143 381.599,141.727 L381.599,136.273 L380.259,136.273 L380.259,141.818 C380.259,144.045 381.44,145.114 383.077,145.114 C384.395,145.114 385.259,144.409 385.668,143.523 L385.759,143.523 L385.759,145 L387.099,145 L387.099,136.273 L385.759,136.273 L385.759,141.432 Z M390.896,133.364 L389.555,133.364 L389.555,145 L390.896,145 L390.896,133.364 Z M397.148,136.273 L395.284,136.273 L395.284,134.182 L393.943,134.182 L393.943,136.273 L392.625,136.273 L392.625,137.409 L393.943,137.409 L393.943,142.864 C393.943,144.386 395.17,145.114 396.307,145.114 C396.807,145.114 397.125,145.023 397.307,144.955 L397.034,143.75 C396.92,143.773 396.739,143.818 396.443,143.818 C395.852,143.818 395.284,143.636 395.284,142.5 L395.284,137.409 L397.148,137.409 L397.148,136.273 Z M405.19,138.227 C404.77,136.989 403.827,136.159 402.099,136.159 C400.259,136.159 398.895,137.205 398.895,138.682 C398.895,139.886 399.611,140.693 401.213,141.068 L402.668,141.409 C403.548,141.614 403.963,142.034 403.963,142.636 C403.963,143.386 403.168,144 401.918,144 C400.821,144 400.134,143.528 399.895,142.591 L398.622,142.909 C398.935,144.392 400.156,145.182 401.94,145.182 C403.969,145.182 405.349,144.074 405.349,142.568 C405.349,141.352 404.588,140.585 403.031,140.205 L401.736,139.886 C400.702,139.631 400.236,139.284 400.236,138.614 C400.236,137.864 401.031,137.318 402.099,137.318 C403.27,137.318 403.753,137.966 403.986,138.568 L405.19,138.227 Z" id="Shape" fill="#000000" fill-rule="nonzero"></path>
                <g id="Group-2" transform="translate(514.999670, 0.000000)" fill="#D3D8E0">
                    <rect id="Rectangle" fill-rule="nonzero" x="105.00033" y="105" width="52.5" height="52.5"></rect>
                    <rect id="Rectangle" fill-rule="nonzero" x="116.66733" y="52.5" width="5.83333" height="52.5"></rect>
                    <rect id="Rectangle" fill-rule="nonzero" x="128.33333" y="52.5" width="5.83333" height="52.5"></rect>
                    <rect id="Rectangle" fill-rule="nonzero" x="140.00033" y="52.5" width="5.83333" height="52.5"></rect>
                    <rect id="Rectangle" fill-rule="nonzero" x="151.66733" y="52.5" width="5.83333" height="52.5"></rect>
                    <rect id="Rectangle" fill-rule="nonzero" x="105.00033" y="52.5" width="5.83668" height="52.5"></rect>
                    <rect id="Rectangle" fill-rule="nonzero" transform="translate(37.916665, 131.250000) rotate(-180.000000) translate(-37.916665, -131.250000) " x="35" y="105" width="5.83333" height="52.5"></rect>
                    <rect id="Rectangle" fill-rule="nonzero" transform="translate(26.250665, 131.250000) rotate(-180.000000) translate(-26.250665, -131.250000) " x="23.334" y="105" width="5.83333" height="52.5"></rect>
                    <rect id="Rectangle" fill-rule="nonzero" transform="translate(14.583665, 131.250000) rotate(-180.000000) translate(-14.583665, -131.250000) " x="11.667" y="105" width="5.83333" height="52.5"></rect>
                    <rect id="Rectangle" fill-rule="nonzero" transform="translate(2.916665, 131.250000) rotate(-180.000000) translate(-2.916665, -131.250000) " x="-3.37507799e-14" y="105" width="5.83333" height="52.5"></rect>
                    <rect id="Rectangle" fill-rule="nonzero" transform="translate(49.581990, 131.250000) rotate(-180.000000) translate(-49.581990, -131.250000) " x="46.66365" y="105" width="5.83668" height="52.5"></rect>
                    <rect id="Rectangle" fill-rule="nonzero" transform="translate(352.588665, 27.234400) rotate(-180.000000) translate(-352.588665, -27.234400) " x="349.672" y="0.9844" width="5.83333" height="52.5"></rect>
                    <rect id="Rectangle" fill-rule="nonzero" transform="translate(340.921665, 27.234400) rotate(-180.000000) translate(-340.921665, -27.234400) " x="338.005" y="0.9844" width="5.83333" height="52.5"></rect>
                    <rect id="Rectangle" fill-rule="nonzero" transform="translate(329.255665, 27.234400) rotate(-180.000000) translate(-329.255665, -27.234400) " x="326.339" y="0.9844" width="5.83333" height="52.5"></rect>
                    <rect id="Rectangle" fill-rule="nonzero" transform="translate(317.588665, 27.234400) rotate(-180.000000) translate(-317.588665, -27.234400) " x="314.672" y="0.9844" width="5.83333" height="52.5"></rect>
                    <rect id="Rectangle" fill-rule="nonzero" transform="translate(364.253990, 27.234400) rotate(-180.000000) translate(-364.253990, -27.234400) " x="361.33565" y="0.9844" width="5.83668" height="52.5"></rect>
                    <path d="M52.50033,163.333 L52.50033,157.5 C81.49533,157.5 105.00033,181.005 105.00033,210 L99.16733,210 C99.16733,184.227 78.27333,163.333 52.50033,163.333 Z M52.50033,175 L52.50033,169.166 C75.05233,169.166 93.33333,187.448 93.33333,210 L87.50033,210 C87.50033,190.67 71.83033,175 52.50033,175 Z M52.50033,180.834 L52.50033,186.667 C65.38733,186.667 75.83333,197.114 75.83333,210 L81.66733,210 C81.66733,193.892 68.60833,180.834 52.50033,180.834 Z M52.50033,198.333 L52.50033,192.5 C62.16533,192.5 70.00033,200.335 70.00033,210 L64.16733,210 C64.16733,203.557 58.94333,198.333 52.50033,198.333 Z M52.50033,210 L52.50033,204.166 C55.72233,204.166 58.33333,206.778 58.33333,210 L52.50033,210 Z" id="Shape"></path>
                    <path d="M262.00033,110.833 L262.00033,105 C290.99533,105 314.50033,128.505 314.50033,157.5 L308.66733,157.5 C308.66733,131.727 287.77333,110.833 262.00033,110.833 Z M262.00033,122.5 L262.00033,116.667 C284.55233,116.667 302.83333,134.949 302.83333,157.5 L297.00033,157.5 C297.00033,138.17 281.33033,122.5 262.00033,122.5 Z M262.00033,128.333 L262.00033,134.167 C274.88733,134.167 285.33333,144.613 285.33333,157.5 L291.16733,157.5 C291.16733,141.392 278.10833,128.333 262.00033,128.333 Z M262.00033,145.833 L262.00033,140 C271.66533,140 279.50033,147.835 279.50033,157.5 L273.66733,157.5 C273.66733,151.056 268.44333,145.833 262.00033,145.833 Z M262.00033,157.5 L262.00033,151.667 C265.22233,151.667 267.83333,154.279 267.83333,157.5 L262.00033,157.5 Z" id="Shape"></path>
                    <path d="M214.11233,52.5 L210.00033,52.5 L210.00033,48.3875 L258.38733,0 L262.50033,0 L262.50033,4.1125 L214.11233,52.5 Z M250.13333,0 L241.87933,0 L210.00033,31.8791 L210.00033,40.1333 L250.13333,0 Z M233.62533,0 L225.37133,0 L210.00033,15.3708 L210.00033,23.625 L233.62533,0 Z M210.00033,0 L210.00033,7.11666 L217.11633,0 L210.00033,0 Z M262.50033,20.6208 L262.50033,12.3667 L222.36633,52.5 L230.62133,52.5 L262.50033,20.6208 Z M262.50033,37.1291 L262.50033,28.875 L238.87533,52.5 L247.12933,52.5 L262.50033,37.1291 Z M262.50033,45.3833 L255.38333,52.5 L262.50033,52.5 L262.50033,45.3833 Z" id="Shape" fill-rule="nonzero"></path>
                    <path d="M157.50033,105 L210.00033,105 L210.00033,52.5 C181.00533,52.5 157.50033,76.0051 157.50033,105 Z" id="Path" fill-rule="nonzero"></path>
                    <path d="M262.50033,157.5 L262.50033,105 L210.00033,105 C210.00033,133.995 233.50533,157.5 262.50033,157.5 Z" id="Path" fill-rule="nonzero"></path>
                    <path d="M110.83733,204.164 L110.83733,210.001 L105.00033,210.001 L105.00033,204.164 L110.83733,204.164 Z M122.49433,204.164 L122.49433,210.001 L116.65833,210.001 L116.65833,204.164 L122.49433,204.164 Z M134.16833,204.164 L134.16833,210.001 L128.33133,210.001 L128.33133,204.164 L134.16833,204.164 Z M145.82633,204.164 L145.82633,210.001 L139.99033,210.001 L139.99033,204.164 L145.82633,204.164 Z M157.50033,204.164 L157.50033,210.001 L151.66333,210.001 L151.66333,204.164 L157.50033,204.164 Z M151.66333,198.326 L151.66333,204.163 L145.82633,204.163 L145.82633,198.326 L140.00533,198.326 L140.00633,204.163 L134.16933,204.163 L134.16833,198.326 L128.33133,198.326 L128.33233,204.163 L122.49533,204.163 L122.49533,198.326 L128.33233,198.326 L128.33233,192.505 L122.49533,192.505 L122.49533,186.668 L128.33233,186.668 L128.33133,180.832 L134.16833,180.832 L134.16933,186.668 L139.99033,186.668 L139.99033,180.832 L145.82633,180.832 L145.82633,186.668 L151.66333,186.668 L151.66333,180.832 L157.50033,180.832 L157.50033,186.669 L151.66333,186.669 L151.66333,192.489 L157.50033,192.489 L157.50033,198.326 L151.66333,198.326 Z M110.83733,180.832 L110.83733,186.668 L116.65833,186.668 L116.65833,180.832 L122.49433,180.832 L122.49433,186.669 L116.67333,186.669 L116.67333,192.489 L122.49433,192.489 L122.49433,198.326 L116.67333,198.326 L116.67333,204.163 L110.83733,204.163 L110.83733,198.326 L105.00033,198.326 L105.00033,192.489 L110.83733,192.489 L110.83733,186.669 L105.00033,186.669 L105.00033,180.832 L110.83733,180.832 Z M139.99033,192.505 L134.16933,192.505 L134.16933,198.326 L139.99033,198.325 L139.99033,192.505 Z M116.65833,192.505 L110.83733,192.505 L110.83733,198.326 L116.65833,198.325 L116.65833,192.505 Z M134.16833,186.669 L128.33133,186.669 L128.33133,192.489 L134.16833,192.489 L134.16833,186.669 Z M145.82633,186.669 L140.00533,186.669 L140.00533,192.489 L145.82633,192.489 L145.82633,186.669 Z M116.67333,163.337 L116.67333,169.158 L122.49433,169.158 L122.49433,174.995 L116.67333,174.995 L116.67333,180.832 L110.83733,180.832 L110.83733,174.995 L105.00033,174.995 L105.00033,169.158 L110.83733,169.158 L110.83733,163.337 L116.67333,163.337 Z M128.33233,163.337 L128.33133,169.158 L134.16833,169.158 L134.16933,163.337 L140.00633,163.337 L140.00533,169.158 L145.82633,169.158 L145.82633,163.337 L151.66333,163.337 L151.66333,169.158 L157.50033,169.158 L157.50033,174.995 L151.66333,174.995 L151.66333,180.832 L145.82633,180.832 L145.82633,174.995 L140.00533,174.995 L140.00633,180.832 L134.16933,180.832 L134.16833,174.995 L128.33133,174.995 L128.33233,180.832 L122.49533,180.832 L122.49533,174.995 L128.33233,174.995 L128.33233,169.174 L122.49533,169.174 L122.49533,163.337 L128.33233,163.337 Z M139.99033,169.174 L134.16933,169.174 L134.16933,174.995 L139.99033,174.994 L139.99033,169.174 Z M116.65833,169.174 L110.83733,169.174 L110.83733,174.995 L116.65833,174.994 L116.65833,169.174 Z M151.66333,169.174 L145.82633,169.174 L145.82633,174.995 L151.66333,174.995 L151.66333,169.174 Z M110.83733,157.5 L110.83733,163.337 L105.00033,163.337 L105.00033,157.5 L110.83733,157.5 Z M122.49433,157.5 L122.49433,163.337 L116.65833,163.337 L116.65833,157.5 L122.49433,157.5 Z M134.16833,157.5 L134.16833,163.337 L128.33133,163.337 L128.33133,157.5 L134.16833,157.5 Z M145.82633,157.5 L145.82633,163.337 L139.99033,163.337 L139.99033,157.5 L145.82633,157.5 Z M157.50033,157.5 L157.50033,163.337 L151.66333,163.337 L151.66333,157.5 L157.50033,157.5 Z M151.66333,192.505 L145.82633,192.505 L145.82633,198.326 L151.66333,198.326 L151.66333,192.505 Z" id="Combined-Shape" fill-rule="nonzero"></path>
                </g>
                <path d="M681.4,137.7 C683,137.7 691.9,136.5 696.2,135.1 C694.7,150.3 683.7,205.8 688.4,218.4 C691.4,226.8 697.9,229.9 704.7,229.2 C714.8,228.1 731.9,227.5 746.5,225.7 C753.6,224.8 760.7,224.8 765.1,222.2 C772.4,217.8 769.7,205.4 765.1,197.1 C763.4,194.1 762.2,194.8 758.1,194.8 C758.1,186.6 760.8,174.5 762.2,162.5 C764.1,146.2 765.1,126.1 765.1,119.9 C765.1,109.2 760.4,96.2002 754.6,96.2002 C735.7,96.2002 690.5,99.1002 683.4,99.1002 C674.2,99.1002 668.9,108 668.9,118.4 C668.9,128.8 672.1,137.7 681.4,137.7 Z" id="Path" fill="#000000"></path>
                <path d="M692.1,103.101 L752.8,101.101 C757.4,104.601 759.7,114.601 759.7,130.901 C759.7,147.201 757.4,168.401 752.8,194.501 C721.4,196.101 704.3,197.101 701.3,197.601 C698.3,198.101 695.8,200.201 693.5,204.001 C696.3,182.501 698.9,164.401 701.3,149.701 C702.7,141.201 703.1,125.601 701.3,116.801 C700.2,110.801 697.1,106.301 692.1,103.101 Z" id="Path" fill="#D3D8E0"></path>
                <path d="M705,116.501 C699.8,109.801 695.5,105.301 692.2,103.201 L752.9,101.101 C755.7,103.301 757.7,107.901 758.8,115.001 C726.3,120.501 708.4,120.901 705,116.501 Z" id="Path" fill="#FFFFFF"></path>
                <path d="M690.2,109.2 C691.4,110.3 696.1,113.3 696.1,120.6 C696.1,124.2 695.2,129.1 694.5,132.4 C685.9,134 679.4,135.5 678.7,134.3 C681.5,133.6 683.6,131.9 685,129.4 C686.1,127.4 687.6,123.1 687.4,118.5 C687.1,112.6 683.6,110.9 682.9,110.2 L690.2,109.2 Z" id="Path" fill="#FFFFFF"></path>
                <path d="M694.6,132.401 C686,134.001 679.5,135.401 678.8,134.301 C681.6,133.601 683.7,132.001 685.1,129.401 C685.7,128.301 687,125.401 690.1,123.401 C692.2,122.001 694.2,121.701 696.1,122.301 C696,125.601 695.3,129.601 694.6,132.401 Z" id="Path" fill="#D3D8E0"></path>
                <path d="M680.7,113 C682.2,114.7 683,116.9 683,119.7 C683,120.4 683,121 682.9,121.6 L676.5,122.5 C676.4,122.2 676.3,120.6 676.5,119.4 C676.6,118.3 677.1,116.1 678.3,114.7 C679.4,113.5 680.6,113 680.7,113 Z" id="Path" fill="#D3D8E0"></path>
                <path d="M758.518,198.343 C759.523,198.313 761.172,200.534 762.417,204.23 C764.314,210.076 761.212,212.867 757.688,214.525 C748.997,215.521 721.443,218.206 720.828,216.96 C709.696,219.89 704.966,220.161 706.544,217.665 C707.781,215.747 707.459,214.621 707.487,209.912 C707.599,204.005 704.227,202.065 703.577,201.318 L758.518,198.343 Z" id="Path" fill="#FFFFFF"></path>
                <path d="M763.666,215.043 C761.965,220.738 731.747,219.929 723.669,220.767 C715.591,221.606 702.748,223.214 704.319,220.817 C704.994,219.762 706.493,216.96 709.725,215.181 C711.811,214.023 730.455,208.31 744.987,206.92 C754.675,205.994 760.023,204.062 760.924,201.218 C765.542,206.854 763.585,213.333 763.666,215.043 Z" id="Path" fill="#D3D8E0"></path>
                <path d="M700.598,205.22 C701.69,206.8 702.149,208.837 701.975,211.331 C701.933,211.929 701.891,212.528 701.756,213.02 L696.713,213.469 C696.634,213.163 696.732,211.766 696.908,210.676 C697.078,209.685 697.609,207.818 698.598,206.584 C699.472,205.542 700.498,205.213 700.598,205.22 Z" id="Path" fill="#C4C3C6"></path>
                <path d="M692.9,184.401 L693.5,191.401 C695.1,191.501 696.3,191.401 697,191.201 C698.4,190.901 700.1,191.001 699.2,190.601 C698.8,190.401 696.9,189.801 695.7,189.501 C695.4,189.401 695.1,189.301 694.8,189.301 C696.6,189.101 698.5,188.901 700.8,188.401 C706.6,187.301 706.2,187.101 701,186.901 C700,186.901 698.6,186.901 697,187.001 C697.6,186.801 698.1,186.501 698.7,186.101 C699.9,185.401 701.7,184.201 702.1,183.801 C702.8,183.101 700.7,183.701 698.2,183.601 C696.9,183.601 695.1,183.901 692.9,184.401 Z" id="Path" fill="#000000"></path>
                <path d="M757.6,99.9 L758.6,107.8 C756.9,108.2 755.6,108.4 754.8,108.4 C753.2,108.4 751.4,108.9 752.3,108.3 C752.7,108 754.7,106.9 755.9,106.3 C756.2,106.1 756.6,106 756.9,105.8 C754.9,106 752.7,106.2 750.2,106.2 C743.6,106.3 744,106 749.6,104.6 C750.7,104.3 752.2,104 754,103.8 C753.3,103.7 752.6,103.5 751.9,103.3 C750.4,102.8 748.1,101.9 747.7,101.6 C746.8,101 749.2,101.1 751.9,100.5 C753.1,100 755.1,99.8 757.6,99.9 Z" id="Path" fill="#000000"></path>
                <path d="M708.6,156.6 C708.3,158.6 709.1,160.9 709.9,162.8 C710.3,163.9 711.6,163.8 712,162.8 C712.9,160.7 714.1,158.8 715.7,157.1 C716.9,155.8 718.9,154.9 719.5,153.3 C719.7,152.7 719.2,152.2 718.7,152.2 C716.7,152.1 714.6,154.7 713.4,156.1 C711.9,157.9 710.7,160 709.9,162.2 C710.6,162.2 711.3,162.2 712,162.2 C711.3,160.4 710.8,158.1 709.7,156.5 C709.4,156.1 708.7,156 708.6,156.6 Z" id="Path" fill="#000000" fill-rule="nonzero"></path>
                <path d="M708.9,143.7 C707.1,144.7 708.9,148.4 709.7,149.6 C710,150.1 710.7,150.2 711.1,149.8 C712.6,148.5 714.1,147.2 715.6,145.9 C716.9,144.8 718.7,143.7 719.5,142.1 C719.8,141.5 719.3,140.7 718.6,140.9 C716.9,141.5 715.7,143 714.5,144.1 C712.9,145.5 711.4,147 709.9,148.4 C710.4,148.5 710.9,148.5 711.3,148.6 C710.5,147.5 710.1,146.3 709.8,145 C709.7,144.3 709.7,144.1 709.1,143.7 C709.1,143.6 709,143.6 708.9,143.7 Z" id="Path" fill="#000000" fill-rule="nonzero"></path>
                <path d="M709.3,133.001 C709,135.101 710.4,139.201 713,137.001 C714.3,135.901 715.1,134.001 716.2,132.601 C717.4,130.901 719,129.401 720.1,127.601 C720.9,126.401 719.2,125.301 718.2,126.101 C716.4,127.601 715,129.901 713.8,131.901 C713.3,132.701 712.7,134.401 711.9,135.001 C711.8,135.101 711.7,135.301 711.7,135.401 C711.5,134.901 711.3,134.501 711.1,134.001 C710.9,133.501 710.8,133.201 710.5,132.801 C710.1,132.201 709.4,132.501 709.3,133.001 Z" id="Path" fill="#000000" fill-rule="nonzero"></path>
                <path d="M725,130.8 C729.2,131.8 734.2,131 738.5,130.9 C740.8,130.9 743.1,130.8 745.4,130.8 C747.7,130.8 750,131.1 752.2,130.6 C753.3,130.4 753.3,128.6 752.2,128.3 C750.1,127.8 747.9,128 745.8,128 C743.3,128 740.9,128.1 738.4,128.2 C734.1,128.4 728.9,128.3 724.9,130 C724.7,130.3 724.6,130.7 725,130.8 Z" id="Path" fill="#000000" fill-rule="nonzero"></path>
                <path d="M723.6,144.201 C728.4,144.101 733.1,144.001 737.9,143.901 C740.2,143.801 742.5,143.801 744.8,143.801 C746.9,143.801 749.6,144.401 751.6,143.601 C752.3,143.301 752.7,142.201 751.8,141.801 C749.9,140.901 747.7,141.201 745.7,141.101 C743.1,141.101 740.5,141.101 737.9,141.201 C733,141.301 728.2,141.901 723.4,142.801 C722.7,142.901 722.8,144.201 723.6,144.201 Z" id="Path" fill="#000000" fill-rule="nonzero"></path>
                <path d="M723.1,158.2 C725.2,158.7 727.5,158.6 729.6,158.6 C731.8,158.6 734.1,158.8 736.2,158.3 C737.2,158.1 737.2,156.4 736.2,156.2 C734.1,155.8 731.8,156.1 729.6,156.1 C727.5,156.2 725.2,156.2 723.1,156.7 C722.4,156.9 722.4,158 723.1,158.2 Z" id="Path" fill="#000000" fill-rule="nonzero"></path>
                <path d="M778.211,126.106 C777.223,126.358 776.135,126.615 775.147,126.867 C775.047,126.872 774.952,126.977 774.753,126.988 C774.653,126.993 774.548,126.899 774.548,126.899 C774.542,126.799 774.642,126.793 774.642,126.793 C774.742,126.788 774.837,126.683 774.937,126.678 C776.692,125.785 778.448,124.892 780.199,123.899 C781.465,123.231 782.942,122.754 784.094,121.792 C785.823,120.4 787.447,118.912 789.077,117.525 C790.801,116.033 788.699,117.946 790.517,116.348 C788.504,116.153 786.618,116.453 784.715,116.452 C787.085,115.827 789.356,115.207 791.858,115.177 C792.058,115.166 792.152,115.061 792.247,114.956 C794.833,112.717 794.702,112.123 797.499,110.074 C798.561,109.318 799.517,108.466 800.774,107.6 C799.066,107.489 797.578,107.767 796.085,107.945 C795.991,108.05 795.791,108.061 795.586,107.972 C795.486,107.977 795.392,108.082 795.192,108.092 L794.992,108.103 C794.892,108.108 794.792,108.113 794.787,108.013 C794.782,107.914 794.882,107.908 794.982,107.903 C794.976,107.803 795.076,107.798 795.176,107.793 C795.271,107.688 795.371,107.682 795.47,107.677 C795.67,107.667 795.765,107.562 795.965,107.551 C797.137,106.989 798.424,106.721 799.723,106.653 C801.121,106.58 802.608,106.302 803.654,105.246 C804.795,104.084 805.841,103.028 807.082,101.862 C806.872,101.672 806.672,101.683 806.472,101.693 C804.885,101.977 803.193,102.165 801.605,102.449 C801.206,102.47 801.206,102.47 800.796,102.291 C803.256,101.461 805.81,100.526 808.391,100.091 C808.691,100.075 809.553,99.3287 809.742,99.1185 C810.683,97.9677 810.767,97.6629 811.603,96.4174 C813.002,94.4415 814.295,92.371 814.669,89.9481 C814.89,88.4345 814.238,87.4672 812.714,87.0464 C812.005,86.8833 811.201,86.8253 810.402,86.8672 C807.506,87.019 804.641,87.7699 801.876,88.5156 C800,89.0145 798.234,89.7079 797.019,91.3738 C796.83,91.584 796.551,91.9991 796.052,92.0253 C796.615,91.2948 797.288,90.7589 797.745,89.9338 C797.545,89.9443 797.351,90.0546 797.251,90.0598 C792.426,91.6145 794.302,91.1156 790.049,94.0422 C788.409,95.2297 786.117,97.3525 785.313,99.1972 C784.776,100.427 782.978,102.424 782.242,103.664 C782.242,103.664 776.281,110.285 776.275,110.185 L782.869,98.424 C781.907,99.1754 780.94,99.8269 780.078,100.573 C775.078,104.54 774.316,105.281 769.737,109.627 C766.688,112.59 767.403,110.951 765.4,114.761 C764.574,116.206 763.649,117.656 762.524,119.117 C762.955,117.793 763.392,116.568 763.828,115.344 C760.927,117.298 760.3,120.636 758.739,123.321 C758.986,122.307 759.233,121.292 759.381,120.283 C757.856,121.765 756.636,123.331 755.522,124.992 C753.75,127.488 752.393,130.263 751.851,133.295 C751.857,133.395 751.862,133.495 751.762,133.5 C751.662,133.505 751.657,133.405 751.657,133.405 C750.18,131.981 749.986,130.188 750.591,128.354 C749.687,130.204 749.576,131.912 750.669,133.658 C751.21,134.43 751.557,135.313 751.803,136.202 C752.05,137.09 751.892,137.899 751.235,138.735 C749.726,140.516 748.218,142.298 746.809,144.074 C744.742,146.686 742.576,149.302 740.726,152.203 C739.979,153.244 739.443,154.474 739.816,155.856 C739.91,155.751 740.005,155.646 740.105,155.641 C743.643,150.548 747.287,145.551 751.245,140.837 C754.163,137.28 756.392,133.958 759.394,130.096 C760.893,128.115 764.273,123.832 771.065,117.768 C780.344,109.471 789.753,103.671 791.219,102.993 C791.608,102.773 793.601,102.568 793.601,102.568 C792.733,103.214 791.766,103.866 790.904,104.612 C788.691,106.33 766.149,125.236 759.536,132.792 C757.738,134.789 756.045,136.881 754.352,138.972 C755.871,139.293 756.454,140.865 757.778,141.296 C757.337,140.518 756.607,139.955 756.26,139.072 C758.325,140.266 768.238,138.344 767.523,138.081 C766.809,137.819 758.993,139.63 757.327,138.416 C761.863,137.076 765.637,134.575 769.501,131.869 C768.487,131.622 767.598,131.869 766.574,131.422 C767.966,131.249 769.16,131.086 770.353,130.924 C770.852,130.897 771.241,130.677 771.53,130.461 C775.194,127.766 774.673,129.295 778.132,126.51 C778.227,126.405 778.521,126.29 778.411,126.095 C778.6,125.885 778.406,125.995 778.211,126.106 Z M782.725,130.075 C782.441,130.39 782.252,130.6 781.958,130.716 C781.858,130.721 781.863,130.821 781.763,130.826 C780.034,132.219 778.872,132.981 777.4,133.558 C777.3,133.564 777.3,133.564 777.206,133.669 C776.812,133.789 776.617,133.9 776.323,134.015 L772.943,136.396 C773.063,136.79 773.189,137.284 773.216,137.783 C773.289,139.181 772.947,140.301 772.3,141.336 C771.927,141.856 771.548,142.277 771.165,142.597 C770.492,143.133 770.003,143.359 769.409,143.49 C768.915,143.616 768.421,143.742 767.832,143.973 C767.238,144.105 766.544,144.241 765.751,144.383 L769.413,151.201 L756.148,146.488 C755.538,146.32 755.023,146.047 754.608,145.768 C751.317,149.846 748.136,154.118 744.882,158.895 C744.787,159 744.787,159 744.698,159.205 C744.324,159.725 743.462,160.471 743.841,160.051 L737.159,166.309 L734.891,157.416 C734.502,155.734 734.513,154.031 735.028,152.402 C735.37,151.282 735.822,150.357 736.569,149.317 C738.052,147.036 739.271,145.47 742.184,141.813 C742.279,141.708 742.279,141.708 742.373,141.603 C742.657,141.287 742.841,140.977 743.03,140.767 C744.155,139.306 745.386,137.94 746.516,136.579 C744.435,133.183 744.441,129.478 746.261,125.978 L748.715,126.951 C749.43,125.311 750.35,123.761 751.565,122.095 C752.963,120.119 754.467,118.238 756.086,116.651 L757.132,115.594 C757.222,115.39 757.411,115.179 757.5,114.974 C758.52,113.419 759.75,112.053 761.301,111.07 L762.268,110.419 C762.363,110.313 762.358,110.214 762.458,110.208 C763.015,109.378 763.483,108.753 764.051,108.122 C764.24,107.912 765.775,106.63 766.537,105.889 C771.4,101.228 772.362,100.477 777.261,96.5149 C777.356,96.4098 777.456,96.4045 777.55,96.2994 C778.129,95.8686 780.247,94.2555 780.053,94.3658 L801.411,77.7252 L797.468,84.6411 C798.445,84.1893 799.528,83.8321 800.711,83.4697 C800.91,83.4593 801.005,83.3542 801.205,83.3437 C801.305,83.3385 801.305,83.3385 801.305,83.3385 C805.552,82.2147 807.633,81.8052 810.429,81.6586 C811.727,81.5906 813.036,81.7223 814.255,82.0589 C818.518,83.1373 820.903,86.6173 820.329,90.9532 C819.898,94.1803 818.63,96.7501 816.296,99.9767 C816.112,100.287 816.017,100.392 815.644,100.912 L816.369,101.375 L814.356,103.082 L815.559,103.12 L807.669,109.241 C806.907,109.982 806.139,110.623 805.361,111.064 L804.21,112.026 C804.11,112.031 803.921,112.241 803.732,112.451 L797.791,117.569 C797.218,118.1 796.74,118.526 795.978,119.267 C795.883,119.372 795.788,119.477 795.694,119.582 C795.499,119.692 795.305,119.802 795.116,120.013 L794.253,120.759 C793.675,121.19 793.491,121.5 793.197,121.615 C793.102,121.72 793.102,121.72 792.908,121.831 C792.808,121.836 792.813,121.936 792.813,121.936 C792.429,122.256 792.046,122.577 791.278,123.218 C789.559,124.81 788.692,125.456 787.635,126.313 C786.578,127.169 785.701,127.616 784.04,128.404 C783.666,128.924 783.198,129.549 782.725,130.075 Z M755.552,129.396 C754.507,128.55 753.182,128.118 751.884,128.186 L755.363,129.606 C755.363,129.606 755.458,129.501 755.552,129.396 Z" id="Shape" fill="#000000" fill-rule="nonzero"></path>
                <path d="M778.211,126.105 C778.411,126.095 778.6,125.885 778.716,126.179 C778.831,126.473 778.532,126.489 778.437,126.594 C774.983,129.479 775.404,127.955 771.835,130.545 C771.446,130.766 771.057,130.986 770.657,131.007 C769.464,131.17 768.271,131.333 766.878,131.506 C767.803,131.958 768.791,131.706 769.806,131.953 C765.942,134.659 762.168,137.16 757.632,138.499 C759.297,139.714 767.113,137.902 767.828,138.165 C768.543,138.428 758.625,140.25 756.565,139.156 C756.911,140.039 757.642,140.602 758.083,141.38 C756.759,140.948 756.176,139.377 754.657,139.056 C756.35,136.964 758.042,134.873 759.84,132.876 C766.454,125.32 788.995,106.414 791.209,104.696 C792.076,104.049 793.038,103.298 793.905,102.652 C793.905,102.652 791.918,102.956 791.524,103.077 C790.063,103.855 780.654,109.655 771.37,117.852 C764.573,123.816 761.197,128.199 759.699,130.18 C756.692,133.942 754.468,137.363 751.55,140.921 C747.597,145.734 743.948,150.632 740.41,155.724 C740.415,155.824 740.315,155.829 740.12,155.94 C739.742,154.458 740.384,153.322 741.031,152.287 C742.886,149.486 745.052,146.869 747.113,144.158 C748.522,142.381 750.026,140.5 751.54,138.819 C752.202,138.083 752.26,137.279 752.108,136.285 C751.861,135.397 751.515,134.514 750.974,133.741 C749.781,132.001 749.986,130.188 750.896,128.438 C750.396,130.367 750.485,132.065 751.962,133.489 C751.967,133.589 751.972,133.689 752.067,133.584 C752.067,133.584 752.062,133.484 752.156,133.379 C752.593,130.252 754.055,127.572 755.827,125.075 C756.941,123.415 758.261,121.844 759.685,120.367 C759.438,121.381 759.191,122.396 759.044,123.405 C760.705,120.714 761.331,117.377 764.133,115.428 C763.697,116.652 763.26,117.877 762.829,119.201 C763.954,117.74 764.879,116.29 765.705,114.844 C767.808,111.029 766.988,112.574 770.042,109.71 C774.621,105.365 775.483,104.619 780.382,100.657 C781.244,99.9107 782.112,99.2644 783.174,98.5078 L776.58,110.269 C776.58,110.269 782.542,103.648 782.547,103.748 C783.183,102.513 784.981,100.516 785.617,99.281 C786.422,97.4363 788.709,95.2136 790.354,94.126 C794.507,91.2047 792.636,91.8034 797.556,90.1437 C797.656,90.1384 797.85,90.0281 798.05,90.0176 C797.592,90.8427 796.919,91.3786 796.357,92.1091 C796.856,92.0829 797.14,91.7676 797.324,91.4576 C798.539,89.7917 800.205,89.1036 802.181,88.5995 C805.046,87.8485 807.805,87.0029 810.707,86.951 C811.505,86.9091 812.21,86.9724 813.019,87.1302 C814.543,87.551 815.19,88.4184 814.974,90.0319 C814.605,92.5547 813.307,94.5253 811.908,96.5012 C811.067,97.6468 810.988,98.0515 810.047,99.2023 C809.858,99.4125 808.995,100.159 808.696,100.174 C806.115,100.61 803.561,101.545 801.101,102.375 C801.511,102.554 801.511,102.554 801.91,102.533 C803.497,102.249 805.19,102.06 806.777,101.777 C806.877,101.772 807.082,101.861 807.387,101.945 C806.141,103.012 805.095,104.068 803.959,105.329 C802.913,106.386 801.525,106.659 800.027,106.737 C798.729,106.805 797.441,107.073 796.269,107.635 C796.07,107.645 795.975,107.751 795.775,107.761 C795.675,107.766 795.575,107.771 795.481,107.877 C795.381,107.882 795.281,107.887 795.286,107.987 C795.187,107.992 795.081,107.897 795.092,108.097 C795.092,108.097 795.192,108.092 795.297,108.187 L795.497,108.176 C795.596,108.171 795.691,108.066 795.891,108.055 C796.096,108.145 796.19,108.04 796.39,108.029 C797.878,107.751 799.37,107.573 801.078,107.683 C799.922,108.545 798.865,109.402 797.803,110.158 C795.007,112.207 795.138,112.801 792.552,115.04 C792.457,115.145 792.263,115.255 792.163,115.26 C789.761,115.286 787.39,115.911 785.02,116.536 C786.928,116.636 788.815,116.337 790.822,116.432 C789.003,118.029 791.106,116.117 789.382,117.609 C787.752,118.996 786.128,120.483 784.398,121.876 C783.247,122.837 781.87,123.31 780.503,123.982 C778.748,124.876 776.997,125.869 775.241,126.762 C775.142,126.767 775.047,126.872 774.947,126.877 C774.847,126.882 774.747,126.888 774.853,126.982 C774.853,126.982 774.958,127.077 775.057,127.072 C775.157,127.066 775.252,126.961 775.452,126.951 C776.235,126.609 777.223,126.357 778.211,126.105 Z" id="Path" fill="#D3D8E0"></path>
                <path d="M754.762,139.15 C755.603,138.005 756.444,136.859 757.385,135.708 C758.137,134.768 758.989,133.822 759.84,132.876 C762.39,129.939 767.258,125.377 772.426,120.801 C772.184,121.915 755.266,139.224 754.762,139.15 Z M775.013,114.757 L778.857,107.846 C780.56,105.955 782.642,103.643 782.642,103.643 C783.278,102.408 785.076,100.411 785.712,99.1758 C786.517,97.3311 788.804,95.1084 790.449,94.0208 C794.602,91.0995 792.73,91.6982 797.65,90.0384 C797.75,90.0332 797.945,89.9229 798.144,89.9124 C797.687,90.7375 797.014,91.2734 796.452,92.0039 C796.951,91.9777 797.235,91.6624 797.419,91.3524 C798.633,89.6865 800.299,88.9984 802.276,88.4942 C805.14,87.7433 807.9,86.8977 810.801,86.8458 C811.6,86.8039 812.304,86.8672 813.114,87.025 C814.638,87.4458 815.284,88.3132 815.068,89.9267 C814.868,91.8398 814.053,93.4847 813.028,94.9404 C813.249,93.4267 812.603,92.5594 811.079,92.1385 C810.369,91.9755 809.565,91.9175 808.766,91.9593 C805.87,92.1111 803.005,92.862 800.241,93.6078 C798.364,94.1067 796.598,94.8 795.384,96.4659 C795.194,96.6761 794.916,97.0912 794.416,97.1174 C794.979,96.387 795.652,95.851 796.109,95.0259 C795.909,95.0364 795.715,95.1467 795.615,95.152 C790.79,96.7066 792.666,96.2077 788.414,99.1343 C786.774,100.322 784.482,102.445 783.677,104.289 C783.141,105.519 781.343,107.516 780.607,108.756 C780.607,108.756 777.768,111.909 775.97,113.906 C775.691,114.321 775.302,114.542 775.013,114.757 Z M750.041,142.702 C749.006,143.958 741.051,154.589 740.12,155.94 C739.847,154.552 747.408,144.042 748.054,143.007 C750.01,140.2 752.376,139.476 750.041,142.702 Z M751.079,133.836 C749.886,132.096 750.091,130.283 751.001,128.533 C750.496,130.362 750.585,132.059 751.962,133.489 C751.778,133.799 751.594,134.109 751.515,134.514 C751.399,134.22 751.289,134.025 751.079,133.836 Z M755.932,125.17 C757.046,123.509 758.366,121.938 759.791,120.462 C759.543,121.476 759.296,122.49 759.149,123.499 C760.81,120.809 761.436,117.471 764.238,115.522 C763.802,116.747 763.365,117.971 762.934,119.295 C764.059,117.835 764.984,116.384 765.81,114.939 C767.913,111.124 767.093,112.669 770.142,109.705 C774.721,105.359 775.583,104.613 780.482,100.651 C781.344,99.9054 782.212,99.2591 783.274,98.5025 L779.698,104.798 C779.215,105.124 778.831,105.444 778.452,105.865 C773.453,109.832 772.691,110.573 768.112,114.918 C765.063,117.882 765.778,116.242 763.78,120.152 C762.954,121.598 762.029,123.048 760.904,124.509 C761.335,123.184 761.772,121.96 762.208,120.735 C759.307,122.69 758.68,126.027 757.119,128.713 C757.366,127.698 757.613,126.684 757.761,125.675 C756.236,127.157 755.016,128.723 753.902,130.383 C753.439,131.109 752.976,131.834 752.514,132.559 C753.072,129.826 754.349,127.456 755.932,125.17 Z" id="Shape" fill="#FFFFFF"></path>
                <path d="M591.1,239.3 C590.5,235.9 586.2,234.8 582.8,234.5 C579.6,234.3 553.7,232.6 559.2,241.1 C561.7,245 591,239.1 591.1,239.3 Z" id="Path" fill="#000000" fill-rule="nonzero"></path>
                <path d="M616.3,224.9 C610.1,225.8 604.2,228.5 599.5,232.6 C603.4,236.7 609.9,236.3 615.4,235.1 C619.6,234.2 623.7,232.9 627.7,231.3 C629.1,230.7 630.5,230.1 631.3,228.9 C632.1,227.7 632.1,225.7 630.8,225 C630.3,224.7 629.7,224.6 629.1,224.6 C622.6,224 615.9,224.6 609.5,226.1" id="Path" fill="#000000" fill-rule="nonzero"></path>
                <path d="M662.5,191.299 C664.9,192.899 668,194.499 670.4,192.999 C671.9,192.099 672.5,190.099 672.4,188.399 C672.1,183.899 667.9,180.799 664,178.399 C650.6,169.999 636.7,162.499 622.3,155.999 C621.3,155.599 620.3,155.099 619.2,155.199 C618.1,155.299 617.1,156.099 616.5,157.099 C608.9,168.299 655.4,186.699 662.5,191.299 Z" id="Path" fill="#000000" fill-rule="nonzero"></path>
                <path d="M659.7,156.2 C659.7,158.3 658.2,160 656.8,161.6 C647.7,171.4 638.7,181.2 629.6,191 C628,192.7 626.1,194.6 623.8,194.7 C622.1,194.8 620.5,193.9 619,193.1 C618.1,192.6 617.1,191.9 617.1,190.8 C617.1,190.2 617.5,189.7 617.8,189.2 C622.3,182.9 626.7,176.6 631.2,170.2 C633,167.7 634.7,165.2 636.8,162.9 C639.3,160.1 659.6,141.6 659.7,156.2 Z" id="Path" fill="#000000" fill-rule="nonzero"></path>
                <path d="M618.3,142.4 C616.6,141.4 614.9,139.7 615.2,137.8 C618.7,136.2 622.8,136.6 626.3,138.2 C629.1,139.5 639,145.3 634,148.3 C630.7,150.3 621.3,144.2 618.3,142.4 Z" id="Path" fill="#000000" fill-rule="nonzero"></path>
                <path d="M600.7,139.5 C594.9,139 588.8,138.4 583.9,135.2 C582.3,134.1 580.7,132.4 581.3,130.5 C581.7,129 583.5,128.2 585.1,128.2 C586.7,128.3 588.2,128.9 589.7,129.5 C592.1,130.3 594.7,130.7 597.2,130.6 C598.8,130.5 600.6,130.3 601.9,131.2 C604.1,132.8 603.3,136.6 600.9,138.1 C598.5,139.6 595.6,139.4 592.9,139.2" id="Path" fill="#000000" fill-rule="nonzero"></path>
                <path d="M551.7,119 C550.8,117.6 550.6,115.6 551.7,114.3 C552.6,113.2 554.1,112.8 555.6,112.8 C558.6,112.8 561.5,114 564.3,115.3 C567.9,117 576.5,122.8 569.6,125.8 C564.7,127.8 554.2,123.1 551.7,119 Z" id="Path" fill="#000000" fill-rule="nonzero"></path>
                <path d="M558,87.4996 C560.1,86.1996 563.1,85.6996 564.9,87.3996 C569.7,91.7996 561.9,103.6 556.2,103 C547.5,102 553.7,90.0996 558,87.4996 Z" id="Path" fill="#000000" fill-rule="nonzero"></path>
                <path d="M630,211.8 C629.4,212.8 628.8,213.9 629,215 C629.2,216.6 630.7,217.6 632.1,218.5 C633.1,219.1 634.2,219.6 635.2,219.4 C636,219.2 636.6,218.6 637,217.9 C639.6,214.5 640.7,210.1 641.5,205.9 C641.8,204.2 642.1,202.5 641.8,200.7 C641.1,196.6 638.1,195.2 635.7,198.2 C633.3,201.2 632.2,208 630,211.8 Z" id="Path" fill="#000000" fill-rule="nonzero"></path>
                <path d="M529.8,243.4 C537.1,248.7 543.4,255.399 550.9,260.299 C552.2,261.199 553.7,262 555.3,262 C556.9,262 558.5,260.7 558.4,259.1 C558.2,257 555.6,256.3 553.8,255.3 C551.3,253.9 549.7,251.3 547.8,249.1 C542.6,243.3 534.6,240.9 528.6,235.9 C527,234.6 525.5,233.1 523.7,232.3 C520.3,230.9 515.4,233.6 518.6,237.3 C519.4,238.2 521.8,238.2 522.9,238.7 C525.2,240 527.6,241.8 529.8,243.4 Z" id="Path" fill="#000000" fill-rule="nonzero"></path>
                <path d="M547,236.3 C546.9,238.4 545.5,240.3 544.2,242 C540.4,246.8 536.6,251.6 532.8,256.4 C530.6,259.2 528.2,262.1 524.9,263.6 C523,264.5 520.1,264.4 519.5,262.4 C519.1,261 520.2,259.6 521.2,258.5 C523.8,255.6 526.1,252.6 528.2,249.4 C531.3,244.6 533.5,236.6 537.6,232.7 C541,229.6 547,231 547,236.3 Z" id="Path" fill="#000000" fill-rule="nonzero"></path>
                <path d="M652.8,159.9 C644.2,169.2 635.6,178.4 627,187.7 C625.5,189.4 623.6,191.2 621.3,191 C621,188.8 622.2,186.7 623.3,184.8 C628.3,176.7 634.4,169.2 641.5,162.8 C643.7,160.8 646,159.1 648.5,157.5 C649.9,156.6 652.7,153.6 654.2,155 C655.8,156.4 653.8,158.8 652.8,159.9 Z" id="Path" fill="#D3D8E0" fill-rule="nonzero"></path>
                <path d="M621.3,159.1 C621,160.3 621.2,161.7 621.9,162.8 C622.6,163.9 623.7,164.7 624.8,165.4 C637.1,173.5 649.9,180.9 663.1,187.4 C664.4,188 666.1,188.6 667.1,187.6 C667.9,186.9 667.8,185.5 667.2,184.6 C666.6,183.7 665.7,183.1 664.7,182.6 C656.7,177.9 648.6,173.2 640.6,168.5 C638.7,167.4 621.4,158.4 621.3,159.1 Z" id="Path" fill="#D3D8E0" fill-rule="nonzero"></path>
                <path d="M579.3,78.2003 C582,80.9003 585.1,83.8003 588.9,83.6003 C589.3,83.6003 589.8,83.5003 590.1,83.2003 C590.8,82.6003 590.7,81.5003 590.4,80.6003 C588.6,74.2003 584.6,68.6003 580,63.8003 C577.2,60.8003 574,58.1003 570.3,56.4003 C568.6,55.7003 566.9,55.2003 565.4,54.2003 C563.8,53.2003 562.6,51.6003 561,50.8003 C558.5,49.6003 555.9,50.8003 556.2,53.6003 C556.4,55.9003 560.7,58.4003 562.2,59.9003 C568,65.9003 573.5,72.3003 579.3,78.2003 Z" id="Path" fill="#000000" fill-rule="nonzero"></path>
                <path d="M588.6,49.4999 C589.1,50.0999 589.5,50.7999 589.4,51.5999 C589.3,52.5999 588.6,53.2999 588,53.9999 C581.6,60.7999 575,67.3999 568.3,73.8999 C566.8,75.2999 565.3,76.7999 563.5,77.6999 C561.7,78.5999 559.4,78.8999 557.6,78.0999 C555.7,77.1999 554.5,74.8999 555.3,72.9999 C555.6,72.0999 556.3,71.3999 557,70.7999 C561.2,66.5999 581.8,41.7999 588.6,49.4999 Z" id="Path" fill="#000000" fill-rule="nonzero"></path>
            </g>
        </g>
    </g>
</svg>