<?xml version="1.0" encoding="utf-8"?>
<!-- Generator: Adobe Illustrator 23.0.2, SVG Export Plug-In . SVG Version: 6.00 Build 0)  -->
<svg version="1.1" xmlns="http://www.w3.org/2000/svg" xmlns:xlink="http://www.w3.org/1999/xlink" x="0px" y="0px"
	 viewBox="0 0 882 300" style="enable-background:new 0 0 882 300;" xml:space="preserve">
<style type="text/css">
	.st0{fill:#C4C3C6;}
	.st1{fill:#FFFFFF;}
	.st2{fill-rule:evenodd;clip-rule:evenodd;}
	.st3{fill-rule:evenodd;clip-rule:evenodd;fill:#C4C3C6;}
	.st4{fill-rule:evenodd;clip-rule:evenodd;fill:#FFFFFF;}
	.st5{fill:#010101;}
	.st6{fill:none;}
	.st7{fill-rule:evenodd;clip-rule:evenodd;fill:#B1B2B7;}
	.st8{fill-rule:evenodd;clip-rule:evenodd;fill:#FDFDFD;}
	.st9{fill-rule:evenodd;clip-rule:evenodd;fill:#F9F9F9;}
</style>
<g id="Layer_4">
	<path class="st0" d="M875.8,209.1H5.8c-3.3,0-6-2.7-6-6V6.1c0-3.3,2.7-6,6-6h870c3.3,0,6,2.7,6,6v197
		C881.8,206.4,879.1,209.1,875.8,209.1z"/>
	<g>
		<path d="M68.4,144.9h-6.9v-12.5h1.4v11.2h5.5V144.9z"/>
		<path d="M75.9,143.8l0.5-0.1l0,1.1c-1.4,0.2-2.5,0.3-3.5,0.3c-1.3,0-2.2-0.4-2.8-1.1s-0.8-1.9-0.8-3.5c0-3.2,1.3-4.7,3.8-4.7
			c1.2,0,2.1,0.3,2.7,1c0.6,0.7,0.9,1.7,0.9,3.2l-0.1,1h-5.9c0,1,0.2,1.7,0.5,2.2s1,0.7,1.9,0.7S75,143.9,75.9,143.8z M75.5,139.9
			c0-1.1-0.2-1.9-0.5-2.3s-0.9-0.7-1.7-0.7s-1.4,0.2-1.8,0.7c-0.4,0.5-0.6,1.2-0.6,2.3H75.5z"/>
		<path d="M85.3,138.6v4.6c0,0.4,0.4,0.7,1,0.8l-0.1,1.1c-0.9,0-1.7-0.2-2.1-0.7c-1.1,0.5-2.2,0.7-3.2,0.7c-0.8,0-1.5-0.2-1.9-0.7
			c-0.4-0.5-0.6-1.1-0.6-2c0-0.9,0.2-1.5,0.7-1.9c0.4-0.4,1.1-0.7,2.1-0.8l2.8-0.3v-0.8c0-0.6-0.1-1-0.4-1.3
			c-0.3-0.3-0.6-0.4-1.1-0.4c-1,0-2,0.1-3,0.2l-0.6,0.1l-0.1-1c1.3-0.3,2.5-0.4,3.5-0.4s1.8,0.2,2.2,0.7
			C85,136.9,85.3,137.6,85.3,138.6z M79.7,142.3c0,1.1,0.5,1.7,1.4,1.7c0.8,0,1.6-0.1,2.4-0.4l0.4-0.1v-3l-2.7,0.3
			c-0.5,0-0.9,0.2-1.2,0.5C79.8,141.4,79.7,141.8,79.7,142.3z"/>
		<path d="M87.9,144.9v-9h1.3v1.2c1-0.7,2.1-1.2,3.3-1.4v1.4c-0.5,0.1-1,0.2-1.6,0.5c-0.5,0.2-1,0.4-1.3,0.5l-0.5,0.2v6.6H87.9z"/>
		<path d="M95.5,144.9h-1.4v-9h1.3v0.6c1-0.5,1.9-0.8,2.8-0.8c1.2,0,2,0.3,2.4,1s0.6,1.8,0.6,3.5v4.8H100v-4.7
			c0-1.2-0.1-2.1-0.4-2.6s-0.8-0.7-1.6-0.7c-0.4,0-0.8,0.1-1.2,0.2c-0.4,0.1-0.8,0.2-1,0.3l-0.3,0.2V144.9z"/>
		<path d="M114.1,138.6v4.6c0,0.4,0.4,0.7,1,0.8l-0.1,1.1c-0.9,0-1.7-0.2-2.1-0.7c-1.1,0.5-2.2,0.7-3.2,0.7c-0.8,0-1.5-0.2-1.9-0.7
			c-0.4-0.5-0.6-1.1-0.6-2c0-0.9,0.2-1.5,0.7-1.9c0.4-0.4,1.1-0.7,2.1-0.8l2.8-0.3v-0.8c0-0.6-0.1-1-0.4-1.3
			c-0.3-0.3-0.6-0.4-1.1-0.4c-1,0-2,0.1-3,0.2l-0.6,0.1l-0.1-1c1.3-0.3,2.5-0.4,3.5-0.4s1.8,0.2,2.2,0.7
			C113.9,136.9,114.1,137.6,114.1,138.6z M108.6,142.3c0,1.1,0.5,1.7,1.4,1.7c0.8,0,1.6-0.1,2.4-0.4l0.4-0.1v-3l-2.7,0.3
			c-0.5,0-0.9,0.2-1.2,0.5C108.7,141.4,108.6,141.8,108.6,142.3z"/>
		<path d="M120.8,135.7c1.2,0,2.1,0.3,2.5,1c0.5,0.7,0.7,1.9,0.7,3.6s-0.3,2.9-0.9,3.6c-0.6,0.7-1.7,1.1-3.3,1.1
			c-0.5,0-1.3,0-2.5-0.1l-0.5-0.1V132h1.3v4.4C119.1,136,119.9,135.7,120.8,135.7z M119.8,143.9c1.2,0,2-0.3,2.3-0.8
			c0.4-0.5,0.6-1.4,0.6-2.7c0-1.3-0.2-2.2-0.5-2.7c-0.3-0.5-0.8-0.8-1.6-0.8c-0.7,0-1.4,0.1-2.1,0.4l-0.4,0.1v6.3
			C118.9,143.9,119.5,143.9,119.8,143.9z"/>
		<path d="M125.9,140.4c0-1.6,0.3-2.8,0.9-3.6c0.6-0.7,1.6-1.1,3-1.1c1.4,0,2.4,0.4,3,1.1s0.9,1.9,0.9,3.6s-0.3,2.8-0.8,3.6
			c-0.6,0.7-1.6,1.1-3,1.1c-1.5,0-2.5-0.4-3-1.1C126.2,143.2,125.9,142,125.9,140.4z M127.3,140.4c0,1.3,0.2,2.2,0.5,2.8
			c0.3,0.5,1,0.8,2,0.8c1,0,1.7-0.3,2-0.8s0.5-1.4,0.5-2.8c0-1.3-0.2-2.2-0.5-2.7c-0.3-0.5-1-0.7-1.9-0.7c-0.9,0-1.6,0.2-1.9,0.7
			C127.4,138.2,127.3,139.1,127.3,140.4z"/>
		<path d="M141.4,135.9h1.4v9h-1.4v-0.6c-0.9,0.5-1.8,0.8-2.7,0.8c-1.2,0-2-0.3-2.4-1c-0.4-0.6-0.6-1.8-0.6-3.5v-4.7h1.4v4.7
			c0,1.3,0.1,2.2,0.3,2.6s0.7,0.7,1.5,0.7c0.4,0,0.8-0.1,1.2-0.2c0.4-0.1,0.7-0.2,0.9-0.3l0.3-0.2V135.9z"/>
		<path d="M150,137.1h-2.9v4.3c0,1,0.1,1.7,0.2,2c0.1,0.3,0.5,0.5,1.1,0.5l1.6-0.1l0.1,1.1c-0.8,0.1-1.4,0.2-1.8,0.2
			c-0.9,0-1.6-0.2-1.9-0.7c-0.4-0.5-0.5-1.3-0.5-2.6v-4.7h-1.3v-1.2h1.3v-2.8h1.3v2.8h2.9V137.1z"/>
		<path d="M155.6,148.9v-13h1.3v0.6c0.9-0.6,1.8-0.8,2.7-0.8c1.1,0,2,0.4,2.5,1.1c0.5,0.7,0.8,1.9,0.8,3.6s-0.3,2.9-0.9,3.6
			c-0.6,0.7-1.6,1.1-3,1.1c-0.7,0-1.4-0.1-2-0.2v4H155.6z M159.4,136.9c-0.4,0-0.7,0.1-1.2,0.2c-0.4,0.1-0.7,0.2-1,0.4l-0.3,0.2v6.1
			c0.9,0.1,1.5,0.2,1.9,0.2c1,0,1.7-0.3,2-0.8s0.6-1.5,0.6-2.7s-0.2-2.1-0.5-2.7C160.7,137.2,160.1,136.9,159.4,136.9z"/>
		<path d="M165.2,144.9V132h1.4v12.9H165.2z"/>
		<path d="M175.6,138.6v4.6c0,0.4,0.4,0.7,1,0.8l-0.1,1.1c-0.9,0-1.7-0.2-2.1-0.7c-1.1,0.5-2.2,0.7-3.2,0.7c-0.8,0-1.5-0.2-1.9-0.7
			c-0.4-0.5-0.6-1.1-0.6-2c0-0.9,0.2-1.5,0.7-1.9c0.4-0.4,1.1-0.7,2.1-0.8l2.8-0.3v-0.8c0-0.6-0.1-1-0.4-1.3
			c-0.3-0.3-0.6-0.4-1.1-0.4c-1,0-2,0.1-3,0.2l-0.6,0.1l-0.1-1c1.3-0.3,2.5-0.4,3.5-0.4s1.8,0.2,2.2,0.7
			C175.4,136.9,175.6,137.6,175.6,138.6z M170.1,142.3c0,1.1,0.5,1.7,1.4,1.7c0.8,0,1.6-0.1,2.4-0.4l0.4-0.1v-3l-2.7,0.3
			c-0.5,0-0.9,0.2-1.2,0.5C170.2,141.4,170.1,141.8,170.1,142.3z"/>
		<path d="M179.6,144.9h-1.4v-9h1.3v0.6c1-0.5,1.9-0.8,2.8-0.8c1.2,0,2,0.3,2.4,1s0.6,1.8,0.6,3.5v4.8h-1.3v-4.7
			c0-1.2-0.1-2.1-0.4-2.6s-0.8-0.7-1.6-0.7c-0.4,0-0.8,0.1-1.2,0.2c-0.4,0.1-0.8,0.2-1,0.3l-0.3,0.2V144.9z"/>
		<path d="M190.8,136.9c-1.3,0-2,0.5-2,1.4c0,0.4,0.1,0.7,0.4,0.9s1,0.4,2.1,0.5c1.1,0.2,1.8,0.4,2.3,0.8c0.4,0.3,0.7,1,0.7,1.9
			c0,0.9-0.3,1.6-0.9,2c-0.6,0.4-1.5,0.6-2.6,0.6c-0.7,0-1.6-0.1-2.6-0.3l-0.5-0.1l0.1-1.2c1.4,0.2,2.4,0.3,3.1,0.3
			c0.7,0,1.2-0.1,1.6-0.3c0.4-0.2,0.5-0.6,0.5-1.1s-0.2-0.9-0.5-1.1c-0.3-0.2-1-0.4-2.1-0.5c-1.1-0.2-1.8-0.4-2.2-0.7
			c-0.4-0.3-0.7-0.9-0.7-1.8s0.3-1.5,0.9-1.9s1.4-0.6,2.3-0.6c0.7,0,1.6,0.1,2.8,0.3l0.5,0.1l0,1.2
			C192.6,137,191.5,136.9,190.8,136.9z"/>
		<path d="M206.6,138.6v4.6c0,0.4,0.4,0.7,1,0.8l-0.1,1.1c-0.9,0-1.7-0.2-2.1-0.7c-1.1,0.5-2.2,0.7-3.2,0.7c-0.8,0-1.5-0.2-1.9-0.7
			c-0.4-0.5-0.6-1.1-0.6-2c0-0.9,0.2-1.5,0.7-1.9c0.4-0.4,1.1-0.7,2.1-0.8l2.8-0.3v-0.8c0-0.6-0.1-1-0.4-1.3
			c-0.3-0.3-0.6-0.4-1.1-0.4c-1,0-2,0.1-3,0.2l-0.6,0.1l-0.1-1c1.3-0.3,2.5-0.4,3.5-0.4s1.8,0.2,2.2,0.7
			C206.4,136.9,206.6,137.6,206.6,138.6z M201.1,142.3c0,1.1,0.5,1.7,1.4,1.7c0.8,0,1.6-0.1,2.4-0.4l0.4-0.1v-3l-2.7,0.3
			c-0.5,0-0.9,0.2-1.2,0.5C201.2,141.4,201.1,141.8,201.1,142.3z"/>
		<path d="M210.6,144.9h-1.4v-9h1.3v0.6c1-0.5,1.9-0.8,2.8-0.8c1.2,0,2,0.3,2.4,1s0.6,1.8,0.6,3.5v4.8h-1.3v-4.7
			c0-1.2-0.1-2.1-0.4-2.6s-0.8-0.7-1.6-0.7c-0.4,0-0.8,0.1-1.2,0.2c-0.4,0.1-0.8,0.2-1,0.3l-0.3,0.2V144.9z"/>
		<path d="M225.9,132v12.9h-1.3v-0.6c-0.9,0.5-1.8,0.8-2.7,0.8c-0.5,0-0.9-0.1-1.3-0.2c-0.4-0.1-0.7-0.3-1-0.6c-0.6-0.6-1-1.8-1-3.6
			c0-1.7,0.3-3,0.9-3.8s1.5-1.2,2.9-1.2c0.7,0,1.4,0.1,2.2,0.2v-4H225.9z M221.2,143.8c0.2,0.1,0.5,0.1,0.8,0.1
			c0.3,0,0.7-0.1,1.2-0.2c0.4-0.1,0.8-0.2,1-0.3l0.4-0.2v-6.1c-0.8-0.1-1.5-0.2-2.1-0.2c-0.9,0-1.5,0.3-1.9,0.9
			c-0.4,0.6-0.5,1.5-0.5,2.7c0,1.4,0.2,2.3,0.6,2.8C220.8,143.5,221,143.7,221.2,143.8z"/>
		<path d="M235.3,136.9c-1.3,0-2,0.5-2,1.4c0,0.4,0.1,0.7,0.4,0.9s1,0.4,2.1,0.5c1.1,0.2,1.8,0.4,2.3,0.8c0.4,0.3,0.7,1,0.7,1.9
			c0,0.9-0.3,1.6-0.9,2c-0.6,0.4-1.5,0.6-2.6,0.6c-0.7,0-1.6-0.1-2.6-0.3l-0.5-0.1l0.1-1.2c1.4,0.2,2.4,0.3,3.1,0.3
			c0.7,0,1.2-0.1,1.6-0.3c0.4-0.2,0.5-0.6,0.5-1.1s-0.2-0.9-0.5-1.1c-0.3-0.2-1-0.4-2.1-0.5c-1.1-0.2-1.8-0.4-2.2-0.7
			c-0.4-0.3-0.7-0.9-0.7-1.8s0.3-1.5,0.9-1.9s1.4-0.6,2.3-0.6c0.7,0,1.6,0.1,2.8,0.3l0.5,0.1l0,1.2C237.1,137,236,136.9,235.3,136.9
			z"/>
		<path d="M240.8,148.9v-13h1.3v0.6c0.9-0.6,1.8-0.8,2.7-0.8c1.1,0,2,0.4,2.5,1.1c0.5,0.7,0.8,1.9,0.8,3.6s-0.3,2.9-0.9,3.6
			c-0.6,0.7-1.6,1.1-3,1.1c-0.7,0-1.4-0.1-2-0.2v4H240.8z M244.6,136.9c-0.4,0-0.7,0.1-1.2,0.2c-0.4,0.1-0.7,0.2-1,0.4l-0.3,0.2v6.1
			c0.9,0.1,1.5,0.2,1.9,0.2c1,0,1.7-0.3,2-0.8s0.6-1.5,0.6-2.7s-0.2-2.1-0.5-2.7C245.8,137.2,245.3,136.9,244.6,136.9z"/>
		<path d="M256.4,143.8l0.5-0.1l0,1.1c-1.4,0.2-2.5,0.3-3.5,0.3c-1.3,0-2.2-0.4-2.8-1.1s-0.8-1.9-0.8-3.5c0-3.2,1.3-4.7,3.8-4.7
			c1.2,0,2.1,0.3,2.7,1c0.6,0.7,0.9,1.7,0.9,3.2l-0.1,1h-5.9c0,1,0.2,1.7,0.5,2.2s1,0.7,1.9,0.7S255.5,143.9,256.4,143.8z
			 M255.9,139.9c0-1.1-0.2-1.9-0.5-2.3s-0.9-0.7-1.7-0.7s-1.4,0.2-1.8,0.7c-0.4,0.5-0.6,1.2-0.6,2.3H255.9z"/>
		<path d="M262.7,135.7c0.4,0,1.1,0.1,2,0.2l0.4,0.1l-0.1,1.1c-1-0.1-1.7-0.2-2.1-0.2c-1,0-1.7,0.2-2.1,0.7
			c-0.4,0.5-0.5,1.4-0.5,2.7s0.2,2.2,0.5,2.7c0.3,0.5,1.1,0.8,2.1,0.8l2.1-0.2l0.1,1.1c-1.1,0.2-2,0.3-2.5,0.3
			c-1.4,0-2.4-0.4-2.9-1.1c-0.5-0.7-0.8-1.9-0.8-3.6s0.3-2.9,0.9-3.6C260.4,136.1,261.4,135.7,262.7,135.7z"/>
		<path d="M270.1,136.9c-1.3,0-2,0.5-2,1.4c0,0.4,0.1,0.7,0.4,0.9s1,0.4,2.1,0.5c1.1,0.2,1.8,0.4,2.3,0.8c0.4,0.3,0.7,1,0.7,1.9
			c0,0.9-0.3,1.6-0.9,2c-0.6,0.4-1.5,0.6-2.6,0.6c-0.7,0-1.6-0.1-2.6-0.3l-0.5-0.1l0.1-1.2c1.4,0.2,2.4,0.3,3.1,0.3
			c0.7,0,1.2-0.1,1.6-0.3c0.4-0.2,0.5-0.6,0.5-1.1s-0.2-0.9-0.5-1.1c-0.3-0.2-1-0.4-2.1-0.5c-1.1-0.2-1.8-0.4-2.2-0.7
			c-0.4-0.3-0.7-0.9-0.7-1.8s0.3-1.5,0.9-1.9s1.4-0.6,2.3-0.6c0.7,0,1.6,0.1,2.8,0.3l0.5,0.1l0,1.2
			C271.9,137,270.8,136.9,270.1,136.9z"/>
		<path d="M281.3,137.1v7.8h-1.4v-7.8h-1.1v-1.2h1.1v-0.8c0-1.3,0.2-2.1,0.5-2.6c0.4-0.5,1-0.7,1.9-0.7l1.8,0.1l0,1.1
			c-0.7,0-1.2,0-1.7,0s-0.8,0.1-0.9,0.4c-0.2,0.3-0.3,0.8-0.3,1.7v0.8h2.6v1.2H281.3z"/>
		<path d="M285,140.4c0-1.6,0.3-2.8,0.9-3.6c0.6-0.7,1.6-1.1,3-1.1c1.4,0,2.4,0.4,3,1.1s0.9,1.9,0.9,3.6s-0.3,2.8-0.8,3.6
			c-0.6,0.7-1.6,1.1-3,1.1c-1.5,0-2.5-0.4-3-1.1C285.2,143.2,285,142,285,140.4z M286.3,140.4c0,1.3,0.2,2.2,0.5,2.8
			c0.3,0.5,1,0.8,2,0.8c1,0,1.7-0.3,2-0.8s0.5-1.4,0.5-2.8c0-1.3-0.2-2.2-0.5-2.7c-0.3-0.5-1-0.7-1.9-0.7c-0.9,0-1.6,0.2-1.9,0.7
			C286.5,138.2,286.3,139.1,286.3,140.4z"/>
		<path d="M294.9,144.9v-9h1.3v1.2c1-0.7,2.1-1.2,3.3-1.4v1.4c-0.5,0.1-1,0.2-1.6,0.5c-0.5,0.2-1,0.4-1.3,0.5l-0.5,0.2v6.6H294.9z"
			/>
		<path d="M304.7,140.4c0-1.6,0.3-2.8,0.9-3.6c0.6-0.7,1.6-1.1,3-1.1c1.4,0,2.4,0.4,3,1.1s0.9,1.9,0.9,3.6s-0.3,2.8-0.8,3.6
			c-0.6,0.7-1.6,1.1-3,1.1c-1.5,0-2.5-0.4-3-1.1C304.9,143.2,304.7,142,304.7,140.4z M306,140.4c0,1.3,0.2,2.2,0.5,2.8
			c0.3,0.5,1,0.8,2,0.8c1,0,1.7-0.3,2-0.8s0.5-1.4,0.5-2.8c0-1.3-0.2-2.2-0.5-2.7c-0.3-0.5-1-0.7-1.9-0.7c-0.9,0-1.6,0.2-1.9,0.7
			C306.2,138.2,306,139.1,306,140.4z"/>
		<path d="M320.2,135.9h1.4v9h-1.4v-0.6c-0.9,0.5-1.8,0.8-2.7,0.8c-1.2,0-2-0.3-2.4-1c-0.4-0.6-0.6-1.8-0.6-3.5v-4.7h1.4v4.7
			c0,1.3,0.1,2.2,0.3,2.6s0.7,0.7,1.5,0.7c0.4,0,0.8-0.1,1.2-0.2c0.4-0.1,0.7-0.2,0.9-0.3l0.3-0.2V135.9z"/>
		<path d="M324.1,144.9v-9h1.3v1.2c1-0.7,2.1-1.2,3.3-1.4v1.4c-0.5,0.1-1,0.2-1.6,0.5c-0.5,0.2-1,0.4-1.3,0.5l-0.5,0.2v6.6H324.1z"
			/>
		<path d="M339,137.1h-2.9v4.3c0,1,0.1,1.7,0.2,2c0.1,0.3,0.5,0.5,1.1,0.5l1.6-0.1l0.1,1.1c-0.8,0.1-1.4,0.2-1.8,0.2
			c-0.9,0-1.6-0.2-1.9-0.7c-0.4-0.5-0.5-1.3-0.5-2.6v-4.7h-1.3v-1.2h1.3v-2.8h1.3v2.8h2.9V137.1z"/>
		<path d="M346.7,143.8l0.5-0.1l0,1.1c-1.4,0.2-2.5,0.3-3.5,0.3c-1.3,0-2.2-0.4-2.8-1.1s-0.8-1.9-0.8-3.5c0-3.2,1.3-4.7,3.8-4.7
			c1.2,0,2.1,0.3,2.7,1c0.6,0.7,0.9,1.7,0.9,3.2l-0.1,1h-5.9c0,1,0.2,1.7,0.5,2.2s1,0.7,1.9,0.7S345.8,143.9,346.7,143.8z
			 M346.3,139.9c0-1.1-0.2-1.9-0.5-2.3s-0.9-0.7-1.7-0.7s-1.4,0.2-1.8,0.7c-0.4,0.5-0.6,1.2-0.6,2.3H346.3z"/>
		<path d="M352.5,136.9c-1.3,0-2,0.5-2,1.4c0,0.4,0.1,0.7,0.4,0.9s1,0.4,2.1,0.5c1.1,0.2,1.8,0.4,2.3,0.8c0.4,0.3,0.7,1,0.7,1.9
			c0,0.9-0.3,1.6-0.9,2c-0.6,0.4-1.5,0.6-2.6,0.6c-0.7,0-1.6-0.1-2.6-0.3l-0.5-0.1l0.1-1.2c1.4,0.2,2.4,0.3,3.1,0.3
			c0.7,0,1.2-0.1,1.6-0.3c0.4-0.2,0.5-0.6,0.5-1.1s-0.2-0.9-0.5-1.1c-0.3-0.2-1-0.4-2.1-0.5c-1.1-0.2-1.8-0.4-2.2-0.7
			c-0.4-0.3-0.7-0.9-0.7-1.8s0.3-1.5,0.9-1.9s1.4-0.6,2.3-0.6c0.7,0,1.6,0.1,2.8,0.3l0.5,0.1l0,1.2
			C354.4,137,353.3,136.9,352.5,136.9z"/>
		<path d="M362.7,137.1h-2.9v4.3c0,1,0.1,1.7,0.2,2c0.1,0.3,0.5,0.5,1.1,0.5l1.6-0.1l0.1,1.1c-0.8,0.1-1.4,0.2-1.8,0.2
			c-0.9,0-1.6-0.2-1.9-0.7c-0.4-0.5-0.5-1.3-0.5-2.6v-4.7h-1.3v-1.2h1.3v-2.8h1.3v2.8h2.9V137.1z"/>
		<path d="M365.7,144.9h-1.4v-9h1.3v0.6c1-0.5,1.9-0.8,2.8-0.8c1.2,0,2,0.3,2.4,1s0.6,1.8,0.6,3.5v4.8h-1.3v-4.7
			c0-1.2-0.1-2.1-0.4-2.6s-0.8-0.7-1.6-0.7c-0.4,0-0.8,0.1-1.2,0.2c-0.4,0.1-0.8,0.2-1,0.3l-0.3,0.2V144.9z"/>
		<path d="M380.2,143.8l0.5-0.1l0,1.1c-1.4,0.2-2.5,0.3-3.5,0.3c-1.3,0-2.2-0.4-2.8-1.1s-0.8-1.9-0.8-3.5c0-3.2,1.3-4.7,3.8-4.7
			c1.2,0,2.1,0.3,2.7,1c0.6,0.7,0.9,1.7,0.9,3.2l-0.1,1H375c0,1,0.2,1.7,0.5,2.2s1,0.7,1.9,0.7S379.3,143.9,380.2,143.8z
			 M379.7,139.9c0-1.1-0.2-1.9-0.5-2.3s-0.9-0.7-1.7-0.7s-1.4,0.2-1.8,0.7c-0.4,0.5-0.6,1.2-0.6,2.3H379.7z"/>
		<path d="M387.8,137.1h-2.9v4.3c0,1,0.1,1.7,0.2,2c0.1,0.3,0.5,0.5,1.1,0.5l1.6-0.1l0.1,1.1c-0.8,0.1-1.4,0.2-1.8,0.2
			c-0.9,0-1.6-0.2-1.9-0.7c-0.4-0.5-0.5-1.3-0.5-2.6v-4.7h-1.3v-1.2h1.3v-2.8h1.3v2.8h2.9V137.1z"/>
		<path d="M392.2,136.9c-1.3,0-2,0.5-2,1.4c0,0.4,0.1,0.7,0.4,0.9s1,0.4,2.1,0.5c1.1,0.2,1.8,0.4,2.3,0.8c0.4,0.3,0.7,1,0.7,1.9
			c0,0.9-0.3,1.6-0.9,2c-0.6,0.4-1.5,0.6-2.6,0.6c-0.7,0-1.6-0.1-2.6-0.3l-0.5-0.1l0.1-1.2c1.4,0.2,2.4,0.3,3.1,0.3
			c0.7,0,1.2-0.1,1.6-0.3c0.4-0.2,0.5-0.6,0.5-1.1s-0.2-0.9-0.5-1.1c-0.3-0.2-1-0.4-2.1-0.5c-1.1-0.2-1.8-0.4-2.2-0.7
			c-0.4-0.3-0.7-0.9-0.7-1.8s0.3-1.5,0.9-1.9s1.4-0.6,2.3-0.6c0.7,0,1.6,0.1,2.8,0.3l0.5,0.1l0,1.2C394.1,137,393,136.9,392.2,136.9
			z"/>
	</g>
	<g>
		<path d="M67.8,87.9v12.7h-3.7V67.4h12.3c3.5,0,6.2,0.8,7.9,2.4c1.8,1.6,2.7,4.2,2.7,7.6c0,5.1-2,8.3-6.1,9.6l6.4,13.5h-4.1
			l-6-12.7H67.8z M76.4,84.6c4.5,0,6.8-2.3,6.8-7s-2.3-7-6.8-7h-8.6v14H76.4z"/>
		<path d="M108.9,97.6l1.4-0.1l0.1,2.8c-3.6,0.5-6.8,0.8-9.4,0.8c-3.5,0-5.9-1-7.3-3c-1.4-2-2.2-5.1-2.2-9.3c0-8.4,3.3-12.6,10-12.6
			c3.2,0,5.6,0.9,7.2,2.7c1.6,1.8,2.4,4.6,2.4,8.5l-0.2,2.7H95.2c0,2.7,0.5,4.6,1.4,5.9c1,1.3,2.6,1.9,5,1.9
			C104,97.9,106.4,97.8,108.9,97.6z M107.6,87.2c0-2.9-0.5-5-1.4-6.2c-0.9-1.2-2.5-1.8-4.6-1.8c-2.1,0-3.7,0.6-4.8,1.9
			c-1.1,1.3-1.6,3.3-1.7,6.1H107.6z"/>
		<path d="M117.1,100.6V66.1h3.6v34.5H117.1z"/>
		<path d="M144.2,97.6l1.4-0.1l0.1,2.8c-3.6,0.5-6.8,0.8-9.4,0.8c-3.5,0-5.9-1-7.3-3c-1.4-2-2.2-5.1-2.2-9.3c0-8.4,3.3-12.6,10-12.6
			c3.2,0,5.6,0.9,7.2,2.7c1.6,1.8,2.4,4.6,2.4,8.5l-0.2,2.7h-15.8c0,2.7,0.5,4.6,1.4,5.9c1,1.3,2.6,1.9,5,1.9S141.8,97.8,144.2,97.6
			z M142.9,87.2c0-2.9-0.5-5-1.4-6.2c-0.9-1.2-2.5-1.8-4.6-1.8s-3.7,0.6-4.8,1.9c-1.1,1.3-1.6,3.3-1.7,6.1H142.9z"/>
		<path d="M169.1,83.9v12.3c0.1,1.2,1,1.9,2.8,2.1l-0.1,2.8c-2.5,0-4.4-0.6-5.7-1.9c-2.9,1.3-5.8,1.9-8.6,1.9c-2.2,0-3.9-0.6-5-1.9
			c-1.2-1.2-1.7-3-1.7-5.4s0.6-4.1,1.8-5.2c1.2-1.1,3-1.8,5.6-2l7.5-0.7v-2.1c0-1.6-0.4-2.8-1.1-3.5c-0.7-0.7-1.7-1.1-2.9-1.1
			c-2.6,0-5.2,0.2-8,0.5l-1.5,0.1l-0.1-2.7c3.5-0.7,6.6-1.1,9.4-1.1c2.7,0,4.7,0.6,5.9,1.9C168.5,79.2,169.1,81.2,169.1,83.9z
			 M154.3,93.6c0,2.9,1.2,4.4,3.6,4.4c2.2,0,4.3-0.4,6.4-1.1l1.1-0.4v-7.9l-7.1,0.7c-1.4,0.1-2.5,0.5-3.1,1.2
			C154.6,91.3,154.3,92.3,154.3,93.6z"/>
		<path d="M183.7,79.3c-3.5,0-5.2,1.2-5.2,3.6c0,1.1,0.4,1.9,1.2,2.4c0.8,0.5,2.6,0.9,5.5,1.4c2.8,0.5,4.9,1.2,6,2.1
			c1.2,0.9,1.8,2.6,1.8,5c0,2.5-0.8,4.3-2.4,5.4s-3.9,1.7-6.9,1.7c-2,0-4.3-0.2-7-0.7l-1.4-0.2l0.2-3.1c3.6,0.5,6.4,0.8,8.3,0.8
			c1.9,0,3.3-0.3,4.2-0.9c1-0.6,1.5-1.6,1.5-3c0-1.4-0.4-2.3-1.2-2.8s-2.7-1-5.5-1.4c-2.8-0.4-4.8-1.1-6-2c-1.2-0.9-1.8-2.5-1.8-4.8
			c0-2.3,0.8-4.1,2.5-5.2s3.7-1.7,6.2-1.7c2,0,4.4,0.2,7.3,0.7l1.3,0.2l-0.1,3.1C188.6,79.6,185.8,79.3,183.7,79.3z"/>
		<path d="M214.8,97.6l1.4-0.1l0.1,2.8c-3.6,0.5-6.8,0.8-9.4,0.8c-3.5,0-5.9-1-7.3-3c-1.4-2-2.2-5.1-2.2-9.3c0-8.4,3.3-12.6,10-12.6
			c3.2,0,5.6,0.9,7.2,2.7c1.6,1.8,2.4,4.6,2.4,8.5l-0.2,2.7h-15.8c0,2.7,0.5,4.6,1.4,5.9c1,1.3,2.6,1.9,5,1.9
			C210,97.9,212.4,97.8,214.8,97.6z M213.5,87.2c0-2.9-0.5-5-1.4-6.2c-0.9-1.2-2.5-1.8-4.6-1.8c-2.1,0-3.7,0.6-4.8,1.9
			c-1.1,1.3-1.6,3.3-1.7,6.1H213.5z"/>
	</g>
</g>
<g id="Layer_2">
</g>
<g id="Layer_3">
</g>
<g id="Layer_1">
	<g>
		<g>
			<g>
				<g>
					<g>
						<path d="M727.2,129.3c-0.9,0.2-2.6,1-3.5,1.2c0,0.8,0,0.4,0,1.1c1.2,1.6,1.2,1.6,2.2,3.2c2.7,4.5,6.4,7.8,9.1,12.3
							c0.8,1.3,2.8,3.8,3.2,5.3c0.3,1.2,0.3,2.4,0.4,3.7c0.3,17.2,0.6,34.4,0.9,51.6c0,1,0,2-0.3,3c-0.8,2.1-5.3,3-7.4,3.6
							c-13.4,4.1-27.9,4.8-41.6,2c-2.7-0.5-6.5-1.2-8.2-3.4c-2.1-2.6-2.3-6.4-2.6-9.7c-0.8-8.8-0.3-12.9-0.8-21.2
							c-0.2-3.9-0.6-4.6-0.6-9.4c0-2.8,0.1-4.9,0.1-7.8c0.1-3,0.1-6.4,0.2-9.4c0.1-4.3,3.9-7.9,6.5-11.2c2.3-2.9,4.6-5.7,6.9-8.6
							c1.4-1.8,1.4-1.8,3.4-3.9c-0.1-0.8,0.2-0.8,0.2-1.6c-1.5-0.1-1.2-0.7-2.7-0.8c-0.5-4.7-0.7-9.2-0.3-14.4c0.1-1,0-3.7,0.8-4.5
							c0.5-0.5,4.1-2.5,4.8-2.8c6.3-2.2,20.8-1.8,26.8,1.9c2.5,1.5,2.6,5.9,3.1,8.6C727.7,119.2,728.1,129,727.2,129.3z"/>
						<path class="st0" d="M701.3,125.8c0,0.3,0,0.6,0.1,0.9c0.2,0.3,0.6,0.5,1,0.6c1.8,0.6,3.7,0.5,5.6,0.4
							c0.2-4.3,0.1-8.6-0.2-12.9c-3.1-0.5-5.3-1.8-5.8,1.7C701.5,119.5,701.3,122.7,701.3,125.8z"/>
						<path class="st0" d="M711,123.9c-0.1,1.4-0.4,2.9,0.4,4.1c1.8,0,3.6-0.1,5.3-0.3c0.2-1.3,0-2.6-0.2-3.9
							c-0.5-2.9-1.1-5.8-1.7-8.7c-2.9-0.2-4-0.6-3.8,2.3C711.1,119.6,711.2,121.7,711,123.9z"/>
						<path class="st0" d="M719.8,124.3c0,1.1,0.1,2.5,1.2,2.8c0.9,0.2,1.9-0.4,2.7-0.4c-0.2-3.7-0.7-6.8-1.9-10.6
							c-0.3-1.1-0.9-1.6-2-1.1c-1.3,0.5-0.6,0.9-0.7,2C719,119.4,719.9,121.9,719.8,124.3z"/>
						<path class="st0" d="M698.4,120.4c0.2,2.4-0.1,4.5,0.1,6.6c-0.6-0.2-1.2-0.4-1.9-0.5c-0.1-1.5-0.1-3-0.2-4.6
							c0-0.9-0.1-1.7,0-2.6c0.1-1.6-0.5-5.7,0.9-5.5c0.5,0,1.4,0.3,1.5,1.1C699,116.6,698.3,119.3,698.4,120.4z"/>
						<path class="st0" d="M701.3,129.3c-1-0.1-1,0-1.2,0.9c-0.1,0.5-0.3,0.9,0.2,1.2c0.5,0.3,1.3,0.6,1.8,0.6
							c4.8,0.4,9.7,0.4,14.5,0.3c0.8,0,2.1-0.5,3-0.7c0.7-0.2,0.7-2-0.3-1.9c-1.8,0.1-3.7,0.5-5.5,0.5
							C709.9,130.4,705.1,129.9,701.3,129.3z"/>
						<path class="st0" d="M714.5,135.3c1.4-0.2,3.1,0.1,4.4,0.7c1.4,0.7,4.9,4.8,6.2,7.7c1.9,4.4,2.6,5.4,4.7,9.5
							c0.4,0.8,1.4,1.2,1.6,2c0.2,0.7-0.2,1.5-0.1,2.2c0.6,7.5,1.4,14.1,1.4,21.1c0,3.8-0.4,7.9-0.5,11.7c-0.1,5.8,0,8.2-0.4,13.8
							c0,0.5-0.6,1.2-0.8,1.7c-0.3,0.7-1.2,0.9-1.9,1.1c-13,2.9-26.6,3.5-39.9,1.7c-0.8-0.1-1.7-0.3-2.2-0.9
							c-0.4-0.5-0.5-1.3-0.5-1.9c-0.5-8.3-1-16.5-1.5-24.8c-0.1-2-0.2-4.1-0.1-6.2c0.2-4.1,0.5-6.8,0-10.9c-0.3-2.7-0.3-6.9,0.5-9.5
							c0.5-1.7,1.8-3.1,3-4.5c2-2.4,2.3-2.6,3.9-5.3c1-1.7,7-5.6,8.9-6.6c1.7-0.9,6.8-2.2,8.7-2.2
							C713.6,135.7,711,135.8,714.5,135.3z"/>
					</g>
					<path class="st1" d="M694.7,158.3c-0.8-0.1-1.7-0.3-2.3,0.2c-0.7,0.6-0.7,1.6-0.6,2.5c1.2,16.5-2.2,22.6,0.9,38.9
						c12.3,1.2,24.9,0.8,37.1-1.3c0.6-0.1,1.3-0.2,1.6-0.7c0.3-0.4,0.4-0.9,0.4-1.4c0.8-9.6,0.2-9.4,0.6-19c0.2-5.5,1.3-10,0.7-15.5
						c-0.7-5.7-0.8-9.3-6.8-7.1C715.9,158.5,705.6,160.4,694.7,158.3z"/>
				</g>
				<path class="st0" d="M715.3,113c0.6-0.1,1.1-0.1,1.6-0.4c0.5-0.3,0.8-0.9,0.7-1.4c-3.2-0.7-6.5-1.1-9.8-1.2
					c-1.2,0-8.6-0.4-9.1,0.9C697.8,113.2,713.4,113.2,715.3,113z"/>
				<path class="st1" d="M717.2,113c0.4-0.1,1.2,0,1.5-0.3c0.4-0.3,0.6-1,0.2-1.6c-2.4-0.7-4.9-1.1-7.3-1.2c-0.9,0-6.5-0.4-6.8,0.9
					C704.1,113.2,715.8,113.2,717.2,113z"/>
				<path class="st1" d="M717.5,137.6c0.4,0,0.8-0.1,1.2,0.2c0.2,0.1,0.3,0.3,0.4,0.5c1.2,2.1,1.9,4.5,2.7,6.8
					c0.6,1.9,1.3,3.8,1.9,5.7c0.1,0.3,0.2,0.7,0,1c-0.1,0.2-0.4,0.3-0.6,0.4c-2.7,1.2-7.1,1.9-10.1,2.2c-0.8-1.9-0.5-3.6-0.8-5.7
					c-0.5-3.2-1.4-6.5-1.5-9.4C710.6,138,715.3,137.8,717.5,137.6z"/>
			</g>
			<g>
				<path d="M704.2,169.5c3.8,0.9,7.8,0.7,11.6,0.5c3.4-0.2,7-0.1,10.1-1.5c0.4-0.2,0.2-0.7-0.1-0.8c-3.5-0.9-7.3-0.2-10.9,0.1
					c-3.6,0.2-7.3,0.3-10.8,1.3C704,169.2,704,169.5,704.2,169.5L704.2,169.5z"/>
			</g>
			<g>
				<path d="M704.8,186.8c6.2,1.8,15.3-0.1,21.3-1.7c1.2-0.3,1-2.3-0.3-2.2c-4.1,0.4-8.1,1.1-12.2,1.5c-3,0.4-6.5,0.3-9.1,1.3
					c-0.1,0,0,0.6,0.1,0.6L704.8,186.8z"/>
			</g>
		</g>
		<path class="st1" d="M726.5,193.5c0.2,3.9,0,7.9-0.7,11.8c-2.6,0.6-5.1,1.2-7.7,1.8c-1.2-3.8-1.6-7.9-1.1-11.9
			C718,194.9,726.4,192.2,726.5,193.5z"/>
	</g>
	<g>
		<path d="M510.2,250c0.9,2.3,3.3,4.8,5.8,5.1c42.4,5.7,48.8,6.6,91.2,12.4c20,2.7,17.7,1.8,39.6-0.2c0-1.1-1.2-1.6-2.1-2
			c-4.5-2.4-4.1-2.9-8.9-4.7c-4.1-1.5-7.5-2.4-11.7-3.6c-5.8-1.6-5.5-1.6-11.4-2.7c-41.9-8-26-6.5-69.5-13.3
			c-8.5-1.3-21.1-4.3-29.8-2.2C508.5,239.8,508.5,245.7,510.2,250z"/>
		<path class="st1" d="M630.9,264.8c-13-0.2-8.9,0.8-20.4-1.2c-46.2-8.2-37.7-4.9-84.2-10.8c-2.5-0.3-5.8-1-8-2.2
			c-4-2.1-5.4-5.9-0.6-7.7c3.5-1.4,10.3,0.9,13.9,1.5c13.6,2,27.2,4.1,40.8,6.4c27.3,4.5,11,2.6,38.1,8.1
			C625.7,261.9,616.9,260.8,630.9,264.8z"/>
	</g>
	<g>
		<path d="M668.2,141.3c1.9,4.2,4.1,11.5,5.2,15.9c3.9,15.6,8.5,27.1,12.4,42.7c2,8.2,4.1,16.4,5.9,24.6c0.9,4.1,1.7,8.1,2.6,12.2
			c0.2,1,0.4,2.2-0.2,3c-0.5,0.7-1.3,1-2.2,1.3c-24.6,7.8-51.1,6.4-76.9,4.9c-9-0.5-18.8-1.4-25.3-7.6c-1.3-1.3-2.6-2.9-2.7-4.7
			c-0.1-1.1,0.1-2.2,0.4-3.2c1.7-7.2,3.3-14.3,5-21.5c3.3-14.3,6.7-28.5,10.8-42.6c3.5-11.8,7.6-23.4,12-34.8
			c1.4-3.6,2.9-7.4,3-11.3c0.2-6.8-1.6-13.7,0.3-20.3c0.8-2.8,0-3.5-2.3-5.4c-1-0.8-4-2-4.6-2.7c-1.4-1.5-1.6-8.4,0.2-9.5
			c1.7-1.1,6.3-3.3,8.3-3.7c7.7-1.6,15.1-2,21.9-1.8c6,0.2,12.5,1.2,17.7,2.8c2.1,0.6,4.7,2.4,6.4,3.8c1.7,1.4,1.6,7.3-0.4,8.3
			c-1.4,0.7-4,0.8-4.8,2.2c-0.4,0.6-0.8,2.7-0.7,3.4c0.2,8.5,0.2,14.7,0.6,23.2C661.2,128.2,665.2,134.4,668.2,141.3z"/>
		<path class="st0" d="M675,195.7c1.4,5.1,2.8,11.4,3.9,16.5c1.2,5.5,1.7,11.8,2.2,17.4c0.1,0.9,0.1,1.9-0.4,2.6
			c-0.5,0.8-1.4,1.1-2.3,1.3c-4.5,1.2-9,2.9-13.6,2.9c-5.4,0.1-12.1,0.6-17.5,0.7c-14.8,0.2-22.9-0.3-37.3-3.9
			c-0.8-0.2-1.5-0.4-2.1-0.9c-1-0.9-1.2-2.4-1.2-3.8c-0.3-26.8,9.8-52.6,13.4-79.2c0.6-4.5,1.5-14.4,3.8-18.4
			c1.6-2.6,9.5-2.5,17.2-1.7c3.4,0.4,8.5,0.3,11.6,1.7c2.8,1.3,3.5,2.2,4.6,5c2.7,7.4,5,13.3,6.3,20.4
			C666.4,170.3,670.9,180.7,675,195.7z"/>
		<path class="st1" d="M648.7,224.7c0.8,1.3,2.2,2.1,3.7,2.4c1.5,0.3,3,0.2,4.5,0.1c3-0.2,6.1-0.3,9.1-0.8c0.9-4-2.1-5-5.4-4.8
			C659.4,221.7,648.1,223.7,648.7,224.7z"/>
		<path class="st1" d="M646.6,205c-0.3-1.8,0-4.8-0.5-6.5c-0.9-3-3.6-29.1-4-32.2c-0.2-1.9-3.6-22.7-0.8-23.8
			c0.9-0.4,1.9-0.5,2.9-0.5l7.2,0.2c2.1,4.2,10.6,50.4,10.7,55.1c0.1,3,0.9,5.8,1.2,8.8c0.2,2,0.6,3.8,0.4,6.1
			c-0.1,1.2-0.1,2.3-1.3,2.5c-3.6,0.7-10.3,2.4-12.4,1C646.4,213.5,647.1,208.6,646.6,205z"/>
		<path class="st0" d="M639.6,121.2c-0.4-0.1-0.9-0.2-1.3-0.6c-0.2-0.3-0.4-0.6-0.5-1c-1-2.4-0.1-5-0.4-7.7c-0.5-4.5-0.3-9.7,1-14
			c0.2-0.6-0.3-1.3,0.1-1.6c0.3-0.2,0.7-0.3,1.1-0.3c4.3-0.2,6.8,0,11,0.7c0.3,0,0.6,0.1,0.8,0.3c0.6,0.5,0.5,1.6,0.3,2.5
			c-1.3,6.7-1.3,14.3-1.3,21.1c0,3.5-1.8,2.6-4,2.2C643.5,122.4,642.4,121.8,639.6,121.2z"/>
		<path class="st1" d="M642.6,122.2c2.7,1.4,5.7,1.9,8.5,1.3c0.5-0.1,1-0.2,1.3-0.7c0.3-0.3,0.4-0.8,0.5-1.2c1-4.9,1.4-10,1.1-15
			c-0.1-1.6-0.2-3.2-0.1-4.8c0.1-1,0.3-1.9,0.3-2.9c0-1-0.4-2-1.2-2.4c-0.3-0.2-0.7-0.2-1.1-0.2c-2.2-0.1-6.1-1.2-8.2-0.3
			c-2,0.8-1.5,4.6-1.6,7.1c-0.1,3.2-0.2,6.4-0.1,9.6C642.1,113.8,641.8,121.7,642.6,122.2z"/>
		<path class="st1" d="M617.5,84.5c8.5-2.9,17.9-2.2,26.9-1.3c0.7,0.1,1.5,0.3,1.6,1c-1,0.5-2.4,0.2-3.1,1.1
			c-0.3,0.4-0.3,0.9-0.6,1.4c-0.6,1.3-2.3,1.5-3.8,1.5c-3.9,0-7.7-0.1-11.5-0.6C623.7,87.2,619.9,87.3,617.5,84.5z"/>
		<path class="st0" d="M615.2,86.2c-0.2,1.1,0.4,2.3,1.3,2.9c0.6,0.4,1.3,0.5,1.9,0.6c13.6,2.6,27.6,3,41.2,0.4
			c1.2-0.2,2.6-0.5,3.5-1.4c0.9-0.9,1.2-2.6,0.2-3.4c-0.8-0.6-1.9-0.5-2.8-0.3c-8,1.3-16.1,1.8-24.2,1.4c-4.1-0.2-8.2-0.6-12.3-1.2
			C621.5,84.9,615.8,82.4,615.2,86.2z"/>
	</g>
	<path class="st1" d="M646.8,88.7c0.1,0.4,0.1,0.7,0.3,1.1c0.1,0.4,0.7,0.5,1.1,0.6c0.4,0.1,0.8,0,1.2-0.1c2.1-0.4,3.8-0.6,5.9-0.9
		c0.4-0.1,0.8-0.1,1.2-0.3c0.2-0.1,0.4-0.1,0.4-0.6c0-0.6,0-1.2,0-1.8c0-0.2,0-0.5-0.2-0.7c-0.1-0.2-0.4-0.2-0.6-0.2
		c-2.2-0.4-4.4-0.4-6.6-0.1c-0.8,0.1-2.2,0.1-2.5,0.8C646.7,87.1,646.5,87.7,646.8,88.7z"/>
	<g>
		<path d="M519.2,255.4c2-5.2,2.3-10.8,7.3-14.3c1.5-1.1-0.1-3.4-1.7-2.4c-4.7,2.9-8.7,11.4-6,16.6
			C518.9,255.6,519.2,255.6,519.2,255.4L519.2,255.4z"/>
	</g>
	<g>
		<path d="M525,250c0.9-1.1,1.5-2.4,2.4-3.5c1-1.2,2.2-2,3.4-3.1c0.8-0.7,0.3-2.3-0.9-1.8c-2.9,1.1-6,5.1-5.3,8.3
			C524.7,250,525,250.1,525,250L525,250z"/>
	</g>
	<g>
		<path d="M529.3,248.8c1.6-1.2,3.1-2.6,4.8-3.8c1.4-1.1-0.1-3-1.5-1.9c-1.7,1.3-3.2,3.4-3.5,5.5
			C529.1,248.7,529.2,248.9,529.3,248.8L529.3,248.8z"/>
	</g>
	<g>
		<path d="M551,250.9c0.6-0.7,1-1.6,1.7-2.3c0.7-0.7,1.7-1.1,2.4-1.7c0.7-0.6,0.2-2-0.8-1.9c-2.2,0.3-4.7,3.2-4.4,5.5
			C550.1,250.9,550.7,251.3,551,250.9L551,250.9z"/>
	</g>
	<g>
		<path d="M555.5,252.5c1.1-0.6,1.8-1.9,2.7-2.8c0.5-0.5,0.9-1,1.4-1.5c0.5-0.5,1-0.8,1.1-1.5c0.1-0.5-0.2-0.9-0.7-0.9
			c-1.4,0-2.6,1.8-3.3,2.8c-0.8,1.1-1.7,2.5-1.4,3.8C555.3,252.5,555.5,252.5,555.5,252.5L555.5,252.5z"/>
	</g>
	<g>
		<path d="M562.1,259.1c0.8-2.7,1-5.8,2.6-8.2c0.9-1.3,2-1.5,3.1-2.4c0.3-0.3,0.5-0.6,0.6-1.1c0.1-0.5-0.2-1-0.5-1.3
			c-2.1-1.7-5.2,2-6,3.6c-1.6,2.9-1.3,6.3-0.1,9.4C561.8,259.3,562,259.3,562.1,259.1L562.1,259.1z"/>
	</g>
	<g>
		<path d="M568.2,253.3c0.8-0.2,1.2-1.2,1.7-1.7c0.5-0.6,1.3-1.6,2.1-1.8c0.7-0.1,0.8-1,0.4-1.4c-1-1.1-2.6,0.6-3.3,1.4
			c-0.6,0.7-1.6,2.5-1,3.4C568.2,253.3,568.2,253.3,568.2,253.3L568.2,253.3z"/>
	</g>
	<g>
		<path d="M574.5,254c1.6-1.2,2.6-2.8,4.5-3.6c1.5-0.6,0.8-3-0.7-2.4c-2.2,0.9-5,3.3-4.2,5.9C574.3,254.1,574.4,254.1,574.5,254
			L574.5,254z"/>
	</g>
	<g>
		<path d="M593.2,252.6c-1.2,1-2.7,3-2.3,4.6c0.1,0.3,0.5,0.5,0.7,0.3l0,0c1.1-0.8,1.8-2.1,2.9-2.9c0.6-0.4,1.2-0.8,2-1L593.2,252.6
			z"/>
	</g>
	<g>
		<path d="M704.5,177.6c3.6,1.2,7.8,1,11.6,0.7c3.4-0.3,7.3-0.6,10.1-2.4c0.6-0.4,0.4-1.3-0.4-1.3c-3.4-0.2-7.1,1.1-10.5,1.5
			c-3.6,0.3-7.2,0-10.7,0.4C704,176.5,703.8,177.3,704.5,177.6L704.5,177.6z"/>
	</g>
	<path class="st1" d="M712,115c0.1,0,0.3,0,0.4,0.1c0.2,0.1,0.2,0.3,0.3,0.5c0.1,0.6,0.2,1.2,0.2,1.9c0.2,3.2,0.4,6.5,0.6,9.7
		c0,0.2,0,0.5-0.1,0.7c-0.2,0.3-0.6,0.3-0.9,0.2c-0.7-0.1-1.5-0.1-2.2-0.2c0-1.3-0.1-2.5-0.2-3.7c-0.1-1.6,0-3.1,0-4.7
		c0-1.1-0.2-3.2-0.2-3.9C710,114.4,710.8,115,712,115z"/>
	<path class="st1" d="M719.6,115.1c0,0,0.1,1,0.2,1.5c0.7,3.1,1.1,6.3,1.4,9.5c0,0.4,0.1,0.7-0.1,1c-0.3,0.5-1.7,0.7-1.7,0.4
		c0-0.6-0.4-0.7-0.5-1.3c-0.1-0.5-0.4-1.6-0.5-2.2c0-0.6-0.2-1.2-0.2-1.8c0-0.7-0.1-1.5-0.2-2.2c-0.3-1.6-0.7-3.2-0.3-4.9
		C718,115.1,719.3,114.9,719.6,115.1z"/>
	<path class="st1" d="M703.6,114.5c0.7,2.5,0.7,5.2,0.7,7.8c0,1.6,0,3.2,0.1,4.8c0,0.3,0,0.6-0.3,0.8c-0.2,0.1-0.4,0.1-0.6,0
		c-0.8-0.1-1.5-0.2-2.3-0.4c-0.2,0-0.4-0.1-0.5-0.2c-0.2-0.2-0.2-0.5-0.2-0.7c-0.2-2.7-0.2-5.4-0.1-8.2c0-0.9-0.2-3.1,0.4-3.9
		C701.4,113.9,702.8,114.4,703.6,114.5z"/>
</g>
</svg>
