<svg xmlns="http://www.w3.org/2000/svg" viewBox="0 0 882 300"><defs><style>.cls-1{fill:#c4c3c6;}.cls-2{fill:#fff;}</style></defs><title>illustrations</title><g id="Layer_4" data-name="Layer 4"><rect class="cls-1" x="-0.2" y="0.07" width="882" height="209" rx="6"/><path d="M68.39,144.92H61.53V132.47h1.39v11.21h5.47Z"/><path d="M76,143.81l.52-.06,0,1.07a26.05,26.05,0,0,1-3.51.28A3.17,3.17,0,0,1,70.24,144a6,6,0,0,1-.81-3.5c0-3.16,1.26-4.74,3.76-4.74a3.43,3.43,0,0,1,2.72,1,4.74,4.74,0,0,1,.9,3.2l-.07,1H70.8a3.7,3.7,0,0,0,.54,2.22,2.21,2.21,0,0,0,1.88.72C74.12,143.92,75,143.88,76,143.81Zm-.49-3.91a3.88,3.88,0,0,0-.53-2.34,2.06,2.06,0,0,0-1.73-.68,2.22,2.22,0,0,0-1.8.72,3.63,3.63,0,0,0-.62,2.3Z"/><path d="M85.27,138.64v4.61c0,.44.39.71,1,.79l-.06,1.06a2.9,2.9,0,0,1-2.14-.72,7.92,7.92,0,0,1-3.24.72,2.43,2.43,0,0,1-1.89-.7,2.87,2.87,0,0,1-.65-2,2.51,2.51,0,0,1,.67-1.94,3.51,3.51,0,0,1,2.09-.76l2.82-.27v-.78a1.82,1.82,0,0,0-.39-1.31,1.46,1.46,0,0,0-1.08-.4,25.89,25.89,0,0,0-3,.18l-.56.06-.05-1a18.49,18.49,0,0,1,3.51-.4,2.51,2.51,0,0,1,2.91,2.9Zm-5.54,3.67c0,1.11.45,1.66,1.37,1.66a7.44,7.44,0,0,0,2.41-.41l.41-.15v-3l-2.66.25a1.76,1.76,0,0,0-1.17.47A1.67,1.67,0,0,0,79.73,142.31Z"/><path d="M87.94,144.92v-9h1.33v1.23a8.61,8.61,0,0,1,3.29-1.42v1.36a10.45,10.45,0,0,0-1.57.45,11.63,11.63,0,0,0-1.25.54l-.45.24v6.6Z"/><path d="M95.51,144.92H94.16v-9H95.5v.63a5.74,5.74,0,0,1,2.79-.81,2.66,2.66,0,0,1,2.42,1,6.88,6.88,0,0,1,.62,3.45v4.75H100v-4.71a6.19,6.19,0,0,0-.37-2.57,1.63,1.63,0,0,0-1.58-.69,4.83,4.83,0,0,0-1.21.17,6.07,6.07,0,0,0-1,.33l-.35.17Z"/><path d="M114.14,138.64v4.61c0,.44.39.71,1,.79l-.06,1.06a2.91,2.91,0,0,1-2.14-.72,7.92,7.92,0,0,1-3.24.72,2.43,2.43,0,0,1-1.89-.7,2.87,2.87,0,0,1-.65-2,2.55,2.55,0,0,1,.67-1.94,3.51,3.51,0,0,1,2.09-.76l2.82-.27v-.78a1.82,1.82,0,0,0-.39-1.31,1.46,1.46,0,0,0-1.08-.4,25.89,25.89,0,0,0-3,.18l-.56.06,0-1a18.49,18.49,0,0,1,3.51-.4,2.51,2.51,0,0,1,2.91,2.9Zm-5.54,3.67c0,1.11.46,1.66,1.37,1.66a7.44,7.44,0,0,0,2.41-.41l.41-.15v-3l-2.66.25a1.76,1.76,0,0,0-1.17.47A1.67,1.67,0,0,0,108.6,142.31Z"/><path d="M120.79,135.74a2.88,2.88,0,0,1,2.54,1,6.57,6.57,0,0,1,.73,3.63,5.6,5.6,0,0,1-.91,3.64c-.6.7-1.72,1-3.34,1-.5,0-1.33,0-2.5-.14l-.5-.05V132h1.33v4.37A6.29,6.29,0,0,1,120.79,135.74Zm-1,8.16a2.74,2.74,0,0,0,2.33-.8,5,5,0,0,0,.56-2.71,5.73,5.73,0,0,0-.45-2.68,1.71,1.71,0,0,0-1.6-.76,6.16,6.16,0,0,0-2.14.4l-.36.12v6.34C118.92,143.87,119.47,143.9,119.8,143.9Z"/><path d="M125.88,140.41a5.7,5.7,0,0,1,.88-3.57,4.57,4.57,0,0,1,6,0,5.78,5.78,0,0,1,.87,3.57,6.12,6.12,0,0,1-.82,3.58,4.68,4.68,0,0,1-6,0A6.11,6.11,0,0,1,125.88,140.41Zm1.39,0a5.73,5.73,0,0,0,.47,2.76,2.93,2.93,0,0,0,4,0,5.8,5.8,0,0,0,.47-2.76,5.17,5.17,0,0,0-.52-2.73,2.88,2.88,0,0,0-3.88,0A4.92,4.92,0,0,0,127.27,140.38Z"/><path d="M141.4,135.92h1.35v9H141.4v-.63a5.16,5.16,0,0,1-2.67.81,2.67,2.67,0,0,1-2.44-.95,7.22,7.22,0,0,1-.6-3.53v-4.7H137v4.68a6.59,6.59,0,0,0,.34,2.63c.23.45.75.67,1.55.67a4.65,4.65,0,0,0,1.21-.17,5.75,5.75,0,0,0,.93-.34l.33-.16Z"/><path d="M150,137.09h-2.86v4.31a5.81,5.81,0,0,0,.22,2c.15.32.51.49,1.07.49l1.61-.11.08,1.11a11.26,11.26,0,0,1-1.83.2,2.34,2.34,0,0,1-1.94-.68,4.48,4.48,0,0,1-.54-2.61v-4.74h-1.28v-1.17h1.28v-2.75h1.33v2.75H150Z"/><path d="M155.62,148.92v-13H157v.65a5.2,5.2,0,0,1,2.7-.83,2.84,2.84,0,0,1,2.48,1.09,6.35,6.35,0,0,1,.78,3.59A5.63,5.63,0,0,1,162,144a3.73,3.73,0,0,1-3,1.09,9.83,9.83,0,0,1-2-.19v4Zm3.83-12a4.15,4.15,0,0,0-1.16.18,5.78,5.78,0,0,0-1,.36l-.35.18v6.07a13.92,13.92,0,0,0,1.95.19,2.33,2.33,0,0,0,2-.82,4.82,4.82,0,0,0,.59-2.7,5,5,0,0,0-.53-2.67A1.77,1.77,0,0,0,159.45,137Z"/><path d="M165.21,144.92V132h1.35v12.92Z"/><path d="M175.61,138.64v4.61c0,.44.39.71,1,.79l-.06,1.06a2.9,2.9,0,0,1-2.14-.72,7.92,7.92,0,0,1-3.24.72,2.43,2.43,0,0,1-1.89-.7,2.87,2.87,0,0,1-.65-2,2.51,2.51,0,0,1,.67-1.94,3.51,3.51,0,0,1,2.09-.76l2.82-.27v-.78a1.82,1.82,0,0,0-.39-1.31,1.46,1.46,0,0,0-1.08-.4,25.89,25.89,0,0,0-3,.18l-.56.06-.05-1a18.49,18.49,0,0,1,3.51-.4,2.51,2.51,0,0,1,2.91,2.9Zm-5.54,3.67c0,1.11.45,1.66,1.37,1.66a7.44,7.44,0,0,0,2.41-.41l.41-.15v-3l-2.66.25a1.76,1.76,0,0,0-1.17.47A1.67,1.67,0,0,0,170.07,142.31Z"/><path d="M179.63,144.92h-1.35v-9h1.33v.63a5.74,5.74,0,0,1,2.79-.81,2.65,2.65,0,0,1,2.42,1,6.88,6.88,0,0,1,.62,3.45v4.75h-1.33v-4.71a6,6,0,0,0-.37-2.57,1.63,1.63,0,0,0-1.58-.69,4.89,4.89,0,0,0-1.21.17,6.44,6.44,0,0,0-1,.33l-.34.17Z"/><path d="M190.77,137c-1.31,0-2,.46-2,1.37a.94.94,0,0,0,.45.89,7.92,7.92,0,0,0,2.05.54,5.65,5.65,0,0,1,2.27.78,2.27,2.27,0,0,1,.66,1.89,2.34,2.34,0,0,1-.89,2,4.4,4.4,0,0,1-2.6.64,16.11,16.11,0,0,1-2.63-.25l-.54-.09.07-1.17a22.14,22.14,0,0,0,3.1.31,3,3,0,0,0,1.59-.34,1.18,1.18,0,0,0,.55-1.11,1.11,1.11,0,0,0-.47-1.06,6.49,6.49,0,0,0-2-.53,5.58,5.58,0,0,1-2.25-.74,2.12,2.12,0,0,1-.66-1.8,2.18,2.18,0,0,1,.92-1.95,4,4,0,0,1,2.32-.63,18.74,18.74,0,0,1,2.75.26l.5.09,0,1.15A23.77,23.77,0,0,0,190.77,137Z"/><path d="M206.63,138.64v4.61c0,.44.38.71,1,.79l0,1.06a2.92,2.92,0,0,1-2.15-.72,7.92,7.92,0,0,1-3.24.72,2.46,2.46,0,0,1-1.89-.7,2.87,2.87,0,0,1-.64-2,2.54,2.54,0,0,1,.66-1.94,3.53,3.53,0,0,1,2.09-.76l2.83-.27v-.78a1.81,1.81,0,0,0-.4-1.31,1.43,1.43,0,0,0-1.08-.4,25.89,25.89,0,0,0-3,.18l-.56.06-.05-1a18.49,18.49,0,0,1,3.51-.4,3,3,0,0,1,2.22.71A3,3,0,0,1,206.63,138.64Zm-5.55,3.67c0,1.11.46,1.66,1.37,1.66a7.4,7.4,0,0,0,2.41-.41l.42-.15v-3l-2.67.25a1.76,1.76,0,0,0-1.17.47A1.67,1.67,0,0,0,201.08,142.31Z"/><path d="M210.64,144.92h-1.35v-9h1.33v.63a5.74,5.74,0,0,1,2.79-.81,2.65,2.65,0,0,1,2.42,1,6.77,6.77,0,0,1,.62,3.45v4.75h-1.33v-4.71a6,6,0,0,0-.37-2.57,1.61,1.61,0,0,0-1.57-.69,4.9,4.9,0,0,0-1.22.17,6.85,6.85,0,0,0-1,.33l-.34.17Z"/><path d="M225.87,132v12.92h-1.33v-.61a5.49,5.49,0,0,1-2.74.79,4,4,0,0,1-1.26-.18,2.58,2.58,0,0,1-1-.64c-.65-.65-1-1.85-1-3.59a6.44,6.44,0,0,1,.87-3.79,3.4,3.4,0,0,1,2.89-1.16,11.06,11.06,0,0,1,2.22.24v-4Zm-4.68,11.77a2.18,2.18,0,0,0,.84.13,4.71,4.71,0,0,0,1.15-.17,7.56,7.56,0,0,0,1-.34l.36-.16v-6.1a12.16,12.16,0,0,0-2.15-.22,2.06,2.06,0,0,0-1.9.88,5.27,5.27,0,0,0-.54,2.71,4.43,4.43,0,0,0,.63,2.8A1.46,1.46,0,0,0,221.19,143.77Z"/><path d="M235.26,137c-1.3,0-2,.46-2,1.37a.94.94,0,0,0,.45.89,8,8,0,0,0,2.05.54,5.6,5.6,0,0,1,2.27.78,2.24,2.24,0,0,1,.67,1.89,2.37,2.37,0,0,1-.89,2,4.42,4.42,0,0,1-2.6.64,16,16,0,0,1-2.63-.25l-.54-.09.07-1.17a22.14,22.14,0,0,0,3.1.31,3,3,0,0,0,1.59-.34,1.2,1.2,0,0,0,.55-1.11,1.13,1.13,0,0,0-.47-1.06,6.58,6.58,0,0,0-2-.53,5.47,5.47,0,0,1-2.25-.74,2.1,2.1,0,0,1-.67-1.8,2.19,2.19,0,0,1,.93-1.95,4,4,0,0,1,2.31-.63A19,19,0,0,1,238,136l.5.09,0,1.15A23.77,23.77,0,0,0,235.26,137Z"/><path d="M240.81,148.92v-13h1.33v.65a5.2,5.2,0,0,1,2.7-.83,2.84,2.84,0,0,1,2.48,1.09,6.35,6.35,0,0,1,.78,3.59,5.63,5.63,0,0,1-.91,3.59,3.72,3.72,0,0,1-3,1.09,9.67,9.67,0,0,1-2-.19v4Zm3.83-12a4.15,4.15,0,0,0-1.16.18,6.13,6.13,0,0,0-1,.36l-.34.18v6.07a13.81,13.81,0,0,0,1.94.19,2.33,2.33,0,0,0,2-.82,4.74,4.74,0,0,0,.59-2.7,5,5,0,0,0-.53-2.67A1.75,1.75,0,0,0,244.64,137Z"/><path d="M256.41,143.81l.53-.06,0,1.07a26.05,26.05,0,0,1-3.51.28,3.16,3.16,0,0,1-2.75-1.12,6,6,0,0,1-.81-3.5q0-4.74,3.76-4.74a3.44,3.44,0,0,1,2.72,1,4.74,4.74,0,0,1,.9,3.2l-.07,1h-5.94a3.7,3.7,0,0,0,.54,2.22,2.2,2.2,0,0,0,1.88.72C254.58,143.92,255.49,143.88,256.41,143.81Zm-.48-3.91a4,4,0,0,0-.53-2.34,2.08,2.08,0,0,0-1.73-.68,2.21,2.21,0,0,0-1.8.72,3.63,3.63,0,0,0-.62,2.3Z"/><path d="M262.75,135.74a16.56,16.56,0,0,1,2,.22l.43,0-.06,1.1A20.25,20.25,0,0,0,263,137a2.47,2.47,0,0,0-2.08.73,4.7,4.7,0,0,0-.55,2.7,5.28,5.28,0,0,0,.51,2.74,2.42,2.42,0,0,0,2.14.78l2.12-.16.06,1.11a18.14,18.14,0,0,1-2.51.25,3.39,3.39,0,0,1-2.9-1.08,6.22,6.22,0,0,1-.8-3.64,5.69,5.69,0,0,1,.86-3.6A3.57,3.57,0,0,1,262.75,135.74Z"/><path d="M270.06,137c-1.31,0-2,.46-2,1.37a.93.93,0,0,0,.44.89,8,8,0,0,0,2.06.54,5.71,5.71,0,0,1,2.27.78,2.27,2.27,0,0,1,.66,1.89,2.37,2.37,0,0,1-.89,2,4.4,4.4,0,0,1-2.6.64,16,16,0,0,1-2.63-.25l-.54-.09.07-1.17a22.14,22.14,0,0,0,3.1.31,3,3,0,0,0,1.59-.34,1.18,1.18,0,0,0,.55-1.11,1.11,1.11,0,0,0-.47-1.06,6.49,6.49,0,0,0-2-.53,5.58,5.58,0,0,1-2.25-.74,2.12,2.12,0,0,1-.67-1.8,2.19,2.19,0,0,1,.93-1.95,4,4,0,0,1,2.32-.63,18.86,18.86,0,0,1,2.75.26l.5.09,0,1.15A23.91,23.91,0,0,0,270.06,137Z"/><path d="M281.29,137.09v7.83h-1.35v-7.83h-1.13v-1.17h1.13v-.81a4.48,4.48,0,0,1,.54-2.6,2.27,2.27,0,0,1,1.89-.69l1.82.13,0,1.11-1.67,0a1,1,0,0,0-.93.43,3.34,3.34,0,0,0-.28,1.67v.79h2.61v1.17Z"/><path d="M285,140.41a5.77,5.77,0,0,1,.88-3.57,4.57,4.57,0,0,1,6,0,5.77,5.77,0,0,1,.88,3.57,6.11,6.11,0,0,1-.83,3.58,4.68,4.68,0,0,1-6,0A6.11,6.11,0,0,1,285,140.41Zm1.39,0a5.71,5.71,0,0,0,.48,2.76,2.13,2.13,0,0,0,2,.79c1,0,1.68-.26,2-.78a5.8,5.8,0,0,0,.47-2.76,5.07,5.07,0,0,0-.52-2.73,2.88,2.88,0,0,0-3.88,0A4.92,4.92,0,0,0,286.35,140.38Z"/><path d="M294.86,144.92v-9h1.33v1.23a8.71,8.71,0,0,1,3.3-1.42v1.36a10.56,10.56,0,0,0-1.58.45c-.54.21-1,.39-1.25.54l-.45.24v6.6Z"/><path d="M304.65,140.41a5.7,5.7,0,0,1,.89-3.57,4.56,4.56,0,0,1,5.94,0,5.7,5.7,0,0,1,.88,3.57,6.11,6.11,0,0,1-.83,3.58,4.68,4.68,0,0,1-6,0A6.11,6.11,0,0,1,304.65,140.41Zm1.39,0a5.71,5.71,0,0,0,.48,2.76,2.13,2.13,0,0,0,2,.79c1,0,1.68-.26,2-.78a5.68,5.68,0,0,0,.47-2.76,5.07,5.07,0,0,0-.52-2.73,2.88,2.88,0,0,0-3.88,0A5,5,0,0,0,306,140.38Z"/><path d="M320.17,135.92h1.35v9h-1.35v-.63a5.16,5.16,0,0,1-2.66.81,2.66,2.66,0,0,1-2.44-.95,7.08,7.08,0,0,1-.61-3.53v-4.7h1.35v4.68a6.54,6.54,0,0,0,.35,2.63c.22.45.74.67,1.54.67a4.65,4.65,0,0,0,1.21-.17,5.93,5.93,0,0,0,.94-.34l.32-.16Z"/><path d="M324.11,144.92v-9h1.33v1.23a8.65,8.65,0,0,1,3.3-1.42v1.36a10.56,10.56,0,0,0-1.58.45c-.54.21-1,.39-1.25.54l-.45.24v6.6Z"/><path d="M339,137.09H336.1v4.31a5.81,5.81,0,0,0,.22,2c.15.32.51.49,1.08.49l1.6-.11.09,1.11a11.47,11.47,0,0,1-1.84.2,2.37,2.37,0,0,1-1.94-.68,4.48,4.48,0,0,1-.54-2.61v-4.74h-1.28v-1.17h1.28v-2.75h1.33v2.75H339Z"/><path d="M346.74,143.81l.52-.06,0,1.07a25.8,25.8,0,0,1-3.5.28A3.17,3.17,0,0,1,341,144a6,6,0,0,1-.81-3.5q0-4.74,3.76-4.74a3.43,3.43,0,0,1,2.72,1,4.74,4.74,0,0,1,.9,3.2l-.07,1h-5.94a3.7,3.7,0,0,0,.54,2.22,2.21,2.21,0,0,0,1.88.72C344.9,143.92,345.81,143.88,346.74,143.81Zm-.49-3.91a4,4,0,0,0-.53-2.34,2.06,2.06,0,0,0-1.73-.68,2.21,2.21,0,0,0-1.8.72,3.63,3.63,0,0,0-.62,2.3Z"/><path d="M352.53,137c-1.31,0-2,.46-2,1.37a.94.94,0,0,0,.45.89,7.92,7.92,0,0,0,2.05.54,5.6,5.6,0,0,1,2.27.78,2.24,2.24,0,0,1,.67,1.89,2.37,2.37,0,0,1-.89,2,4.43,4.43,0,0,1-2.61.64,15.9,15.9,0,0,1-2.62-.25l-.54-.09.07-1.17a22.17,22.17,0,0,0,3.09.31,3,3,0,0,0,1.6-.34,1.2,1.2,0,0,0,.55-1.11,1.13,1.13,0,0,0-.47-1.06,6.58,6.58,0,0,0-2.05-.53,5.47,5.47,0,0,1-2.25-.74,2.1,2.1,0,0,1-.67-1.8,2.19,2.19,0,0,1,.93-1.95,4,4,0,0,1,2.31-.63,18.74,18.74,0,0,1,2.75.26l.51.09,0,1.15A23.77,23.77,0,0,0,352.53,137Z"/><path d="M362.74,137.09h-2.86v4.31a5.81,5.81,0,0,0,.22,2c.15.32.51.49,1.07.49l1.61-.11.09,1.11a11.47,11.47,0,0,1-1.84.2,2.39,2.39,0,0,1-1.95-.68,4.48,4.48,0,0,1-.54-2.61v-4.74h-1.27v-1.17h1.27v-2.75h1.34v2.75h2.86Z"/><path d="M365.74,144.92h-1.35v-9h1.34v.63a5.74,5.74,0,0,1,2.79-.81,2.66,2.66,0,0,1,2.42,1,6.88,6.88,0,0,1,.62,3.45v4.75h-1.33v-4.71a6.19,6.19,0,0,0-.37-2.57,1.63,1.63,0,0,0-1.58-.69,4.83,4.83,0,0,0-1.21.17,6.07,6.07,0,0,0-1,.33l-.35.17Z"/><path d="M380.18,143.81l.52-.06,0,1.07a26.05,26.05,0,0,1-3.51.28,3.17,3.17,0,0,1-2.76-1.12,6,6,0,0,1-.81-3.5q0-4.74,3.77-4.74a3.42,3.42,0,0,1,2.71,1,4.74,4.74,0,0,1,.9,3.2l-.07,1H375a3.7,3.7,0,0,0,.54,2.22,2.21,2.21,0,0,0,1.88.72C378.35,143.92,379.26,143.88,380.18,143.81Zm-.48-3.91a3.87,3.87,0,0,0-.54-2.34,2.06,2.06,0,0,0-1.72-.68,2.21,2.21,0,0,0-1.8.72,3.63,3.63,0,0,0-.63,2.3Z"/><path d="M387.76,137.09H384.9v4.31a5.81,5.81,0,0,0,.22,2c.15.32.51.49,1.07.49l1.6-.11.09,1.11a11.26,11.26,0,0,1-1.83.2,2.38,2.38,0,0,1-1.95-.68,4.48,4.48,0,0,1-.54-2.61v-4.74h-1.27v-1.17h1.27v-2.75h1.34v2.75h2.86Z"/><path d="M392.24,137c-1.31,0-2,.46-2,1.37a.94.94,0,0,0,.45.89,7.92,7.92,0,0,0,2,.54,5.65,5.65,0,0,1,2.27.78,2.27,2.27,0,0,1,.66,1.89,2.34,2.34,0,0,1-.89,2,4.4,4.4,0,0,1-2.6.64,16.11,16.11,0,0,1-2.63-.25l-.54-.09.08-1.17a22,22,0,0,0,3.09.31,3,3,0,0,0,1.6-.34,1.2,1.2,0,0,0,.55-1.11,1.13,1.13,0,0,0-.47-1.06,6.67,6.67,0,0,0-2.06-.53,5.58,5.58,0,0,1-2.25-.74,2.12,2.12,0,0,1-.66-1.8,2.19,2.19,0,0,1,.93-1.95,4,4,0,0,1,2.31-.63,18.74,18.74,0,0,1,2.75.26l.51.09,0,1.15A23.77,23.77,0,0,0,392.24,137Z"/><path d="M60.62,70.7V67.39h24V70.7H74.5v29.91H70.85V70.7Z"/><path d="M100.66,97.63l1.39-.14.09,2.83a69.07,69.07,0,0,1-9.36.77q-5.18,0-7.34-3t-2.16-9.34q0-12.61,10-12.62,4.84,0,7.25,2.71t2.4,8.52l-.19,2.74H86.93q0,4,1.44,5.9t5,1.92C95.77,97.92,98.19,97.82,100.66,97.63Zm-1.3-10.41q0-4.43-1.42-6.24c-.94-1.22-2.48-1.83-4.6-1.83a5.9,5.9,0,0,0-4.8,1.92Q86.92,83,86.88,87.22Z"/><path d="M116.11,79.34q-5.23,0-5.23,3.65a2.53,2.53,0,0,0,1.2,2.38,20.63,20.63,0,0,0,5.47,1.44,14.46,14.46,0,0,1,6,2.09q1.77,1.34,1.77,5A6.26,6.26,0,0,1,123,99.36q-2.39,1.73-6.94,1.73a44.41,44.41,0,0,1-7-.67l-1.43-.24.19-3.12a61.52,61.52,0,0,0,8.25.81,8.2,8.2,0,0,0,4.25-.89,3.18,3.18,0,0,0,1.46-3,3,3,0,0,0-1.24-2.83,18.47,18.47,0,0,0-5.48-1.42,14.47,14.47,0,0,1-6-2q-1.77-1.29-1.77-4.8a5.83,5.83,0,0,1,2.47-5.18,10.73,10.73,0,0,1,6.17-1.68,50.08,50.08,0,0,1,7.34.67l1.35.24-.1,3.07A62.81,62.81,0,0,0,116.11,79.34Z"/><path d="M143.33,79.73H135.7V91.2c0,2.75.19,4.56.59,5.42s1.36,1.3,2.86,1.3l4.27-.29.24,3a33.05,33.05,0,0,1-4.89.53q-3.75,0-5.19-1.83t-1.44-7V79.73h-3.4V76.61h3.4V69.26h3.56v7.35h7.63Z"/><path d="M151.34,100.61h-3.6v-24h3.55v1.68a15.4,15.4,0,0,1,7.45-2.16c3.19,0,5.35.86,6.45,2.59s1.66,4.8,1.66,9.22v12.67h-3.56V88c0-3.33-.32-5.61-1-6.84s-2.06-1.85-4.2-1.85a12.78,12.78,0,0,0-3.24.46,15.59,15.59,0,0,0-2.62.89l-.91.43Z"/><path d="M189.84,97.63l1.39-.14.1,2.83a69.32,69.32,0,0,1-9.36.77q-5.19,0-7.35-3t-2.16-9.34q0-12.61,10-12.62c3.24,0,5.65.9,7.25,2.71s2.4,4.65,2.4,8.52L192,90.1H176.11q0,4,1.44,5.9t5,1.92Q186.14,97.92,189.84,97.63Zm-1.3-10.41q0-4.43-1.41-6.24c-.95-1.22-2.48-1.83-4.61-1.83a5.9,5.9,0,0,0-4.8,1.92c-1.07,1.28-1.63,3.33-1.66,6.15Z"/><path d="M210.05,79.73h-7.64V91.2q0,4.13.6,5.42c.4.87,1.36,1.3,2.86,1.3l4.27-.29.24,3a33.05,33.05,0,0,1-4.89.53q-3.75,0-5.19-1.83t-1.44-7V79.73h-3.41V76.61h3.41V69.26h3.55v7.35h7.64Z"/><path d="M229.34,87.89v12.72h-3.69V67.39h12.28q5.28,0,7.95,2.45c1.77,1.63,2.66,4.18,2.66,7.63q0,7.68-6.09,9.65l6.38,13.49h-4.08l-6-12.72ZM238,84.62q6.77,0,6.77-7t-6.82-7h-8.59v14Z"/><path d="M270.48,97.63l1.39-.14.1,2.83a69.32,69.32,0,0,1-9.36.77q-5.19,0-7.35-3t-2.16-9.34q0-12.61,10-12.62c3.24,0,5.65.9,7.25,2.71s2.4,4.65,2.4,8.52l-.19,2.74H256.75q0,4,1.44,5.9t5,1.92Q266.78,97.92,270.48,97.63Zm-1.3-10.41q0-4.43-1.41-6.24c-.95-1.22-2.48-1.83-4.61-1.83a5.9,5.9,0,0,0-4.8,1.92c-1.07,1.28-1.63,3.33-1.66,6.15Z"/><path d="M278.69,100.61V66.14h3.6v34.47Z"/><path d="M305.8,97.63l1.4-.14.09,2.83a69.07,69.07,0,0,1-9.36.77q-5.18,0-7.34-3t-2.16-9.34q0-12.61,10-12.62,4.85,0,7.25,2.71t2.4,8.52l-.19,2.74H292.08q0,4,1.44,5.9t5,1.92Q302.12,97.92,305.8,97.63Zm-1.29-10.41q0-4.43-1.42-6.24c-.94-1.22-2.48-1.83-4.6-1.83a5.93,5.93,0,0,0-4.81,1.92Q292.08,83,292,87.22Z"/><path d="M330.67,83.86V96.14c.09,1.19,1,1.89,2.78,2.12l-.14,2.83q-3.8,0-5.71-1.92a21.12,21.12,0,0,1-8.64,1.92,6.54,6.54,0,0,1-5-1.87,7.62,7.62,0,0,1-1.73-5.38q0-3.51,1.77-5.16a9.49,9.49,0,0,1,5.57-2l7.54-.72V83.86A4.82,4.82,0,0,0,326,80.35a3.89,3.89,0,0,0-2.88-1,69.16,69.16,0,0,0-8,.48l-1.48.14-.15-2.74a48.64,48.64,0,0,1,9.36-1.05q4.08,0,5.93,1.87T330.67,83.86Zm-14.79,9.79q0,4.41,3.65,4.41A19.28,19.28,0,0,0,326,97l1.11-.38V88.66l-7.11.67a4.6,4.6,0,0,0-3.12,1.25A4.4,4.4,0,0,0,315.88,93.65Z"/><path d="M345.31,79.34q-5.24,0-5.23,3.65a2.53,2.53,0,0,0,1.2,2.38,20.63,20.63,0,0,0,5.47,1.44,14.46,14.46,0,0,1,6.05,2.09q1.77,1.34,1.77,5a6.26,6.26,0,0,1-2.37,5.42q-2.38,1.73-6.94,1.73a44.41,44.41,0,0,1-7-.67l-1.44-.24.19-3.12a61.63,61.63,0,0,0,8.26.81,8.2,8.2,0,0,0,4.25-.89A3.2,3.2,0,0,0,351,94a3,3,0,0,0-1.25-2.83,18.28,18.28,0,0,0-5.47-1.42,14.47,14.47,0,0,1-6-2q-1.77-1.29-1.77-4.8A5.83,5.83,0,0,1,339,77.81a10.73,10.73,0,0,1,6.17-1.68,50.08,50.08,0,0,1,7.34.67l1.34.24-.09,3.07A62.81,62.81,0,0,0,345.31,79.34Z"/><path d="M376.41,97.63l1.39-.14.1,2.83a69.32,69.32,0,0,1-9.36.77c-3.46,0-5.9-1-7.34-3S359,93,359,88.75q0-12.61,10-12.62c3.23,0,5.64.9,7.25,2.71s2.4,4.65,2.4,8.52l-.2,2.74H362.68q0,4,1.44,5.9t5,1.92C371.52,97.92,374,97.82,376.41,97.63Zm-1.29-10.41c0-3-.48-5-1.42-6.24s-2.48-1.83-4.61-1.83a5.9,5.9,0,0,0-4.8,1.92q-1.6,1.92-1.65,6.15Z"/><path d="M391.87,79.34q-5.24,0-5.24,3.65a2.55,2.55,0,0,0,1.2,2.38,20.75,20.75,0,0,0,5.48,1.44,14.46,14.46,0,0,1,6.05,2.09q1.77,1.34,1.77,5t-2.38,5.42q-2.37,1.73-6.93,1.73a44.3,44.3,0,0,1-7-.67l-1.44-.24.19-3.12a61.63,61.63,0,0,0,8.26.81,8.23,8.23,0,0,0,4.25-.89,3.2,3.2,0,0,0,1.46-3,3,3,0,0,0-1.25-2.83,18.28,18.28,0,0,0-5.47-1.42,14.36,14.36,0,0,1-6-2Q383,86.5,383,83a5.83,5.83,0,0,1,2.47-5.18,10.71,10.71,0,0,1,6.16-1.68,50.08,50.08,0,0,1,7.35.67l1.34.24-.09,3.07A63.09,63.09,0,0,0,391.87,79.34Z"/></g><g id="Layer_1" data-name="Layer 1"><path d="M727.17,129.3c-.9.24-2.63,1-3.54,1.23v1.12a21.74,21.74,0,0,1,2.24,3.22c2.72,4.49,6.37,7.76,9.09,12.25.78,1.28,2.79,3.81,3.17,5.27a15.41,15.41,0,0,1,.35,3.66l.88,51.6a7.71,7.71,0,0,1-.34,3c-.81,2.05-5.3,3-7.41,3.64a85.64,85.64,0,0,1-41.64,2c-2.71-.55-6.47-1.21-8.18-3.38-2-2.61-2.32-6.36-2.63-9.67-.84-8.81-.28-12.89-.77-21.22-.23-3.93-.63-4.63-.59-9.37,0-2.83.05-4.94.1-7.78s.11-6.45.18-9.42c.1-4.25,3.87-7.91,6.54-11.22,2.31-2.87,4.64-5.72,6.92-8.6a45.79,45.79,0,0,1,3.38-3.92c-.06-.82.22-.81.16-1.63-1.45-.12-1.23-.67-2.69-.79a81.2,81.2,0,0,1-.3-14.36c.07-1,0-3.72.76-4.46a31.57,31.57,0,0,1,4.8-2.75c6.27-2.21,20.75-1.77,26.83,1.91,2.53,1.53,2.62,5.86,3.1,8.62C727.75,119.25,728.14,129.05,727.17,129.3Z"/><path class="cls-1" d="M701.26,125.82a1.74,1.74,0,0,0,.14.85,1.58,1.58,0,0,0,1,.64,15.87,15.87,0,0,0,5.63.36,102.71,102.71,0,0,0-.22-12.89c-3.06-.49-5.27-1.83-5.83,1.69A66.4,66.4,0,0,0,701.26,125.82Z"/><path class="cls-1" d="M711,123.93c-.14,1.4-.35,2.93.42,4.11a31.52,31.52,0,0,0,5.31-.35,12,12,0,0,0-.19-3.87c-.48-2.93-1.07-5.85-1.75-8.74-2.88-.18-4-.64-3.82,2.33A37.36,37.36,0,0,1,711,123.93Z"/><path class="cls-1" d="M719.84,124.32c0,1.09.13,2.5,1.19,2.77.89.22,1.89-.36,2.69-.38a39.32,39.32,0,0,0-1.93-10.59c-.34-1.06-.89-1.56-2-1.14-1.28.49-.63.86-.68,2C719,119.35,719.87,121.88,719.84,124.32Z"/><path class="cls-1" d="M698.41,120.41c.21,2.36-.14,4.46.13,6.64l-1.86-.55-.2-4.57a22.38,22.38,0,0,1,0-2.59c.09-1.56-.51-5.67.9-5.54.54,0,1.41.32,1.5,1.15C699.05,116.64,698.3,119.31,698.41,120.41Z"/><path class="cls-1" d="M701.28,129.34c-1-.12-1,0-1.23.95-.11.53-.28.94.19,1.21a5,5,0,0,0,1.8.6,128.45,128.45,0,0,0,14.55.33,15.42,15.42,0,0,0,3-.73c.67-.19.72-2-.35-1.93-1.76.08-3.68.5-5.47.54A83.69,83.69,0,0,1,701.28,129.34Z"/><path class="cls-1" d="M714.55,135.25a8.06,8.06,0,0,1,4.36.67c1.36.67,4.93,4.75,6.16,7.66,1.87,4.41,2.64,5.35,4.71,9.48.4.8,1.39,1.2,1.64,2.05s-.18,1.47-.11,2.22c.64,7.49,1.43,14.07,1.38,21.09,0,3.84-.44,7.9-.48,11.74-.06,5.79,0,8.21-.39,13.8a5.87,5.87,0,0,1-.79,1.66,2.52,2.52,0,0,1-1.9,1.1,112.31,112.31,0,0,1-39.87,1.69,2.46,2.46,0,0,1-2.69-2.82l-1.5-24.8a50.51,50.51,0,0,1-.13-6.15,57.53,57.53,0,0,0,0-10.9c-.29-2.72-.31-6.91.5-9.52a13.73,13.73,0,0,1,3-4.47,29.31,29.31,0,0,0,3.94-5.32c1-1.73,7-5.63,8.9-6.61a28.92,28.92,0,0,1,8.72-2.21C713.59,135.65,711,135.79,714.55,135.25Z"/><path class="cls-2" d="M694.68,158.34a2.1,2.1,0,0,0-2.92,2.67c1.16,16.54-2.19,22.65.92,38.93a137.13,137.13,0,0,0,37.08-1.31,2.59,2.59,0,0,0,1.64-.73,2.55,2.55,0,0,0,.41-1.44c.76-9.56.23-9.43.56-19,.2-5.49,1.33-10,.67-15.49-.7-5.68-.76-9.25-6.84-7.1C715.85,158.53,705.64,160.38,694.68,158.34Z"/><path class="cls-1" d="M715.25,113a3.68,3.68,0,0,0,1.61-.4,1.33,1.33,0,0,0,.68-1.4,49.42,49.42,0,0,0-9.77-1.18c-1.23,0-8.62-.42-9.11.86C697.79,113.15,713.38,113.2,715.25,113Z"/><path class="cls-2" d="M717.17,113c.41,0,1.16,0,1.52-.25a1.14,1.14,0,0,0,.19-1.55,28.27,28.27,0,0,0-7.33-1.18c-.93,0-6.48-.42-6.85.86C704.05,113.15,715.76,113.2,717.17,113Z"/><path class="cls-2" d="M717.49,137.65a1.62,1.62,0,0,1,1.15.18,1.52,1.52,0,0,1,.4.53,41.62,41.62,0,0,1,2.7,6.76l1.89,5.71a1.23,1.23,0,0,1,0,1,1.19,1.19,0,0,1-.58.4A39.53,39.53,0,0,1,713,154.39c-.84-1.86-.52-3.65-.84-5.67-.51-3.24-1.35-6.52-1.49-9.38C710.63,138,715.25,137.84,717.49,137.65Z"/><path d="M704.17,169.55c3.78.88,7.78.67,11.64.49,3.4-.15,7-.08,10.14-1.45.36-.16.24-.73-.11-.82-3.5-.86-7.3-.16-10.86.09s-7.32.34-10.81,1.33a.19.19,0,0,0,0,.36Z"/><path d="M704.83,186.79c6.2,1.8,15.29-.13,21.26-1.66,1.17-.3,1-2.28-.29-2.16-4.08.39-8.12,1.06-12.18,1.54-3,.35-6.52.29-9.1,1.27-.08,0,0,.57.07.6Z"/><path class="cls-2" d="M726.5,193.5a50.24,50.24,0,0,1-.71,11.81l-7.66,1.76a27.93,27.93,0,0,1-1.06-11.91C718,194.9,726.42,192.17,726.5,193.5Z"/><path d="M510.24,250c.91,2.28,3.32,4.79,5.75,5.12,42.42,5.71,48.82,6.57,91.22,12.39,20,2.74,17.7,1.84,39.64-.24,0-1.06-1.21-1.55-2.15-2.05-4.47-2.35-4.12-2.88-8.91-4.69A119.57,119.57,0,0,0,624,257a106.27,106.27,0,0,0-11.44-2.72c-41.91-8-26-6.5-69.49-13.35-8.53-1.34-21.12-4.28-29.76-2.24C508.52,239.79,508.53,245.72,510.24,250Z"/><path class="cls-2" d="M630.94,264.84c-13-.17-8.89.84-20.41-1.19-46.15-8.16-37.66-4.93-84.16-10.79a25.09,25.09,0,0,1-8-2.25c-4-2.13-5.41-5.86-.63-7.74,3.52-1.38,10.34.93,13.93,1.46q20.4,3,40.76,6.4c27.29,4.54,11,2.57,38.1,8.1C625.73,261.94,616.87,260.83,630.94,264.84Z"/><path d="M668.24,141.29a118.12,118.12,0,0,1,5.24,15.92c3.86,15.57,8.53,27.13,12.39,42.7,2,8.18,4.06,16.37,5.88,24.6.9,4.06,1.74,8.13,2.59,12.2a4,4,0,0,1-.18,3A3.81,3.81,0,0,1,692,241c-24.62,7.78-51.08,6.39-76.86,4.92-9-.52-18.8-1.36-25.34-7.57a8,8,0,0,1-2.75-4.72,10,10,0,0,1,.39-3.25l5-21.51c3.32-14.26,6.65-28.53,10.83-42.56,3.51-11.77,7.62-23.35,12-34.81,1.4-3.65,2.85-7.37,3-11.27.19-6.84-1.59-13.67.26-20.26.79-2.83,0-3.49-2.27-5.36-1-.85-4-2-4.59-2.69-1.43-1.5-1.57-8.41.17-9.53a36.49,36.49,0,0,1,8.31-3.68A91.92,91.92,0,0,1,642,76.93a70,70,0,0,1,17.7,2.83,21.77,21.77,0,0,1,6.36,3.82c1.69,1.39,1.59,7.33-.35,8.33-1.41.73-4,.85-4.85,2.16a9.34,9.34,0,0,0-.74,3.36c.23,8.53.2,14.72.64,23.23C661.18,128.21,665.19,134.38,668.24,141.29Z"/><path class="cls-1" d="M675,195.69c1.4,5.08,2.82,11.38,3.91,16.51a148.49,148.49,0,0,1,2.16,17.37,4,4,0,0,1-.38,2.61,3.85,3.85,0,0,1-2.32,1.31c-4.51,1.21-9,2.85-13.64,2.92-5.35.07-12.1.63-17.45.7-14.84.21-22.87-.25-37.25-3.91a5,5,0,0,1-2.13-.92c-1-.91-1.15-2.45-1.16-3.82-.25-26.79,9.79-52.61,13.43-79.15.62-4.55,1.47-14.45,3.83-18.38,1.58-2.64,9.49-2.5,17.24-1.66,3.4.38,8.48.26,11.59,1.71,2.78,1.3,3.54,2.16,4.56,5,2.67,7.44,5,13.33,6.34,20.37C666.42,170.3,670.85,180.7,675,195.69Z"/><path class="cls-2" d="M648.69,224.72a5.44,5.44,0,0,0,3.67,2.36,15.93,15.93,0,0,0,4.47.06c3-.23,6.15-.28,9.12-.77.92-4-2.1-5.05-5.35-4.78C659.38,221.7,648.1,223.72,648.69,224.72Z"/><path class="cls-2" d="M646.59,205c-.26-1.83,0-4.77-.53-6.54-.94-3-3.64-29.07-4-32.16-.24-1.87-3.56-22.66-.82-23.77a7,7,0,0,1,2.87-.46l7.17.25c2.11,4.21,10.58,50.37,10.72,55.08.1,3,.92,5.76,1.17,8.76a33.86,33.86,0,0,1,.4,6.1c-.09,1.17-.12,2.3-1.27,2.53-3.59.74-10.27,2.42-12.37,1C646.4,213.52,647.07,208.55,646.59,205Z"/><path class="cls-1" d="M639.59,121.22a2.14,2.14,0,0,1-1.26-.59,3.26,3.26,0,0,1-.51-1c-1-2.44-.12-5-.45-7.74a35.38,35.38,0,0,1,1-14c.17-.56-.34-1.32.07-1.63a1.86,1.86,0,0,1,1.05-.28,48.05,48.05,0,0,1,11,.7,1.65,1.65,0,0,1,.79.29c.59.51.47,1.63.3,2.51-1.31,6.72-1.32,14.27-1.32,21.11,0,3.46-1.77,2.63-4,2.22C643.45,122.38,642.38,121.83,639.59,121.22Z"/><path class="cls-2" d="M642.58,122.15a12.43,12.43,0,0,0,8.53,1.28,2.06,2.06,0,0,0,1.29-.67,3.1,3.1,0,0,0,.47-1.23,57,57,0,0,0,1.14-15,29.38,29.38,0,0,1-.07-4.78,20.26,20.26,0,0,0,.31-2.89,2.8,2.8,0,0,0-1.16-2.4,2.59,2.59,0,0,0-1.1-.2c-2.21-.09-6.14-1.16-8.22-.32s-1.5,4.63-1.61,7.14q-.21,4.78-.11,9.57C642.08,113.76,641.85,121.72,642.58,122.15Z"/><path class="cls-2" d="M617.52,84.49c8.55-2.93,17.87-2.22,26.87-1.32.66.07,1.5.3,1.57,1-1,.49-2.41.24-3.07,1.14a8.08,8.08,0,0,0-.56,1.39c-.62,1.29-2.34,1.5-3.78,1.51A79.25,79.25,0,0,1,627,87.61C623.68,87.15,619.91,87.35,617.52,84.49Z"/><path class="cls-1" d="M615.16,86.22a2.93,2.93,0,0,0,1.33,2.9,5.48,5.48,0,0,0,1.94.64,109,109,0,0,0,41.16.37,6.56,6.56,0,0,0,3.47-1.43c.91-.89,1.16-2.57.17-3.37A3.53,3.53,0,0,0,660.4,85a118.56,118.56,0,0,1-24.25,1.44,118.14,118.14,0,0,1-12.31-1.19C621.48,84.91,615.76,82.39,615.16,86.22Z"/><path class="cls-2" d="M646.83,88.72c.14.44.15.66.27,1.11s.66.53,1.07.61a3.26,3.26,0,0,0,1.24-.07c2.08-.37,3.77-.56,5.85-.93a2.61,2.61,0,0,0,1.17-.34c.15-.09.39-.08.38-.58V86.75a.72.72,0,0,0-.73-.89,22.54,22.54,0,0,0-6.56-.11c-.82.11-2.19.1-2.51.82A2.53,2.53,0,0,0,646.83,88.72Z"/><path d="M519.23,255.44c2-5.15,2.33-10.78,7.27-14.28a1.45,1.45,0,0,0-1.66-2.38c-4.68,2.95-8.72,11.36-6,16.65.08.14.33.21.4,0Z"/><path d="M525,250c.9-1.1,1.54-2.38,2.42-3.49a24.61,24.61,0,0,1,3.38-3.08c.81-.71.28-2.3-.92-1.84-2.9,1.13-6,5.09-5.28,8.28,0,.12.34.21.4.13Z"/><path d="M529.33,248.78c1.64-1.17,3.14-2.56,4.76-3.77a1.22,1.22,0,1,0-1.48-1.93,9.59,9.59,0,0,0-3.52,5.51c0,.13.11.28.24.19Z"/><path d="M551,250.88a25.26,25.26,0,0,1,1.75-2.26c.73-.68,1.67-1.06,2.4-1.72s.18-2-.79-1.91c-2.18.29-4.67,3.17-4.4,5.46.06.46.66.87,1,.43Z"/><path d="M555.52,252.46c1.11-.61,1.84-1.89,2.66-2.82a16.65,16.65,0,0,1,1.44-1.47c.52-.47,1-.77,1.14-1.49a.73.73,0,0,0-.69-.9c-1.38,0-2.58,1.77-3.31,2.77s-1.66,2.47-1.43,3.83a.13.13,0,0,0,.19.08Z"/><path d="M562.09,259.11c.84-2.71,1-5.82,2.63-8.23.86-1.27,2-1.45,3.06-2.37a2,2,0,0,0,.62-1.06,1.36,1.36,0,0,0-.54-1.28c-2.05-1.74-5.16,2-6,3.58a11.19,11.19,0,0,0-.14,9.37.2.2,0,0,0,.36,0Z"/><path d="M568.24,253.29c.76-.2,1.19-1.18,1.69-1.72s1.28-1.59,2.06-1.75a.85.85,0,0,0,.37-1.4c-1-1.15-2.63.6-3.26,1.4s-1.65,2.52-1,3.43a.07.07,0,0,0,.1,0Z"/><path d="M574.52,254c1.55-1.24,2.62-2.83,4.54-3.59,1.48-.59.83-3-.67-2.42-2.17.86-5,3.26-4.17,5.93a.19.19,0,0,0,.3.08Z"/><path d="M593.23,252.6c-1.24,1-2.75,3-2.28,4.64a.48.48,0,0,0,.71.29h0c1.1-.83,1.77-2.08,2.92-2.92a7.2,7.2,0,0,1,1.95-1Z"/><path d="M704.47,177.58c3.62,1.24,7.85,1,11.62.67,3.35-.29,7.28-.56,10.11-2.45a.71.71,0,0,0-.36-1.31c-3.44-.17-7.06,1.15-10.51,1.49s-7.18,0-10.7.42a.6.6,0,0,0-.16,1.18Z"/><path class="cls-2" d="M712,115a.72.72,0,0,1,.41.08.74.74,0,0,1,.26.47,13.19,13.19,0,0,1,.21,1.88l.59,9.68a1,1,0,0,1-.12.71,1.05,1.05,0,0,1-1,.25l-2.21-.16c0-1.27-.11-2.47-.21-3.73a45.27,45.27,0,0,1,0-4.66c0-1.11-.24-3.24-.17-3.85C710,114.37,710.76,115,712,115Z"/><path class="cls-2" d="M719.58,115.08s.1,1,.2,1.5A73.69,73.69,0,0,1,721.2,126a1.6,1.6,0,0,1-.15,1c-.33.49-1.73.67-1.73.37,0-.6-.35-.69-.51-1.27a14.76,14.76,0,0,1-.48-2.17c-.05-.62-.16-1.18-.2-1.8a15.16,15.16,0,0,0-.21-2.23,11.58,11.58,0,0,1-.35-4.85A9.27,9.27,0,0,1,719.58,115.08Z"/><path class="cls-2" d="M703.62,114.52a32.05,32.05,0,0,1,.72,7.77l0,4.77c0,.28,0,.61-.26.76a.82.82,0,0,1-.56,0l-2.26-.35a.74.74,0,0,1-.76-.89,69.26,69.26,0,0,1-.09-8.15c0-.9-.19-3.13.36-3.86S702.85,114.43,703.62,114.52Z"/></g></svg>