<?xml version="1.0" encoding="UTF-8"?>
<svg width="882px" height="300px" viewBox="0 0 882 300" version="1.1" xmlns="http://www.w3.org/2000/svg" xmlns:xlink="http://www.w3.org/1999/xlink">
    <!-- Generator: Sketch 61 (89581) - https://sketch.com -->
    <title>Group</title>
    <desc>Created with Sketch.</desc>
    <g id="Github-Covers" stroke="none" stroke-width="1" fill="none" fill-rule="evenodd">
        <g id="Testnet-Releases" transform="translate(0.000000, -0.000000)" fill-rule="nonzero">
            <g id="Group">
                <rect id="Rectangle" fill="#FFFFFF" x="0" y="0" width="882" height="300"></rect>
                <rect id="Rectangle" fill="#E9ECF0" x="0" y="0" width="882" height="210"></rect>
                <path d="M727.38,129.23 C726.47,129.47 724.74,130.23 723.84,130.46 L723.84,131.57 C724.682,132.571 725.429,133.649 726.07,134.79 C728.79,139.28 732.45,142.55 735.17,147.05 C735.94,148.33 737.95,150.86 738.33,152.31 C738.592,153.512 738.709,154.741 738.68,155.97 L739.57,207.58 C739.649,208.593 739.53,209.612 739.22,210.58 C738.41,212.64 733.93,213.58 731.81,214.23 C718.308,218.307 704.01,218.993 690.18,216.23 C687.47,215.68 683.7,215.02 682,212.85 C679.94,210.23 679.67,206.49 679.36,203.18 C678.52,194.37 679.09,190.28 678.6,181.96 C678.36,178.02 677.97,177.32 678,172.59 C678,169.75 678.06,167.59 678.11,164.81 C678.16,162.03 678.21,158.36 678.28,155.39 C678.38,151.14 682.15,147.47 684.82,144.16 C687.13,141.3 689.46,138.45 691.75,135.57 C692.801,134.203 693.926,132.894 695.12,131.65 C695.06,130.82 695.35,130.84 695.29,130.02 C693.83,129.9 694.05,129.35 692.6,129.23 C692.066,124.462 691.966,119.656 692.3,114.87 C692.37,113.87 692.3,111.14 693.06,110.41 C694.572,109.353 696.175,108.433 697.85,107.66 C704.12,105.45 718.6,105.89 724.69,109.57 C727.21,111.1 727.3,115.43 727.78,118.19 C728,119.17 728.34,129 727.38,129.23 Z" id="Path" fill="#000000"></path>
                <path d="M701.46,125.75 C701.435,126.04 701.483,126.332 701.6,126.6 C701.836,126.936 702.196,127.166 702.6,127.24 C704.437,127.69 706.34,127.812 708.22,127.6 C708.42,123.303 708.35,118.998 708.01,114.71 C704.94,114.22 702.73,112.87 702.18,116.39 C701.72,119.489 701.48,122.617 701.46,125.75 Z" id="Path" fill="#D3D8E0"></path>
                <path d="M711.19,123.86 C711.04,125.26 710.83,126.79 711.6,127.97 C713.376,127.999 715.152,127.882 716.91,127.62 C717.062,126.328 716.997,125.021 716.72,123.75 C716.24,120.81 715.66,117.9 714.98,115 C712.1,114.83 710.98,114.37 711.16,117.34 C711.35,119.509 711.36,121.69 711.19,123.86 Z" id="Path" fill="#D3D8E0"></path>
                <path d="M720,124.25 C720,125.34 720.14,126.75 721.2,127.02 C722.09,127.24 723.08,126.66 723.88,126.64 C723.742,123.041 723.11,119.477 722,116.05 C721.67,114.99 721.11,114.49 720,114.91 C718.73,115.4 719.37,115.76 719.33,116.91 C719.24,119.28 720.08,121.81 720,124.25 Z" id="Path" fill="#D3D8E0"></path>
                <path d="M698.61,120.34 C698.83,122.7 698.47,124.8 698.74,126.97 L696.88,126.43 L696.68,121.86 C696.68,120.99 696.61,120.13 696.68,119.26 C696.78,117.71 696.17,113.6 697.59,113.73 C698.12,113.73 699,114.05 699.09,114.87 C699.25,116.56 698.51,119.23 698.61,120.34 Z" id="Path" fill="#D3D8E0"></path>
                <path d="M701.48,129.27 C700.48,129.14 700.48,129.27 700.26,130.21 C700.14,130.74 699.97,131.16 700.44,131.43 C701.002,131.738 701.615,131.941 702.25,132.03 C707.09,132.417 711.948,132.524 716.8,132.35 C717.823,132.213 718.828,131.968 719.8,131.62 C720.47,131.44 720.52,129.62 719.45,129.69 C717.69,129.78 715.78,130.19 713.98,130.24 C709.795,130.224 705.617,129.9 701.48,129.27 Z" id="Path" fill="#D3D8E0"></path>
                <path d="M714.75,135.18 C716.237,134.984 717.75,135.216 719.11,135.85 C720.48,136.52 724.04,140.6 725.27,143.5 C727.14,147.92 727.92,148.86 729.99,152.99 C730.38,153.78 731.38,154.18 731.63,154.99 C731.88,155.8 731.45,156.47 731.51,157.22 C732.15,164.71 732.95,171.29 732.89,178.31 C732.89,182.15 732.45,186.21 732.41,190.05 C732.41,195.84 732.41,198.25 732.02,203.85 C731.847,204.439 731.581,204.996 731.23,205.5 C731.016,205.815 730.734,206.078 730.405,206.27 C730.077,206.462 729.709,206.578 729.33,206.61 C716.25,209.546 702.75,210.115 689.47,208.29 C689.096,208.329 688.718,208.282 688.366,208.153 C688.013,208.024 687.694,207.816 687.433,207.545 C687.173,207.274 686.978,206.947 686.863,206.589 C686.748,206.231 686.716,205.852 686.77,205.48 L685.27,180.68 C685.107,178.634 685.063,176.581 685.14,174.53 C685.48,170.901 685.48,167.249 685.14,163.62 C684.85,160.9 684.83,156.72 685.64,154.11 C686.334,152.436 687.354,150.917 688.64,149.64 C690.154,148.024 691.476,146.239 692.58,144.32 C693.58,142.59 699.58,138.68 701.48,137.71 C704.252,136.52 707.195,135.774 710.2,135.5 C713.8,135.58 711.17,135.72 714.75,135.18 Z" id="Path" fill="#D3D8E0"></path>
                <path d="M694.88,158.26 C694.502,158.134 694.103,158.088 693.707,158.126 C693.31,158.164 692.927,158.284 692.58,158.48 C692.292,158.813 692.087,159.209 691.981,159.637 C691.875,160.064 691.871,160.511 691.97,160.94 C693.12,177.47 689.77,183.59 692.88,199.87 C705.256,201.115 717.744,200.671 730,198.55 C730.616,198.518 731.199,198.262 731.64,197.83 C731.921,197.399 732.067,196.894 732.06,196.38 C732.81,186.83 732.28,186.96 732.62,177.38 C732.81,171.89 733.95,167.38 733.28,161.89 C732.59,156.21 732.53,152.63 726.45,154.79 C716.06,158.45 705.84,160.31 694.88,158.26 Z" id="Path" fill="#FFFFFF"></path>
                <path d="M715.46,113 C716.018,112.988 716.565,112.847 717.06,112.59 C717.308,112.46 717.508,112.254 717.63,112.002 C717.753,111.75 717.791,111.466 717.74,111.19 C714.54,110.475 711.278,110.077 708,110 C706.76,110 699.37,109.58 698.88,110.85 C698,113.08 713.58,113.13 715.46,113 Z" id="Path" fill="#D3D8E0"></path>
                <path d="M717.37,113 C717.79,113 718.54,113 718.9,112.74 C719.119,112.552 719.26,112.289 719.295,112.002 C719.33,111.715 719.257,111.426 719.09,111.19 C716.704,110.485 714.237,110.092 711.75,110.02 C710.83,110.02 705.28,109.6 704.91,110.87 C704.26,113.08 716,113.13 717.37,113 Z" id="Path" fill="#FFFFFF"></path>
                <path d="M717.69,137.57 C718.084,137.492 718.492,137.559 718.84,137.76 C719.014,137.902 719.151,138.084 719.24,138.29 C720.346,140.455 721.25,142.718 721.94,145.05 L723.84,150.76 C723.915,150.916 723.953,151.087 723.953,151.26 C723.953,151.433 723.915,151.603 723.84,151.76 C723.698,151.953 723.498,152.096 723.27,152.17 C720.023,153.33 716.637,154.056 713.2,154.33 C712.36,152.47 712.69,150.69 712.37,148.67 C711.86,145.43 711.02,142.15 710.87,139.29 C710.83,137.91 715.46,137.77 717.69,137.57 Z" id="Path" fill="#FFFFFF"></path>
                <path d="M704.37,169.48 C708.15,170.36 712.15,170.15 716.01,169.97 C719.41,169.81 723.01,169.88 726.15,168.51 C726.51,168.36 726.39,167.78 726.05,167.7 C722.55,166.84 718.75,167.54 715.18,167.78 C711.61,168.02 707.87,168.13 704.37,169.11 C704.333,169.125 704.302,169.15 704.28,169.183 C704.258,169.216 704.246,169.255 704.246,169.295 C704.246,169.334 704.258,169.373 704.28,169.406 C704.302,169.439 704.333,169.465 704.37,169.48 Z" id="Path" fill="#000000"></path>
                <path d="M705,186.72 C711.2,188.52 720.28,186.59 726.26,185.06 C727.43,184.76 727.26,182.77 725.96,182.9 C721.89,183.29 717.85,183.96 713.78,184.43 C710.78,184.79 707.26,184.73 704.69,185.71 C704.6,185.71 704.69,186.28 704.76,186.31 L705,186.72 Z" id="Path" fill="#000000"></path>
                <path d="M726.7,193.43 C726.932,197.38 726.697,201.344 726,205.24 L718.33,207 C717.119,203.15 716.761,199.082 717.28,195.08 C718.19,194.83 726.62,192.1 726.7,193.43 Z" id="Path" fill="#FFFFFF"></path>
                <path d="M510.44,249.92 C511.36,252.2 513.76,254.7 516.2,255.03 C558.61,260.75 565.02,261.61 607.41,267.42 C627.41,270.17 625.12,269.27 647.06,267.18 C647.06,266.13 645.84,265.63 644.91,265.18 C640.44,262.83 640.78,262.3 635.99,260.49 C632.142,259.098 628.223,257.91 624.25,256.93 C620.49,255.81 616.671,254.902 612.81,254.21 C570.89,246.21 586.81,247.71 543.31,240.86 C534.79,239.52 522.19,236.57 513.55,238.62 C508.72,239.72 508.74,245.65 510.44,249.92 Z" id="Path" fill="#000000"></path>
                <path d="M631.15,264.77 C618.15,264.6 622.25,265.61 610.73,263.57 C564.58,255.41 573.07,258.64 526.58,252.79 C523.807,252.49 521.103,251.73 518.58,250.54 C514.58,248.41 513.18,244.68 517.95,242.8 C521.47,241.41 528.29,243.73 531.88,244.26 C545.493,246.26 559.08,248.393 572.64,250.66 C599.93,255.19 583.64,253.22 610.74,258.76 C625.93,261.87 617.07,260.76 631.15,264.77 Z" id="Path" fill="#FFFFFF"></path>
                <path d="M668.44,141.21 C670.56,146.386 672.311,151.706 673.68,157.13 C677.54,172.7 682.22,184.27 686.08,199.84 C688.08,208.02 690.14,216.2 691.96,224.44 C692.85,228.49 693.7,232.56 694.54,236.63 C694.764,237.058 694.878,237.535 694.874102,238.018 C694.87,238.501 694.747,238.976 694.515,239.4 C694.284,239.824 693.952,240.185 693.548,240.45 C693.144,240.715 692.681,240.876 692.2,240.92 C667.57,248.7 641.12,247.3 615.34,245.83 C606.34,245.32 596.53,244.47 590,238.27 C588.558,237.068 587.584,235.397 587.25,233.55 C587.192,232.453 587.32,231.354 587.63,230.3 L592.63,208.79 C595.96,194.53 599.29,180.26 603.47,166.23 C606.98,154.46 611.08,142.87 615.47,131.41 C616.87,127.77 618.33,124.05 618.47,120.15 C618.66,113.31 616.88,106.48 618.72,99.88 C619.51,97.06 618.72,96.4 616.45,94.52 C615.45,93.67 612.45,92.52 611.86,91.84 C610.44,90.33 610.29,83.43 612.04,82.31 C614.644,80.7428 617.432,79.5034 620.34,78.62 C627.534,77.1673 634.876,76.5765 642.21,76.86 C648.209,77.0427 654.16,77.9904 659.92,79.68 C662.24,80.59 664.39,81.8848 666.28,83.51 C667.96,84.89 667.86,90.84 665.92,91.84 C664.51,92.57 661.97,92.68 661.07,93.99 C660.622,95.0595 660.371,96.2012 660.33,97.36 C660.57,105.88 660.53,112.07 660.98,120.59 C661.38,128.14 665.4,134.3 668.44,141.21 Z" id="Path" fill="#000000"></path>
                <path d="M675.19,195.62 C676.58,200.7 678,207 679.09,212.13 C680.156,217.872 680.877,223.673 681.25,229.5 C681.422,230.388 681.288,231.308 680.87,232.11 C680.278,232.806 679.46,233.27 678.56,233.42 C674.04,234.62 669.56,236.27 664.92,236.33 C659.56,236.41 652.82,236.97 647.46,237.04 C632.63,237.24 624.59,236.78 610.21,233.13 C609.439,232.995 608.712,232.676 608.09,232.2 C607.09,231.29 606.94,229.76 606.92,228.38 C606.67,201.59 616.72,175.78 620.35,149.23 C620.97,144.69 621.82,134.79 624.18,130.85 C625.77,128.22 633.67,128.35 641.43,129.2 C644.82,129.57 649.91,129.46 653.02,130.91 C655.79,132.21 656.56,133.07 657.58,135.91 C660.24,143.36 662.58,149.25 663.92,156.28 C666.62,170.23 671.06,180.63 675.19,195.62 Z" id="Path" fill="#D3D8E0"></path>
                <path d="M648.89,224.65 C649.307,225.273 649.848,225.804 650.48,226.208 C651.111,226.612 651.82,226.882 652.56,227 C654.043,227.234 655.551,227.257 657.04,227.07 C660.04,226.83 663.18,226.79 666.16,226.29 C667.07,222.29 664.06,221.29 660.81,221.52 C659.58,221.62 648.3,223.65 648.89,224.65 Z" id="Path" fill="#FFFFFF"></path>
                <path d="M646.79,204.94 C646.54,203.11 646.79,200.17 646.26,198.4 C645.33,195.4 642.62,169.32 642.26,166.23 C642.02,164.37 638.71,143.57 641.44,142.46 C642.356,142.117 643.333,141.964 644.31,142.01 L651.49,142.25 C653.59,146.46 662.06,192.63 662.21,197.33 C662.3,200.33 663.12,203.09 663.37,206.1 C663.696,208.116 663.833,210.158 663.78,212.2 C663.68,213.37 663.66,214.49 662.51,214.73 C658.91,215.47 652.23,217.15 650.14,215.73 C646.61,213.45 647.28,208.48 646.79,204.94 Z" id="Path" fill="#FFFFFF"></path>
                <path d="M639.8,121.15 C639.327,121.094 638.885,120.887 638.54,120.56 C638.312,120.258 638.137,119.92 638.02,119.56 C637.02,117.12 637.9,114.56 637.58,111.82 C636.98,107.133 637.32,102.374 638.58,97.8199 C638.76,97.2599 638.24,96.4999 638.65,96.1899 C638.948,95.9998 639.296,95.9024 639.65,95.9099 C643.331,95.7163 647.023,95.9512 650.65,96.6099 C650.933,96.6277 651.204,96.7286 651.43,96.8999 C652.02,97.4099 651.9,98.5299 651.73,99.4099 C650.42,106.13 650.41,113.67 650.42,120.52 C650.42,123.98 648.65,123.15 646.42,122.74 C643.66,122.31 642.59,121.75 639.8,121.15 Z" id="Path" fill="#D3D8E0"></path>
                <path d="M642.78,122.08 C645.383,123.512 648.412,123.966 651.32,123.36 C651.816,123.298 652.274,123.061 652.61,122.69 C652.852,122.315 653.009,121.892 653.07,121.45 C654.12,116.524 654.507,111.479 654.22,106.45 C654.062,104.862 654.038,103.263 654.15,101.67 C654.315,100.715 654.415,99.7491 654.45,98.7801 C654.473,98.3175 654.379,97.8565 654.178,97.4391 C653.978,97.0217 653.676,96.6611 653.3,96.3901 C652.949,96.2443 652.57,96.176 652.19,96.1901 C649.98,96.1001 646.06,95.0301 643.98,95.8701 C641.9,96.7101 642.47,100.5 642.36,103.01 C642.22,106.197 642.187,109.387 642.26,112.58 C642.28,113.69 642.05,121.64 642.78,122.08 Z" id="Path" fill="#FFFFFF"></path>
                <path d="M617.73,84.42 C626.28,81.48 635.6,82.2 644.59,83.1 C645.26,83.16 646.1,83.4 646.16,84.1 C645.16,84.6 643.75,84.35 643.1,85.25 C642.869,85.6942 642.681,86.1597 642.54,86.64 C641.92,87.93 640.19,88.14 638.75,88.15 C634.901,88.2325 631.051,88.0387 627.23,87.57 C623.88,87.08 620.12,87.28 617.73,84.42 Z" id="Path" fill="#FFFFFF"></path>
                <path d="M615.36,86.15 C615.286,86.7095 615.372,87.2785 615.607,87.7914 C615.843,88.3044 616.218,88.7406 616.69,89.05 C617.295,89.3726 617.951,89.5891 618.63,89.69 C632.203,92.417 646.17,92.5426 659.79,90.06 C661.064,89.931 662.273,89.4342 663.27,88.63 C664.17,87.74 664.42,86.06 663.43,85.25 C663.005,85.0053 662.535,84.8506 662.048,84.7955 C661.561,84.7405 661.068,84.7862 660.6,84.93 C652.592,86.2487 644.468,86.7313 636.36,86.37 C632.222,86.1937 628.096,85.7999 624,85.19 C621.69,84.83 616,82.32 615.36,86.15 Z" id="Path" fill="#D3D8E0"></path>
                <path d="M647,88.6398 C647.14,89.0898 647.15,89.3098 647.27,89.7598 C647.39,90.2098 647.93,90.2899 648.34,90.3699 C648.754,90.4215 649.174,90.3978 649.58,90.2999 C651.66,89.9299 653.35,89.7399 655.44,89.3699 C655.847,89.3456 656.244,89.2294 656.6,89.0298 C656.76,88.9298 656.99,88.9398 656.99,88.4398 L656.99,86.6698 C657.013,86.4412 656.956,86.2117 656.83,86.0198 C656.671,85.8815 656.47,85.8005 656.26,85.7898 C654.094,85.4334 651.887,85.3963 649.71,85.6798 C648.89,85.7798 647.51,85.7798 647.19,86.4898 C647.002,86.8123 646.888,87.1721 646.855,87.5437 C646.822,87.9153 646.872,88.2895 647,88.6398 Z" id="Path" fill="#FFFFFF"></path>
                <path d="M519.44,255.37 C521.44,250.22 521.76,244.58 526.71,241.09 C527.026,240.869 527.24,240.531 527.307,240.151 C527.373,239.771 527.286,239.381 527.065,239.065 C526.843,238.749 526.506,238.535 526.126,238.468 C525.746,238.402 525.355,238.489 525.04,238.71 C520.37,241.65 516.33,250.06 519.04,255.35 C519.11,255.5 519.36,255.57 519.44,255.35 L519.44,255.37 Z" id="Path" fill="#000000"></path>
                <path d="M525.25,249.94 C526.15,248.84 526.78,247.56 527.66,246.45 C528.692,245.321 529.827,244.29 531.05,243.37 C531.86,242.66 531.33,241.06 530.13,241.53 C527.23,242.66 524.13,246.62 524.84,249.81 C524.84,249.92 525.18,250.02 525.25,249.94 Z" id="Path" fill="#000000"></path>
                <path d="M529.54,248.7 C531.18,247.53 532.68,246.15 534.3,244.93 C534.442,244.839 534.564,244.718 534.658,244.577 C534.751,244.436 534.814,244.277 534.843,244.11 C534.872,243.943 534.865,243.772 534.824,243.608 C534.783,243.443 534.708,243.289 534.604,243.156 C534.501,243.022 534.37,242.911 534.221,242.831 C534.072,242.75 533.908,242.701 533.739,242.688 C533.57,242.674 533.401,242.696 533.241,242.751 C533.081,242.807 532.934,242.895 532.81,243.01 C531.025,244.373 529.781,246.326 529.3,248.52 C529.3,248.64 529.41,248.8 529.54,248.7 Z" id="Path" fill="#000000"></path>
                <path d="M551.24,250.8 C551.777,250.018 552.358,249.267 552.98,248.55 C553.71,247.87 554.65,247.49 555.39,246.83 C556.13,246.17 555.57,244.83 554.59,244.92 C552.41,245.21 549.92,248.09 550.2,250.37 C550.2,250.84 550.86,251.25 551.2,250.8 L551.24,250.8 Z" id="Path" fill="#000000"></path>
                <path d="M555.73,252.39 C556.762,251.601 557.657,250.649 558.38,249.57 C558.834,249.052 559.315,248.558 559.82,248.09 C560.34,247.62 560.82,247.33 560.96,246.61 C560.987,246.504 560.99,246.394 560.968,246.286 C560.947,246.179 560.901,246.079 560.834,245.992 C560.768,245.905 560.682,245.835 560.585,245.786 C560.487,245.737 560.379,245.711 560.27,245.71 C558.9,245.66 557.7,247.48 556.97,248.48 C556.24,249.48 555.3,250.94 555.54,252.31 C555.54,252.39 555.66,252.42 555.73,252.39 Z" id="Path" fill="#000000"></path>
                <path d="M562.29,259 C563.13,256.28 563.29,253.18 564.93,250.77 C565.78,249.5 566.93,249.31 567.98,248.4 C568.298,248.12 568.515,247.744 568.6,247.33 C568.635,247.09 568.604,246.845 568.51,246.621 C568.417,246.398 568.265,246.204 568.07,246.06 C566.02,244.31 562.91,248.06 562.07,249.64 C560.5,252.58 560.78,255.97 561.93,259 C561.946,259.034 561.972,259.062 562.004,259.082 C562.036,259.102 562.072,259.113 562.11,259.113 C562.147,259.113 562.184,259.102 562.216,259.082 C562.248,259.062 562.274,259.034 562.29,259 Z" id="Path" fill="#000000"></path>
                <path d="M568.45,253.22 C569.2,253.02 569.63,252.04 570.13,251.5 C570.63,250.96 571.41,249.9 572.19,249.74 C572.329,249.7 572.455,249.624 572.556,249.521 C572.657,249.417 572.73,249.289 572.767,249.149 C572.805,249.01 572.805,248.863 572.769,248.722 C572.732,248.582 572.66,248.454 572.56,248.35 C571.56,247.2 569.93,248.95 569.3,249.75 C568.67,250.55 567.66,252.27 568.3,253.18 C568.317,253.19 568.336,253.195 568.355,253.195 C568.374,253.195 568.393,253.19 568.41,253.18 L568.45,253.22 Z" id="Path" fill="#000000"></path>
                <path d="M574.72,253.94 C576.28,252.71 577.34,251.11 579.26,250.35 C580.74,249.77 580.1,247.35 578.59,247.94 C576.42,248.8 573.59,251.19 574.43,253.87 C574.438,253.899 574.454,253.926 574.476,253.947 C574.497,253.968 574.525,253.983 574.554,253.991 C574.584,253.998 574.615,253.997 574.644,253.988 C574.673,253.979 574.699,253.962 574.72,253.94 Z" id="Path" fill="#000000"></path>
                <path d="M593.43,252.53 C592.19,253.48 590.69,255.53 591.15,257.17 C591.17,257.242 591.207,257.309 591.257,257.365 C591.307,257.421 591.369,257.464 591.439,257.492 C591.508,257.52 591.583,257.532 591.658,257.526 C591.733,257.521 591.805,257.498 591.87,257.46 C592.96,256.63 593.64,255.38 594.79,254.54 C595.398,254.101 596.073,253.763 596.79,253.54 L593.43,252.53 Z" id="Path" fill="#000000"></path>
                <path d="M704.67,177.5 C708.3,178.75 712.52,178.5 716.29,178.18 C719.64,177.88 723.57,177.62 726.4,175.73 C726.528,175.649 726.627,175.53 726.682,175.389 C726.738,175.247 726.746,175.092 726.707,174.946 C726.668,174.8 726.583,174.67 726.465,174.575 C726.347,174.48 726.201,174.426 726.05,174.42 C722.6,174.24 718.98,175.57 715.53,175.91 C712.08,176.25 708.36,175.91 704.83,176.33 C704.689,176.336 704.555,176.391 704.452,176.486 C704.348,176.581 704.28,176.709 704.261,176.848 C704.242,176.987 704.273,177.129 704.347,177.248 C704.422,177.367 704.536,177.456 704.67,177.5 Z" id="Path" fill="#000000"></path>
                <path d="M712.2,114.92 C712.342,114.906 712.484,114.934 712.61,115 C712.683,115.056 712.744,115.127 712.789,115.208 C712.834,115.289 712.861,115.378 712.87,115.47 C712.993,116.09 713.067,116.719 713.09,117.35 L713.68,127.03 C713.733,127.178 713.741,127.338 713.704,127.49 C713.667,127.642 713.585,127.78 713.47,127.887 C713.355,127.994 713.211,128.064 713.057,128.089 C712.902,128.115 712.743,128.094 712.6,128.03 L710.39,127.87 C710.39,126.6 710.29,125.4 710.18,124.13 C710.06,122.58 710.18,121.04 710.18,119.48 C710.18,118.37 709.94,116.23 710.02,115.62 C710.18,114.29 711,114.93 712.2,114.92 Z" id="Path" fill="#FFFFFF"></path>
                <path d="M719.78,115 C719.78,115 719.89,116 719.99,116.5 C720.661,119.634 721.132,122.807 721.4,126 C721.46,126.34 721.411,126.69 721.26,127 C720.93,127.5 719.52,127.68 719.52,127.38 C719.52,126.78 719.17,126.68 719.01,126.11 C718.796,125.4 718.635,124.675 718.53,123.94 C718.53,123.32 718.38,122.76 718.34,122.14 C718.315,121.393 718.245,120.649 718.13,119.91 C717.661,118.335 717.542,116.676 717.78,115.05 C718.443,114.966 719.113,114.949 719.78,115 Z" id="Path" fill="#FFFFFF"></path>
                <path d="M703.83,114.45 C704.387,116.997 704.625,119.604 704.54,122.21 L704.59,126.99 C704.59,127.27 704.59,127.6 704.34,127.74 C704.163,127.827 703.96,127.845 703.77,127.79 L701.51,127.44 C701.327,127.428 701.15,127.366 701,127.26 C700.827,127.065 700.738,126.81 700.75,126.55 C700.568,123.834 700.542,121.109 700.67,118.39 C700.67,117.5 700.47,115.26 701.02,114.54 C701.57,113.82 703.05,114.36 703.83,114.45 Z" id="Path" fill="#FFFFFF"></path>
                <path d="M60.9609,72.4297 L60.9609,68.3516 L85.0078,68.3516 L85.0078,72.4297 L75.2578,72.4297 L75.2578,101 L70.7109,101 L70.7109,72.4297 L60.9609,72.4297 Z M88.6641,88.7656 C88.6641,86.9062 88.8906,85.1875 89.3438,83.6094 C89.8125,82.0156 90.5,80.6641 91.4062,79.5547 C92.3281,78.4297 93.4375,77.5469 94.7344,76.9062 C96.0312,76.2656 97.5234,75.9453 99.2109,75.9453 C100.977,75.9453 102.516,76.25 103.828,76.8594 C105.141,77.4688 106.227,78.3047 107.086,79.3672 C107.945,80.4141 108.594,81.6484 109.031,83.0703 C109.469,84.4922 109.688,86.0234 109.688,87.6641 L109.688,89.9609 L93.2109,89.9609 L93.2109,92.5625 C93.2109,93.4531 93.375,94.2422 93.7031,94.9297 C94.0469,95.6172 94.5078,96.2031 95.0859,96.6875 C95.6641,97.1562 96.3125,97.5156 97.0312,97.7656 C97.75,98 98.4922,98.1172 99.2578,98.1172 C100.789,98.1172 102.117,97.7266 103.242,96.9453 C104.367,96.1641 105.008,94.9219 105.164,93.2188 L109.5,93.2188 C109.406,94.5312 109.062,95.7031 108.469,96.7344 C107.875,97.75 107.102,98.6172 106.148,99.3359 C105.211,100.055 104.148,100.609 102.961,101 C101.773,101.391 100.523,101.586 99.2109,101.586 C97.4453,101.586 95.8984,101.266 94.5703,100.625 C93.2578,99.9844 92.1562,99.1016 91.2656,97.9766 C90.3906,96.8516 89.7344,95.5078 89.2969,93.9453 C88.875,92.3828 88.6641,90.6562 88.6641,88.7656 Z M93.2109,86.5156 L105.211,86.5156 L105.211,85.1562 C105.211,84.2656 105.047,83.4609 104.719,82.7422 C104.406,82.0234 103.969,81.4141 103.406,80.9141 C102.859,80.4141 102.219,80.0391 101.484,79.7891 C100.766,79.5234 100.008,79.3906 99.2109,79.3906 C98.4141,79.3906 97.6562,79.5234 96.9375,79.7891 C96.2188,80.0391 95.5781,80.4141 95.0156,80.9141 C94.4531,81.4141 94.0078,82.0234 93.6797,82.7422 C93.3672,83.4609 93.2109,84.2656 93.2109,85.1562 L93.2109,86.5156 Z M114.656,93.2656 L118.992,93.2656 C119.055,94.8906 119.633,96.1094 120.727,96.9219 C121.836,97.7188 123.141,98.1172 124.641,98.1172 C126.078,98.1172 127.328,97.7969 128.391,97.1562 C129.453,96.5156 129.984,95.5859 129.984,94.3672 C129.984,93.3828 129.664,92.5938 129.023,92 C128.383,91.4062 127.242,90.9531 125.602,90.6406 L121.57,89.8203 C119.555,89.3984 118,88.625 116.906,87.5 C115.828,86.3594 115.289,84.8281 115.289,82.9062 C115.289,81.9531 115.5,81.0547 115.922,80.2109 C116.359,79.3516 116.977,78.6094 117.773,77.9844 C118.586,77.3594 119.531,76.8672 120.609,76.5078 C121.703,76.1328 122.922,75.9453 124.266,75.9453 C125.422,75.9453 126.547,76.1016 127.641,76.4141 C128.75,76.7109 129.734,77.1797 130.594,77.8203 C131.469,78.4609 132.164,79.2812 132.68,80.2812 C133.211,81.2656 133.492,82.4453 133.523,83.8203 L129.211,83.8203 C129.148,82.1953 128.641,81.0547 127.688,80.3984 C126.75,79.7266 125.625,79.3906 124.312,79.3906 C122.969,79.3906 121.828,79.7109 120.891,80.3516 C119.969,80.9922 119.508,81.8281 119.508,82.8594 C119.508,83.8125 119.781,84.5547 120.328,85.0859 C120.875,85.6172 121.758,86.0078 122.977,86.2578 L127.102,87.125 C129.539,87.6406 131.344,88.4766 132.516,89.6328 C133.703,90.7734 134.297,92.3359 134.297,94.3203 C134.297,95.3516 134.062,96.3125 133.594,97.2031 C133.141,98.0781 132.477,98.8359 131.602,99.4766 C130.742,100.102 129.719,100.609 128.531,101 C127.344,101.391 126.031,101.586 124.594,101.586 C123.219,101.586 121.93,101.406 120.727,101.047 C119.539,100.703 118.492,100.188 117.586,99.5 C116.695,98.7969 115.992,97.9297 115.477,96.8984 C114.961,95.8516 114.688,94.6406 114.656,93.2656 Z M138.328,80.2109 L138.328,76.5312 L142.453,76.5312 L142.453,68.3516 L146.719,68.3516 L146.719,76.5312 L152.344,76.5312 L152.344,80.2109 L146.719,80.2109 L146.719,97.2969 L152.344,97.2969 L152.344,101 L142.453,101 L142.453,80.2109 L138.328,80.2109 Z M158.344,101 L158.344,76.5312 L162.656,76.5312 L162.656,80.5625 C163.328,79.125 164.25,78 165.422,77.1875 C166.594,76.3594 168.109,75.9453 169.969,75.9453 C171.156,75.9453 172.234,76.1094 173.203,76.4375 C174.172,76.75 175.008,77.2578 175.711,77.9609 C176.414,78.6641 176.961,79.5703 177.352,80.6797 C177.742,81.7734 177.938,83.1094 177.938,84.6875 L177.938,101 L173.602,101 L173.602,85.1562 C173.602,83.3594 173.258,81.9531 172.57,80.9375 C171.883,79.9062 170.609,79.3906 168.75,79.3906 C167.859,79.3906 167.047,79.5703 166.312,79.9297 C165.578,80.2734 164.938,80.7734 164.391,81.4297 C163.844,82.0859 163.414,82.8672 163.102,83.7734 C162.805,84.6641 162.656,85.6406 162.656,86.7031 L162.656,101 L158.344,101 Z M184.43,88.7656 C184.43,86.9062 184.656,85.1875 185.109,83.6094 C185.578,82.0156 186.266,80.6641 187.172,79.5547 C188.094,78.4297 189.203,77.5469 190.5,76.9062 C191.797,76.2656 193.289,75.9453 194.977,75.9453 C196.742,75.9453 198.281,76.25 199.594,76.8594 C200.906,77.4688 201.992,78.3047 202.852,79.3672 C203.711,80.4141 204.359,81.6484 204.797,83.0703 C205.234,84.4922 205.453,86.0234 205.453,87.6641 L205.453,89.9609 L188.977,89.9609 L188.977,92.5625 C188.977,93.4531 189.141,94.2422 189.469,94.9297 C189.812,95.6172 190.273,96.2031 190.852,96.6875 C191.43,97.1562 192.078,97.5156 192.797,97.7656 C193.516,98 194.258,98.1172 195.023,98.1172 C196.555,98.1172 197.883,97.7266 199.008,96.9453 C200.133,96.1641 200.773,94.9219 200.93,93.2188 L205.266,93.2188 C205.172,94.5312 204.828,95.7031 204.234,96.7344 C203.641,97.75 202.867,98.6172 201.914,99.3359 C200.977,100.055 199.914,100.609 198.727,101 C197.539,101.391 196.289,101.586 194.977,101.586 C193.211,101.586 191.664,101.266 190.336,100.625 C189.023,99.9844 187.922,99.1016 187.031,97.9766 C186.156,96.8516 185.5,95.5078 185.062,93.9453 C184.641,92.3828 184.43,90.6562 184.43,88.7656 Z M188.977,86.5156 L200.977,86.5156 L200.977,85.1562 C200.977,84.2656 200.812,83.4609 200.484,82.7422 C200.172,82.0234 199.734,81.4141 199.172,80.9141 C198.625,80.4141 197.984,80.0391 197.25,79.7891 C196.531,79.5234 195.773,79.3906 194.977,79.3906 C194.18,79.3906 193.422,79.5234 192.703,79.7891 C191.984,80.0391 191.344,80.4141 190.781,80.9141 C190.219,81.4141 189.773,82.0234 189.445,82.7422 C189.133,83.4609 188.977,84.2656 188.977,85.1562 L188.977,86.5156 Z M209.672,80.2109 L209.672,76.5312 L213.797,76.5312 L213.797,68.3516 L218.062,68.3516 L218.062,76.5312 L223.688,76.5312 L223.688,80.2109 L218.062,80.2109 L218.062,97.2969 L223.688,97.2969 L223.688,101 L213.797,101 L213.797,80.2109 L209.672,80.2109 Z M242.297,101 L242.297,68.3516 L254.602,68.3516 C256.305,68.3516 257.805,68.5469 259.102,68.9375 C260.414,69.3281 261.5,69.9219 262.359,70.7188 C263.219,71.5156 263.844,72.5 264.234,73.6719 C264.625,74.8281 264.82,76.1797 264.82,77.7266 C264.82,79.1641 264.633,80.4688 264.258,81.6406 C263.898,82.7969 263.305,83.7969 262.477,84.6406 C261.836,85.2812 261.086,85.8125 260.227,86.2344 C259.383,86.6406 258.32,86.9219 257.039,87.0781 L265.102,101 L259.875,101 L252.234,87.2188 L246.867,87.2188 L246.867,101 L242.297,101 Z M246.867,83.3281 L256.266,83.3281 C257.484,83.3281 258.414,82.9609 259.055,82.2266 C259.695,81.4922 260.016,80.6172 260.016,79.6016 L260.016,75.9922 C260.016,74.8672 259.68,73.9922 259.008,73.3672 C258.336,72.7422 257.422,72.4297 256.266,72.4297 L246.867,72.4297 L246.867,83.3281 Z M270.492,88.7656 C270.492,86.9062 270.719,85.1875 271.172,83.6094 C271.641,82.0156 272.328,80.6641 273.234,79.5547 C274.156,78.4297 275.266,77.5469 276.562,76.9062 C277.859,76.2656 279.352,75.9453 281.039,75.9453 C282.805,75.9453 284.344,76.25 285.656,76.8594 C286.969,77.4688 288.055,78.3047 288.914,79.3672 C289.773,80.4141 290.422,81.6484 290.859,83.0703 C291.297,84.4922 291.516,86.0234 291.516,87.6641 L291.516,89.9609 L275.039,89.9609 L275.039,92.5625 C275.039,93.4531 275.203,94.2422 275.531,94.9297 C275.875,95.6172 276.336,96.2031 276.914,96.6875 C277.492,97.1562 278.141,97.5156 278.859,97.7656 C279.578,98 280.32,98.1172 281.086,98.1172 C282.617,98.1172 283.945,97.7266 285.07,96.9453 C286.195,96.1641 286.836,94.9219 286.992,93.2188 L291.328,93.2188 C291.234,94.5312 290.891,95.7031 290.297,96.7344 C289.703,97.75 288.93,98.6172 287.977,99.3359 C287.039,100.055 285.977,100.609 284.789,101 C283.602,101.391 282.352,101.586 281.039,101.586 C279.273,101.586 277.727,101.266 276.398,100.625 C275.086,99.9844 273.984,99.1016 273.094,97.9766 C272.219,96.8516 271.562,95.5078 271.125,93.9453 C270.703,92.3828 270.492,90.6562 270.492,88.7656 Z M275.039,86.5156 L287.039,86.5156 L287.039,85.1562 C287.039,84.2656 286.875,83.4609 286.547,82.7422 C286.234,82.0234 285.797,81.4141 285.234,80.9141 C284.688,80.4141 284.047,80.0391 283.312,79.7891 C282.594,79.5234 281.836,79.3906 281.039,79.3906 C280.242,79.3906 279.484,79.5234 278.766,79.7891 C278.047,80.0391 277.406,80.4141 276.844,80.9141 C276.281,81.4141 275.836,82.0234 275.508,82.7422 C275.195,83.4609 275.039,84.2656 275.039,85.1562 L275.039,86.5156 Z M298.172,101 L298.172,68.3516 L302.484,68.3516 L302.484,101 L298.172,101 Z M309.258,88.7656 C309.258,86.9062 309.484,85.1875 309.938,83.6094 C310.406,82.0156 311.094,80.6641 312,79.5547 C312.922,78.4297 314.031,77.5469 315.328,76.9062 C316.625,76.2656 318.117,75.9453 319.805,75.9453 C321.57,75.9453 323.109,76.25 324.422,76.8594 C325.734,77.4688 326.82,78.3047 327.68,79.3672 C328.539,80.4141 329.188,81.6484 329.625,83.0703 C330.062,84.4922 330.281,86.0234 330.281,87.6641 L330.281,89.9609 L313.805,89.9609 L313.805,92.5625 C313.805,93.4531 313.969,94.2422 314.297,94.9297 C314.641,95.6172 315.102,96.2031 315.68,96.6875 C316.258,97.1562 316.906,97.5156 317.625,97.7656 C318.344,98 319.086,98.1172 319.852,98.1172 C321.383,98.1172 322.711,97.7266 323.836,96.9453 C324.961,96.1641 325.602,94.9219 325.758,93.2188 L330.094,93.2188 C330,94.5312 329.656,95.7031 329.062,96.7344 C328.469,97.75 327.695,98.6172 326.742,99.3359 C325.805,100.055 324.742,100.609 323.555,101 C322.367,101.391 321.117,101.586 319.805,101.586 C318.039,101.586 316.492,101.266 315.164,100.625 C313.852,99.9844 312.75,99.1016 311.859,97.9766 C310.984,96.8516 310.328,95.5078 309.891,93.9453 C309.469,92.3828 309.258,90.6562 309.258,88.7656 Z M313.805,86.5156 L325.805,86.5156 L325.805,85.1562 C325.805,84.2656 325.641,83.4609 325.312,82.7422 C325,82.0234 324.562,81.4141 324,80.9141 C323.453,80.4141 322.812,80.0391 322.078,79.7891 C321.359,79.5234 320.602,79.3906 319.805,79.3906 C319.008,79.3906 318.25,79.5234 317.531,79.7891 C316.812,80.0391 316.172,80.4141 315.609,80.9141 C315.047,81.4141 314.602,82.0234 314.273,82.7422 C313.961,83.4609 313.805,84.2656 313.805,85.1562 L313.805,86.5156 Z M335.297,94.2734 C335.297,92.3516 335.906,90.7031 337.125,89.3281 C338.344,87.9531 340.172,87.1562 342.609,86.9375 L350.578,86.2109 L350.578,84.2422 C350.578,83.2891 350.453,82.5 350.203,81.875 C349.969,81.25 349.625,80.7578 349.172,80.3984 C348.734,80.0234 348.203,79.7656 347.578,79.625 C346.953,79.4688 346.258,79.3906 345.492,79.3906 C343.961,79.3906 342.734,79.7344 341.812,80.4219 C340.906,81.1094 340.453,82.2422 340.453,83.8203 L336.117,83.8203 C336.117,82.6641 336.367,81.6094 336.867,80.6562 C337.367,79.6875 338.039,78.8516 338.883,78.1484 C339.727,77.4453 340.719,76.9062 341.859,76.5312 C343,76.1406 344.227,75.9453 345.539,75.9453 C346.852,75.9453 348.07,76.1172 349.195,76.4609 C350.336,76.7891 351.32,77.2891 352.148,77.9609 C352.992,78.6328 353.641,79.5 354.094,80.5625 C354.562,81.6094 354.797,82.8516 354.797,84.2891 L354.797,97.2969 L358.453,97.2969 L358.453,101 L351.141,101 L351.047,96.4766 L350.859,96.4766 C350.188,98.2109 349.195,99.5 347.883,100.344 C346.57,101.172 345,101.586 343.172,101.586 C341.953,101.586 340.852,101.398 339.867,101.023 C338.883,100.648 338.031,100.094 337.312,99.3594 C336.672,98.7188 336.172,97.9531 335.812,97.0625 C335.469,96.1719 335.297,95.2422 335.297,94.2734 Z M339.867,94.8594 C339.867,95.9844 340.258,96.8125 341.039,97.3438 C341.82,97.8594 342.898,98.1172 344.273,98.1172 C346.227,98.1172 347.766,97.4219 348.891,96.0312 C350.016,94.6406 350.578,92.8438 350.578,90.6406 L350.578,89.5391 L341.883,90.3359 C340.992,90.3984 340.43,90.6328 340.195,91.0391 C339.977,91.4453 339.867,92 339.867,92.7031 L339.867,94.8594 Z M361.688,93.2656 L366.023,93.2656 C366.086,94.8906 366.664,96.1094 367.758,96.9219 C368.867,97.7188 370.172,98.1172 371.672,98.1172 C373.109,98.1172 374.359,97.7969 375.422,97.1562 C376.484,96.5156 377.016,95.5859 377.016,94.3672 C377.016,93.3828 376.695,92.5938 376.055,92 C375.414,91.4062 374.273,90.9531 372.633,90.6406 L368.602,89.8203 C366.586,89.3984 365.031,88.625 363.938,87.5 C362.859,86.3594 362.32,84.8281 362.32,82.9062 C362.32,81.9531 362.531,81.0547 362.953,80.2109 C363.391,79.3516 364.008,78.6094 364.805,77.9844 C365.617,77.3594 366.562,76.8672 367.641,76.5078 C368.734,76.1328 369.953,75.9453 371.297,75.9453 C372.453,75.9453 373.578,76.1016 374.672,76.4141 C375.781,76.7109 376.766,77.1797 377.625,77.8203 C378.5,78.4609 379.195,79.2812 379.711,80.2812 C380.242,81.2656 380.523,82.4453 380.555,83.8203 L376.242,83.8203 C376.18,82.1953 375.672,81.0547 374.719,80.3984 C373.781,79.7266 372.656,79.3906 371.344,79.3906 C370,79.3906 368.859,79.7109 367.922,80.3516 C367,80.9922 366.539,81.8281 366.539,82.8594 C366.539,83.8125 366.812,84.5547 367.359,85.0859 C367.906,85.6172 368.789,86.0078 370.008,86.2578 L374.133,87.125 C376.57,87.6406 378.375,88.4766 379.547,89.6328 C380.734,90.7734 381.328,92.3359 381.328,94.3203 C381.328,95.3516 381.094,96.3125 380.625,97.2031 C380.172,98.0781 379.508,98.8359 378.633,99.4766 C377.773,100.102 376.75,100.609 375.562,101 C374.375,101.391 373.062,101.586 371.625,101.586 C370.25,101.586 368.961,101.406 367.758,101.047 C366.57,100.703 365.523,100.188 364.617,99.5 C363.727,98.7969 363.023,97.9297 362.508,96.8984 C361.992,95.8516 361.719,94.6406 361.688,93.2656 Z M386.414,88.7656 C386.414,86.9062 386.641,85.1875 387.094,83.6094 C387.562,82.0156 388.25,80.6641 389.156,79.5547 C390.078,78.4297 391.188,77.5469 392.484,76.9062 C393.781,76.2656 395.273,75.9453 396.961,75.9453 C398.727,75.9453 400.266,76.25 401.578,76.8594 C402.891,77.4688 403.977,78.3047 404.836,79.3672 C405.695,80.4141 406.344,81.6484 406.781,83.0703 C407.219,84.4922 407.438,86.0234 407.438,87.6641 L407.438,89.9609 L390.961,89.9609 L390.961,92.5625 C390.961,93.4531 391.125,94.2422 391.453,94.9297 C391.797,95.6172 392.258,96.2031 392.836,96.6875 C393.414,97.1562 394.062,97.5156 394.781,97.7656 C395.5,98 396.242,98.1172 397.008,98.1172 C398.539,98.1172 399.867,97.7266 400.992,96.9453 C402.117,96.1641 402.758,94.9219 402.914,93.2188 L407.25,93.2188 C407.156,94.5312 406.812,95.7031 406.219,96.7344 C405.625,97.75 404.852,98.6172 403.898,99.3359 C402.961,100.055 401.898,100.609 400.711,101 C399.523,101.391 398.273,101.586 396.961,101.586 C395.195,101.586 393.648,101.266 392.32,100.625 C391.008,99.9844 389.906,99.1016 389.016,97.9766 C388.141,96.8516 387.484,95.5078 387.047,93.9453 C386.625,92.3828 386.414,90.6562 386.414,88.7656 Z M390.961,86.5156 L402.961,86.5156 L402.961,85.1562 C402.961,84.2656 402.797,83.4609 402.469,82.7422 C402.156,82.0234 401.719,81.4141 401.156,80.9141 C400.609,80.4141 399.969,80.0391 399.234,79.7891 C398.516,79.5234 397.758,79.3906 396.961,79.3906 C396.164,79.3906 395.406,79.5234 394.688,79.7891 C393.969,80.0391 393.328,80.4141 392.766,80.9141 C392.203,81.4141 391.758,82.0234 391.43,82.7422 C391.117,83.4609 390.961,84.2656 390.961,85.1562 L390.961,86.5156 Z M412.406,93.2656 L416.742,93.2656 C416.805,94.8906 417.383,96.1094 418.477,96.9219 C419.586,97.7188 420.891,98.1172 422.391,98.1172 C423.828,98.1172 425.078,97.7969 426.141,97.1562 C427.203,96.5156 427.734,95.5859 427.734,94.3672 C427.734,93.3828 427.414,92.5938 426.773,92 C426.133,91.4062 424.992,90.9531 423.352,90.6406 L419.32,89.8203 C417.305,89.3984 415.75,88.625 414.656,87.5 C413.578,86.3594 413.039,84.8281 413.039,82.9062 C413.039,81.9531 413.25,81.0547 413.672,80.2109 C414.109,79.3516 414.727,78.6094 415.523,77.9844 C416.336,77.3594 417.281,76.8672 418.359,76.5078 C419.453,76.1328 420.672,75.9453 422.016,75.9453 C423.172,75.9453 424.297,76.1016 425.391,76.4141 C426.5,76.7109 427.484,77.1797 428.344,77.8203 C429.219,78.4609 429.914,79.2812 430.43,80.2812 C430.961,81.2656 431.242,82.4453 431.273,83.8203 L426.961,83.8203 C426.898,82.1953 426.391,81.0547 425.438,80.3984 C424.5,79.7266 423.375,79.3906 422.062,79.3906 C420.719,79.3906 419.578,79.7109 418.641,80.3516 C417.719,80.9922 417.258,81.8281 417.258,82.8594 C417.258,83.8125 417.531,84.5547 418.078,85.0859 C418.625,85.6172 419.508,86.0078 420.727,86.2578 L424.852,87.125 C427.289,87.6406 429.094,88.4766 430.266,89.6328 C431.453,90.7734 432.047,92.3359 432.047,94.3203 C432.047,95.3516 431.812,96.3125 431.344,97.2031 C430.891,98.0781 430.227,98.8359 429.352,99.4766 C428.492,100.102 427.469,100.609 426.281,101 C425.094,101.391 423.781,101.586 422.344,101.586 C420.969,101.586 419.68,101.406 418.477,101.047 C417.289,100.703 416.242,100.188 415.336,99.5 C414.445,98.7969 413.742,97.9297 413.227,96.8984 C412.711,95.8516 412.438,94.6406 412.406,93.2656 Z" id="Shape" fill="#000000"></path>
                <path d="M61.4091,145 L68.2273,145 L68.2273,143.75 L62.8182,143.75 L62.8182,133.364 L61.4091,133.364 L61.4091,145 Z M73.8864,145.182 C75.6591,145.182 76.9545,144.295 77.3636,142.977 L76.0682,142.614 C75.7273,143.523 74.9375,143.977 73.8864,143.977 C72.3125,143.977 71.2273,142.96 71.1648,141.091 L77.5,141.091 L77.5,140.523 C77.5,137.273 75.5682,136.159 73.75,136.159 C71.3864,136.159 69.8182,138.023 69.8182,140.705 C69.8182,143.386 71.3636,145.182 73.8864,145.182 Z M71.1648,139.932 C71.2557,138.574 72.2159,137.364 73.75,137.364 C75.2045,137.364 76.1364,138.455 76.1364,139.932 L71.1648,139.932 Z M82.108,145.205 C83.6307,145.205 84.4261,144.386 84.6989,143.818 L84.767,143.818 L84.767,145 L86.108,145 L86.108,139.25 C86.108,136.477 83.9943,136.159 82.8807,136.159 C81.5625,136.159 80.0625,136.614 79.3807,138.205 L80.6534,138.659 C80.9489,138.023 81.6477,137.341 82.9261,137.341 C84.1591,137.341 84.767,137.994 84.767,139.114 L84.767,139.159 C84.767,139.807 84.108,139.75 82.517,139.955 C80.8977,140.165 79.1307,140.523 79.1307,142.523 C79.1307,144.227 80.4489,145.205 82.108,145.205 Z M82.3125,144 C81.2443,144 80.4716,143.523 80.4716,142.591 C80.4716,141.568 81.4034,141.25 82.4489,141.114 C83.017,141.045 84.5398,140.886 84.767,140.614 L84.767,141.841 C84.767,142.932 83.9034,144 82.3125,144 Z M88.5554,145 L89.8963,145 L89.8963,139.477 C89.8963,138.295 90.8281,137.432 92.1009,137.432 C92.4588,137.432 92.8281,137.5 92.919,137.523 L92.919,136.159 C92.7656,136.148 92.4134,136.136 92.2145,136.136 C91.169,136.136 90.2599,136.727 89.9418,137.591 L89.8509,137.591 L89.8509,136.273 L88.5554,136.273 L88.5554,145 Z M95.8494,139.75 C95.8494,138.227 96.7926,137.364 98.0767,137.364 C99.321,137.364 100.077,138.176 100.077,139.545 L100.077,145 L101.418,145 L101.418,139.455 C101.418,137.227 100.23,136.159 98.4631,136.159 C97.1449,136.159 96.3267,136.75 95.9176,137.636 L95.804,137.636 L95.804,136.273 L94.5085,136.273 L94.5085,145 L95.8494,145 L95.8494,139.75 Z M110.936,145.205 C112.459,145.205 113.254,144.386 113.527,143.818 L113.595,143.818 L113.595,145 L114.936,145 L114.936,139.25 C114.936,136.477 112.822,136.159 111.709,136.159 C110.391,136.159 108.891,136.614 108.209,138.205 L109.482,138.659 C109.777,138.023 110.476,137.341 111.754,137.341 C112.987,137.341 113.595,137.994 113.595,139.114 L113.595,139.159 C113.595,139.807 112.936,139.75 111.345,139.955 C109.726,140.165 107.959,140.523 107.959,142.523 C107.959,144.227 109.277,145.205 110.936,145.205 Z M111.141,144 C110.072,144 109.3,143.523 109.3,142.591 C109.3,141.568 110.232,141.25 111.277,141.114 C111.845,141.045 113.368,140.886 113.595,140.614 L113.595,141.841 C113.595,142.932 112.732,144 111.141,144 Z M117.565,145 L118.861,145 L118.861,143.659 L119.02,143.659 C119.315,144.136 119.884,145.182 121.565,145.182 C123.747,145.182 125.27,143.432 125.27,140.659 C125.27,137.909 123.747,136.159 121.543,136.159 C119.838,136.159 119.315,137.205 119.02,137.659 L118.906,137.659 L118.906,133.364 L117.565,133.364 L117.565,145 Z M118.884,140.636 C118.884,138.682 119.747,137.364 121.384,137.364 C123.088,137.364 123.929,138.795 123.929,140.636 C123.929,142.5 123.065,143.977 121.384,143.977 C119.77,143.977 118.884,142.614 118.884,140.636 Z M130.866,145.182 C133.23,145.182 134.821,143.386 134.821,140.682 C134.821,137.955 133.23,136.159 130.866,136.159 C128.503,136.159 126.912,137.955 126.912,140.682 C126.912,143.386 128.503,145.182 130.866,145.182 Z M130.866,143.977 C129.071,143.977 128.253,142.432 128.253,140.682 C128.253,138.932 129.071,137.364 130.866,137.364 C132.662,137.364 133.48,138.932 133.48,140.682 C133.48,142.432 132.662,143.977 130.866,143.977 Z M142.368,141.432 C142.368,143.068 141.118,143.818 140.118,143.818 C139.004,143.818 138.209,143 138.209,141.727 L138.209,136.273 L136.868,136.273 L136.868,141.818 C136.868,144.045 138.05,145.114 139.686,145.114 C141.004,145.114 141.868,144.409 142.277,143.523 L142.368,143.523 L142.368,145 L143.709,145 L143.709,136.273 L142.368,136.273 L142.368,141.432 Z M149.96,136.273 L148.097,136.273 L148.097,134.182 L146.756,134.182 L146.756,136.273 L145.438,136.273 L145.438,137.409 L146.756,137.409 L146.756,142.864 C146.756,144.386 147.983,145.114 149.119,145.114 C149.619,145.114 149.938,145.023 150.119,144.955 L149.847,143.75 C149.733,143.773 149.551,143.818 149.256,143.818 C148.665,143.818 148.097,143.636 148.097,142.5 L148.097,137.409 L149.96,137.409 L149.96,136.273 Z M156.477,148.273 L157.818,148.273 L157.818,143.659 L157.932,143.659 C158.227,144.136 158.795,145.182 160.477,145.182 C162.659,145.182 164.182,143.432 164.182,140.659 C164.182,137.909 162.659,136.159 160.455,136.159 C158.75,136.159 158.227,137.205 157.932,137.659 L157.773,137.659 L157.773,136.273 L156.477,136.273 L156.477,148.273 Z M157.795,140.636 C157.795,138.682 158.659,137.364 160.295,137.364 C162,137.364 162.841,138.795 162.841,140.636 C162.841,142.5 161.977,143.977 160.295,143.977 C158.682,143.977 157.795,142.614 157.795,140.636 Z M167.568,133.364 L166.227,133.364 L166.227,145 L167.568,145 L167.568,133.364 Z M172.592,145.205 C174.115,145.205 174.911,144.386 175.183,143.818 L175.251,143.818 L175.251,145 L176.592,145 L176.592,139.25 C176.592,136.477 174.479,136.159 173.365,136.159 C172.047,136.159 170.547,136.614 169.865,138.205 L171.138,138.659 C171.433,138.023 172.132,137.341 173.411,137.341 C174.643,137.341 175.251,137.994 175.251,139.114 L175.251,139.159 C175.251,139.807 174.592,139.75 173.001,139.955 C171.382,140.165 169.615,140.523 169.615,142.523 C169.615,144.227 170.933,145.205 172.592,145.205 Z M172.797,144 C171.729,144 170.956,143.523 170.956,142.591 C170.956,141.568 171.888,141.25 172.933,141.114 C173.501,141.045 175.024,140.886 175.251,140.614 L175.251,141.841 C175.251,142.932 174.388,144 172.797,144 Z M180.381,139.75 C180.381,138.227 181.324,137.364 182.608,137.364 C183.852,137.364 184.608,138.176 184.608,139.545 L184.608,145 L185.949,145 L185.949,139.455 C185.949,137.227 184.761,136.159 182.994,136.159 C181.676,136.159 180.858,136.75 180.449,137.636 L180.335,137.636 L180.335,136.273 L179.04,136.273 L179.04,145 L180.381,145 L180.381,139.75 Z M194.581,138.227 C194.161,136.989 193.217,136.159 191.49,136.159 C189.649,136.159 188.286,137.205 188.286,138.682 C188.286,139.886 189.001,140.693 190.604,141.068 L192.058,141.409 C192.939,141.614 193.354,142.034 193.354,142.636 C193.354,143.386 192.558,144 191.308,144 C190.212,144 189.524,143.528 189.286,142.591 L188.013,142.909 C188.325,144.392 189.547,145.182 191.331,145.182 C193.359,145.182 194.74,144.074 194.74,142.568 C194.74,141.352 193.979,140.585 192.422,140.205 L191.126,139.886 C190.092,139.631 189.626,139.284 189.626,138.614 C189.626,137.864 190.422,137.318 191.49,137.318 C192.661,137.318 193.143,137.966 193.376,138.568 L194.581,138.227 Z M203.827,145.205 C205.349,145.205 206.145,144.386 206.418,143.818 L206.486,143.818 L206.486,145 L207.827,145 L207.827,139.25 C207.827,136.477 205.713,136.159 204.599,136.159 C203.281,136.159 201.781,136.614 201.099,138.205 L202.372,138.659 C202.668,138.023 203.366,137.341 204.645,137.341 C205.878,137.341 206.486,137.994 206.486,139.114 L206.486,139.159 C206.486,139.807 205.827,139.75 204.236,139.955 C202.616,140.165 200.849,140.523 200.849,142.523 C200.849,144.227 202.168,145.205 203.827,145.205 Z M204.031,144 C202.963,144 202.19,143.523 202.19,142.591 C202.19,141.568 203.122,141.25 204.168,141.114 C204.736,141.045 206.259,140.886 206.486,140.614 L206.486,141.841 C206.486,142.932 205.622,144 204.031,144 Z M211.615,139.75 C211.615,138.227 212.558,137.364 213.842,137.364 C215.087,137.364 215.842,138.176 215.842,139.545 L215.842,145 L217.183,145 L217.183,139.455 C217.183,137.227 215.996,136.159 214.229,136.159 C212.911,136.159 212.092,136.75 211.683,137.636 L211.57,137.636 L211.57,136.273 L210.274,136.273 L210.274,145 L211.615,145 L211.615,139.75 Z M222.929,145.182 C224.611,145.182 225.179,144.136 225.474,143.659 L225.634,143.659 L225.634,145 L226.929,145 L226.929,133.364 L225.588,133.364 L225.588,137.659 L225.474,137.659 C225.179,137.205 224.656,136.159 222.952,136.159 C220.747,136.159 219.224,137.909 219.224,140.659 C219.224,143.432 220.747,145.182 222.929,145.182 Z M223.111,143.977 C221.429,143.977 220.565,142.5 220.565,140.636 C220.565,138.795 221.406,137.364 223.111,137.364 C224.747,137.364 225.611,138.682 225.611,140.636 C225.611,142.614 224.724,143.977 223.111,143.977 Z M240.253,138.227 C239.832,136.989 238.889,136.159 237.162,136.159 C235.321,136.159 233.957,137.205 233.957,138.682 C233.957,139.886 234.673,140.693 236.276,141.068 L237.73,141.409 C238.611,141.614 239.026,142.034 239.026,142.636 C239.026,143.386 238.23,144 236.98,144 C235.884,144 235.196,143.528 234.957,142.591 L233.685,142.909 C233.997,144.392 235.219,145.182 237.003,145.182 C239.031,145.182 240.412,144.074 240.412,142.568 C240.412,141.352 239.651,140.585 238.094,140.205 L236.798,139.886 C235.764,139.631 235.298,139.284 235.298,138.614 C235.298,137.864 236.094,137.318 237.162,137.318 C238.332,137.318 238.815,137.966 239.048,138.568 L240.253,138.227 Z M242.43,148.273 L243.771,148.273 L243.771,143.659 L243.885,143.659 C244.18,144.136 244.749,145.182 246.43,145.182 C248.612,145.182 250.135,143.432 250.135,140.659 C250.135,137.909 248.612,136.159 246.408,136.159 C244.703,136.159 244.18,137.205 243.885,137.659 L243.726,137.659 L243.726,136.273 L242.43,136.273 L242.43,148.273 Z M243.749,140.636 C243.749,138.682 244.612,137.364 246.249,137.364 C247.953,137.364 248.794,138.795 248.794,140.636 C248.794,142.5 247.93,143.977 246.249,143.977 C244.635,143.977 243.749,142.614 243.749,140.636 Z M255.839,145.182 C257.612,145.182 258.908,144.295 259.317,142.977 L258.021,142.614 C257.68,143.523 256.891,143.977 255.839,143.977 C254.266,143.977 253.18,142.96 253.118,141.091 L259.453,141.091 L259.453,140.523 C259.453,137.273 257.521,136.159 255.703,136.159 C253.339,136.159 251.771,138.023 251.771,140.705 C251.771,143.386 253.317,145.182 255.839,145.182 Z M253.118,139.932 C253.209,138.574 254.169,137.364 255.703,137.364 C257.158,137.364 258.089,138.455 258.089,139.932 L253.118,139.932 Z M265.038,145.182 C266.97,145.182 268.243,144 268.47,142.455 L267.129,142.455 C266.879,143.409 266.084,143.977 265.038,143.977 C263.447,143.977 262.425,142.659 262.425,140.636 C262.425,138.659 263.47,137.364 265.038,137.364 C266.22,137.364 266.925,138.091 267.129,138.886 L268.47,138.886 C268.243,137.25 266.857,136.159 265.016,136.159 C262.652,136.159 261.084,138.023 261.084,140.682 C261.084,143.295 262.584,145.182 265.038,145.182 Z M276.612,138.227 C276.192,136.989 275.249,136.159 273.521,136.159 C271.68,136.159 270.317,137.205 270.317,138.682 C270.317,139.886 271.033,140.693 272.635,141.068 L274.089,141.409 C274.97,141.614 275.385,142.034 275.385,142.636 C275.385,143.386 274.589,144 273.339,144 C272.243,144 271.555,143.528 271.317,142.591 L270.044,142.909 C270.357,144.392 271.578,145.182 273.362,145.182 C275.391,145.182 276.771,144.074 276.771,142.568 C276.771,141.352 276.01,140.585 274.453,140.205 L273.158,139.886 C272.124,139.631 271.658,139.284 271.658,138.614 C271.658,137.864 272.453,137.318 273.521,137.318 C274.692,137.318 275.175,137.966 275.408,138.568 L276.612,138.227 Z M287.176,136.273 L285.222,136.273 L285.222,135.386 C285.222,134.523 285.585,134.068 286.472,134.068 C286.858,134.068 287.085,134.159 287.222,134.205 L287.608,133.045 C287.403,132.955 286.994,132.818 286.335,132.818 C285.085,132.818 283.881,133.568 283.881,135.068 L283.881,136.273 L282.472,136.273 L282.472,137.409 L283.881,137.409 L283.881,145 L285.222,145 L285.222,137.409 L287.176,137.409 L287.176,136.273 Z M292.241,145.182 C294.605,145.182 296.196,143.386 296.196,140.682 C296.196,137.955 294.605,136.159 292.241,136.159 C289.878,136.159 288.287,137.955 288.287,140.682 C288.287,143.386 289.878,145.182 292.241,145.182 Z M292.241,143.977 C290.446,143.977 289.628,142.432 289.628,140.682 C289.628,138.932 290.446,137.364 292.241,137.364 C294.037,137.364 294.855,138.932 294.855,140.682 C294.855,142.432 294.037,143.977 292.241,143.977 Z M298.243,145 L299.584,145 L299.584,139.477 C299.584,138.295 300.516,137.432 301.788,137.432 C302.146,137.432 302.516,137.5 302.607,137.523 L302.607,136.159 C302.453,136.148 302.101,136.136 301.902,136.136 C300.857,136.136 299.947,136.727 299.629,137.591 L299.538,137.591 L299.538,136.273 L298.243,136.273 L298.243,145 Z M312.241,145.182 C314.605,145.182 316.196,143.386 316.196,140.682 C316.196,137.955 314.605,136.159 312.241,136.159 C309.878,136.159 308.287,137.955 308.287,140.682 C308.287,143.386 309.878,145.182 312.241,145.182 Z M312.241,143.977 C310.446,143.977 309.628,142.432 309.628,140.682 C309.628,138.932 310.446,137.364 312.241,137.364 C314.037,137.364 314.855,138.932 314.855,140.682 C314.855,142.432 314.037,143.977 312.241,143.977 Z M323.743,141.432 C323.743,143.068 322.493,143.818 321.493,143.818 C320.379,143.818 319.584,143 319.584,141.727 L319.584,136.273 L318.243,136.273 L318.243,141.818 C318.243,144.045 319.425,145.114 321.061,145.114 C322.379,145.114 323.243,144.409 323.652,143.523 L323.743,143.523 L323.743,145 L325.084,145 L325.084,136.273 L323.743,136.273 L323.743,141.432 Z M327.54,145 L328.881,145 L328.881,139.477 C328.881,138.295 329.812,137.432 331.085,137.432 C331.443,137.432 331.812,137.5 331.903,137.523 L331.903,136.159 C331.75,136.148 331.398,136.136 331.199,136.136 C330.153,136.136 329.244,136.727 328.926,137.591 L328.835,137.591 L328.835,136.273 L327.54,136.273 L327.54,145 Z M341.788,136.273 L339.925,136.273 L339.925,134.182 L338.584,134.182 L338.584,136.273 L337.266,136.273 L337.266,137.409 L338.584,137.409 L338.584,142.864 C338.584,144.386 339.811,145.114 340.947,145.114 C341.447,145.114 341.766,145.023 341.947,144.955 L341.675,143.75 C341.561,143.773 341.379,143.818 341.084,143.818 C340.493,143.818 339.925,143.636 339.925,142.5 L339.925,137.409 L341.788,137.409 L341.788,136.273 Z M347.371,145.182 C349.143,145.182 350.439,144.295 350.848,142.977 L349.553,142.614 C349.212,143.523 348.422,143.977 347.371,143.977 C345.797,143.977 344.712,142.96 344.649,141.091 L350.984,141.091 L350.984,140.523 C350.984,137.273 349.053,136.159 347.234,136.159 C344.871,136.159 343.303,138.023 343.303,140.705 C343.303,143.386 344.848,145.182 347.371,145.182 Z M344.649,139.932 C344.74,138.574 345.7,137.364 347.234,137.364 C348.689,137.364 349.621,138.455 349.621,139.932 L344.649,139.932 Z M359.206,138.227 C358.786,136.989 357.842,136.159 356.115,136.159 C354.274,136.159 352.911,137.205 352.911,138.682 C352.911,139.886 353.626,140.693 355.229,141.068 L356.683,141.409 C357.564,141.614 357.979,142.034 357.979,142.636 C357.979,143.386 357.183,144 355.933,144 C354.837,144 354.149,143.528 353.911,142.591 L352.638,142.909 C352.95,144.392 354.172,145.182 355.956,145.182 C357.984,145.182 359.365,144.074 359.365,142.568 C359.365,141.352 358.604,140.585 357.047,140.205 L355.751,139.886 C354.717,139.631 354.251,139.284 354.251,138.614 C354.251,137.864 355.047,137.318 356.115,137.318 C357.286,137.318 357.768,137.966 358.001,138.568 L359.206,138.227 Z M365.179,136.273 L363.315,136.273 L363.315,134.182 L361.974,134.182 L361.974,136.273 L360.656,136.273 L360.656,137.409 L361.974,137.409 L361.974,142.864 C361.974,144.386 363.202,145.114 364.338,145.114 C364.838,145.114 365.156,145.023 365.338,144.955 L365.065,143.75 C364.952,143.773 364.77,143.818 364.474,143.818 C363.884,143.818 363.315,143.636 363.315,142.5 L363.315,137.409 L365.179,137.409 L365.179,136.273 Z M368.537,139.75 C368.537,138.227 369.48,137.364 370.764,137.364 C372.009,137.364 372.764,138.176 372.764,139.545 L372.764,145 L374.105,145 L374.105,139.455 C374.105,137.227 372.918,136.159 371.151,136.159 C369.832,136.159 369.014,136.75 368.605,137.636 L368.491,137.636 L368.491,136.273 L367.196,136.273 L367.196,145 L368.537,145 L368.537,139.75 Z M380.214,145.182 C381.987,145.182 383.283,144.295 383.692,142.977 L382.396,142.614 C382.055,143.523 381.266,143.977 380.214,143.977 C378.641,143.977 377.555,142.96 377.493,141.091 L383.828,141.091 L383.828,140.523 C383.828,137.273 381.896,136.159 380.078,136.159 C377.714,136.159 376.146,138.023 376.146,140.705 C376.146,143.386 377.692,145.182 380.214,145.182 Z M377.493,139.932 C377.584,138.574 378.544,137.364 380.078,137.364 C381.533,137.364 382.464,138.455 382.464,139.932 L377.493,139.932 Z M389.663,136.273 L387.8,136.273 L387.8,134.182 L386.459,134.182 L386.459,136.273 L385.141,136.273 L385.141,137.409 L386.459,137.409 L386.459,142.864 C386.459,144.386 387.686,145.114 388.822,145.114 C389.322,145.114 389.641,145.023 389.822,144.955 L389.55,143.75 C389.436,143.773 389.254,143.818 388.959,143.818 C388.368,143.818 387.8,143.636 387.8,142.5 L387.8,137.409 L389.663,137.409 L389.663,136.273 Z M397.706,138.227 C397.286,136.989 396.342,136.159 394.615,136.159 C392.774,136.159 391.411,137.205 391.411,138.682 C391.411,139.886 392.126,140.693 393.729,141.068 L395.183,141.409 C396.064,141.614 396.479,142.034 396.479,142.636 C396.479,143.386 395.683,144 394.433,144 C393.337,144 392.649,143.528 392.411,142.591 L391.138,142.909 C391.45,144.392 392.672,145.182 394.456,145.182 C396.484,145.182 397.865,144.074 397.865,142.568 C397.865,141.352 397.104,140.585 395.547,140.205 L394.251,139.886 C393.217,139.631 392.751,139.284 392.751,138.614 C392.751,137.864 393.547,137.318 394.615,137.318 C395.786,137.318 396.268,137.966 396.501,138.568 L397.706,138.227 Z" id="Shape" fill="#000000"></path>
            </g>
        </g>
    </g>
</svg>