<svg id="Layer_4" data-name="Layer 4" xmlns="http://www.w3.org/2000/svg" viewBox="0 0 882 300"><defs><style>.cls-1,.cls-3{fill:#c4c3c6;}.cls-2,.cls-4{fill:#fff;}.cls-3,.cls-4{fill-rule:evenodd;}</style></defs><title>illustrations</title><rect class="cls-1" x="-0.2" y="0.07" width="882" height="209" rx="6"/><path d="M61.53,144.92V132.47H69v1.22H62.92v4.86h5.13v1.23H62.92v5.14Z"/><path d="M70.76,133.89v-1.57h1.35v1.57Zm0,11v-9h1.35v9Z"/><path d="M76.06,144.92H74.71v-9H76v.63a5.74,5.74,0,0,1,2.79-.81,2.66,2.66,0,0,1,2.42,1,6.88,6.88,0,0,1,.62,3.45v4.75H80.54v-4.71a6.19,6.19,0,0,0-.37-2.57,1.63,1.63,0,0,0-1.58-.69,4.83,4.83,0,0,0-1.21.17,6.44,6.44,0,0,0-1,.33l-.34.17Z"/><path d="M91.28,132v12.92H90v-.61a5.43,5.43,0,0,1-2.73.79,4,4,0,0,1-1.26-.18,2.58,2.58,0,0,1-1-.64c-.65-.65-1-1.85-1-3.59a6.44,6.44,0,0,1,.87-3.79,3.39,3.39,0,0,1,2.89-1.16A11,11,0,0,1,90,136v-4ZM86.6,143.77a2.25,2.25,0,0,0,.84.13,4.64,4.64,0,0,0,1.15-.17,7.08,7.08,0,0,0,1-.34l.36-.16v-6.1a12.05,12.05,0,0,0-2.14-.22,2.08,2.08,0,0,0-1.91.88,5.27,5.27,0,0,0-.54,2.71,4.43,4.43,0,0,0,.63,2.8A1.53,1.53,0,0,0,86.6,143.77Z"/><path d="M97.46,140.41a5.7,5.7,0,0,1,.88-3.57,4.57,4.57,0,0,1,6,0,5.78,5.78,0,0,1,.87,3.57,6,6,0,0,1-.83,3.58,4.66,4.66,0,0,1-6,0A6,6,0,0,1,97.46,140.41Zm1.38,0a5.71,5.71,0,0,0,.48,2.76,2.93,2.93,0,0,0,4,0,5.8,5.8,0,0,0,.47-2.76,5.05,5.05,0,0,0-.53-2.73,2.18,2.18,0,0,0-1.93-.75,2.25,2.25,0,0,0-1.95.75A5,5,0,0,0,98.84,140.38Z"/><path d="M113,135.92h1.35v9H113v-.63a5.13,5.13,0,0,1-2.66.81,2.67,2.67,0,0,1-2.44-.95,7.22,7.22,0,0,1-.6-3.53v-4.7h1.35v4.68a6.59,6.59,0,0,0,.34,2.63c.23.45.74.67,1.55.67a4.57,4.57,0,0,0,1.2-.17,5.93,5.93,0,0,0,.94-.34l.32-.16Z"/><path d="M121.58,137.09h-2.86v4.31a5.81,5.81,0,0,0,.22,2c.15.32.51.49,1.07.49l1.6-.11.09,1.11a11.26,11.26,0,0,1-1.83.2,2.38,2.38,0,0,1-2-.68,4.48,4.48,0,0,1-.54-2.61v-4.74h-1.27v-1.17h1.27v-2.75h1.34v2.75h2.86Z"/><path d="M128.54,144.92h-1.35v-9h1.34v.63a5.05,5.05,0,0,1,2.62-.81,2.7,2.7,0,0,1,2.34.92A6.87,6.87,0,0,1,135,136a6.25,6.25,0,0,1,1.67-.28,2.66,2.66,0,0,1,2.42,1,6.87,6.87,0,0,1,.62,3.46v4.75h-1.35v-4.71a6.23,6.23,0,0,0-.36-2.57,1.56,1.56,0,0,0-1.53-.69,4.78,4.78,0,0,0-1.22.17,6.85,6.85,0,0,0-1,.33l-.34.17a8.73,8.73,0,0,1,.24,2.62v4.68h-1.35v-4.64a6.47,6.47,0,0,0-.36-2.64c-.23-.46-.74-.69-1.54-.69a4.41,4.41,0,0,0-1.17.17,5.89,5.89,0,0,0-.93.33l-.31.17Z"/><path d="M141.84,140.41a5.7,5.7,0,0,1,.89-3.57,4.57,4.57,0,0,1,6,0,5.78,5.78,0,0,1,.87,3.57,6.11,6.11,0,0,1-.83,3.58,4.68,4.68,0,0,1-6.05,0A6.11,6.11,0,0,1,141.84,140.41Zm1.39,0a5.71,5.71,0,0,0,.48,2.76,2.93,2.93,0,0,0,4,0,5.82,5.82,0,0,0,.46-2.76,5.07,5.07,0,0,0-.52-2.73,2.2,2.2,0,0,0-1.93-.75,2.24,2.24,0,0,0-2,.75A5,5,0,0,0,143.23,140.38Z"/><path d="M151.74,144.92v-9h1.34v1.23a8.61,8.61,0,0,1,3.29-1.42v1.36a10.45,10.45,0,0,0-1.57.45,13,13,0,0,0-1.26.54l-.45.24v6.6Z"/><path d="M163.91,143.81l.53-.06,0,1.07a26.05,26.05,0,0,1-3.51.28,3.15,3.15,0,0,1-2.75-1.12,6,6,0,0,1-.81-3.5q0-4.74,3.76-4.74a3.44,3.44,0,0,1,2.72,1,4.74,4.74,0,0,1,.9,3.2l-.08,1h-5.93a3.7,3.7,0,0,0,.54,2.22,2.19,2.19,0,0,0,1.88.72C162.08,143.92,163,143.88,163.91,143.81Zm-.48-3.91a4,4,0,0,0-.53-2.34,2.08,2.08,0,0,0-1.73-.68,2.21,2.21,0,0,0-1.8.72,3.63,3.63,0,0,0-.62,2.3Z"/><path d="M177.2,138.64v4.61c0,.44.38.71,1,.79l-.05,1.06a2.94,2.94,0,0,1-2.15-.72,7.92,7.92,0,0,1-3.24.72,2.46,2.46,0,0,1-1.89-.7,2.87,2.87,0,0,1-.64-2,2.54,2.54,0,0,1,.66-1.94,3.53,3.53,0,0,1,2.09-.76l2.83-.27v-.78a1.81,1.81,0,0,0-.4-1.31,1.43,1.43,0,0,0-1.08-.4,25.89,25.89,0,0,0-3,.18l-.55.06-.06-1a18.49,18.49,0,0,1,3.51-.4,3,3,0,0,1,2.22.71A3,3,0,0,1,177.2,138.64Zm-5.55,3.67c0,1.11.46,1.66,1.37,1.66a7.4,7.4,0,0,0,2.41-.41l.42-.15v-3l-2.67.25a1.76,1.76,0,0,0-1.17.47A1.67,1.67,0,0,0,171.65,142.31Z"/><path d="M183.84,135.74a2.92,2.92,0,0,1,2.55,1,6.66,6.66,0,0,1,.73,3.63,5.66,5.66,0,0,1-.91,3.64c-.61.7-1.72,1-3.34,1-.51,0-1.34,0-2.5-.14l-.51-.05V132h1.33v4.37A6.36,6.36,0,0,1,183.84,135.74Zm-1,8.16a2.73,2.73,0,0,0,2.33-.8,4.85,4.85,0,0,0,.57-2.71,5.73,5.73,0,0,0-.45-2.68,1.72,1.72,0,0,0-1.6-.76,6.22,6.22,0,0,0-2.15.4l-.36.12v6.34C182,143.87,182.53,143.9,182.85,143.9Z"/><path d="M188.93,140.41a5.7,5.7,0,0,1,.89-3.57,4.56,4.56,0,0,1,5.94,0,5.7,5.7,0,0,1,.88,3.57,6.11,6.11,0,0,1-.83,3.58,4.68,4.68,0,0,1-6.05,0A6.11,6.11,0,0,1,188.93,140.41Zm1.39,0a5.71,5.71,0,0,0,.48,2.76,2.13,2.13,0,0,0,2,.79c1,0,1.68-.26,2-.78a5.8,5.8,0,0,0,.47-2.76,5.07,5.07,0,0,0-.52-2.73,2.88,2.88,0,0,0-3.88,0A5,5,0,0,0,190.32,140.38Z"/><path d="M204.45,135.92h1.35v9h-1.35v-.63a5.16,5.16,0,0,1-2.66.81,2.66,2.66,0,0,1-2.44-.95,7.08,7.08,0,0,1-.61-3.53v-4.7h1.35v4.68a6.78,6.78,0,0,0,.34,2.63c.23.45.75.67,1.55.67a4.65,4.65,0,0,0,1.21-.17,5.41,5.41,0,0,0,.93-.34l.33-.16Z"/><path d="M213.05,137.09h-2.86v4.31a6.07,6.07,0,0,0,.22,2c.16.32.51.49,1.08.49l1.6-.11.09,1.11a11.47,11.47,0,0,1-1.84.2,2.37,2.37,0,0,1-1.94-.68,4.48,4.48,0,0,1-.54-2.61v-4.74h-1.28v-1.17h1.28v-2.75h1.33v2.75h2.86Z"/><path d="M224.28,135.92h1.35v9h-1.35v-.63a5.13,5.13,0,0,1-2.66.81,2.67,2.67,0,0,1-2.44-.95,7.22,7.22,0,0,1-.6-3.53v-4.7h1.35v4.68a6.59,6.59,0,0,0,.34,2.63c.23.45.74.67,1.55.67a4.57,4.57,0,0,0,1.2-.17,5.93,5.93,0,0,0,.94-.34l.32-.16Z"/><path d="M228.23,148.92v-13h1.33v.65a5.2,5.2,0,0,1,2.7-.83,2.84,2.84,0,0,1,2.48,1.09,6.35,6.35,0,0,1,.78,3.59,5.63,5.63,0,0,1-.91,3.59,3.72,3.72,0,0,1-3,1.09,9.67,9.67,0,0,1-2-.19v4Zm3.83-12a4.15,4.15,0,0,0-1.16.18,6.13,6.13,0,0,0-1,.36l-.34.18v6.07a13.81,13.81,0,0,0,1.94.19,2.33,2.33,0,0,0,2-.82,4.82,4.82,0,0,0,.59-2.7,5,5,0,0,0-.53-2.67A1.77,1.77,0,0,0,232.06,137Z"/><path d="M241.08,135.74a16.45,16.45,0,0,1,2,.22l.44,0-.06,1.1a20.44,20.44,0,0,0-2.12-.16,2.45,2.45,0,0,0-2.08.73,4.7,4.7,0,0,0-.55,2.7,5.28,5.28,0,0,0,.51,2.74,2.42,2.42,0,0,0,2.14.78l2.12-.16,0,1.11a18,18,0,0,1-2.5.25,3.43,3.43,0,0,1-2.91-1.08,6.3,6.3,0,0,1-.8-3.64,5.68,5.68,0,0,1,.87-3.6A3.54,3.54,0,0,1,241.08,135.74Z"/><path d="M245.05,140.41a5.7,5.7,0,0,1,.89-3.57,4.57,4.57,0,0,1,5.95,0,5.78,5.78,0,0,1,.87,3.57,6.11,6.11,0,0,1-.83,3.58,4.68,4.68,0,0,1-6.05,0A6.11,6.11,0,0,1,245.05,140.41Zm1.39,0a5.71,5.71,0,0,0,.48,2.76,2.93,2.93,0,0,0,4,0,5.82,5.82,0,0,0,.46-2.76,5.07,5.07,0,0,0-.52-2.73,2.2,2.2,0,0,0-1.93-.75,2.24,2.24,0,0,0-1.95.75A5,5,0,0,0,246.44,140.38Z"/><path d="M256.3,144.92H255v-9h1.34v.63a5.08,5.08,0,0,1,2.62-.81,2.7,2.7,0,0,1,2.34.92,6.87,6.87,0,0,1,1.54-.64,6.25,6.25,0,0,1,1.67-.28,2.65,2.65,0,0,1,2.42,1,6.87,6.87,0,0,1,.62,3.46v4.75h-1.35v-4.71a6.23,6.23,0,0,0-.36-2.57,1.56,1.56,0,0,0-1.53-.69,4.84,4.84,0,0,0-1.22.17,6.85,6.85,0,0,0-1,.33l-.34.17a8.73,8.73,0,0,1,.24,2.62v4.68h-1.35v-4.64a6.7,6.7,0,0,0-.35-2.64,1.57,1.57,0,0,0-1.54-.69,4.43,4.43,0,0,0-1.18.17,6.29,6.29,0,0,0-.93.33l-.31.17Z"/><path d="M270,133.89v-1.57h1.35v1.57Zm0,11v-9h1.35v9Z"/><path d="M275.29,144.92H274v-9h1.33v.63a5.74,5.74,0,0,1,2.79-.81,2.66,2.66,0,0,1,2.42,1,6.88,6.88,0,0,1,.62,3.45v4.75h-1.33v-4.71a6.19,6.19,0,0,0-.37-2.57,1.63,1.63,0,0,0-1.58-.69,4.83,4.83,0,0,0-1.21.17,6.44,6.44,0,0,0-1,.33l-.35.17Z"/><path d="M287.08,149.15a5.62,5.62,0,0,1-3-.58,2.4,2.4,0,0,1-.86-2.13,2,2,0,0,1,.33-1.2,4.87,4.87,0,0,1,1.1-1,1.37,1.37,0,0,1-.51-1.24,3.1,3.1,0,0,1,.45-1.13l.16-.29a2.68,2.68,0,0,1-1.42-2.72q0-3.07,3.37-3.08a6.76,6.76,0,0,1,1.6.18l.27.06,2.66-.07v1.15l-1.71,0a2.44,2.44,0,0,1,.6,1.8,2.89,2.89,0,0,1-.84,2.37,4.2,4.2,0,0,1-2.64.67,4.83,4.83,0,0,1-.88-.07,3.94,3.94,0,0,0-.32,1c0,.37.11.6.34.69a8.46,8.46,0,0,0,2.07.14,4.36,4.36,0,0,1,2.48.54,2.42,2.42,0,0,1,.76,2.1Q291.08,149.15,287.08,149.15Zm-2.53-2.82a1.49,1.49,0,0,0,.53,1.32,3.61,3.61,0,0,0,2,.37,3.9,3.9,0,0,0,2-.4,1.44,1.44,0,0,0,.62-1.32q0-.93-.45-1.2a3.85,3.85,0,0,0-1.76-.27l-1.95-.09a3.28,3.28,0,0,0-.8.76A1.59,1.59,0,0,0,284.55,146.33Zm.12-7.51a2,2,0,0,0,.48,1.51,2.25,2.25,0,0,0,1.57.45,2.21,2.21,0,0,0,1.57-.45,2.69,2.69,0,0,0,0-3,2.94,2.94,0,0,0-3.14,0A2,2,0,0,0,284.67,138.82Z"/><path d="M303.18,138.64v4.61c0,.44.38.71,1,.79l-.05,1.06a2.92,2.92,0,0,1-2.15-.72,7.92,7.92,0,0,1-3.24.72,2.46,2.46,0,0,1-1.89-.7,2.87,2.87,0,0,1-.64-2,2.54,2.54,0,0,1,.66-1.94,3.53,3.53,0,0,1,2.09-.76l2.83-.27v-.78a1.81,1.81,0,0,0-.4-1.31,1.43,1.43,0,0,0-1.08-.4,25.89,25.89,0,0,0-3,.18l-.56.06-.05-1a18.49,18.49,0,0,1,3.51-.4,3,3,0,0,1,2.22.71A3,3,0,0,1,303.18,138.64Zm-5.55,3.67c0,1.11.46,1.66,1.37,1.66a7.4,7.4,0,0,0,2.41-.41l.42-.15v-3l-2.67.25a1.76,1.76,0,0,0-1.17.47A1.67,1.67,0,0,0,297.63,142.31Z"/><path d="M307.19,144.92h-1.35v-9h1.33v.63a5.74,5.74,0,0,1,2.79-.81,2.65,2.65,0,0,1,2.42,1,6.77,6.77,0,0,1,.62,3.45v4.75h-1.33v-4.71a6,6,0,0,0-.37-2.57,1.61,1.61,0,0,0-1.57-.69,4.9,4.9,0,0,0-1.22.17,6.85,6.85,0,0,0-1,.33l-.34.17Z"/><path d="M322.42,132v12.92h-1.33v-.61a5.49,5.49,0,0,1-2.74.79,4,4,0,0,1-1.26-.18,2.58,2.58,0,0,1-1-.64c-.65-.65-1-1.85-1-3.59a6.44,6.44,0,0,1,.87-3.79,3.4,3.4,0,0,1,2.89-1.16,11.06,11.06,0,0,1,2.22.24v-4Zm-4.68,11.77a2.18,2.18,0,0,0,.84.13,4.71,4.71,0,0,0,1.15-.17,7.56,7.56,0,0,0,1-.34l.36-.16v-6.1a12.16,12.16,0,0,0-2.15-.22,2.06,2.06,0,0,0-1.9.88,5.27,5.27,0,0,0-.54,2.71,4.37,4.37,0,0,0,.63,2.8A1.46,1.46,0,0,0,317.74,143.77Z"/><path d="M329,144.92v-9h1.33v1.23a8.61,8.61,0,0,1,3.29-1.42v1.36a10.45,10.45,0,0,0-1.57.45,12.61,12.61,0,0,0-1.25.54l-.45.24v6.6Z"/><path d="M341.16,143.81l.52-.06,0,1.07a25.81,25.81,0,0,1-3.51.28,3.16,3.16,0,0,1-2.75-1.12,6,6,0,0,1-.81-3.5q0-4.74,3.76-4.74a3.44,3.44,0,0,1,2.72,1,4.74,4.74,0,0,1,.9,3.2l-.07,1H336a3.7,3.7,0,0,0,.54,2.22,2.21,2.21,0,0,0,1.88.72C339.32,143.92,340.23,143.88,341.16,143.81Zm-.49-3.91a4,4,0,0,0-.53-2.34,2.06,2.06,0,0,0-1.73-.68,2.21,2.21,0,0,0-1.8.72,3.63,3.63,0,0,0-.62,2.3Z"/><path d="M344.23,144.92V132h1.35v12.92Z"/><path d="M354.4,143.81l.53-.06,0,1.07a26.05,26.05,0,0,1-3.51.28A3.16,3.16,0,0,1,348.7,144a6,6,0,0,1-.81-3.5q0-4.74,3.76-4.74a3.44,3.44,0,0,1,2.72,1,4.74,4.74,0,0,1,.9,3.2l-.07,1h-5.94a3.7,3.7,0,0,0,.54,2.22,2.2,2.2,0,0,0,1.88.72C352.57,143.92,353.48,143.88,354.4,143.81Zm-.48-3.91a4,4,0,0,0-.53-2.34,2.08,2.08,0,0,0-1.73-.68,2.21,2.21,0,0,0-1.8.72,3.63,3.63,0,0,0-.62,2.3Z"/><path d="M363.73,138.64v4.61c0,.44.38.71,1,.79l0,1.06a2.9,2.9,0,0,1-2.14-.72,8,8,0,0,1-3.25.72,2.42,2.42,0,0,1-1.88-.7,2.83,2.83,0,0,1-.65-2,2.54,2.54,0,0,1,.66-1.94,3.53,3.53,0,0,1,2.09-.76l2.83-.27v-.78a1.81,1.81,0,0,0-.4-1.31,1.43,1.43,0,0,0-1.08-.4,26,26,0,0,0-3,.18l-.55.06-.06-1a18.49,18.49,0,0,1,3.51-.4,3,3,0,0,1,2.22.71A3,3,0,0,1,363.73,138.64Zm-5.55,3.67c0,1.11.46,1.66,1.37,1.66a7.4,7.4,0,0,0,2.41-.41l.42-.15v-3l-2.67.25a1.76,1.76,0,0,0-1.17.47A1.67,1.67,0,0,0,358.18,142.31Z"/><path d="M369.22,137c-1.31,0-2,.46-2,1.37a1,1,0,0,0,.44.89,8,8,0,0,0,2.06.54,5.65,5.65,0,0,1,2.27.78,2.27,2.27,0,0,1,.66,1.89,2.37,2.37,0,0,1-.89,2,4.4,4.4,0,0,1-2.6.64,16,16,0,0,1-2.63-.25l-.54-.09.07-1.17a22.14,22.14,0,0,0,3.1.31,3,3,0,0,0,1.59-.34,1.18,1.18,0,0,0,.55-1.11,1.11,1.11,0,0,0-.47-1.06,6.49,6.49,0,0,0-2.05-.53,5.58,5.58,0,0,1-2.25-.74,2.12,2.12,0,0,1-.66-1.8,2.18,2.18,0,0,1,.92-1.95,4,4,0,0,1,2.32-.63,18.86,18.86,0,0,1,2.75.26l.5.09,0,1.15A23.77,23.77,0,0,0,369.22,137Z"/><path d="M380.88,143.81l.52-.06,0,1.07a26.05,26.05,0,0,1-3.51.28,3.15,3.15,0,0,1-2.75-1.12,6,6,0,0,1-.81-3.5q0-4.74,3.76-4.74a3.46,3.46,0,0,1,2.72,1,4.74,4.74,0,0,1,.89,3.2l-.07,1h-5.94a3.7,3.7,0,0,0,.54,2.22,2.21,2.21,0,0,0,1.88.72C379.05,143.92,380,143.88,380.88,143.81Zm-.48-3.91a3.87,3.87,0,0,0-.54-2.34,2.06,2.06,0,0,0-1.72-.68,2.21,2.21,0,0,0-1.8.72,3.57,3.57,0,0,0-.62,2.3Z"/><path d="M390.76,132v12.92h-1.33v-.61a5.43,5.43,0,0,1-2.73.79,4,4,0,0,1-1.26-.18,2.58,2.58,0,0,1-1-.64c-.65-.65-1-1.85-1-3.59a6.43,6.43,0,0,1,.88-3.79,3.39,3.39,0,0,1,2.89-1.16,11,11,0,0,1,2.21.24v-4Zm-4.68,11.77a2.25,2.25,0,0,0,.84.13,4.64,4.64,0,0,0,1.15-.17,7.08,7.08,0,0,0,1-.34l.36-.16v-6.1a12.05,12.05,0,0,0-2.14-.22,2.08,2.08,0,0,0-1.91.88,5.27,5.27,0,0,0-.54,2.71,4.43,4.43,0,0,0,.63,2.8A1.53,1.53,0,0,0,386.08,143.77Z"/><path d="M402,137.09h-2.86v4.31a5.74,5.74,0,0,0,.23,2c.15.32.51.49,1.07.49l1.6-.11.09,1.11a11.37,11.37,0,0,1-1.83.2,2.38,2.38,0,0,1-2-.68,4.48,4.48,0,0,1-.54-2.61v-4.74h-1.28v-1.17h1.28v-2.75h1.33v2.75H402Z"/><path d="M409.77,143.81l.52-.06,0,1.07a26.05,26.05,0,0,1-3.51.28,3.15,3.15,0,0,1-2.75-1.12,6,6,0,0,1-.82-3.5q0-4.74,3.77-4.74a3.46,3.46,0,0,1,2.72,1,4.8,4.8,0,0,1,.89,3.2l-.07,1h-5.94a3.7,3.7,0,0,0,.54,2.22,2.21,2.21,0,0,0,1.88.72C407.94,143.92,408.85,143.88,409.77,143.81Zm-.48-3.91a3.87,3.87,0,0,0-.54-2.34,2.06,2.06,0,0,0-1.72-.68,2.21,2.21,0,0,0-1.8.72,3.57,3.57,0,0,0-.62,2.3Z"/><path d="M415.57,137c-1.31,0-2,.46-2,1.37a.93.93,0,0,0,.44.89,8,8,0,0,0,2.06.54,5.6,5.6,0,0,1,2.26.78,2.24,2.24,0,0,1,.67,1.89,2.37,2.37,0,0,1-.89,2,4.4,4.4,0,0,1-2.6.64,16,16,0,0,1-2.63-.25l-.54-.09.07-1.17a22.14,22.14,0,0,0,3.1.31,3,3,0,0,0,1.59-.34,1.18,1.18,0,0,0,.55-1.11,1.11,1.11,0,0,0-.47-1.06,6.49,6.49,0,0,0-2.05-.53,5.58,5.58,0,0,1-2.25-.74,2.12,2.12,0,0,1-.67-1.8,2.19,2.19,0,0,1,.93-1.95,4,4,0,0,1,2.31-.63,18.86,18.86,0,0,1,2.76.26l.5.09,0,1.15A24.06,24.06,0,0,0,415.57,137Z"/><path d="M425.77,137.09h-2.86v4.31a5.74,5.74,0,0,0,.23,2c.15.32.5.49,1.07.49l1.6-.11.09,1.11a11.47,11.47,0,0,1-1.84.2,2.37,2.37,0,0,1-1.94-.68,4.48,4.48,0,0,1-.54-2.61v-4.74H420.3v-1.17h1.28v-2.75h1.33v2.75h2.86Z"/><path d="M428.78,144.92h-1.35v-9h1.33v.63a5.74,5.74,0,0,1,2.79-.81,2.65,2.65,0,0,1,2.42,1,6.77,6.77,0,0,1,.62,3.45v4.75h-1.33v-4.71a6,6,0,0,0-.37-2.57,1.61,1.61,0,0,0-1.57-.69,4.9,4.9,0,0,0-1.22.17,6.85,6.85,0,0,0-1,.33l-.34.17Z"/><path d="M443.21,143.81l.53-.06,0,1.07a26.05,26.05,0,0,1-3.51.28,3.16,3.16,0,0,1-2.75-1.12,6,6,0,0,1-.81-3.5q0-4.74,3.76-4.74a3.44,3.44,0,0,1,2.72,1,4.74,4.74,0,0,1,.9,3.2l-.07,1h-5.94a3.7,3.7,0,0,0,.54,2.22,2.2,2.2,0,0,0,1.88.72C441.38,143.92,442.29,143.88,443.21,143.81Zm-.48-3.91a4,4,0,0,0-.53-2.34,2.08,2.08,0,0,0-1.73-.68,2.21,2.21,0,0,0-1.8.72,3.63,3.63,0,0,0-.62,2.3Z"/><path d="M450.79,137.09h-2.86v4.31a5.74,5.74,0,0,0,.23,2c.15.32.5.49,1.07.49l1.6-.11.09,1.11a11.47,11.47,0,0,1-1.84.2,2.37,2.37,0,0,1-1.94-.68,4.48,4.48,0,0,1-.54-2.61v-4.74h-1.28v-1.17h1.28v-2.75h1.33v2.75h2.86Z"/><path d="M455.27,137c-1.3,0-2,.46-2,1.37a.94.94,0,0,0,.45.89,8,8,0,0,0,2.05.54,5.6,5.6,0,0,1,2.27.78,2.24,2.24,0,0,1,.67,1.89,2.37,2.37,0,0,1-.89,2,4.42,4.42,0,0,1-2.6.64,16,16,0,0,1-2.63-.25l-.54-.09.07-1.17a22.14,22.14,0,0,0,3.1.31,3,3,0,0,0,1.59-.34,1.18,1.18,0,0,0,.55-1.11,1.13,1.13,0,0,0-.47-1.06,6.58,6.58,0,0,0-2.05-.53,5.47,5.47,0,0,1-2.25-.74,2.1,2.1,0,0,1-.67-1.8,2.19,2.19,0,0,1,.93-1.95,4,4,0,0,1,2.31-.63A19,19,0,0,1,458,136l.5.09,0,1.15A23.77,23.77,0,0,0,455.27,137Z"/><path d="M60.62,70.7V67.39h24V70.7H74.5v29.91H70.85V70.7Z"/><path d="M100.66,97.63l1.39-.14.09,2.83a69.07,69.07,0,0,1-9.36.77q-5.18,0-7.34-3t-2.16-9.34q0-12.61,10-12.62,4.84,0,7.25,2.71t2.4,8.52l-.19,2.74H86.93q0,4,1.44,5.9t5,1.92C95.77,97.92,98.19,97.82,100.66,97.63Zm-1.3-10.41q0-4.43-1.42-6.24c-.94-1.22-2.48-1.83-4.6-1.83a5.9,5.9,0,0,0-4.8,1.92Q86.92,83,86.88,87.22Z"/><path d="M116.11,79.34q-5.23,0-5.23,3.65a2.52,2.52,0,0,0,1.2,2.38,20.63,20.63,0,0,0,5.47,1.44,14.46,14.46,0,0,1,6,2.09q1.77,1.34,1.77,5A6.26,6.26,0,0,1,123,99.36q-2.39,1.73-6.94,1.73a44.41,44.41,0,0,1-7-.67l-1.43-.24.19-3.12a61.52,61.52,0,0,0,8.25.81,8.2,8.2,0,0,0,4.25-.89,3.18,3.18,0,0,0,1.46-3,3,3,0,0,0-1.24-2.83,18.47,18.47,0,0,0-5.48-1.42,14.47,14.47,0,0,1-6-2q-1.77-1.29-1.77-4.8a5.83,5.83,0,0,1,2.47-5.18,10.73,10.73,0,0,1,6.17-1.68,50.08,50.08,0,0,1,7.34.67l1.35.24-.1,3.07A62.81,62.81,0,0,0,116.11,79.34Z"/><path d="M143.33,79.73H135.7V91.2c0,2.75.19,4.56.59,5.42s1.36,1.3,2.86,1.3l4.27-.29.24,3a33.05,33.05,0,0,1-4.89.53q-3.75,0-5.19-1.83t-1.44-7V79.73h-3.4V76.61h3.4V69.26h3.56v7.35h7.63Z"/><path d="M151.34,100.61h-3.6v-24h3.55v1.68a15.4,15.4,0,0,1,7.45-2.16c3.19,0,5.35.86,6.45,2.59s1.66,4.8,1.66,9.22v12.67h-3.56V88c0-3.32-.32-5.61-1-6.84s-2.06-1.85-4.2-1.85a12.78,12.78,0,0,0-3.24.46,15.59,15.59,0,0,0-2.62.89l-.91.43Z"/><path d="M189.84,97.63l1.39-.14.1,2.83a69.32,69.32,0,0,1-9.36.77q-5.19,0-7.35-3t-2.16-9.34q0-12.61,10-12.62c3.24,0,5.65.9,7.25,2.71s2.4,4.65,2.4,8.52L192,90.1H176.11q0,4,1.44,5.9t5,1.92Q186.14,97.92,189.84,97.63Zm-1.3-10.41q0-4.43-1.41-6.24c-.95-1.22-2.48-1.83-4.61-1.83a5.9,5.9,0,0,0-4.8,1.92c-1.07,1.28-1.63,3.33-1.66,6.15Z"/><path d="M210.05,79.73h-7.64V91.2q0,4.13.6,5.42c.4.87,1.36,1.3,2.86,1.3l4.27-.29.24,3a33.05,33.05,0,0,1-4.89.53q-3.75,0-5.19-1.83t-1.44-7V79.73h-3.41V76.61h3.41V69.26h3.55v7.35h7.64Z"/><path d="M237.79,89.42h-8.45v11.19h-3.69V67.39h12.14q5.43,0,8,2.64c1.72,1.76,2.59,4.45,2.59,8.07Q248.4,89.43,237.79,89.42Zm-8.45-3.26h8.4q6.87,0,6.87-8.06,0-3.84-1.64-5.64t-5.23-1.8h-8.4Z"/><path d="M253.77,100.61V66.14h3.6v34.47Z"/><path d="M281.52,83.86V96.14c.09,1.19,1,1.89,2.78,2.12l-.14,2.83q-3.8,0-5.72-1.92a21.12,21.12,0,0,1-8.64,1.92,6.57,6.57,0,0,1-5-1.87A7.66,7.66,0,0,1,263,93.84q0-3.51,1.77-5.16a9.46,9.46,0,0,1,5.57-2l7.54-.72V83.86a4.86,4.86,0,0,0-1.06-3.51,3.89,3.89,0,0,0-2.88-1,69,69,0,0,0-8,.48l-1.49.14-.14-2.74a48.64,48.64,0,0,1,9.36-1.05q4.08,0,5.93,1.87T281.52,83.86Zm-14.79,9.79q0,4.41,3.65,4.41a19.28,19.28,0,0,0,6.43-1.1l1.11-.38V88.66l-7.11.67a4.6,4.6,0,0,0-3.12,1.25A4.4,4.4,0,0,0,266.73,93.65Z"/><path d="M292.22,100.61h-3.6v-24h3.55v1.68a15.33,15.33,0,0,1,7.44-2.16q4.8,0,6.46,2.59t1.65,9.22v12.67h-3.55V88c0-3.32-.33-5.61-1-6.84s-2.06-1.85-4.2-1.85a12.66,12.66,0,0,0-3.24.46,15.59,15.59,0,0,0-2.62.89l-.91.43Z"/><path d="M318,100.61H314.4v-24H318v1.68a15.33,15.33,0,0,1,7.44-2.16q4.8,0,6.45,2.59t1.66,9.22v12.67H330V88c0-3.32-.33-5.61-1-6.84s-2-1.85-4.2-1.85a12.78,12.78,0,0,0-3.24.46,15.42,15.42,0,0,0-2.61.89l-.92.43Z"/><path d="M340.17,71.18V67h3.6v4.17Zm0,29.43v-24h3.6v24Z"/><path d="M354.28,100.61h-3.6v-24h3.55v1.68a15.39,15.39,0,0,1,7.44-2.16c3.2,0,5.36.86,6.46,2.59s1.66,4.8,1.66,9.22v12.67h-3.56V88c0-3.32-.32-5.61-1-6.84s-2.06-1.85-4.2-1.85a12.78,12.78,0,0,0-3.24.46,15.59,15.59,0,0,0-2.62.89l-.91.43Z"/><path d="M385.72,111.89q-5.76,0-8-1.56t-2.28-5.69a5.37,5.37,0,0,1,.87-3.19,13.15,13.15,0,0,1,2.92-2.76,3.73,3.73,0,0,1-1.34-3.31,8.22,8.22,0,0,1,1.2-3l.43-.77q-3.8-1.72-3.79-7.24,0-8.22,9-8.21a18.07,18.07,0,0,1,4.27.48l.72.14,7.1-.19v3.07l-4.56-.09a6.49,6.49,0,0,1,1.59,4.8c0,3-.75,5.11-2.24,6.31s-3.83,1.8-7,1.8a14,14,0,0,1-2.35-.19,9.92,9.92,0,0,0-.86,2.73c0,1,.3,1.61.91,1.85a22.83,22.83,0,0,0,5.52.36q4.61,0,6.62,1.44t2,5.62Q396.38,111.88,385.72,111.89ZM379,104.35a4,4,0,0,0,1.42,3.53c.94.66,2.69,1,5.23,1s4.37-.35,5.47-1a3.86,3.86,0,0,0,1.66-3.53c0-1.65-.4-2.71-1.2-3.19s-2.37-.72-4.7-.72l-5.19-.24a8.55,8.55,0,0,0-2.13,2A4,4,0,0,0,379,104.35Zm.34-20c0,1.88.42,3.23,1.27,4a6,6,0,0,0,4.2,1.2c1.95,0,3.35-.4,4.18-1.2s1.25-2.15,1.25-4.06-.42-3.25-1.25-4-2.23-1.2-4.18-1.2-3.35.4-4.2,1.22A5.46,5.46,0,0,0,379.29,84.34Z"/><g id="Illustrations"><g id="Group-66"><g id="Group-65"><g id="Group-61"><path id="Path" d="M715.26,148.07a107.89,107.89,0,0,1,5,15.31c3.77,15,8.22,26.09,12,41.11,1.94,7.9,4,15.8,5.71,23.69.87,3.95,1.64,7.8,2.52,11.75a3.72,3.72,0,0,1-.2,2.89,4,4,0,0,1-2.13,1.25c-23.79,7.51-49.42,6.16-74.37,4.72-8.71-.48-18.19-1.35-24.47-7.32-1.26-1.25-2.52-2.79-2.62-4.53a8.37,8.37,0,0,1,.39-3.08c1.65-6.93,3.19-13.77,4.84-20.7,3.19-13.77,6.48-27.44,10.44-41,3.39-11.36,7.35-22.53,11.61-33.51,1.35-3.46,2.8-7.12,2.9-10.88.19-6.55-1.55-13.19.29-19.55.77-2.69,0-3.37-2.22-5.2-1-.77-3.87-1.92-4.45-2.6-1.36-1.44-1.55-8.08.19-9.14a35.2,35.2,0,0,1,8-3.57A91.24,91.24,0,0,1,689.92,86,69.12,69.12,0,0,1,707,88.66a20,20,0,0,1,6.19,3.66c1.64,1.34,1.55,7-.39,8-1.35.67-3.87.77-4.64,2.12a7.68,7.68,0,0,0-.68,3.27c.2,8.19.2,14.16.58,22.34C708.49,135.45,712.36,141.42,715.26,148.07Z"/><path class="cls-1" d="M721.75,200.79c1.35,4.94,2.71,11,3.77,16a141.84,141.84,0,0,1,2.13,16.85,3.73,3.73,0,0,1-.39,2.51,3.21,3.21,0,0,1-2.22,1.26c-4.35,1.16-8.71,2.81-13.15,2.81-5.23.1-11.7.58-16.93.68-14.31.19-22.14-.29-36.06-3.78a4.77,4.77,0,0,1-2-.87,4.82,4.82,0,0,1-1.16-3.68c-.3-26,14.51-33.88,18-59.64.58-4.35,29.87-32.74,30.93-30,2.61,7.16,4.84,12.87,6.1,19.75C713.43,176.2,717.79,186.27,721.75,200.79Z"/><path class="cls-2" d="M695.72,228.19a5.42,5.42,0,0,0,3.6,2.52,15.62,15.62,0,0,0,4.37.1,82.75,82.75,0,0,0,8.85-.84c.88-4.19-2-5.24-5.25-5C706.12,225,695.14,227.14,695.72,228.19Z"/><path class="cls-2" d="M694,210c-.29-1.75,0-4.66-.49-6.31-.88-2.91-3.51-28.22-3.91-31.23-.19-1.84-3.51-22-.78-23.08a7,7,0,0,1,2.84-.49l7,.2c2.05,4.07,10.35,48.88,10.44,53.44.1,2.91.88,5.62,1.17,8.53a28.76,28.76,0,0,1,.4,5.92c-.1,1.16-.1,2.23-1.27,2.42-3.52.68-10.06,2.33-12.11,1C693.75,218.26,694.44,213.51,694,210Z"/><path class="cls-1" d="M687,128a2.37,2.37,0,0,1-1.23-.57,2.75,2.75,0,0,1-.48-1c-1-2.29-.1-4.77-.38-7.34a34.79,34.79,0,0,1,.95-13.34c.19-.58-.29-1.24.1-1.53a1.89,1.89,0,0,1,1-.29,42.56,42.56,0,0,1,10.47.67,1.1,1.1,0,0,1,.77.29c.57.47.47,1.52.28,2.38-1.24,6.39-1.24,13.63-1.24,20.11,0,3.34-1.71,2.48-3.8,2.1C690.75,129.15,689.7,128.57,687,128Z"/><path class="cls-2" d="M690.33,129.43a12.78,12.78,0,0,0,8.33,1.25,1.69,1.69,0,0,0,1.27-.68,2.32,2.32,0,0,0,.49-1.15,54.49,54.49,0,0,0,1.08-14.41,37.39,37.39,0,0,1-.1-4.61,26.7,26.7,0,0,0,.3-2.79,2.51,2.51,0,0,0-1.18-2.31,2,2,0,0,0-1.08-.19c-2.15-.1-6-1.15-8-.29s-1.47,4.42-1.57,6.82c-.1,3.08-.2,6.15-.1,9.23C689.84,121.36,689.54,129,690.33,129.43Z"/><path class="cls-2" d="M666.7,93.08c8-3,17-2.29,25.48-1.35.67.1,1.42.31,1.52,1-1,.51-2.27.2-2.94,1.14-.28.41-.28.93-.57,1.45-.56,1.35-2.18,1.55-3.6,1.55a75.74,75.74,0,0,1-10.89-.62C672.57,95.88,669,96,666.7,93.08Z"/><path class="cls-1" d="M663.74,94.8A2.64,2.64,0,0,0,665,97.42a4.73,4.73,0,0,0,1.83.54,112.73,112.73,0,0,0,39.71.36,6.34,6.34,0,0,0,3.37-1.26c.87-.82,1.16-2.35.2-3.08a3.51,3.51,0,0,0-2.7-.27A118.21,118.21,0,0,1,684.07,95q-5.93-.27-11.85-1.09C669.81,93.62,664.31,91.36,663.74,94.8Z"/><path class="cls-2" d="M693.84,97.16a4.71,4.71,0,0,0,.3,1.11c.09.4.68.5,1.07.6a2.34,2.34,0,0,0,1.17-.1c2-.4,3.71-.6,5.76-.91a5,5,0,0,0,1.17-.3c.19-.1.39-.1.39-.6V95.14a1,1,0,0,0-.2-.71c-.09-.2-.39-.2-.58-.2a19.89,19.89,0,0,0-6.44-.1c-.78.1-2.15.1-2.44.81A2.78,2.78,0,0,0,693.84,97.16Z"/></g><g id="Group-64"><g id="Group-62"><g id="Group-9"><g id="Group-7"><path id="Oval-2" d="M561,155.74a90.43,90.43,0,0,0,17.57-3.14c-1.72,18.16-14.82,84.48-9.3,99.49,3.56,10,11.22,13.75,19.29,12.92,12-1.27,32.21-2,49.62-4.19,8.36-1.07,16.88-1.07,22.05-4.19,8.66-5.25,5.41-20,0-30-2-3.64-3.42-2.8-8.3-2.8,0-9.76,3.18-24.19,4.86-38.53,2.29-19.5,3.42-43.47,3.42-50.83,0-12.75-5.59-28.27-12.41-28.27-22.4,0-76,3.5-84.42,3.5-10.94,0-17.22,10.6-17.22,23S550,155.74,561,155.74Z"/><path class="cls-3" d="M573.77,114.42l72-2.39q8.22,6.31,8.22,35.54t-8.22,75.92q-55.85,2.85-61,3.67t-9.29,7.63q5-38.52,9.29-64.78c1.64-10.2,2.07-28.79,0-39.34a23.92,23.92,0,0,0-11-16.25Z"/><path d="M597.11,149.9c8.16,1.47,16.75,1.15,24.91.82,7.31-.33,15-.17,21.7-2.46.86-.33.43-1.15-.22-1.31-7.51-1.48-15.68-.33-23.41.16-7.73.33-15.68.49-23.2,2.13a.37.37,0,0,0,.22.66Z"/><g id="Group-63"><path id="Path-Copy-36" d="M613.59,167.81c5.3,1.47,10.89,1.15,16.2.82,4.74-.33,9.77-.17,14.1-2.46a.77.77,0,0,0-.14-1.31c-4.89-1.48-10.19-.33-15.22.16-5,.33-10.19.49-15.08,2.13-.14.17-.14.66.14.66Z"/><path id="Path-Copy-45" d="M608.62,167.67c-2.16-1.88-4.75-2-7.22-2.11-2.21-.06-4.47-.63-6.83,1.28a1.34,1.34,0,0,0-.17,1.3c2,1.85,4.58,1.15,7,1.07,2.34.08,4.72.34,7.22-.88.09-.15.18-.64,0-.66Z"/></g><g id="Group-63-Copy"><path d="M623.85,184.65c-5.19,1.84-10.78,1.91-16.1,1.95-4.75,0-9.76.53-14.23-1.46a.78.78,0,0,1,0-1.32c4.78-1.81,10.15-1,15.2-.9,5,0,10.2-.23,15.19,1.07.15.15.18.64-.1.66Z"/></g><path id="Path-2" class="cls-4" d="M589,130.34q-9.27-12-15.18-15.88l72-2.47q5,3.95,7,16.61Q595.13,138.37,589,130.34Z"/><g id="Group-3-9"><path class="cls-4" d="M571.51,121.69c1.46,1.36,7,4.94,7,13.56a75.06,75.06,0,0,1-1.88,14.09c-10.15,1.92-17.87,3.58-18.74,2.23a11.28,11.28,0,0,0,7.5-5.88,26.58,26.58,0,0,0,2.81-13.05,11.85,11.85,0,0,0-5.4-9.93Z"/><path class="cls-3" d="M576.72,149.37c-10.18,1.91-17.92,3.58-18.79,2.2a11.28,11.28,0,0,0,7.52-5.81,17.24,17.24,0,0,1,5.93-7.16,8.13,8.13,0,0,1,7.12-1.31A80.72,80.72,0,0,1,576.72,149.37Z"/><path class="cls-3" d="M560.22,126.21a11.43,11.43,0,0,1,2.73,8,19,19,0,0,1-.09,2.28l-7.61,1a16.79,16.79,0,0,1,0-3.75,11.72,11.72,0,0,1,2.19-5.56A6.47,6.47,0,0,1,560.22,126.21Z"/><g id="Group-4"><path id="Path-Copy-6" class="cls-4" d="M652.53,228.1c1.19,0,3.16,2.66,4.58,7.08,2.27,7-1.48,10.28-5.62,12.25-10.25,1.2-42.94,4.38-43.7,2.91q-19.75,5.28-17,.85c1.47-2.33,1.05-3.68,1.12-9.2a11.89,11.89,0,0,0-4.75-10.28Z"/><path id="Path-Copy-5" class="cls-3" d="M658.55,248.09c-2,6.78-37.81,5.86-47.45,6.79s-24.77,2.93-22.92,0a17.39,17.39,0,0,1,6.43-6.78c2.49-1.39,24.58-8.17,41.84-9.86q17.28-1.71,19-6.77C660.78,238.23,658.55,246,658.55,248.09Z"/><path id="Path-Copy-2" class="cls-3" d="M583.79,236.28a11.12,11.12,0,0,1,1.65,7.29,17,17,0,0,1-.2,2.05l-6,.5a16.52,16.52,0,0,1,.23-3.37,11.33,11.33,0,0,1,2.06-4.87,5.06,5.06,0,0,1,2.29-1.6Z"/></g></g><path id="Combined-Shape" d="M574.64,211.43l.73,8.36a17.32,17.32,0,0,0,4.13-.19c1.69-.42,3.55-.24,2.62-.69a40.92,40.92,0,0,0-4.15-1.34l-1.1-.26a71,71,0,0,0,7.12-1c6.83-1.34,6.41-1.6.23-1.78-1.19,0-2.81,0-4.75.08a19.56,19.56,0,0,0,2-1,28.77,28.77,0,0,0,4-2.74c.77-.85-1.68-.13-4.64-.24A26.27,26.27,0,0,0,574.64,211.43Z"/><path id="Combined-Shape-Copy-9" d="M651.42,110.54l1.19,9.39a18.43,18.43,0,0,1-4.48.76c-2,0-4,.58-3-.16,1.37-.87,2.78-1.66,4.22-2.39.39-.2.77-.38,1.19-.55a78,78,0,0,1-8,.53c-7.78.14-7.37-.25-.66-1.91,1.34-.32,3.07-.67,5.2-1a25.43,25.43,0,0,1-2.48-.65,32,32,0,0,1-5-2.08c-1-.74,1.81-.54,5-1.35A28.81,28.81,0,0,1,651.42,110.54Z"/></g></g><g id="Group-60"><path d="M752.86,83.69c-2.7-1.18-6.82-1.26-9.18.59-40.48,30.88-46.62,35.51-87.19,66.32-19.11,14.55-16.41,13.38-33.16,33.49.93.93,2.36.34,3.45-.08,5.81-1.77,5.89-1,11.45-3.54,4.71-2.18,8.33-4.29,12.87-6.81A107.43,107.43,0,0,0,663,166.34c42-28.53,27.36-16.41,69.69-47.3C740.91,113,754,104.9,759.59,95.81,762.87,90.85,757.91,85.88,752.86,83.69Z"/><path class="cls-2" d="M638.82,172.81c11.1-10.77,6.81-8.16,18.17-16.15,45.79-32,35.86-27.61,80-61.78A29.08,29.08,0,0,1,745.53,90c5.14-1.6,9.52.42,7,6-1.77,4.12-9.42,7.91-13,10.44q-19.69,14.64-39.73,29c-26.76,19.18-11.44,7.06-38.88,25.24C645.63,170.88,654,164.4,638.82,172.81Z"/><path d="M740.74,86.72c2.69,6.06,7.15,11,5.89,18.18a1.75,1.75,0,0,0,3.45.59c1.52-6.4-2.27-16.92-8.92-19-.34-.17-.59.08-.42.25Z"/><path d="M740.4,96.15c.17,1.68.76,3.28.93,5a40.65,40.65,0,0,1-.25,5.47c-.09,1.27,1.68,2.19,2.27.76,1.51-3.37.75-9.34-2.53-11.45-.17,0-.5.17-.42.26Z"/><path d="M737.79,100.78c-.33,2.35-.42,4.79-.84,7.23a1.45,1.45,0,1,0,2.86.34,10.83,10.83,0,0,0-1.68-7.57c-.09-.09-.34-.17-.34,0Z"/><path d="M717.76,117.27c.09,1.09.51,2.19.51,3.37s-.51,2.35-.59,3.45A1.32,1.32,0,0,0,720,125c1.6-2.1,1.26-6.64-.93-8.33-.5-.17-1.34,0-1.26.59Z"/><path d="M712.63,119.71c-.42,1.43.08,3.12.08,4.63,0,.84.09,1.6.09,2.44s-.17,1.52.33,2.19a.84.84,0,0,0,1.35.17c1.18-1.18.67-3.71.42-5.14-.25-1.6-.67-3.53-2-4.37-.08-.09-.25.08-.25.08Z"/><path d="M701.52,119.71c1.6,3,4,5.72,4.71,9.09.34,1.85-.42,2.95-.59,4.63a2.37,2.37,0,0,0,.42,1.43,1.82,1.82,0,0,0,1.52.67c3.2-.33,2.69-6.06,2-8.08-1.1-3.78-4.21-6.39-7.83-8-.17-.17-.34,0-.25.25Z"/><path d="M701.27,129.73c-.51.84,0,2,0,2.86s.25,2.44-.26,3.28a1,1,0,0,0,.85,1.52c1.76.08,1.68-2.7,1.59-4-.08-1.09-.75-3.45-2-3.7Z"/><path d="M695.37,134.44c-.33,2.36.17,4.54-.75,6.82-.76,1.76,1.85,3.2,2.61,1.43,1.09-2.61,1.43-7-1.44-8.5-.33,0-.42.08-.42.25Z"/><path d="M680.81,151.36c.17-1.86-.25-4.8-1.93-5.81-.34-.17-.84,0-.84.33h0c-.26,1.6.25,3.29,0,4.89a7.57,7.57,0,0,1-.84,2.52Z"/></g></g></g></g></g></g></svg>